<?xml version="1.0" encoding="UTF-8" standalone="no"?>
<!-- Generator: Adobe Illustrator 16.0.0, SVG Export Plug-In . SVG Version: 6.00 Build 0)  -->

<svg
   xmlns:dc="http://purl.org/dc/elements/1.1/"
   xmlns:cc="http://creativecommons.org/ns#"
   xmlns:rdf="http://www.w3.org/1999/02/22-rdf-syntax-ns#"
   xmlns:svg="http://www.w3.org/2000/svg"
   xmlns="http://www.w3.org/2000/svg"
   xmlns:sodipodi="http://sodipodi.sourceforge.net/DTD/sodipodi-0.dtd"
   xmlns:inkscape="http://www.inkscape.org/namespaces/inkscape"
   version="1.1"
   id="Capa_1"
   x="0px"
   y="0px"
   width="97.251px"
   height="97.251px"
   viewBox="0 0 97.251 97.251"
   style="enable-background:new 0 0 97.251 97.251;"
   xml:space="preserve"
   inkscape:version="0.91 r13725"
   sodipodi:docname="collapse.svg"><metadata
     id="metadata41"><rdf:RDF><cc:Work
         rdf:about=""><dc:format>image/svg+xml</dc:format><dc:type
           rdf:resource="http://purl.org/dc/dcmitype/StillImage" /></cc:Work></rdf:RDF></metadata><defs
     id="defs39" /><sodipodi:namedview
     pagecolor="#ffffff"
     bordercolor="#666666"
     borderopacity="1"
     objecttolerance="10"
     gridtolerance="10"
     guidetolerance="10"
     inkscape:pageopacity="0"
     inkscape:pageshadow="2"
     inkscape:window-width="1043"
     inkscape:window-height="727"
     id="namedview37"
     showgrid="false"
     inkscape:zoom="2.4267103"
     inkscape:cx="48.6255"
     inkscape:cy="48.6255"
     inkscape:window-x="698"
     inkscape:window-y="103"
     inkscape:window-maximized="0"
     inkscape:current-layer="Capa_1" /><g
     id="g3"
     transform="matrix(0.88592927,0,0,0.88592927,5.5879195,6.6017231)"><path
       d="m 78.535,86.295 c -0.494,0.494 -1.213,0.688 -1.889,0.506 -0.674,-0.18 -1.201,-0.707 -1.381,-1.381 l -4.8,-17.94 c -0.18,-0.674 0.01,-1.395 0.506,-1.889 0.494,-0.493 1.213,-0.688 1.887,-0.506 l 17.935,4.808 c 0.674,0.181 1.201,0.707 1.383,1.382 0.181,0.674 -0.014,1.395 -0.506,1.889 l -3.099,3.098 8.681,10.912 0,-77.098 -8.682,10.911 3.099,3.097 c 0.492,0.494 0.687,1.216 0.506,1.889 -0.182,0.675 -0.709,1.201 -1.383,1.382 L 72.857,32.162 C 72.183,32.344 71.464,32.15 70.97,31.656 70.474,31.162 70.284,30.442 70.464,29.768 L 75.265,11.83 c 0.18,-0.674 0.707,-1.201 1.381,-1.382 0.677,-0.182 1.396,0.012 1.89,0.506 l 3.101,3.1 11.039,-8.779 -88.101,0 11.04,8.779 3.1,-3.1 c 0.494,-0.494 1.213,-0.688 1.889,-0.506 0.674,0.181 1.201,0.708 1.381,1.382 l 4.801,17.938 c 0.18,0.674 -0.01,1.394 -0.506,1.888 -0.494,0.494 -1.213,0.688 -1.887,0.506 L 6.459,27.354 C 5.785,27.173 5.258,26.647 5.076,25.972 4.896,25.299 5.09,24.577 5.582,24.083 L 8.68,20.986 0,10.075 0,87.172 8.68,76.26 5.582,73.164 C 5.09,72.67 4.896,71.949 5.076,71.275 5.258,70.6 5.785,70.074 6.459,69.893 l 17.934,-4.808 c 0.674,-0.182 1.393,0.013 1.887,0.506 0.496,0.494 0.686,1.215 0.506,1.889 l -4.801,17.938 c -0.18,0.674 -0.707,1.201 -1.381,1.383 -0.676,0.182 -1.395,-0.012 -1.889,-0.506 l -3.1,-3.101 -11.04,8.781 88.1,0 -11.04,-8.778 -3.1,3.098 z"
       id="path5"
       inkscape:connector-curvature="0" /></g><g
     id="g7" /><g
     id="g9" /><g
     id="g11" /><g
     id="g13" /><g
     id="g15" /><g
     id="g17" /><g
     id="g19" /><g
     id="g21" /><g
     id="g23" /><g
     id="g25" /><g
     id="g27" /><g
     id="g29" /><g
     id="g31" /><g
     id="g33" /><g
     id="g35" /></svg>