<?xml version="1.0" encoding="UTF-8" standalone="no"?>
<!-- Generator: Adobe Illustrator 16.0.0, SVG Export Plug-In . SVG Version: 6.00 Build 0)  -->

<svg
   xmlns:dc="http://purl.org/dc/elements/1.1/"
   xmlns:cc="http://creativecommons.org/ns#"
   xmlns:rdf="http://www.w3.org/1999/02/22-rdf-syntax-ns#"
   xmlns:svg="http://www.w3.org/2000/svg"
   xmlns="http://www.w3.org/2000/svg"
   xmlns:sodipodi="http://sodipodi.sourceforge.net/DTD/sodipodi-0.dtd"
   xmlns:inkscape="http://www.inkscape.org/namespaces/inkscape"
   version="1.1"
   id="Capa_1"
   x="0px"
   y="0px"
   width="583.898px"
   height="583.898px"
   viewBox="0 0 583.898 583.898"
   style="enable-background:new 0 0 583.898 583.898;"
   xml:space="preserve"
   inkscape:version="0.91 r13725"
   sodipodi:docname="_collapse-selected.svg"><metadata
     id="metadata47"><rdf:RDF><cc:Work
         rdf:about=""><dc:format>image/svg+xml</dc:format><dc:type
           rdf:resource="http://purl.org/dc/dcmitype/StillImage" /></cc:Work></rdf:RDF></metadata><defs
     id="defs45" /><sodipodi:namedview
     pagecolor="#ffffff"
     bordercolor="#666666"
     borderopacity="1"
     objecttolerance="10"
     gridtolerance="10"
     guidetolerance="10"
     inkscape:pageopacity="0"
     inkscape:pageshadow="2"
     inkscape:window-width="890"
     inkscape:window-height="665"
     id="namedview43"
     showgrid="false"
     inkscape:zoom="0.40418018"
     inkscape:cx="291.94901"
     inkscape:cy="291.94901"
     inkscape:window-x="0"
     inkscape:window-y="0"
     inkscape:window-maximized="0"
     inkscape:current-layer="Capa_1" /><g
     id="g3"
     transform="matrix(0.81382298,0,0,0.81382298,54.422346,61.68879)"><g
       id="g5"><g
         id="g7"><path
           d="m 0.618,484.965 c -0.009,15.576 6.053,30.219 17.067,41.23 l 40.138,40.139 c 11.005,11.004 25.637,17.064 41.199,17.064 15.586,0 30.232,-6.074 41.242,-17.105 l 74.681,-74.834 c 9.754,6.926 21.343,10.656 33.47,10.656 14.894,0 29.094,-5.602 39.985,-15.775 1.245,-1.162 2.422,-2.381 3.55,-3.635 1.129,1.254 2.306,2.473 3.55,3.635 10.891,10.174 25.091,15.775 39.985,15.775 12.126,0 23.716,-3.73 33.47,-10.656 l 74.681,74.832 c 11.01,11.031 25.656,17.107 41.242,17.107 15.562,0 30.194,-6.061 41.198,-17.066 l 40.14,-40.139 c 11.013,-11.012 17.074,-25.654 17.066,-41.229 -0.009,-15.576 -6.084,-30.213 -17.109,-41.215 L 490.74,368.476 c 11.052,-16.035 13.448,-36.701 5.822,-55.195 -3.447,-8.359 -8.662,-15.586 -15.107,-21.331 6.444,-5.745 11.659,-12.97 15.106,-21.329 7.629,-18.498 5.232,-39.162 -5.821,-55.199 l 75.433,-75.275 c 11.025,-11.001 17.101,-25.638 17.109,-41.213 0.008,-15.575 -6.054,-30.217 -17.067,-41.23 L 526.077,17.565 C 515.071,6.561 500.439,0.5 484.877,0.5 c -15.586,0 -30.231,6.075 -41.241,17.107 l -74.682,74.832 c -9.752,-6.922 -21.342,-10.655 -33.467,-10.655 -14.896,-0.001 -29.098,5.602 -39.988,15.775 -1.245,1.163 -2.421,2.38 -3.55,3.635 -1.128,-1.254 -2.306,-2.472 -3.55,-3.635 -10.891,-10.173 -25.091,-15.775 -39.985,-15.775 -12.126,0 -23.716,3.731 -33.47,10.655 L 140.263,17.607 C 129.253,6.576 114.607,0.5 99.021,0.5 c 0,0 -0.001,0 -0.003,0 C 83.456,0.502 68.826,6.562 57.822,17.566 l -40.14,40.14 C 6.67,68.717 0.609,83.36 0.617,98.935 0.625,114.511 6.7,129.146 17.725,140.148 l 75.433,75.275 c -11.052,16.036 -13.448,36.701 -5.822,55.197 3.447,8.359 8.662,15.585 15.107,21.331 -6.444,5.745 -11.659,12.97 -15.106,21.329 -7.628,18.498 -5.232,39.162 5.821,55.199 L 17.726,443.752 C 6.701,454.754 0.625,469.391 0.618,484.965 Z m 291.23,-194.989 c 0.035,-0.036 0.066,-0.075 0.101,-0.111 0.035,0.036 0.066,0.075 0.101,0.111 0.646,0.677 1.31,1.334 1.989,1.973 -0.68,0.641 -1.343,1.299 -1.989,1.975 -0.035,0.035 -0.066,0.074 -0.101,0.109 -0.034,-0.035 -0.065,-0.072 -0.1,-0.109 -0.647,-0.676 -1.311,-1.336 -1.99,-1.975 0.68,-0.638 1.343,-1.297 1.989,-1.973 z m 244.064,184.1 c 6.034,6.023 6.04,15.797 0.012,21.824 l -40.14,40.141 c -3.012,3.012 -6.96,4.518 -10.907,4.518 -3.952,0 -7.904,-1.51 -10.918,-4.529 l -93.461,-93.648 c -3.013,-3.02 -6.966,-4.529 -10.919,-4.529 -3.94,-0.002 -7.88,1.5 -10.891,4.502 l -12.424,12.389 c -3.14,3.131 -6.997,4.533 -10.78,4.533 -7.931,0 -15.536,-6.16 -15.535,-15.457 l 0.01,-112.1 c -0.294,-6.375 4.808,-11.656 11.121,-11.656 0.173,0 0.347,0.006 0.522,0.014 l 111.094,-0.01 c 13.766,-0.002 20.638,16.664 10.873,26.365 l -11.845,11.77 c -6.062,6.021 -6.071,15.824 -0.023,21.859 l 94.211,94.014 z M 335.484,124.624 c 3.783,0 7.641,1.402 10.78,4.533 l 12.424,12.389 c 3.011,3.002 6.95,4.502 10.891,4.502 3.953,0 7.906,-1.51 10.919,-4.529 l 93.461,-93.65 c 3.014,-3.019 6.966,-4.529 10.918,-4.529 3.947,0 7.896,1.506 10.907,4.518 l 40.14,40.14 c 6.028,6.028 6.023,15.803 -0.012,21.824 l -94.213,94.015 c -6.048,6.036 -6.037,15.837 0.024,21.86 l 11.845,11.769 c 9.765,9.703 2.894,26.368 -10.874,26.366 l -111.093,-0.009 c -0.176,0.008 -0.349,0.012 -0.522,0.012 -6.313,0 -11.415,-5.279 -11.122,-11.655 l -0.01,-112.1 c 10e-4,-9.297 7.607,-15.456 15.537,-15.456 z M 47.986,109.823 c -6.034,-6.022 -6.04,-15.797 -0.012,-21.824 l 40.14,-40.14 c 3.012,-3.012 6.959,-4.518 10.906,-4.518 3.953,0 7.905,1.51 10.918,4.529 l 93.462,93.65 c 3.012,3.019 6.966,4.529 10.918,4.529 3.94,0 7.88,-1.5 10.891,-4.502 l 12.424,-12.389 c 3.14,-3.131 6.998,-4.533 10.78,-4.533 7.93,0 15.536,6.159 15.536,15.457 l -0.01,112.1 c 0.293,6.376 -4.808,11.655 -11.122,11.655 -0.173,0 -0.347,-0.003 -0.522,-0.012 l -111.093,0.009 c -13.767,10e-4 -20.639,-16.664 -10.874,-26.366 l 11.845,-11.769 c 6.061,-6.022 6.072,-15.825 0.024,-21.86 L 47.986,109.823 Z m 0,364.253 94.212,-94.014 c 6.048,-6.037 6.038,-15.838 -0.023,-21.861 L 130.33,346.433 c -9.765,-9.703 -2.894,-26.367 10.873,-26.367 l 111.093,0.01 c 0.175,-0.008 0.349,-0.012 0.523,-0.012 6.312,0 11.415,5.279 11.121,11.656 l 0.01,112.098 c 0,9.299 -7.605,15.457 -15.536,15.457 -3.783,0 -7.64,-1.402 -10.78,-4.533 l -12.423,-12.389 c -3.011,-3.002 -6.95,-4.502 -10.891,-4.502 -3.953,0 -7.906,1.51 -10.918,4.529 l -93.462,93.65 c -3.014,3.018 -6.965,4.527 -10.918,4.527 -3.947,0 -7.895,-1.506 -10.906,-4.518 L 47.976,495.9 c -6.029,-6.027 -6.024,-15.802 0.01,-21.824 z"
           id="path9"
           inkscape:connector-curvature="0" /><path
           d="m 484.877,583.898 c -15.719,0 -30.491,-6.128 -41.596,-17.254 L 368.897,492.11 c -9.828,6.874 -21.372,10.505 -33.413,10.505 -15.022,0 -29.344,-5.65 -40.327,-15.91 -1.063,-0.993 -2.116,-2.062 -3.208,-3.256 -1.089,1.191 -2.143,2.26 -3.209,3.256 -10.982,10.26 -25.304,15.91 -40.326,15.91 -12.041,0 -23.584,-3.631 -33.414,-10.505 l -74.383,74.536 c -11.104,11.125 -25.876,17.252 -41.596,17.252 -15.696,0 -30.453,-6.112 -41.553,-17.211 L 17.33,526.548 C 6.222,515.441 0.109,500.674 0.118,484.965 0.125,469.256 6.253,454.494 17.373,443.399 l 75.138,-74.98 C 81.422,352.085 79.31,331.434 86.874,313.09 c 3.359,-8.146 8.345,-15.256 14.821,-21.139 -6.476,-5.882 -11.461,-12.992 -14.822,-21.14 -7.563,-18.342 -5.451,-38.993 5.637,-55.327 L 17.371,140.503 C 6.253,129.406 0.125,114.644 0.117,98.935 0.109,83.227 6.222,68.459 17.329,57.353 l 40.14,-40.14 C 68.566,6.115 83.322,0.002 99.019,0 c 15.723,0 30.495,6.127 41.598,17.254 L 215,91.788 c 9.83,-6.874 21.374,-10.504 33.414,-10.504 15.021,0 29.343,5.65 40.326,15.91 1.069,0.999 2.122,2.067 3.209,3.256 1.091,-1.193 2.144,-2.263 3.209,-3.257 10.982,-10.259 25.303,-15.909 40.323,-15.909 12.044,0 23.586,3.631 33.416,10.504 L 443.282,17.254 C 454.386,6.127 469.158,0 484.877,0 500.573,0 515.33,6.113 526.43,17.212 l 40.138,40.139 c 11.108,11.107 17.222,25.875 17.214,41.584 -0.009,15.709 -6.138,30.472 -17.256,41.566 l -75.139,74.981 c 11.089,16.334 13.201,36.986 5.636,55.329 -3.36,8.148 -8.345,15.257 -14.821,21.138 6.477,5.881 11.462,12.991 14.822,21.141 7.563,18.342 5.451,38.992 -5.637,55.325 l 75.139,74.98 c 11.119,11.095 17.247,25.857 17.256,41.568 0.008,15.708 -6.105,30.476 -17.213,41.582 l -40.14,40.139 c -11.098,11.101 -25.855,17.214 -41.552,17.214 z m -115.867,-93.091 0.298,0.299 74.681,74.832 c 10.916,10.938 25.438,16.961 40.889,16.961 15.43,0 29.936,-6.009 40.845,-16.92 l 40.14,-40.139 c 10.919,-10.918 16.928,-25.435 16.92,-40.875 -0.009,-15.443 -6.033,-29.954 -16.963,-40.861 l -75.728,-75.567 0.236,-0.344 c 11.102,-16.106 13.26,-36.563 5.772,-54.721 -3.374,-8.182 -8.414,-15.297 -14.979,-21.148 l -0.419,-0.373 0.419,-0.373 c 6.564,-5.852 11.604,-12.966 14.978,-21.146 7.488,-18.159 5.331,-38.617 -5.771,-54.725 l -0.236,-0.343 75.728,-75.569 c 10.93,-10.906 16.954,-25.417 16.963,-40.859 0.008,-15.441 -6.002,-29.958 -16.921,-40.876 L 525.724,17.921 C 514.812,7.009 500.307,1 484.877,1 469.426,1 454.904,7.023 443.989,17.96 l -74.979,75.132 -0.345,-0.245 c -9.734,-6.91 -21.207,-10.562 -33.178,-10.563 -14.771,0 -28.85,5.555 -39.647,15.64 -1.163,1.087 -2.314,2.266 -3.52,3.604 l -0.372,0.413 -0.372,-0.413 c -1.2,-1.333 -2.351,-2.512 -3.52,-3.604 -10.797,-10.085 -24.876,-15.64 -39.644,-15.64 -11.973,0 -23.446,3.652 -33.18,10.563 l -0.345,0.245 -74.98,-75.131 C 128.994,7.024 114.474,1 99.021,1 83.589,1.002 69.084,7.011 58.176,17.92 L 18.036,58.06 C 7.118,68.977 1.109,83.494 1.117,98.935 c 0.008,15.441 6.031,29.953 16.961,40.859 l 75.728,75.569 -0.237,0.343 c -11.101,16.107 -13.258,36.564 -5.771,54.723 3.374,8.181 8.413,15.296 14.977,21.148 l 0.419,0.373 -0.418,0.373 c -6.566,5.854 -11.604,12.969 -14.977,21.146 -7.488,18.159 -5.331,38.617 5.771,54.725 l 0.237,0.344 -0.295,0.294 -75.432,75.273 c -10.932,10.909 -16.955,25.419 -16.962,40.86 -0.009,15.442 6,29.959 16.92,40.877 l 40.138,40.139 c 10.911,10.91 25.417,16.918 40.846,16.918 15.452,0 29.973,-6.022 40.888,-16.959 l 74.98,-75.133 0.345,0.245 c 9.733,6.91 21.207,10.563 33.18,10.563 14.768,0 28.847,-5.555 39.644,-15.641 1.166,-1.089 2.317,-2.268 3.52,-3.604 l 0.372,-0.412 0.372,0.412 c 1.205,1.339 2.356,2.519 3.519,3.604 10.797,10.086 24.876,15.641 39.645,15.641 11.974,0 23.447,-3.653 33.181,-10.563 l 0.342,-0.245 z m 115.867,50.252 c -4.259,0 -8.263,-1.661 -11.271,-4.676 l -93.461,-93.648 c -2.82,-2.826 -6.572,-4.383 -10.565,-4.383 l -0.008,0 c -3.973,0 -7.713,1.547 -10.53,4.356 l -12.423,12.389 c -3.026,3.017 -6.98,4.679 -11.134,4.679 -4.066,0 -8.105,-1.596 -11.083,-4.377 -3.194,-2.983 -4.952,-7.096 -4.952,-11.58 l 0.01,-112.1 c -0.147,-3.185 0.992,-6.23 3.21,-8.552 2.343,-2.454 5.493,-3.738 8.956,-3.591 l 111.071,-0.01 c 6.574,-10e-4 12.216,3.774 14.723,9.854 2.507,6.078 1.167,12.732 -3.497,17.366 l -11.845,11.77 c -2.836,2.817 -4.4,6.571 -4.405,10.569 -0.005,3.999 1.552,7.757 4.383,10.582 l 94.211,94.016 c 3.013,3.008 4.674,7.008 4.676,11.264 0.002,4.257 -1.654,8.258 -4.664,11.268 l -40.14,40.141 c -3.009,3.006 -7.008,4.663 -11.262,4.663 z m -115.306,-103.707 0.008,0 c 4.261,0 8.265,1.661 11.272,4.676 l 93.461,93.648 c 2.821,2.826 6.573,4.383 10.564,4.383 3.987,0 7.735,-1.553 10.554,-4.371 l 40.14,-40.141 c 2.821,-2.82 4.373,-6.57 4.371,-10.56 -0.002,-3.99 -1.559,-7.738 -4.383,-10.558 l -94.211,-94.016 c -3.02,-3.014 -4.681,-7.023 -4.676,-11.29 0.005,-4.267 1.674,-8.271 4.7,-11.277 l 11.845,-11.77 c 4.371,-4.343 5.627,-10.579 3.277,-16.276 -2.349,-5.697 -7.636,-9.235 -13.798,-9.234 l -111.094,0.01 c -0.19,-0.008 -0.357,-0.014 -0.522,-0.014 -2.929,0 -5.659,1.17 -7.688,3.295 -2.026,2.122 -3.068,4.906 -2.934,7.838 l -0.009,112.123 c 0,4.204 1.646,8.058 4.635,10.85 2.794,2.61 6.585,4.107 10.4,4.107 3.943,0 7.549,-1.518 10.427,-4.388 l 12.424,-12.389 c 3.008,-2.996 6.998,-4.646 11.237,-4.646 z M 99.021,541.059 c -4.253,0 -8.252,-1.656 -11.26,-4.664 l -40.14,-40.139 c -3.01,-3.011 -4.667,-7.013 -4.665,-11.271 0.002,-4.257 1.663,-8.257 4.676,-11.263 l 94.212,-94.014 c 2.83,-2.826 4.387,-6.584 4.382,-10.582 -0.005,-3.998 -1.569,-7.753 -4.405,-10.571 l -11.845,-11.768 c -4.664,-4.634 -6.004,-11.289 -3.498,-17.367 2.506,-6.078 8.148,-9.854 14.723,-9.854 l 111.093,0.01 c 0.161,-0.008 0.342,-0.012 0.523,-0.012 3.205,0 6.192,1.28 8.411,3.604 2.217,2.322 3.357,5.367 3.209,8.576 l 0.01,112.074 c 0,4.485 -1.758,8.598 -4.952,11.581 -2.978,2.781 -7.017,4.376 -11.083,4.376 -4.153,0 -8.107,-1.662 -11.133,-4.679 l -12.423,-12.389 c -2.818,-2.81 -6.56,-4.356 -10.538,-4.356 -3.993,0 -7.745,1.557 -10.564,4.383 l -93.462,93.65 c -3.008,3.014 -7.012,4.675 -11.271,4.675 z m 42.183,-220.493 c -6.162,0 -11.45,3.539 -13.799,9.235 -2.349,5.697 -1.093,11.934 3.278,16.277 l 11.845,11.768 c 3.026,3.007 4.695,7.013 4.7,11.278 0.004,4.267 -1.656,8.276 -4.676,11.291 L 48.339,474.43 c -2.824,2.818 -4.38,6.567 -4.382,10.557 -0.002,3.989 1.55,7.741 4.372,10.562 l 40.14,40.139 c 2.819,2.818 6.566,4.371 10.553,4.371 3.992,0 7.744,-1.556 10.564,-4.381 l 93.462,-93.65 c 3.008,-3.015 7.012,-4.676 11.272,-4.676 4.245,0 8.238,1.65 11.244,4.647 l 12.423,12.389 c 2.878,2.87 6.484,4.388 10.427,4.388 3.815,0 7.606,-1.497 10.401,-4.106 2.989,-2.792 4.635,-6.646 4.635,-10.851 l -0.01,-112.098 c 0.135,-2.956 -0.906,-5.739 -2.933,-7.862 -2.145,-2.245 -5.069,-3.412 -8.189,-3.283 l -111.114,-0.01 z m 150.849,-25.933 -0.538,-0.334 c -0.677,-0.708 -1.34,-1.366 -1.998,-1.985 l -0.387,-0.364 0.387,-0.364 c 0.673,-0.633 1.335,-1.291 1.97,-1.954 l 0.36,-0.378 0.527,0.336 c 0.664,0.698 1.327,1.356 2.008,1.996 l 0.387,0.364 -0.387,0.364 c -0.671,0.633 -1.334,1.291 -1.97,1.956 l -0.359,0.363 z m -1.468,-2.684 c 0.456,0.438 0.913,0.893 1.364,1.358 0.443,-0.457 0.9,-0.912 1.364,-1.358 -0.467,-0.447 -0.924,-0.902 -1.364,-1.357 -0.443,0.458 -0.9,0.912 -1.364,1.357 z m 40.494,-27.614 c -3.205,0 -6.192,-1.28 -8.412,-3.604 -2.217,-2.322 -3.356,-5.367 -3.209,-8.575 l -0.011,-112.077 c 10e-4,-7.844 5.999,-15.957 16.036,-15.957 4.154,0 8.108,1.662 11.135,4.679 l 12.424,12.389 c 2.816,2.809 6.559,4.356 10.537,4.356 3.992,0 7.745,-1.556 10.565,-4.382 l 93.461,-93.65 c 3.01,-3.015 7.013,-4.676 11.271,-4.676 4.254,0 8.253,1.656 11.261,4.664 l 40.14,40.14 c 3.011,3.01 4.667,7.012 4.664,11.269 -0.002,4.257 -1.663,8.257 -4.676,11.263 l -94.213,94.015 c -2.83,2.824 -4.387,6.582 -4.382,10.58 0.004,3.999 1.568,7.753 4.405,10.572 l 11.845,11.769 c 4.663,4.634 6.004,11.289 3.497,17.367 -2.506,6.078 -8.147,9.854 -14.722,9.854 L 331.6,264.322 c -0.159,0.01 -0.339,0.013 -0.521,0.013 z m 4.404,-139.211 c -9.411,0 -15.035,7.604 -15.036,14.957 l 0.01,112.1 c -0.136,2.956 0.906,5.739 2.934,7.861 2.145,2.245 5.051,3.422 8.188,3.283 l 111.116,0.009 c 6.163,0 11.45,-3.539 13.799,-9.236 2.35,-5.696 1.094,-11.933 -3.277,-16.276 l -11.845,-11.769 c -3.026,-3.007 -4.696,-7.013 -4.7,-11.28 -0.005,-4.266 1.655,-8.275 4.675,-11.289 l 94.213,-94.015 c 2.824,-2.817 4.381,-6.566 4.383,-10.556 0.003,-3.989 -1.55,-7.74 -4.371,-10.561 l -40.14,-40.14 c -2.818,-2.819 -6.566,-4.371 -10.554,-4.371 -3.991,0 -7.743,1.556 -10.564,4.382 l -93.461,93.65 c -3.009,3.015 -7.013,4.676 -11.272,4.676 -4.245,0 -8.238,-1.651 -11.244,-4.648 l -12.424,-12.389 c -2.879,-2.871 -6.485,-4.388 -10.43,-4.388 l 0,0 z m -82.665,139.211 c -0.177,0 -0.355,-0.003 -0.535,-0.012 l -111.081,0.009 c -6.575,0 -12.217,-3.775 -14.723,-9.854 -2.507,-6.078 -1.167,-12.733 3.497,-17.367 l 11.845,-11.769 c 2.836,-2.818 4.401,-6.572 4.405,-10.571 0.004,-3.999 -1.552,-7.757 -4.382,-10.581 L 47.633,110.175 c -3.014,-3.007 -4.674,-7.008 -4.676,-11.265 -0.002,-4.256 1.654,-8.258 4.664,-11.267 l 40.14,-40.14 c 3.008,-3.008 7.006,-4.664 11.26,-4.664 4.259,0 8.263,1.661 11.272,4.676 l 93.462,93.65 c 2.82,2.826 6.571,4.382 10.564,4.382 3.978,0 7.721,-1.547 10.538,-4.356 l 12.424,-12.389 c 3.026,-3.018 6.98,-4.679 11.133,-4.679 4.066,0 8.105,1.595 11.083,4.376 3.194,2.983 4.953,7.096 4.953,11.58 l -0.01,112.1 c 0.147,3.185 -0.993,6.23 -3.21,8.552 -2.22,2.325 -5.207,3.604 -8.412,3.604 z m -0.522,-1.012 0.025,0 c 3.142,0.166 6.043,-1.039 8.186,-3.282 2.026,-2.122 3.068,-4.906 2.934,-7.838 L 263.45,140.08 c 0,-4.204 -1.646,-8.057 -4.635,-10.85 -2.794,-2.61 -6.585,-4.107 -10.4,-4.107 -3.943,0 -7.549,1.517 -10.427,4.387 l -12.425,12.39 c -3.006,2.998 -7,4.648 -11.244,4.648 -4.26,0 -8.263,-1.661 -11.272,-4.676 l -93.462,-93.65 c -2.82,-2.826 -6.572,-4.382 -10.564,-4.382 -3.986,0 -7.734,1.552 -10.553,4.371 l -40.14,40.14 c -2.821,2.82 -4.373,6.57 -4.371,10.56 0.002,3.99 1.559,7.739 4.382,10.557 l 94.211,94.015 c 3.02,3.014 4.681,7.023 4.676,11.29 -0.005,4.267 -1.674,8.272 -4.7,11.279 l -11.845,11.769 c -4.371,4.343 -5.627,10.581 -3.278,16.277 2.349,5.697 7.637,9.235 13.799,9.234 l 111.094,-0.009 z"
           id="path11"
           inkscape:connector-curvature="0" /></g></g></g><g
     id="g13" /><g
     id="g15" /><g
     id="g17" /><g
     id="g19" /><g
     id="g21" /><g
     id="g23" /><g
     id="g25" /><g
     id="g27" /><g
     id="g29" /><g
     id="g31" /><g
     id="g33" /><g
     id="g35" /><g
     id="g37" /><g
     id="g39" /><g
     id="g41" /></svg>