<?xml version="1.0" encoding="iso-8859-1"?>
<!-- Generator: Adobe Illustrator 16.0.0, SVG Export Plug-In . SVG Version: 6.00 Build 0)  -->
<!DOCTYPE svg PUBLIC "-//W3C//DTD SVG 1.1//EN" "http://www.w3.org/Graphics/SVG/1.1/DTD/svg11.dtd">
<svg version="1.1" id="Capa_1" xmlns="http://www.w3.org/2000/svg" xmlns:xlink="http://www.w3.org/1999/xlink" x="0px" y="0px"
	 width="97.309px" height="97.308px" viewBox="0 0 97.309 97.308" style="enable-background:new 0 0 97.309 97.308;"
	 xml:space="preserve">
<g>
	<path d="M97.153,87.8l-4.736-17.672c-0.181-0.675-0.707-1.201-1.382-1.383c-0.673-0.181-1.396,0.013-1.889,0.507l-3.098,3.097
		L70.766,60.194V37.115l15.283-12.156l3.098,3.097c0.493,0.493,1.216,0.687,1.889,0.506c0.675-0.181,1.201-0.708,1.382-1.383
		l4.807-17.933c0.183-0.674-0.012-1.394-0.506-1.888c-0.494-0.495-1.214-0.686-1.888-0.506l-17.938,4.801
		c-0.674,0.181-1.2,0.707-1.382,1.382c-0.182,0.675,0.013,1.395,0.506,1.889l3.101,3.099L66.708,33.624H30.584L18.176,18.022
		l3.098-3.099c0.495-0.494,0.688-1.215,0.506-1.889c-0.18-0.675-0.708-1.201-1.382-1.382l-17.936-4.8
		c-0.677-0.18-1.395,0.011-1.889,0.506C0.079,7.852-0.114,8.572,0.067,9.246l4.808,17.933c0.18,0.675,0.707,1.202,1.382,1.383
		c0.673,0.181,1.395-0.013,1.888-0.506l3.098-3.097l15.284,12.157v23.077L11.242,72.349l-3.098-3.096
		c-0.493-0.493-1.215-0.688-1.888-0.507c-0.675,0.182-1.202,0.708-1.382,1.383L0.067,88.062c-0.181,0.674,0.012,1.394,0.506,1.888
		c0.372,0.371,0.871,0.573,1.383,0.573c0.169,0,0.339-0.021,0.506-0.067l17.937-4.801c0.674-0.181,1.202-0.707,1.382-1.382
		c0.182-0.674-0.011-1.395-0.506-1.889l-3.098-3.1l12.408-15.601h36.122l12.408,15.602l-3.101,3.1
		c-0.493,0.494-0.688,1.214-0.506,1.889s0.708,1.201,1.383,1.382l17.938,4.8c0.167,0.046,0.336,0.067,0.505,0.067
		c0.007,0,0.016,0,0.02,0c1.081,0,1.954-0.876,1.954-1.955C97.308,88.295,97.253,88.037,97.153,87.8z"/>
</g>
<g>
</g>
<g>
</g>
<g>
</g>
<g>
</g>
<g>
</g>
<g>
</g>
<g>
</g>
<g>
</g>
<g>
</g>
<g>
</g>
<g>
</g>
<g>
</g>
<g>
</g>
<g>
</g>
<g>
</g>
</svg>
