<?xml version="1.0" encoding="UTF-8" standalone="no"?>
<!-- Generator: Adobe Illustrator 16.0.0, SVG Export Plug-In . SVG Version: 6.00 Build 0)  -->

<svg
   xmlns:dc="http://purl.org/dc/elements/1.1/"
   xmlns:cc="http://creativecommons.org/ns#"
   xmlns:rdf="http://www.w3.org/1999/02/22-rdf-syntax-ns#"
   xmlns:svg="http://www.w3.org/2000/svg"
   xmlns="http://www.w3.org/2000/svg"
   xmlns:sodipodi="http://sodipodi.sourceforge.net/DTD/sodipodi-0.dtd"
   xmlns:inkscape="http://www.inkscape.org/namespaces/inkscape"
   version="1.1"
   id="Capa_1"
   x="0px"
   y="0px"
   width="497.199px"
   height="497.199px"
   viewBox="0 0 497.199 497.199"
   style="enable-background:new 0 0 497.199 497.199;"
   xml:space="preserve"
   sodipodi:docname="hide-selected-smart.svg"
   inkscape:version="0.92.4 (5da689c313, 2019-01-14)"><metadata
   id="metadata41"><rdf:RDF><cc:Work
       rdf:about=""><dc:format>image/svg+xml</dc:format><dc:type
         rdf:resource="http://purl.org/dc/dcmitype/StillImage" /><dc:title></dc:title></cc:Work></rdf:RDF></metadata><defs
   id="defs39" /><sodipodi:namedview
   pagecolor="#ffffff"
   bordercolor="#666666"
   borderopacity="1"
   objecttolerance="10"
   gridtolerance="10"
   guidetolerance="10"
   inkscape:pageopacity="0"
   inkscape:pageshadow="2"
   inkscape:window-width="912"
   inkscape:window-height="625"
   id="namedview37"
   showgrid="false"
   inkscape:zoom="0.47465904"
   inkscape:cx="248.5995"
   inkscape:cy="248.5995"
   inkscape:window-x="427"
   inkscape:window-y="651"
   inkscape:window-maximized="0"
   inkscape:current-layer="Capa_1" />
<g
   id="g4"
   transform="matrix(0.61440679,0,0,0.61440679,191.71656,238.96445)">
	<path
   d="m 191.2,248.6 c 0,-15.3 5.7,-28.7 17.2,-40.2 11.5,-11.5 24.9,-17.2 40.2,-17.2 z M 174,265.8 c -1.9,-5.7 -1.9,-11.5 -1.9,-17.2 0,-42.1 34.4,-76.5 76.5,-76.5 5.701,0 11.5,0 17.201,1.9 l 51.6,-51.6 c -21,-5.7 -44,-7.7 -68.9,-7.7 C 76.5,114.7 0,248.6 0,248.6 c 0,0 30.6,53.5 97.5,93.7 z M 306,248.6 248.6,306 c 15.3,0 28.701,-5.7 40.201,-17.2 C 300.199,277.3 306,263.899 306,248.6 Z m 93.699,-93.701 -76.5,76.5 c 1.9,5.7 1.9,11.5 1.9,17.2 0,42.1 -34.4,76.5 -76.5,76.5 -5.7,0 -11.5,0 -17.2,-1.9 L 179.8,374.8 c 21,5.7 44,7.6 68.8,7.6 172.099,0 248.599,-133.9 248.599,-133.9 0,0 -30.599,-53.4 -97.5,-93.601 z m 1.701,-78 -324.5,324.5 18.9,18.9 L 420.4,95.7 Z"
   id="path2"
   inkscape:connector-curvature="0" />
</g>
<g
   id="g6">
</g>
<g
   id="g8">
</g>
<g
   id="g10">
</g>
<g
   id="g12">
</g>
<g
   id="g14">
</g>
<g
   id="g16">
</g>
<g
   id="g18">
</g>
<g
   id="g20">
</g>
<g
   id="g22">
</g>
<g
   id="g24">
</g>
<g
   id="g26">
</g>
<g
   id="g28">
</g>
<g
   id="g30">
</g>
<g
   id="g32">
</g>
<g
   id="g34">
</g>
<g
   transform="matrix(1.3012587,0,0,1.3012587,0,3.61335)"
   id="g866"><circle
     cx="108.75"
     cy="67.982002"
     r="60"
     id="circle2" /><path
     d="M 108.75,157.982 C 48.689,157.982 0,206.671 0,266.732 h 145.285 c 0,-32.364 11.941,-61.991 31.647,-84.709 -18.651,-15.033 -42.361,-24.041 -68.182,-24.041 z"
     id="path6"
     inkscape:connector-curvature="0" /></g></svg>