<?xml version="1.0" encoding="iso-8859-1"?>
<!-- Generator: Adobe Illustrator 18.1.1, SVG Export Plug-In . SVG Version: 6.00 Build 0)  -->
<svg version="1.1" id="Capa_1" xmlns="http://www.w3.org/2000/svg" xmlns:xlink="http://www.w3.org/1999/xlink" x="0px" y="0px"
	 viewBox="0 0 15.381 15.381" style="enable-background:new 0 0 15.381 15.381;" xml:space="preserve">
<g>
	<g>
		<path style="fill:#030104;" d="M14.055,2.453l-1.901-1.901c-0.736-0.736-1.935-0.736-2.672,0l-6.9,6.902
			C2.044,7.991,1.901,8.772,2.148,9.442l-1.366,3.909c-0.062,0.195,0.279,0.536,0.475,0.476l3.917-1.363
			c0.667,0.242,1.445,0.096,1.979-0.438l6.902-6.902C14.791,4.388,14.791,3.189,14.055,2.453z M12.594,4.771L7.432,9.933
			c-0.312,0.312-0.838,0.292-1.176-0.046L4.719,8.35C4.383,8.013,4.363,7.486,4.674,7.174l5.162-5.162
			c0.312-0.312,0.838-0.291,1.175,0.045l1.537,1.538C12.885,3.933,12.906,4.46,12.594,4.771z"/>
		<rect x="1.649" y="14.285" style="fill:#030104;" width="8.108" height="1.096"/>
	</g>
</g>
<g>
</g>
<g>
</g>
<g>
</g>
<g>
</g>
<g>
</g>
<g>
</g>
<g>
</g>
<g>
</g>
<g>
</g>
<g>
</g>
<g>
</g>
<g>
</g>
<g>
</g>
<g>
</g>
<g>
</g>
</svg>
