<?xml version="1.0" encoding="iso-8859-1"?>
<!-- Generator: Adobe Illustrator 17.1.0, SVG Export Plug-In . SVG Version: 6.00 Build 0)  -->
<!DOCTYPE svg PUBLIC "-//W3C//DTD SVG 1.1//EN" "http://www.w3.org/Graphics/SVG/1.1/DTD/svg11.dtd">
<svg version="1.1" id="Capa_1" xmlns="http://www.w3.org/2000/svg" xmlns:xlink="http://www.w3.org/1999/xlink" x="0px" y="0px"
	 viewBox="0 0 296.875 296.875" style="enable-background:new 0 0 296.875 296.875;" xml:space="preserve">
<path d="M296.875,124.438c0-68.345-66.402-123.75-148.417-123.75S0,56.092,0,124.438c0,49.01,34.212,91.363,83.799,111.406
	c2.043,15.549,15.384,27.594,31.481,27.594c11.514,0,21.621-6.162,27.188-15.361c2.013,0.067,3.87,0.111,5.904,0.111
	c6.093,0,11.836-0.313,17.836-0.907v33.907c0,8.284,6.716,15,15,15s15-6.716,15-15v-39.611
	C254.208,224.946,296.875,178.785,296.875,124.438z M148.375,218.188c-3.651,0-7.19-0.137-10.779-0.395
	c-1.742-0.708-3.601-1.105-5.596-1.105c-0.943,0-2.007,0.098-2.902,0.264c-5.352-0.692-10.89-1.668-15.89-2.927v-6.337
	c0-14.612,11.888-26.5,26.5-26.5s26.5,11.888,26.5,26.5v9.427C160.208,217.825,154.463,218.188,148.375,218.188z M234.175,188.895
	c-10.98,9.15-23.967,16.302-37.967,21.252v-2.46c0-31.154-25.179-56.5-56.334-56.5c-29.528,0-53.738,22.772-56.196,51.675
	c-7.548-3.946-14.556-8.615-20.978-13.967c-21.087-17.572-32.679-40.464-32.679-64.458S41.644,77.552,62.731,59.98
	c22.667-18.889,53.143-29.292,85.805-29.292s63.135,10.403,85.802,29.292c21.087,17.572,32.618,40.464,32.618,64.458
	S255.262,171.323,234.175,188.895z"/>
<g>
</g>
<g>
</g>
<g>
</g>
<g>
</g>
<g>
</g>
<g>
</g>
<g>
</g>
<g>
</g>
<g>
</g>
<g>
</g>
<g>
</g>
<g>
</g>
<g>
</g>
<g>
</g>
<g>
</g>
</svg>
