<?xml version="1.0" encoding="UTF-8" standalone="no"?>
<!-- Generator: Adobe Illustrator 16.0.0, SVG Export Plug-In . SVG Version: 6.00 Build 0)  -->

<svg
   xmlns:dc="http://purl.org/dc/elements/1.1/"
   xmlns:cc="http://creativecommons.org/ns#"
   xmlns:rdf="http://www.w3.org/1999/02/22-rdf-syntax-ns#"
   xmlns:svg="http://www.w3.org/2000/svg"
   xmlns="http://www.w3.org/2000/svg"
   xmlns:sodipodi="http://sodipodi.sourceforge.net/DTD/sodipodi-0.dtd"
   xmlns:inkscape="http://www.inkscape.org/namespaces/inkscape"
   version="1.1"
   id="Capa_1"
   x="0px"
   y="0px"
   width="485.215px"
   height="485.215px"
   viewBox="0 0 485.215 485.215"
   style="enable-background:new 0 0 485.215 485.215;"
   xml:space="preserve"
   inkscape:version="0.92.2 5c3e80d, 2017-08-06"
   sodipodi:docname="layout-static.svg"><metadata
     id="metadata41"><rdf:RDF><cc:Work
         rdf:about=""><dc:format>image/svg+xml</dc:format><dc:type
           rdf:resource="http://purl.org/dc/dcmitype/StillImage" /><dc:title /></cc:Work></rdf:RDF></metadata><defs
     id="defs39" /><sodipodi:namedview
     pagecolor="#ffffff"
     bordercolor="#666666"
     borderopacity="1"
     objecttolerance="10"
     gridtolerance="10"
     guidetolerance="10"
     inkscape:pageopacity="0"
     inkscape:pageshadow="2"
     inkscape:window-width="1089"
     inkscape:window-height="666"
     id="namedview37"
     showgrid="false"
     inkscape:zoom="0.48638233"
     inkscape:cx="273.55023"
     inkscape:cy="407.08716"
     inkscape:window-x="110"
     inkscape:window-y="41"
     inkscape:window-maximized="0"
     inkscape:current-layer="Capa_1" /><g
     id="g10349"
     transform="matrix(9.555651,0,0,9.555651,33.619919,20.049693)"><g
       id="Layer_1_110_"><g
         id="g10352"><path
           inkscape:connector-curvature="0"
           d="m 17.567,15.938 -2.859,-2.702 c 0.333,-0.605 0.539,-1.29 0.539,-2.029 0,-2.342 -1.897,-4.239 -4.24,-4.239 -2.343,0 -4.243,1.896 -4.243,4.239 0,2.343 1.9,4.241 4.243,4.241 0.826,0 1.59,-0.246 2.242,-0.654 l 2.855,2.699 c 0.432,-0.571 0.919,-1.094 1.463,-1.555 z"
           id="path10354" /><path
           inkscape:connector-curvature="0"
           d="m 29.66,15.6 3.799,-6.393 c 0.374,0.107 0.762,0.184 1.169,0.184 2.347,0 4.244,-1.898 4.244,-4.241 0,-2.342 -1.897,-4.239 -4.244,-4.239 -2.343,0 -4.239,1.896 -4.239,4.239 0,1.163 0.469,2.214 1.227,2.981 l -3.787,6.375 c 0.651,0.295 1.265,0.663 1.831,1.094 z"
           id="path10356" /><path
           inkscape:connector-curvature="0"
           d="m 42.762,20.952 c -1.824,0 -3.369,1.159 -3.968,2.775 l -5.278,-0.521 c 0,0.04 0.006,0.078 0.006,0.117 0,0.688 -0.076,1.36 -0.213,2.009 l 5.276,0.521 c 0.319,2.024 2.062,3.576 4.177,3.576 2.342,0 4.238,-1.896 4.238,-4.238 0,-2.341 -1.896,-4.239 -4.238,-4.239 z"
           id="path10358" /><path
           inkscape:connector-curvature="0"
           d="m 28.197,37.624 -1.18,-5.156 c -0.666,0.232 -1.359,0.398 -2.082,0.481 l 1.182,5.157 c -1.355,0.709 -2.29,2.11 -2.29,3.746 0,2.342 1.896,4.237 4.243,4.237 2.342,0 4.238,-1.896 4.238,-4.237 0.003,-2.299 -1.829,-4.16 -4.111,-4.228 z"
           id="path10360" /><circle
           cx="23.83"
           cy="23.323"
           r="7.2709999"
           id="circle10364" /></g></g></g><g
     id="g10366"
     transform="matrix(9.555651,0,0,9.555651,17.619919,18.049693)" /><g
     id="g10368"
     transform="matrix(9.555651,0,0,9.555651,17.619919,18.049693)" /><g
     id="g10370"
     transform="matrix(9.555651,0,0,9.555651,17.619919,18.049693)" /><g
     id="g10372"
     transform="matrix(9.555651,0,0,9.555651,17.619919,18.049693)" /><g
     id="g10374"
     transform="matrix(9.555651,0,0,9.555651,17.619919,18.049693)" /><g
     id="g10376"
     transform="matrix(9.555651,0,0,9.555651,17.619919,18.049693)" /><g
     id="g10378"
     transform="matrix(9.555651,0,0,9.555651,17.619919,18.049693)" /><g
     id="g10380"
     transform="matrix(9.555651,0,0,9.555651,17.619919,18.049693)" /><g
     id="g10382"
     transform="matrix(9.555651,0,0,9.555651,17.619919,18.049693)" /><g
     id="g10384"
     transform="matrix(9.555651,0,0,9.555651,17.619919,18.049693)" /><g
     id="g10386"
     transform="matrix(9.555651,0,0,9.555651,17.619919,18.049693)" /><g
     id="g10388"
     transform="matrix(9.555651,0,0,9.555651,17.619919,18.049693)" /><g
     id="g10390"
     transform="matrix(9.555651,0,0,9.555651,17.619919,18.049693)" /><g
     id="g10392"
     transform="matrix(9.555651,0,0,9.555651,17.619919,18.049693)" /><g
     id="g10394"
     transform="matrix(9.555651,0,0,9.555651,17.619919,18.049693)" /><g
     id="g399"
     transform="matrix(5.3828157,0,0,5.3828157,8.1917596,261.07722)"><g
       id="g343"><path
         id="path341"
         d="m 39.622,21.746 -6.749,6.75 c -0.562,0.562 -1.326,0.879 -2.122,0.879 -0.796,0 -1.56,-0.316 -2.121,-0.879 l -6.75,-6.75 c -1.171,-1.171 -1.171,-3.071 0,-4.242 1.171,-1.172 3.071,-1.172 4.242,0 l 1.832,1.832 C 27.486,13.697 22.758,9.25 17,9.25 c -6.064,0 -11,4.935 -11,11 0,6.064 4.936,11 11,11 1.657,0 3,1.343 3,3 0,1.657 -1.343,3 -3,3 -9.373,0 -17,-7.626 -17,-17 0,-9.374 7.627,-17 17,-17 8.936,0 16.266,6.933 16.936,15.698 l 1.442,-1.444 c 1.172,-1.172 3.072,-1.172 4.242,0 1.172,1.17 1.172,3.07 0.002,4.242 z"
         inkscape:connector-curvature="0" /></g><g
       id="g345" /><g
       id="g347" /><g
       id="g349" /><g
       id="g351" /><g
       id="g353" /><g
       id="g355" /><g
       id="g357" /><g
       id="g359" /><g
       id="g361" /><g
       id="g363" /><g
       id="g365" /><g
       id="g367" /><g
       id="g369" /><g
       id="g371" /><g
       id="g373" /></g></svg>