<?xml version="1.0" encoding="iso-8859-1"?>
<!-- Generator: Adobe Illustrator 18.0.0, SVG Export Plug-In . SVG Version: 6.00 Build 0)  -->
<!DOCTYPE svg PUBLIC "-//W3C//DTD SVG 1.1//EN" "http://www.w3.org/Graphics/SVG/1.1/DTD/svg11.dtd">
<svg version="1.1" id="Capa_1" xmlns="http://www.w3.org/2000/svg" xmlns:xlink="http://www.w3.org/1999/xlink" x="0px" y="0px"
	 viewBox="0 0 297.613 297.613" style="enable-background:new 0 0 297.613 297.613;" xml:space="preserve">
<g>
	<path d="M213.574,75.039h-64.768c-4.971,0-9,4.029-9,9s4.029,9,9,9h55.768v55.768c0,4.971,4.029,9,9,9s9-4.029,9-9V84.039
		C222.574,79.068,218.545,75.039,213.574,75.039z"/>
	<path d="M148.807,204.574H93.039v-55.768c0-4.971-4.029-9-9-9s-9,4.029-9,9v64.768c0,4.971,4.029,9,9,9h64.768c4.971,0,9-4.029,9-9
		S153.777,204.574,148.807,204.574z"/>
	<path d="M148.807,0C66.754,0,0,66.754,0,148.807s66.754,148.807,148.807,148.807s148.807-66.754,148.807-148.807
		S230.859,0,148.807,0z M148.807,279.613C76.68,279.613,18,220.934,18,148.807S76.68,18,148.807,18s130.807,58.68,130.807,130.807
		S220.934,279.613,148.807,279.613z"/>
</g>
<g>
</g>
<g>
</g>
<g>
</g>
<g>
</g>
<g>
</g>
<g>
</g>
<g>
</g>
<g>
</g>
<g>
</g>
<g>
</g>
<g>
</g>
<g>
</g>
<g>
</g>
<g>
</g>
<g>
</g>
</svg>
