<?xml version="1.0" encoding="UTF-8" standalone="no"?>
<!DOCTYPE svg PUBLIC "-//W3C//DTD SVG 1.1//EN" "http://www.w3.org/Graphics/SVG/1.1/DTD/svg11.dtd">
<svg width="100%" height="100%" viewBox="0 0 611 728" version="1.1" xmlns="http://www.w3.org/2000/svg" xmlns:xlink="http://www.w3.org/1999/xlink" xml:space="preserve" style="fill-rule:evenodd;clip-rule:evenodd;stroke-linecap:round;stroke-linejoin:round;stroke-miterlimit:1.5;">
    <g transform="matrix(1,0,0,1,-1433,-1432)">
        <g transform="matrix(1,0,0,1,0,-1191)">
            <g transform="matrix(1.52118e-17,0.250818,-0.25815,1.57969e-17,2002.07,2389.93)">
                <path d="M1713.97,529.807C1565.54,652.451 1480,832.205 1480,1021.5C1480,1377.76 1777.75,1667 2144.5,1667C2511.25,1667 2809,1377.76 2809,1021.5C2809,868.256 2752.88,720.01 2650.67,603.28L2349.37,852.227C2390.74,899.473 2413.45,959.475 2413.45,1021.5C2413.45,1165.69 2292.94,1282.76 2144.5,1282.76C1996.06,1282.76 1875.55,1165.69 1875.55,1021.5C1875.55,944.884 1910.17,872.129 1970.25,822.49L1713.97,529.807Z" style="fill:rgb(254,255,254);stroke:rgb(1,0,1);stroke-width:49.11px;"/>
            </g>
            <g transform="matrix(1,0,0,1,1070,2236)">
                <path d="M363,692C363.133,523.53 499.719,387 668.187,387C836.624,387 973.374,523.777 973.374,692.247C973.374,860.717 836.624,997.494 668.187,997.494C620.254,997.494 572.994,986.201 530.237,964.53L593.021,840.609C616.318,852.417 642.069,858.57 668.187,858.57C759.966,858.57 834.478,784.043 834.478,692.247C834.478,600.45 759.966,525.923 668.187,525.923C576.429,525.923 502.029,600.256 501.897,692L501.898,692L501.898,1114.93L363,1114.93L363,692L363,692Z" style="fill:rgb(1,0,1);"/>
            </g>
        </g>
    </g>
</svg>
