<?xml version="1.0" encoding="UTF-8" standalone="no"?>
<!-- Generator: Adobe Illustrator 16.0.0, SVG Export Plug-In . SVG Version: 6.00 Build 0)  -->

<svg
   xmlns:dc="http://purl.org/dc/elements/1.1/"
   xmlns:cc="http://creativecommons.org/ns#"
   xmlns:rdf="http://www.w3.org/1999/02/22-rdf-syntax-ns#"
   xmlns:svg="http://www.w3.org/2000/svg"
   xmlns="http://www.w3.org/2000/svg"
   xmlns:sodipodi="http://sodipodi.sourceforge.net/DTD/sodipodi-0.dtd"
   xmlns:inkscape="http://www.inkscape.org/namespaces/inkscape"
   version="1.1"
   id="Capa_1"
   x="0px"
   y="0px"
   width="485.215px"
   height="485.215px"
   viewBox="0 0 485.215 485.215"
   style="enable-background:new 0 0 485.215 485.215;"
   xml:space="preserve"
   inkscape:version="0.91 r13725"
   sodipodi:docname="_remove-highlights.svg"><metadata
     id="metadata41"><rdf:RDF><cc:Work
         rdf:about=""><dc:format>image/svg+xml</dc:format><dc:type
           rdf:resource="http://purl.org/dc/dcmitype/StillImage" /><dc:title /></cc:Work></rdf:RDF></metadata><defs
     id="defs39" /><sodipodi:namedview
     pagecolor="#ffffff"
     bordercolor="#666666"
     borderopacity="1"
     objecttolerance="10"
     gridtolerance="10"
     guidetolerance="10"
     inkscape:pageopacity="0"
     inkscape:pageshadow="2"
     inkscape:window-width="1089"
     inkscape:window-height="666"
     id="namedview37"
     showgrid="false"
     inkscape:zoom="0.48638233"
     inkscape:cx="-60.651874"
     inkscape:cy="407.08716"
     inkscape:window-x="616"
     inkscape:window-y="19"
     inkscape:window-maximized="0"
     inkscape:current-layer="Capa_1" /><g
     id="g10180"
     transform="matrix(29.471951,0,0,29.471951,-19.860522,15.205427)"><g
       id="g10136"><g
         id="g10138"><path
           id="path10140"
           d="M 14.055,2.453 12.154,0.552 c -0.736,-0.736 -1.935,-0.736 -2.672,0 l -6.9,6.902 C 2.044,7.991 1.901,8.772 2.148,9.442 l -1.366,3.909 c -0.062,0.195 0.279,0.536 0.475,0.476 l 3.917,-1.363 c 0.667,0.242 1.445,0.096 1.979,-0.438 l 6.902,-6.902 c 0.736,-0.736 0.736,-1.935 0,-2.671 z M 12.594,4.771 7.432,9.933 C 7.12,10.245 6.594,10.225 6.256,9.887 L 4.719,8.35 C 4.383,8.013 4.363,7.486 4.674,7.174 L 9.836,2.012 C 10.148,1.7 10.674,1.721 11.011,2.057 l 1.537,1.538 c 0.337,0.338 0.358,0.865 0.046,1.176 z"
           style="fill:#030104"
           inkscape:connector-curvature="0" /><rect
           id="rect10142"
           height="1.096"
           width="8.1079998"
           style="fill:#030104"
           y="14.285"
           x="1.649" /></g></g><g
       id="g10144" /><g
       id="g10146" /><g
       id="g10148" /><g
       id="g10150" /><g
       id="g10152" /><g
       id="g10154" /><g
       id="g10156" /><g
       id="g10158" /><g
       id="g10160" /><g
       id="g10162" /><g
       id="g10164" /><g
       id="g10166" /><g
       id="g10168" /><g
       id="g10170" /><g
       id="g10172" /></g><g
     id="g10244"
     transform="matrix(0.37406617,0,0,0.37406617,255.3654,243.68676)"><g
       id="g10202"><g
         id="g10204"><path
           id="path10206"
           d="M 587.826,186.966 C 571.71,149.634 549.882,117.198 522.342,89.658 494.802,62.118 462.366,40.29 425.034,24.174 387.702,8.058 348.024,0 306,0 277.848,0 250.716,3.672 224.604,11.016 198.492,18.36 174.114,28.662 151.47,41.922 128.826,55.182 108.222,71.094 89.658,89.658 71.094,108.222 55.182,128.826 41.922,151.47 28.662,174.116 18.36,198.492 11.016,224.604 3.672,250.716 0,277.848 0,306 c 0,28.152 3.672,55.284 11.016,81.396 7.344,26.11 17.646,50.487 30.906,73.134 13.26,22.644 29.172,43.249 47.736,61.812 18.564,18.564 39.168,34.478 61.812,47.736 22.644,13.26 47.022,23.561 73.134,30.906 C 250.716,608.328 277.848,612 306,612 c 28.152,0 55.284,-3.672 81.396,-11.016 26.111,-7.346 50.488,-17.646 73.135,-30.906 22.644,-13.259 43.249,-29.172 61.812,-47.736 18.564,-18.563 34.478,-39.168 47.736,-61.812 13.26,-22.646 23.561,-47.023 30.906,-73.135 C 608.328,361.284 612,334.152 612,306 612,263.976 603.942,224.298 587.826,186.966 Z M 468.18,391.68 c 2.04,2.04 3.063,4.284 3.063,6.732 0,2.448 -1.021,4.488 -3.063,6.12 l -59.976,60.588 c -1.631,1.632 -3.876,2.448 -6.732,2.448 -2.854,0 -4.895,-0.816 -6.12,-2.448 L 309.06,378.828 223.38,465.12 c -2.448,1.632 -4.692,2.448 -6.732,2.448 -1.632,0 -3.672,-0.816 -6.12,-2.448 l -59.976,-60.588 c -2.04,-1.226 -3.06,-3.267 -3.06,-6.12 0,-2.448 1.02,-4.692 3.06,-6.732 l 85.68,-85.68 -85.68,-85.68 c -2.04,-2.04 -3.06,-4.284 -3.06,-6.732 0,-2.856 1.02,-4.896 3.06,-6.12 l 59.976,-60.588 c 1.632,-1.632 3.672,-2.448 6.12,-2.448 2.448,0 4.692,0.816 6.732,2.448 l 85.68,86.292 86.292,-86.292 c 1.635,-1.632 3.675,-2.448 6.12,-2.448 2.448,0 4.692,0.816 6.732,2.448 l 59.976,60.588 c 2.04,1.632 3.063,3.672 3.063,6.12 0,2.448 -1.021,4.692 -3.063,6.732 L 382.5,306 l 85.68,85.68 z"
           style="fill:#010002"
           inkscape:connector-curvature="0" /></g></g><g
       id="g10208" /><g
       id="g10210" /><g
       id="g10212" /><g
       id="g10214" /><g
       id="g10216" /><g
       id="g10218" /><g
       id="g10220" /><g
       id="g10222" /><g
       id="g10224" /><g
       id="g10226" /><g
       id="g10228" /><g
       id="g10230" /><g
       id="g10232" /><g
       id="g10234" /><g
       id="g10236" /></g></svg>