<?xml version="1.0" encoding="UTF-8" standalone="no"?>
<svg
   xmlns:dc="http://purl.org/dc/elements/1.1/"
   xmlns:cc="http://creativecommons.org/ns#"
   xmlns:rdf="http://www.w3.org/1999/02/22-rdf-syntax-ns#"
   xmlns:svg="http://www.w3.org/2000/svg"
   xmlns="http://www.w3.org/2000/svg"
   xmlns:sodipodi="http://sodipodi.sourceforge.net/DTD/sodipodi-0.dtd"
   xmlns:inkscape="http://www.inkscape.org/namespaces/inkscape"
   version="1.1"
   viewBox="0 0 220 220"
   stroke-miterlimit="10"
   id="svg905"
   sodipodi:docname="sbgnbricks-logo.svg"
   width="220"
   height="220"
   inkscape:version="0.92.4 (5da689c313, 2019-01-14)"
   style="fill:none;stroke:none;stroke-linecap:square;stroke-miterlimit:10">
  <metadata
     id="metadata911">
    <rdf:RDF>
      <cc:Work
         rdf:about="">
        <dc:format>image/svg+xml</dc:format>
        <dc:type
           rdf:resource="http://purl.org/dc/dcmitype/StillImage" />
        <dc:title></dc:title>
      </cc:Work>
    </rdf:RDF>
  </metadata>
  <defs
     id="defs909" />
  <sodipodi:namedview
     pagecolor="#ffffff"
     bordercolor="#666666"
     borderopacity="1"
     objecttolerance="10"
     gridtolerance="10"
     guidetolerance="10"
     inkscape:pageopacity="0"
     inkscape:pageshadow="2"
     inkscape:window-width="1326"
     inkscape:window-height="913"
     id="namedview907"
     showgrid="false"
     inkscape:zoom="1.0275145"
     inkscape:cx="69.002692"
     inkscape:cy="89.809999"
     inkscape:window-x="355"
     inkscape:window-y="121"
     inkscape:window-maximized="0"
     inkscape:current-layer="g903"
     inkscape:document-rotation="0"
     fit-margin-top="5"
     fit-margin-left="5"
     fit-margin-right="5"
     fit-margin-bottom="5" />
  <clipPath
     id="gcd6779efb2_0_7.0">
    <path
       d="M 0,0 H 1280 V 720 H 0 Z"
       id="path882"
       inkscape:connector-curvature="0"
       style="clip-rule:nonzero" />
  </clipPath>
  <g
     clip-path="url(#gcd6779efb2_0_7.0)"
     id="g903"
     transform="translate(-521.5828,-252.23363)">
    <path
       d="M 0,0 H 1280 V 720 H 0 Z"
       id="path885"
       style="fill:#00ffff;fill-opacity:0;fill-rule:evenodd"
       inkscape:connector-curvature="0" />
    <g
       id="g829"
       transform="translate(1.190755,-0.56612358)">
      <path
         inkscape:connector-curvature="0"
         style="fill:#7c7c7c;fill-opacity:1;fill-rule:evenodd;stroke:none;stroke-width:5;stroke-miterlimit:8;stroke-dasharray:none;stroke-opacity:1"
         id="path899"
         d="m 641.79187,395.45522 v 0 c 0,-11.88126 9.63165,-21.51294 21.51294,-21.51294 h 49.38361 v 0 c 5.70556,0 11.17749,2.26654 15.21191,6.30099 4.03448,4.03446 6.30096,9.50635 6.30096,15.21195 v 50.26547 c 0,11.88129 -9.63165,21.51294 -21.51287,21.51294 h -49.38361 c -11.88129,0 -21.51294,-9.63165 -21.51294,-21.51294 z" />
      <rect
         transform="rotate(-27.247131)"
         ry="0"
         y="534.00305"
         x="382.63071"
         height="90"
         width="90"
         id="rect823"
         style="opacity:1;fill:#c5c5c5;fill-opacity:1;stroke:none;stroke-width:5;stroke-miterlimit:8;stroke-dasharray:none;stroke-dashoffset:0;stroke-opacity:1" />
      <path
         style="fill:#000000;fill-opacity:1;fill-rule:evenodd;stroke:none;stroke-width:5;stroke-miterlimit:8;stroke-dasharray:none;stroke-opacity:1"
         id="path891"
         d="m 526.5828,413.96875 v 0 c 0,-28.32742 22.98511,-51.29135 51.33862,-51.29135 v 0 c 13.61585,0 26.67401,5.4039 36.30182,15.02289 9.62787,9.61899 15.03675,22.66516 15.03675,36.26846 v 0 c 0,28.32742 -22.98505,51.29135 -51.33857,51.29135 v 0 c -28.35351,0 -51.33862,-22.96393 -51.33862,-51.29135 z"
         inkscape:connector-curvature="0" />
    </g>
  </g>
</svg>
