<?xml version="1.0" encoding="iso-8859-1"?>
<!-- Generator: Adobe Illustrator 16.0.0, SVG Export Plug-In . SVG Version: 6.00 Build 0)  -->
<!DOCTYPE svg PUBLIC "-//W3C//DTD SVG 1.1//EN" "http://www.w3.org/Graphics/SVG/1.1/DTD/svg11.dtd">
<svg version="1.1" id="Capa_1" xmlns="http://www.w3.org/2000/svg" xmlns:xlink="http://www.w3.org/1999/xlink" x="0px" y="0px"
	 width="97.251px" height="97.251px" viewBox="0 0 97.251 97.251" style="enable-background:new 0 0 97.251 97.251;"
	 xml:space="preserve">
<g>
	<path d="M78.535,86.295c-0.494,0.494-1.213,0.688-1.889,0.506c-0.674-0.18-1.201-0.707-1.381-1.381L70.465,67.48
		c-0.18-0.674,0.01-1.395,0.506-1.889c0.494-0.493,1.213-0.688,1.887-0.506l17.935,4.808c0.674,0.181,1.201,0.707,1.383,1.382
		c0.181,0.674-0.014,1.395-0.506,1.889l-3.099,3.098l8.681,10.912V10.076L88.57,20.987l3.099,3.097
		c0.492,0.494,0.687,1.216,0.506,1.889c-0.182,0.675-0.709,1.201-1.383,1.382l-17.935,4.807c-0.674,0.182-1.393-0.012-1.887-0.506
		c-0.496-0.494-0.686-1.214-0.506-1.888l4.801-17.938c0.18-0.674,0.707-1.201,1.381-1.382c0.677-0.182,1.396,0.012,1.89,0.506
		l3.101,3.1l11.039-8.779H4.575l11.04,8.779l3.1-3.1c0.494-0.494,1.213-0.688,1.889-0.506c0.674,0.181,1.201,0.708,1.381,1.382
		l4.801,17.938c0.18,0.674-0.01,1.394-0.506,1.888c-0.494,0.494-1.213,0.688-1.887,0.506L6.459,27.354
		c-0.674-0.181-1.201-0.707-1.383-1.382c-0.18-0.673,0.014-1.395,0.506-1.889l3.098-3.097L0,10.075v77.097L8.68,76.26l-3.098-3.096
		c-0.492-0.494-0.686-1.215-0.506-1.889c0.182-0.675,0.709-1.201,1.383-1.382l17.934-4.808c0.674-0.182,1.393,0.013,1.887,0.506
		c0.496,0.494,0.686,1.215,0.506,1.889l-4.801,17.938c-0.18,0.674-0.707,1.201-1.381,1.383c-0.676,0.182-1.395-0.012-1.889-0.506
		l-3.1-3.101l-11.04,8.781h88.1l-11.04-8.778L78.535,86.295z"/>
</g>
<g>
</g>
<g>
</g>
<g>
</g>
<g>
</g>
<g>
</g>
<g>
</g>
<g>
</g>
<g>
</g>
<g>
</g>
<g>
</g>
<g>
</g>
<g>
</g>
<g>
</g>
<g>
</g>
<g>
</g>
</svg>
