<?xml version="1.0" encoding="UTF-8" standalone="no"?>
<!-- Generator: Adobe Illustrator 16.0.0, SVG Export Plug-In . SVG Version: 6.00 Build 0)  -->

<svg
   xmlns:dc="http://purl.org/dc/elements/1.1/"
   xmlns:cc="http://creativecommons.org/ns#"
   xmlns:rdf="http://www.w3.org/1999/02/22-rdf-syntax-ns#"
   xmlns:svg="http://www.w3.org/2000/svg"
   xmlns="http://www.w3.org/2000/svg"
   xmlns:sodipodi="http://sodipodi.sourceforge.net/DTD/sodipodi-0.dtd"
   xmlns:inkscape="http://www.inkscape.org/namespaces/inkscape"
   version="1.1"
   id="Capa_1"
   x="0px"
   y="0px"
   width="579.885px"
   height="579.885px"
   viewBox="0 0 579.885 579.885"
   style="enable-background:new 0 0 579.885 579.885;"
   xml:space="preserve"
   inkscape:version="0.91 r13725"
   sodipodi:docname="_expand-selected.svg"><metadata
     id="metadata47"><rdf:RDF><cc:Work
         rdf:about=""><dc:format>image/svg+xml</dc:format><dc:type
           rdf:resource="http://purl.org/dc/dcmitype/StillImage" /></cc:Work></rdf:RDF></metadata><defs
     id="defs45" /><sodipodi:namedview
     pagecolor="#ffffff"
     bordercolor="#666666"
     borderopacity="1"
     objecttolerance="10"
     gridtolerance="10"
     guidetolerance="10"
     inkscape:pageopacity="0"
     inkscape:pageshadow="2"
     inkscape:window-width="976"
     inkscape:window-height="727"
     id="namedview43"
     showgrid="false"
     inkscape:zoom="0.40697724"
     inkscape:cx="289.9425"
     inkscape:cy="289.9425"
     inkscape:window-x="637"
     inkscape:window-y="141"
     inkscape:window-maximized="0"
     inkscape:current-layer="Capa_1" /><g
     id="g3"
     transform="matrix(0.81772349,0,0,0.81772349,56.535411,56.514217)"><g
       id="g5"><g
         id="g7"><path
           d="M 91.446,366.674 C 81.89,360.131 70.64,356.615 58.87,356.615 c -14.859,0 -29.026,5.588 -39.892,15.732 -5.711,5.332 -10.211,11.646 -13.372,18.764 -3.311,7.455 -4.989,15.422 -4.988,23.68 l 0.009,109.596 c -0.285,14.164 5.105,28.064 14.906,38.326 10.12,10.596 24.321,16.672 38.965,16.672 0.375,0 0.753,-0.004 1.131,-0.012 l 110.579,0.01 c 23.583,0.002 44.662,-14.07 53.703,-35.852 7.722,-18.604 5.26,-39.459 -6,-55.551 l 74.03,-73.881 c 0.686,-0.686 1.354,-1.385 2.001,-2.098 0.647,0.713 1.313,1.41 2,2.096 l 74.032,73.883 c -11.26,16.092 -13.723,36.945 -6.001,55.549 9.04,21.781 30.117,35.854 53.698,35.854 l 110.583,-0.01 c 0.378,0.008 0.756,0.012 1.131,0.012 14.644,0 28.846,-6.076 38.965,-16.672 9.802,-10.262 15.191,-24.162 14.907,-38.326 l 0.009,-109.596 c 0.001,-8.256 -1.678,-16.223 -4.988,-23.678 -3.161,-7.119 -7.66,-13.432 -13.371,-18.764 -10.867,-10.146 -25.033,-15.734 -39.892,-15.734 -11.771,0 -23.021,3.518 -32.576,10.059 l -74.456,-74.611 c -0.728,-0.729 -1.471,-1.434 -2.229,-2.119 0.758,-0.685 1.502,-1.39 2.229,-2.119 l 74.456,-74.611 c 9.556,6.542 20.806,10.058 32.576,10.058 14.857,0 29.024,-5.587 39.892,-15.732 5.711,-5.333 10.21,-11.646 13.371,-18.764 3.311,-7.456 4.989,-15.422 4.988,-23.679 L 579.257,55.5 C 579.541,41.336 574.152,27.436 564.35,17.174 554.231,6.578 540.029,0.501 525.386,0.501 c -0.375,0 -0.752,0.004 -1.131,0.012 L 413.677,0.503 c -23.582,-0.002 -44.662,14.07 -53.703,35.851 -7.722,18.604 -5.26,39.458 6.001,55.552 l -74.031,73.882 c -0.686,0.685 -1.353,1.384 -2.001,2.097 -0.647,-0.712 -1.313,-1.411 -2,-2.096 L 213.912,91.906 c 11.259,-16.093 13.722,-36.945 6,-55.549 C 210.872,14.577 189.795,0.503 166.214,0.503 L 55.627,0.512 C 55.262,0.504 54.896,0.5 54.533,0.5 c -0.011,0 -0.021,0 -0.03,0 C 39.858,0.499 25.656,6.575 15.536,17.171 5.732,27.433 0.343,41.333 0.627,55.498 L 0.618,165.095 c 0,8.256 1.677,16.223 4.988,23.678 3.161,7.118 7.66,13.431 13.371,18.764 10.867,10.146 25.033,15.733 39.892,15.733 11.77,0 23.021,-3.517 32.576,-10.059 l 74.456,74.611 c 0.728,0.729 1.471,1.434 2.23,2.12 -0.758,0.686 -1.502,1.392 -2.23,2.12 l -74.455,74.612 z m 198.496,-120.68 c 0.635,0.698 1.288,1.383 1.959,2.056 l 39.817,39.816 c 0.713,0.714 1.442,1.405 2.186,2.076 -0.743,0.671 -1.473,1.362 -2.186,2.075 l -39.816,39.816 c -0.672,0.672 -1.325,1.357 -1.96,2.057 -0.635,-0.699 -1.288,-1.383 -1.959,-2.057 l -39.817,-39.816 c -0.713,-0.713 -1.442,-1.404 -2.186,-2.075 0.743,-0.671 1.473,-1.363 2.186,-2.076 l 39.817,-39.816 c 0.672,-0.671 1.325,-1.357 1.959,-2.056 z m 186.974,169.781 c 2.99,2.996 6.91,4.492 10.83,4.492 3.931,0 7.862,-1.506 10.854,-4.516 l 11.673,-11.75 c 3.121,-3.141 6.969,-4.547 10.743,-4.547 7.864,0 15.411,6.105 15.411,15.332 l -0.01,110.197 c 0.292,6.324 -4.769,11.562 -11.031,11.562 -0.171,0 -0.344,-0.004 -0.518,-0.014 l -111.195,0.01 -10e-4,0 c -13.62,0 -20.451,-16.459 -10.834,-26.104 l 12.288,-12.322 c 5.965,-5.982 5.954,-15.666 -0.026,-21.633 l -92.895,-92.709 c -5.984,-5.973 -5.989,-15.668 -0.011,-21.648 l 39.816,-39.814 c 2.988,-2.988 6.903,-4.482 10.819,-4.482 3.92,0 7.841,1.498 10.829,4.492 l 93.258,93.454 z M 322.205,196.11 415.1,103.402 c 5.98,-5.967 5.991,-15.651 0.026,-21.633 L 402.838,69.446 c -9.618,-9.645 -2.786,-26.104 10.835,-26.104 l 111.195,0.009 c 0.173,-0.008 0.346,-0.012 0.518,-0.012 6.263,0 11.323,5.237 11.031,11.562 l 0.01,110.197 c 0,9.227 -7.547,15.332 -15.411,15.332 -3.774,0 -7.622,-1.406 -10.743,-4.547 L 498.6,164.135 c -2.991,-3.011 -6.923,-4.516 -10.854,-4.516 -3.92,0 -7.841,1.497 -10.83,4.493 l -93.257,93.452 c -2.988,2.995 -6.909,4.493 -10.829,4.493 -3.916,0 -7.831,-1.493 -10.819,-4.481 L 322.195,217.76 c -5.979,-5.981 -5.974,-15.677 0.01,-21.65 z M 102.968,164.111 c -2.989,-2.996 -6.909,-4.493 -10.829,-4.493 -3.932,0 -7.863,1.506 -10.854,4.516 l -11.673,11.749 c -3.121,3.141 -6.968,4.547 -10.742,4.547 -7.865,0 -15.412,-6.104 -15.412,-15.332 L 43.467,54.901 c -0.292,-6.325 4.77,-11.562 11.031,-11.562 0.171,0 0.345,0.003 0.519,0.012 l 111.195,-0.009 0.001,0 c 13.62,0 20.452,16.459 10.834,26.104 l -12.289,12.323 c -5.964,5.982 -5.954,15.666 0.026,21.633 l 92.895,92.708 c 5.984,5.973 5.989,15.669 0.011,21.648 l -39.816,39.816 c -2.988,2.988 -6.903,4.481 -10.819,4.481 -3.919,0 -7.841,-1.498 -10.829,-4.493 l -93.258,-93.451 z m 93.258,158.211 c 2.988,-2.994 6.91,-4.492 10.83,-4.492 3.916,0 7.831,1.492 10.819,4.48 l 39.816,39.816 c 5.979,5.979 5.975,15.676 -0.011,21.648 l -92.895,92.709 c -5.98,5.967 -5.991,15.65 -0.026,21.633 l 12.289,12.322 c 9.618,9.645 2.786,26.105 -10.835,26.104 L 55.018,536.534 c -0.173,0.008 -0.347,0.012 -0.519,0.012 -6.262,0 -11.323,-5.236 -11.031,-11.562 L 43.459,414.787 c 0,-9.227 7.547,-15.332 15.412,-15.332 3.774,0 7.621,1.406 10.742,4.547 l 11.673,11.75 c 2.992,3.01 6.923,4.516 10.854,4.516 3.92,0 7.84,-1.496 10.829,-4.492 l 93.257,-93.454 z"
           id="path9"
           inkscape:connector-curvature="0" /><path
           d="m 525.386,579.885 c -0.379,0 -0.76,-0.004 -1.142,-0.012 l -110.572,0.01 c -23.783,0 -45.043,-14.194 -54.16,-36.162 -7.675,-18.49 -5.497,-39.272 5.813,-55.682 l -73.736,-73.588 c -0.562,-0.562 -1.115,-1.136 -1.646,-1.71 -0.534,0.577 -1.087,1.151 -1.648,1.712 l -73.734,73.586 c 11.311,16.409 13.488,37.191 5.812,55.684 -9.118,21.967 -30.376,36.16 -54.16,36.16 l -110.584,-0.01 c -0.371,0.008 -0.752,0.012 -1.131,0.012 -14.779,0 -29.113,-6.133 -39.327,-16.826 C 5.323,552.748 -0.16,538.649 0.127,524.377 L 0.118,414.791 c -10e-4,-8.328 1.692,-16.363 5.031,-23.883 3.189,-7.181 7.728,-13.548 13.488,-18.926 10.959,-10.232 25.248,-15.867 40.233,-15.867 11.664,0 22.896,3.426 32.515,9.912 l 74.163,-74.318 c 0.592,-0.592 1.21,-1.185 1.842,-1.767 -0.633,-0.582 -1.251,-1.175 -1.842,-1.767 L 91.385,213.857 c -9.619,6.486 -20.852,9.912 -32.515,9.912 -14.985,0 -29.273,-5.635 -40.233,-15.867 C 12.876,202.522 8.339,196.154 5.15,188.975 1.811,181.457 0.118,173.422 0.119,165.094 L 0.127,55.498 C -0.16,41.235 5.325,27.135 15.174,16.826 25.387,6.133 39.72,0 54.497,0 54.9,0 55.268,0.004 55.637,0.012 L 166.214,0.003 c 23.783,0 45.042,14.194 54.16,36.162 7.674,18.49 5.497,39.272 -5.813,55.682 l 73.735,73.587 c 0.557,0.556 1.109,1.129 1.647,1.71 0.539,-0.581 1.091,-1.155 1.647,-1.711 l 73.735,-73.586 c -11.311,-16.41 -13.488,-37.193 -5.813,-55.685 9.118,-21.966 30.377,-36.16 54.16,-36.16 l 110.583,0.01 C 524.628,0.005 525.008,0 525.386,0 c 14.779,0 29.113,6.133 39.326,16.827 9.849,10.31 15.332,24.409 15.046,38.681 l 0.009,109.587 c 10e-4,8.325 -1.691,16.36 -5.031,23.882 -3.188,7.179 -7.726,13.547 -13.487,18.926 -10.96,10.232 -25.248,15.867 -40.232,15.867 -11.662,0 -22.895,-3.426 -32.515,-9.912 l -74.164,74.317 c -0.588,0.589 -1.205,1.182 -1.841,1.766 0.633,0.582 1.251,1.175 1.841,1.766 l 74.164,74.318 c 9.62,-6.486 20.854,-9.912 32.515,-9.912 14.984,0 29.272,5.636 40.232,15.869 5.762,5.379 10.299,11.746 13.487,18.926 3.34,7.521 5.032,15.556 5.031,23.881 l -0.009,109.596 c 0.286,14.263 -5.197,28.361 -15.046,38.672 -10.212,10.695 -24.546,16.828 -39.326,16.828 z m -1.131,-1.012 c 0.385,0.008 0.76,0.012 1.131,0.012 14.508,0 28.578,-6.021 38.604,-16.518 9.667,-10.12 15.05,-23.96 14.769,-37.971 l 0.009,-109.605 c 10e-4,-8.186 -1.663,-16.083 -4.945,-23.475 -3.133,-7.057 -7.593,-13.314 -13.255,-18.602 -10.774,-10.06 -24.82,-15.6 -39.551,-15.6 -11.598,0 -22.765,3.448 -32.294,9.971 l -0.343,0.235 -0.293,-0.294 -74.456,-74.611 c -0.705,-0.705 -1.448,-1.412 -2.211,-2.102 l -0.411,-0.371 0.411,-0.371 c 0.766,-0.692 1.51,-1.399 2.211,-2.101 l 74.749,-74.905 0.343,0.235 c 9.528,6.523 20.695,9.971 32.294,9.971 14.729,0 28.776,-5.54 39.551,-15.598 5.662,-5.287 10.121,-11.546 13.255,-18.602 3.282,-7.393 4.946,-15.291 4.945,-23.476 L 578.759,55.498 C 579.04,41.478 573.657,27.638 563.99,17.518 553.964,7.021 539.894,1.001 525.386,1.001 c -0.372,0 -0.745,0.004 -1.121,0.012 L 413.677,1.003 c -23.383,0 -44.279,13.951 -53.241,35.543 -7.597,18.304 -5.373,38.892 5.948,55.073 l 0.241,0.344 -0.297,0.297 -74.031,73.882 c -0.674,0.672 -1.341,1.372 -1.984,2.079 l -0.37,0.407 -0.37,-0.407 c -0.642,-0.707 -1.309,-1.406 -1.983,-2.078 l -74.329,-74.18 0.241,-0.344 C 224.823,75.437 227.047,54.85 219.45,36.548 210.489,14.955 189.592,1.003 166.214,1.003 L 55.627,1.012 C 55.255,1.004 54.893,1 54.533,1 39.992,1 25.923,7.02 15.898,17.516 6.229,27.637 0.846,41.477 1.127,55.488 L 1.118,165.095 c 0,8.188 1.664,16.086 4.945,23.475 3.133,7.056 7.593,13.314 13.255,18.602 10.774,10.059 24.82,15.598 39.551,15.598 11.599,0 22.766,-3.448 32.293,-9.971 l 0.343,-0.235 0.293,0.294 74.456,74.611 c 0.704,0.706 1.448,1.413 2.211,2.102 l 0.411,0.371 -0.411,0.371 c -0.762,0.688 -1.506,1.396 -2.212,2.103 l -74.748,74.905 -0.343,-0.235 c -9.526,-6.522 -20.693,-9.971 -32.293,-9.971 -14.731,0 -28.777,5.539 -39.55,15.598 -5.662,5.286 -10.122,11.544 -13.256,18.602 -3.282,7.391 -4.946,15.289 -4.945,23.477 l 0.009,109.596 c -0.282,14.021 5.101,27.86 14.768,37.98 10.025,10.497 24.096,16.518 38.604,16.518 0.372,0 0.746,-0.004 1.121,-0.012 l 110.589,0.01 c 23.383,0 44.279,-13.951 53.241,-35.543 7.598,-18.305 5.375,-38.893 -5.948,-55.072 l -0.241,-0.345 0.297,-0.296 74.03,-73.881 c 0.681,-0.681 1.348,-1.381 1.984,-2.08 l 0.37,-0.407 0.37,0.407 c 0.632,0.696 1.3,1.396 1.983,2.078 l 74.329,74.179 -0.241,0.345 c -11.321,16.18 -13.545,36.768 -5.948,55.07 8.962,21.593 29.858,35.545 53.236,35.545 l 110.584,-0.011 z m 1.131,-41.826 c -0.176,0 -0.353,-0.004 -0.531,-0.014 l -111.182,0.01 c -6.508,0 -12.1,-3.733 -14.594,-9.743 -2.494,-6.011 -1.189,-12.605 3.404,-17.214 l 12.288,-12.322 c 5.761,-5.776 5.749,-15.164 -0.025,-20.926 l -92.895,-92.709 c -2.988,-2.982 -4.636,-6.951 -4.638,-11.175 -0.002,-4.223 1.641,-8.193 4.627,-11.181 l 39.816,-39.814 c 2.985,-2.985 6.953,-4.629 11.173,-4.629 4.226,0 8.197,1.647 11.183,4.639 l 93.257,93.453 c 2.797,2.803 6.518,4.346 10.477,4.346 3.971,0 7.699,-1.552 10.499,-4.368 l 11.673,-11.75 c 3.008,-3.027 6.949,-4.694 11.098,-4.694 9.96,0 15.911,8.05 15.911,15.832 l -0.01,110.197 c 0.146,3.16 -0.984,6.182 -3.185,8.486 -2.202,2.305 -5.166,3.576 -8.346,3.576 z m -0.518,-1.014 0.028,10e-4 c 3.103,0.159 5.988,-1.03 8.113,-3.255 2.009,-2.104 3.042,-4.864 2.908,-7.771 l 0.009,-110.221 c 0,-7.291 -5.577,-14.832 -14.911,-14.832 -3.937,0 -7.528,1.521 -10.389,4.399 l -11.673,11.75 c -2.988,3.007 -6.969,4.663 -11.208,4.663 -4.227,0 -8.198,-1.647 -11.184,-4.639 l -93.257,-93.453 c -2.797,-2.803 -6.518,-4.346 -10.476,-4.346 -3.953,0 -7.67,1.54 -10.466,4.336 l -39.816,39.814 c -2.797,2.798 -4.336,6.518 -4.334,10.474 0.002,3.956 1.545,7.673 4.345,10.468 l 92.895,92.709 c 6.164,6.15 6.177,16.172 0.027,22.339 l -12.288,12.323 c -4.304,4.315 -5.526,10.494 -3.189,16.123 2.336,5.63 7.574,9.127 13.669,9.127 l 111.197,-0.009 z m -470.369,1.014 c -3.18,0 -6.145,-1.27 -8.347,-3.576 -2.2,-2.304 -3.331,-5.325 -3.184,-8.51 l -0.01,-110.174 c 0,-4.45 1.745,-8.531 4.915,-11.491 2.954,-2.759 6.962,-4.341 10.997,-4.341 4.147,0 8.088,1.667 11.097,4.694 l 11.673,11.75 c 2.8,2.816 6.529,4.368 10.5,4.368 3.96,0 7.68,-1.543 10.475,-4.346 l 93.257,-93.453 c 2.986,-2.991 6.958,-4.639 11.184,-4.639 4.221,0 8.189,1.644 11.172,4.627 l 39.816,39.816 c 2.986,2.986 4.63,6.956 4.628,11.18 -0.002,4.224 -1.649,8.193 -4.639,11.176 l -92.895,92.709 c -5.774,5.762 -5.785,15.149 -0.025,20.927 l 12.289,12.321 c 4.595,4.607 5.899,11.203 3.405,17.214 -2.494,6.01 -8.085,9.743 -14.592,9.743 L 55.018,537.034 c -0.159,0.009 -0.34,0.013 -0.519,0.013 z M 58.87,399.955 c -3.784,0 -7.543,1.484 -10.314,4.071 -2.965,2.769 -4.598,6.59 -4.598,10.761 l 0.009,110.197 c -0.134,2.932 0.898,5.691 2.908,7.796 2.125,2.226 5.024,3.382 8.12,3.256 l 111.217,0.007 c 6.097,0 11.334,-3.497 13.67,-9.127 2.336,-5.63 1.114,-11.808 -3.189,-16.123 l -12.289,-12.322 c -6.149,-6.168 -6.137,-16.189 0.027,-22.34 l 92.895,-92.709 c 2.8,-2.795 4.343,-6.513 4.345,-10.469 0.002,-3.956 -1.538,-7.676 -4.335,-10.473 L 217.52,322.664 c -2.794,-2.795 -6.511,-4.334 -10.465,-4.334 -3.958,0 -7.679,1.543 -10.476,4.346 l -93.257,93.453 c -2.984,2.991 -6.956,4.639 -11.183,4.639 -4.239,0 -8.22,-1.656 -11.208,-4.663 l -11.673,-11.75 c -2.861,-2.878 -6.453,-4.4 -10.388,-4.4 z m 231.072,-65.32 -0.37,-0.408 c -0.63,-0.693 -1.277,-1.371 -1.943,-2.04 l -39.817,-39.815 c -0.692,-0.691 -1.421,-1.384 -2.167,-2.058 l -0.411,-0.371 0.411,-0.371 c 0.746,-0.673 1.475,-1.366 2.167,-2.059 l 39.817,-39.816 c 0.653,-0.652 1.307,-1.338 1.943,-2.039 l 0.37,-0.407 0.37,0.407 c 0.63,0.692 1.277,1.372 1.942,2.039 l 39.817,39.816 c 0.688,0.689 1.417,1.382 2.167,2.059 l 0.411,0.371 -0.411,0.371 c -0.746,0.674 -1.476,1.366 -2.167,2.058 l -39.816,39.816 c -0.662,0.663 -1.316,1.349 -1.943,2.039 l -0.37,0.408 z m -43.219,-44.693 c 0.617,0.567 1.22,1.145 1.797,1.722 l 39.817,39.816 c 0.548,0.55 1.083,1.105 1.605,1.67 0.523,-0.565 1.062,-1.125 1.606,-1.67 l 39.816,-39.816 c 0.577,-0.577 1.18,-1.154 1.797,-1.722 -0.619,-0.569 -1.223,-1.147 -1.797,-1.723 l -39.817,-39.816 c -0.547,-0.548 -1.082,-1.104 -1.605,-1.669 -0.529,0.572 -1.068,1.132 -1.606,1.67 L 248.52,288.22 c -0.578,0.578 -1.181,1.156 -1.797,1.722 z M 372.83,262.556 c -4.221,0 -8.188,-1.644 -11.173,-4.627 l -39.816,-39.816 c -2.986,-2.987 -4.629,-6.958 -4.627,-11.181 0.002,-4.224 1.649,-8.192 4.638,-11.176 l 92.895,-92.708 c 5.774,-5.762 5.786,-15.149 0.025,-20.926 L 402.484,69.799 c -4.594,-4.607 -5.898,-11.203 -3.404,-17.213 2.494,-6.01 8.086,-9.744 14.593,-9.744 l 111.196,0.009 c 0.158,-0.008 0.338,-0.012 0.518,-0.012 3.181,0 6.145,1.27 8.348,3.576 2.199,2.304 3.33,5.326 3.184,8.509 l 0.01,110.174 c 0,7.782 -5.951,15.832 -15.911,15.832 -4.148,0 -8.09,-1.667 -11.098,-4.695 l -11.673,-11.749 c -2.799,-2.817 -6.527,-4.369 -10.499,-4.369 -3.959,0 -7.68,1.543 -10.477,4.346 l -93.257,93.452 c -2.987,2.993 -6.958,4.641 -11.184,4.641 z m 40.843,-219.214 -10e-4,0.5 c -6.095,0 -11.333,3.497 -13.669,9.127 -2.337,5.629 -1.114,11.808 3.189,16.124 l 12.288,12.323 c 6.149,6.167 6.137,16.189 -0.027,22.34 l -92.895,92.708 c -2.8,2.794 -4.343,6.512 -4.345,10.468 -0.002,3.956 1.537,7.675 4.334,10.473 l 39.816,39.816 c 2.796,2.795 6.513,4.334 10.466,4.334 3.958,0 7.679,-1.543 10.476,-4.346 l 93.257,-93.452 c 2.985,-2.992 6.957,-4.64 11.184,-4.64 4.239,0 8.221,1.656 11.208,4.664 l 11.673,11.749 c 2.859,2.878 6.452,4.4 10.389,4.4 9.334,0 14.911,-7.542 14.911,-14.832 l -0.01,-110.197 c 0.135,-2.931 -0.897,-5.691 -2.907,-7.795 -2.125,-2.226 -5.032,-3.394 -8.119,-3.256 l -111.218,-0.009 0,-0.499 z M 207.055,262.555 c -4.226,0 -8.198,-1.648 -11.183,-4.64 l -93.257,-93.451 c -2.796,-2.802 -6.517,-4.346 -10.475,-4.346 -3.972,0 -7.701,1.551 -10.5,4.369 l -11.673,11.749 c -3.008,3.027 -6.949,4.694 -11.097,4.694 -4.034,0 -8.042,-1.582 -10.997,-4.34 -3.17,-2.959 -4.915,-7.041 -4.915,-11.491 L 42.967,54.902 c -0.146,-3.16 0.985,-6.182 3.185,-8.486 2.327,-2.437 5.492,-3.727 8.889,-3.563 l 111.171,-0.01 c 6.507,0 12.1,3.734 14.594,9.744 2.495,6.01 1.19,12.605 -3.405,17.212 l -12.289,12.323 c -5.76,5.777 -5.749,15.165 0.025,20.926 l 92.895,92.708 c 2.989,2.983 4.636,6.952 4.639,11.175 0.002,4.224 -1.642,8.194 -4.627,11.18 l -39.816,39.816 c -2.984,2.984 -6.953,4.628 -11.173,4.628 z M 92.139,159.118 c 4.226,0 8.198,1.647 11.183,4.64 l 93.257,93.451 c 2.796,2.802 6.517,4.346 10.475,4.346 3.954,0 7.67,-1.54 10.466,-4.334 l 39.816,-39.816 c 2.797,-2.797 4.336,-6.517 4.334,-10.472 -0.002,-3.956 -1.545,-7.674 -4.345,-10.468 L 164.43,103.757 c -6.165,-6.151 -6.177,-16.173 -0.027,-22.34 l 12.289,-12.323 c 4.304,-4.316 5.526,-10.494 3.189,-16.124 -2.337,-5.63 -7.574,-9.127 -13.669,-9.127 L 55.017,43.851 c -0.19,-0.008 -0.355,-0.012 -0.519,-0.012 -2.904,0 -5.612,1.16 -7.624,3.267 -2.009,2.104 -3.042,4.865 -2.908,7.772 l -0.009,110.22 c 0,4.17 1.633,7.992 4.598,10.76 2.771,2.587 6.53,4.071 10.314,4.071 3.936,0 7.528,-1.521 10.388,-4.399 L 80.93,163.781 c 2.988,-3.007 6.969,-4.663 11.209,-4.663 z"
           id="path11"
           inkscape:connector-curvature="0" /></g></g></g><g
     id="g13" /><g
     id="g15" /><g
     id="g17" /><g
     id="g19" /><g
     id="g21" /><g
     id="g23" /><g
     id="g25" /><g
     id="g27" /><g
     id="g29" /><g
     id="g31" /><g
     id="g33" /><g
     id="g35" /><g
     id="g37" /><g
     id="g39" /><g
     id="g41" /></svg>