<?xml version="1.0" encoding="iso-8859-1"?>
<!-- Generator: Adobe Illustrator 18.1.1, SVG Export Plug-In . SVG Version: 6.00 Build 0)  -->
<svg version="1.1" id="Capa_1" xmlns="http://www.w3.org/2000/svg" xmlns:xlink="http://www.w3.org/1999/xlink" x="0px" y="0px"
	 viewBox="0 0 296.554 296.554" style="enable-background:new 0 0 296.554 296.554;" xml:space="preserve">
<g>
	<path style="fill:#010002;" d="M64.536,296.554h167.491c20.201,0,36.632-16.41,36.632-36.572V75.097c0-0.234,0.005-0.468,0-0.702
		v-8.8L200.621,0h-9.73c-0.005,0-0.016,0-0.022,0s-0.016,0-0.022,0H64.536C44.33,0,27.893,16.415,27.893,36.583v223.399
		C27.893,280.15,44.33,296.554,64.536,296.554z M63.911,36.583c0-0.326,0.267-0.566,0.625-0.566h106.029v22.012
		c0,27.549,23.638,37.551,39.526,37.551h22.556v164.412c0,0.326-0.261,0.56-0.62,0.56H64.536c-0.364,0-0.625-0.234-0.625-0.56
		V36.583z"/>
</g>
<g>
</g>
<g>
</g>
<g>
</g>
<g>
</g>
<g>
</g>
<g>
</g>
<g>
</g>
<g>
</g>
<g>
</g>
<g>
</g>
<g>
</g>
<g>
</g>
<g>
</g>
<g>
</g>
<g>
</g>
</svg>
