<?xml version="1.0" encoding="iso-8859-1"?>
<!-- Generator: Adobe Illustrator 16.0.0, SVG Export Plug-In . SVG Version: 6.00 Build 0)  -->
<!DOCTYPE svg PUBLIC "-//W3C//DTD SVG 1.1//EN" "http://www.w3.org/Graphics/SVG/1.1/DTD/svg11.dtd">
<svg version="1.1" id="Capa_1" xmlns="http://www.w3.org/2000/svg" xmlns:xlink="http://www.w3.org/1999/xlink" x="0px" y="0px"
	 width="489px" height="489.001px" viewBox="0 0 489 489.001" style="enable-background:new 0 0 489 489.001;" xml:space="preserve"
	>
<g>
	<path d="M355.768,0H86.218C53.33,0,26.577,26.753,26.577,59.636v369.729c0,32.883,26.752,59.636,59.641,59.636h316.566
		c32.889-0.001,59.641-26.754,59.641-59.637V109.16L355.768,0z M402.784,446.479H86.218c-9.437,0-17.119-7.678-17.119-17.113V59.636
		c0-9.437,7.683-17.114,17.119-17.114H334.86v47.604c0,21.043,17.109,38.162,38.152,38.375l46.891,0.477v300.388
		C419.903,438.801,412.219,446.479,402.784,446.479z"/>
</g>
<g>
</g>
<g>
</g>
<g>
</g>
<g>
</g>
<g>
</g>
<g>
</g>
<g>
</g>
<g>
</g>
<g>
</g>
<g>
</g>
<g>
</g>
<g>
</g>
<g>
</g>
<g>
</g>
<g>
</g>
</svg>
