<?xml version="1.0" encoding="iso-8859-1"?>
<!-- Generator: Adobe Illustrator 19.1.0, SVG Export Plug-In . SVG Version: 6.00 Build 0)  -->
<svg version="1.1" id="Capa_1" xmlns="http://www.w3.org/2000/svg" xmlns:xlink="http://www.w3.org/1999/xlink" x="0px" y="0px"
	 viewBox="0 0 40 40" style="enable-background:new 0 0 40 40;" xml:space="preserve"
     height="20" width="20">
<g id="no_1_">
	<g>
		<path d="M20,0C8.954,0,0,8.954,0,20c0,11.046,8.954,20,20,20c11.046,0,20-8.954,20-20C40,8.954,31.046,0,20,0z M4,20
			c0-8.822,7.178-16,16-16c3.691,0,7.085,1.269,9.795,3.377L7.377,29.795C5.269,27.085,4,23.691,4,20z M20,36
			c-3.691,0-7.085-1.269-9.795-3.377l22.419-22.419C34.731,12.915,36,16.309,36,20C36,28.823,28.823,36,20,36z"/>
	</g>
</g>
<g>
</g>
<g>
</g>
<g>
</g>
<g>
</g>
<g>
</g>
<g>
</g>
<g>
</g>
<g>
</g>
<g>
</g>
<g>
</g>
<g>
</g>
<g>
</g>
<g>
</g>
<g>
</g>
<g>
</g>
</svg>
