<?xml version="1.0" encoding="utf-8"?>
<!-- Generator: Adobe Illustrator 21.0.2, SVG Export Plug-In . SVG Version: 6.00 Build 0)  -->
<svg version="1.1" id="Layer_1" xmlns="http://www.w3.org/2000/svg" xmlns:xlink="http://www.w3.org/1999/xlink" x="0px" y="0px"
	 viewBox="0 0 426.7 426.7" style="enable-background:new 0 0 426.7 426.7;" xml:space="preserve" height="15" width="15">
<style type="text/css">
	.st0{fill:#FFFFFF;}
</style>
<path class="st0" d="M213,378c-91.5,0-166-74.5-166-166S121.5,46,213,46s166,74.5,166,166S304.5,378,213,378z"/>
<g>
	<path d="M213.3,0C95.5,0,0,95.5,0,213.3s95.5,213.3,213.3,213.3c117.8,0,213.3-95.5,213.3-213.3S331.1,0,213.3,0z M213.3,372.5
		c-87.8,0-159.2-71.4-159.2-159.2S125.6,54.1,213.3,54.1s159.2,71.4,159.2,159.2S301.1,372.5,213.3,372.5z"/>
	<rect x="186.3" y="17.1" transform="matrix(0.7071 -0.7071 0.7071 0.7071 -88.3642 213.3302)" width="54.1" height="392.5"/>
</g>
</svg>
