<?xml version="1.0" encoding="iso-8859-1"?>
<!-- Generator: Adobe Illustrator 16.0.0, SVG Export Plug-In . SVG Version: 6.00 Build 0)  -->
<!DOCTYPE svg PUBLIC "-//W3C//DTD SVG 1.1//EN" "http://www.w3.org/Graphics/SVG/1.1/DTD/svg11.dtd">
<svg version="1.1" id="Capa_1" xmlns="http://www.w3.org/2000/svg" xmlns:xlink="http://www.w3.org/1999/xlink" x="0px" y="0px"
	 width="356.218px" height="356.218px" viewBox="0 0 356.218 356.218" style="enable-background:new 0 0 356.218 356.218;"
	 xml:space="preserve">
<g>
	<path d="M350.676,261.501c7.388,7.389,7.388,19.365,0.001,26.754l-62.421,62.421c-7.39,7.389-19.366,7.387-26.755,0l-83.392-83.394
		l-83.395,83.394c-7.386,7.388-19.364,7.387-26.752,0L5.541,288.254c-7.388-7.388-7.387-19.364,0.001-26.75l83.395-83.395
		L5.543,94.715c-7.387-7.387-7.387-19.365-0.001-26.751L67.965,5.542c7.387-7.388,19.365-7.387,26.75,0l83.395,83.395l83.393-83.395
		c7.388-7.387,19.364-7.388,26.753,0l62.422,62.421c7.387,7.388,7.388,19.366,0,26.753l-83.395,83.393L350.676,261.501z"/>
</g>
<g>
</g>
<g>
</g>
<g>
</g>
<g>
</g>
<g>
</g>
<g>
</g>
<g>
</g>
<g>
</g>
<g>
</g>
<g>
</g>
<g>
</g>
<g>
</g>
<g>
</g>
<g>
</g>
<g>
</g>
</svg>
