<svg version="1.1" xmlns="http://www.w3.org/2000/svg" xmlns:xlink="http://www.w3.org/1999/xlink" width="581" height="541"><defs/><g transform="translate(24.10636197386833,-15.221098432334841) scale(1,1)"><path fill="rgb(224,224,224)" stroke="rgb(85,85,85)" paint-order="fill stroke markers" d=" M 92.94557595308527 175.4666944941332 L 80.94557595308527 187.4666944941332 L 80.94557595308527 312.0166944941331 L 92.94557595308527 324.0166944941331 L 278.44557595308527 324.0166944941331 L 290.44557595308527 312.0166944941331 L 290.44557595308527 187.4666944941332 L 278.44557595308527 175.4666944941332 Z" fill-opacity="0.5" stroke-opacity="1" stroke-miterlimit="10" stroke-width="1.25"/><path fill="rgb(224,224,224)" stroke="rgb(85,85,85)" paint-order="fill stroke markers" d="" fill-opacity="0.5" stroke-opacity="1" stroke-miterlimit="10" stroke-width="1.25"/><text fill="rgb(0,0,0)" stroke="none" font-family="Helvetica" font-size="11px" font-style="normal" font-weight="normal" text-decoration="normal" x="185.69557595308527" y="325.0166944941331" text-anchor="middle" dominant-baseline="text-after-edge" fill-opacity="1">STAT1α</text><path fill="rgb(224,224,224)" stroke="rgb(85,85,85)" paint-order="fill stroke markers" d=" M -10.481361973868331 16.84609843233484 L -22.48136197386833 28.84609843233484 L -22.48136197386833 87.34609843233484 L -10.481361973868331 99.34609843233484 L 151.76863802613167 99.34609843233484 L 163.76863802613167 87.34609843233484 L 163.76863802613167 28.84609843233484 L 151.76863802613167 16.84609843233484 Z" fill-opacity="0.5" stroke-opacity="1" stroke-miterlimit="10" stroke-width="1.25"/><path fill="rgb(224,224,224)" stroke="rgb(85,85,85)" paint-order="fill stroke markers" d="" fill-opacity="0.5" stroke-opacity="1" stroke-miterlimit="10" stroke-width="1.25"/><text fill="rgb(0,0,0)" stroke="none" font-family="Helvetica" font-size="11px" font-style="normal" font-weight="normal" text-decoration="normal" x="70.64363802613167" y="100.34609843233484" text-anchor="middle" dominant-baseline="text-after-edge" fill-opacity="1">STAT1α</text><path fill="rgb(224,224,224)" stroke="rgb(85,85,85)" paint-order="fill stroke markers" d=" M 104.57057595308528 187.0916944941332 L 92.57057595308528 199.0916944941332 L 92.57057595308528 257.5916944941332 L 104.57057595308528 269.5916944941332 L 266.82057595308527 269.5916944941332 L 278.82057595308527 257.5916944941332 L 278.82057595308527 199.0916944941332 L 266.82057595308527 187.0916944941332 Z" fill-opacity="0.5" stroke-opacity="1" stroke-miterlimit="10" stroke-width="1.25"/><path fill="rgb(224,224,224)" stroke="rgb(85,85,85)" paint-order="fill stroke markers" d="" fill-opacity="0.5" stroke-opacity="1" stroke-miterlimit="10" stroke-width="1.25"/><text fill="rgb(0,0,0)" stroke="none" font-family="Helvetica" font-size="11px" font-style="normal" font-weight="normal" text-decoration="normal" x="185.69557595308527" y="270.5916944941332" text-anchor="middle" dominant-baseline="text-after-edge" fill-opacity="1">STAT1α</text><path fill="none" stroke="rgb(85,85,85)" paint-order="fill stroke markers" d=" M 306.924783012962 398.3256319387646 L 306.924783012962 438.3068766607678" stroke-opacity="1" stroke-linejoin="round" stroke-miterlimit="10" stroke-width="1.25"/><path fill="none" stroke="none"/><path fill="rgb(255,255,255)" stroke="rgb(255,255,255)" paint-order="fill stroke markers" d=" M 301.487283012962 430.5568766607678 L 306.924783012962 441.4318766607678 L 312.362283012962 430.5568766607678 L 301.487283012962 430.5568766607678 M 314.0340567597817 426.646665413948 L 314.0340567597817 426.646665413948 L 299.81550926614227 426.646665413948 Z Z" fill-opacity="1" stroke-opacity="1" stroke-miterlimit="10" stroke-width="1.25"/><path fill="none" stroke="none"/><path fill="none" stroke="rgb(85,85,85)" paint-order="fill stroke markers" d=" M 301.487283012962 430.5568766607678 L 306.924783012962 441.4318766607678 L 312.362283012962 430.5568766607678 L 301.487283012962 430.5568766607678 M 314.0340567597817 426.646665413948 L 314.0340567597817 426.646665413948 L 299.81550926614227 426.646665413948 Z Z" stroke-opacity="1" stroke-miterlimit="10" stroke-width="1.25"/><path fill="none" stroke="rgb(85,85,85)" paint-order="fill stroke markers" d=" M 409.1620543768622 464.5211623750535 L 409.1620543768622 526.2911951254143" stroke-opacity="1" stroke-linejoin="round" stroke-miterlimit="10" stroke-width="1.25"/><path fill="none" stroke="none"/><path fill="rgb(255,255,255)" stroke="rgb(255,255,255)" paint-order="fill stroke markers" d=" M 403.7245543768622 518.5411951254143 L 409.1620543768622 529.4161951254143 L 414.5995543768622 518.5411951254143 L 403.7245543768622 518.5411951254143 M 416.27132812368194 514.6309838785946 L 416.27132812368194 514.6309838785946 L 402.0527806300425 514.6309838785946 Z Z" fill-opacity="1" stroke-opacity="1" stroke-miterlimit="10" stroke-width="1.25"/><path fill="none" stroke="none"/><path fill="none" stroke="rgb(85,85,85)" paint-order="fill stroke markers" d=" M 403.7245543768622 518.5411951254143 L 409.1620543768622 529.4161951254143 L 414.5995543768622 518.5411951254143 L 403.7245543768622 518.5411951254143 M 416.27132812368194 514.6309838785946 L 416.27132812368194 514.6309838785946 L 402.0527806300425 514.6309838785946 Z Z" stroke-opacity="1" stroke-miterlimit="10" stroke-width="1.25"/><path fill="none" stroke="rgb(85,85,85)" paint-order="fill stroke markers" d=" M 243.47007961077375 449.0211623750535 L 296.299783012962 449.0211623750535" stroke-opacity="1" stroke-linejoin="round" stroke-miterlimit="10" stroke-width="1.25"/><path fill="none" stroke="rgb(85,85,85)" paint-order="fill stroke markers" d=" M 317.549783012962 449.0211623750535 L 364.5370543768622 449.0211623750535" stroke-opacity="1" stroke-linejoin="round" stroke-miterlimit="10" stroke-width="1.25"/><path fill="rgb(85,85,85)" stroke="none" paint-order="stroke fill markers" d=" M 356.7870543768622 454.4586623750535 L 367.6620543768622 449.0211623750535 L 356.7870543768622 443.5836623750535 Z" fill-opacity="1"/><path fill="none" stroke="rgb(85,85,85)" paint-order="fill stroke markers" d=" M 346.2087185192559 537.0054808397 L 398.5370543768622 537.0054808397" stroke-opacity="1" stroke-linejoin="round" stroke-miterlimit="10" stroke-width="1.25"/><path fill="none" stroke="rgb(85,85,85)" paint-order="fill stroke markers" d=" M 419.7870543768622 537.0054808397 L 473.90412179116584 537.0054808397" stroke-opacity="1" stroke-linejoin="round" stroke-miterlimit="10" stroke-width="1.25"/><path fill="rgb(85,85,85)" stroke="none" paint-order="stroke fill markers" d=" M 466.15412179116584 542.4429808397 L 477.02912179116584 537.0054808397 L 466.15412179116584 531.5679808397 Z" fill-opacity="1"/><path fill="none" stroke="rgb(85,85,85)" paint-order="fill stroke markers" d=" M 185.69557595308527 144.39368025458344 L 185.69557595308527 171.8416944941332" stroke-opacity="1" stroke-linejoin="round" stroke-miterlimit="10" stroke-width="1.25"/><path fill="rgb(85,85,85)" stroke="none" paint-order="stroke fill markers" d=" M 180.25807595308527 164.0916944941332 L 185.69557595308527 174.9666944941332 L 191.13307595308527 164.0916944941332 Z" fill-opacity="1"/><path fill="none" stroke="rgb(85,85,85)" paint-order="fill stroke markers" d=" M 361.9924348160677 314.5166944941331 L 306.924783012962 357.0756319387646" stroke-opacity="1" stroke-linejoin="round" stroke-miterlimit="10" stroke-width="1.25"/><path fill="none" stroke="rgb(85,85,85)" paint-order="fill stroke markers" d=" M 256.537942566396 324.5166944941331 L 306.924783012962 357.0756319387646" stroke-opacity="1" stroke-linejoin="round" stroke-miterlimit="10" stroke-width="1.25"/><path fill="none" stroke="rgb(85,85,85)" paint-order="fill stroke markers" d=" M 134.119976387803 99.84609843233484 L 185.69557595308527 123.14368025458344" stroke-opacity="1" stroke-linejoin="round" stroke-miterlimit="10" stroke-width="1.25"/><path fill="none" stroke="rgb(85,85,85)" paint-order="fill stroke markers" d=" M 236.23999036850995 89.84609843233483 L 185.69557595308527 123.14368025458344" stroke-opacity="1" stroke-linejoin="round" stroke-miterlimit="10" stroke-width="1.25"/><path fill="none" stroke="rgb(85,85,85)" paint-order="fill stroke markers" d=" M 242.84507961077375 449.0211623750535 L 242.80654628243786 450.00190107165156 L 242.691183868213 450.97659318805637 L 242.49970361574472 451.9392294232523 L 242.23328606446316 452.88387480474034 L 241.89357376716484 453.8047052796171 L 241.48266116312834 454.69604362179786 L 241.00308166519991 455.55239443400285 L 240.4577920404606 456.36847802870943 L 239.85015418077413 457.1392629791808 L 239.18391437560558 457.85999713988537 L 238.46318021490106 458.5262369450539 L 237.69239526442968 459.13387480474034 L 236.87631166972312 459.67916442947967 L 236.0199608575181 460.1587439274081 L 235.12862251533738 460.5696565314446 L 234.2077920404606 460.9093688287429 L 233.26314665897257 461.1757863800245 L 232.30051042377664 461.3672666324927 L 231.3258183073718 461.4826290467176 L 230.34507961077375 461.5211623750535 L 229.3643409141757 461.4826290467176 L 228.38964879777086 461.3672666324927 L 227.42701256257493 461.1757863800245 L 226.48236718108691 460.9093688287429 L 225.56153670621012 460.5696565314446 L 224.67019836402943 460.1587439274081 L 223.81384755182438 459.67916442947967 L 222.99776395711783 459.13387480474034 L 222.22697900664645 458.5262369450539 L 221.50624484594192 457.85999713988537 L 220.84000504077338 457.1392629791808 L 220.23236718108691 456.36847802870943 L 219.6870775563476 455.55239443400285 L 219.20749805841916 454.69604362179786 L 218.79658545438267 453.8047052796171 L 218.45687315708435 452.88387480474034 L 218.19045560580278 451.9392294232523 L 217.99897535333454 450.97659318805637 L 217.88361293910964 450.00190107165156 L 217.84507961077375 449.0211623750535 L 217.88361293910964 448.04042367845545 L 217.99897535333452 447.06573156205064 L 218.19045560580278 446.1030953268547 L 218.45687315708432 445.15844994536667 L 218.79658545438267 444.2376194704899 L 219.20749805841916 443.34628112830916 L 219.6870775563476 442.48993031610416 L 220.23236718108691 441.6738467213976 L 220.84000504077335 440.90306177092623 L 221.5062448459419 440.18232761022165 L 222.22697900664645 439.51608780505313 L 222.99776395711783 438.90844994536667 L 223.81384755182438 438.36316032062734 L 224.67019836402943 437.8835808226989 L 225.56153670621015 437.4726682186624 L 226.48236718108691 437.1329559213641 L 227.42701256257496 436.86653837008254 L 228.3896487977709 436.6750581176143 L 229.36434091417573 436.5596957033894 L 230.34507961077378 436.5211623750535 L 231.32581830737186 436.5596957033894 L 232.3005104237767 436.6750581176143 L 233.26314665897263 436.86653837008254 L 234.20779204046065 437.1329559213641 L 235.12862251533744 437.4726682186624 L 236.01996085751816 437.88358082269895 L 236.87631166972318 438.3631603206274 L 237.69239526442973 438.9084499453667 L 238.46318021490112 439.5160878050532 L 239.18391437560567 440.1823276102217 L 239.8501541807742 440.9030617709263 L 240.45779204046065 441.6738467213977 L 241.00308166519997 442.4899303161042 L 241.4826611631284 443.3462811283093 L 241.8935737671649 444.23761947049 L 242.23328606446321 445.1584499453668 L 242.49970361574475 446.1030953268548 L 242.691183868213 447.06573156205076 L 242.80654628243786 448.04042367845557 Z" stroke-opacity="1" stroke-miterlimit="10" stroke-width="1.25"/><path fill="rgb(255,255,255)" stroke="rgb(85,85,85)" paint-order="fill stroke markers" d=" M 217.84507961077375 461.5211623750535 L 242.84507961077375 436.5211623750535 Z" stroke-opacity="1" stroke-miterlimit="10" stroke-width="1.25" fill-opacity="0.5"/><path fill="rgb(255,255,255)" stroke="rgb(85,85,85)" paint-order="fill stroke markers" d=" M 296.924783012962 448.9211623750535 L 299.7819258701048 448.9211623750535 L 299.7819258701048 441.87830523219634 L 314.06764015581916 441.87830523219634 L 314.06764015581916 448.9211623750535 L 316.924783012962 448.9211623750535 L 316.924783012962 449.12116237505353 L 314.06764015581916 449.12116237505353 L 314.06764015581916 456.1640195179107 L 299.7819258701048 456.1640195179107 L 299.7819258701048 449.12116237505353 L 296.924783012962 449.12116237505353 Z" fill-opacity="0.5" stroke-opacity="1" stroke-miterlimit="10" stroke-width="1.25"/><path fill="rgb(244,165,130)" stroke="rgb(85,85,85)" paint-order="fill stroke markers" d=" M 368.1620543768622 434.0211623750535 L 450.1620543768622 434.0211623750535 L 450.1620543768622 449.0211623750535 L 450.1620543768622 456.5211623750535 L 450.1620543768622 456.5211623750535 A 7.5 7.5 0 0 1 442.6620543768622 464.0211623750535 L 375.6620543768622 464.0211623750535 L 375.6620543768622 464.0211623750535 A 7.5 7.5 0 0 1 368.1620543768622 456.5211623750535 L 368.1620543768622 434.0211623750535 Z" fill-opacity="0.5" stroke-opacity="1" stroke-miterlimit="10" stroke-width="1.25"/><path fill="#ffffff" stroke="rgb(85,85,85)" paint-order="fill stroke markers" d=" M 378.1620543768622 425.0211623750535 L 378.1620543768622 443.0211623750535 L 441.1620543768622 443.0211623750535 L 441.1620543768622 425.0211623750535 Z" stroke-opacity="1" stroke-miterlimit="10" stroke-width="1.25"/><text fill="#0f0f0f" stroke="none" font-family="Arial" font-size="9px" font-style="normal" font-weight="normal" text-decoration="normal" x="409.6620543768622" y="434.0211623750535" text-anchor="middle" dominant-baseline="central">ct:mRNA</text><path fill="rgb(244,165,130)" stroke="rgb(85,85,85)" paint-order="fill stroke markers" d="" fill-opacity="0.5" stroke-opacity="1" stroke-miterlimit="10" stroke-width="1.25"/><text fill="rgb(0,0,0)" stroke="none" font-family="Helvetica" font-size="11px" font-style="normal" font-weight="normal" text-decoration="normal" x="409.1620543768622" y="454.5211623750535" text-anchor="middle" dominant-baseline="text-after-edge" fill-opacity="1">IRF1</text><path fill="none" stroke="rgb(85,85,85)" paint-order="fill stroke markers" d=" M 345.5837185192559 537.0054808397 L 345.54518519092 537.9862195362981 L 345.4298227766951 538.9609116527029 L 345.2383425242269 539.9235478878988 L 344.9719249729453 540.8681932693869 L 344.632212675647 541.7890237442637 L 344.22130007161053 542.6803620864443 L 343.7417205736821 543.5367128986494 L 343.19643094894275 544.3527964933559 L 342.5887930892563 545.1235814438273 L 341.92255328408777 545.8443156045319 L 341.2018191233832 546.5105554097004 L 340.43103417291184 547.1181932693869 L 339.61495057820525 547.6634828941261 L 338.75859976600026 548.1430623920546 L 337.8672614238195 548.553974996091 L 336.94643094894275 548.8936872933895 L 336.0017855674547 549.160104844671 L 335.0391493322588 549.3515850971393 L 334.06445721585396 549.4669475113641 L 333.0837185192559 549.5054808397 L 332.10297982265786 549.4669475113641 L 331.12828770625305 549.3515850971393 L 330.1656514710571 549.160104844671 L 329.2210060895691 548.8936872933895 L 328.3001756146923 548.553974996091 L 327.40883727251156 548.1430623920546 L 326.55248646030657 547.6634828941261 L 325.7364028656 547.1181932693869 L 324.96561791512863 546.5105554097004 L 324.24488375442405 545.8443156045319 L 323.57864394925554 545.1235814438273 L 322.9710060895691 544.3527964933559 L 322.42571646482975 543.5367128986494 L 321.9461369669013 542.6803620864443 L 321.5352243628648 541.7890237442637 L 321.1955120655665 540.8681932693869 L 320.92909451428494 539.9235478878988 L 320.7376142618167 538.9609116527029 L 320.6222518475918 537.9862195362981 L 320.5837185192559 537.0054808397 L 320.6222518475918 536.0247421431019 L 320.7376142618167 535.0500500266971 L 320.92909451428494 534.0874137915011 L 321.1955120655665 533.1427684100131 L 321.5352243628648 532.2219379351363 L 321.9461369669013 531.3305995929557 L 322.42571646482975 530.4742487807506 L 322.9710060895691 529.6581651860441 L 323.57864394925554 528.8873802355727 L 324.24488375442405 528.1666460748681 L 324.96561791512863 527.5004062696996 L 325.7364028656 526.8927684100131 L 326.55248646030657 526.3474787852739 L 327.40883727251156 525.8678992873454 L 328.3001756146923 525.4569866833089 L 329.2210060895691 525.1172743860105 L 330.1656514710571 524.850856834729 L 331.12828770625305 524.6593765822607 L 332.10297982265786 524.5440141680359 L 333.08371851925597 524.5054808397 L 334.064457215854 524.5440141680359 L 335.03914933225883 524.6593765822607 L 336.00178556745476 524.850856834729 L 336.9464309489428 525.1172743860106 L 337.86726142381957 525.456986683309 L 338.7585997660003 525.8678992873454 L 339.61495057820537 526.3474787852739 L 340.4310341729119 526.8927684100132 L 341.2018191233833 527.5004062696996 L 341.9225532840878 528.1666460748683 L 342.58879308925634 528.8873802355728 L 343.1964309489428 529.6581651860441 L 343.74172057368213 530.4742487807507 L 344.2213000716106 531.3305995929558 L 344.63221267564705 532.2219379351365 L 344.9719249729454 533.1427684100133 L 345.2383425242269 534.0874137915013 L 345.4298227766952 535.0500500266972 L 345.54518519092 536.0247421431021 Z" stroke-opacity="1" stroke-miterlimit="10" stroke-width="1.25"/><path fill="rgb(255,255,255)" stroke="rgb(85,85,85)" paint-order="fill stroke markers" d=" M 320.5837185192559 549.5054808397 L 345.5837185192559 524.5054808397 Z" stroke-opacity="1" stroke-miterlimit="10" stroke-width="1.25" fill-opacity="0.5"/><path fill="rgb(255,255,255)" stroke="rgb(85,85,85)" paint-order="fill stroke markers" d=" M 399.1620543768622 536.9054808397 L 402.01919723400505 536.9054808397 L 402.01919723400505 529.8626236968429 L 416.3049115197194 529.8626236968429 L 416.3049115197194 536.9054808397 L 419.1620543768622 536.9054808397 L 419.1620543768622 537.1054808397 L 416.3049115197194 537.1054808397 L 416.3049115197194 544.1483379825571 L 402.01919723400505 544.1483379825571 L 402.01919723400505 537.1054808397 L 399.1620543768622 537.1054808397 Z" fill-opacity="0.5" stroke-opacity="1" stroke-miterlimit="10" stroke-width="1.25"/><path fill="rgb(186,186,186)" stroke="rgb(85,85,85)" paint-order="fill stroke markers" d=" M 516.0291217911658 519.5054808397 L 546.5291217911658 519.5054808397 L 546.5291217911658 519.5054808397 A 8 8 0 0 1 554.5291217911658 527.5054808397 L 554.5291217911658 546.5054808397 L 554.5291217911658 546.5054808397 A 8 8 0 0 1 546.5291217911658 554.5054808397 L 485.52912179116584 554.5054808397 L 485.52912179116584 554.5054808397 A 8 8 0 0 1 477.52912179116584 546.5054808397 L 477.52912179116584 527.5054808397 L 477.52912179116584 527.5054808397 A 8 8 0 0 1 485.52912179116584 519.5054808397 L 516.0291217911658 519.5054808397 Z" fill-opacity="0.5" stroke-opacity="1" stroke-miterlimit="10" stroke-width="1.25"/><path fill="#ffffff" stroke="rgb(85,85,85)" paint-order="fill stroke markers" d=" M 487.52912179116584 510.5054808397 L 487.52912179116584 528.5054808397 L 540.5291217911658 528.5054808397 L 540.5291217911658 510.5054808397 Z" stroke-opacity="1" stroke-miterlimit="10" stroke-width="1.25"/><text fill="#0f0f0f" stroke="none" font-family="Arial" font-size="9px" font-style="normal" font-weight="normal" text-decoration="normal" x="514.0291217911658" y="519.5054808397" text-anchor="middle" dominant-baseline="central">mt:prot</text><path fill="rgb(186,186,186)" stroke="rgb(85,85,85)" paint-order="fill stroke markers" d="" fill-opacity="0.5" stroke-opacity="1" stroke-miterlimit="10" stroke-width="1.25"/><text fill="rgb(0,0,0)" stroke="none" font-family="Helvetica" font-size="11px" font-style="normal" font-weight="normal" text-decoration="normal" x="516.0291217911658" y="542.5054808397" text-anchor="middle" dominant-baseline="text-after-edge" fill-opacity="1">IRF1</text><path fill="rgb(244,165,130)" stroke="rgb(85,85,85)" paint-order="fill stroke markers" d=" M 337.0013840438063 284.0166944941331 L 414.0013840438063 284.0166944941331 L 414.0013840438063 299.0166944941331 L 414.0013840438063 306.5166944941331 L 414.0013840438063 306.5166944941331 A 7.5 7.5 0 0 1 406.5013840438063 314.0166944941331 L 344.5013840438063 314.0166944941331 L 344.5013840438063 314.0166944941331 A 7.5 7.5 0 0 1 337.0013840438063 306.5166944941331 L 337.0013840438063 284.0166944941331 Z" fill-opacity="0.5" stroke-opacity="1" stroke-miterlimit="10" stroke-width="1.25"/><path fill="#ffffff" stroke="rgb(85,85,85)" paint-order="fill stroke markers" d=" M 347.0013840438063 275.0166944941331 L 347.0013840438063 293.0166944941331 L 402.0013840438063 293.0166944941331 L 402.0013840438063 275.0166944941331 Z" stroke-opacity="1" stroke-miterlimit="10" stroke-width="1.25"/><text fill="#0f0f0f" stroke="none" font-family="Arial" font-size="9px" font-style="normal" font-weight="normal" text-decoration="normal" x="374.5013840438063" y="284.0166944941331" text-anchor="middle" dominant-baseline="central">ct:gene</text><path fill="rgb(244,165,130)" stroke="rgb(85,85,85)" paint-order="fill stroke markers" d="" fill-opacity="0.5" stroke-opacity="1" stroke-miterlimit="10" stroke-width="1.25"/><text fill="rgb(0,0,0)" stroke="none" font-family="Helvetica" font-size="11px" font-style="normal" font-weight="normal" text-decoration="normal" x="375.5013840438063" y="304.5166944941331" text-anchor="middle" dominant-baseline="text-after-edge" fill-opacity="1">IRF1</text><path fill="rgb(186,186,186)" stroke="rgb(85,85,85)" paint-order="fill stroke markers" d=" M 185.6955759530853 208.34169449413324 L 259.19557595308527 208.34169449413324 L 259.19557595308527 208.34169449413324 A 8 8 0 0 1 267.19557595308527 216.34169449413324 L 267.19557595308527 235.34169449413324 L 267.19557595308527 235.34169449413324 A 8 8 0 0 1 259.19557595308527 243.34169449413324 L 112.1955759530853 243.34169449413324 L 112.1955759530853 243.34169449413324 A 8 8 0 0 1 104.1955759530853 235.34169449413324 L 104.1955759530853 216.34169449413324 L 104.1955759530853 216.34169449413324 A 8 8 0 0 1 112.1955759530853 208.34169449413324 L 185.6955759530853 208.34169449413324 Z" fill-opacity="0.5" stroke-opacity="1" stroke-miterlimit="10" stroke-width="1.25"/><path fill="#ffffff" stroke="rgb(85,85,85)" paint-order="fill stroke markers" d=" M 114.1955759530853 199.34169449413324 L 114.1955759530853 217.34169449413324 L 167.1955759530853 217.34169449413324 L 167.1955759530853 199.34169449413324 Z" stroke-opacity="1" stroke-miterlimit="10" stroke-width="1.25"/><text fill="#0f0f0f" stroke="none" font-family="Arial" font-size="9px" font-style="normal" font-weight="normal" text-decoration="normal" x="140.6955759530853" y="208.34169449413324" text-anchor="middle" dominant-baseline="central">mt:prot</text><path fill="#ffffff" stroke="rgb(85,85,85)" paint-order="fill stroke markers" d=" M 148.6955759530853 229.34169449413324 L 169.1955759530853 229.34169449413324 L 169.1955759530853 229.34169449413324 A 14 14 0 0 1 183.1955759530853 243.34169449413324 L 183.1955759530853 243.3416944941332 L 183.1955759530853 243.3416944941332 A 14 14 0 0 1 169.1955759530853 257.3416944941332 L 128.1955759530853 257.3416944941332 L 128.1955759530853 257.3416944941332 A 14 14 0 0 1 114.1955759530853 243.3416944941332 L 114.1955759530853 243.34169449413324 L 114.1955759530853 243.34169449413324 A 14 14 0 0 1 128.1955759530853 229.34169449413324 L 148.6955759530853 229.34169449413324 Z" stroke-opacity="1" stroke-miterlimit="10" stroke-width="1.25"/><text fill="#0f0f0f" stroke="none" font-family="Arial" font-size="9px" font-style="normal" font-weight="normal" text-decoration="normal" x="148.6955759530853" y="243.34169449413324" text-anchor="middle" dominant-baseline="central">P@Y701</text><path fill="#ffffff" stroke="rgb(85,85,85)" paint-order="fill stroke markers" d=" M 222.6955759530853 229.34169449413324 L 243.19557595308527 229.34169449413324 L 243.19557595308527 229.34169449413324 A 14 14 0 0 1 257.19557595308527 243.34169449413324 L 257.19557595308527 243.3416944941332 L 257.19557595308527 243.3416944941332 A 14 14 0 0 1 243.19557595308527 257.3416944941332 L 202.1955759530853 257.3416944941332 L 202.1955759530853 257.3416944941332 A 14 14 0 0 1 188.1955759530853 243.3416944941332 L 188.1955759530853 243.34169449413324 L 188.1955759530853 243.34169449413324 A 14 14 0 0 1 202.1955759530853 229.34169449413324 L 222.6955759530853 229.34169449413324 Z" stroke-opacity="1" stroke-miterlimit="10" stroke-width="1.25"/><text fill="#0f0f0f" stroke="none" font-family="Arial" font-size="9px" font-style="normal" font-weight="normal" text-decoration="normal" x="222.6955759530853" y="243.34169449413324" text-anchor="middle" dominant-baseline="central">P@Y727</text><path fill="rgb(186,186,186)" stroke="rgb(85,85,85)" paint-order="fill stroke markers" d="" fill-opacity="0.5" stroke-opacity="1" stroke-miterlimit="10" stroke-width="1.25"/><text fill="rgb(0,0,0)" stroke="none" font-family="Helvetica" font-size="11px" font-style="normal" font-weight="normal" text-decoration="normal" x="185.6955759530853" y="231.34169449413324" text-anchor="middle" dominant-baseline="text-after-edge" fill-opacity="1">STAT1α</text><path fill="rgb(244,165,130)" stroke="rgb(85,85,85)" paint-order="fill stroke markers" d=" M 150.6955759530853 282.3916944941331 L 220.6955759530853 282.3916944941331 L 220.6955759530853 297.3916944941331 L 220.6955759530853 304.8916944941331 L 220.6955759530853 304.8916944941331 A 7.5 7.5 0 0 1 213.1955759530853 312.3916944941331 L 158.1955759530853 312.3916944941331 L 158.1955759530853 312.3916944941331 A 7.5 7.5 0 0 1 150.6955759530853 304.8916944941331 L 150.6955759530853 282.3916944941331 Z" fill-opacity="0.5" stroke-opacity="1" stroke-miterlimit="10" stroke-width="1.25"/><path fill="#ffffff" stroke="rgb(85,85,85)" paint-order="fill stroke markers" d=" M 160.6955759530853 273.3916944941331 L 160.6955759530853 291.3916944941331 L 202.6955759530853 291.3916944941331 L 202.6955759530853 273.3916944941331 Z" stroke-opacity="1" stroke-miterlimit="10" stroke-width="1.25"/><text fill="#0f0f0f" stroke="none" font-family="Arial" font-size="9px" font-style="normal" font-weight="normal" text-decoration="normal" x="181.6955759530853" y="282.3916944941331" text-anchor="middle" dominant-baseline="central">ct:grr</text><path fill="rgb(244,165,130)" stroke="rgb(85,85,85)" paint-order="fill stroke markers" d="" fill-opacity="0.5" stroke-opacity="1" stroke-miterlimit="10" stroke-width="1.25"/><text fill="rgb(0,0,0)" stroke="none" font-family="Helvetica" font-size="11px" font-style="normal" font-weight="normal" text-decoration="normal" x="185.6955759530853" y="302.8916944941331" text-anchor="middle" dominant-baseline="text-after-edge" fill-opacity="1">IRF1-GAS</text><path fill="rgb(255,255,255)" stroke="rgb(85,85,85)" paint-order="fill stroke markers" d=" M 306.724783012962 357.7006319387646 L 306.724783012962 363.41491765305034 L 306.924783012962 363.41491765305034 L 305.4315192519955 363.49317629064643 L 303.9546160012797 363.7270947854245 L 302.51025452189134 364.1141102774053 L 301.1142595404506 364.6499825438703 L 299.7819258701048 365.3288404561298 L 298.52785083735523 366.1432463048368 L 297.3657743506926 367.08427728908754 L 296.3084283632849 368.14162327649524 L 295.3673973790342 369.30369976315785 L 294.5529915303272 370.55777479590745 L 293.8741336180677 371.8901084662532 L 293.3382613516027 373.28610344769396 L 292.9512458596219 374.7304649270823 L 292.7173273648438 376.2073681777981 L 292.6390687272477 377.7006319387646 L 292.7173273648438 379.1938956997311 L 292.9512458596219 380.6707989504469 L 293.3382613516027 382.11516042983527 L 293.8741336180677 383.51115541127604 L 294.5529915303272 384.8434890816218 L 295.3673973790342 386.0975641143714 L 296.3084283632849 387.259640601034 L 297.3657743506926 388.3169865884417 L 298.52785083735523 389.25801757269244 L 299.7819258701048 390.07242342139944 L 301.1142595404506 390.75128133365894 L 302.51025452189134 391.28715360012393 L 303.9546160012797 391.6741690921047 L 305.4315192519955 391.9080875868828 L 306.724783012962 391.9863462244789 L 306.724783012962 397.7006319387646 L 307.124783012962 397.7006319387646 L 307.124783012962 391.9863462244789 L 306.924783012962 391.9863462244789 L 308.4180467739285 391.9080875868828 L 309.8949500246443 391.6741690921047 L 311.33931150403265 391.28715360012393 L 312.7353064854734 390.75128133365894 L 314.06764015581916 390.07242342139944 L 315.32171518856876 389.25801757269244 L 316.4837916752314 388.3169865884417 L 317.5411376626391 387.259640601034 L 318.4821686468898 386.0975641143714 L 319.2965744955968 384.8434890816218 L 319.9754324078563 383.51115541127604 L 320.5113046743213 382.11516042983527 L 320.8983201663021 380.6707989504469 L 321.1322386610802 379.1938956997311 L 321.2104972986763 377.7006319387646 L 321.1322386610802 376.2073681777981 L 320.8983201663021 374.7304649270823 L 320.5113046743213 373.28610344769396 L 319.9754324078563 371.8901084662532 L 319.2965744955968 370.55777479590745 L 318.4821686468898 369.30369976315785 L 317.5411376626391 368.14162327649524 L 316.4837916752314 367.08427728908754 L 315.32171518856876 366.1432463048368 L 314.06764015581916 365.3288404561298 L 312.7353064854734 364.6499825438703 L 311.33931150403265 364.1141102774053 L 309.8949500246443 363.7270947854245 L 308.4180467739285 363.49317629064643 L 307.124783012962 363.41491765305034 L 307.124783012962 357.7006319387646 Z" fill-opacity="0.5" stroke-opacity="1" stroke-miterlimit="10" stroke-width="1.25"/><text fill="rgb(0,0,0)" stroke="none" font-family="Helvetica Neue, Helvetica, sans-serif" font-size="11.428571428571429px" font-style="normal" font-weight="normal" text-decoration="normal" x="306.924783012962" y="383.2006319387646" text-anchor="middle" dominant-baseline="text-after-edge" fill-opacity="1">AND</text><path fill="rgb(186,186,186)" stroke="rgb(85,85,85)" paint-order="fill stroke markers" d=" M 70.64363802613165 38.09609843233484 L 144.14363802613167 38.09609843233484 L 144.14363802613167 38.09609843233484 A 8 8 0 0 1 152.14363802613167 46.09609843233484 L 152.14363802613167 65.09609843233484 L 152.14363802613167 65.09609843233484 A 8 8 0 0 1 144.14363802613167 73.09609843233484 L -2.8563619738683457 73.09609843233484 L -2.8563619738683452 73.09609843233484 A 8 8 0 0 1 -10.856361973868346 65.09609843233484 L -10.856361973868346 46.09609843233484 L -10.856361973868346 46.09609843233484 A 8 8 0 0 1 -2.8563619738683452 38.09609843233484 L 70.64363802613165 38.09609843233484 Z" fill-opacity="0.5" stroke-opacity="1" stroke-miterlimit="10" stroke-width="1.25"/><path fill="#ffffff" stroke="rgb(85,85,85)" paint-order="fill stroke markers" d=" M -0.8563619738683386 29.09609843233484 L -0.8563619738683457 47.09609843233484 L 52.14363802613164 47.09609843233484 L 52.143638026131654 29.096098432334845 Z" stroke-opacity="1" stroke-miterlimit="10" stroke-width="1.25"/><text fill="#0f0f0f" stroke="none" font-family="Arial" font-size="9px" font-style="normal" font-weight="normal" text-decoration="normal" x="25.643638026131654" y="38.09609843233484" text-anchor="middle" dominant-baseline="central">mt:prot</text><path fill="#ffffff" stroke="rgb(85,85,85)" paint-order="fill stroke markers" d=" M 33.643638026131654 59.09609843233484 L 54.143638026131654 59.09609843233484 L 54.143638026131654 59.09609843233484 A 14 14 0 0 1 68.14363802613165 73.09609843233484 L 68.14363802613165 73.09609843233484 L 68.14363802613165 73.09609843233484 A 14 14 0 0 1 54.143638026131654 87.09609843233484 L 13.143638026131653 87.09609843233484 L 13.143638026131653 87.09609843233484 A 14 14 0 0 1 -0.8563619738683474 73.09609843233484 L -0.8563619738683474 73.09609843233484 L -0.8563619738683474 73.09609843233484 A 14 14 0 0 1 13.143638026131653 59.09609843233484 L 33.643638026131654 59.09609843233484 Z" stroke-opacity="1" stroke-miterlimit="10" stroke-width="1.25"/><text fill="#0f0f0f" stroke="none" font-family="Arial" font-size="9px" font-style="normal" font-weight="normal" text-decoration="normal" x="33.643638026131654" y="73.09609843233484" text-anchor="middle" dominant-baseline="central">P@Y701</text><path fill="#ffffff" stroke="rgb(85,85,85)" paint-order="fill stroke markers" d=" M 107.64363802613165 59.09609843233484 L 128.14363802613167 59.09609843233484 L 128.14363802613167 59.09609843233484 A 14 14 0 0 1 142.14363802613167 73.09609843233484 L 142.14363802613167 73.09609843233484 L 142.14363802613167 73.09609843233484 A 14 14 0 0 1 128.14363802613167 87.09609843233484 L 87.14363802613165 87.09609843233484 L 87.14363802613165 87.09609843233484 A 14 14 0 0 1 73.14363802613165 73.09609843233484 L 73.14363802613165 73.09609843233484 L 73.14363802613165 73.09609843233484 A 14 14 0 0 1 87.14363802613165 59.09609843233484 L 107.64363802613165 59.09609843233484 Z" stroke-opacity="1" stroke-miterlimit="10" stroke-width="1.25"/><text fill="#0f0f0f" stroke="none" font-family="Arial" font-size="9px" font-style="normal" font-weight="normal" text-decoration="normal" x="107.64363802613165" y="73.09609843233484" text-anchor="middle" dominant-baseline="central">P@Y727</text><path fill="rgb(186,186,186)" stroke="rgb(85,85,85)" paint-order="fill stroke markers" d="" fill-opacity="0.5" stroke-opacity="1" stroke-miterlimit="10" stroke-width="1.25"/><text fill="rgb(0,0,0)" stroke="none" font-family="Helvetica" font-size="11px" font-style="normal" font-weight="normal" text-decoration="normal" x="70.64363802613165" y="61.09609843233484" text-anchor="middle" dominant-baseline="text-after-edge" fill-opacity="1">STAT1α</text><path fill="rgb(244,165,130)" stroke="rgb(85,85,85)" paint-order="fill stroke markers" d=" M 215.57679300933827 59.34609843233484 L 292.5767930093383 59.34609843233484 L 292.5767930093383 74.34609843233484 L 292.5767930093383 81.84609843233484 L 292.5767930093383 81.84609843233484 A 7.5 7.5 0 0 1 285.0767930093383 89.34609843233484 L 223.07679300933827 89.34609843233484 L 223.07679300933827 89.34609843233484 A 7.5 7.5 0 0 1 215.57679300933827 81.84609843233484 L 215.57679300933827 59.34609843233484 Z" fill-opacity="0.5" stroke-opacity="1" stroke-miterlimit="10" stroke-width="1.25"/><path fill="#ffffff" stroke="rgb(85,85,85)" paint-order="fill stroke markers" d=" M 225.57679300933827 50.34609843233484 L 225.57679300933827 68.34609843233484 L 267.57679300933825 68.34609843233484 L 267.5767930093383 50.34609843233484 Z" stroke-opacity="1" stroke-miterlimit="10" stroke-width="1.25"/><text fill="#0f0f0f" stroke="none" font-family="Arial" font-size="9px" font-style="normal" font-weight="normal" text-decoration="normal" x="246.57679300933827" y="59.34609843233484" text-anchor="middle" dominant-baseline="central">ct:grr</text><path fill="rgb(244,165,130)" stroke="rgb(85,85,85)" paint-order="fill stroke markers" d="" fill-opacity="0.5" stroke-opacity="1" stroke-miterlimit="10" stroke-width="1.25"/><text fill="rgb(0,0,0)" stroke="none" font-family="Helvetica" font-size="11px" font-style="normal" font-weight="normal" text-decoration="normal" x="254.07679300933827" y="79.84609843233484" text-anchor="middle" dominant-baseline="text-after-edge" fill-opacity="1">IRF1-GAS</text><path fill="rgb(112,112,112)" stroke="rgb(85,85,85)" paint-order="fill stroke markers" d=" M 185.59557595308527 123.76868025458344 L 185.59557595308527 126.6258231117263 L 185.69557595308527 126.6258231117263 L 184.94894407260202 126.66495243052435 L 184.21049244724412 126.7819116779134 L 183.48831170754994 126.97541942390377 L 182.79031421682956 127.2433555571363 L 182.12414738165668 127.58278451326602 L 181.49710986528189 127.98998743761953 L 180.91607162195058 128.4605029297449 L 180.38739862824673 128.98917592344876 L 179.91688313612136 129.57021416678006 L 179.50968021176786 130.19725168315486 L 179.1702512556381 130.86341851832773 L 178.9023151224056 131.56141600904812 L 178.70880737641522 132.2835967487423 L 178.59184812902618 133.0220483741002 L 178.55271881022813 133.76868025458344 L 178.59184812902618 134.5153121350667 L 178.70880737641522 135.2537637604246 L 178.9023151224056 135.97594450011877 L 179.1702512556381 136.67394199083915 L 179.50968021176786 137.34010882601203 L 179.91688313612136 137.96714634238683 L 180.38739862824673 138.54818458571813 L 180.91607162195058 139.07685757942198 L 181.49710986528189 139.54737307154736 L 182.12414738165668 139.95457599590085 L 182.79031421682956 140.2940049520306 L 183.48831170754994 140.5619410852631 L 184.21049244724412 140.7554488312535 L 184.94894407260202 140.87240807864254 L 185.59557595308527 140.91153739744058 L 185.59557595308527 143.76868025458344 L 185.79557595308526 143.76868025458344 L 185.79557595308526 140.91153739744058 L 185.69557595308527 140.91153739744058 L 186.44220783356852 140.87240807864254 L 187.1806594589264 140.7554488312535 L 187.9028401986206 140.5619410852631 L 188.60083768934098 140.2940049520306 L 189.26700452451385 139.95457599590085 L 189.89404204088865 139.54737307154736 L 190.47508028421996 139.07685757942198 L 191.0037532779238 138.54818458571813 L 191.47426877004918 137.96714634238683 L 191.88147169440268 137.34010882601203 L 192.22090065053243 136.67394199083915 L 192.48883678376492 135.97594450011877 L 192.6823445297553 135.2537637604246 L 192.79930377714436 134.5153121350667 L 192.8384330959424 133.76868025458344 L 192.79930377714436 133.0220483741002 L 192.6823445297553 132.2835967487423 L 192.48883678376492 131.56141600904812 L 192.22090065053243 130.86341851832773 L 191.88147169440268 130.19725168315486 L 191.47426877004918 129.57021416678006 L 191.0037532779238 128.98917592344876 L 190.47508028421996 128.4605029297449 L 189.89404204088865 127.98998743761953 L 189.26700452451385 127.58278451326602 L 188.60083768934098 127.2433555571363 L 187.9028401986206 126.97541942390377 L 187.1806594589264 126.7819116779134 L 186.44220783356852 126.66495243052435 L 185.79557595308526 126.6258231117263 L 185.79557595308526 123.76868025458344 Z" fill-opacity="0.5" stroke-opacity="1" stroke-miterlimit="10" stroke-width="1.25"/><g transform="scale(1,1) translate(-24.10636197386833,15.221098432334841)"/></g></svg>