<svg version="1.1" xmlns="http://www.w3.org/2000/svg" xmlns:xlink="http://www.w3.org/1999/xlink" width="1631.25" height="1211.25"><defs/><g transform="translate(-16.267524965751594,-12.573258778705707) scale(1.25,1.25)"><path fill="rgb(239,243,255)" stroke="rgb(85,85,85)" paint-order="fill stroke markers" d=" M 244.14392209711463 19.758607022964565 L 244.14392209711463 149.35860702296458 Q 245.8282970971146 156.55860702296457 277.8314220971146 156.55860702296457 L 345.2064220971146 156.55860702296457 Q 377.20954709711464 156.55860702296457 378.8939220971146 149.35860702296458 L 378.8939220971146 19.758607022964565 Q 377.20954709711464 12.558607022964566 345.2064220971146 12.558607022964566 L 277.8314220971146 12.558607022964566 Q 245.8282970971146 12.558607022964566 244.14392209711463 19.758607022964565 Z" fill-opacity="0.5" stroke-opacity="1" stroke-miterlimit="10" stroke-width="3.25"/><path fill="rgb(239,243,255)" stroke="rgb(85,85,85)" paint-order="fill stroke markers" d="" fill-opacity="0.5" stroke-opacity="1" stroke-miterlimit="10" stroke-width="3.25"/><text fill="rgb(0,0,0)" stroke="none" font-family="Helvetica" font-size="14px" font-style="normal" font-weight="normal" text-decoration="normal" x="311.5189220971146" y="156.43360702296457" text-anchor="middle" dominant-baseline="text-after-edge" fill-opacity="1">juxtanuclear inclusion</text><path fill="rgb(239,243,255)" stroke="rgb(85,85,85)" paint-order="fill stroke markers" d=" M 730.8961245563773 627.2639349461595 L 730.8961245563773 960.7107134692149 Q 735.8961245563773 975.7107134692149 830.8961245563773 975.7107134692149 L 1215.360984760488 975.7107134692149 Q 1310.360984760488 975.7107134692149 1315.360984760488 960.7107134692149 L 1315.360984760488 627.2639349461595 Q 1310.360984760488 612.2639349461595 1215.360984760488 612.2639349461595 L 830.8961245563773 612.2639349461595 Q 735.8961245563773 612.2639349461595 730.8961245563773 627.2639349461595 Z" fill-opacity="0.5" stroke-opacity="1" stroke-miterlimit="10" stroke-width="3.25"/><path fill="rgb(239,243,255)" stroke="rgb(85,85,85)" paint-order="fill stroke markers" d="" fill-opacity="0.5" stroke-opacity="1" stroke-miterlimit="10" stroke-width="3.25"/><text fill="rgb(0,0,0)" stroke="none" font-family="Helvetica" font-size="14px" font-style="normal" font-weight="normal" text-decoration="normal" x="1023.1285546584327" y="975.5857134692149" text-anchor="middle" dominant-baseline="text-after-edge" fill-opacity="1">nucleus</text><path fill="rgb(198,219,239)" stroke="rgb(85,85,85)" paint-order="fill stroke markers" d=" M 26.639019972601275 401.0704090173046 L 14.639019972601275 413.0704090173046 L 14.639019972601275 501.1954090173046 L 26.639019972601275 513.1954090173047 L 104.88901997260128 513.1954090173047 L 116.88901997260128 501.1954090173046 L 116.88901997260128 413.0704090173046 L 104.88901997260128 401.0704090173046 Z" fill-opacity="0.5" stroke-opacity="1" stroke-miterlimit="10" stroke-width="1.25"/><path fill="rgb(198,219,239)" stroke="rgb(85,85,85)" paint-order="fill stroke markers" d="" fill-opacity="0.5" stroke-opacity="1" stroke-miterlimit="10" stroke-width="1.25"/><text fill="rgb(0,0,0)" stroke="none" font-family="Helvetica" font-size="11px" font-style="normal" font-weight="normal" text-decoration="normal" x="65.76401997260128" y="513.1954090173047" text-anchor="middle" dominant-baseline="text-after-edge" fill-opacity="1">PolyQ aggregates</text><path fill="rgb(198,219,239)" stroke="rgb(85,85,85)" paint-order="fill stroke markers" d=" M 483.7264784193783 301.3675978186027 L 471.7264784193783 313.3675978186027 L 471.7264784193783 402.4925978186027 L 483.7264784193783 414.4925978186027 L 552.9764784193783 414.4925978186027 L 564.9764784193783 402.4925978186027 L 564.9764784193783 313.3675978186027 L 552.9764784193783 301.3675978186027 Z" fill-opacity="0.5" stroke-opacity="1" stroke-miterlimit="10" stroke-width="1.25"/><path fill="rgb(198,219,239)" stroke="rgb(85,85,85)" paint-order="fill stroke markers" d="" fill-opacity="0.5" stroke-opacity="1" stroke-miterlimit="10" stroke-width="1.25"/><text fill="rgb(0,0,0)" stroke="none" font-family="Helvetica" font-size="11px" font-style="normal" font-weight="normal" text-decoration="normal" x="518.3514784193783" y="414.4925978186027" text-anchor="middle" dominant-baseline="text-after-edge" fill-opacity="1">misfolded protein</text><path fill="rgb(198,219,239)" stroke="rgb(85,85,85)" paint-order="fill stroke markers" d=" M 398.47791309964964 479.51384339895526 L 386.47791309964964 491.51384339895526 L 386.47791309964964 579.6388433989553 L 398.47791309964964 591.6388433989553 L 546.9779130996496 591.6388433989553 L 558.9779130996496 579.6388433989553 L 558.9779130996496 491.51384339895526 L 546.9779130996496 479.51384339895526 Z" fill-opacity="0.5" stroke-opacity="1" stroke-miterlimit="10" stroke-width="1.25"/><path fill="rgb(198,219,239)" stroke="rgb(85,85,85)" paint-order="fill stroke markers" d="" fill-opacity="0.5" stroke-opacity="1" stroke-miterlimit="10" stroke-width="1.25"/><text fill="rgb(0,0,0)" stroke="none" font-family="Helvetica" font-size="11px" font-style="normal" font-weight="normal" text-decoration="normal" x="472.72791309964964" y="591.6388433989553" text-anchor="middle" dominant-baseline="text-after-edge" fill-opacity="1">Hsp70</text><path fill="rgb(198,219,239)" stroke="rgb(85,85,85)" paint-order="fill stroke markers" d=" M 297.0113266101572 287.41430508511274 L 285.0113266101572 299.41430508511274 L 285.0113266101572 377.91430508511274 L 297.0113266101572 389.91430508511274 L 366.2613266101572 389.91430508511274 L 378.2613266101572 377.91430508511274 L 378.2613266101572 299.41430508511274 L 366.2613266101572 287.41430508511274 Z" fill-opacity="0.5" stroke-opacity="1" stroke-miterlimit="10" stroke-width="1.25"/><path fill="rgb(198,219,239)" stroke="rgb(85,85,85)" paint-order="fill stroke markers" d="" fill-opacity="0.5" stroke-opacity="1" stroke-miterlimit="10" stroke-width="1.25"/><text fill="rgb(0,0,0)" stroke="none" font-family="Helvetica" font-size="11px" font-style="normal" font-weight="normal" text-decoration="normal" x="331.6363266101572" y="389.91430508511274" text-anchor="middle" dominant-baseline="text-after-edge" fill-opacity="1">misfolded protein</text><path fill="rgb(198,219,239)" stroke="rgb(85,85,85)" paint-order="fill stroke markers" d=" M 276.8939220971146 33.308607022964566 L 264.8939220971146 45.308607022964566 L 264.8939220971146 123.80860702296457 L 276.8939220971146 135.80860702296457 L 346.1439220971146 135.80860702296457 L 358.1439220971146 123.80860702296457 L 358.1439220971146 45.308607022964566 L 346.1439220971146 33.308607022964566 Z" fill-opacity="0.5" stroke-opacity="1" stroke-miterlimit="10" stroke-width="1.25"/><path fill="rgb(198,219,239)" stroke="rgb(85,85,85)" paint-order="fill stroke markers" d="" fill-opacity="0.5" stroke-opacity="1" stroke-miterlimit="10" stroke-width="1.25"/><text fill="rgb(0,0,0)" stroke="none" font-family="Helvetica" font-size="11px" font-style="normal" font-weight="normal" text-decoration="normal" x="311.5189220971146" y="135.80860702296457" text-anchor="middle" dominant-baseline="text-after-edge" fill-opacity="1">Hsp70</text><path fill="rgb(198,219,239)" stroke="rgb(85,85,85)" paint-order="fill stroke markers" d=" M 763.6461245563775 657.1800362203136 L 751.6461245563775 669.1800362203136 L 751.6461245563775 757.3050362203136 L 763.6461245563775 769.3050362203136 L 912.1461245563775 769.3050362203136 L 924.1461245563775 757.3050362203136 L 924.1461245563775 669.1800362203136 L 912.1461245563775 657.1800362203136 Z" fill-opacity="0.5" stroke-opacity="1" stroke-miterlimit="10" stroke-width="1.25"/><path fill="rgb(198,219,239)" stroke="rgb(85,85,85)" paint-order="fill stroke markers" d="" fill-opacity="0.5" stroke-opacity="1" stroke-miterlimit="10" stroke-width="1.25"/><text fill="rgb(0,0,0)" stroke="none" font-family="Helvetica" font-size="11px" font-style="normal" font-weight="normal" text-decoration="normal" x="837.8961245563775" y="769.3050362203136" text-anchor="middle" dominant-baseline="text-after-edge" fill-opacity="1">Hsp70</text><path fill="none" stroke="rgb(85,85,85)" paint-order="fill stroke markers" d=" M 430.12792234154136 292.01547817640596 L 381.58556378619613 315.006719867367" stroke-opacity="1" stroke-linejoin="round" stroke-miterlimit="10" stroke-width="1.25"/><path fill="rgb(85,85,85)" stroke="none" paint-order="stroke fill markers" d=" M 386.2621597789064 306.7751734652038 L 378.7613266101572 316.3443705592442 L 390.9171841866391 316.6035188378193 Z" fill-opacity="1"/><path fill="none" stroke="rgb(85,85,85)" paint-order="fill stroke markers" d=" M 420.5893801265748 246.58259220380734 L 433.58000272274944 277.1659325002818" stroke-opacity="1" stroke-linejoin="round" stroke-miterlimit="10" stroke-width="1.25"/><path fill="rgb(255,255,255)" stroke="rgb(255,255,255)" paint-order="fill stroke markers" d=" M 438.11342015284845 275.0374844842849 A 5.4375 5.4375 0 1 1 438.11341743409866 275.03204698519113 Z" fill-opacity="1" stroke-opacity="1" stroke-miterlimit="10"/><path fill="none" stroke="rgb(85,85,85)" paint-order="fill stroke markers" d=" M 438.11342015284845 275.0374844842849 A 5.4375 5.4375 0 1 1 438.11341743409866 275.03204698519113 Z" stroke-opacity="1" stroke-miterlimit="10"/><path fill="none" stroke="rgb(85,85,85)" paint-order="fill stroke markers" d=" M 355.8324981525243 462.1282225348824 L 389.6189865272487 483.35706271515653" stroke-opacity="1" stroke-linejoin="round" stroke-miterlimit="10" stroke-width="1.25"/><path fill="rgb(85,85,85)" stroke="none" paint-order="stroke fill markers" d=" M 380.16395586841924 483.8380008510891 L 392.26502143577125 485.0196282816471 L 385.94968403980647 474.62979936943066 Z" fill-opacity="1"/><path fill="none" stroke="rgb(85,85,85)" paint-order="fill stroke markers" d=" M 167.97208503050769 438.63619315828606 L 120.46407080383032 447.2337753518165" stroke-opacity="1" stroke-linejoin="round" stroke-miterlimit="10" stroke-width="1.25"/><path fill="rgb(85,85,85)" stroke="none" paint-order="stroke fill markers" d=" M 127.1218944704096 440.5030777449754 L 117.38901997260128 447.79027098105144 L 129.0584992601471 451.20425463765247 Z" fill-opacity="1"/><path fill="none" stroke="rgb(85,85,85)" paint-order="fill stroke markers" d=" M 310.06565580980816 238.9719349601345 L 311.0024654708609 139.4334686306389" stroke-opacity="1" stroke-linejoin="round" stroke-miterlimit="10" stroke-width="1.25"/><path fill="rgb(85,85,85)" stroke="none" paint-order="stroke fill markers" d=" M 316.3667885098059 147.23429836752229 L 311.0318752121546 136.30860702296457 L 305.4922701150992 147.1319524678202 Z" fill-opacity="1"/><path fill="none" stroke="rgb(85,85,85)" paint-order="fill stroke markers" d=" M 633.6262880921402 630.4695802617823 L 748.2498711603188 676.9166375333657" stroke-opacity="1" stroke-linejoin="round" stroke-miterlimit="10" stroke-width="1.25"/><path fill="rgb(85,85,85)" stroke="none" paint-order="stroke fill markers" d=" M 739.0250955461546 679.0455858930782 L 751.1461245563775 678.0902393678132 L 743.1092299300318 668.9666240747939 Z" fill-opacity="1"/><path fill="none" stroke="rgb(85,85,85)" paint-order="fill stroke markers" d=" M 606.934723164142 666.6170821402599 L 620.3453882688877 638.129593495762" stroke-opacity="1" stroke-linejoin="round" stroke-miterlimit="10" stroke-width="1.25"/><path fill="rgb(255,255,255)" stroke="rgb(255,255,255)" paint-order="fill stroke markers" d=" M 621.9641294788775 647.4574326423747 L 621.6763930536264 635.3022181646461 L 612.1248633265941 642.8255359914841 Z" fill-opacity="1" stroke-opacity="1" stroke-miterlimit="10"/><path fill="none" stroke="rgb(85,85,85)" paint-order="fill stroke markers" d=" M 621.9641294788775 647.4574326423747 L 621.6763930536264 635.3022181646461 L 612.1248633265941 642.8255359914841 Z" stroke-opacity="1" stroke-miterlimit="10"/><path fill="none" stroke="rgb(85,85,85)" paint-order="fill stroke markers" d=" M 1006.3289743151684 769.3029358033518 L 1039.3109659930192 802.1385137027582" stroke-opacity="1" stroke-linejoin="round" stroke-miterlimit="10" stroke-width="1.25"/><path fill="rgb(85,85,85)" stroke="none" paint-order="stroke fill markers" d=" M 1029.9823808654612 800.524077030757 L 1041.525584788733 804.3433013545903 L 1037.6550418938366 792.8172036216728 Z" fill-opacity="1"/><path fill="none" stroke="rgb(85,85,85)" paint-order="fill stroke markers" d=" M 1001.3442375201455 755.4823685165525 L 1004.6921453423314 720.4645796998147" stroke-opacity="1" stroke-linejoin="round" stroke-miterlimit="10" stroke-width="1.25"/><path fill="rgb(85,85,85)" stroke="none" paint-order="stroke fill markers" d=" M 1009.3673811111915 728.6968987385529 L 1004.9895576784211 717.3537645490317 L 998.5417443864663 727.6619038089608 Z" fill-opacity="1"/><path fill="none" stroke="rgb(85,85,85)" paint-order="fill stroke markers" d=" M 1008.6151439801733 762.4273270645381 L 1046.2674249233778 757.0765490973066" stroke-opacity="1" stroke-linejoin="round" stroke-miterlimit="10" stroke-width="1.25"/><path fill="rgb(85,85,85)" stroke="none" paint-order="stroke fill markers" d=" M 1039.359554579021 763.5503604596771 L 1049.3613397440936 756.6368718495949 L 1037.8294777569843 752.7835368835862 Z" fill-opacity="1"/><path fill="none" stroke="rgb(85,85,85)" paint-order="fill stroke markers" d=" M 1021.2228450687303 632.3889349461595 L 927.5793843668159 513.0219865338078" stroke-opacity="1" stroke-linejoin="round" stroke-miterlimit="10" stroke-width="1.25"/><path fill="rgb(85,85,85)" stroke="none" paint-order="stroke fill markers" d=" M 936.6410517892303 515.7633529404657 L 925.6505373783649 510.56329291825836 L 928.0847980071184 522.4757404602751 Z" fill-opacity="1"/><path fill="none" stroke="rgb(85,85,85)" paint-order="fill stroke markers" d=" M 1155.545339274464 699.0725082127015 L 1218.1898923003534 562.6305391943768" stroke-opacity="1" stroke-linejoin="round" stroke-miterlimit="10" stroke-width="1.25"/><path fill="rgb(85,85,85)" stroke="none" paint-order="stroke fill markers" d=" M 1219.8977325575786 571.9424771186651 L 1219.493806895074 559.7905688195884 L 1210.0146356533153 567.4048543290382 Z" fill-opacity="1"/><path fill="none" stroke="rgb(85,85,85)" paint-order="fill stroke markers" d=" M 1137.6259686345634 875.0276619946804 L 1133.8854497364202 907.8174406471021" stroke-opacity="1" stroke-linejoin="round" stroke-miterlimit="10" stroke-width="1.25"/><path fill="rgb(85,85,85)" stroke="none" paint-order="stroke fill markers" d=" M 1129.3613782250916 899.5010902931076 L 1133.5312601234484 910.9223037226761 L 1140.1663017280891 900.7336701462496 Z" fill-opacity="1"/><path fill="none" stroke="rgb(85,85,85)" paint-order="fill stroke markers" d=" M 1188.5426892720586 877.4928001305055 L 1149.734986658429 869.2715534265793" stroke-opacity="1" stroke-linejoin="round" stroke-miterlimit="10" stroke-width="1.25"/><path fill="rgb(255,255,255)" stroke="rgb(255,255,255)" paint-order="fill stroke markers" d=" M 1158.4436266669595 865.5582670853686 L 1146.6778341791457 868.6239086795058 L 1156.1898229471437 876.1971577132746 Z" fill-opacity="1" stroke-opacity="1" stroke-miterlimit="10"/><path fill="none" stroke="rgb(85,85,85)" paint-order="fill stroke markers" d=" M 1158.4436266669595 865.5582670853686 L 1146.6778341791457 868.6239086795058 L 1156.1898229471437 876.1971577132746 Z" stroke-opacity="1" stroke-miterlimit="10"/><path fill="none" stroke="rgb(85,85,85)" paint-order="fill stroke markers" d=" M 172.3752833643073 392.1109333438121 L 175.3218466692186 429.08997603846205" stroke-opacity="1" stroke-linejoin="round" stroke-miterlimit="10" stroke-width="1.25"/><path fill="none" stroke="rgb(85,85,85)" paint-order="fill stroke markers" d=" M 223.44808076992473 450.6830528385061 L 183.7827313569806 439.4104221086151" stroke-opacity="1" stroke-linejoin="round" stroke-miterlimit="10" stroke-width="1.25"/><path fill="none" stroke="rgb(85,85,85)" paint-order="fill stroke markers" d=" M 303.4231779281676 459.6300944794469 L 340.8343235299532 458.13089005275253" stroke-opacity="1" stroke-linejoin="round" stroke-miterlimit="10" stroke-width="1.25"/><path fill="none" stroke="rgb(85,85,85)" paint-order="fill stroke markers" d=" M 339.1578852904149 390.41430508511274 L 347.7841655612317 449.76503583012243" stroke-opacity="1" stroke-linejoin="round" stroke-miterlimit="10" stroke-width="1.25"/><path fill="none" stroke="rgb(85,85,85)" paint-order="fill stroke markers" d=" M 481.55879836328995 264.9468173450554 L 446.37792234154136 283.8106288406518" stroke-opacity="1" stroke-linejoin="round" stroke-miterlimit="10" stroke-width="1.25"/><path fill="none" stroke="rgb(85,85,85)" paint-order="fill stroke markers" d=" M 471.2264784193783 316.8859631969192 L 446.37792234154136 295.2437885377534" stroke-opacity="1" stroke-linejoin="round" stroke-miterlimit="10" stroke-width="1.25"/><path fill="none" stroke="rgb(85,85,85)" paint-order="fill stroke markers" d=" M 924.6461245563775 740.0810429314517 L 992.8089470899761 761.1690933063003" stroke-opacity="1" stroke-linejoin="round" stroke-miterlimit="10" stroke-width="1.25"/><path fill="none" stroke="rgb(85,85,85)" paint-order="fill stroke markers" d=" M 1090.1363943881074 839.5753924949681 L 1130.4278341791457 862.3167389973794" stroke-opacity="1" stroke-linejoin="round" stroke-miterlimit="10" stroke-width="1.25"/><path fill="none" stroke="rgb(85,85,85)" paint-order="fill stroke markers" d=" M 1013.0999471852188 681.3537645490317 L 1024.71277204276 648.6389349461595" stroke-opacity="1" stroke-linejoin="round" stroke-miterlimit="10" stroke-width="1.25"/><path fill="none" stroke="rgb(85,85,85)" paint-order="fill stroke markers" d=" M 1114.1031193797742 732.8077345770388 L 1143.689910895297 712.7152277600369" stroke-opacity="1" stroke-linejoin="round" stroke-miterlimit="10" stroke-width="1.25"/><path fill="none" stroke="rgb(85,85,85)" paint-order="fill stroke markers" d=" M 1241.3027092900786 919.4607134692149 L 1210.741967294557 889.4145544626787" stroke-opacity="1" stroke-linejoin="round" stroke-miterlimit="10" stroke-width="1.25"/><path fill="none" stroke="rgb(85,85,85)" paint-order="fill stroke markers" d=" M 1248.830995277607 862.1505385426499 L 1213.649012656925 875.5434405339169" stroke-opacity="1" stroke-linejoin="round" stroke-miterlimit="10" stroke-width="1.25"/><path fill="none" stroke="rgb(85,85,85)" paint-order="fill stroke markers" d=" M 554.6363283191657 584.6875349606256 L 617.3762880921402 622.3055767054728" stroke-opacity="1" stroke-linejoin="round" stroke-miterlimit="10" stroke-width="1.25"/><path fill="none" stroke="rgb(85,85,85)" paint-order="fill stroke markers" d=" M 319.40228004608775 286.91430508511274 L 311.90999150821904 255.2219349601345" stroke-opacity="1" stroke-linejoin="round" stroke-miterlimit="10" stroke-width="1.25"/><path fill="none" stroke="rgb(85,85,85)" paint-order="fill stroke markers" d=" M 237.75123861516155 276.8916836159281 L 209.00461747522996 253.42460936690483" stroke-opacity="1" stroke-linejoin="round" stroke-miterlimit="10" stroke-width="1.25"/><path fill="rgb(85,85,85)" stroke="none" paint-order="stroke fill markers" d=" M 218.44678254578918 254.1133945513502 L 206.58381957219532 251.44841036056386 L 211.56961000372254 262.53777125391076 Z" fill-opacity="1"/><path fill="none" stroke="rgb(85,85,85)" paint-order="fill stroke markers" d=" M 284.5113266101572 308.36506976286705 L 254.00123861516155 288.7484684713488" stroke-opacity="1" stroke-linejoin="round" stroke-miterlimit="10" stroke-width="1.25"/><path fill="rgb(158,202,225)" stroke="rgb(85,85,85)" paint-order="fill stroke markers" d=" M 311.5189220971146 44.93360702296457 L 338.5189220971146 44.93360702296457 L 338.5189220971146 44.93360702296457 A 8 8 0 0 1 346.5189220971146 52.93360702296457 L 346.5189220971146 71.93360702296457 L 346.5189220971146 71.93360702296457 A 8 8 0 0 1 338.5189220971146 79.93360702296457 L 284.5189220971146 79.93360702296457 L 284.5189220971146 79.93360702296457 A 8 8 0 0 1 276.5189220971146 71.93360702296457 L 276.5189220971146 52.93360702296457 L 276.5189220971146 52.93360702296457 A 8 8 0 0 1 284.5189220971146 44.93360702296457 L 311.5189220971146 44.93360702296457 Z" fill-opacity="0.5" stroke-opacity="1" stroke-miterlimit="10" stroke-width="1.25"/><path fill="rgb(158,202,225)" stroke="rgb(85,85,85)" paint-order="fill stroke markers" d="" fill-opacity="0.5" stroke-opacity="1" stroke-miterlimit="10" stroke-width="1.25"/><text fill="rgb(0,0,0)" stroke="none" font-family="Helvetica" font-size="11px" font-style="normal" font-weight="normal" text-decoration="normal" x="311.5189220971146" y="67.43360702296457" text-anchor="middle" dominant-baseline="text-after-edge" fill-opacity="1">Hsp70</text><path fill="rgb(158,202,225)" stroke="rgb(85,85,85)" paint-order="fill stroke markers" d=" M 311.5189220971146 89.18360702296457 L 338.5189220971146 89.18360702296457 L 338.5189220971146 89.18360702296457 A 8 8 0 0 1 346.5189220971146 97.18360702296457 L 346.5189220971146 116.18360702296457 L 346.5189220971146 116.18360702296457 A 8 8 0 0 1 338.5189220971146 124.18360702296457 L 284.5189220971146 124.18360702296457 L 284.5189220971146 124.18360702296457 A 8 8 0 0 1 276.5189220971146 116.18360702296457 L 276.5189220971146 97.18360702296457 L 276.5189220971146 97.18360702296457 A 8 8 0 0 1 284.5189220971146 89.18360702296457 L 311.5189220971146 89.18360702296457 Z" fill-opacity="0.5" stroke-opacity="1" stroke-miterlimit="10" stroke-width="1.25"/><path fill="rgb(158,202,225)" stroke="rgb(85,85,85)" paint-order="fill stroke markers" d="" fill-opacity="0.5" stroke-opacity="1" stroke-miterlimit="10" stroke-width="1.25"/><text fill="rgb(0,0,0)" stroke="none" font-family="Helvetica" font-size="11px" font-style="normal" font-weight="normal" text-decoration="normal" x="311.5189220971146" y="106.68360702296457" text-anchor="middle" dominant-baseline="text-after-edge" fill-opacity="1">misfolded</text><text fill="rgb(0,0,0)" stroke="none" font-family="Helvetica" font-size="11px" font-style="normal" font-weight="normal" text-decoration="normal" x="311.5189220971146" y="117.18360702296457" text-anchor="middle" dominant-baseline="text-after-edge" fill-opacity="1">protein</text><path fill="none" stroke="rgb(85,85,85)" paint-order="fill stroke markers" d=" M 1144.543663748967 923.962728640087 L 1144.505130420631 924.9434673366851 L 1144.3897680064063 925.9181594530899 L 1144.1982877539378 926.8807956882858 L 1143.9318702026565 927.8254410697739 L 1143.5921579053581 928.7462715446507 L 1143.1812453013215 929.6376098868313 L 1142.701665803393 930.4939606990364 L 1142.1563761786538 931.3100442937429 L 1141.5487383189675 932.0808292442143 L 1140.8824985137987 932.8015634049189 L 1140.1617643530942 933.4678032100874 L 1139.3909794026229 934.0754410697739 L 1138.5748958079164 934.6207306945131 L 1137.7185449957112 935.1003101924416 L 1136.8272066535305 935.511222796478 L 1135.9063761786538 935.8509350937765 L 1134.9617307971657 936.117352645058 L 1133.99909456197 936.3088328975263 L 1133.024402445565 936.4241953117511 L 1132.043663748967 936.462728640087 L 1131.0629250523689 936.4241953117511 L 1130.088232935964 936.3088328975263 L 1129.1255967007683 936.117352645058 L 1128.1809513192802 935.8509350937765 L 1127.2601208444034 935.511222796478 L 1126.3687825022228 935.1003101924416 L 1125.5124316900176 934.6207306945131 L 1124.6963480953111 934.0754410697739 L 1123.9255631448398 933.4678032100874 L 1123.2048289841352 932.8015634049189 L 1122.5385891789665 932.0808292442143 L 1121.9309513192802 931.3100442937429 L 1121.3856616945409 930.4939606990364 L 1120.9060821966125 929.6376098868313 L 1120.4951695925758 928.7462715446507 L 1120.1554572952775 927.8254410697739 L 1119.8890397439961 926.8807956882858 L 1119.6975594915277 925.9181594530899 L 1119.582197077303 924.9434673366851 L 1119.543663748967 923.962728640087 L 1119.582197077303 922.9819899434889 L 1119.6975594915277 922.0072978270841 L 1119.8890397439961 921.0446615918881 L 1120.1554572952775 920.1000162104001 L 1120.4951695925758 919.1791857355233 L 1120.9060821966125 918.2878473933426 L 1121.3856616945409 917.4314965811376 L 1121.9309513192802 916.6154129864311 L 1122.5385891789665 915.8446280359597 L 1123.2048289841352 915.1238938752551 L 1123.9255631448398 914.4576540700866 L 1124.6963480953111 913.8500162104001 L 1125.5124316900176 913.3047265856609 L 1126.3687825022228 912.8251470877324 L 1127.2601208444034 912.4142344836959 L 1128.1809513192802 912.0745221863975 L 1129.1255967007683 911.808104635116 L 1130.0882329359642 911.6166243826477 L 1131.0629250523689 911.5012619684229 L 1132.043663748967 911.462728640087 L 1133.024402445565 911.5012619684229 L 1133.99909456197 911.6166243826477 L 1134.961730797166 911.808104635116 L 1135.906376178654 912.0745221863976 L 1136.8272066535308 912.414234483696 L 1137.7185449957115 912.8251470877324 L 1138.5748958079164 913.3047265856609 L 1139.390979402623 913.8500162104002 L 1140.1617643530944 914.4576540700866 L 1140.882498513799 915.1238938752552 L 1141.5487383189675 915.8446280359598 L 1142.156376178654 916.6154129864311 L 1142.701665803393 917.4314965811377 L 1143.1812453013217 918.2878473933428 L 1143.5921579053581 919.1791857355234 L 1143.9318702026565 920.1000162104003 L 1144.198287753938 921.0446615918883 L 1144.3897680064063 922.0072978270842 L 1144.505130420631 922.9819899434891 Z" stroke-opacity="1" stroke-miterlimit="10" stroke-width="1.25"/><path fill="rgb(158,202,225)" stroke="rgb(85,85,85)" paint-order="fill stroke markers" d=" M 1119.543663748967 936.462728640087 L 1144.543663748967 911.462728640087 Z" stroke-opacity="1" stroke-miterlimit="10" stroke-width="1.25" fill-opacity="0.5"/><path fill="rgb(158,202,225)" stroke="rgb(85,85,85)" paint-order="fill stroke markers" d=" M 798.2711245563775 722.6800362203136 L 825.2711245563775 722.6800362203136 L 825.2711245563775 722.6800362203136 A 8 8 0 0 1 833.2711245563775 730.6800362203136 L 833.2711245563775 749.6800362203136 L 833.2711245563775 749.6800362203136 A 8 8 0 0 1 825.2711245563775 757.6800362203136 L 771.2711245563775 757.6800362203136 L 771.2711245563775 757.6800362203136 A 8 8 0 0 1 763.2711245563775 749.6800362203136 L 763.2711245563775 730.6800362203136 L 763.2711245563775 730.6800362203136 A 8 8 0 0 1 771.2711245563775 722.6800362203136 L 798.2711245563775 722.6800362203136 Z" fill-opacity="0.5" stroke-opacity="1" stroke-miterlimit="10" stroke-width="1.25"/><path fill="rgb(158,202,225)" stroke="rgb(85,85,85)" paint-order="fill stroke markers" d="" fill-opacity="0.5" stroke-opacity="1" stroke-miterlimit="10" stroke-width="1.25"/><text fill="rgb(0,0,0)" stroke="none" font-family="Helvetica" font-size="11px" font-style="normal" font-weight="normal" text-decoration="normal" x="798.2711245563775" y="745.1800362203136" text-anchor="middle" dominant-baseline="text-after-edge" fill-opacity="1">Hsp70</text><path fill="rgb(158,202,225)" stroke="rgb(85,85,85)" paint-order="fill stroke markers" d=" M 877.5211245563775 722.6800362203136 L 904.5211245563775 722.6800362203136 L 904.5211245563775 722.6800362203136 A 8 8 0 0 1 912.5211245563775 730.6800362203136 L 912.5211245563775 749.6800362203136 L 912.5211245563775 749.6800362203136 A 8 8 0 0 1 904.5211245563775 757.6800362203136 L 850.5211245563775 757.6800362203136 L 850.5211245563775 757.6800362203136 A 8 8 0 0 1 842.5211245563775 749.6800362203136 L 842.5211245563775 730.6800362203136 L 842.5211245563775 730.6800362203136 A 8 8 0 0 1 850.5211245563775 722.6800362203136 L 877.5211245563775 722.6800362203136 Z" fill-opacity="0.5" stroke-opacity="1" stroke-miterlimit="10" stroke-width="1.25"/><path fill="rgb(158,202,225)" stroke="rgb(85,85,85)" paint-order="fill stroke markers" d="" fill-opacity="0.5" stroke-opacity="1" stroke-miterlimit="10" stroke-width="1.25"/><text fill="rgb(0,0,0)" stroke="none" font-family="Helvetica" font-size="11px" font-style="normal" font-weight="normal" text-decoration="normal" x="877.5211245563775" y="740.1800362203136" text-anchor="middle" dominant-baseline="text-after-edge" fill-opacity="1">misfolded</text><text fill="rgb(0,0,0)" stroke="none" font-family="Helvetica" font-size="11px" font-style="normal" font-weight="normal" text-decoration="normal" x="877.5211245563775" y="750.6800362203136" text-anchor="middle" dominant-baseline="text-after-edge" fill-opacity="1">protein</text><path fill="rgb(158,202,225)" stroke="rgb(85,85,85)" paint-order="fill stroke markers" d=" M 805.2711245563775 682.4300362203136 L 834.2711245563775 682.4300362203136 L 834.2711245563775 682.4300362203136 A 8 8 0 0 1 842.2711245563775 690.4300362203136 L 842.2711245563775 710.4300362203136 L 842.2711245563775 710.4300362203136 A 8 8 0 0 1 834.2711245563775 718.4300362203136 L 776.2711245563775 718.4300362203136 L 776.2711245563775 718.4300362203136 A 8 8 0 0 1 768.2711245563775 710.4300362203136 L 768.2711245563775 690.4300362203136 L 768.2711245563775 690.4300362203136 A 8 8 0 0 1 776.2711245563775 682.4300362203136 L 805.2711245563775 682.4300362203136 Z" fill-opacity="0.5" stroke-opacity="1" stroke-miterlimit="10" stroke-width="1.25"/><path fill="rgb(158,202,225)" stroke="rgb(85,85,85)" paint-order="fill stroke markers" d=" M 800.2711245563775 677.4300362203136 L 829.2711245563775 677.4300362203136 L 829.2711245563775 677.4300362203136 A 8 8 0 0 1 837.2711245563775 685.4300362203136 L 837.2711245563775 705.4300362203136 L 837.2711245563775 705.4300362203136 A 8 8 0 0 1 829.2711245563775 713.4300362203136 L 771.2711245563775 713.4300362203136 L 771.2711245563775 713.4300362203136 A 8 8 0 0 1 763.2711245563775 705.4300362203136 L 763.2711245563775 685.4300362203136 L 763.2711245563775 685.4300362203136 A 8 8 0 0 1 771.2711245563775 677.4300362203136 L 800.2711245563775 677.4300362203136 Z" fill-opacity="0.5" stroke-opacity="1" stroke-miterlimit="10" stroke-width="1.25"/><path fill="#ffffff" stroke="rgb(85,85,85)" paint-order="fill stroke markers" d=" M 773.2711245563775 669.4300362203136 L 773.2711245563775 685.4300362203136 L 804.2711245563775 685.4300362203136 L 804.2711245563775 669.4300362203136 Z" stroke-opacity="1" stroke-miterlimit="10" stroke-width="1.25"/><text fill="#0f0f0f" stroke="none" font-family="Arial" font-size="9px" font-style="normal" font-weight="normal" text-decoration="normal" x="788.7711245563775" y="677.4300362203136" text-anchor="middle" dominant-baseline="central">N:2</text><path fill="rgb(158,202,225)" stroke="rgb(85,85,85)" paint-order="fill stroke markers" d="" fill-opacity="0.5" stroke-opacity="1" stroke-miterlimit="10" stroke-width="1.25"/><text fill="rgb(0,0,0)" stroke="none" font-family="Helvetica" font-size="11px" font-style="normal" font-weight="normal" text-decoration="normal" x="800.2711245563775" y="700.4300362203136" text-anchor="middle" dominant-baseline="text-after-edge" fill-opacity="1">Sis1</text><path fill="rgb(255,255,255)" stroke="rgb(85,85,85)" paint-order="fill stroke markers" d=" M 1008.0709654463124 763.5704879085886 L 1008.0478454493108 764.1589311265474 L 1007.9786280007759 764.7437463963903 L 1007.8637398492949 765.3213281375079 L 1007.703889318526 765.8881153664007 L 1007.500061940147 766.4406136513268 L 1007.2535143777251 766.9754166566352 L 1006.9657666789681 767.4892271439581 L 1006.6385929041245 767.9788773007821 L 1006.2740101883126 768.441348271065 L 1005.8742663052114 768.8737887674877 L 1005.4418258087887 769.2735326505888 L 1004.9793548385059 769.6381153664007 L 1004.4897046816819 769.9652891412443 L 1003.975894194359 770.2530368400013 L 1003.4410911890506 770.4995844024232 L 1002.8885929041245 770.7034117808022 L 1002.3218056752316 770.8632623115711 L 1001.7442239341141 770.9781504630521 L 1001.1594086642712 771.047367911587 L 1000.5709654463124 771.0704879085886 L 999.9825222283536 771.047367911587 L 999.3977069585106 770.9781504630521 L 998.8201252173931 770.8632623115711 L 998.2533379885002 770.7034117808022 L 997.7008397035742 770.4995844024232 L 997.1660366982658 770.2530368400013 L 996.6522262109428 769.9652891412443 L 996.1625760541189 769.6381153664007 L 995.700105083836 769.2735326505888 L 995.2676645874133 768.8737887674877 L 994.8679207043122 768.441348271065 L 994.5033379885002 767.9788773007821 L 994.1761642136566 767.4892271439581 L 993.8884165148996 766.9754166566352 L 993.6418689524777 766.4406136513268 L 993.4380415740987 765.8881153664007 L 993.2781910433298 765.3213281375079 L 993.1633028918488 764.7437463963903 L 993.0940854433139 764.1589311265474 L 993.0709654463124 763.5704879085886 L 993.0940854433139 762.9820446906298 L 993.1633028918488 762.3972294207869 L 993.2781910433298 761.8196476796693 L 993.4380415740987 761.2528604507764 L 993.6418689524777 760.7003621658504 L 993.8884165148996 760.165559160542 L 994.1761642136566 759.651748673219 L 994.5033379885002 759.1620985163951 L 994.8679207043122 758.6996275461122 L 995.2676645874133 758.2671870496895 L 995.700105083836 757.8674431665884 L 996.1625760541189 757.5028604507764 L 996.6522262109428 757.1756866759329 L 997.1660366982658 756.8879389771758 L 997.7008397035742 756.6413914147539 L 998.2533379885002 756.437564036375 L 998.8201252173931 756.277713505606 L 999.3977069585106 756.1628253541251 L 999.9825222283536 756.0936079055901 L 1000.5709654463124 756.0704879085886 L 1001.1594086642713 756.0936079055901 L 1001.7442239341141 756.1628253541251 L 1002.3218056752316 756.277713505606 L 1002.8885929041245 756.437564036375 L 1003.4410911890506 756.6413914147539 L 1003.975894194359 756.8879389771758 L 1004.489704681682 757.1756866759329 L 1004.979354838506 757.5028604507766 L 1005.4418258087887 757.8674431665884 L 1005.8742663052114 758.2671870496895 L 1006.2740101883127 758.6996275461122 L 1006.6385929041245 759.1620985163951 L 1006.9657666789681 759.651748673219 L 1007.2535143777252 760.165559160542 L 1007.500061940147 760.7003621658505 L 1007.7038893185261 761.2528604507766 L 1007.8637398492949 761.8196476796694 L 1007.9786280007759 762.397229420787 L 1008.0478454493108 762.9820446906298 Z" fill-opacity="0.5" stroke-opacity="1" stroke-miterlimit="10" stroke-width="1.25"/><text fill="rgb(0,0,0)" stroke="none" font-family="Helvetica Neue, Helvetica, sans-serif" font-size="12px" font-style="normal" font-weight="normal" text-decoration="normal" x="1000.5709654463124" y="769.5704879085886" text-anchor="middle" dominant-baseline="text-after-edge" fill-opacity="1">o</text><path fill="rgb(158,202,225)" stroke="rgb(85,85,85)" paint-order="fill stroke markers" d=" M 1059.6058467539733 804.8433013545903 L 1086.6058467539733 804.8433013545903 L 1086.6058467539733 804.8433013545903 A 8 8 0 0 1 1094.6058467539733 812.8433013545903 L 1094.6058467539733 831.8433013545903 L 1094.6058467539733 831.8433013545903 A 8 8 0 0 1 1086.6058467539733 839.8433013545903 L 1032.6058467539733 839.8433013545903 L 1032.6058467539733 839.8433013545903 A 8 8 0 0 1 1024.6058467539733 831.8433013545903 L 1024.6058467539733 812.8433013545903 L 1024.6058467539733 812.8433013545903 A 8 8 0 0 1 1032.6058467539733 804.8433013545903 L 1059.6058467539733 804.8433013545903 Z" fill-opacity="0.5" stroke-opacity="1" stroke-miterlimit="10" stroke-width="1.25"/><path fill="rgb(158,202,225)" stroke="rgb(85,85,85)" paint-order="fill stroke markers" d="" fill-opacity="0.5" stroke-opacity="1" stroke-miterlimit="10" stroke-width="1.25"/><text fill="rgb(0,0,0)" stroke="none" font-family="Helvetica" font-size="11px" font-style="normal" font-weight="normal" text-decoration="normal" x="1059.6058467539733" y="822.3433013545903" text-anchor="middle" dominant-baseline="text-after-edge" fill-opacity="1">misfolded</text><text fill="rgb(0,0,0)" stroke="none" font-family="Helvetica" font-size="11px" font-style="normal" font-weight="normal" text-decoration="normal" x="1059.6058467539733" y="832.8433013545903" text-anchor="middle" dominant-baseline="text-after-edge" fill-opacity="1">protein</text><path fill="rgb(255,255,255)" stroke="rgb(85,85,85)" paint-order="fill stroke markers" d=" M 1131.0528341791457 859.4026619946804 L 1131.0528341791457 874.4026619946804 L 1146.0528341791457 874.4026619946804 L 1146.0528341791457 859.4026619946804 Z" fill-opacity="0.5" stroke-opacity="1" stroke-miterlimit="10" stroke-width="1.25"/><path fill="rgb(158,202,225)" stroke="rgb(85,85,85)" paint-order="fill stroke markers" d=" M 1006.7104641901007 681.8537645490317 L 1033.7104641901005 681.8537645490317 L 1033.7104641901005 681.8537645490317 A 8 8 0 0 1 1041.7104641901005 689.8537645490317 L 1041.7104641901005 708.8537645490317 L 1041.7104641901005 708.8537645490317 A 8 8 0 0 1 1033.7104641901005 716.8537645490317 L 979.7104641901007 716.8537645490317 L 979.7104641901007 716.8537645490317 A 8 8 0 0 1 971.7104641901007 708.8537645490317 L 971.7104641901007 689.8537645490317 L 971.7104641901007 689.8537645490317 A 8 8 0 0 1 979.7104641901007 681.8537645490317 L 1006.7104641901007 681.8537645490317 Z" fill-opacity="0.5" stroke-opacity="1" stroke-miterlimit="10" stroke-width="1.25"/><path fill="rgb(158,202,225)" stroke="rgb(85,85,85)" paint-order="fill stroke markers" d="" fill-opacity="0.5" stroke-opacity="1" stroke-miterlimit="10" stroke-width="1.25"/><text fill="rgb(0,0,0)" stroke="none" font-family="Helvetica" font-size="11px" font-style="normal" font-weight="normal" text-decoration="normal" x="1006.7104641901007" y="704.3537645490317" text-anchor="middle" dominant-baseline="text-after-edge" fill-opacity="1">Hsp70</text><path fill="rgb(255,255,255)" stroke="rgb(85,85,85)" paint-order="fill stroke markers" d=" M 1020.0969136725007 633.0139349461595 L 1020.0969136725007 648.0139349461595 L 1035.0969136725007 648.0139349461595 L 1035.0969136725007 633.0139349461595 Z" fill-opacity="0.5" stroke-opacity="1" stroke-miterlimit="10" stroke-width="1.25"/><path fill="rgb(158,202,225)" stroke="rgb(85,85,85)" paint-order="fill stroke markers" d=" M 1091.8613397440936 738.3077345770388 L 1120.8613397440936 738.3077345770388 L 1120.8613397440936 738.3077345770388 A 8 8 0 0 1 1128.8613397440936 746.3077345770388 L 1128.8613397440936 766.3077345770388 L 1128.8613397440936 766.3077345770388 A 8 8 0 0 1 1120.8613397440936 774.3077345770388 L 1062.8613397440936 774.3077345770388 L 1062.8613397440936 774.3077345770388 A 8 8 0 0 1 1054.8613397440936 766.3077345770388 L 1054.8613397440936 746.3077345770388 L 1054.8613397440936 746.3077345770388 A 8 8 0 0 1 1062.8613397440936 738.3077345770388 L 1091.8613397440936 738.3077345770388 Z" fill-opacity="0.5" stroke-opacity="1" stroke-miterlimit="10" stroke-width="1.25"/><path fill="rgb(158,202,225)" stroke="rgb(85,85,85)" paint-order="fill stroke markers" d=" M 1086.8613397440936 733.3077345770388 L 1115.8613397440936 733.3077345770388 L 1115.8613397440936 733.3077345770388 A 8 8 0 0 1 1123.8613397440936 741.3077345770388 L 1123.8613397440936 761.3077345770388 L 1123.8613397440936 761.3077345770388 A 8 8 0 0 1 1115.8613397440936 769.3077345770388 L 1057.8613397440936 769.3077345770388 L 1057.8613397440936 769.3077345770388 A 8 8 0 0 1 1049.8613397440936 761.3077345770388 L 1049.8613397440936 741.3077345770388 L 1049.8613397440936 741.3077345770388 A 8 8 0 0 1 1057.8613397440936 733.3077345770388 L 1086.8613397440936 733.3077345770388 Z" fill-opacity="0.5" stroke-opacity="1" stroke-miterlimit="10" stroke-width="1.25"/><path fill="#ffffff" stroke="rgb(85,85,85)" paint-order="fill stroke markers" d=" M 1059.8613397440936 725.3077345770388 L 1059.8613397440936 741.3077345770388 L 1090.8613397440936 741.3077345770388 L 1090.8613397440936 725.3077345770388 Z" stroke-opacity="1" stroke-miterlimit="10" stroke-width="1.25"/><text fill="#0f0f0f" stroke="none" font-family="Arial" font-size="9px" font-style="normal" font-weight="normal" text-decoration="normal" x="1075.3613397440936" y="733.3077345770388" text-anchor="middle" dominant-baseline="central">N:2</text><path fill="rgb(158,202,225)" stroke="rgb(85,85,85)" paint-order="fill stroke markers" d="" fill-opacity="0.5" stroke-opacity="1" stroke-miterlimit="10" stroke-width="1.25"/><text fill="rgb(0,0,0)" stroke="none" font-family="Helvetica" font-size="11px" font-style="normal" font-weight="normal" text-decoration="normal" x="1086.8613397440936" y="756.3077345770388" text-anchor="middle" dominant-baseline="text-after-edge" fill-opacity="1">Sis1</text><path fill="rgb(255,255,255)" stroke="rgb(85,85,85)" paint-order="fill stroke markers" d=" M 1144.314910895297 699.6975082127015 L 1144.314910895297 714.6975082127015 L 1159.314910895297 714.6975082127015 L 1159.314910895297 699.6975082127015 Z" fill-opacity="0.5" stroke-opacity="1" stroke-miterlimit="10" stroke-width="1.25"/><path fill="rgb(158,202,225)" stroke="rgb(85,85,85)" paint-order="fill stroke markers" d=" M 1259.610984760488 919.9607134692149 L 1286.610984760488 919.9607134692149 L 1286.610984760488 919.9607134692149 A 8 8 0 0 1 1294.610984760488 927.9607134692149 L 1294.610984760488 946.9607134692149 L 1294.610984760488 946.9607134692149 A 8 8 0 0 1 1286.610984760488 954.9607134692149 L 1232.610984760488 954.9607134692149 L 1232.610984760488 954.9607134692149 A 8 8 0 0 1 1224.610984760488 946.9607134692149 L 1224.610984760488 927.9607134692149 L 1224.610984760488 927.9607134692149 A 8 8 0 0 1 1232.610984760488 919.9607134692149 L 1259.610984760488 919.9607134692149 Z" fill-opacity="0.5" stroke-opacity="1" stroke-miterlimit="10" stroke-width="1.25"/><path fill="rgb(158,202,225)" stroke="rgb(85,85,85)" paint-order="fill stroke markers" d="" fill-opacity="0.5" stroke-opacity="1" stroke-miterlimit="10" stroke-width="1.25"/><text fill="rgb(0,0,0)" stroke="none" font-family="Helvetica" font-size="11px" font-style="normal" font-weight="normal" text-decoration="normal" x="1259.610984760488" y="942.4607134692149" text-anchor="middle" dominant-baseline="text-after-edge" fill-opacity="1">E3(San1)</text><path fill="rgb(198,219,239)" stroke="rgb(85,85,85)" paint-order="fill stroke markers" d=" M 1256.830995277607 841.2500757090799 L 1249.330995277607 848.7500757090799 L 1249.330995277607 863.7500757090799 L 1256.830995277607 871.2500757090799 L 1271.830995277607 871.2500757090799 L 1279.330995277607 863.7500757090799 L 1279.330995277607 848.7500757090799 L 1271.830995277607 841.2500757090799 Z" fill-opacity="0.5" stroke-opacity="1" stroke-miterlimit="10" stroke-width="1.25"/><path fill="rgb(198,219,239)" stroke="rgb(85,85,85)" paint-order="fill stroke markers" d="" fill-opacity="0.5" stroke-opacity="1" stroke-miterlimit="10" stroke-width="1.25"/><text fill="rgb(0,0,0)" stroke="none" font-family="Helvetica" font-size="11px" font-style="normal" font-weight="normal" text-decoration="normal" x="1264.330995277607" y="856.2500757090799" text-anchor="middle" dominant-baseline="text-after-edge" fill-opacity="1">nuclear</text><text fill="rgb(0,0,0)" stroke="none" font-family="Helvetica" font-size="11px" font-style="normal" font-weight="normal" text-decoration="normal" x="1264.330995277607" y="866.7500757090799" text-anchor="middle" dominant-baseline="text-after-edge" fill-opacity="1">proteasome</text><path fill="rgb(255,255,255)" stroke="rgb(85,85,85)" paint-order="fill stroke markers" d=" M 1213.8827296850486 880.2129080682142 L 1213.8441963567127 881.1936467648123 L 1213.7288339424879 882.1683388812171 L 1213.5373536900195 883.1309751164131 L 1213.270936138738 884.0756204979011 L 1212.9312238414398 884.9964509727779 L 1212.5203112374031 885.8877893149586 L 1212.0407317394747 886.7441401271636 L 1211.4954421147354 887.5602237218701 L 1210.887804255049 888.3310086723416 L 1210.2215644498804 889.0517428330461 L 1209.5008302891758 889.7179826382146 L 1208.7300453387045 890.3256204979011 L 1207.913961743998 890.8709101226403 L 1207.0576109317929 891.3504896205689 L 1206.1662725896122 891.7614022246053 L 1205.2454421147354 892.1011145219037 L 1204.3007967332474 892.3675320731852 L 1203.3381604980516 892.5590123256535 L 1202.3634683816467 892.6743747398783 L 1201.3827296850486 892.7129080682142 L 1200.4019909884505 892.6743747398783 L 1199.4272988720456 892.5590123256535 L 1198.4646626368499 892.3675320731852 L 1197.5200172553618 892.1011145219037 L 1196.599186780485 891.7614022246053 L 1195.7078484383044 891.3504896205689 L 1194.8514976260992 890.8709101226403 L 1194.0354140313927 890.3256204979011 L 1193.2646290809214 889.7179826382146 L 1192.5438949202169 889.0517428330461 L 1191.8776551150481 888.3310086723416 L 1191.2700172553618 887.5602237218701 L 1190.7247276306225 886.7441401271636 L 1190.245148132694 885.8877893149586 L 1189.8342355286575 884.9964509727779 L 1189.4945232313592 884.0756204979011 L 1189.2281056800778 883.1309751164131 L 1189.0366254276094 882.1683388812171 L 1188.9212630133845 881.1936467648123 L 1188.8827296850486 880.2129080682142 L 1188.9212630133845 879.2321693716161 L 1189.0366254276094 878.2574772552114 L 1189.2281056800778 877.2948410200154 L 1189.4945232313592 876.3501956385273 L 1189.8342355286575 875.4293651636506 L 1190.245148132694 874.5380268214699 L 1190.7247276306225 873.6816760092648 L 1191.2700172553618 872.8655924145584 L 1191.8776551150481 872.0948074640869 L 1192.5438949202169 871.3740733033824 L 1193.2646290809214 870.7078334982139 L 1194.0354140313927 870.1001956385273 L 1194.8514976260992 869.5549060137881 L 1195.7078484383044 869.0753265158596 L 1196.599186780485 868.6644139118231 L 1197.5200172553618 868.3247016145248 L 1198.4646626368499 868.0582840632433 L 1199.4272988720459 867.866803810775 L 1200.4019909884505 867.7514413965501 L 1201.3827296850486 867.7129080682142 L 1202.3634683816467 867.7514413965501 L 1203.3381604980516 867.866803810775 L 1204.3007967332476 868.0582840632433 L 1205.2454421147356 868.3247016145249 L 1206.1662725896124 868.6644139118232 L 1207.057610931793 869.0753265158596 L 1207.913961743998 869.5549060137881 L 1208.7300453387047 870.1001956385275 L 1209.500830289176 870.7078334982139 L 1210.2215644498806 871.3740733033825 L 1210.887804255049 872.094807464087 L 1211.4954421147356 872.8655924145584 L 1212.0407317394747 873.681676009265 L 1212.5203112374033 874.53802682147 L 1212.9312238414398 875.4293651636507 L 1213.270936138738 876.3501956385276 L 1213.5373536900197 877.2948410200155 L 1213.7288339424879 878.2574772552115 L 1213.8441963567127 879.2321693716164 Z" fill-opacity="0.5" stroke-opacity="1" stroke-miterlimit="10" stroke-width="1.25"/><text fill="rgb(0,0,0)" stroke="none" font-family="Helvetica Neue, Helvetica, sans-serif" font-size="10px" font-style="normal" font-weight="normal" text-decoration="normal" x="1201.3827296850486" y="885.2129080682142" text-anchor="middle" dominant-baseline="text-after-edge" fill-opacity="1">AND</text><path fill="rgb(158,202,225)" stroke="rgb(85,85,85)" paint-order="fill stroke markers" d=" M 412.9436748352499 211.08259220380734 L 439.9436748352499 211.08259220380734 L 439.9436748352499 211.08259220380734 A 8 8 0 0 1 447.9436748352499 219.08259220380734 L 447.9436748352499 238.08259220380734 L 447.9436748352499 238.08259220380734 A 8 8 0 0 1 439.9436748352499 246.08259220380734 L 385.9436748352499 246.08259220380734 L 385.9436748352499 246.08259220380734 A 8 8 0 0 1 377.9436748352499 238.08259220380734 L 377.9436748352499 219.08259220380734 L 377.9436748352499 219.08259220380734 A 8 8 0 0 1 385.9436748352499 211.08259220380734 L 412.9436748352499 211.08259220380734 Z" fill-opacity="0.5" stroke-opacity="1" stroke-miterlimit="10" stroke-width="1.25"/><path fill="rgb(158,202,225)" stroke="rgb(85,85,85)" paint-order="fill stroke markers" d="" fill-opacity="0.5" stroke-opacity="1" stroke-miterlimit="10" stroke-width="1.25"/><text fill="rgb(0,0,0)" stroke="none" font-family="Helvetica" font-size="11px" font-style="normal" font-weight="normal" text-decoration="normal" x="412.9436748352499" y="233.58259220380734" text-anchor="middle" dominant-baseline="text-after-edge" fill-opacity="1">E3</text><path fill="rgb(158,202,225)" stroke="rgb(85,85,85)" paint-order="fill stroke markers" d=" M 61.264019972601275 466.5704090173046 L 88.26401997260128 466.5704090173046 L 88.26401997260128 466.5704090173046 A 8 8 0 0 1 96.26401997260128 474.5704090173046 L 96.26401997260128 493.5704090173046 L 96.26401997260128 493.5704090173046 A 8 8 0 0 1 88.26401997260128 501.5704090173046 L 34.264019972601275 501.5704090173046 L 34.264019972601275 501.5704090173046 A 8 8 0 0 1 26.264019972601275 493.5704090173046 L 26.264019972601275 474.5704090173046 L 26.264019972601275 474.5704090173046 A 8 8 0 0 1 34.264019972601275 466.5704090173046 L 61.264019972601275 466.5704090173046 Z" fill-opacity="0.5" stroke-opacity="1" stroke-miterlimit="10" stroke-width="1.25"/><path fill="rgb(158,202,225)" stroke="rgb(85,85,85)" paint-order="fill stroke markers" d="" fill-opacity="0.5" stroke-opacity="1" stroke-miterlimit="10" stroke-width="1.25"/><text fill="rgb(0,0,0)" stroke="none" font-family="Helvetica" font-size="11px" font-style="normal" font-weight="normal" text-decoration="normal" x="61.264019972601275" y="484.0704090173046" text-anchor="middle" dominant-baseline="text-after-edge" fill-opacity="1">PolyQ</text><text fill="rgb(0,0,0)" stroke="none" font-family="Helvetica" font-size="11px" font-style="normal" font-weight="normal" text-decoration="normal" x="61.264019972601275" y="494.5704090173046" text-anchor="middle" dominant-baseline="text-after-edge" fill-opacity="1">aggregates</text><path fill="rgb(158,202,225)" stroke="rgb(85,85,85)" paint-order="fill stroke markers" d=" M 68.26401997260128 426.3204090173046 L 97.26401997260128 426.3204090173046 L 97.26401997260128 426.3204090173046 A 8 8 0 0 1 105.26401997260128 434.3204090173046 L 105.26401997260128 454.3204090173046 L 105.26401997260128 454.3204090173046 A 8 8 0 0 1 97.26401997260128 462.3204090173046 L 39.264019972601275 462.3204090173046 L 39.264019972601275 462.3204090173046 A 8 8 0 0 1 31.264019972601275 454.3204090173046 L 31.264019972601275 434.3204090173046 L 31.264019972601275 434.3204090173046 A 8 8 0 0 1 39.264019972601275 426.3204090173046 L 68.26401997260128 426.3204090173046 Z" fill-opacity="0.5" stroke-opacity="1" stroke-miterlimit="10" stroke-width="1.25"/><path fill="rgb(158,202,225)" stroke="rgb(85,85,85)" paint-order="fill stroke markers" d=" M 63.264019972601275 421.3204090173046 L 92.26401997260128 421.3204090173046 L 92.26401997260128 421.3204090173046 A 8 8 0 0 1 100.26401997260128 429.3204090173046 L 100.26401997260128 449.3204090173046 L 100.26401997260128 449.3204090173046 A 8 8 0 0 1 92.26401997260128 457.3204090173046 L 34.264019972601275 457.3204090173046 L 34.264019972601275 457.3204090173046 A 8 8 0 0 1 26.264019972601275 449.3204090173046 L 26.264019972601275 429.3204090173046 L 26.264019972601275 429.3204090173046 A 8 8 0 0 1 34.264019972601275 421.3204090173046 L 63.264019972601275 421.3204090173046 Z" fill-opacity="0.5" stroke-opacity="1" stroke-miterlimit="10" stroke-width="1.25"/><path fill="#ffffff" stroke="rgb(85,85,85)" paint-order="fill stroke markers" d=" M 36.26401997260128 413.3204090173046 L 36.264019972601275 429.3204090173046 L 67.26401997260126 429.3204090173046 L 67.26401997260128 413.3204090173046 Z" stroke-opacity="1" stroke-miterlimit="10" stroke-width="1.25"/><text fill="#0f0f0f" stroke="none" font-family="Arial" font-size="9px" font-style="normal" font-weight="normal" text-decoration="normal" x="51.764019972601275" y="421.3204090173046" text-anchor="middle" dominant-baseline="central">N:2</text><path fill="rgb(158,202,225)" stroke="rgb(85,85,85)" paint-order="fill stroke markers" d="" fill-opacity="0.5" stroke-opacity="1" stroke-miterlimit="10" stroke-width="1.25"/><text fill="rgb(0,0,0)" stroke="none" font-family="Helvetica" font-size="11px" font-style="normal" font-weight="normal" text-decoration="normal" x="63.264019972601275" y="444.3204090173046" text-anchor="middle" dominant-baseline="text-after-edge" fill-opacity="1">Sis1</text><path fill="rgb(158,202,225)" stroke="rgb(85,85,85)" paint-order="fill stroke markers" d=" M 598.4611095403576 667.1170821402599 L 625.4611095403576 667.1170821402599 L 625.4611095403576 667.1170821402599 A 8 8 0 0 1 633.4611095403576 675.1170821402599 L 633.4611095403576 694.1170821402599 L 633.4611095403576 694.1170821402599 A 8 8 0 0 1 625.4611095403576 702.1170821402599 L 571.4611095403576 702.1170821402599 L 571.4611095403576 702.1170821402599 A 8 8 0 0 1 563.4611095403576 694.1170821402599 L 563.4611095403576 675.1170821402599 L 563.4611095403576 675.1170821402599 A 8 8 0 0 1 571.4611095403576 667.1170821402599 L 598.4611095403576 667.1170821402599 Z" fill-opacity="0.5" stroke-opacity="1" stroke-miterlimit="10" stroke-width="1.25"/><path fill="rgb(158,202,225)" stroke="rgb(85,85,85)" paint-order="fill stroke markers" d="" fill-opacity="0.5" stroke-opacity="1" stroke-miterlimit="10" stroke-width="1.25"/><text fill="rgb(0,0,0)" stroke="none" font-family="Helvetica" font-size="11px" font-style="normal" font-weight="normal" text-decoration="normal" x="598.4611095403576" y="689.6170821402599" text-anchor="middle" dominant-baseline="text-after-edge" fill-opacity="1">importin</text><path fill="rgb(158,202,225)" stroke="rgb(85,85,85)" paint-order="fill stroke markers" d=" M 911.5295238561658 475.06329291825836 L 938.5295238561658 475.06329291825836 L 938.5295238561658 475.06329291825836 A 8 8 0 0 1 946.5295238561658 483.06329291825836 L 946.5295238561658 502.06329291825836 L 946.5295238561658 502.06329291825836 A 8 8 0 0 1 938.5295238561658 510.06329291825836 L 884.5295238561658 510.06329291825836 L 884.5295238561658 510.06329291825836 A 8 8 0 0 1 876.5295238561658 502.06329291825836 L 876.5295238561658 483.06329291825836 L 876.5295238561658 483.06329291825836 A 8 8 0 0 1 884.5295238561658 475.06329291825836 L 911.5295238561658 475.06329291825836 Z" fill-opacity="0.5" stroke-opacity="1" stroke-miterlimit="10" stroke-width="1.25"/><path fill="rgb(158,202,225)" stroke="rgb(85,85,85)" paint-order="fill stroke markers" d="" fill-opacity="0.5" stroke-opacity="1" stroke-miterlimit="10" stroke-width="1.25"/><text fill="rgb(0,0,0)" stroke="none" font-family="Helvetica" font-size="11px" font-style="normal" font-weight="normal" text-decoration="normal" x="911.5295238561658" y="497.56329291825836" text-anchor="middle" dominant-baseline="text-after-edge" fill-opacity="1">Hsp70</text><path fill="rgb(158,202,225)" stroke="rgb(85,85,85)" paint-order="fill stroke markers" d=" M 1235.283353591741 523.2905688195884 L 1264.283353591741 523.2905688195884 L 1264.283353591741 523.2905688195884 A 8 8 0 0 1 1272.283353591741 531.2905688195884 L 1272.283353591741 551.2905688195884 L 1272.283353591741 551.2905688195884 A 8 8 0 0 1 1264.283353591741 559.2905688195884 L 1206.283353591741 559.2905688195884 L 1206.283353591741 559.2905688195884 A 8 8 0 0 1 1198.283353591741 551.2905688195884 L 1198.283353591741 531.2905688195884 L 1198.283353591741 531.2905688195884 A 8 8 0 0 1 1206.283353591741 523.2905688195884 L 1235.283353591741 523.2905688195884 Z" fill-opacity="0.5" stroke-opacity="1" stroke-miterlimit="10" stroke-width="1.25"/><path fill="#a9a9a9" stroke="none" paint-order="stroke fill markers" d=" M 1198.283353591741 550.2905688195884 L 1272.283353591741 550.2905688195884 L 1272.283353591741 554.7905688195884 L 1272.283353591741 551.2905688195884 L 1272.283353591741 551.2905688195884 A 8 8 0 0 1 1264.283353591741 559.2905688195884 L 1206.283353591741 559.2905688195884 L 1206.283353591741 559.2905688195884 A 8 8 0 0 1 1198.283353591741 551.2905688195884 L 1198.283353591741 550.2905688195884 Z" fill-opacity="0.5"/><path fill="rgb(158,202,225)" stroke="rgb(85,85,85)" paint-order="fill stroke markers" d=" M 1230.283353591741 518.2905688195884 L 1259.283353591741 518.2905688195884 L 1259.283353591741 518.2905688195884 A 8 8 0 0 1 1267.283353591741 526.2905688195884 L 1267.283353591741 546.2905688195884 L 1267.283353591741 546.2905688195884 A 8 8 0 0 1 1259.283353591741 554.2905688195884 L 1201.283353591741 554.2905688195884 L 1201.283353591741 554.2905688195884 A 8 8 0 0 1 1193.283353591741 546.2905688195884 L 1193.283353591741 526.2905688195884 L 1193.283353591741 526.2905688195884 A 8 8 0 0 1 1201.283353591741 518.2905688195884 L 1230.283353591741 518.2905688195884 Z" fill-opacity="0.5" stroke-opacity="1" stroke-miterlimit="10" stroke-width="1.25"/><path fill="#a9a9a9" stroke="none" paint-order="stroke fill markers" d=" M 1193.283353591741 545.2905688195884 L 1267.283353591741 545.2905688195884 L 1267.283353591741 549.7905688195884 L 1267.283353591741 546.2905688195884 L 1267.283353591741 546.2905688195884 A 8 8 0 0 1 1259.283353591741 554.2905688195884 L 1201.283353591741 554.2905688195884 L 1201.283353591741 554.2905688195884 A 8 8 0 0 1 1193.283353591741 546.2905688195884 L 1193.283353591741 545.2905688195884 Z" fill-opacity="0.5"/><path fill="#ffffff" stroke="rgb(85,85,85)" paint-order="fill stroke markers" d=" M 1203.283353591741 510.29056881958843 L 1203.283353591741 526.2905688195884 L 1234.283353591741 526.2905688195884 L 1234.283353591741 510.29056881958843 Z" stroke-opacity="1" stroke-miterlimit="10" stroke-width="1.25"/><text fill="#0f0f0f" stroke="none" font-family="Arial" font-size="9px" font-style="normal" font-weight="normal" text-decoration="normal" x="1218.783353591741" y="518.2905688195884" text-anchor="middle" dominant-baseline="central">N:2</text><path fill="rgb(158,202,225)" stroke="rgb(85,85,85)" paint-order="fill stroke markers" d="" fill-opacity="0.5" stroke-opacity="1" stroke-miterlimit="10" stroke-width="1.25"/><text fill="rgb(0,0,0)" stroke="none" font-family="Helvetica" font-size="11px" font-style="normal" font-weight="normal" text-decoration="normal" x="1230.283353591741" y="541.2905688195884" text-anchor="middle" dominant-baseline="text-after-edge" fill-opacity="1">Sis1</text><path fill="rgb(158,202,225)" stroke="rgb(85,85,85)" paint-order="fill stroke markers" d=" M 170.9410077415888 356.6109333438121 L 197.9410077415888 356.6109333438121 L 197.9410077415888 356.6109333438121 A 8 8 0 0 1 205.9410077415888 364.6109333438121 L 205.9410077415888 383.6109333438121 L 205.9410077415888 383.6109333438121 A 8 8 0 0 1 197.9410077415888 391.6109333438121 L 143.9410077415888 391.6109333438121 L 143.9410077415888 391.6109333438121 A 8 8 0 0 1 135.9410077415888 383.6109333438121 L 135.9410077415888 364.6109333438121 L 135.9410077415888 364.6109333438121 A 8 8 0 0 1 143.9410077415888 356.6109333438121 L 170.9410077415888 356.6109333438121 Z" fill-opacity="0.5" stroke-opacity="1" stroke-miterlimit="10" stroke-width="1.25"/><path fill="rgb(158,202,225)" stroke="rgb(85,85,85)" paint-order="fill stroke markers" d="" fill-opacity="0.5" stroke-opacity="1" stroke-miterlimit="10" stroke-width="1.25"/><text fill="rgb(0,0,0)" stroke="none" font-family="Helvetica" font-size="11px" font-style="normal" font-weight="normal" text-decoration="normal" x="170.9410077415888" y="374.1109333438121" text-anchor="middle" dominant-baseline="text-after-edge" fill-opacity="1">PolyQ</text><text fill="rgb(0,0,0)" stroke="none" font-family="Helvetica" font-size="11px" font-style="normal" font-weight="normal" text-decoration="normal" x="170.9410077415888" y="384.6109333438121" text-anchor="middle" dominant-baseline="text-after-edge" fill-opacity="1">aggregates</text><path fill="rgb(112,112,112)" stroke="rgb(85,85,85)" paint-order="fill stroke markers" d=" M 183.46721719170318 437.1893045222753 L 183.44409719470164 437.77774774023413 L 183.37487974616673 438.362563010077 L 183.25999159468577 438.94014475119457 L 183.10014106391682 439.50693198008736 L 182.89631368553785 440.0594302650135 L 182.64976612311594 440.59423327032187 L 182.36201842435887 441.1080437576449 L 182.0348446495153 441.59769391446883 L 181.67026193370342 442.06016488475166 L 181.27051805060228 442.49260538117437 L 180.83807755417956 442.89234926427554 L 180.37560658389674 443.25693198008736 L 179.8859564270728 443.584105754931 L 179.3721459397498 443.87185345368806 L 178.83734293444135 444.11840101610994 L 178.2848446495153 444.32222839448895 L 177.71805742062247 444.48207892525784 L 177.1404756795049 444.5969670767388 L 176.555660409662 444.66618452527376 L 175.96721719170318 444.6893045222753 L 175.37877397374436 444.66618452527376 L 174.79395870390147 444.5969670767388 L 174.2163769627839 444.48207892525784 L 173.64958973389108 444.32222839448895 L 173.09709144896502 444.11840101610994 L 172.5622884436566 443.87185345368806 L 172.04847795633356 443.584105754931 L 171.55882779950963 443.25693198008736 L 171.0963568292268 442.89234926427554 L 170.6639163328041 442.49260538117437 L 170.26417244970295 442.06016488475166 L 169.89958973389108 441.59769391446883 L 169.5724159590475 441.1080437576449 L 169.28466826029043 440.59423327032187 L 169.03812069786852 440.0594302650135 L 168.83429331948955 439.50693198008736 L 168.6744427887206 438.94014475119457 L 168.55955463723964 438.362563010077 L 168.49033718870473 437.77774774023413 L 168.46721719170318 437.1893045222753 L 168.49033718870473 436.6008613043164 L 168.55955463723964 436.01604603447356 L 168.6744427887206 435.438464293356 L 168.83429331948952 434.8716770644632 L 169.03812069786852 434.3191787795371 L 169.28466826029043 433.7843757742287 L 169.5724159590475 433.27056528690565 L 169.89958973389108 432.7809151300817 L 170.26417244970295 432.3184441597989 L 170.66391633280406 431.8860036633762 L 171.0963568292268 431.4862597802751 L 171.55882779950963 431.1216770644632 L 172.04847795633356 430.79450328961957 L 172.5622884436566 430.5067555908625 L 173.09709144896502 430.2602080284406 L 173.64958973389108 430.0563806500616 L 174.2163769627839 429.8965301192927 L 174.79395870390147 429.78164196781177 L 175.37877397374436 429.7124245192768 L 175.9672171917032 429.6893045222753 L 176.55566040966204 429.7124245192768 L 177.14047567950496 429.78164196781177 L 177.7180574206225 429.8965301192927 L 178.28484464951532 430.0563806500616 L 178.8373429344414 430.2602080284406 L 179.37214593974983 430.50675559086255 L 179.88595642707284 430.7945032896196 L 180.37560658389677 431.1216770644632 L 180.8380775541796 431.4862597802751 L 181.27051805060233 431.8860036633762 L 181.67026193370344 432.31844415979896 L 182.03484464951532 432.7809151300818 L 182.36201842435892 433.2705652869057 L 182.64976612311597 433.78437577422875 L 182.89631368553788 434.3191787795372 L 183.10014106391685 434.87167706446326 L 183.25999159468577 435.43846429335605 L 183.37487974616673 436.0160460344736 L 183.44409719470164 436.60086130431654 Z" fill-opacity="0.5" stroke-opacity="1" stroke-miterlimit="10" stroke-width="1.25"/><path fill="rgb(158,202,225)" stroke="rgb(85,85,85)" paint-order="fill stroke markers" d=" M 265.9231779281676 448.33322832123616 L 294.9231779281676 448.33322832123616 L 294.9231779281676 448.33322832123616 A 8 8 0 0 1 302.9231779281676 456.33322832123616 L 302.9231779281676 476.33322832123616 L 302.9231779281676 476.33322832123616 A 8 8 0 0 1 294.9231779281676 484.33322832123616 L 236.9231779281676 484.33322832123616 L 236.9231779281676 484.33322832123616 A 8 8 0 0 1 228.9231779281676 476.33322832123616 L 228.9231779281676 456.33322832123616 L 228.9231779281676 456.33322832123616 A 8 8 0 0 1 236.9231779281676 448.33322832123616 L 265.9231779281676 448.33322832123616 Z" fill-opacity="0.5" stroke-opacity="1" stroke-miterlimit="10" stroke-width="1.25"/><path fill="#a9a9a9" stroke="none" paint-order="stroke fill markers" d=" M 228.9231779281676 475.33322832123616 L 302.9231779281676 475.33322832123616 L 302.9231779281676 479.83322832123616 L 302.9231779281676 476.33322832123616 L 302.9231779281676 476.33322832123616 A 8 8 0 0 1 294.9231779281676 484.33322832123616 L 236.9231779281676 484.33322832123616 L 236.9231779281676 484.33322832123616 A 8 8 0 0 1 228.9231779281676 476.33322832123616 L 228.9231779281676 475.33322832123616 Z" fill-opacity="0.5"/><path fill="rgb(158,202,225)" stroke="rgb(85,85,85)" paint-order="fill stroke markers" d=" M 260.9231779281676 443.33322832123616 L 289.9231779281676 443.33322832123616 L 289.9231779281676 443.33322832123616 A 8 8 0 0 1 297.9231779281676 451.33322832123616 L 297.9231779281676 471.33322832123616 L 297.9231779281676 471.33322832123616 A 8 8 0 0 1 289.9231779281676 479.33322832123616 L 231.9231779281676 479.33322832123616 L 231.9231779281676 479.33322832123616 A 8 8 0 0 1 223.9231779281676 471.33322832123616 L 223.9231779281676 451.33322832123616 L 223.9231779281676 451.33322832123616 A 8 8 0 0 1 231.9231779281676 443.33322832123616 L 260.9231779281676 443.33322832123616 Z" fill-opacity="0.5" stroke-opacity="1" stroke-miterlimit="10" stroke-width="1.25"/><path fill="#a9a9a9" stroke="none" paint-order="stroke fill markers" d=" M 223.9231779281676 470.33322832123616 L 297.9231779281676 470.33322832123616 L 297.9231779281676 474.83322832123616 L 297.9231779281676 471.33322832123616 L 297.9231779281676 471.33322832123616 A 8 8 0 0 1 289.9231779281676 479.33322832123616 L 231.9231779281676 479.33322832123616 L 231.9231779281676 479.33322832123616 A 8 8 0 0 1 223.9231779281676 471.33322832123616 L 223.9231779281676 470.33322832123616 Z" fill-opacity="0.5"/><path fill="#ffffff" stroke="rgb(85,85,85)" paint-order="fill stroke markers" d=" M 233.9231779281676 435.33322832123616 L 233.9231779281676 451.33322832123616 L 264.9231779281676 451.33322832123616 L 264.9231779281676 435.33322832123616 Z" stroke-opacity="1" stroke-miterlimit="10" stroke-width="1.25"/><text fill="#0f0f0f" stroke="none" font-family="Arial" font-size="9px" font-style="normal" font-weight="normal" text-decoration="normal" x="249.4231779281676" y="443.33322832123616" text-anchor="middle" dominant-baseline="central">N:2</text><path fill="rgb(158,202,225)" stroke="rgb(85,85,85)" paint-order="fill stroke markers" d="" fill-opacity="0.5" stroke-opacity="1" stroke-miterlimit="10" stroke-width="1.25"/><text fill="rgb(0,0,0)" stroke="none" font-family="Helvetica" font-size="11px" font-style="normal" font-weight="normal" text-decoration="normal" x="260.9231779281676" y="466.33322832123616" text-anchor="middle" dominant-baseline="text-after-edge" fill-opacity="1">Sis1</text><path fill="rgb(112,112,112)" stroke="rgb(85,85,85)" paint-order="fill stroke markers" d=" M 356.4528073903657 457.80555206200694 L 356.4296873933642 458.3939952799658 L 356.3604699448292 458.97881054980866 L 356.24558179334826 459.5563922909262 L 356.0857312625794 460.123179519819 L 355.88190388420037 460.67567780474513 L 355.6353563217785 461.2104808100535 L 355.3476086230214 461.72429129737657 L 355.0204348481778 462.2139414542005 L 354.65585213236596 462.6764124244833 L 354.2561082492648 463.10885292090603 L 353.8236677528421 463.5085968040072 L 353.36119678255926 463.873179519819 L 352.87154662573533 464.20035329466265 L 352.3577361384123 464.4881009934197 L 351.8229331331039 464.7346485558416 L 351.2704348481778 464.9384759342206 L 350.703647619285 465.0983264649895 L 350.1260658781674 465.21321461647045 L 349.54125060832456 465.2824320650054 L 348.9528073903657 465.30555206200694 L 348.36436417240685 465.2824320650054 L 347.779548902564 465.21321461647045 L 347.2019671614464 465.0983264649895 L 346.6351799325536 464.9384759342206 L 346.0826816476275 464.7346485558416 L 345.5478786423191 464.4881009934197 L 345.0340681549961 464.20035329466265 L 344.54441799817215 463.873179519819 L 344.0819470278893 463.5085968040072 L 343.6495065314666 463.10885292090603 L 343.24976264836545 462.6764124244833 L 342.8851799325536 462.2139414542005 L 342.55800615771 461.72429129737657 L 342.2702584589529 461.2104808100535 L 342.02371089653104 460.67567780474513 L 341.81988351815204 460.123179519819 L 341.66003298738315 459.5563922909262 L 341.5451448359022 458.97881054980866 L 341.4759273873672 458.3939952799658 L 341.4528073903657 457.80555206200694 L 341.4759273873672 457.2171088440481 L 341.5451448359022 456.6322935742052 L 341.66003298738315 456.05471183308765 L 341.81988351815204 455.48792460419486 L 342.02371089653104 454.93542631926874 L 342.2702584589529 454.40062331396035 L 342.55800615771 453.8868128266373 L 342.8851799325536 453.3971626698134 L 343.24976264836545 452.93469169953056 L 343.6495065314666 452.50225120310785 L 344.0819470278893 452.10250732000674 L 344.54441799817215 451.73792460419486 L 345.0340681549961 451.41075082935123 L 345.5478786423191 451.12300313059416 L 346.08268164762757 450.8764555681723 L 346.6351799325536 450.6726281897933 L 347.2019671614464 450.5127776590244 L 347.779548902564 450.3978895075434 L 348.3643641724069 450.32867205900845 L 348.9528073903657 450.30555206200694 L 349.54125060832456 450.32867205900845 L 350.1260658781675 450.3978895075434 L 350.70364761928505 450.5127776590244 L 351.27043484817784 450.6726281897933 L 351.8229331331039 450.87645556817233 L 352.35773613841235 451.1230031305942 L 352.8715466257354 451.4107508293513 L 353.3611967825593 451.73792460419486 L 353.82366775284214 452.10250732000674 L 354.25610824926486 452.50225120310785 L 354.65585213236596 452.9346916995306 L 355.02043484817784 453.39716266981344 L 355.3476086230214 453.88681282663737 L 355.6353563217785 454.4006233139604 L 355.88190388420037 454.93542631926886 L 356.0857312625794 455.4879246041949 L 356.2455817933483 456.0547118330877 L 356.3604699448293 456.6322935742053 L 356.4296873933642 457.2171088440482 Z" fill-opacity="0.5" stroke-opacity="1" stroke-miterlimit="10" stroke-width="1.25"/><path fill="rgb(158,202,225)" stroke="rgb(85,85,85)" paint-order="fill stroke markers" d=" M 500.06617276650206 235.02325484465618 L 500.06617276650206 235.02325484465618 L 500.06617276650206 235.02325484465618 A 20 20 0 0 1 520.0661727665021 255.02325484465618 L 520.0661727665021 255.0232548446562 L 520.0661727665021 255.0232548446562 A 20 20 0 0 1 500.06617276650206 275.0232548446562 L 500.06617276650206 275.0232548446562 L 500.06617276650206 275.0232548446562 A 20 20 0 0 1 480.06617276650206 255.0232548446562 L 480.06617276650206 255.02325484465618 L 480.06617276650206 255.02325484465618 A 20 20 0 0 1 500.06617276650206 235.02325484465618 L 500.06617276650206 235.02325484465618 Z" fill-opacity="0.5" stroke-opacity="1" stroke-miterlimit="10" stroke-width="1.25"/><path fill="rgb(158,202,225)" stroke="rgb(85,85,85)" paint-order="fill stroke markers" d="" fill-opacity="0.5" stroke-opacity="1" stroke-miterlimit="10" stroke-width="1.25"/><text fill="rgb(0,0,0)" stroke="none" font-family="Helvetica" font-size="11px" font-style="normal" font-weight="normal" text-decoration="normal" x="500.06617276650206" y="260.0232548446562" text-anchor="middle" dominant-baseline="text-after-edge" fill-opacity="1">Ub</text><path fill="rgb(158,202,225)" stroke="rgb(85,85,85)" paint-order="fill stroke markers" d=" M 518.3514784193783 323.6175978186027 L 545.3514784193783 323.6175978186027 L 545.3514784193783 323.6175978186027 A 8 8 0 0 1 553.3514784193783 331.6175978186027 L 553.3514784193783 350.6175978186027 L 553.3514784193783 350.6175978186027 A 8 8 0 0 1 545.3514784193783 358.6175978186027 L 491.3514784193783 358.6175978186027 L 491.3514784193783 358.6175978186027 A 8 8 0 0 1 483.3514784193783 350.6175978186027 L 483.3514784193783 331.6175978186027 L 483.3514784193783 331.6175978186027 A 8 8 0 0 1 491.3514784193783 323.6175978186027 L 518.3514784193783 323.6175978186027 Z" fill-opacity="0.5" stroke-opacity="1" stroke-miterlimit="10" stroke-width="1.25"/><path fill="#ffffff" stroke="rgb(85,85,85)" paint-order="fill stroke markers" d=" M 503.3514784193783 313.6175978186027 L 503.3514784193783 313.6175978186027 L 503.3514784193783 313.6175978186027 A 10 10 0 0 1 513.3514784193783 323.6175978186027 L 513.3514784193783 323.6175978186027 L 513.3514784193783 323.6175978186027 A 10 10 0 0 1 503.3514784193783 333.6175978186027 L 503.3514784193783 333.6175978186027 L 503.3514784193783 333.6175978186027 A 10 10 0 0 1 493.3514784193783 323.6175978186027 L 493.3514784193783 323.6175978186027 L 493.3514784193783 323.6175978186027 A 10 10 0 0 1 503.3514784193783 313.6175978186027 L 503.3514784193783 313.6175978186027 Z" stroke-opacity="1" stroke-miterlimit="10" stroke-width="1.25"/><path fill="rgb(158,202,225)" stroke="rgb(85,85,85)" paint-order="fill stroke markers" d="" fill-opacity="0.5" stroke-opacity="1" stroke-miterlimit="10" stroke-width="1.25"/><text fill="rgb(0,0,0)" stroke="none" font-family="Helvetica" font-size="11px" font-style="normal" font-weight="normal" text-decoration="normal" x="518.3514784193783" y="341.1175978186027" text-anchor="middle" dominant-baseline="text-after-edge" fill-opacity="1">misfolded</text><text fill="rgb(0,0,0)" stroke="none" font-family="Helvetica" font-size="11px" font-style="normal" font-weight="normal" text-decoration="normal" x="518.3514784193783" y="351.6175978186027" text-anchor="middle" dominant-baseline="text-after-edge" fill-opacity="1">protein</text><path fill="rgb(158,202,225)" stroke="rgb(85,85,85)" paint-order="fill stroke markers" d=" M 518.3514784193783 367.8675978186027 L 545.3514784193783 367.8675978186027 L 545.3514784193783 367.8675978186027 A 8 8 0 0 1 553.3514784193783 375.8675978186027 L 553.3514784193783 394.8675978186027 L 553.3514784193783 394.8675978186027 A 8 8 0 0 1 545.3514784193783 402.8675978186027 L 491.3514784193783 402.8675978186027 L 491.3514784193783 402.8675978186027 A 8 8 0 0 1 483.3514784193783 394.8675978186027 L 483.3514784193783 375.8675978186027 L 483.3514784193783 375.8675978186027 A 8 8 0 0 1 491.3514784193783 367.8675978186027 L 518.3514784193783 367.8675978186027 Z" fill-opacity="0.5" stroke-opacity="1" stroke-miterlimit="10" stroke-width="1.25"/><path fill="rgb(158,202,225)" stroke="rgb(85,85,85)" paint-order="fill stroke markers" d="" fill-opacity="0.5" stroke-opacity="1" stroke-miterlimit="10" stroke-width="1.25"/><text fill="rgb(0,0,0)" stroke="none" font-family="Helvetica" font-size="11px" font-style="normal" font-weight="normal" text-decoration="normal" x="518.3514784193783" y="390.3675978186027" text-anchor="middle" dominant-baseline="text-after-edge" fill-opacity="1">Hsp70</text><path fill="rgb(255,255,255)" stroke="rgb(85,85,85)" paint-order="fill stroke markers" d=" M 430.75292234154136 280.6672136029804 L 430.75292234154136 295.6672136029804 L 445.75292234154136 295.6672136029804 L 445.75292234154136 280.6672136029804 Z" fill-opacity="0.5" stroke-opacity="1" stroke-miterlimit="10" stroke-width="1.25"/><path fill="rgb(158,202,225)" stroke="rgb(85,85,85)" paint-order="fill stroke markers" d=" M 433.1029130996497 545.0138433989553 L 460.1029130996497 545.0138433989553 L 460.1029130996497 545.0138433989553 A 8 8 0 0 1 468.1029130996497 553.0138433989553 L 468.1029130996497 572.0138433989553 L 468.1029130996497 572.0138433989553 A 8 8 0 0 1 460.1029130996497 580.0138433989553 L 406.1029130996497 580.0138433989553 L 406.1029130996497 580.0138433989553 A 8 8 0 0 1 398.1029130996497 572.0138433989553 L 398.1029130996497 553.0138433989553 L 398.1029130996497 553.0138433989553 A 8 8 0 0 1 406.1029130996497 545.0138433989553 L 433.1029130996497 545.0138433989553 Z" fill-opacity="0.5" stroke-opacity="1" stroke-miterlimit="10" stroke-width="1.25"/><path fill="rgb(158,202,225)" stroke="rgb(85,85,85)" paint-order="fill stroke markers" d="" fill-opacity="0.5" stroke-opacity="1" stroke-miterlimit="10" stroke-width="1.25"/><text fill="rgb(0,0,0)" stroke="none" font-family="Helvetica" font-size="11px" font-style="normal" font-weight="normal" text-decoration="normal" x="433.1029130996497" y="567.5138433989553" text-anchor="middle" dominant-baseline="text-after-edge" fill-opacity="1">Hsp70</text><path fill="rgb(158,202,225)" stroke="rgb(85,85,85)" paint-order="fill stroke markers" d=" M 512.3529130996496 545.0138433989553 L 539.3529130996496 545.0138433989553 L 539.3529130996496 545.0138433989553 A 8 8 0 0 1 547.3529130996496 553.0138433989553 L 547.3529130996496 572.0138433989553 L 547.3529130996496 572.0138433989553 A 8 8 0 0 1 539.3529130996496 580.0138433989553 L 485.35291309964964 580.0138433989553 L 485.35291309964964 580.0138433989553 A 8 8 0 0 1 477.35291309964964 572.0138433989553 L 477.35291309964964 553.0138433989553 L 477.35291309964964 553.0138433989553 A 8 8 0 0 1 485.35291309964964 545.0138433989553 L 512.3529130996496 545.0138433989553 Z" fill-opacity="0.5" stroke-opacity="1" stroke-miterlimit="10" stroke-width="1.25"/><path fill="rgb(158,202,225)" stroke="rgb(85,85,85)" paint-order="fill stroke markers" d="" fill-opacity="0.5" stroke-opacity="1" stroke-miterlimit="10" stroke-width="1.25"/><text fill="rgb(0,0,0)" stroke="none" font-family="Helvetica" font-size="11px" font-style="normal" font-weight="normal" text-decoration="normal" x="512.3529130996496" y="562.5138433989553" text-anchor="middle" dominant-baseline="text-after-edge" fill-opacity="1">misfolded</text><text fill="rgb(0,0,0)" stroke="none" font-family="Helvetica" font-size="11px" font-style="normal" font-weight="normal" text-decoration="normal" x="512.3529130996496" y="573.0138433989553" text-anchor="middle" dominant-baseline="text-after-edge" fill-opacity="1">protein</text><path fill="rgb(158,202,225)" stroke="rgb(85,85,85)" paint-order="fill stroke markers" d=" M 440.1029130996497 504.76384339895526 L 469.1029130996497 504.76384339895526 L 469.1029130996497 504.76384339895526 A 8 8 0 0 1 477.1029130996497 512.7638433989553 L 477.1029130996497 532.7638433989553 L 477.1029130996497 532.7638433989553 A 8 8 0 0 1 469.1029130996497 540.7638433989553 L 411.1029130996497 540.7638433989553 L 411.1029130996497 540.7638433989553 A 8 8 0 0 1 403.1029130996497 532.7638433989553 L 403.1029130996497 512.7638433989553 L 403.1029130996497 512.7638433989553 A 8 8 0 0 1 411.1029130996497 504.76384339895526 L 440.1029130996497 504.76384339895526 Z" fill-opacity="0.5" stroke-opacity="1" stroke-miterlimit="10" stroke-width="1.25"/><path fill="rgb(158,202,225)" stroke="rgb(85,85,85)" paint-order="fill stroke markers" d=" M 435.1029130996497 499.76384339895526 L 464.1029130996497 499.76384339895526 L 464.1029130996497 499.76384339895526 A 8 8 0 0 1 472.1029130996497 507.76384339895526 L 472.1029130996497 527.7638433989553 L 472.1029130996497 527.7638433989553 A 8 8 0 0 1 464.1029130996497 535.7638433989553 L 406.1029130996497 535.7638433989553 L 406.1029130996497 535.7638433989553 A 8 8 0 0 1 398.1029130996497 527.7638433989553 L 398.1029130996497 507.76384339895526 L 398.1029130996497 507.76384339895526 A 8 8 0 0 1 406.1029130996497 499.76384339895526 L 435.1029130996497 499.76384339895526 Z" fill-opacity="0.5" stroke-opacity="1" stroke-miterlimit="10" stroke-width="1.25"/><path fill="#ffffff" stroke="rgb(85,85,85)" paint-order="fill stroke markers" d=" M 408.1029130996497 491.76384339895526 L 408.1029130996497 507.76384339895526 L 439.1029130996497 507.76384339895526 L 439.1029130996497 491.76384339895526 Z" stroke-opacity="1" stroke-miterlimit="10" stroke-width="1.25"/><text fill="#0f0f0f" stroke="none" font-family="Arial" font-size="9px" font-style="normal" font-weight="normal" text-decoration="normal" x="423.6029130996497" y="499.76384339895526" text-anchor="middle" dominant-baseline="central">N:2</text><path fill="rgb(158,202,225)" stroke="rgb(85,85,85)" paint-order="fill stroke markers" d="" fill-opacity="0.5" stroke-opacity="1" stroke-miterlimit="10" stroke-width="1.25"/><text fill="rgb(0,0,0)" stroke="none" font-family="Helvetica" font-size="11px" font-style="normal" font-weight="normal" text-decoration="normal" x="435.1029130996497" y="522.7638433989553" text-anchor="middle" dominant-baseline="text-after-edge" fill-opacity="1">Sis1</text><path fill="rgb(255,255,255)" stroke="rgb(85,85,85)" paint-order="fill stroke markers" d=" M 618.0012880921402 619.6772181646461 L 618.0012880921402 634.6772181646461 L 633.0012880921402 634.6772181646461 L 633.0012880921402 619.6772181646461 Z" fill-opacity="0.5" stroke-opacity="1" stroke-miterlimit="10" stroke-width="1.25"/><path fill="rgb(255,255,255)" stroke="rgb(85,85,85)" paint-order="fill stroke markers" d=" M 302.4891870959859 239.5969349601345 L 302.4891870959859 254.5969349601345 L 317.4891870959859 254.5969349601345 L 317.4891870959859 239.5969349601345 Z" fill-opacity="0.5" stroke-opacity="1" stroke-miterlimit="10" stroke-width="1.25"/><path fill="rgb(198,219,239)" stroke="rgb(85,85,85)" paint-order="fill stroke markers" d=" M 186.3069819738776 226.01814117769504 L 178.8069819738776 233.51814117769504 L 178.8069819738776 248.51814117769504 L 186.3069819738776 256.01814117769504 L 201.3069819738776 256.01814117769504 L 208.8069819738776 248.51814117769504 L 208.8069819738776 233.51814117769504 L 201.3069819738776 226.01814117769504 Z" fill-opacity="0.5" stroke-opacity="1" stroke-miterlimit="10" stroke-width="1.25"/><path fill="rgb(198,219,239)" stroke="rgb(85,85,85)" paint-order="fill stroke markers" d="" fill-opacity="0.5" stroke-opacity="1" stroke-miterlimit="10" stroke-width="1.25"/><text fill="rgb(0,0,0)" stroke="none" font-family="Helvetica" font-size="11px" font-style="normal" font-weight="normal" text-decoration="normal" x="193.8069819738776" y="241.01814117769504" text-anchor="middle" dominant-baseline="text-after-edge" fill-opacity="1">cytosolic</text><text fill="rgb(0,0,0)" stroke="none" font-family="Helvetica" font-size="11px" font-style="normal" font-weight="normal" text-decoration="normal" x="193.8069819738776" y="251.51814117769504" text-anchor="middle" dominant-baseline="text-after-edge" fill-opacity="1">proteasome</text><path fill="rgb(158,202,225)" stroke="rgb(85,85,85)" paint-order="fill stroke markers" d=" M 331.6363266101572 299.03930508511274 L 358.6363266101572 299.03930508511274 L 358.6363266101572 299.03930508511274 A 8 8 0 0 1 366.6363266101572 307.03930508511274 L 366.6363266101572 326.03930508511274 L 366.6363266101572 326.03930508511274 A 8 8 0 0 1 358.6363266101572 334.03930508511274 L 304.6363266101572 334.03930508511274 L 304.6363266101572 334.03930508511274 A 8 8 0 0 1 296.6363266101572 326.03930508511274 L 296.6363266101572 307.03930508511274 L 296.6363266101572 307.03930508511274 A 8 8 0 0 1 304.6363266101572 299.03930508511274 L 331.6363266101572 299.03930508511274 Z" fill-opacity="0.5" stroke-opacity="1" stroke-miterlimit="10" stroke-width="1.25"/><path fill="rgb(158,202,225)" stroke="rgb(85,85,85)" paint-order="fill stroke markers" d="" fill-opacity="0.5" stroke-opacity="1" stroke-miterlimit="10" stroke-width="1.25"/><text fill="rgb(0,0,0)" stroke="none" font-family="Helvetica" font-size="11px" font-style="normal" font-weight="normal" text-decoration="normal" x="331.6363266101572" y="316.53930508511274" text-anchor="middle" dominant-baseline="text-after-edge" fill-opacity="1">misfolded</text><text fill="rgb(0,0,0)" stroke="none" font-family="Helvetica" font-size="11px" font-style="normal" font-weight="normal" text-decoration="normal" x="331.6363266101572" y="327.03930508511274" text-anchor="middle" dominant-baseline="text-after-edge" fill-opacity="1">protein</text><path fill="rgb(158,202,225)" stroke="rgb(85,85,85)" paint-order="fill stroke markers" d=" M 331.6363266101572 343.28930508511274 L 358.6363266101572 343.28930508511274 L 358.6363266101572 343.28930508511274 A 8 8 0 0 1 366.6363266101572 351.28930508511274 L 366.6363266101572 370.28930508511274 L 366.6363266101572 370.28930508511274 A 8 8 0 0 1 358.6363266101572 378.28930508511274 L 304.6363266101572 378.28930508511274 L 304.6363266101572 378.28930508511274 A 8 8 0 0 1 296.6363266101572 370.28930508511274 L 296.6363266101572 351.28930508511274 L 296.6363266101572 351.28930508511274 A 8 8 0 0 1 304.6363266101572 343.28930508511274 L 331.6363266101572 343.28930508511274 Z" fill-opacity="0.5" stroke-opacity="1" stroke-miterlimit="10" stroke-width="1.25"/><path fill="rgb(158,202,225)" stroke="rgb(85,85,85)" paint-order="fill stroke markers" d="" fill-opacity="0.5" stroke-opacity="1" stroke-miterlimit="10" stroke-width="1.25"/><text fill="rgb(0,0,0)" stroke="none" font-family="Helvetica" font-size="11px" font-style="normal" font-weight="normal" text-decoration="normal" x="331.6363266101572" y="365.78930508511274" text-anchor="middle" dominant-baseline="text-after-edge" fill-opacity="1">Hsp70</text><path fill="rgb(255,255,255)" stroke="rgb(85,85,85)" paint-order="fill stroke markers" d=" M 238.37623861516155 276.0244623813064 L 238.37623861516155 291.0244623813064 L 253.37623861516155 291.0244623813064 L 253.37623861516155 276.0244623813064 Z" fill-opacity="0.5" stroke-opacity="1" stroke-miterlimit="10" stroke-width="1.25"/><text fill="rgb(0,0,0)" stroke="none" font-family="Helvetica Neue, Helvetica, sans-serif" font-size="9px" font-style="normal" font-weight="normal" text-decoration="normal" x="245.87623861516155" y="288.0244623813064" text-anchor="middle" dominant-baseline="text-after-edge" fill-opacity="1">?</text><g transform="scale(0.8,0.8) translate(16.267524965751594,12.573258778705707)"/></g></svg>