<?xml version="1.0" encoding="UTF-8" standalone="no"?>
<!-- Generator: Adobe Illustrator 16.0.0, SVG Export Plug-In . SVG Version: 6.00 Build 0)  -->

<svg
   xmlns:dc="http://purl.org/dc/elements/1.1/"
   xmlns:cc="http://creativecommons.org/ns#"
   xmlns:rdf="http://www.w3.org/1999/02/22-rdf-syntax-ns#"
   xmlns:svg="http://www.w3.org/2000/svg"
   xmlns="http://www.w3.org/2000/svg"
   xmlns:sodipodi="http://sodipodi.sourceforge.net/DTD/sodipodi-0.dtd"
   xmlns:inkscape="http://www.inkscape.org/namespaces/inkscape"
   version="1.1"
   id="Capa_1"
   x="0px"
   y="0px"
   width="489.394px"
   height="489.394px"
   viewBox="0 0 489.394 489.394"
   style="enable-background:new 0 0 489.394 489.394;"
   xml:space="preserve"
   sodipodi:docname="back-to-top.svg"
   inkscape:version="0.92.1 r15371"><metadata
     id="metadata41"><rdf:RDF><cc:Work
         rdf:about=""><dc:format>image/svg+xml</dc:format><dc:type
           rdf:resource="http://purl.org/dc/dcmitype/StillImage" /></cc:Work></rdf:RDF></metadata><defs
     id="defs39" /><sodipodi:namedview
     pagecolor="#ffffff"
     bordercolor="#666666"
     borderopacity="1"
     objecttolerance="10"
     gridtolerance="10"
     guidetolerance="10"
     inkscape:pageopacity="0"
     inkscape:pageshadow="2"
     inkscape:window-width="931"
     inkscape:window-height="634"
     id="namedview37"
     showgrid="false"
     inkscape:zoom="0.48222903"
     inkscape:cx="244.69701"
     inkscape:cy="244.69701"
     inkscape:window-x="0"
     inkscape:window-y="0"
     inkscape:window-maximized="0"
     inkscape:current-layer="Capa_1" /><path
     inkscape:connector-curvature="0"
     id="path2"
     d="M 375.789,92.867 H 166.864 l 17.507,-42.795 c 3.724,-9.132 1,-19.574 -6.691,-25.744 -7.701,-6.166 -18.538,-6.508 -26.639,-0.879 L 9.574,121.71 c -6.197,4.304 -9.795,11.457 -9.563,18.995 0.231,7.533 4.261,14.446 10.71,18.359 l 147.925,89.823 c 8.417,5.108 19.18,4.093 26.481,-2.499 7.312,-6.591 9.427,-17.312 5.219,-26.202 l -19.443,-41.132 h 204.886 c 15.119,0 27.418,12.536 27.418,27.654 V 356.56 c 0,15.118 -12.299,27.19 -27.418,27.19 h -226.74 c -20.226,0 -36.623,16.396 -36.623,36.622 v 12.942 c 0,20.228 16.397,36.624 36.623,36.624 h 226.74 c 62.642,0 113.604,-50.732 113.604,-113.379 V 206.709 C 489.395,144.062 438.431,92.867 375.789,92.867 Z"
     style="stroke:#0b9bcd;stroke-opacity:0;fill:#0b9bcd;fill-opacity:1" /><g
     id="g6" /><g
     id="g8" /><g
     id="g10" /><g
     id="g12" /><g
     id="g14" /><g
     id="g16" /><g
     id="g18" /><g
     id="g20" /><g
     id="g22" /><g
     id="g24" /><g
     id="g26" /><g
     id="g28" /><g
     id="g30" /><g
     id="g32" /><g
     id="g34" /></svg>