<svg version="1.1" xmlns="http://www.w3.org/2000/svg" xmlns:xlink="http://www.w3.org/1999/xlink" width="1358.75" height="1110"><defs/><g transform="translate(-120.04752684779369,-12.573258778705707) scale(1.25,1.25)"><path fill="rgb(239,243,255)" stroke="rgb(85,85,85)" paint-order="fill stroke markers" d=" M 244.14392209711468 27.558607022964566 L 244.14392209711468 722.7266175624001 Q 249.14392209711468 737.7266175624001 344.1439220971147 737.7266175624001 L 777.0379311309166 737.7266175624001 Q 872.0379311309166 737.7266175624001 877.0379311309166 722.7266175624001 L 877.0379311309166 27.558607022964566 Q 872.0379311309166 12.558607022964566 777.0379311309166 12.558607022964566 L 344.1439220971147 12.558607022964566 Q 249.14392209711468 12.558607022964566 244.14392209711468 27.558607022964566 Z" fill-opacity="0.5" stroke-opacity="1" stroke-miterlimit="10" stroke-width="3.25"/><path fill="rgb(239,243,255)" stroke="rgb(85,85,85)" paint-order="fill stroke markers" d="" fill-opacity="0.5" stroke-opacity="1" stroke-miterlimit="10" stroke-width="3.25"/><text fill="rgb(0,0,0)" stroke="none" font-family="Helvetica" font-size="14px" font-style="normal" font-weight="normal" text-decoration="normal" x="560.5909266140156" y="737.6016175624001" text-anchor="middle" dominant-baseline="text-after-edge" fill-opacity="1">juxtanuclear inclusion</text><path fill="rgb(239,243,255)" stroke="rgb(85,85,85)" paint-order="fill stroke markers" d=" M 140.41917907759944 162.0831746078291 L 140.41917907759944 879.6865363837992 Q 145.41917907759944 894.6865363837992 240.41917907759944 894.6865363837992 L 1080.064910895297 894.6865363837992 Q 1175.064910895297 894.6865363837992 1180.064910895297 879.6865363837992 L 1180.064910895297 162.0831746078291 Q 1175.064910895297 147.0831746078291 1080.064910895297 147.0831746078291 L 240.41917907759944 147.0831746078291 Q 145.41917907759944 147.0831746078291 140.41917907759944 162.0831746078291 Z" fill-opacity="0.5" stroke-opacity="1" stroke-miterlimit="10" stroke-width="3.25"/><path fill="rgb(239,243,255)" stroke="rgb(85,85,85)" paint-order="fill stroke markers" d="" fill-opacity="0.5" stroke-opacity="1" stroke-miterlimit="10" stroke-width="3.25"/><text fill="rgb(0,0,0)" stroke="none" font-family="Helvetica" font-size="14px" font-style="normal" font-weight="normal" text-decoration="normal" x="660.2420449864483" y="894.5615363837992" text-anchor="middle" dominant-baseline="text-after-edge" fill-opacity="1">nucleus</text><path fill="rgb(198,219,239)" stroke="rgb(85,85,85)" paint-order="fill stroke markers" d=" M 109.66302147823495 370.0764297004348 L 97.66302147823495 382.0764297004348 L 97.66302147823495 609.5436339162088 L 109.66302147823495 621.5436339162088 L 379.79071384681043 621.5436339162088 L 391.79071384681043 609.5436339162088 L 391.79071384681043 382.0764297004348 L 379.79071384681043 370.0764297004348 Z" fill-opacity="0.5" stroke-opacity="1" stroke-miterlimit="10" stroke-width="1.25"/><path fill="rgb(198,219,239)" stroke="rgb(85,85,85)" paint-order="fill stroke markers" d="" fill-opacity="0.5" stroke-opacity="1" stroke-miterlimit="10" stroke-width="1.25"/><text fill="rgb(0,0,0)" stroke="none" font-family="Helvetica" font-size="11px" font-style="normal" font-weight="normal" text-decoration="normal" x="244.7268676625227" y="621.5436339162088" text-anchor="middle" dominant-baseline="text-after-edge" fill-opacity="1">PolyQ aggregates</text><path fill="rgb(198,219,239)" stroke="rgb(85,85,85)" paint-order="fill stroke markers" d=" M 175.61518394291556 184.65966137362648 L 163.61518394291556 196.65966137362648 L 163.61518394291556 358.2425978186027 L 175.61518394291556 370.2425978186027 L 552.9764784193783 370.2425978186027 L 564.9764784193783 358.2425978186027 L 564.9764784193783 196.65966137362648 L 552.9764784193783 184.65966137362648 Z" fill-opacity="0.5" stroke-opacity="1" stroke-miterlimit="10" stroke-width="1.25"/><path fill="rgb(198,219,239)" stroke="rgb(85,85,85)" paint-order="fill stroke markers" d="" fill-opacity="0.5" stroke-opacity="1" stroke-miterlimit="10" stroke-width="1.25"/><text fill="rgb(0,0,0)" stroke="none" font-family="Helvetica" font-size="11px" font-style="normal" font-weight="normal" text-decoration="normal" x="364.2958311811469" y="370.2425978186027" text-anchor="middle" dominant-baseline="text-after-edge" fill-opacity="1">misfolded protein</text><path fill="rgb(198,219,239)" stroke="rgb(85,85,85)" paint-order="fill stroke markers" d=" M 398.47791309964964 479.51384339895526 L 386.47791309964964 491.51384339895526 L 386.47791309964964 579.6388433989553 L 398.47791309964964 591.6388433989553 L 546.9779130996496 591.6388433989553 L 558.9779130996496 579.6388433989553 L 558.9779130996496 491.51384339895526 L 546.9779130996496 479.51384339895526 Z" fill-opacity="0.5" stroke-opacity="1" stroke-miterlimit="10" stroke-width="1.25"/><path fill="rgb(198,219,239)" stroke="rgb(85,85,85)" paint-order="fill stroke markers" d="" fill-opacity="0.5" stroke-opacity="1" stroke-miterlimit="10" stroke-width="1.25"/><text fill="rgb(0,0,0)" stroke="none" font-family="Helvetica" font-size="11px" font-style="normal" font-weight="normal" text-decoration="normal" x="472.72791309964964" y="591.6388433989553" text-anchor="middle" dominant-baseline="text-after-edge" fill-opacity="1">Hsp70</text><path fill="rgb(198,219,239)" stroke="rgb(85,85,85)" paint-order="fill stroke markers" d=" M 337.60083845735585 121.36630207384542 L 325.60083845735585 133.36630207384542 L 325.60083845735585 741.3749338986645 L 337.60083845735585 753.3749338986645 L 460.35519498320866 753.3749338986645 L 472.35519498320866 741.3749338986645 L 472.35519498320866 133.36630207384542 L 460.35519498320866 121.36630207384542 Z" fill-opacity="0.5" stroke-opacity="1" stroke-miterlimit="10" stroke-width="1.25"/><path fill="rgb(198,219,239)" stroke="rgb(85,85,85)" paint-order="fill stroke markers" d="" fill-opacity="0.5" stroke-opacity="1" stroke-miterlimit="10" stroke-width="1.25"/><text fill="rgb(0,0,0)" stroke="none" font-family="Helvetica" font-size="11px" font-style="normal" font-weight="normal" text-decoration="normal" x="398.97801672028226" y="753.3749338986645" text-anchor="middle" dominant-baseline="text-after-edge" fill-opacity="1">misfolded protein</text><path fill="rgb(198,219,239)" stroke="rgb(85,85,85)" paint-order="fill stroke markers" d=" M 276.8939220971147 33.308607022964566 L 264.8939220971147 45.308607022964566 L 264.8939220971147 704.9766175624001 L 276.8939220971147 716.9766175624001 L 844.2879311309166 716.9766175624001 L 856.2879311309166 704.9766175624001 L 856.2879311309166 45.308607022964566 L 844.2879311309166 33.308607022964566 Z" fill-opacity="0.5" stroke-opacity="1" stroke-miterlimit="10" stroke-width="1.25"/><path fill="rgb(198,219,239)" stroke="rgb(85,85,85)" paint-order="fill stroke markers" d="" fill-opacity="0.5" stroke-opacity="1" stroke-miterlimit="10" stroke-width="1.25"/><text fill="rgb(0,0,0)" stroke="none" font-family="Helvetica" font-size="11px" font-style="normal" font-weight="normal" text-decoration="normal" x="560.5909266140156" y="716.9766175624001" text-anchor="middle" dominant-baseline="text-after-edge" fill-opacity="1">Hsp70</text><path fill="rgb(198,219,239)" stroke="rgb(85,85,85)" paint-order="fill stroke markers" d=" M 173.16917907759932 478.58783200453934 L 161.16917907759932 490.58783200453934 L 161.16917907759932 757.3050362203136 L 173.16917907759932 769.3050362203136 L 841.8961245563775 769.3050362203136 L 853.8961245563775 757.3050362203136 L 853.8961245563775 490.58783200453934 L 841.8961245563775 478.58783200453934 Z" fill-opacity="0.5" stroke-opacity="1" stroke-miterlimit="10" stroke-width="1.25"/><path fill="rgb(198,219,239)" stroke="rgb(85,85,85)" paint-order="fill stroke markers" d="" fill-opacity="0.5" stroke-opacity="1" stroke-miterlimit="10" stroke-width="1.25"/><text fill="rgb(0,0,0)" stroke="none" font-family="Helvetica" font-size="11px" font-style="normal" font-weight="normal" text-decoration="normal" x="507.5326518169884" y="769.3050362203136" text-anchor="middle" dominant-baseline="text-after-edge" fill-opacity="1">Hsp70</text><path fill="none" stroke="rgb(85,85,85)" paint-order="fill stroke markers" d=" M 420.5893801265748 246.58259220380734 L 433.58000272274944 277.1659325002818" stroke-opacity="1" stroke-linejoin="round" stroke-miterlimit="10" stroke-width="1.25"/><path fill="rgb(255,255,255)" stroke="rgb(255,255,255)" paint-order="fill stroke markers" d=" M 438.11342015284845 275.0374844842849 A 5.4375 5.4375 0 1 1 438.11341743409866 275.03204698519113 Z" fill-opacity="1" stroke-opacity="1" stroke-miterlimit="10"/><path fill="none" stroke="rgb(85,85,85)" paint-order="fill stroke markers" d=" M 438.11342015284845 275.0374844842849 A 5.4375 5.4375 0 1 1 438.11341743409866 275.03204698519113 Z" stroke-opacity="1" stroke-miterlimit="10"/><path fill="none" stroke="rgb(85,85,85)" paint-order="fill stroke markers" d=" M 355.8324981525243 462.1282225348824 L 389.6189865272487 483.35706271515653" stroke-opacity="1" stroke-linejoin="round" stroke-miterlimit="10" stroke-width="1.25"/><path fill="rgb(85,85,85)" stroke="none" paint-order="stroke fill markers" d=" M 380.16395586841924 483.8380008510891 L 392.26502143577125 485.0196282816471 L 385.94968403980647 474.62979936943066 Z" fill-opacity="1"/><path fill="none" stroke="rgb(85,85,85)" paint-order="fill stroke markers" d=" M 606.934723164142 666.6170821402599 L 620.3453882688877 638.129593495762" stroke-opacity="1" stroke-linejoin="round" stroke-miterlimit="10" stroke-width="1.25"/><path fill="rgb(255,255,255)" stroke="rgb(255,255,255)" paint-order="fill stroke markers" d=" M 621.9641294788775 647.4574326423747 L 621.6763930536264 635.3022181646461 L 612.1248633265941 642.8255359914841 Z" fill-opacity="1" stroke-opacity="1" stroke-miterlimit="10"/><path fill="none" stroke="rgb(85,85,85)" paint-order="fill stroke markers" d=" M 621.9641294788775 647.4574326423747 L 621.6763930536264 635.3022181646461 L 612.1248633265941 642.8255359914841 Z" stroke-opacity="1" stroke-miterlimit="10"/><path fill="none" stroke="rgb(85,85,85)" paint-order="fill stroke markers" d=" M 502.5439400350622 589.5850599440812 L 1022.6612815013124 806.9066830287492" stroke-opacity="1" stroke-linejoin="round" stroke-miterlimit="10" stroke-width="1.25"/><path fill="rgb(85,85,85)" stroke="none" paint-order="stroke fill markers" d=" M 1013.4140706543656 808.9359680757815 L 1025.544702604196 808.111468380356 L 1017.6067236779573 798.9016626377471 Z" fill-opacity="1"/><path fill="none" stroke="rgb(85,85,85)" paint-order="fill stroke markers" d=" M 502.98118920392335 588.203327431924 L 968.1588703299628 690.8471584772819" stroke-opacity="1" stroke-linejoin="round" stroke-miterlimit="10" stroke-width="1.25"/><path fill="rgb(85,85,85)" stroke="none" paint-order="stroke fill markers" d=" M 959.4192889570076 694.487024364302 L 971.2104641901007 691.5205082472899 L 961.7625461566352 683.8674777310227 Z" fill-opacity="1"/><path fill="none" stroke="rgb(85,85,85)" paint-order="fill stroke markers" d=" M 497.51831801710296 594.1926720027861 L 570.0809348036684 821.459592548075" stroke-opacity="1" stroke-linejoin="round" stroke-miterlimit="10" stroke-width="1.25"/><path fill="rgb(85,85,85)" stroke="none" paint-order="stroke fill markers" d=" M 562.5438384268724 815.7306236655544 L 571.0314243611829 824.4365363837991 L 572.9036029751924 812.4229200054039 Z" fill-opacity="1"/><path fill="none" stroke="rgb(85,85,85)" paint-order="fill stroke markers" d=" M 1021.2228450687303 632.3889349461595 L 927.5793843668159 513.0219865338078" stroke-opacity="1" stroke-linejoin="round" stroke-miterlimit="10" stroke-width="1.25"/><path fill="rgb(85,85,85)" stroke="none" paint-order="stroke fill markers" d=" M 936.6410517892303 515.7633529404657 L 925.6505373783649 510.56329291825836 L 928.0847980071184 522.4757404602751 Z" fill-opacity="1"/><path fill="none" stroke="rgb(85,85,85)" paint-order="fill stroke markers" d=" M 1143.689910895297 705.1268302700362 L 620.8444367486472 571.8782652561481" stroke-opacity="1" stroke-linejoin="round" stroke-miterlimit="10" stroke-width="1.25"/><path fill="rgb(85,85,85)" stroke="none" paint-order="stroke fill markers" d=" M 629.6972267630375 568.5231176869478 L 617.8162306028532 571.1065188349864 L 627.0115492173948 579.0612750743106 Z" fill-opacity="1"/><path fill="none" stroke="rgb(85,85,85)" paint-order="fill stroke markers" d=" M 283.22821852055586 420.20897149569265 L 981.1156600787158 402.251990078586" stroke-opacity="1" stroke-linejoin="round" stroke-miterlimit="10" stroke-width="1.25"/><path fill="rgb(85,85,85)" stroke="none" paint-order="stroke fill markers" d=" M 973.5080874933249 407.887036272541 L 984.2396261267929 402.1716089212066 L 973.2283610656445 397.0156344252328 Z" fill-opacity="1"/><path fill="none" stroke="rgb(85,85,85)" paint-order="fill stroke markers" d=" M 671.7012823259113 390.43814093681243 L 286.344328095073 419.56828663742806" stroke-opacity="1" stroke-linejoin="round" stroke-miterlimit="10" stroke-width="1.25"/><path fill="rgb(255,255,255)" stroke="rgb(255,255,255)" paint-order="fill stroke markers" d=" M 293.6624142817873 413.5620797800328 L 283.2282185205558 419.8038415558697 L 294.48214539796425 424.40614109935274 Z" fill-opacity="1" stroke-opacity="1" stroke-miterlimit="10"/><path fill="none" stroke="rgb(85,85,85)" paint-order="fill stroke markers" d=" M 293.6624142817873 413.5620797800328 L 283.2282185205558 419.8038415558697 L 294.48214539796425 424.40614109935274 Z" stroke-opacity="1" stroke-miterlimit="10"/><path fill="none" stroke="rgb(85,85,85)" paint-order="fill stroke markers" d=" M 172.3752833643073 392.1109333438121 L 175.3218466692186 429.08997603846205" stroke-opacity="1" stroke-linejoin="round" stroke-miterlimit="10" stroke-width="1.25"/><path fill="none" stroke="rgb(85,85,85)" paint-order="fill stroke markers" d=" M 223.44808076992473 450.6830528385061 L 183.7827313569806 439.4104221086151" stroke-opacity="1" stroke-linejoin="round" stroke-miterlimit="10" stroke-width="1.25"/><path fill="none" stroke="rgb(85,85,85)" paint-order="fill stroke markers" d=" M 303.4231779281676 459.6300944794469 L 340.8343235299532 458.13089005275253" stroke-opacity="1" stroke-linejoin="round" stroke-miterlimit="10" stroke-width="1.25"/><path fill="none" stroke="rgb(85,85,85)" paint-order="fill stroke markers" d=" M 226.9457850792418 503.8543102134473 L 430.2929167721917 296.2922136029804" stroke-opacity="1" stroke-linejoin="round" stroke-miterlimit="10" stroke-width="1.25"/><path fill="none" stroke="rgb(85,85,85)" paint-order="fill stroke markers" d=" M 1027.6226004536995 805.9572824531651 L 283.22821852055586 424.5807236775555" stroke-opacity="1" stroke-linejoin="round" stroke-miterlimit="10" stroke-width="1.25"/><path fill="none" stroke="rgb(85,85,85)" paint-order="fill stroke markers" d=" M 1013.0999471852188 681.3537645490317 L 1024.71277204276 648.6389349461595" stroke-opacity="1" stroke-linejoin="round" stroke-miterlimit="10" stroke-width="1.25"/><path fill="none" stroke="rgb(85,85,85)" paint-order="fill stroke markers" d=" M 620.1982170552366 840.7132638205771 L 1143.689910895297 709.2381053701721" stroke-opacity="1" stroke-linejoin="round" stroke-miterlimit="10" stroke-width="1.25"/><path fill="none" stroke="rgb(85,85,85)" paint-order="fill stroke markers" d=" M 435.4015805786368 498.3919058628773 L 672.7614771216961 394.70292301495397" stroke-opacity="1" stroke-linejoin="round" stroke-miterlimit="10" stroke-width="1.25"/><path fill="none" stroke="rgb(85,85,85)" paint-order="fill stroke markers" d=" M 637.207563612977 198.33317460782908 L 681.6180533066592 376.71259865749107" stroke-opacity="1" stroke-linejoin="round" stroke-miterlimit="10" stroke-width="1.25"/><path fill="none" stroke="rgb(85,85,85)" paint-order="fill stroke markers" d=" M 554.6363283191657 584.6875349606256 L 617.3762880921402 622.3055767054728" stroke-opacity="1" stroke-linejoin="round" stroke-miterlimit="10" stroke-width="1.25"/><path fill="none" stroke="rgb(85,85,85)" paint-order="fill stroke markers" d=" M 325.10083845735585 279.4082887926777 L 313.789156851121 255.2219349601345" stroke-opacity="1" stroke-linejoin="round" stroke-miterlimit="10" stroke-width="1.25"/><path fill="none" stroke="rgb(85,85,85)" paint-order="fill stroke markers" d=" M 237.75123861516155 276.8916836159281 L 209.00461747522996 253.42460936690483" stroke-opacity="1" stroke-linejoin="round" stroke-miterlimit="10" stroke-width="1.25"/><path fill="rgb(85,85,85)" stroke="none" paint-order="stroke fill markers" d=" M 218.44678254578918 254.1133945513502 L 206.58381957219532 251.44841036056386 L 211.56961000372254 262.53777125391076 Z" fill-opacity="1"/><path fill="none" stroke="rgb(85,85,85)" paint-order="fill stroke markers" d=" M 325.10083845735585 363.1342504968525 L 253.96192617890134 291.6494623813064" stroke-opacity="1" stroke-linejoin="round" stroke-miterlimit="10" stroke-width="1.25"/><path fill="rgb(158,202,225)" stroke="rgb(85,85,85)" paint-order="fill stroke markers" d=" M 311.5189220971146 44.93360702296457 L 338.5189220971146 44.93360702296457 L 338.5189220971146 44.93360702296457 A 8 8 0 0 1 346.5189220971146 52.93360702296457 L 346.5189220971146 71.93360702296457 L 346.5189220971146 71.93360702296457 A 8 8 0 0 1 338.5189220971146 79.93360702296457 L 284.5189220971146 79.93360702296457 L 284.5189220971146 79.93360702296457 A 8 8 0 0 1 276.5189220971146 71.93360702296457 L 276.5189220971146 52.93360702296457 L 276.5189220971146 52.93360702296457 A 8 8 0 0 1 284.5189220971146 44.93360702296457 L 311.5189220971146 44.93360702296457 Z" fill-opacity="0.5" stroke-opacity="1" stroke-miterlimit="10" stroke-width="1.25"/><path fill="rgb(158,202,225)" stroke="rgb(85,85,85)" paint-order="fill stroke markers" d="" fill-opacity="0.5" stroke-opacity="1" stroke-miterlimit="10" stroke-width="1.25"/><text fill="rgb(0,0,0)" stroke="none" font-family="Helvetica" font-size="11px" font-style="normal" font-weight="normal" text-decoration="normal" x="311.5189220971146" y="67.43360702296457" text-anchor="middle" dominant-baseline="text-after-edge" fill-opacity="1">Hsp70</text><path fill="rgb(158,202,225)" stroke="rgb(85,85,85)" paint-order="fill stroke markers" d=" M 809.6629311309166 670.3516175624001 L 836.6629311309166 670.3516175624001 L 836.6629311309166 670.3516175624001 A 8 8 0 0 1 844.6629311309166 678.3516175624001 L 844.6629311309166 697.3516175624001 L 844.6629311309166 697.3516175624001 A 8 8 0 0 1 836.6629311309166 705.3516175624001 L 782.6629311309166 705.3516175624001 L 782.6629311309166 705.3516175624001 A 8 8 0 0 1 774.6629311309166 697.3516175624001 L 774.6629311309166 678.3516175624001 L 774.6629311309166 678.3516175624001 A 8 8 0 0 1 782.6629311309166 670.3516175624001 L 809.6629311309166 670.3516175624001 Z" fill-opacity="0.5" stroke-opacity="1" stroke-miterlimit="10" stroke-width="1.25"/><path fill="rgb(158,202,225)" stroke="rgb(85,85,85)" paint-order="fill stroke markers" d="" fill-opacity="0.5" stroke-opacity="1" stroke-miterlimit="10" stroke-width="1.25"/><text fill="rgb(0,0,0)" stroke="none" font-family="Helvetica" font-size="11px" font-style="normal" font-weight="normal" text-decoration="normal" x="809.6629311309166" y="687.8516175624001" text-anchor="middle" dominant-baseline="text-after-edge" fill-opacity="1">misfolded</text><text fill="rgb(0,0,0)" stroke="none" font-family="Helvetica" font-size="11px" font-style="normal" font-weight="normal" text-decoration="normal" x="809.6629311309166" y="698.3516175624001" text-anchor="middle" dominant-baseline="text-after-edge" fill-opacity="1">protein</text><path fill="none" stroke="rgb(85,85,85)" paint-order="fill stroke markers" d=" M 1009.8602835287168 401.83400806021314 L 1009.8217502003808 402.8147467568112 L 1009.706387786156 403.789438873216 L 1009.5149075336877 404.75207510841193 L 1009.2484899824062 405.6967204899 L 1008.9087776851078 406.61755096477674 L 1008.4978650810714 407.5088893069575 L 1008.0182855831429 408.3652401191625 L 1007.4729959584037 409.18132371386906 L 1006.8653580987171 409.9521086643404 L 1006.1991182935486 410.672842825045 L 1005.4783841328441 411.3390826302135 L 1004.7075991823726 411.9467204899 L 1003.8915155876662 412.4920101146393 L 1003.0351647754611 412.97158961256775 L 1002.1438264332804 413.3825022166042 L 1001.2229959584037 413.72221451390254 L 1000.2783505769156 413.9886320651841 L 999.3157143417196 414.18011231765234 L 998.3410222253149 414.2954747318772 L 997.3602835287168 414.33400806021314 L 996.3795448321187 414.2954747318772 L 995.4048527157139 414.18011231765234 L 994.4422164805179 413.9886320651841 L 993.4975710990299 413.72221451390254 L 992.5767406241531 413.3825022166042 L 991.6854022819724 412.97158961256775 L 990.8290514697674 412.4920101146393 L 990.0129678750609 411.9467204899 L 989.2421829245894 411.3390826302135 L 988.5214487638849 410.672842825045 L 987.8552089587164 409.9521086643404 L 987.2475710990299 409.18132371386906 L 986.7022814742907 408.3652401191625 L 986.2227019763621 407.5088893069575 L 985.8117893723257 406.61755096477674 L 985.4720770750273 405.6967204899 L 985.2056595237458 404.75207510841193 L 985.0141792712775 403.789438873216 L 984.8988168570527 402.8147467568112 L 984.8602835287168 401.83400806021314 L 984.8988168570527 400.8532693636151 L 985.0141792712775 399.8785772472103 L 985.2056595237458 398.91594101201434 L 985.4720770750273 397.9712956305263 L 985.8117893723257 397.05046515564953 L 986.2227019763621 396.1591268134688 L 986.7022814742907 395.3027760012638 L 987.2475710990299 394.4866924065572 L 987.8552089587164 393.71590745608586 L 988.5214487638849 392.9951732953813 L 989.2421829245894 392.32893349021276 L 990.0129678750609 391.7212956305263 L 990.8290514697674 391.176006005787 L 991.6854022819724 390.6964265078585 L 992.5767406241531 390.28551390382205 L 993.49757109903 389.94580160652373 L 994.442216480518 389.67938405524217 L 995.4048527157139 389.4879038027739 L 996.3795448321188 389.37254138854905 L 997.3602835287168 389.33400806021314 L 998.3410222253149 389.37254138854905 L 999.3157143417197 389.4879038027739 L 1000.2783505769156 389.67938405524217 L 1001.2229959584037 389.94580160652373 L 1002.1438264332804 390.2855139038221 L 1003.0351647754611 390.6964265078586 L 1003.8915155876662 391.17600600578703 L 1004.7075991823727 391.72129563052636 L 1005.4783841328441 392.3289334902128 L 1006.1991182935486 392.99517329538133 L 1006.8653580987173 393.7159074560859 L 1007.4729959584037 394.4866924065573 L 1008.018285583143 395.30277600126385 L 1008.4978650810714 396.1591268134689 L 1008.9087776851079 397.05046515564965 L 1009.2484899824062 397.9712956305264 L 1009.5149075336877 398.91594101201446 L 1009.706387786156 399.8785772472104 L 1009.8217502003808 400.8532693636152 Z" stroke-opacity="1" stroke-miterlimit="10" stroke-width="1.25"/><path fill="rgb(158,202,225)" stroke="rgb(85,85,85)" paint-order="fill stroke markers" d=" M 984.8602835287168 414.33400806021314 L 1009.8602835287168 389.33400806021314 Z" stroke-opacity="1" stroke-miterlimit="10" stroke-width="1.25" fill-opacity="0.5"/><path fill="rgb(158,202,225)" stroke="rgb(85,85,85)" paint-order="fill stroke markers" d=" M 798.2711245563775 722.6800362203136 L 825.2711245563775 722.6800362203136 L 825.2711245563775 722.6800362203136 A 8 8 0 0 1 833.2711245563775 730.6800362203136 L 833.2711245563775 749.6800362203136 L 833.2711245563775 749.6800362203136 A 8 8 0 0 1 825.2711245563775 757.6800362203136 L 771.2711245563775 757.6800362203136 L 771.2711245563775 757.6800362203136 A 8 8 0 0 1 763.2711245563775 749.6800362203136 L 763.2711245563775 730.6800362203136 L 763.2711245563775 730.6800362203136 A 8 8 0 0 1 771.2711245563775 722.6800362203136 L 798.2711245563775 722.6800362203136 Z" fill-opacity="0.5" stroke-opacity="1" stroke-miterlimit="10" stroke-width="1.25"/><path fill="rgb(158,202,225)" stroke="rgb(85,85,85)" paint-order="fill stroke markers" d="" fill-opacity="0.5" stroke-opacity="1" stroke-miterlimit="10" stroke-width="1.25"/><text fill="rgb(0,0,0)" stroke="none" font-family="Helvetica" font-size="11px" font-style="normal" font-weight="normal" text-decoration="normal" x="798.2711245563775" y="745.1800362203136" text-anchor="middle" dominant-baseline="text-after-edge" fill-opacity="1">Hsp70</text><path fill="rgb(158,202,225)" stroke="rgb(85,85,85)" paint-order="fill stroke markers" d=" M 207.79417907759932 490.21283200453934 L 234.79417907759932 490.21283200453934 L 234.79417907759932 490.21283200453934 A 8 8 0 0 1 242.79417907759932 498.21283200453934 L 242.79417907759932 517.2128320045393 L 242.79417907759932 517.2128320045393 A 8 8 0 0 1 234.79417907759932 525.2128320045393 L 180.79417907759932 525.2128320045393 L 180.79417907759932 525.2128320045393 A 8 8 0 0 1 172.79417907759932 517.2128320045393 L 172.79417907759932 498.21283200453934 L 172.79417907759932 498.21283200453934 A 8 8 0 0 1 180.79417907759932 490.21283200453934 L 207.79417907759932 490.21283200453934 Z" fill-opacity="0.5" stroke-opacity="1" stroke-miterlimit="10" stroke-width="1.25"/><path fill="rgb(158,202,225)" stroke="rgb(85,85,85)" paint-order="fill stroke markers" d="" fill-opacity="0.5" stroke-opacity="1" stroke-miterlimit="10" stroke-width="1.25"/><text fill="rgb(0,0,0)" stroke="none" font-family="Helvetica" font-size="11px" font-style="normal" font-weight="normal" text-decoration="normal" x="207.79417907759932" y="507.71283200453934" text-anchor="middle" dominant-baseline="text-after-edge" fill-opacity="1">misfolded</text><text fill="rgb(0,0,0)" stroke="none" font-family="Helvetica" font-size="11px" font-style="normal" font-weight="normal" text-decoration="normal" x="207.79417907759932" y="518.2128320045393" text-anchor="middle" dominant-baseline="text-after-edge" fill-opacity="1">protein</text><path fill="rgb(158,202,225)" stroke="rgb(85,85,85)" paint-order="fill stroke markers" d=" M 805.2711245563775 682.4300362203136 L 834.2711245563775 682.4300362203136 L 834.2711245563775 682.4300362203136 A 8 8 0 0 1 842.2711245563775 690.4300362203136 L 842.2711245563775 710.4300362203136 L 842.2711245563775 710.4300362203136 A 8 8 0 0 1 834.2711245563775 718.4300362203136 L 776.2711245563775 718.4300362203136 L 776.2711245563775 718.4300362203136 A 8 8 0 0 1 768.2711245563775 710.4300362203136 L 768.2711245563775 690.4300362203136 L 768.2711245563775 690.4300362203136 A 8 8 0 0 1 776.2711245563775 682.4300362203136 L 805.2711245563775 682.4300362203136 Z" fill-opacity="0.5" stroke-opacity="1" stroke-miterlimit="10" stroke-width="1.25"/><path fill="rgb(158,202,225)" stroke="rgb(85,85,85)" paint-order="fill stroke markers" d=" M 800.2711245563775 677.4300362203136 L 829.2711245563775 677.4300362203136 L 829.2711245563775 677.4300362203136 A 8 8 0 0 1 837.2711245563775 685.4300362203136 L 837.2711245563775 705.4300362203136 L 837.2711245563775 705.4300362203136 A 8 8 0 0 1 829.2711245563775 713.4300362203136 L 771.2711245563775 713.4300362203136 L 771.2711245563775 713.4300362203136 A 8 8 0 0 1 763.2711245563775 705.4300362203136 L 763.2711245563775 685.4300362203136 L 763.2711245563775 685.4300362203136 A 8 8 0 0 1 771.2711245563775 677.4300362203136 L 800.2711245563775 677.4300362203136 Z" fill-opacity="0.5" stroke-opacity="1" stroke-miterlimit="10" stroke-width="1.25"/><path fill="#ffffff" stroke="rgb(85,85,85)" paint-order="fill stroke markers" d=" M 773.2711245563775 669.4300362203136 L 773.2711245563775 685.4300362203136 L 804.2711245563775 685.4300362203136 L 804.2711245563775 669.4300362203136 Z" stroke-opacity="1" stroke-miterlimit="10" stroke-width="1.25"/><text fill="#0f0f0f" stroke="none" font-family="Arial" font-size="9px" font-style="normal" font-weight="normal" text-decoration="normal" x="788.7711245563775" y="677.4300362203136" text-anchor="middle" dominant-baseline="central">N:2</text><path fill="rgb(158,202,225)" stroke="rgb(85,85,85)" paint-order="fill stroke markers" d="" fill-opacity="0.5" stroke-opacity="1" stroke-miterlimit="10" stroke-width="1.25"/><text fill="rgb(0,0,0)" stroke="none" font-family="Helvetica" font-size="11px" font-style="normal" font-weight="normal" text-decoration="normal" x="800.2711245563775" y="700.4300362203136" text-anchor="middle" dominant-baseline="text-after-edge" fill-opacity="1">Sis1</text><path fill="rgb(255,255,255)" stroke="rgb(85,85,85)" paint-order="fill stroke markers" d=" M 502.5470451675652 586.4526180299034 L 502.5239251705637 587.0410612478622 L 502.45470772202873 587.6258765177051 L 502.3398195705478 588.2034582588227 L 502.1799690397789 588.7702454877156 L 501.9761416613999 589.3227437726416 L 501.729594098978 589.85754677795 L 501.4418464002209 590.371357265273 L 501.1146726253773 590.8610074220969 L 500.7500899095655 591.3234783923798 L 500.3503460264643 591.7559188888025 L 499.9179055300416 592.1556627719036 L 499.45543455975877 592.5202454877156 L 498.96578440293484 592.8474192625591 L 498.4519739156118 593.1351669613161 L 497.9171709103034 593.3817145237381 L 497.3646726253773 593.585541902117 L 496.7978853964845 593.745392432886 L 496.22030365536693 593.8602805843669 L 495.63548838552407 593.9294980329018 L 495.0470451675652 593.9526180299034 L 494.45860194960636 593.9294980329018 L 493.8737866797635 593.8602805843669 L 493.29620493864593 593.745392432886 L 492.72941770975314 593.585541902117 L 492.176919424827 593.3817145237381 L 491.64211641951863 593.1351669613161 L 491.1283059321956 592.8474192625591 L 490.63865577537166 592.5202454877156 L 490.17618480508884 592.1556627719036 L 489.7437443086661 591.7559188888025 L 489.34400042556496 591.3234783923798 L 488.97941770975314 590.8610074220969 L 488.6522439349095 590.371357265273 L 488.36449623615243 589.85754677795 L 488.11794867373055 589.3227437726416 L 487.91412129535155 588.7702454877156 L 487.75427076458266 588.2034582588227 L 487.6393826131017 587.6258765177051 L 487.57016516456673 587.0410612478622 L 487.5470451675652 586.4526180299034 L 487.57016516456673 585.8641748119446 L 487.6393826131017 585.2793595421017 L 487.75427076458266 584.7017778009841 L 487.91412129535155 584.1349905720913 L 488.11794867373055 583.5824922871652 L 488.36449623615243 583.0476892818568 L 488.6522439349095 582.5338787945338 L 488.97941770975314 582.0442286377099 L 489.34400042556496 581.581757667427 L 489.7437443086661 581.1493171710043 L 490.17618480508884 580.7495732879032 L 490.63865577537166 580.3849905720913 L 491.1283059321956 580.0578167972477 L 491.64211641951863 579.7700690984907 L 492.1769194248271 579.5235215360688 L 492.72941770975314 579.3196941576898 L 493.29620493864593 579.1598436269209 L 493.8737866797635 579.0449554754399 L 494.4586019496064 578.975738026905 L 495.0470451675652 578.9526180299034 L 495.63548838552407 578.975738026905 L 496.220303655367 579.0449554754399 L 496.79788539648456 579.1598436269209 L 497.36467262537735 579.3196941576898 L 497.9171709103034 579.5235215360688 L 498.45197391561186 579.7700690984907 L 498.9657844029349 580.0578167972477 L 499.4554345597588 580.3849905720914 L 499.91790553004165 580.7495732879032 L 500.35034602646436 581.1493171710043 L 500.7500899095655 581.581757667427 L 501.11467262537735 582.0442286377099 L 501.4418464002209 582.5338787945338 L 501.729594098978 583.0476892818568 L 501.9761416613999 583.5824922871653 L 502.1799690397789 584.1349905720914 L 502.33981957054783 584.7017778009842 L 502.4547077220288 585.2793595421018 L 502.5239251705637 585.8641748119446 Z" fill-opacity="0.5" stroke-opacity="1" stroke-miterlimit="10" stroke-width="1.25"/><text fill="rgb(0,0,0)" stroke="none" font-family="Helvetica Neue, Helvetica, sans-serif" font-size="12px" font-style="normal" font-weight="normal" text-decoration="normal" x="495.0470451675652" y="592.4526180299034" text-anchor="middle" dominant-baseline="text-after-edge" fill-opacity="1">o</text><path fill="rgb(158,202,225)" stroke="rgb(85,85,85)" paint-order="fill stroke markers" d=" M 1059.6058467539733 804.8433013545903 L 1086.6058467539733 804.8433013545903 L 1086.6058467539733 804.8433013545903 A 8 8 0 0 1 1094.6058467539733 812.8433013545903 L 1094.6058467539733 831.8433013545903 L 1094.6058467539733 831.8433013545903 A 8 8 0 0 1 1086.6058467539733 839.8433013545903 L 1032.6058467539733 839.8433013545903 L 1032.6058467539733 839.8433013545903 A 8 8 0 0 1 1024.6058467539733 831.8433013545903 L 1024.6058467539733 812.8433013545903 L 1024.6058467539733 812.8433013545903 A 8 8 0 0 1 1032.6058467539733 804.8433013545903 L 1059.6058467539733 804.8433013545903 Z" fill-opacity="0.5" stroke-opacity="1" stroke-miterlimit="10" stroke-width="1.25"/><path fill="rgb(158,202,225)" stroke="rgb(85,85,85)" paint-order="fill stroke markers" d="" fill-opacity="0.5" stroke-opacity="1" stroke-miterlimit="10" stroke-width="1.25"/><text fill="rgb(0,0,0)" stroke="none" font-family="Helvetica" font-size="11px" font-style="normal" font-weight="normal" text-decoration="normal" x="1059.6058467539733" y="822.3433013545903" text-anchor="middle" dominant-baseline="text-after-edge" fill-opacity="1">misfolded</text><text fill="rgb(0,0,0)" stroke="none" font-family="Helvetica" font-size="11px" font-style="normal" font-weight="normal" text-decoration="normal" x="1059.6058467539733" y="832.8433013545903" text-anchor="middle" dominant-baseline="text-after-edge" fill-opacity="1">protein</text><path fill="rgb(255,255,255)" stroke="rgb(85,85,85)" paint-order="fill stroke markers" d=" M 267.6032185205558 412.91803167549506 L 267.6032185205558 427.91803167549506 L 282.6032185205558 427.91803167549506 L 282.6032185205558 412.91803167549506 Z" fill-opacity="0.5" stroke-opacity="1" stroke-miterlimit="10" stroke-width="1.25"/><path fill="rgb(158,202,225)" stroke="rgb(85,85,85)" paint-order="fill stroke markers" d=" M 1006.7104641901007 681.8537645490317 L 1033.7104641901005 681.8537645490317 L 1033.7104641901005 681.8537645490317 A 8 8 0 0 1 1041.7104641901005 689.8537645490317 L 1041.7104641901005 708.8537645490317 L 1041.7104641901005 708.8537645490317 A 8 8 0 0 1 1033.7104641901005 716.8537645490317 L 979.7104641901007 716.8537645490317 L 979.7104641901007 716.8537645490317 A 8 8 0 0 1 971.7104641901007 708.8537645490317 L 971.7104641901007 689.8537645490317 L 971.7104641901007 689.8537645490317 A 8 8 0 0 1 979.7104641901007 681.8537645490317 L 1006.7104641901007 681.8537645490317 Z" fill-opacity="0.5" stroke-opacity="1" stroke-miterlimit="10" stroke-width="1.25"/><path fill="rgb(158,202,225)" stroke="rgb(85,85,85)" paint-order="fill stroke markers" d="" fill-opacity="0.5" stroke-opacity="1" stroke-miterlimit="10" stroke-width="1.25"/><text fill="rgb(0,0,0)" stroke="none" font-family="Helvetica" font-size="11px" font-style="normal" font-weight="normal" text-decoration="normal" x="1006.7104641901007" y="704.3537645490317" text-anchor="middle" dominant-baseline="text-after-edge" fill-opacity="1">Hsp70</text><path fill="rgb(255,255,255)" stroke="rgb(85,85,85)" paint-order="fill stroke markers" d=" M 1020.0969136725007 633.0139349461595 L 1020.0969136725007 648.0139349461595 L 1035.0969136725007 648.0139349461595 L 1035.0969136725007 633.0139349461595 Z" fill-opacity="0.5" stroke-opacity="1" stroke-miterlimit="10" stroke-width="1.25"/><path fill="rgb(158,202,225)" stroke="rgb(85,85,85)" paint-order="fill stroke markers" d=" M 584.49244165411 837.9365363837991 L 613.49244165411 837.9365363837991 L 613.49244165411 837.9365363837991 A 8 8 0 0 1 621.49244165411 845.9365363837991 L 621.49244165411 865.9365363837991 L 621.49244165411 865.9365363837991 A 8 8 0 0 1 613.49244165411 873.9365363837991 L 555.49244165411 873.9365363837991 L 555.49244165411 873.9365363837991 A 8 8 0 0 1 547.49244165411 865.9365363837991 L 547.49244165411 845.9365363837991 L 547.49244165411 845.9365363837991 A 8 8 0 0 1 555.49244165411 837.9365363837991 L 584.49244165411 837.9365363837991 Z" fill-opacity="0.5" stroke-opacity="1" stroke-miterlimit="10" stroke-width="1.25"/><path fill="rgb(158,202,225)" stroke="rgb(85,85,85)" paint-order="fill stroke markers" d=" M 579.49244165411 832.9365363837991 L 608.49244165411 832.9365363837991 L 608.49244165411 832.9365363837991 A 8 8 0 0 1 616.49244165411 840.9365363837991 L 616.49244165411 860.9365363837991 L 616.49244165411 860.9365363837991 A 8 8 0 0 1 608.49244165411 868.9365363837991 L 550.49244165411 868.9365363837991 L 550.49244165411 868.9365363837991 A 8 8 0 0 1 542.49244165411 860.9365363837991 L 542.49244165411 840.9365363837991 L 542.49244165411 840.9365363837991 A 8 8 0 0 1 550.49244165411 832.9365363837991 L 579.49244165411 832.9365363837991 Z" fill-opacity="0.5" stroke-opacity="1" stroke-miterlimit="10" stroke-width="1.25"/><path fill="#ffffff" stroke="rgb(85,85,85)" paint-order="fill stroke markers" d=" M 552.49244165411 824.9365363837991 L 552.49244165411 840.9365363837991 L 583.49244165411 840.9365363837991 L 583.49244165411 824.9365363837991 Z" stroke-opacity="1" stroke-miterlimit="10" stroke-width="1.25"/><text fill="#0f0f0f" stroke="none" font-family="Arial" font-size="9px" font-style="normal" font-weight="normal" text-decoration="normal" x="567.99244165411" y="832.9365363837991" text-anchor="middle" dominant-baseline="central">N:2</text><path fill="rgb(158,202,225)" stroke="rgb(85,85,85)" paint-order="fill stroke markers" d="" fill-opacity="0.5" stroke-opacity="1" stroke-miterlimit="10" stroke-width="1.25"/><text fill="rgb(0,0,0)" stroke="none" font-family="Helvetica" font-size="11px" font-style="normal" font-weight="normal" text-decoration="normal" x="579.49244165411" y="855.9365363837991" text-anchor="middle" dominant-baseline="text-after-edge" fill-opacity="1">Sis1</text><path fill="rgb(255,255,255)" stroke="rgb(85,85,85)" paint-order="fill stroke markers" d=" M 1144.314910895297 699.6975082127015 L 1144.314910895297 714.6975082127015 L 1159.314910895297 714.6975082127015 L 1159.314910895297 699.6975082127015 Z" fill-opacity="0.5" stroke-opacity="1" stroke-miterlimit="10" stroke-width="1.25"/><path fill="rgb(158,202,225)" stroke="rgb(85,85,85)" paint-order="fill stroke markers" d=" M 401.6963025356069 495.615816884865 L 428.6963025356069 495.615816884865 L 428.6963025356069 495.615816884865 A 8 8 0 0 1 436.6963025356069 503.615816884865 L 436.6963025356069 522.615816884865 L 436.6963025356069 522.615816884865 A 8 8 0 0 1 428.6963025356069 530.615816884865 L 374.6963025356069 530.615816884865 L 374.6963025356069 530.615816884865 A 8 8 0 0 1 366.6963025356069 522.615816884865 L 366.6963025356069 503.615816884865 L 366.6963025356069 503.615816884865 A 8 8 0 0 1 374.6963025356069 495.615816884865 L 401.6963025356069 495.615816884865 Z" fill-opacity="0.5" stroke-opacity="1" stroke-miterlimit="10" stroke-width="1.25"/><path fill="rgb(158,202,225)" stroke="rgb(85,85,85)" paint-order="fill stroke markers" d="" fill-opacity="0.5" stroke-opacity="1" stroke-miterlimit="10" stroke-width="1.25"/><text fill="rgb(0,0,0)" stroke="none" font-family="Helvetica" font-size="11px" font-style="normal" font-weight="normal" text-decoration="normal" x="401.6963025356069" y="518.115816884865" text-anchor="middle" dominant-baseline="text-after-edge" fill-opacity="1">E3(San1)</text><path fill="rgb(198,219,239)" stroke="rgb(85,85,85)" paint-order="fill stroke markers" d=" M 625.8485838347912 167.83317460782908 L 618.3485838347912 175.33317460782908 L 618.3485838347912 190.33317460782908 L 625.8485838347912 197.83317460782908 L 640.8485838347912 197.83317460782908 L 648.3485838347912 190.33317460782908 L 648.3485838347912 175.33317460782908 L 640.8485838347912 167.83317460782908 Z" fill-opacity="0.5" stroke-opacity="1" stroke-miterlimit="10" stroke-width="1.25"/><path fill="rgb(198,219,239)" stroke="rgb(85,85,85)" paint-order="fill stroke markers" d="" fill-opacity="0.5" stroke-opacity="1" stroke-miterlimit="10" stroke-width="1.25"/><text fill="rgb(0,0,0)" stroke="none" font-family="Helvetica" font-size="11px" font-style="normal" font-weight="normal" text-decoration="normal" x="633.3485838347912" y="182.83317460782908" text-anchor="middle" dominant-baseline="text-after-edge" fill-opacity="1">nuclear</text><text fill="rgb(0,0,0)" stroke="none" font-family="Helvetica" font-size="11px" font-style="normal" font-weight="normal" text-decoration="normal" x="633.3485838347912" y="193.33317460782908" text-anchor="middle" dominant-baseline="text-after-edge" fill-opacity="1">proteasome</text><path fill="rgb(255,255,255)" stroke="rgb(85,85,85)" paint-order="fill stroke markers" d=" M 697.2889425388836 389.4488102793575 L 697.2504092105477 390.4295489759555 L 697.1350467963229 391.40424109236034 L 696.9435665438546 392.36687732755627 L 696.677148992573 393.3115227090443 L 696.3374366952746 394.2323531839211 L 695.9265240912382 395.1236915261018 L 695.4469445933097 395.9800423383068 L 694.9016549685705 396.7961259330134 L 694.294017108884 397.56691088348475 L 693.6277773037154 398.28764504418933 L 692.9070431430109 398.95388484935785 L 692.1362581925395 399.5615227090443 L 691.320174597833 400.10681233378364 L 690.4638237856279 400.5863918317121 L 689.5724854434472 400.99730443574856 L 688.6516549685705 401.3370167330469 L 687.7070095870824 401.60343428432844 L 686.7443733518865 401.7949145367967 L 685.7696812354817 401.91027695102156 L 684.7889425388836 401.9488102793575 L 683.8082038422855 401.91027695102156 L 682.8335117258807 401.7949145367967 L 681.8708754906847 401.60343428432844 L 680.9262301091967 401.3370167330469 L 680.0053996343199 400.99730443574856 L 679.1140612921392 400.5863918317121 L 678.2577104799342 400.10681233378364 L 677.4416268852277 399.5615227090443 L 676.6708419347563 398.95388484935785 L 675.9501077740517 398.28764504418933 L 675.2838679688832 397.56691088348475 L 674.6762301091967 396.7961259330134 L 674.1309404844575 395.9800423383068 L 673.651360986529 395.1236915261018 L 673.2404483824926 394.2323531839211 L 672.9007360851941 393.3115227090443 L 672.6343185339126 392.36687732755627 L 672.4428382814443 391.40424109236034 L 672.3274758672195 390.4295489759555 L 672.2889425388836 389.4488102793575 L 672.3274758672195 388.4680715827594 L 672.4428382814443 387.4933794663546 L 672.6343185339126 386.5307432311587 L 672.9007360851941 385.58609784967064 L 673.2404483824926 384.66526737479387 L 673.651360986529 383.7739290326131 L 674.1309404844575 382.91757822040813 L 674.6762301091967 382.10149462570155 L 675.2838679688832 381.3307096752302 L 675.9501077740517 380.6099755145256 L 676.6708419347563 379.9437357093571 L 677.4416268852277 379.33609784967064 L 678.2577104799342 378.7908082249313 L 679.1140612921392 378.31122872700286 L 680.0053996343199 377.9003161229664 L 680.9262301091968 377.56060382566807 L 681.8708754906849 377.2941862743865 L 682.8335117258807 377.10270602191827 L 683.8082038422856 376.9873436076934 L 684.7889425388836 376.9488102793575 L 685.7696812354817 376.9873436076934 L 686.7443733518866 377.10270602191827 L 687.7070095870824 377.2941862743865 L 688.6516549685705 377.56060382566807 L 689.5724854434472 377.9003161229664 L 690.4638237856279 378.3112287270029 L 691.320174597833 378.79080822493137 L 692.1362581925396 379.3360978496707 L 692.9070431430109 379.94373570935716 L 693.6277773037154 380.6099755145257 L 694.2940171088841 381.33070967523025 L 694.9016549685705 382.10149462570166 L 695.4469445933098 382.9175782204082 L 695.9265240912382 383.77392903261324 L 696.3374366952747 384.665267374794 L 696.677148992573 385.58609784967075 L 696.9435665438546 386.5307432311588 L 697.1350467963229 387.4933794663547 L 697.2504092105477 388.46807158275953 Z" fill-opacity="0.5" stroke-opacity="1" stroke-miterlimit="10" stroke-width="1.25"/><text fill="rgb(0,0,0)" stroke="none" font-family="Helvetica Neue, Helvetica, sans-serif" font-size="10px" font-style="normal" font-weight="normal" text-decoration="normal" x="684.7889425388836" y="394.4488102793575" text-anchor="middle" dominant-baseline="text-after-edge" fill-opacity="1">AND</text><path fill="rgb(158,202,225)" stroke="rgb(85,85,85)" paint-order="fill stroke markers" d=" M 412.9436748352499 211.08259220380734 L 439.9436748352499 211.08259220380734 L 439.9436748352499 211.08259220380734 A 8 8 0 0 1 447.9436748352499 219.08259220380734 L 447.9436748352499 238.08259220380734 L 447.9436748352499 238.08259220380734 A 8 8 0 0 1 439.9436748352499 246.08259220380734 L 385.9436748352499 246.08259220380734 L 385.9436748352499 246.08259220380734 A 8 8 0 0 1 377.9436748352499 238.08259220380734 L 377.9436748352499 219.08259220380734 L 377.9436748352499 219.08259220380734 A 8 8 0 0 1 385.9436748352499 211.08259220380734 L 412.9436748352499 211.08259220380734 Z" fill-opacity="0.5" stroke-opacity="1" stroke-miterlimit="10" stroke-width="1.25"/><path fill="rgb(158,202,225)" stroke="rgb(85,85,85)" paint-order="fill stroke markers" d="" fill-opacity="0.5" stroke-opacity="1" stroke-miterlimit="10" stroke-width="1.25"/><text fill="rgb(0,0,0)" stroke="none" font-family="Helvetica" font-size="11px" font-style="normal" font-weight="normal" text-decoration="normal" x="412.9436748352499" y="233.58259220380734" text-anchor="middle" dominant-baseline="text-after-edge" fill-opacity="1">E3</text><path fill="rgb(158,202,225)" stroke="rgb(85,85,85)" paint-order="fill stroke markers" d=" M 144.28802147823492 381.70142970043474 L 171.28802147823492 381.70142970043474 L 171.28802147823492 381.70142970043474 A 8 8 0 0 1 179.28802147823492 389.70142970043474 L 179.28802147823492 408.70142970043474 L 179.28802147823492 408.70142970043474 A 8 8 0 0 1 171.28802147823492 416.70142970043474 L 117.28802147823492 416.70142970043474 L 117.28802147823492 416.70142970043474 A 8 8 0 0 1 109.28802147823492 408.70142970043474 L 109.28802147823492 389.70142970043474 L 109.28802147823492 389.70142970043474 A 8 8 0 0 1 117.28802147823492 381.70142970043474 L 144.28802147823492 381.70142970043474 Z" fill-opacity="0.5" stroke-opacity="1" stroke-miterlimit="10" stroke-width="1.25"/><path fill="rgb(158,202,225)" stroke="rgb(85,85,85)" paint-order="fill stroke markers" d="" fill-opacity="0.5" stroke-opacity="1" stroke-miterlimit="10" stroke-width="1.25"/><text fill="rgb(0,0,0)" stroke="none" font-family="Helvetica" font-size="11px" font-style="normal" font-weight="normal" text-decoration="normal" x="144.28802147823492" y="399.20142970043474" text-anchor="middle" dominant-baseline="text-after-edge" fill-opacity="1">PolyQ</text><text fill="rgb(0,0,0)" stroke="none" font-family="Helvetica" font-size="11px" font-style="normal" font-weight="normal" text-decoration="normal" x="144.28802147823492" y="409.70142970043474" text-anchor="middle" dominant-baseline="text-after-edge" fill-opacity="1">aggregates</text><path fill="rgb(158,202,225)" stroke="rgb(85,85,85)" paint-order="fill stroke markers" d=" M 343.16571384681043 573.9186339162088 L 372.16571384681043 573.9186339162088 L 372.16571384681043 573.9186339162088 A 8 8 0 0 1 380.16571384681043 581.9186339162088 L 380.16571384681043 601.9186339162088 L 380.16571384681043 601.9186339162088 A 8 8 0 0 1 372.16571384681043 609.9186339162088 L 314.16571384681043 609.9186339162088 L 314.16571384681043 609.9186339162088 A 8 8 0 0 1 306.16571384681043 601.9186339162088 L 306.16571384681043 581.9186339162088 L 306.16571384681043 581.9186339162088 A 8 8 0 0 1 314.16571384681043 573.9186339162088 L 343.16571384681043 573.9186339162088 Z" fill-opacity="0.5" stroke-opacity="1" stroke-miterlimit="10" stroke-width="1.25"/><path fill="rgb(158,202,225)" stroke="rgb(85,85,85)" paint-order="fill stroke markers" d=" M 338.16571384681043 568.9186339162088 L 367.16571384681043 568.9186339162088 L 367.16571384681043 568.9186339162088 A 8 8 0 0 1 375.16571384681043 576.9186339162088 L 375.16571384681043 596.9186339162088 L 375.16571384681043 596.9186339162088 A 8 8 0 0 1 367.16571384681043 604.9186339162088 L 309.16571384681043 604.9186339162088 L 309.16571384681043 604.9186339162088 A 8 8 0 0 1 301.16571384681043 596.9186339162088 L 301.16571384681043 576.9186339162088 L 301.16571384681043 576.9186339162088 A 8 8 0 0 1 309.16571384681043 568.9186339162088 L 338.16571384681043 568.9186339162088 Z" fill-opacity="0.5" stroke-opacity="1" stroke-miterlimit="10" stroke-width="1.25"/><path fill="#ffffff" stroke="rgb(85,85,85)" paint-order="fill stroke markers" d=" M 311.16571384681043 560.9186339162088 L 311.16571384681043 576.9186339162088 L 342.16571384681043 576.9186339162088 L 342.16571384681043 560.9186339162088 Z" stroke-opacity="1" stroke-miterlimit="10" stroke-width="1.25"/><text fill="#0f0f0f" stroke="none" font-family="Arial" font-size="9px" font-style="normal" font-weight="normal" text-decoration="normal" x="326.66571384681043" y="568.9186339162088" text-anchor="middle" dominant-baseline="central">N:2</text><path fill="rgb(158,202,225)" stroke="rgb(85,85,85)" paint-order="fill stroke markers" d="" fill-opacity="0.5" stroke-opacity="1" stroke-miterlimit="10" stroke-width="1.25"/><text fill="rgb(0,0,0)" stroke="none" font-family="Helvetica" font-size="11px" font-style="normal" font-weight="normal" text-decoration="normal" x="338.16571384681043" y="591.9186339162088" text-anchor="middle" dominant-baseline="text-after-edge" fill-opacity="1">Sis1</text><path fill="rgb(158,202,225)" stroke="rgb(85,85,85)" paint-order="fill stroke markers" d=" M 598.4611095403576 667.1170821402599 L 625.4611095403576 667.1170821402599 L 625.4611095403576 667.1170821402599 A 8 8 0 0 1 633.4611095403576 675.1170821402599 L 633.4611095403576 694.1170821402599 L 633.4611095403576 694.1170821402599 A 8 8 0 0 1 625.4611095403576 702.1170821402599 L 571.4611095403576 702.1170821402599 L 571.4611095403576 702.1170821402599 A 8 8 0 0 1 563.4611095403576 694.1170821402599 L 563.4611095403576 675.1170821402599 L 563.4611095403576 675.1170821402599 A 8 8 0 0 1 571.4611095403576 667.1170821402599 L 598.4611095403576 667.1170821402599 Z" fill-opacity="0.5" stroke-opacity="1" stroke-miterlimit="10" stroke-width="1.25"/><path fill="rgb(158,202,225)" stroke="rgb(85,85,85)" paint-order="fill stroke markers" d="" fill-opacity="0.5" stroke-opacity="1" stroke-miterlimit="10" stroke-width="1.25"/><text fill="rgb(0,0,0)" stroke="none" font-family="Helvetica" font-size="11px" font-style="normal" font-weight="normal" text-decoration="normal" x="598.4611095403576" y="689.6170821402599" text-anchor="middle" dominant-baseline="text-after-edge" fill-opacity="1">importin</text><path fill="rgb(158,202,225)" stroke="rgb(85,85,85)" paint-order="fill stroke markers" d=" M 911.5295238561658 475.06329291825836 L 938.5295238561658 475.06329291825836 L 938.5295238561658 475.06329291825836 A 8 8 0 0 1 946.5295238561658 483.06329291825836 L 946.5295238561658 502.06329291825836 L 946.5295238561658 502.06329291825836 A 8 8 0 0 1 938.5295238561658 510.06329291825836 L 884.5295238561658 510.06329291825836 L 884.5295238561658 510.06329291825836 A 8 8 0 0 1 876.5295238561658 502.06329291825836 L 876.5295238561658 483.06329291825836 L 876.5295238561658 483.06329291825836 A 8 8 0 0 1 884.5295238561658 475.06329291825836 L 911.5295238561658 475.06329291825836 Z" fill-opacity="0.5" stroke-opacity="1" stroke-miterlimit="10" stroke-width="1.25"/><path fill="rgb(158,202,225)" stroke="rgb(85,85,85)" paint-order="fill stroke markers" d="" fill-opacity="0.5" stroke-opacity="1" stroke-miterlimit="10" stroke-width="1.25"/><text fill="rgb(0,0,0)" stroke="none" font-family="Helvetica" font-size="11px" font-style="normal" font-weight="normal" text-decoration="normal" x="911.5295238561658" y="497.56329291825836" text-anchor="middle" dominant-baseline="text-after-edge" fill-opacity="1">Hsp70</text><path fill="rgb(158,202,225)" stroke="rgb(85,85,85)" paint-order="fill stroke markers" d=" M 580.3162306028532 547.2752803656604 L 609.3162306028532 547.2752803656604 L 609.3162306028532 547.2752803656604 A 8 8 0 0 1 617.3162306028532 555.2752803656604 L 617.3162306028532 575.2752803656604 L 617.3162306028532 575.2752803656604 A 8 8 0 0 1 609.3162306028532 583.2752803656604 L 551.3162306028532 583.2752803656604 L 551.3162306028532 583.2752803656604 A 8 8 0 0 1 543.3162306028532 575.2752803656604 L 543.3162306028532 555.2752803656604 L 543.3162306028532 555.2752803656604 A 8 8 0 0 1 551.3162306028532 547.2752803656604 L 580.3162306028532 547.2752803656604 Z" fill-opacity="0.5" stroke-opacity="1" stroke-miterlimit="10" stroke-width="1.25"/><path fill="#a9a9a9" stroke="none" paint-order="stroke fill markers" d=" M 543.3162306028532 574.2752803656604 L 617.3162306028532 574.2752803656604 L 617.3162306028532 578.7752803656604 L 617.3162306028532 575.2752803656604 L 617.3162306028532 575.2752803656604 A 8 8 0 0 1 609.3162306028532 583.2752803656604 L 551.3162306028532 583.2752803656604 L 551.3162306028532 583.2752803656604 A 8 8 0 0 1 543.3162306028532 575.2752803656604 L 543.3162306028532 574.2752803656604 Z" fill-opacity="0.5"/><path fill="rgb(158,202,225)" stroke="rgb(85,85,85)" paint-order="fill stroke markers" d=" M 575.3162306028532 542.2752803656604 L 604.3162306028532 542.2752803656604 L 604.3162306028532 542.2752803656604 A 8 8 0 0 1 612.3162306028532 550.2752803656604 L 612.3162306028532 570.2752803656604 L 612.3162306028532 570.2752803656604 A 8 8 0 0 1 604.3162306028532 578.2752803656604 L 546.3162306028532 578.2752803656604 L 546.3162306028532 578.2752803656604 A 8 8 0 0 1 538.3162306028532 570.2752803656604 L 538.3162306028532 550.2752803656604 L 538.3162306028532 550.2752803656604 A 8 8 0 0 1 546.3162306028532 542.2752803656604 L 575.3162306028532 542.2752803656604 Z" fill-opacity="0.5" stroke-opacity="1" stroke-miterlimit="10" stroke-width="1.25"/><path fill="#a9a9a9" stroke="none" paint-order="stroke fill markers" d=" M 538.3162306028532 569.2752803656604 L 612.3162306028532 569.2752803656604 L 612.3162306028532 573.7752803656604 L 612.3162306028532 570.2752803656604 L 612.3162306028532 570.2752803656604 A 8 8 0 0 1 604.3162306028532 578.2752803656604 L 546.3162306028532 578.2752803656604 L 546.3162306028532 578.2752803656604 A 8 8 0 0 1 538.3162306028532 570.2752803656604 L 538.3162306028532 569.2752803656604 Z" fill-opacity="0.5"/><path fill="#ffffff" stroke="rgb(85,85,85)" paint-order="fill stroke markers" d=" M 548.3162306028532 534.2752803656604 L 548.3162306028532 550.2752803656604 L 579.3162306028532 550.2752803656604 L 579.3162306028532 534.2752803656604 Z" stroke-opacity="1" stroke-miterlimit="10" stroke-width="1.25"/><text fill="#0f0f0f" stroke="none" font-family="Arial" font-size="9px" font-style="normal" font-weight="normal" text-decoration="normal" x="563.8162306028532" y="542.2752803656604" text-anchor="middle" dominant-baseline="central">N:2</text><path fill="rgb(158,202,225)" stroke="rgb(85,85,85)" paint-order="fill stroke markers" d="" fill-opacity="0.5" stroke-opacity="1" stroke-miterlimit="10" stroke-width="1.25"/><text fill="rgb(0,0,0)" stroke="none" font-family="Helvetica" font-size="11px" font-style="normal" font-weight="normal" text-decoration="normal" x="575.3162306028532" y="565.2752803656604" text-anchor="middle" dominant-baseline="text-after-edge" fill-opacity="1">Sis1</text><path fill="rgb(158,202,225)" stroke="rgb(85,85,85)" paint-order="fill stroke markers" d=" M 170.9410077415888 356.6109333438121 L 197.9410077415888 356.6109333438121 L 197.9410077415888 356.6109333438121 A 8 8 0 0 1 205.9410077415888 364.6109333438121 L 205.9410077415888 383.6109333438121 L 205.9410077415888 383.6109333438121 A 8 8 0 0 1 197.9410077415888 391.6109333438121 L 143.9410077415888 391.6109333438121 L 143.9410077415888 391.6109333438121 A 8 8 0 0 1 135.9410077415888 383.6109333438121 L 135.9410077415888 364.6109333438121 L 135.9410077415888 364.6109333438121 A 8 8 0 0 1 143.9410077415888 356.6109333438121 L 170.9410077415888 356.6109333438121 Z" fill-opacity="0.5" stroke-opacity="1" stroke-miterlimit="10" stroke-width="1.25"/><path fill="rgb(158,202,225)" stroke="rgb(85,85,85)" paint-order="fill stroke markers" d="" fill-opacity="0.5" stroke-opacity="1" stroke-miterlimit="10" stroke-width="1.25"/><text fill="rgb(0,0,0)" stroke="none" font-family="Helvetica" font-size="11px" font-style="normal" font-weight="normal" text-decoration="normal" x="170.9410077415888" y="374.1109333438121" text-anchor="middle" dominant-baseline="text-after-edge" fill-opacity="1">PolyQ</text><text fill="rgb(0,0,0)" stroke="none" font-family="Helvetica" font-size="11px" font-style="normal" font-weight="normal" text-decoration="normal" x="170.9410077415888" y="384.6109333438121" text-anchor="middle" dominant-baseline="text-after-edge" fill-opacity="1">aggregates</text><path fill="rgb(112,112,112)" stroke="rgb(85,85,85)" paint-order="fill stroke markers" d=" M 183.46721719170318 437.1893045222753 L 183.44409719470164 437.77774774023413 L 183.37487974616673 438.362563010077 L 183.25999159468577 438.94014475119457 L 183.10014106391682 439.50693198008736 L 182.89631368553785 440.0594302650135 L 182.64976612311594 440.59423327032187 L 182.36201842435887 441.1080437576449 L 182.0348446495153 441.59769391446883 L 181.67026193370342 442.06016488475166 L 181.27051805060228 442.49260538117437 L 180.83807755417956 442.89234926427554 L 180.37560658389674 443.25693198008736 L 179.8859564270728 443.584105754931 L 179.3721459397498 443.87185345368806 L 178.83734293444135 444.11840101610994 L 178.2848446495153 444.32222839448895 L 177.71805742062247 444.48207892525784 L 177.1404756795049 444.5969670767388 L 176.555660409662 444.66618452527376 L 175.96721719170318 444.6893045222753 L 175.37877397374436 444.66618452527376 L 174.79395870390147 444.5969670767388 L 174.2163769627839 444.48207892525784 L 173.64958973389108 444.32222839448895 L 173.09709144896502 444.11840101610994 L 172.5622884436566 443.87185345368806 L 172.04847795633356 443.584105754931 L 171.55882779950963 443.25693198008736 L 171.0963568292268 442.89234926427554 L 170.6639163328041 442.49260538117437 L 170.26417244970295 442.06016488475166 L 169.89958973389108 441.59769391446883 L 169.5724159590475 441.1080437576449 L 169.28466826029043 440.59423327032187 L 169.03812069786852 440.0594302650135 L 168.83429331948955 439.50693198008736 L 168.6744427887206 438.94014475119457 L 168.55955463723964 438.362563010077 L 168.49033718870473 437.77774774023413 L 168.46721719170318 437.1893045222753 L 168.49033718870473 436.6008613043164 L 168.55955463723964 436.01604603447356 L 168.6744427887206 435.438464293356 L 168.83429331948952 434.8716770644632 L 169.03812069786852 434.3191787795371 L 169.28466826029043 433.7843757742287 L 169.5724159590475 433.27056528690565 L 169.89958973389108 432.7809151300817 L 170.26417244970295 432.3184441597989 L 170.66391633280406 431.8860036633762 L 171.0963568292268 431.4862597802751 L 171.55882779950963 431.1216770644632 L 172.04847795633356 430.79450328961957 L 172.5622884436566 430.5067555908625 L 173.09709144896502 430.2602080284406 L 173.64958973389108 430.0563806500616 L 174.2163769627839 429.8965301192927 L 174.79395870390147 429.78164196781177 L 175.37877397374436 429.7124245192768 L 175.9672171917032 429.6893045222753 L 176.55566040966204 429.7124245192768 L 177.14047567950496 429.78164196781177 L 177.7180574206225 429.8965301192927 L 178.28484464951532 430.0563806500616 L 178.8373429344414 430.2602080284406 L 179.37214593974983 430.50675559086255 L 179.88595642707284 430.7945032896196 L 180.37560658389677 431.1216770644632 L 180.8380775541796 431.4862597802751 L 181.27051805060233 431.8860036633762 L 181.67026193370344 432.31844415979896 L 182.03484464951532 432.7809151300818 L 182.36201842435892 433.2705652869057 L 182.64976612311597 433.78437577422875 L 182.89631368553788 434.3191787795372 L 183.10014106391685 434.87167706446326 L 183.25999159468577 435.43846429335605 L 183.37487974616673 436.0160460344736 L 183.44409719470164 436.60086130431654 Z" fill-opacity="0.5" stroke-opacity="1" stroke-miterlimit="10" stroke-width="1.25"/><path fill="rgb(158,202,225)" stroke="rgb(85,85,85)" paint-order="fill stroke markers" d=" M 265.9231779281676 448.33322832123616 L 294.9231779281676 448.33322832123616 L 294.9231779281676 448.33322832123616 A 8 8 0 0 1 302.9231779281676 456.33322832123616 L 302.9231779281676 476.33322832123616 L 302.9231779281676 476.33322832123616 A 8 8 0 0 1 294.9231779281676 484.33322832123616 L 236.9231779281676 484.33322832123616 L 236.9231779281676 484.33322832123616 A 8 8 0 0 1 228.9231779281676 476.33322832123616 L 228.9231779281676 456.33322832123616 L 228.9231779281676 456.33322832123616 A 8 8 0 0 1 236.9231779281676 448.33322832123616 L 265.9231779281676 448.33322832123616 Z" fill-opacity="0.5" stroke-opacity="1" stroke-miterlimit="10" stroke-width="1.25"/><path fill="#a9a9a9" stroke="none" paint-order="stroke fill markers" d=" M 228.9231779281676 475.33322832123616 L 302.9231779281676 475.33322832123616 L 302.9231779281676 479.83322832123616 L 302.9231779281676 476.33322832123616 L 302.9231779281676 476.33322832123616 A 8 8 0 0 1 294.9231779281676 484.33322832123616 L 236.9231779281676 484.33322832123616 L 236.9231779281676 484.33322832123616 A 8 8 0 0 1 228.9231779281676 476.33322832123616 L 228.9231779281676 475.33322832123616 Z" fill-opacity="0.5"/><path fill="rgb(158,202,225)" stroke="rgb(85,85,85)" paint-order="fill stroke markers" d=" M 260.9231779281676 443.33322832123616 L 289.9231779281676 443.33322832123616 L 289.9231779281676 443.33322832123616 A 8 8 0 0 1 297.9231779281676 451.33322832123616 L 297.9231779281676 471.33322832123616 L 297.9231779281676 471.33322832123616 A 8 8 0 0 1 289.9231779281676 479.33322832123616 L 231.9231779281676 479.33322832123616 L 231.9231779281676 479.33322832123616 A 8 8 0 0 1 223.9231779281676 471.33322832123616 L 223.9231779281676 451.33322832123616 L 223.9231779281676 451.33322832123616 A 8 8 0 0 1 231.9231779281676 443.33322832123616 L 260.9231779281676 443.33322832123616 Z" fill-opacity="0.5" stroke-opacity="1" stroke-miterlimit="10" stroke-width="1.25"/><path fill="#a9a9a9" stroke="none" paint-order="stroke fill markers" d=" M 223.9231779281676 470.33322832123616 L 297.9231779281676 470.33322832123616 L 297.9231779281676 474.83322832123616 L 297.9231779281676 471.33322832123616 L 297.9231779281676 471.33322832123616 A 8 8 0 0 1 289.9231779281676 479.33322832123616 L 231.9231779281676 479.33322832123616 L 231.9231779281676 479.33322832123616 A 8 8 0 0 1 223.9231779281676 471.33322832123616 L 223.9231779281676 470.33322832123616 Z" fill-opacity="0.5"/><path fill="#ffffff" stroke="rgb(85,85,85)" paint-order="fill stroke markers" d=" M 233.9231779281676 435.33322832123616 L 233.9231779281676 451.33322832123616 L 264.9231779281676 451.33322832123616 L 264.9231779281676 435.33322832123616 Z" stroke-opacity="1" stroke-miterlimit="10" stroke-width="1.25"/><text fill="#0f0f0f" stroke="none" font-family="Arial" font-size="9px" font-style="normal" font-weight="normal" text-decoration="normal" x="249.4231779281676" y="443.33322832123616" text-anchor="middle" dominant-baseline="central">N:2</text><path fill="rgb(158,202,225)" stroke="rgb(85,85,85)" paint-order="fill stroke markers" d="" fill-opacity="0.5" stroke-opacity="1" stroke-miterlimit="10" stroke-width="1.25"/><text fill="rgb(0,0,0)" stroke="none" font-family="Helvetica" font-size="11px" font-style="normal" font-weight="normal" text-decoration="normal" x="260.9231779281676" y="466.33322832123616" text-anchor="middle" dominant-baseline="text-after-edge" fill-opacity="1">Sis1</text><path fill="rgb(112,112,112)" stroke="rgb(85,85,85)" paint-order="fill stroke markers" d=" M 356.4528073903657 457.80555206200694 L 356.4296873933642 458.3939952799658 L 356.3604699448292 458.97881054980866 L 356.24558179334826 459.5563922909262 L 356.0857312625794 460.123179519819 L 355.88190388420037 460.67567780474513 L 355.6353563217785 461.2104808100535 L 355.3476086230214 461.72429129737657 L 355.0204348481778 462.2139414542005 L 354.65585213236596 462.6764124244833 L 354.2561082492648 463.10885292090603 L 353.8236677528421 463.5085968040072 L 353.36119678255926 463.873179519819 L 352.87154662573533 464.20035329466265 L 352.3577361384123 464.4881009934197 L 351.8229331331039 464.7346485558416 L 351.2704348481778 464.9384759342206 L 350.703647619285 465.0983264649895 L 350.1260658781674 465.21321461647045 L 349.54125060832456 465.2824320650054 L 348.9528073903657 465.30555206200694 L 348.36436417240685 465.2824320650054 L 347.779548902564 465.21321461647045 L 347.2019671614464 465.0983264649895 L 346.6351799325536 464.9384759342206 L 346.0826816476275 464.7346485558416 L 345.5478786423191 464.4881009934197 L 345.0340681549961 464.20035329466265 L 344.54441799817215 463.873179519819 L 344.0819470278893 463.5085968040072 L 343.6495065314666 463.10885292090603 L 343.24976264836545 462.6764124244833 L 342.8851799325536 462.2139414542005 L 342.55800615771 461.72429129737657 L 342.2702584589529 461.2104808100535 L 342.02371089653104 460.67567780474513 L 341.81988351815204 460.123179519819 L 341.66003298738315 459.5563922909262 L 341.5451448359022 458.97881054980866 L 341.4759273873672 458.3939952799658 L 341.4528073903657 457.80555206200694 L 341.4759273873672 457.2171088440481 L 341.5451448359022 456.6322935742052 L 341.66003298738315 456.05471183308765 L 341.81988351815204 455.48792460419486 L 342.02371089653104 454.93542631926874 L 342.2702584589529 454.40062331396035 L 342.55800615771 453.8868128266373 L 342.8851799325536 453.3971626698134 L 343.24976264836545 452.93469169953056 L 343.6495065314666 452.50225120310785 L 344.0819470278893 452.10250732000674 L 344.54441799817215 451.73792460419486 L 345.0340681549961 451.41075082935123 L 345.5478786423191 451.12300313059416 L 346.08268164762757 450.8764555681723 L 346.6351799325536 450.6726281897933 L 347.2019671614464 450.5127776590244 L 347.779548902564 450.3978895075434 L 348.3643641724069 450.32867205900845 L 348.9528073903657 450.30555206200694 L 349.54125060832456 450.32867205900845 L 350.1260658781675 450.3978895075434 L 350.70364761928505 450.5127776590244 L 351.27043484817784 450.6726281897933 L 351.8229331331039 450.87645556817233 L 352.35773613841235 451.1230031305942 L 352.8715466257354 451.4107508293513 L 353.3611967825593 451.73792460419486 L 353.82366775284214 452.10250732000674 L 354.25610824926486 452.50225120310785 L 354.65585213236596 452.9346916995306 L 355.02043484817784 453.39716266981344 L 355.3476086230214 453.88681282663737 L 355.6353563217785 454.4006233139604 L 355.88190388420037 454.93542631926886 L 356.0857312625794 455.4879246041949 L 356.2455817933483 456.0547118330877 L 356.3604699448293 456.6322935742053 L 356.4296873933642 457.2171088440482 Z" fill-opacity="0.5" stroke-opacity="1" stroke-miterlimit="10" stroke-width="1.25"/><path fill="rgb(158,202,225)" stroke="rgb(85,85,85)" paint-order="fill stroke markers" d=" M 212.2496342136387 498.8550818514476 L 212.2496342136387 498.8550818514476 L 212.2496342136387 498.8550818514476 A 20 20 0 0 1 232.2496342136387 518.8550818514476 L 232.2496342136387 518.8550818514476 L 232.2496342136387 518.8550818514476 A 20 20 0 0 1 212.2496342136387 538.8550818514476 L 212.2496342136387 538.8550818514476 L 212.2496342136387 538.8550818514476 A 20 20 0 0 1 192.2496342136387 518.8550818514476 L 192.2496342136387 518.8550818514476 L 192.2496342136387 518.8550818514476 A 20 20 0 0 1 212.2496342136387 498.8550818514476 L 212.2496342136387 498.8550818514476 Z" fill-opacity="0.5" stroke-opacity="1" stroke-miterlimit="10" stroke-width="1.25"/><path fill="rgb(158,202,225)" stroke="rgb(85,85,85)" paint-order="fill stroke markers" d="" fill-opacity="0.5" stroke-opacity="1" stroke-miterlimit="10" stroke-width="1.25"/><text fill="rgb(0,0,0)" stroke="none" font-family="Helvetica" font-size="11px" font-style="normal" font-weight="normal" text-decoration="normal" x="212.2496342136387" y="523.8550818514476" text-anchor="middle" dominant-baseline="text-after-edge" fill-opacity="1">Ub</text><path fill="rgb(158,202,225)" stroke="rgb(85,85,85)" paint-order="fill stroke markers" d=" M 518.3514784193783 323.6175978186027 L 545.3514784193783 323.6175978186027 L 545.3514784193783 323.6175978186027 A 8 8 0 0 1 553.3514784193783 331.6175978186027 L 553.3514784193783 350.6175978186027 L 553.3514784193783 350.6175978186027 A 8 8 0 0 1 545.3514784193783 358.6175978186027 L 491.3514784193783 358.6175978186027 L 491.3514784193783 358.6175978186027 A 8 8 0 0 1 483.3514784193783 350.6175978186027 L 483.3514784193783 331.6175978186027 L 483.3514784193783 331.6175978186027 A 8 8 0 0 1 491.3514784193783 323.6175978186027 L 518.3514784193783 323.6175978186027 Z" fill-opacity="0.5" stroke-opacity="1" stroke-miterlimit="10" stroke-width="1.25"/><path fill="#ffffff" stroke="rgb(85,85,85)" paint-order="fill stroke markers" d=" M 503.3514784193783 313.6175978186027 L 503.3514784193783 313.6175978186027 L 503.3514784193783 313.6175978186027 A 10 10 0 0 1 513.3514784193783 323.6175978186027 L 513.3514784193783 323.6175978186027 L 513.3514784193783 323.6175978186027 A 10 10 0 0 1 503.3514784193783 333.6175978186027 L 503.3514784193783 333.6175978186027 L 503.3514784193783 333.6175978186027 A 10 10 0 0 1 493.3514784193783 323.6175978186027 L 493.3514784193783 323.6175978186027 L 493.3514784193783 323.6175978186027 A 10 10 0 0 1 503.3514784193783 313.6175978186027 L 503.3514784193783 313.6175978186027 Z" stroke-opacity="1" stroke-miterlimit="10" stroke-width="1.25"/><path fill="rgb(158,202,225)" stroke="rgb(85,85,85)" paint-order="fill stroke markers" d="" fill-opacity="0.5" stroke-opacity="1" stroke-miterlimit="10" stroke-width="1.25"/><text fill="rgb(0,0,0)" stroke="none" font-family="Helvetica" font-size="11px" font-style="normal" font-weight="normal" text-decoration="normal" x="518.3514784193783" y="341.1175978186027" text-anchor="middle" dominant-baseline="text-after-edge" fill-opacity="1">misfolded</text><text fill="rgb(0,0,0)" stroke="none" font-family="Helvetica" font-size="11px" font-style="normal" font-weight="normal" text-decoration="normal" x="518.3514784193783" y="351.6175978186027" text-anchor="middle" dominant-baseline="text-after-edge" fill-opacity="1">protein</text><path fill="rgb(158,202,225)" stroke="rgb(85,85,85)" paint-order="fill stroke markers" d=" M 210.2401839429156 196.28466137362648 L 237.2401839429156 196.28466137362648 L 237.2401839429156 196.28466137362648 A 8 8 0 0 1 245.2401839429156 204.28466137362648 L 245.2401839429156 223.28466137362648 L 245.2401839429156 223.28466137362648 A 8 8 0 0 1 237.2401839429156 231.28466137362648 L 183.2401839429156 231.28466137362648 L 183.2401839429156 231.28466137362648 A 8 8 0 0 1 175.2401839429156 223.28466137362648 L 175.2401839429156 204.28466137362648 L 175.2401839429156 204.28466137362648 A 8 8 0 0 1 183.2401839429156 196.28466137362648 L 210.2401839429156 196.28466137362648 Z" fill-opacity="0.5" stroke-opacity="1" stroke-miterlimit="10" stroke-width="1.25"/><path fill="rgb(158,202,225)" stroke="rgb(85,85,85)" paint-order="fill stroke markers" d="" fill-opacity="0.5" stroke-opacity="1" stroke-miterlimit="10" stroke-width="1.25"/><text fill="rgb(0,0,0)" stroke="none" font-family="Helvetica" font-size="11px" font-style="normal" font-weight="normal" text-decoration="normal" x="210.2401839429156" y="218.78466137362648" text-anchor="middle" dominant-baseline="text-after-edge" fill-opacity="1">Hsp70</text><path fill="rgb(255,255,255)" stroke="rgb(85,85,85)" paint-order="fill stroke markers" d=" M 430.75292234154136 280.6672136029804 L 430.75292234154136 295.6672136029804 L 445.75292234154136 295.6672136029804 L 445.75292234154136 280.6672136029804 Z" fill-opacity="0.5" stroke-opacity="1" stroke-miterlimit="10" stroke-width="1.25"/><path fill="rgb(158,202,225)" stroke="rgb(85,85,85)" paint-order="fill stroke markers" d=" M 433.1029130996497 545.0138433989553 L 460.1029130996497 545.0138433989553 L 460.1029130996497 545.0138433989553 A 8 8 0 0 1 468.1029130996497 553.0138433989553 L 468.1029130996497 572.0138433989553 L 468.1029130996497 572.0138433989553 A 8 8 0 0 1 460.1029130996497 580.0138433989553 L 406.1029130996497 580.0138433989553 L 406.1029130996497 580.0138433989553 A 8 8 0 0 1 398.1029130996497 572.0138433989553 L 398.1029130996497 553.0138433989553 L 398.1029130996497 553.0138433989553 A 8 8 0 0 1 406.1029130996497 545.0138433989553 L 433.1029130996497 545.0138433989553 Z" fill-opacity="0.5" stroke-opacity="1" stroke-miterlimit="10" stroke-width="1.25"/><path fill="rgb(158,202,225)" stroke="rgb(85,85,85)" paint-order="fill stroke markers" d="" fill-opacity="0.5" stroke-opacity="1" stroke-miterlimit="10" stroke-width="1.25"/><text fill="rgb(0,0,0)" stroke="none" font-family="Helvetica" font-size="11px" font-style="normal" font-weight="normal" text-decoration="normal" x="433.1029130996497" y="567.5138433989553" text-anchor="middle" dominant-baseline="text-after-edge" fill-opacity="1">Hsp70</text><path fill="rgb(158,202,225)" stroke="rgb(85,85,85)" paint-order="fill stroke markers" d=" M 512.3529130996496 545.0138433989553 L 539.3529130996496 545.0138433989553 L 539.3529130996496 545.0138433989553 A 8 8 0 0 1 547.3529130996496 553.0138433989553 L 547.3529130996496 572.0138433989553 L 547.3529130996496 572.0138433989553 A 8 8 0 0 1 539.3529130996496 580.0138433989553 L 485.35291309964964 580.0138433989553 L 485.35291309964964 580.0138433989553 A 8 8 0 0 1 477.35291309964964 572.0138433989553 L 477.35291309964964 553.0138433989553 L 477.35291309964964 553.0138433989553 A 8 8 0 0 1 485.35291309964964 545.0138433989553 L 512.3529130996496 545.0138433989553 Z" fill-opacity="0.5" stroke-opacity="1" stroke-miterlimit="10" stroke-width="1.25"/><path fill="rgb(158,202,225)" stroke="rgb(85,85,85)" paint-order="fill stroke markers" d="" fill-opacity="0.5" stroke-opacity="1" stroke-miterlimit="10" stroke-width="1.25"/><text fill="rgb(0,0,0)" stroke="none" font-family="Helvetica" font-size="11px" font-style="normal" font-weight="normal" text-decoration="normal" x="512.3529130996496" y="562.5138433989553" text-anchor="middle" dominant-baseline="text-after-edge" fill-opacity="1">misfolded</text><text fill="rgb(0,0,0)" stroke="none" font-family="Helvetica" font-size="11px" font-style="normal" font-weight="normal" text-decoration="normal" x="512.3529130996496" y="573.0138433989553" text-anchor="middle" dominant-baseline="text-after-edge" fill-opacity="1">protein</text><path fill="rgb(158,202,225)" stroke="rgb(85,85,85)" paint-order="fill stroke markers" d=" M 440.1029130996497 504.76384339895526 L 469.1029130996497 504.76384339895526 L 469.1029130996497 504.76384339895526 A 8 8 0 0 1 477.1029130996497 512.7638433989553 L 477.1029130996497 532.7638433989553 L 477.1029130996497 532.7638433989553 A 8 8 0 0 1 469.1029130996497 540.7638433989553 L 411.1029130996497 540.7638433989553 L 411.1029130996497 540.7638433989553 A 8 8 0 0 1 403.1029130996497 532.7638433989553 L 403.1029130996497 512.7638433989553 L 403.1029130996497 512.7638433989553 A 8 8 0 0 1 411.1029130996497 504.76384339895526 L 440.1029130996497 504.76384339895526 Z" fill-opacity="0.5" stroke-opacity="1" stroke-miterlimit="10" stroke-width="1.25"/><path fill="rgb(158,202,225)" stroke="rgb(85,85,85)" paint-order="fill stroke markers" d=" M 435.1029130996497 499.76384339895526 L 464.1029130996497 499.76384339895526 L 464.1029130996497 499.76384339895526 A 8 8 0 0 1 472.1029130996497 507.76384339895526 L 472.1029130996497 527.7638433989553 L 472.1029130996497 527.7638433989553 A 8 8 0 0 1 464.1029130996497 535.7638433989553 L 406.1029130996497 535.7638433989553 L 406.1029130996497 535.7638433989553 A 8 8 0 0 1 398.1029130996497 527.7638433989553 L 398.1029130996497 507.76384339895526 L 398.1029130996497 507.76384339895526 A 8 8 0 0 1 406.1029130996497 499.76384339895526 L 435.1029130996497 499.76384339895526 Z" fill-opacity="0.5" stroke-opacity="1" stroke-miterlimit="10" stroke-width="1.25"/><path fill="#ffffff" stroke="rgb(85,85,85)" paint-order="fill stroke markers" d=" M 408.1029130996497 491.76384339895526 L 408.1029130996497 507.76384339895526 L 439.1029130996497 507.76384339895526 L 439.1029130996497 491.76384339895526 Z" stroke-opacity="1" stroke-miterlimit="10" stroke-width="1.25"/><text fill="#0f0f0f" stroke="none" font-family="Arial" font-size="9px" font-style="normal" font-weight="normal" text-decoration="normal" x="423.6029130996497" y="499.76384339895526" text-anchor="middle" dominant-baseline="central">N:2</text><path fill="rgb(158,202,225)" stroke="rgb(85,85,85)" paint-order="fill stroke markers" d="" fill-opacity="0.5" stroke-opacity="1" stroke-miterlimit="10" stroke-width="1.25"/><text fill="rgb(0,0,0)" stroke="none" font-family="Helvetica" font-size="11px" font-style="normal" font-weight="normal" text-decoration="normal" x="435.1029130996497" y="522.7638433989553" text-anchor="middle" dominant-baseline="text-after-edge" fill-opacity="1">Sis1</text><path fill="rgb(255,255,255)" stroke="rgb(85,85,85)" paint-order="fill stroke markers" d=" M 618.0012880921402 619.6772181646461 L 618.0012880921402 634.6772181646461 L 633.0012880921402 634.6772181646461 L 633.0012880921402 619.6772181646461 Z" fill-opacity="0.5" stroke-opacity="1" stroke-miterlimit="10" stroke-width="1.25"/><path fill="rgb(255,255,255)" stroke="rgb(85,85,85)" paint-order="fill stroke markers" d=" M 302.4891870959859 239.5969349601345 L 302.4891870959859 254.5969349601345 L 317.4891870959859 254.5969349601345 L 317.4891870959859 239.5969349601345 Z" fill-opacity="0.5" stroke-opacity="1" stroke-miterlimit="10" stroke-width="1.25"/><path fill="rgb(198,219,239)" stroke="rgb(85,85,85)" paint-order="fill stroke markers" d=" M 186.3069819738776 226.01814117769504 L 178.8069819738776 233.51814117769504 L 178.8069819738776 248.51814117769504 L 186.3069819738776 256.01814117769504 L 201.3069819738776 256.01814117769504 L 208.8069819738776 248.51814117769504 L 208.8069819738776 233.51814117769504 L 201.3069819738776 226.01814117769504 Z" fill-opacity="0.5" stroke-opacity="1" stroke-miterlimit="10" stroke-width="1.25"/><path fill="rgb(198,219,239)" stroke="rgb(85,85,85)" paint-order="fill stroke markers" d="" fill-opacity="0.5" stroke-opacity="1" stroke-miterlimit="10" stroke-width="1.25"/><text fill="rgb(0,0,0)" stroke="none" font-family="Helvetica" font-size="11px" font-style="normal" font-weight="normal" text-decoration="normal" x="193.8069819738776" y="241.01814117769504" text-anchor="middle" dominant-baseline="text-after-edge" fill-opacity="1">cytosolic</text><text fill="rgb(0,0,0)" stroke="none" font-family="Helvetica" font-size="11px" font-style="normal" font-weight="normal" text-decoration="normal" x="193.8069819738776" y="251.51814117769504" text-anchor="middle" dominant-baseline="text-after-edge" fill-opacity="1">proteasome</text><path fill="rgb(158,202,225)" stroke="rgb(85,85,85)" paint-order="fill stroke markers" d=" M 372.22583845735585 132.99130207384545 L 399.22583845735585 132.99130207384545 L 399.22583845735585 132.99130207384545 A 8 8 0 0 1 407.22583845735585 140.99130207384545 L 407.22583845735585 159.99130207384545 L 407.22583845735585 159.99130207384545 A 8 8 0 0 1 399.22583845735585 167.99130207384545 L 345.22583845735585 167.99130207384545 L 345.22583845735585 167.99130207384545 A 8 8 0 0 1 337.22583845735585 159.99130207384545 L 337.22583845735585 140.99130207384545 L 337.22583845735585 140.99130207384545 A 8 8 0 0 1 345.22583845735585 132.99130207384545 L 372.22583845735585 132.99130207384545 Z" fill-opacity="0.5" stroke-opacity="1" stroke-miterlimit="10" stroke-width="1.25"/><path fill="rgb(158,202,225)" stroke="rgb(85,85,85)" paint-order="fill stroke markers" d="" fill-opacity="0.5" stroke-opacity="1" stroke-miterlimit="10" stroke-width="1.25"/><text fill="rgb(0,0,0)" stroke="none" font-family="Helvetica" font-size="11px" font-style="normal" font-weight="normal" text-decoration="normal" x="372.22583845735585" y="150.49130207384545" text-anchor="middle" dominant-baseline="text-after-edge" fill-opacity="1">misfolded</text><text fill="rgb(0,0,0)" stroke="none" font-family="Helvetica" font-size="11px" font-style="normal" font-weight="normal" text-decoration="normal" x="372.22583845735585" y="160.99130207384545" text-anchor="middle" dominant-baseline="text-after-edge" fill-opacity="1">protein</text><path fill="rgb(158,202,225)" stroke="rgb(85,85,85)" paint-order="fill stroke markers" d=" M 425.73019498320866 706.7499338986645 L 452.73019498320866 706.7499338986645 L 452.73019498320866 706.7499338986645 A 8 8 0 0 1 460.73019498320866 714.7499338986645 L 460.73019498320866 733.7499338986645 L 460.73019498320866 733.7499338986645 A 8 8 0 0 1 452.73019498320866 741.7499338986645 L 398.73019498320866 741.7499338986645 L 398.73019498320866 741.7499338986645 A 8 8 0 0 1 390.73019498320866 733.7499338986645 L 390.73019498320866 714.7499338986645 L 390.73019498320866 714.7499338986645 A 8 8 0 0 1 398.73019498320866 706.7499338986645 L 425.73019498320866 706.7499338986645 Z" fill-opacity="0.5" stroke-opacity="1" stroke-miterlimit="10" stroke-width="1.25"/><path fill="rgb(158,202,225)" stroke="rgb(85,85,85)" paint-order="fill stroke markers" d="" fill-opacity="0.5" stroke-opacity="1" stroke-miterlimit="10" stroke-width="1.25"/><text fill="rgb(0,0,0)" stroke="none" font-family="Helvetica" font-size="11px" font-style="normal" font-weight="normal" text-decoration="normal" x="425.73019498320866" y="729.2499338986645" text-anchor="middle" dominant-baseline="text-after-edge" fill-opacity="1">Hsp70</text><path fill="rgb(255,255,255)" stroke="rgb(85,85,85)" paint-order="fill stroke markers" d=" M 238.37623861516155 276.0244623813064 L 238.37623861516155 291.0244623813064 L 253.37623861516155 291.0244623813064 L 253.37623861516155 276.0244623813064 Z" fill-opacity="0.5" stroke-opacity="1" stroke-miterlimit="10" stroke-width="1.25"/><text fill="rgb(0,0,0)" stroke="none" font-family="Helvetica Neue, Helvetica, sans-serif" font-size="9px" font-style="normal" font-weight="normal" text-decoration="normal" x="245.87623861516155" y="288.0244623813064" text-anchor="middle" dominant-baseline="text-after-edge" fill-opacity="1">?</text><g transform="scale(0.8,0.8) translate(120.04752684779369,12.573258778705707)"/></g></svg>