<svg version="1.1" xmlns="http://www.w3.org/2000/svg" xmlns:xlink="http://www.w3.org/1999/xlink" width="987" height="1313"><defs/><g transform="translate(-234.375,-58.875) scale(1,1)"><path fill="rgb(247,247,247)" stroke="rgb(85,85,85)" paint-order="fill stroke markers" d=" M 236.875 188.125 L 236.875 1351.3441972897863 Q 241.875 1366.3441972897863 336.875 1366.3441972897863 L 1118.6241938838532 1366.3441972897863 Q 1213.6241938838532 1366.3441972897863 1218.6241938838532 1351.3441972897863 L 1218.6241938838532 188.125 Q 1213.6241938838532 173.125 1118.6241938838532 173.125 L 336.875 173.125 Q 241.875 173.125 236.875 188.125 Z" fill-opacity="0.5" stroke-opacity="1" stroke-miterlimit="10" stroke-width="3.25"/><path fill="rgb(247,247,247)" stroke="rgb(85,85,85)" paint-order="fill stroke markers" d="" fill-opacity="0.5" stroke-opacity="1" stroke-miterlimit="10" stroke-width="3.25"/><text fill="rgb(0,0,0)" stroke="none" font-family="Helvetica" font-size="18px" font-style="normal" font-weight="normal" text-decoration="normal" x="727.7495969419266" y="1370.2191972897863" text-anchor="middle" dominant-baseline="text-after-edge" fill-opacity="1">neuron</text><path fill="rgb(247,247,247)" stroke="rgb(85,85,85)" paint-order="fill stroke markers" d=" M 258.5 668.75 L 258.5 1329.7191972897863 Q 263.5 1344.7191972897863 358.5 1344.7191972897863 L 1096.9991938838532 1344.7191972897863 Q 1191.9991938838532 1344.7191972897863 1196.9991938838532 1329.7191972897863 L 1196.9991938838532 668.75 Q 1191.9991938838532 653.75 1096.9991938838532 653.75 L 358.5 653.75 Q 263.5 653.75 258.5 668.75 Z" fill-opacity="0.5" stroke-opacity="1" stroke-miterlimit="10" stroke-width="3.25"/><path fill="rgb(247,247,247)" stroke="rgb(85,85,85)" paint-order="fill stroke markers" d="" fill-opacity="0.5" stroke-opacity="1" stroke-miterlimit="10" stroke-width="3.25"/><text fill="rgb(0,0,0)" stroke="none" font-family="Helvetica" font-size="18px" font-style="normal" font-weight="normal" text-decoration="normal" x="727.7495969419266" y="1348.5941972897863" text-anchor="middle" dominant-baseline="text-after-edge" fill-opacity="1">nucleus</text><path fill="rgb(217,240,211)" stroke="rgb(85,85,85)" paint-order="fill stroke markers" d=" M 931.6572632393871 351.6225809530113 L 919.6572632393872 363.6225809530113 L 919.6572632393872 402.8725809530113 L 931.6572632393871 414.8725809530113 L 1055.9072632393872 414.8725809530113 L 1067.9072632393872 402.8725809530113 L 1067.9072632393872 363.6225809530113 L 1055.9072632393872 351.6225809530113 Z" fill-opacity="0.5" stroke-opacity="1" stroke-miterlimit="10" stroke-width="1.25"/><path fill="rgb(217,240,211)" stroke="rgb(85,85,85)" paint-order="fill stroke markers" d="" fill-opacity="0.5" stroke-opacity="1" stroke-miterlimit="10" stroke-width="1.25"/><text fill="rgb(0,0,0)" stroke="none" font-family="Helvetica" font-size="11px" font-style="normal" font-weight="normal" text-decoration="normal" x="993.7822632393872" y="415.8725809530113" text-anchor="middle" dominant-baseline="text-after-edge" fill-opacity="1">Ca/CaM complex</text><path fill="rgb(217,240,211)" stroke="rgb(85,85,85)" paint-order="fill stroke markers" d=" M 295.75 397.875 L 283.75 409.875 L 283.75 515.25 L 295.75 527.25 L 434.25 527.25 L 446.25 515.25 L 446.25 409.875 L 434.25 397.875 Z" fill-opacity="0.5" stroke-opacity="1" stroke-miterlimit="10" stroke-width="1.25"/><path fill="rgb(217,240,211)" stroke="rgb(85,85,85)" paint-order="fill stroke markers" d="" fill-opacity="0.5" stroke-opacity="1" stroke-miterlimit="10" stroke-width="1.25"/><text fill="rgb(0,0,0)" stroke="none" font-family="Helvetica" font-size="11px" font-style="normal" font-weight="normal" text-decoration="normal" x="365" y="528.25" text-anchor="middle" dominant-baseline="text-after-edge" fill-opacity="1">Ca/Cam/gCaMKII complex</text><path fill="rgb(217,240,211)" stroke="rgb(85,85,85)" paint-order="fill stroke markers" d=" M 639.75 397.875 L 627.75 409.875 L 627.75 515.25 L 639.75 527.25 L 779.25 527.25 L 791.25 515.25 L 791.25 409.875 L 779.25 397.875 Z" fill-opacity="0.5" stroke-opacity="1" stroke-miterlimit="10" stroke-width="1.25"/><path fill="rgb(217,240,211)" stroke="rgb(85,85,85)" paint-order="fill stroke markers" d="" fill-opacity="0.5" stroke-opacity="1" stroke-miterlimit="10" stroke-width="1.25"/><text fill="rgb(0,0,0)" stroke="none" font-family="Helvetica" font-size="11px" font-style="normal" font-weight="normal" text-decoration="normal" x="709.5" y="528.25" text-anchor="middle" dominant-baseline="text-after-edge" fill-opacity="1">Ca/Cam/gCaMKII complex</text><path fill="rgb(217,240,211)" stroke="rgb(85,85,85)" paint-order="fill stroke markers" d=" M 376.75 193.875 L 364.75 205.875 L 364.75 314.25 L 376.75 326.25 L 516.25 326.25 L 528.25 314.25 L 528.25 205.875 L 516.25 193.875 Z" fill-opacity="0.5" stroke-opacity="1" stroke-miterlimit="10" stroke-width="1.25"/><path fill="rgb(217,240,211)" stroke="rgb(85,85,85)" paint-order="fill stroke markers" d="" fill-opacity="0.5" stroke-opacity="1" stroke-miterlimit="10" stroke-width="1.25"/><text fill="rgb(0,0,0)" stroke="none" font-family="Helvetica" font-size="11px" font-style="normal" font-weight="normal" text-decoration="normal" x="446.5" y="327.25" text-anchor="middle" dominant-baseline="text-after-edge" fill-opacity="1">Ca/Cam/gCaMKII complex</text><path fill="rgb(217,240,211)" stroke="rgb(85,85,85)" paint-order="fill stroke markers" d=" M 291.25 692.875 L 279.25 704.875 L 279.25 810.25 L 291.25 822.25 L 438.75 822.25 L 450.75 810.25 L 450.75 704.875 L 438.75 692.875 Z" fill-opacity="0.5" stroke-opacity="1" stroke-miterlimit="10" stroke-width="1.25"/><path fill="rgb(217,240,211)" stroke="rgb(85,85,85)" paint-order="fill stroke markers" d="" fill-opacity="0.5" stroke-opacity="1" stroke-miterlimit="10" stroke-width="1.25"/><text fill="rgb(0,0,0)" stroke="none" font-family="Helvetica" font-size="11px" font-style="normal" font-weight="normal" text-decoration="normal" x="365" y="823.25" text-anchor="middle" dominant-baseline="text-after-edge" fill-opacity="1">Ca/Cam/gCaMKII complex</text><path fill="rgb(217,240,211)" stroke="rgb(85,85,85)" paint-order="fill stroke markers" d=" M 923.75 691.375 L 911.75 703.375 L 911.75 811.75 L 923.75 823.75 L 1065.25 823.75 L 1077.25 811.75 L 1077.25 703.375 L 1065.25 691.375 Z" fill-opacity="0.5" stroke-opacity="1" stroke-miterlimit="10" stroke-width="1.25"/><path fill="rgb(217,240,211)" stroke="rgb(85,85,85)" paint-order="fill stroke markers" d="" fill-opacity="0.5" stroke-opacity="1" stroke-miterlimit="10" stroke-width="1.25"/><text fill="rgb(0,0,0)" stroke="none" font-family="Helvetica" font-size="11px" font-style="normal" font-weight="normal" text-decoration="normal" x="994.5" y="824.75" text-anchor="middle" dominant-baseline="text-after-edge" fill-opacity="1">Ca/Cam/gCaMKK complex</text><path fill="rgb(217,240,211)" stroke="rgb(85,85,85)" paint-order="fill stroke markers" d=" M 601.511211133063 786.9551787701424 L 589.511211133063 798.9551787701424 L 589.511211133063 838.2051787701424 L 601.511211133063 850.2051787701424 L 716.761211133063 850.2051787701424 L 728.761211133063 838.2051787701424 L 728.761211133063 798.9551787701424 L 716.761211133063 786.9551787701424 Z" fill-opacity="0.5" stroke-opacity="1" stroke-miterlimit="10" stroke-width="1.25"/><path fill="rgb(217,240,211)" stroke="rgb(85,85,85)" paint-order="fill stroke markers" d="" fill-opacity="0.5" stroke-opacity="1" stroke-miterlimit="10" stroke-width="1.25"/><text fill="rgb(0,0,0)" stroke="none" font-family="Helvetica" font-size="11px" font-style="normal" font-weight="normal" text-decoration="normal" x="659.136211133063" y="851.2051787701424" text-anchor="middle" dominant-baseline="text-after-edge" fill-opacity="1">Ca/CaM complex</text><path fill="rgb(217,240,211)" stroke="rgb(85,85,85)" paint-order="fill stroke markers" d=" M 589.886211133063 993.75 L 577.886211133063 1005.75 L 577.886211133063 1113.125 L 589.886211133063 1125.125 L 728.386211133063 1125.125 L 740.386211133063 1113.125 L 740.386211133063 1005.75 L 728.386211133063 993.75 Z" fill-opacity="0.5" stroke-opacity="1" stroke-miterlimit="10" stroke-width="1.25"/><path fill="rgb(217,240,211)" stroke="rgb(85,85,85)" paint-order="fill stroke markers" d="" fill-opacity="0.5" stroke-opacity="1" stroke-miterlimit="10" stroke-width="1.25"/><text fill="rgb(0,0,0)" stroke="none" font-family="Helvetica" font-size="11px" font-style="normal" font-weight="normal" text-decoration="normal" x="659.136211133063" y="1126.125" text-anchor="middle" dominant-baseline="text-after-edge" fill-opacity="1">Ca/Cam/gCaMKIV complex</text><path fill="rgb(217,240,211)" stroke="rgb(85,85,85)" paint-order="fill stroke markers" d=" M 923.75 978.3728746770742 L 911.75 990.3728746770742 L 911.75 1100.7478746770742 L 923.75 1112.7478746770742 L 1065.25 1112.7478746770742 L 1077.25 1100.7478746770742 L 1077.25 990.3728746770742 L 1065.25 978.3728746770742 Z" fill-opacity="0.5" stroke-opacity="1" stroke-miterlimit="10" stroke-width="1.25"/><path fill="rgb(217,240,211)" stroke="rgb(85,85,85)" paint-order="fill stroke markers" d="" fill-opacity="0.5" stroke-opacity="1" stroke-miterlimit="10" stroke-width="1.25"/><text fill="rgb(0,0,0)" stroke="none" font-family="Helvetica" font-size="11px" font-style="normal" font-weight="normal" text-decoration="normal" x="994.5" y="1113.7478746770742" text-anchor="middle" dominant-baseline="text-after-edge" fill-opacity="1">Ca/Cam/gCaMKIV complex</text><path fill="rgb(217,240,211)" stroke="rgb(85,85,85)" paint-order="fill stroke markers" d=" M 307.375 452.375 L 295.375 464.375 L 295.375 503.625 L 307.375 515.625 L 422.625 515.625 L 434.625 503.625 L 434.625 464.375 L 422.625 452.375 Z" fill-opacity="0.5" stroke-opacity="1" stroke-miterlimit="10" stroke-width="1.25"/><path fill="rgb(217,240,211)" stroke="rgb(85,85,85)" paint-order="fill stroke markers" d="" fill-opacity="0.5" stroke-opacity="1" stroke-miterlimit="10" stroke-width="1.25"/><text fill="rgb(0,0,0)" stroke="none" font-family="Helvetica" font-size="11px" font-style="normal" font-weight="normal" text-decoration="normal" x="365" y="516.625" text-anchor="middle" dominant-baseline="text-after-edge" fill-opacity="1">Ca/CaM complex</text><path fill="rgb(217,240,211)" stroke="rgb(85,85,85)" paint-order="fill stroke markers" d=" M 651.375 452.375 L 639.375 464.375 L 639.375 503.625 L 651.375 515.625 L 767.625 515.625 L 779.625 503.625 L 779.625 464.375 L 767.625 452.375 Z" fill-opacity="0.5" stroke-opacity="1" stroke-miterlimit="10" stroke-width="1.25"/><path fill="rgb(217,240,211)" stroke="rgb(85,85,85)" paint-order="fill stroke markers" d="" fill-opacity="0.5" stroke-opacity="1" stroke-miterlimit="10" stroke-width="1.25"/><text fill="rgb(0,0,0)" stroke="none" font-family="Helvetica" font-size="11px" font-style="normal" font-weight="normal" text-decoration="normal" x="709.5" y="516.625" text-anchor="middle" dominant-baseline="text-after-edge" fill-opacity="1">Ca/CaM complex</text><path fill="rgb(217,240,211)" stroke="rgb(85,85,85)" paint-order="fill stroke markers" d=" M 388.375 251.375 L 376.375 263.375 L 376.375 302.625 L 388.375 314.625 L 504.625 314.625 L 516.625 302.625 L 516.625 263.375 L 504.625 251.375 Z" fill-opacity="0.5" stroke-opacity="1" stroke-miterlimit="10" stroke-width="1.25"/><path fill="rgb(217,240,211)" stroke="rgb(85,85,85)" paint-order="fill stroke markers" d="" fill-opacity="0.5" stroke-opacity="1" stroke-miterlimit="10" stroke-width="1.25"/><text fill="rgb(0,0,0)" stroke="none" font-family="Helvetica" font-size="11px" font-style="normal" font-weight="normal" text-decoration="normal" x="446.5" y="315.625" text-anchor="middle" dominant-baseline="text-after-edge" fill-opacity="1">Ca/CaM complex</text><path fill="rgb(217,240,211)" stroke="rgb(85,85,85)" paint-order="fill stroke markers" d=" M 302.875 747.375 L 290.875 759.375 L 290.875 798.625 L 302.875 810.625 L 427.125 810.625 L 439.125 798.625 L 439.125 759.375 L 427.125 747.375 Z" fill-opacity="0.5" stroke-opacity="1" stroke-miterlimit="10" stroke-width="1.25"/><path fill="rgb(217,240,211)" stroke="rgb(85,85,85)" paint-order="fill stroke markers" d="" fill-opacity="0.5" stroke-opacity="1" stroke-miterlimit="10" stroke-width="1.25"/><text fill="rgb(0,0,0)" stroke="none" font-family="Helvetica" font-size="11px" font-style="normal" font-weight="normal" text-decoration="normal" x="365" y="811.625" text-anchor="middle" dominant-baseline="text-after-edge" fill-opacity="1">Ca/CaM complex</text><path fill="rgb(217,240,211)" stroke="rgb(85,85,85)" paint-order="fill stroke markers" d=" M 935.375 703 L 923.375 715 L 923.375 754.25 L 935.375 766.25 L 1053.625 766.25 L 1065.625 754.25 L 1065.625 715 L 1053.625 703 Z" fill-opacity="0.5" stroke-opacity="1" stroke-miterlimit="10" stroke-width="1.25"/><path fill="rgb(217,240,211)" stroke="rgb(85,85,85)" paint-order="fill stroke markers" d="" fill-opacity="0.5" stroke-opacity="1" stroke-miterlimit="10" stroke-width="1.25"/><text fill="rgb(0,0,0)" stroke="none" font-family="Helvetica" font-size="11px" font-style="normal" font-weight="normal" text-decoration="normal" x="994.5" y="767.25" text-anchor="middle" dominant-baseline="text-after-edge" fill-opacity="1">Ca/CaM complex</text><path fill="rgb(217,240,211)" stroke="rgb(85,85,85)" paint-order="fill stroke markers" d=" M 601.511211133063 1005.375 L 589.511211133063 1017.375 L 589.511211133063 1056.625 L 601.511211133063 1068.625 L 716.761211133063 1068.625 L 728.761211133063 1056.625 L 728.761211133063 1017.375 L 716.761211133063 1005.375 Z" fill-opacity="0.5" stroke-opacity="1" stroke-miterlimit="10" stroke-width="1.25"/><path fill="rgb(217,240,211)" stroke="rgb(85,85,85)" paint-order="fill stroke markers" d="" fill-opacity="0.5" stroke-opacity="1" stroke-miterlimit="10" stroke-width="1.25"/><text fill="rgb(0,0,0)" stroke="none" font-family="Helvetica" font-size="11px" font-style="normal" font-weight="normal" text-decoration="normal" x="659.136211133063" y="1069.625" text-anchor="middle" dominant-baseline="text-after-edge" fill-opacity="1">Ca/CaM complex</text><path fill="rgb(217,240,211)" stroke="rgb(85,85,85)" paint-order="fill stroke markers" d=" M 935.375 989.9978746770742 L 923.375 1001.9978746770742 L 923.375 1041.2478746770742 L 935.375 1053.2478746770742 L 1053.625 1053.2478746770742 L 1065.625 1041.2478746770742 L 1065.625 1001.9978746770742 L 1053.625 989.9978746770742 Z" fill-opacity="0.5" stroke-opacity="1" stroke-miterlimit="10" stroke-width="1.25"/><path fill="rgb(217,240,211)" stroke="rgb(85,85,85)" paint-order="fill stroke markers" d="" fill-opacity="0.5" stroke-opacity="1" stroke-miterlimit="10" stroke-width="1.25"/><text fill="rgb(0,0,0)" stroke="none" font-family="Helvetica" font-size="11px" font-style="normal" font-weight="normal" text-decoration="normal" x="994.5" y="1054.2478746770742" text-anchor="middle" dominant-baseline="text-after-edge" fill-opacity="1">Ca/CaM complex</text><path fill="none" stroke="rgb(85,85,85)" paint-order="fill stroke markers" d=" M 994.5 1113.2478746770742 L 994.5 1177.5316972897863" stroke-opacity="1" stroke-linejoin="round" stroke-miterlimit="10" stroke-width="1.25"/><path fill="rgb(255,255,255)" stroke="rgb(255,255,255)" paint-order="fill stroke markers" d=" M 999.9375 1175.2191972897863 A 5.4375 5.4375 0 1 1 999.9374972812502 1175.2137597906926 Z" fill-opacity="1" stroke-opacity="1" stroke-miterlimit="10"/><path fill="none" stroke="rgb(85,85,85)" paint-order="fill stroke markers" d=" M 999.9375 1175.2191972897863 A 5.4375 5.4375 0 1 1 999.9374972812502 1175.2137597906926 Z" stroke-opacity="1" stroke-miterlimit="10"/><path fill="none" stroke="rgb(85,85,85)" paint-order="fill stroke markers" d=" M 822.5 165.94285714285715 L 916.0827103979487 155.24769024023442" stroke-opacity="1" stroke-linejoin="round" stroke-miterlimit="10" stroke-width="1.25"/><path fill="rgb(255,255,255)" stroke="rgb(255,255,255)" paint-order="fill stroke markers" d=" M 909.000241774298 161.5300102292993 L 919.1875 154.89285714285714 L 907.7654225954251 150.7253424141609 Z" fill-opacity="1" stroke-opacity="1" stroke-miterlimit="10"/><path fill="none" stroke="rgb(85,85,85)" paint-order="fill stroke markers" d=" M 909.000241774298 161.5300102292993 L 919.1875 154.89285714285714 L 907.7654225954251 150.7253424141609 Z" stroke-opacity="1" stroke-miterlimit="10"/><path fill="none" stroke="rgb(85,85,85)" paint-order="fill stroke markers" d=" M 704.279828670823 270.7957753568925 L 650.2939540386109 312.12029593956373" stroke-opacity="1" stroke-linejoin="round" stroke-miterlimit="10" stroke-width="1.25"/><path fill="rgb(255,255,255)" stroke="rgb(255,255,255)" paint-order="fill stroke markers" d=" M 657.5677300271828 310.71468335289774 A 5.4375 5.4375 0 1 1 657.5677273084331 310.70924585380396 Z" fill-opacity="1" stroke-opacity="1" stroke-miterlimit="10"/><path fill="none" stroke="rgb(85,85,85)" paint-order="fill stroke markers" d=" M 657.5677300271828 310.71468335289774 A 5.4375 5.4375 0 1 1 657.5677273084331 310.70924585380396 Z" stroke-opacity="1" stroke-miterlimit="10"/><path fill="none" stroke="rgb(85,85,85)" paint-order="fill stroke markers" d=" M 854.6004103538849 986.5460162674967 L 908.3282715018514 1012.8622059699011" stroke-opacity="1" stroke-linejoin="round" stroke-miterlimit="10" stroke-width="1.25"/><path fill="rgb(85,85,85)" stroke="none" paint-order="stroke fill markers" d=" M 899.0927342300914 1014.1523056181582 L 911.25 1013.9708662348634 L 903.810489031419 1004.3539172489135 Z" fill-opacity="1"/><path fill="none" stroke="rgb(85,85,85)" paint-order="fill stroke markers" d=" M 740.886211133063 1026.303017523711 L 823.3504103538849 986.5460162674967" stroke-opacity="1" stroke-linejoin="round" stroke-miterlimit="10" stroke-width="1.25"/><path fill="none" stroke="rgb(85,85,85)" paint-order="fill stroke markers" d=" M 612.5 164.32 L 661.375 154" stroke-opacity="1" stroke-linejoin="round" stroke-miterlimit="10" stroke-width="1.25"/><path fill="none" stroke="rgb(85,85,85)" paint-order="fill stroke markers" d=" M 692.625 154 L 748.4075423772359 164.38655161850704" stroke-opacity="1" stroke-linejoin="round" stroke-miterlimit="10" stroke-width="1.25"/><path fill="rgb(85,85,85)" stroke="none" paint-order="stroke fill markers" d=" M 739.8236117303827 168.22664212450354 L 751.5 164.83636363636364 L 741.7819442477178 157.52942011355375 Z" fill-opacity="1"/><path fill="none" stroke="rgb(85,85,85)" paint-order="fill stroke markers" d=" M 677 96.125 L 677 143.0625" stroke-opacity="1" stroke-linejoin="round" stroke-miterlimit="10" stroke-width="1.25"/><path fill="none" stroke="none"/><path fill="rgb(255,255,255)" stroke="rgb(255,255,255)" paint-order="fill stroke markers" d=" M 671.5625 135.3125 L 677 146.1875 L 682.4375 135.3125 L 671.5625 135.3125 M 684.1092737468198 131.40228875318027 L 684.1092737468198 131.40228875318027 L 669.8907262531802 131.40228875318027 Z Z" fill-opacity="1" stroke-opacity="1" stroke-miterlimit="10" stroke-width="1.25"/><path fill="none" stroke="none"/><path fill="none" stroke="rgb(85,85,85)" paint-order="fill stroke markers" d=" M 671.5625 135.3125 L 677 146.1875 L 682.4375 135.3125 L 671.5625 135.3125 M 684.1092737468198 131.40228875318027 L 684.1092737468198 131.40228875318027 L 669.8907262531802 131.40228875318027 Z Z" stroke-opacity="1" stroke-miterlimit="10" stroke-width="1.25"/><path fill="none" stroke="rgb(85,85,85)" paint-order="fill stroke markers" d=" M 927 101.5 L 927 138.375" stroke-opacity="1" stroke-linejoin="round" stroke-miterlimit="10" stroke-width="1.25"/><path fill="none" stroke="rgb(85,85,85)" paint-order="fill stroke markers" d=" M 927 169.625 L 927 217.875" stroke-opacity="1" stroke-linejoin="round" stroke-miterlimit="10" stroke-width="1.25"/><path fill="rgb(85,85,85)" stroke="none" paint-order="stroke fill markers" d=" M 921.5625 210.125 L 927 221 L 932.4375 210.125 Z" fill-opacity="1"/><path fill="none" stroke="rgb(85,85,85)" paint-order="fill stroke markers" d=" M 942.6736954023489 255.97623956700753 L 993.6406295841157 285.79847226067875" stroke-opacity="1" stroke-linejoin="round" stroke-miterlimit="10" stroke-width="1.25"/><path fill="none" stroke="rgb(85,85,85)" paint-order="fill stroke markers" d=" M 1050.6545628315962 260 L 993.6406295841157 285.79847226067875" stroke-opacity="1" stroke-linejoin="round" stroke-miterlimit="10" stroke-width="1.25"/><path fill="none" stroke="rgb(85,85,85)" paint-order="fill stroke markers" d=" M 993.6406295841157 317.04847226067875 L 993.7212471676567 347.99758563455856" stroke-opacity="1" stroke-linejoin="round" stroke-miterlimit="10" stroke-width="1.25"/><path fill="rgb(85,85,85)" stroke="none" paint-order="stroke fill markers" d=" M 988.2620957161566 340.26115342573576 L 993.7266563864888 351.1225809530113 L 999.13706200611 340.2340759003803 Z" fill-opacity="1"/><path fill="none" stroke="rgb(85,85,85)" paint-order="fill stroke markers" d=" M 967.1367155585245 520.6168132336828 L 896.8234393725336 462.56249999999994" stroke-opacity="1" stroke-linejoin="round" stroke-miterlimit="10" stroke-width="1.25"/><path fill="none" stroke="rgb(85,85,85)" paint-order="fill stroke markers" d=" M 948.1823258608974 415.3725809530113 L 896.8234393725336 462.56249999999994" stroke-opacity="1" stroke-linejoin="round" stroke-miterlimit="10" stroke-width="1.25"/><path fill="none" stroke="rgb(85,85,85)" paint-order="fill stroke markers" d=" M 865.5734393725336 462.56249999999994 L 794.875 462.5625" stroke-opacity="1" stroke-linejoin="round" stroke-miterlimit="10" stroke-width="1.25"/><path fill="rgb(85,85,85)" stroke="none" paint-order="stroke fill markers" d=" M 802.625 457.125 L 791.75 462.5625 L 802.625 468 Z" fill-opacity="1"/><path fill="none" stroke="rgb(85,85,85)" paint-order="fill stroke markers" d=" M 529.375 462.5625 L 449.875 462.5625" stroke-opacity="1" stroke-linejoin="round" stroke-miterlimit="10" stroke-width="1.25"/><path fill="rgb(85,85,85)" stroke="none" paint-order="stroke fill markers" d=" M 457.625 457.125 L 446.75 462.5625 L 457.625 468 Z" fill-opacity="1"/><path fill="none" stroke="rgb(85,85,85)" paint-order="fill stroke markers" d=" M 627.25 462.5625 L 560.625 462.5625" stroke-opacity="1" stroke-linejoin="round" stroke-miterlimit="10" stroke-width="1.25"/><path fill="none" stroke="rgb(85,85,85)" paint-order="fill stroke markers" d=" M 545.3586514966889 408.75551187558693 L 545.0729036503403 451.6250694182217" stroke-opacity="1" stroke-linejoin="round" stroke-miterlimit="10" stroke-width="1.25"/><path fill="rgb(255,255,255)" stroke="rgb(255,255,255)" paint-order="fill stroke markers" d=" M 550.5258173204093 449.3126207877058 A 5.4375 5.4375 0 1 1 550.5258146016595 449.307183288612 Z" fill-opacity="1" stroke-opacity="1" stroke-miterlimit="10"/><path fill="none" stroke="rgb(85,85,85)" paint-order="fill stroke markers" d=" M 550.5258173204093 449.3126207877058 A 5.4375 5.4375 0 1 1 550.5258146016595 449.307183288612 Z" stroke-opacity="1" stroke-miterlimit="10"/><path fill="none" stroke="rgb(85,85,85)" paint-order="fill stroke markers" d=" M 365 527.75 L 365 580.375" stroke-opacity="1" stroke-linejoin="round" stroke-miterlimit="10" stroke-width="1.25"/><path fill="none" stroke="rgb(85,85,85)" paint-order="fill stroke markers" d=" M 365 611.625 L 365 689.25" stroke-opacity="1" stroke-linejoin="round" stroke-miterlimit="10" stroke-width="1.25"/><path fill="rgb(85,85,85)" stroke="none" paint-order="stroke fill markers" d=" M 359.5625 681.5 L 365 692.375 L 370.4375 681.5 Z" fill-opacity="1"/><path fill="none" stroke="rgb(85,85,85)" paint-order="fill stroke markers" d=" M 451.25 757.5625 L 510.66093966291146 757.5625" stroke-opacity="1" stroke-linejoin="round" stroke-miterlimit="10" stroke-width="1.25"/><path fill="none" stroke="rgb(85,85,85)" paint-order="fill stroke markers" d=" M 541.9109396629115 757.5625 L 594.7417202054755 711.7383453132849" stroke-opacity="1" stroke-linejoin="round" stroke-miterlimit="10" stroke-width="1.25"/><path fill="rgb(85,85,85)" stroke="none" paint-order="stroke fill markers" d=" M 592.5986183589383 721.1966339927508 L 597.3385992114711 710 L 585.5373035057509 712.9259957136243 Z" fill-opacity="1"/><path fill="none" stroke="rgb(85,85,85)" paint-order="fill stroke markers" d=" M 541.9109396629115 757.5625 L 594.6522651477118 788.9629212483961" stroke-opacity="1" stroke-linejoin="round" stroke-miterlimit="10" stroke-width="1.25"/><path fill="rgb(85,85,85)" stroke="none" paint-order="stroke fill markers" d=" M 585.3597613997699 789.4675611909181 L 597.4920557080053 790.2672274140136 L 590.8524121015405 780.081592233568 Z" fill-opacity="1"/><path fill="none" stroke="rgb(85,85,85)" paint-order="fill stroke markers" d=" M 764.4728312678742 710 L 792.375 757.5625" stroke-opacity="1" stroke-linejoin="round" stroke-miterlimit="10" stroke-width="1.25"/><path fill="none" stroke="rgb(85,85,85)" paint-order="fill stroke markers" d=" M 722.9405855817445 792.4274464376375 L 792.375 757.5625" stroke-opacity="1" stroke-linejoin="round" stroke-miterlimit="10" stroke-width="1.25"/><path fill="none" stroke="rgb(85,85,85)" paint-order="fill stroke markers" d=" M 823.625 757.5625 L 908.125 757.5625" stroke-opacity="1" stroke-linejoin="round" stroke-miterlimit="10" stroke-width="1.25"/><path fill="rgb(85,85,85)" stroke="none" paint-order="stroke fill markers" d=" M 900.375 763 L 911.25 757.5625 L 900.375 752.125 Z" fill-opacity="1"/><path fill="none" stroke="rgb(85,85,85)" paint-order="fill stroke markers" d=" M 659.136211133063 850.7051787701424 L 659.136211133063 903.375" stroke-opacity="1" stroke-linejoin="round" stroke-miterlimit="10" stroke-width="1.25"/><path fill="none" stroke="rgb(85,85,85)" paint-order="fill stroke markers" d=" M 554.1829283874155 883.7999310873219 L 659.136211133063 903.375" stroke-opacity="1" stroke-linejoin="round" stroke-miterlimit="10" stroke-width="1.25"/><path fill="none" stroke="rgb(85,85,85)" paint-order="fill stroke markers" d=" M 659.136211133063 934.625 L 659.136211133063 990.125" stroke-opacity="1" stroke-linejoin="round" stroke-miterlimit="10" stroke-width="1.25"/><path fill="rgb(85,85,85)" stroke="none" paint-order="stroke fill markers" d=" M 653.698711133063 982.375 L 659.136211133063 993.25 L 664.573711133063 982.375 Z" fill-opacity="1"/><path fill="none" stroke="rgb(85,85,85)" paint-order="fill stroke markers" d=" M 948.6492753321304 812.625 L 845.5688101307315 976.0901908064852" stroke-opacity="1" stroke-linejoin="round" stroke-miterlimit="10" stroke-width="1.25"/><path fill="rgb(255,255,255)" stroke="rgb(255,255,255)" paint-order="fill stroke markers" d=" M 852.2397939108137 974.1341299653368 A 5.4375 5.4375 0 1 1 852.2397911920639 974.128692466243 Z" fill-opacity="1" stroke-opacity="1" stroke-miterlimit="10"/><path fill="none" stroke="rgb(85,85,85)" paint-order="fill stroke markers" d=" M 852.2397939108137 974.1341299653368 A 5.4375 5.4375 0 1 1 852.2397911920639 974.128692466243 Z" stroke-opacity="1" stroke-miterlimit="10"/><path fill="none" stroke="rgb(85,85,85)" paint-order="fill stroke markers" d=" M 883.7491938838532 1188.4691972897863 L 978.875 1188.4691972897863" stroke-opacity="1" stroke-linejoin="round" stroke-miterlimit="10" stroke-width="1.25"/><path fill="none" stroke="rgb(85,85,85)" paint-order="fill stroke markers" d=" M 1010.125 1188.4691972897863 L 1102.6241938838532 1188.4691972897863" stroke-opacity="1" stroke-linejoin="round" stroke-miterlimit="10" stroke-width="1.25"/><path fill="rgb(85,85,85)" stroke="none" paint-order="stroke fill markers" d=" M 1094.8741938838532 1193.9066972897863 L 1105.7491938838532 1188.4691972897863 L 1094.8741938838532 1183.0316972897863 Z" fill-opacity="1"/><path fill="none" stroke="rgb(85,85,85)" paint-order="fill stroke markers" d=" M 1141.2491938838532 1206.4691972897863 L 1141.2491938838532 1285.2191972897863" stroke-opacity="1" stroke-linejoin="round" stroke-miterlimit="10" stroke-width="1.25"/><path fill="rgb(255,255,255)" stroke="rgb(255,255,255)" paint-order="fill stroke markers" d=" M 1135.8116938838532 1277.4691972897863 L 1141.2491938838532 1288.3441972897863 L 1146.6866938838532 1277.4691972897863 Z" fill-opacity="1" stroke-opacity="1" stroke-miterlimit="10"/><path fill="none" stroke="rgb(85,85,85)" paint-order="fill stroke markers" d=" M 1135.8116938838532 1277.4691972897863 L 1141.2491938838532 1288.3441972897863 L 1146.6866938838532 1277.4691972897863 Z" stroke-opacity="1" stroke-miterlimit="10"/><path fill="none" stroke="rgb(85,85,85)" paint-order="fill stroke markers" d=" M 677.7207365190706 397.375 L 640 335.625" stroke-opacity="1" stroke-linejoin="round" stroke-miterlimit="10" stroke-width="1.25"/><path fill="none" stroke="rgb(85,85,85)" paint-order="fill stroke markers" d=" M 640 304.375 L 531.7350738121247 286.46444954322595" stroke-opacity="1" stroke-linejoin="round" stroke-miterlimit="10" stroke-width="1.25"/><path fill="rgb(85,85,85)" stroke="none" paint-order="stroke fill markers" d=" M 540.386478593241 282.0149835919908 L 528.75 285.53980943152453 L 538.5517478275716 292.73409680239706 Z" fill-opacity="1"/><path fill="rgb(166,219,160)" stroke="rgb(85,85,85)" paint-order="fill stroke markers" d=" M 327.5 704.5 L 354.5 704.5 L 354.5 704.5 A 8 8 0 0 1 362.5 712.5 L 362.5 731.5 L 362.5 731.5 A 8 8 0 0 1 354.5 739.5 L 300.5 739.5 L 300.5 739.5 A 8 8 0 0 1 292.5 731.5 L 292.5 712.5 L 292.5 712.5 A 8 8 0 0 1 300.5 704.5 L 327.5 704.5 Z" fill-opacity="0.5" stroke-opacity="1" stroke-miterlimit="10" stroke-width="1.25"/><path fill="rgb(166,219,160)" stroke="rgb(85,85,85)" paint-order="fill stroke markers" d="" fill-opacity="0.5" stroke-opacity="1" stroke-miterlimit="10" stroke-width="1.25"/><text fill="rgb(0,0,0)" stroke="none" font-family="Helvetica" font-size="11px" font-style="normal" font-weight="normal" text-decoration="normal" x="327.5" y="727.5" text-anchor="middle" dominant-baseline="text-after-edge" fill-opacity="1">γCaMKII</text><path fill="rgb(231,212,232)" stroke="rgb(85,85,85)" paint-order="fill stroke markers" d=" M 322.5 759 L 322.5 759 L 322.5 759 A 20 20 0 0 1 342.5 779 L 342.5 779 L 342.5 779 A 20 20 0 0 1 322.5 799 L 322.5 799 L 322.5 799 A 20 20 0 0 1 302.5 779 L 302.5 779 L 302.5 779 A 20 20 0 0 1 322.5 759 L 322.5 759 Z" fill-opacity="0.5" stroke-opacity="1" stroke-miterlimit="10" stroke-width="1.25"/><path fill="rgb(231,212,232)" stroke="rgb(85,85,85)" paint-order="fill stroke markers" d="" fill-opacity="0.5" stroke-opacity="1" stroke-miterlimit="10" stroke-width="1.25"/><text fill="rgb(0,0,0)" stroke="none" font-family="Helvetica" font-size="11px" font-style="normal" font-weight="normal" text-decoration="normal" x="322.5" y="784.5" text-anchor="middle" dominant-baseline="text-after-edge" fill-opacity="1">Ca++</text><path fill="rgb(166,219,160)" stroke="rgb(85,85,85)" paint-order="fill stroke markers" d=" M 392.5 761.5 L 419.5 761.5 L 419.5 761.5 A 8 8 0 0 1 427.5 769.5 L 427.5 788.5 L 427.5 788.5 A 8 8 0 0 1 419.5 796.5 L 365.5 796.5 L 365.5 796.5 A 8 8 0 0 1 357.5 788.5 L 357.5 769.5 L 357.5 769.5 A 8 8 0 0 1 365.5 761.5 L 392.5 761.5 Z" fill-opacity="0.5" stroke-opacity="1" stroke-miterlimit="10" stroke-width="1.25"/><path fill="rgb(166,219,160)" stroke="rgb(85,85,85)" paint-order="fill stroke markers" d="" fill-opacity="0.5" stroke-opacity="1" stroke-miterlimit="10" stroke-width="1.25"/><text fill="rgb(0,0,0)" stroke="none" font-family="Helvetica" font-size="11px" font-style="normal" font-weight="normal" text-decoration="normal" x="392.5" y="784.5" text-anchor="middle" dominant-baseline="text-after-edge" fill-opacity="1">CaM</text><path fill="rgb(166,219,160)" stroke="rgb(85,85,85)" paint-order="fill stroke markers" d=" M 624.2284362022532 674.5 L 651.2284362022532 674.5 L 651.2284362022532 674.5 A 8 8 0 0 1 659.2284362022532 682.5 L 659.2284362022532 701.5 L 659.2284362022532 701.5 A 8 8 0 0 1 651.2284362022532 709.5 L 597.2284362022532 709.5 L 597.2284362022532 709.5 A 8 8 0 0 1 589.2284362022532 701.5 L 589.2284362022532 682.5 L 589.2284362022532 682.5 A 8 8 0 0 1 597.2284362022532 674.5 L 624.2284362022532 674.5 Z" fill-opacity="0.5" stroke-opacity="1" stroke-miterlimit="10" stroke-width="1.25"/><path fill="rgb(166,219,160)" stroke="rgb(85,85,85)" paint-order="fill stroke markers" d="" fill-opacity="0.5" stroke-opacity="1" stroke-miterlimit="10" stroke-width="1.25"/><text fill="rgb(0,0,0)" stroke="none" font-family="Helvetica" font-size="11px" font-style="normal" font-weight="normal" text-decoration="normal" x="624.2284362022532" y="697.5" text-anchor="middle" dominant-baseline="text-after-edge" fill-opacity="1">γCaMKII</text><path fill="rgb(255,255,255)" stroke="rgb(85,85,85)" paint-order="fill stroke markers" d=" M 511.28593966291146 757.4125 L 518.7859396629115 757.4125 L 518.7859396629115 757.5625 L 518.8270254476494 756.7785365254925 L 518.9498326574079 756.0031623188668 L 519.1530157906979 755.2448725421879 L 519.434348730592 754.5119751769315 L 519.7907491345281 753.8125 L 520.2183122050993 753.1541106078065 L 520.712353471831 752.5440204523086 L 521.26746011522 751.9889138089195 L 521.877550270718 751.4948725421879 L 522.5359396629115 751.0673094716167 L 523.235414839843 750.7109090676805 L 523.9683122050993 750.4295761277864 L 524.7266019817782 750.2263929944965 L 525.5019761884041 750.1035857847379 L 526.2859396629115 750.0625 L 527.0699031374188 750.1035857847379 L 527.8452773440447 750.2263929944965 L 528.6035671207236 750.4295761277864 L 529.33646448598 750.7109090676805 L 530.0359396629115 751.0673094716167 L 530.694329055105 751.4948725421879 L 531.3044192106029 751.9889138089195 L 531.859525853992 752.5440204523086 L 532.3535671207236 753.1541106078065 L 532.7811301912948 753.8125 L 533.1375305952309 754.5119751769315 L 533.4188635351251 755.2448725421879 L 533.622046668415 756.0031623188668 L 533.7448538781736 756.7785365254927 L 533.7859396629115 757.4125 L 541.2859396629115 757.4125 L 541.2859396629115 757.7125 L 533.7859396629115 757.7125 L 533.7859396629115 757.5625 L 533.7448538781736 758.3464634745073 L 533.622046668415 759.1218376811332 L 533.4188635351251 759.8801274578121 L 533.1375305952309 760.6130248230685 L 532.7811301912948 761.3125 L 532.3535671207236 761.9708893921935 L 531.859525853992 762.5809795476914 L 531.3044192106029 763.1360861910805 L 530.694329055105 763.6301274578121 L 530.0359396629115 764.0576905283833 L 529.33646448598 764.4140909323195 L 528.6035671207236 764.6954238722136 L 527.8452773440447 764.8986070055035 L 527.0699031374188 765.0214142152621 L 526.2859396629115 765.0625 L 525.5019761884041 765.0214142152621 L 524.7266019817782 764.8986070055035 L 523.9683122050993 764.6954238722136 L 523.235414839843 764.4140909323195 L 522.5359396629115 764.0576905283833 L 521.877550270718 763.6301274578121 L 521.26746011522 763.1360861910805 L 520.712353471831 762.5809795476914 L 520.2183122050993 761.9708893921935 L 519.7907491345281 761.3125 L 519.434348730592 760.6130248230685 L 519.1530157906979 759.8801274578121 L 518.9498326574079 759.1218376811332 L 518.8270254476494 758.3464634745073 L 518.7859396629115 757.7125 L 511.28593966291146 757.7125 Z" fill-opacity="0.5" stroke-opacity="1" stroke-miterlimit="10" stroke-width="1.25"/><text fill="rgb(0,0,0)" stroke="none" font-family="Helvetica Neue, Helvetica, sans-serif" font-size="12px" font-style="normal" font-weight="normal" text-decoration="normal" x="526.2859396629115" y="763.5625" text-anchor="middle" dominant-baseline="text-after-edge" fill-opacity="1">o</text><path fill="rgb(166,219,160)" stroke="rgb(85,85,85)" paint-order="fill stroke markers" d=" M 748 674.5 L 775 674.5 L 775 674.5 A 8 8 0 0 1 783 682.5 L 783 701.5 L 783 701.5 A 8 8 0 0 1 775 709.5 L 721 709.5 L 721 709.5 A 8 8 0 0 1 713 701.5 L 713 682.5 L 713 682.5 A 8 8 0 0 1 721 674.5 L 748 674.5 Z" fill-opacity="0.5" stroke-opacity="1" stroke-miterlimit="10" stroke-width="1.25"/><path fill="rgb(166,219,160)" stroke="rgb(85,85,85)" paint-order="fill stroke markers" d="" fill-opacity="0.5" stroke-opacity="1" stroke-miterlimit="10" stroke-width="1.25"/><text fill="rgb(0,0,0)" stroke="none" font-family="Helvetica" font-size="11px" font-style="normal" font-weight="normal" text-decoration="normal" x="748" y="697.5" text-anchor="middle" dominant-baseline="text-after-edge" fill-opacity="1">CaMKK</text><path fill="rgb(112,112,112)" stroke="rgb(85,85,85)" paint-order="fill stroke markers" d=" M 793 757.4125 L 800.5 757.4125 L 800.5 757.5625 L 800.5410857847379 756.7785365254925 L 800.6638929944965 756.0031623188668 L 800.8670761277864 755.2448725421879 L 801.1484090676805 754.5119751769315 L 801.5048094716167 753.8125 L 801.9323725421879 753.1541106078065 L 802.4264138089195 752.5440204523086 L 802.9815204523086 751.9889138089195 L 803.5916106078065 751.4948725421879 L 804.25 751.0673094716167 L 804.9494751769315 750.7109090676805 L 805.6823725421879 750.4295761277864 L 806.4406623188668 750.2263929944965 L 807.2160365254927 750.1035857847379 L 808 750.0625 L 808.7839634745073 750.1035857847379 L 809.5593376811332 750.2263929944965 L 810.3176274578121 750.4295761277864 L 811.0505248230685 750.7109090676805 L 811.75 751.0673094716167 L 812.4083893921935 751.4948725421879 L 813.0184795476914 751.9889138089195 L 813.5735861910805 752.5440204523086 L 814.0676274578121 753.1541106078065 L 814.4951905283833 753.8125 L 814.8515909323195 754.5119751769315 L 815.1329238722136 755.2448725421879 L 815.3361070055035 756.0031623188668 L 815.4589142152621 756.7785365254927 L 815.5 757.4125 L 823 757.4125 L 823 757.7125 L 815.5 757.7125 L 815.5 757.5625 L 815.4589142152621 758.3464634745073 L 815.3361070055035 759.1218376811332 L 815.1329238722136 759.8801274578121 L 814.8515909323195 760.6130248230685 L 814.4951905283833 761.3125 L 814.0676274578121 761.9708893921935 L 813.5735861910805 762.5809795476914 L 813.0184795476914 763.1360861910805 L 812.4083893921935 763.6301274578121 L 811.75 764.0576905283833 L 811.0505248230685 764.4140909323195 L 810.3176274578121 764.6954238722136 L 809.5593376811332 764.8986070055035 L 808.7839634745073 765.0214142152621 L 808 765.0625 L 807.2160365254927 765.0214142152621 L 806.4406623188668 764.8986070055035 L 805.6823725421879 764.6954238722136 L 804.9494751769315 764.4140909323195 L 804.25 764.0576905283833 L 803.5916106078065 763.6301274578121 L 802.9815204523086 763.1360861910805 L 802.4264138089195 762.5809795476914 L 801.9323725421879 761.9708893921935 L 801.5048094716167 761.3125 L 801.1484090676805 760.6130248230685 L 800.8670761277864 759.8801274578121 L 800.6638929944965 759.1218376811332 L 800.5410857847379 758.3464634745073 L 800.5 757.7125 L 793 757.7125 Z" fill-opacity="0.5" stroke-opacity="1" stroke-miterlimit="10" stroke-width="1.25"/><path fill="rgb(166,219,160)" stroke="rgb(85,85,85)" paint-order="fill stroke markers" d=" M 1019 717.125 L 1046 717.125 L 1046 717.125 A 8 8 0 0 1 1054 725.125 L 1054 744.125 L 1054 744.125 A 8 8 0 0 1 1046 752.125 L 992 752.125 L 992 752.125 A 8 8 0 0 1 984 744.125 L 984 725.125 L 984 725.125 A 8 8 0 0 1 992 717.125 L 1019 717.125 Z" fill-opacity="0.5" stroke-opacity="1" stroke-miterlimit="10" stroke-width="1.25"/><path fill="rgb(166,219,160)" stroke="rgb(85,85,85)" paint-order="fill stroke markers" d="" fill-opacity="0.5" stroke-opacity="1" stroke-miterlimit="10" stroke-width="1.25"/><text fill="rgb(0,0,0)" stroke="none" font-family="Helvetica" font-size="11px" font-style="normal" font-weight="normal" text-decoration="normal" x="1019" y="740.125" text-anchor="middle" dominant-baseline="text-after-edge" fill-opacity="1">CaM</text><path fill="rgb(231,212,232)" stroke="rgb(85,85,85)" paint-order="fill stroke markers" d=" M 955 714.625 L 955 714.625 L 955 714.625 A 20 20 0 0 1 975 734.625 L 975 734.625 L 975 734.625 A 20 20 0 0 1 955 754.625 L 955 754.625 L 955 754.625 A 20 20 0 0 1 935 734.625 L 935 734.625 L 935 734.625 A 20 20 0 0 1 955 714.625 L 955 714.625 Z" fill-opacity="0.5" stroke-opacity="1" stroke-miterlimit="10" stroke-width="1.25"/><path fill="rgb(231,212,232)" stroke="rgb(85,85,85)" paint-order="fill stroke markers" d="" fill-opacity="0.5" stroke-opacity="1" stroke-miterlimit="10" stroke-width="1.25"/><text fill="rgb(0,0,0)" stroke="none" font-family="Helvetica" font-size="11px" font-style="normal" font-weight="normal" text-decoration="normal" x="955" y="740.125" text-anchor="middle" dominant-baseline="text-after-edge" fill-opacity="1">Ca++</text><path fill="rgb(166,219,160)" stroke="rgb(85,85,85)" paint-order="fill stroke markers" d=" M 960 777.125 L 987 777.125 L 987 777.125 A 8 8 0 0 1 995 785.125 L 995 804.125 L 995 804.125 A 8 8 0 0 1 987 812.125 L 933 812.125 L 933 812.125 A 8 8 0 0 1 925 804.125 L 925 785.125 L 925 785.125 A 8 8 0 0 1 933 777.125 L 960 777.125 Z" fill-opacity="0.5" stroke-opacity="1" stroke-miterlimit="10" stroke-width="1.25"/><path fill="rgb(166,219,160)" stroke="rgb(85,85,85)" paint-order="fill stroke markers" d="" fill-opacity="0.5" stroke-opacity="1" stroke-miterlimit="10" stroke-width="1.25"/><text fill="rgb(0,0,0)" stroke="none" font-family="Helvetica" font-size="11px" font-style="normal" font-weight="normal" text-decoration="normal" x="960" y="800.125" text-anchor="middle" dominant-baseline="text-after-edge" fill-opacity="1">CaMKK</text><path fill="rgb(231,212,232)" stroke="rgb(85,85,85)" paint-order="fill stroke markers" d=" M 621.136211133063 798.5801787701424 L 621.136211133063 798.5801787701424 L 621.136211133063 798.5801787701424 A 20 20 0 0 1 641.136211133063 818.5801787701424 L 641.136211133063 818.5801787701424 L 641.136211133063 818.5801787701424 A 20 20 0 0 1 621.136211133063 838.5801787701424 L 621.136211133063 838.5801787701424 L 621.136211133063 838.5801787701424 A 20 20 0 0 1 601.136211133063 818.5801787701424 L 601.136211133063 818.5801787701424 L 601.136211133063 818.5801787701424 A 20 20 0 0 1 621.136211133063 798.5801787701424 L 621.136211133063 798.5801787701424 Z" fill-opacity="0.5" stroke-opacity="1" stroke-miterlimit="10" stroke-width="1.25"/><path fill="rgb(231,212,232)" stroke="rgb(85,85,85)" paint-order="fill stroke markers" d="" fill-opacity="0.5" stroke-opacity="1" stroke-miterlimit="10" stroke-width="1.25"/><text fill="rgb(0,0,0)" stroke="none" font-family="Helvetica" font-size="11px" font-style="normal" font-weight="normal" text-decoration="normal" x="621.136211133063" y="824.0801787701424" text-anchor="middle" dominant-baseline="text-after-edge" fill-opacity="1">Ca++</text><path fill="rgb(166,219,160)" stroke="rgb(85,85,85)" paint-order="fill stroke markers" d=" M 682.1362111330628 801.0801787701424 L 709.1362111330628 801.0801787701424 L 709.1362111330628 801.0801787701424 A 8 8 0 0 1 717.1362111330628 809.0801787701424 L 717.1362111330628 828.0801787701424 L 717.1362111330628 828.0801787701424 A 8 8 0 0 1 709.1362111330628 836.0801787701424 L 655.1362111330628 836.0801787701424 L 655.1362111330628 836.0801787701424 A 8 8 0 0 1 647.1362111330628 828.0801787701424 L 647.1362111330628 809.0801787701424 L 647.1362111330628 809.0801787701424 A 8 8 0 0 1 655.1362111330628 801.0801787701424 L 682.1362111330628 801.0801787701424 Z" fill-opacity="0.5" stroke-opacity="1" stroke-miterlimit="10" stroke-width="1.25"/><path fill="rgb(166,219,160)" stroke="rgb(85,85,85)" paint-order="fill stroke markers" d="" fill-opacity="0.5" stroke-opacity="1" stroke-miterlimit="10" stroke-width="1.25"/><text fill="rgb(0,0,0)" stroke="none" font-family="Helvetica" font-size="11px" font-style="normal" font-weight="normal" text-decoration="normal" x="682.1362111330628" y="824.0801787701424" text-anchor="middle" dominant-baseline="text-after-edge" fill-opacity="1">CaM</text><path fill="rgb(166,219,160)" stroke="rgb(85,85,85)" paint-order="fill stroke markers" d=" M 519 854.5 L 546 854.5 L 546 854.5 A 8 8 0 0 1 554 862.5 L 554 881.5 L 554 881.5 A 8 8 0 0 1 546 889.5 L 492 889.5 L 492 889.5 A 8 8 0 0 1 484 881.5 L 484 862.5 L 484 862.5 A 8 8 0 0 1 492 854.5 L 519 854.5 Z" fill-opacity="0.5" stroke-opacity="1" stroke-miterlimit="10" stroke-width="1.25"/><path fill="rgb(166,219,160)" stroke="rgb(85,85,85)" paint-order="fill stroke markers" d="" fill-opacity="0.5" stroke-opacity="1" stroke-miterlimit="10" stroke-width="1.25"/><text fill="rgb(0,0,0)" stroke="none" font-family="Helvetica" font-size="11px" font-style="normal" font-weight="normal" text-decoration="normal" x="519" y="877.5" text-anchor="middle" dominant-baseline="text-after-edge" fill-opacity="1">CaMKIV</text><path fill="rgb(112,112,112)" stroke="rgb(85,85,85)" paint-order="fill stroke markers" d=" M 658.986211133063 904 L 658.986211133063 911.5 L 659.136211133063 911.5 L 658.3522476585556 911.5410857847379 L 657.5768734519297 911.6638929944965 L 656.8185836752508 911.8670761277864 L 656.0856863099945 912.1484090676805 L 655.386211133063 912.5048094716167 L 654.7278217408694 912.9323725421879 L 654.1177315853715 913.4264138089195 L 653.5626249419824 913.9815204523086 L 653.0685836752508 914.5916106078065 L 652.6410206046796 915.25 L 652.2846202007435 915.9494751769315 L 652.0032872608493 916.6823725421879 L 651.8001041275594 917.4406623188668 L 651.6772969178008 918.2160365254925 L 651.636211133063 919 L 651.6772969178008 919.7839634745073 L 651.8001041275594 920.5593376811332 L 652.0032872608493 921.3176274578121 L 652.2846202007435 922.0505248230685 L 652.6410206046796 922.75 L 653.0685836752508 923.4083893921935 L 653.5626249419824 924.0184795476914 L 654.1177315853715 924.5735861910805 L 654.7278217408694 925.0676274578121 L 655.386211133063 925.4951905283833 L 656.0856863099945 925.8515909323195 L 656.8185836752508 926.1329238722136 L 657.5768734519297 926.3361070055035 L 658.3522476585556 926.4589142152621 L 658.986211133063 926.5 L 658.986211133063 934 L 659.2862111330629 934 L 659.2862111330629 926.5 L 659.136211133063 926.5 L 659.9201746075703 926.4589142152621 L 660.6955488141962 926.3361070055035 L 661.4538385908751 926.1329238722136 L 662.1867359561314 925.8515909323195 L 662.886211133063 925.4951905283833 L 663.5446005252564 925.0676274578121 L 664.1546906807544 924.5735861910805 L 664.7097973241434 924.0184795476914 L 665.2038385908751 923.4083893921935 L 665.6314016614463 922.75 L 665.9878020653824 922.0505248230685 L 666.2691350052766 921.3176274578121 L 666.4723181385665 920.5593376811332 L 666.595125348325 919.7839634745073 L 666.636211133063 919 L 666.595125348325 918.2160365254927 L 666.4723181385665 917.4406623188668 L 666.2691350052766 916.6823725421879 L 665.9878020653824 915.9494751769315 L 665.6314016614463 915.25 L 665.2038385908751 914.5916106078065 L 664.7097973241434 913.9815204523086 L 664.1546906807544 913.4264138089195 L 663.5446005252564 912.9323725421879 L 662.886211133063 912.5048094716167 L 662.1867359561314 912.1484090676805 L 661.4538385908751 911.8670761277864 L 660.6955488141962 911.6638929944965 L 659.9201746075703 911.5410857847379 L 659.2862111330629 911.5 L 659.2862111330629 904 Z" fill-opacity="0.5" stroke-opacity="1" stroke-miterlimit="10" stroke-width="1.25"/><path fill="rgb(166,219,160)" stroke="rgb(85,85,85)" paint-order="fill stroke markers" d=" M 848.2491938838532 1170.9691972897863 L 875.2491938838532 1170.9691972897863 L 875.2491938838532 1170.9691972897863 A 8 8 0 0 1 883.2491938838532 1178.9691972897863 L 883.2491938838532 1197.9691972897863 L 883.2491938838532 1197.9691972897863 A 8 8 0 0 1 875.2491938838532 1205.9691972897863 L 821.2491938838532 1205.9691972897863 L 821.2491938838532 1205.9691972897863 A 8 8 0 0 1 813.2491938838532 1197.9691972897863 L 813.2491938838532 1178.9691972897863 L 813.2491938838532 1178.9691972897863 A 8 8 0 0 1 821.2491938838532 1170.9691972897863 L 848.2491938838532 1170.9691972897863 Z" fill-opacity="0.5" stroke-opacity="1" stroke-miterlimit="10" stroke-width="1.25"/><path fill="#ffffff" stroke="rgb(85,85,85)" paint-order="fill stroke markers" d=" M 833.2491938838532 1160.9691972897863 L 833.2491938838532 1160.9691972897863 L 833.2491938838532 1160.9691972897863 A 10 10 0 0 1 843.2491938838532 1170.9691972897863 L 843.2491938838532 1170.9691972897863 L 843.2491938838532 1170.9691972897863 A 10 10 0 0 1 833.2491938838532 1180.9691972897863 L 833.2491938838532 1180.9691972897863 L 833.2491938838532 1180.9691972897863 A 10 10 0 0 1 823.2491938838532 1170.9691972897863 L 823.2491938838532 1170.9691972897863 L 823.2491938838532 1170.9691972897863 A 10 10 0 0 1 833.2491938838532 1160.9691972897863 L 833.2491938838532 1160.9691972897863 Z" stroke-opacity="1" stroke-miterlimit="10" stroke-width="1.25"/><path fill="rgb(166,219,160)" stroke="rgb(85,85,85)" paint-order="fill stroke markers" d="" fill-opacity="0.5" stroke-opacity="1" stroke-miterlimit="10" stroke-width="1.25"/><text fill="rgb(0,0,0)" stroke="none" font-family="Helvetica" font-size="11px" font-style="normal" font-weight="normal" text-decoration="normal" x="848.2491938838532" y="1193.9691972897863" text-anchor="middle" dominant-baseline="text-after-edge" fill-opacity="1">CREB</text><path fill="rgb(166,219,160)" stroke="rgb(85,85,85)" paint-order="fill stroke markers" d=" M 1141.2491938838532 1170.9691972897863 L 1168.2491938838532 1170.9691972897863 L 1168.2491938838532 1170.9691972897863 A 8 8 0 0 1 1176.2491938838532 1178.9691972897863 L 1176.2491938838532 1197.9691972897863 L 1176.2491938838532 1197.9691972897863 A 8 8 0 0 1 1168.2491938838532 1205.9691972897863 L 1114.2491938838532 1205.9691972897863 L 1114.2491938838532 1205.9691972897863 A 8 8 0 0 1 1106.2491938838532 1197.9691972897863 L 1106.2491938838532 1178.9691972897863 L 1106.2491938838532 1178.9691972897863 A 8 8 0 0 1 1114.2491938838532 1170.9691972897863 L 1141.2491938838532 1170.9691972897863 Z" fill-opacity="0.5" stroke-opacity="1" stroke-miterlimit="10" stroke-width="1.25"/><path fill="#ffffff" stroke="rgb(85,85,85)" paint-order="fill stroke markers" d=" M 1128.2491938838532 1160.9691972897863 L 1130.2491938838532 1160.9691972897863 L 1130.2491938838532 1160.9691972897863 A 10 10 0 0 1 1140.2491938838532 1170.9691972897863 L 1140.2491938838532 1170.9691972897863 L 1140.2491938838532 1170.9691972897863 A 10 10 0 0 1 1130.2491938838532 1180.9691972897863 L 1126.2491938838532 1180.9691972897863 L 1126.2491938838532 1180.9691972897863 A 10 10 0 0 1 1116.2491938838532 1170.9691972897863 L 1116.2491938838532 1170.9691972897863 L 1116.2491938838532 1170.9691972897863 A 10 10 0 0 1 1126.2491938838532 1160.9691972897863 L 1128.2491938838532 1160.9691972897863 Z" stroke-opacity="1" stroke-miterlimit="10" stroke-width="1.25"/><text fill="#0f0f0f" stroke="none" font-family="Arial" font-size="9px" font-style="normal" font-weight="normal" text-decoration="normal" x="1128.2491938838532" y="1170.9691972897863" text-anchor="middle" dominant-baseline="central">P</text><path fill="rgb(166,219,160)" stroke="rgb(85,85,85)" paint-order="fill stroke markers" d="" fill-opacity="0.5" stroke-opacity="1" stroke-miterlimit="10" stroke-width="1.25"/><text fill="rgb(0,0,0)" stroke="none" font-family="Helvetica" font-size="11px" font-style="normal" font-weight="normal" text-decoration="normal" x="1141.2491938838532" y="1193.9691972897863" text-anchor="middle" dominant-baseline="text-after-edge" fill-opacity="1">CREB</text><path fill="rgb(247,247,247)" stroke="rgb(85,85,85)" paint-order="fill stroke markers" d=" M 1123.7491938838532 1288.9691972897863 L 1106.2491938838532 1306.4691972897863 L 1123.7491938838532 1323.9691972897863 L 1158.7491938838532 1323.9691972897863 L 1176.2491938838532 1306.4691972897863 L 1158.7491938838532 1288.9691972897863 Z" fill-opacity="0.5" stroke-opacity="1" stroke-miterlimit="10" stroke-width="1.25"/><text fill="rgb(0,0,0)" stroke="none" font-family="Helvetica" font-size="11px" font-style="normal" font-weight="normal" text-decoration="normal" x="1141.2491938838532" y="1311.9691972897863" text-anchor="middle" dominant-baseline="text-after-edge" fill-opacity="1">Gene expression</text><path fill="rgb(166,219,160)" stroke="rgb(85,85,85)" paint-order="fill stroke markers" d=" M 625.511211133063 1078.5 L 652.511211133063 1078.5 L 652.511211133063 1078.5 A 8 8 0 0 1 660.511211133063 1086.5 L 660.511211133063 1105.5 L 660.511211133063 1105.5 A 8 8 0 0 1 652.511211133063 1113.5 L 598.511211133063 1113.5 L 598.511211133063 1113.5 A 8 8 0 0 1 590.511211133063 1105.5 L 590.511211133063 1086.5 L 590.511211133063 1086.5 A 8 8 0 0 1 598.511211133063 1078.5 L 625.511211133063 1078.5 Z" fill-opacity="0.5" stroke-opacity="1" stroke-miterlimit="10" stroke-width="1.25"/><path fill="rgb(166,219,160)" stroke="rgb(85,85,85)" paint-order="fill stroke markers" d="" fill-opacity="0.5" stroke-opacity="1" stroke-miterlimit="10" stroke-width="1.25"/><text fill="rgb(0,0,0)" stroke="none" font-family="Helvetica" font-size="11px" font-style="normal" font-weight="normal" text-decoration="normal" x="625.511211133063" y="1101.5" text-anchor="middle" dominant-baseline="text-after-edge" fill-opacity="1">CaMKIV</text><path fill="rgb(231,212,232)" stroke="rgb(85,85,85)" paint-order="fill stroke markers" d=" M 621.136211133063 1017 L 621.136211133063 1017 L 621.136211133063 1017 A 20 20 0 0 1 641.136211133063 1037 L 641.136211133063 1037 L 641.136211133063 1037 A 20 20 0 0 1 621.136211133063 1057 L 621.136211133063 1057 L 621.136211133063 1057 A 20 20 0 0 1 601.136211133063 1037 L 601.136211133063 1037 L 601.136211133063 1037 A 20 20 0 0 1 621.136211133063 1017 L 621.136211133063 1017 Z" fill-opacity="0.5" stroke-opacity="1" stroke-miterlimit="10" stroke-width="1.25"/><path fill="rgb(231,212,232)" stroke="rgb(85,85,85)" paint-order="fill stroke markers" d="" fill-opacity="0.5" stroke-opacity="1" stroke-miterlimit="10" stroke-width="1.25"/><text fill="rgb(0,0,0)" stroke="none" font-family="Helvetica" font-size="11px" font-style="normal" font-weight="normal" text-decoration="normal" x="621.136211133063" y="1042.5" text-anchor="middle" dominant-baseline="text-after-edge" fill-opacity="1">Ca++</text><path fill="rgb(166,219,160)" stroke="rgb(85,85,85)" paint-order="fill stroke markers" d=" M 682.1362111330628 1019.5 L 709.1362111330628 1019.5 L 709.1362111330628 1019.5 A 8 8 0 0 1 717.1362111330628 1027.5 L 717.1362111330628 1046.5 L 717.1362111330628 1046.5 A 8 8 0 0 1 709.1362111330628 1054.5 L 655.1362111330628 1054.5 L 655.1362111330628 1054.5 A 8 8 0 0 1 647.1362111330628 1046.5 L 647.1362111330628 1027.5 L 647.1362111330628 1027.5 A 8 8 0 0 1 655.1362111330628 1019.5 L 682.1362111330628 1019.5 Z" fill-opacity="0.5" stroke-opacity="1" stroke-miterlimit="10" stroke-width="1.25"/><path fill="rgb(166,219,160)" stroke="rgb(85,85,85)" paint-order="fill stroke markers" d="" fill-opacity="0.5" stroke-opacity="1" stroke-miterlimit="10" stroke-width="1.25"/><text fill="rgb(0,0,0)" stroke="none" font-family="Helvetica" font-size="11px" font-style="normal" font-weight="normal" text-decoration="normal" x="682.1362111330628" y="1042.5" text-anchor="middle" dominant-baseline="text-after-edge" fill-opacity="1">CaM</text><path fill="rgb(255,255,255)" stroke="rgb(85,85,85)" paint-order="fill stroke markers" d=" M 823.9754103538849 986.3960162674967 L 831.4754103538849 986.3960162674967 L 831.4754103538849 979.0460162674967 L 846.4754103538849 979.0460162674967 L 846.4754103538849 986.3960162674967 L 853.9754103538849 986.3960162674967 L 853.9754103538849 986.6960162674967 L 846.4754103538849 986.6960162674967 L 846.4754103538849 994.0460162674967 L 831.4754103538849 994.0460162674967 L 831.4754103538849 986.6960162674967 L 823.9754103538849 986.6960162674967 Z" fill-opacity="0.5" stroke-opacity="1" stroke-miterlimit="10" stroke-width="1.25"/><path fill="rgb(166,219,160)" stroke="rgb(85,85,85)" paint-order="fill stroke markers" d=" M 960 1066.1228746770742 L 987 1066.1228746770742 L 987 1066.1228746770742 A 8 8 0 0 1 995 1074.1228746770742 L 995 1093.1228746770742 L 995 1093.1228746770742 A 8 8 0 0 1 987 1101.1228746770742 L 933 1101.1228746770742 L 933 1101.1228746770742 A 8 8 0 0 1 925 1093.1228746770742 L 925 1074.1228746770742 L 925 1074.1228746770742 A 8 8 0 0 1 933 1066.1228746770742 L 960 1066.1228746770742 Z" fill-opacity="0.5" stroke-opacity="1" stroke-miterlimit="10" stroke-width="1.25"/><path fill="rgb(166,219,160)" stroke="rgb(85,85,85)" paint-order="fill stroke markers" d="" fill-opacity="0.5" stroke-opacity="1" stroke-miterlimit="10" stroke-width="1.25"/><text fill="rgb(0,0,0)" stroke="none" font-family="Helvetica" font-size="11px" font-style="normal" font-weight="normal" text-decoration="normal" x="960" y="1089.1228746770742" text-anchor="middle" dominant-baseline="text-after-edge" fill-opacity="1">CaMKIV</text><path fill="rgb(231,212,232)" stroke="rgb(85,85,85)" paint-order="fill stroke markers" d=" M 955 1001.6228746770742 L 955 1001.6228746770742 L 955 1001.6228746770742 A 20 20 0 0 1 975 1021.6228746770742 L 975 1021.6228746770742 L 975 1021.6228746770742 A 20 20 0 0 1 955 1041.6228746770742 L 955 1041.6228746770742 L 955 1041.6228746770742 A 20 20 0 0 1 935 1021.6228746770742 L 935 1021.6228746770742 L 935 1021.6228746770742 A 20 20 0 0 1 955 1001.6228746770742 L 955 1001.6228746770742 Z" fill-opacity="0.5" stroke-opacity="1" stroke-miterlimit="10" stroke-width="1.25"/><path fill="rgb(231,212,232)" stroke="rgb(85,85,85)" paint-order="fill stroke markers" d="" fill-opacity="0.5" stroke-opacity="1" stroke-miterlimit="10" stroke-width="1.25"/><text fill="rgb(0,0,0)" stroke="none" font-family="Helvetica" font-size="11px" font-style="normal" font-weight="normal" text-decoration="normal" x="955" y="1027.1228746770742" text-anchor="middle" dominant-baseline="text-after-edge" fill-opacity="1">Ca++</text><path fill="rgb(166,219,160)" stroke="rgb(85,85,85)" paint-order="fill stroke markers" d=" M 1019 1004.1228746770742 L 1046 1004.1228746770742 L 1046 1004.1228746770742 A 8 8 0 0 1 1054 1012.1228746770742 L 1054 1031.1228746770742 L 1054 1031.1228746770742 A 8 8 0 0 1 1046 1039.1228746770742 L 992 1039.1228746770742 L 992 1039.1228746770742 A 8 8 0 0 1 984 1031.1228746770742 L 984 1012.1228746770742 L 984 1012.1228746770742 A 8 8 0 0 1 992 1004.1228746770742 L 1019 1004.1228746770742 Z" fill-opacity="0.5" stroke-opacity="1" stroke-miterlimit="10" stroke-width="1.25"/><path fill="rgb(166,219,160)" stroke="rgb(85,85,85)" paint-order="fill stroke markers" d="" fill-opacity="0.5" stroke-opacity="1" stroke-miterlimit="10" stroke-width="1.25"/><text fill="rgb(0,0,0)" stroke="none" font-family="Helvetica" font-size="11px" font-style="normal" font-weight="normal" text-decoration="normal" x="1019" y="1027.1228746770742" text-anchor="middle" dominant-baseline="text-after-edge" fill-opacity="1">CaM</text><path fill="rgb(255,255,255)" stroke="rgb(85,85,85)" paint-order="fill stroke markers" d=" M 979.5 1188.3191972897862 L 987 1188.3191972897862 L 987 1180.9691972897863 L 1002 1180.9691972897863 L 1002 1188.3191972897862 L 1009.5 1188.3191972897862 L 1009.5 1188.6191972897864 L 1002 1188.6191972897864 L 1002 1195.9691972897863 L 987 1195.9691972897863 L 987 1188.6191972897864 L 979.5 1188.6191972897864 Z" fill-opacity="0.5" stroke-opacity="1" stroke-miterlimit="10" stroke-width="1.25"/><path fill="rgb(231,212,232)" stroke="rgb(85,85,85)" paint-order="fill stroke markers" d=" M 927 222 L 927 222 L 927 222 A 20 20 0 0 1 947 242 L 947 242 L 947 242 A 20 20 0 0 1 927 262 L 927 262 L 927 262 A 20 20 0 0 1 907 242 L 907 242 L 907 242 A 20 20 0 0 1 927 222 L 927 222 Z" fill-opacity="0.5" stroke-opacity="1" stroke-miterlimit="10" stroke-width="1.25"/><path fill="rgb(231,212,232)" stroke="rgb(85,85,85)" paint-order="fill stroke markers" d="" fill-opacity="0.5" stroke-opacity="1" stroke-miterlimit="10" stroke-width="1.25"/><text fill="rgb(0,0,0)" stroke="none" font-family="Helvetica" font-size="11px" font-style="normal" font-weight="normal" text-decoration="normal" x="927" y="247.5" text-anchor="middle" dominant-baseline="text-after-edge" fill-opacity="1">Ca++</text><path fill="rgb(166,219,160)" stroke="rgb(85,85,85)" paint-order="fill stroke markers" d=" M 1075.4291831723642 224.5 L 1102.4291831723642 224.5 L 1102.4291831723642 224.5 A 8 8 0 0 1 1110.4291831723642 232.5 L 1110.4291831723642 251.5 L 1110.4291831723642 251.5 A 8 8 0 0 1 1102.4291831723642 259.5 L 1048.4291831723642 259.5 L 1048.4291831723642 259.5 A 8 8 0 0 1 1040.4291831723642 251.5 L 1040.4291831723642 232.5 L 1040.4291831723642 232.5 A 8 8 0 0 1 1048.4291831723642 224.5 L 1075.4291831723642 224.5 Z" fill-opacity="0.5" stroke-opacity="1" stroke-miterlimit="10" stroke-width="1.25"/><path fill="rgb(166,219,160)" stroke="rgb(85,85,85)" paint-order="fill stroke markers" d="" fill-opacity="0.5" stroke-opacity="1" stroke-miterlimit="10" stroke-width="1.25"/><text fill="rgb(0,0,0)" stroke="none" font-family="Helvetica" font-size="11px" font-style="normal" font-weight="normal" text-decoration="normal" x="1075.4291831723642" y="247.5" text-anchor="middle" dominant-baseline="text-after-edge" fill-opacity="1">CaM</text><path fill="rgb(112,112,112)" stroke="rgb(85,85,85)" paint-order="fill stroke markers" d=" M 993.4906295841157 286.42347226067875 L 993.4906295841157 293.92347226067875 L 993.6406295841157 293.92347226067875 L 992.8566661096083 293.9645580454167 L 992.0812919029825 294.0873652551752 L 991.3230021263035 294.2905483884651 L 990.5901047610472 294.57188132835927 L 989.8906295841157 294.92828173229543 L 989.2322401919222 295.35584480286667 L 988.6221500364243 295.8498860695983 L 988.0670433930352 296.40499271298734 L 987.5730021263035 297.0150828684852 L 987.1454390557324 297.67347226067875 L 986.7890386517962 298.37294743761026 L 986.5077057119021 299.10584480286667 L 986.3045225786121 299.8641345795456 L 986.1817153688536 300.63950878617135 L 986.1406295841157 301.42347226067875 L 986.1817153688536 302.20743573518615 L 986.3045225786121 302.9828099418119 L 986.5077057119021 303.74109971849083 L 986.7890386517962 304.47399708374724 L 987.1454390557324 305.17347226067875 L 987.5730021263035 305.8318616528723 L 988.0670433930352 306.44195180837016 L 988.6221500364243 306.9970584517592 L 989.2322401919222 307.49109971849083 L 989.8906295841157 307.918662789062 L 990.5901047610472 308.27506319299823 L 991.3230021263035 308.5563961328924 L 992.0812919029825 308.7595792661823 L 992.8566661096083 308.8823864759408 L 993.4906295841157 308.92347226067875 L 993.4906295841157 316.42347226067875 L 993.7906295841157 316.42347226067875 L 993.7906295841157 308.92347226067875 L 993.6406295841157 308.92347226067875 L 994.424593058623 308.8823864759408 L 995.1999672652489 308.7595792661823 L 995.9582570419278 308.5563961328924 L 996.6911544071842 308.27506319299823 L 997.3906295841157 307.918662789062 L 998.0490189763092 307.49109971849083 L 998.6591091318071 306.9970584517592 L 999.2142157751962 306.44195180837016 L 999.7082570419278 305.8318616528723 L 1000.135820112499 305.17347226067875 L 1000.4922205164352 304.47399708374724 L 1000.7735534563293 303.74109971849083 L 1000.9767365896192 302.9828099418119 L 1001.0995437993778 302.20743573518615 L 1001.1406295841157 301.42347226067875 L 1001.0995437993778 300.63950878617135 L 1000.9767365896192 299.8641345795456 L 1000.7735534563293 299.10584480286667 L 1000.4922205164352 298.37294743761026 L 1000.135820112499 297.67347226067875 L 999.7082570419278 297.0150828684852 L 999.2142157751962 296.40499271298734 L 998.6591091318071 295.8498860695983 L 998.0490189763092 295.35584480286667 L 997.3906295841157 294.9282817322955 L 996.6911544071842 294.57188132835927 L 995.9582570419278 294.2905483884651 L 995.1999672652489 294.0873652551752 L 994.424593058623 293.9645580454167 L 993.7906295841157 293.92347226067875 L 993.7906295841157 286.42347226067875 Z" fill-opacity="0.5" stroke-opacity="1" stroke-miterlimit="10" stroke-width="1.25"/><path fill="rgb(166,219,160)" stroke="rgb(85,85,85)" paint-order="fill stroke markers" d=" M 993.7822632393872 521.1168132336828 L 1020.7822632393872 521.1168132336828 L 1020.7822632393872 521.1168132336828 A 8 8 0 0 1 1028.7822632393872 529.1168132336828 L 1028.7822632393872 548.1168132336828 L 1028.7822632393872 548.1168132336828 A 8 8 0 0 1 1020.7822632393872 556.1168132336828 L 966.7822632393872 556.1168132336828 L 966.7822632393872 556.1168132336828 A 8 8 0 0 1 958.7822632393872 548.1168132336828 L 958.7822632393872 529.1168132336828 L 958.7822632393872 529.1168132336828 A 8 8 0 0 1 966.7822632393872 521.1168132336828 L 993.7822632393872 521.1168132336828 Z" fill-opacity="0.5" stroke-opacity="1" stroke-miterlimit="10" stroke-width="1.25"/><path fill="rgb(166,219,160)" stroke="rgb(85,85,85)" paint-order="fill stroke markers" d="" fill-opacity="0.5" stroke-opacity="1" stroke-miterlimit="10" stroke-width="1.25"/><text fill="rgb(0,0,0)" stroke="none" font-family="Helvetica" font-size="11px" font-style="normal" font-weight="normal" text-decoration="normal" x="993.7822632393872" y="544.1168132336828" text-anchor="middle" dominant-baseline="text-after-edge" fill-opacity="1">γCaMKII</text><path fill="rgb(166,219,160)" stroke="rgb(85,85,85)" paint-order="fill stroke markers" d=" M 1021.2822632393872 365.7475809530113 L 1048.2822632393872 365.7475809530113 L 1048.2822632393872 365.7475809530113 A 8 8 0 0 1 1056.2822632393872 373.7475809530113 L 1056.2822632393872 392.7475809530113 L 1056.2822632393872 392.7475809530113 A 8 8 0 0 1 1048.2822632393872 400.7475809530113 L 994.2822632393872 400.7475809530113 L 994.2822632393872 400.7475809530113 A 8 8 0 0 1 986.2822632393872 392.7475809530113 L 986.2822632393872 373.7475809530113 L 986.2822632393872 373.7475809530113 A 8 8 0 0 1 994.2822632393872 365.7475809530113 L 1021.2822632393872 365.7475809530113 Z" fill-opacity="0.5" stroke-opacity="1" stroke-miterlimit="10" stroke-width="1.25"/><path fill="rgb(166,219,160)" stroke="rgb(85,85,85)" paint-order="fill stroke markers" d="" fill-opacity="0.5" stroke-opacity="1" stroke-miterlimit="10" stroke-width="1.25"/><text fill="rgb(0,0,0)" stroke="none" font-family="Helvetica" font-size="11px" font-style="normal" font-weight="normal" text-decoration="normal" x="1021.2822632393872" y="388.7475809530113" text-anchor="middle" dominant-baseline="text-after-edge" fill-opacity="1">CaM</text><path fill="rgb(231,212,232)" stroke="rgb(85,85,85)" paint-order="fill stroke markers" d=" M 951.2822632393871 363.2475809530113 L 951.2822632393871 363.2475809530113 L 951.2822632393871 363.2475809530113 A 20 20 0 0 1 971.2822632393871 383.2475809530113 L 971.2822632393871 383.2475809530113 L 971.2822632393871 383.2475809530113 A 20 20 0 0 1 951.2822632393871 403.2475809530113 L 951.2822632393871 403.2475809530113 L 951.2822632393871 403.2475809530113 A 20 20 0 0 1 931.2822632393871 383.2475809530113 L 931.2822632393871 383.2475809530113 L 931.2822632393871 383.2475809530113 A 20 20 0 0 1 951.2822632393871 363.2475809530113 L 951.2822632393871 363.2475809530113 Z" fill-opacity="0.5" stroke-opacity="1" stroke-miterlimit="10" stroke-width="1.25"/><path fill="rgb(231,212,232)" stroke="rgb(85,85,85)" paint-order="fill stroke markers" d="" fill-opacity="0.5" stroke-opacity="1" stroke-miterlimit="10" stroke-width="1.25"/><text fill="rgb(0,0,0)" stroke="none" font-family="Helvetica" font-size="11px" font-style="normal" font-weight="normal" text-decoration="normal" x="951.2822632393871" y="388.7475809530113" text-anchor="middle" dominant-baseline="text-after-edge" fill-opacity="1">Ca++</text><path fill="rgb(112,112,112)" stroke="rgb(85,85,85)" paint-order="fill stroke markers" d=" M 866.1984393725336 462.41249999999997 L 873.6984393725336 462.41249999999997 L 873.6984393725336 462.56249999999994 L 873.7395251572715 461.77853652549254 L 873.86233236703 461.00316231886677 L 874.06551550032 460.24487254218786 L 874.3468484402141 459.51197517693146 L 874.7032488441503 458.81249999999994 L 875.1308119147214 458.1541106078064 L 875.6248531814531 457.54402045230853 L 876.1799598248422 456.9889138089195 L 876.7900499803401 456.49487254218786 L 877.4484393725336 456.0673094716167 L 878.1479145494651 455.71090906768046 L 878.8808119147214 455.4295761277863 L 879.6391016914004 455.2263929944964 L 880.4144758980262 455.1035857847379 L 881.1984393725336 455.06249999999994 L 881.9824028470409 455.1035857847379 L 882.7577770536668 455.2263929944964 L 883.5160668303457 455.4295761277863 L 884.2489641956021 455.71090906768046 L 884.9484393725336 456.0673094716167 L 885.6068287647271 456.49487254218786 L 886.216918920225 456.9889138089195 L 886.7720255636141 457.54402045230853 L 887.2660668303457 458.1541106078064 L 887.6936299009169 458.81249999999994 L 888.0500303048531 459.51197517693146 L 888.3313632447472 460.24487254218786 L 888.5345463780371 461.00316231886677 L 888.6573535877957 461.77853652549254 L 888.6984393725336 462.41249999999997 L 896.1984393725336 462.41249999999997 L 896.1984393725336 462.7124999999999 L 888.6984393725336 462.7124999999999 L 888.6984393725336 462.56249999999994 L 888.6573535877957 463.34646347450735 L 888.5345463780371 464.1218376811331 L 888.3313632447472 464.880127457812 L 888.0500303048531 465.61302482306843 L 887.6936299009169 466.31249999999994 L 887.2660668303457 466.9708893921935 L 886.7720255636141 467.58097954769136 L 886.216918920225 468.1360861910804 L 885.6068287647271 468.630127457812 L 884.9484393725336 469.0576905283832 L 884.2489641956021 469.4140909323194 L 883.5160668303457 469.6954238722136 L 882.7577770536668 469.8986070055035 L 881.9824028470409 470.021414215262 L 881.1984393725336 470.06249999999994 L 880.4144758980262 470.021414215262 L 879.6391016914004 469.8986070055035 L 878.8808119147214 469.6954238722136 L 878.1479145494651 469.4140909323194 L 877.4484393725336 469.0576905283832 L 876.7900499803401 468.630127457812 L 876.1799598248422 468.1360861910804 L 875.6248531814531 467.58097954769136 L 875.1308119147214 466.9708893921935 L 874.7032488441503 466.31249999999994 L 874.3468484402141 465.61302482306843 L 874.06551550032 464.880127457812 L 873.86233236703 464.1218376811331 L 873.7395251572715 463.34646347450735 L 873.6984393725336 462.7124999999999 L 866.1984393725336 462.7124999999999 Z" fill-opacity="0.5" stroke-opacity="1" stroke-miterlimit="10" stroke-width="1.25"/><path fill="rgb(166,219,160)" stroke="rgb(85,85,85)" paint-order="fill stroke markers" d=" M 545.4786308370205 373.25551187558693 L 572.4786308370205 373.25551187558693 L 572.4786308370205 373.25551187558693 A 8 8 0 0 1 580.4786308370205 381.25551187558693 L 580.4786308370205 400.25551187558693 L 580.4786308370205 400.25551187558693 A 8 8 0 0 1 572.4786308370205 408.25551187558693 L 518.4786308370205 408.25551187558693 L 518.4786308370205 408.25551187558693 A 8 8 0 0 1 510.47863083702055 400.25551187558693 L 510.47863083702055 381.25551187558693 L 510.47863083702055 381.25551187558693 A 8 8 0 0 1 518.4786308370205 373.25551187558693 L 545.4786308370205 373.25551187558693 Z" fill-opacity="0.5" stroke-opacity="1" stroke-miterlimit="10" stroke-width="1.25"/><path fill="rgb(166,219,160)" stroke="rgb(85,85,85)" paint-order="fill stroke markers" d="" fill-opacity="0.5" stroke-opacity="1" stroke-miterlimit="10" stroke-width="1.25"/><text fill="rgb(0,0,0)" stroke="none" font-family="Helvetica" font-size="11px" font-style="normal" font-weight="normal" text-decoration="normal" x="545.4786308370205" y="396.25551187558693" text-anchor="middle" dominant-baseline="text-after-edge" fill-opacity="1">CaN</text><path fill="rgb(255,255,255)" stroke="rgb(85,85,85)" paint-order="fill stroke markers" d=" M 530 462.4125 L 537.5 462.4125 L 537.5 455.0625 L 552.5 455.0625 L 552.5 462.4125 L 560 462.4125 L 560 462.7125 L 552.5 462.7125 L 552.5 470.0625 L 537.5 470.0625 L 537.5 462.7125 L 530 462.7125 Z" fill-opacity="0.5" stroke-opacity="1" stroke-miterlimit="10" stroke-width="1.25"/><path fill="rgb(166,219,160)" stroke="rgb(85,85,85)" paint-order="fill stroke markers" d=" M 332 409.5 L 359 409.5 L 359 409.5 A 8 8 0 0 1 367 417.5 L 367 436.5 L 367 436.5 A 8 8 0 0 1 359 444.5 L 305 444.5 L 305 444.5 A 8 8 0 0 1 297 436.5 L 297 417.5 L 297 417.5 A 8 8 0 0 1 305 409.5 L 332 409.5 Z" fill-opacity="0.5" stroke-opacity="1" stroke-miterlimit="10" stroke-width="1.25"/><path fill="rgb(166,219,160)" stroke="rgb(85,85,85)" paint-order="fill stroke markers" d="" fill-opacity="0.5" stroke-opacity="1" stroke-miterlimit="10" stroke-width="1.25"/><text fill="rgb(0,0,0)" stroke="none" font-family="Helvetica" font-size="11px" font-style="normal" font-weight="normal" text-decoration="normal" x="332" y="432.5" text-anchor="middle" dominant-baseline="text-after-edge" fill-opacity="1">γCaMKII</text><path fill="rgb(231,212,232)" stroke="rgb(85,85,85)" paint-order="fill stroke markers" d=" M 327 464 L 327 464 L 327 464 A 20 20 0 0 1 347 484 L 347 484 L 347 484 A 20 20 0 0 1 327 504 L 327 504 L 327 504 A 20 20 0 0 1 307 484 L 307 484 L 307 484 A 20 20 0 0 1 327 464 L 327 464 Z" fill-opacity="0.5" stroke-opacity="1" stroke-miterlimit="10" stroke-width="1.25"/><path fill="rgb(231,212,232)" stroke="rgb(85,85,85)" paint-order="fill stroke markers" d="" fill-opacity="0.5" stroke-opacity="1" stroke-miterlimit="10" stroke-width="1.25"/><text fill="rgb(0,0,0)" stroke="none" font-family="Helvetica" font-size="11px" font-style="normal" font-weight="normal" text-decoration="normal" x="327" y="489.5" text-anchor="middle" dominant-baseline="text-after-edge" fill-opacity="1">Ca++</text><path fill="rgb(166,219,160)" stroke="rgb(85,85,85)" paint-order="fill stroke markers" d=" M 388 466.5 L 415 466.5 L 415 466.5 A 8 8 0 0 1 423 474.5 L 423 493.5 L 423 493.5 A 8 8 0 0 1 415 501.5 L 361 501.5 L 361 501.5 A 8 8 0 0 1 353 493.5 L 353 474.5 L 353 474.5 A 8 8 0 0 1 361 466.5 L 388 466.5 Z" fill-opacity="0.5" stroke-opacity="1" stroke-miterlimit="10" stroke-width="1.25"/><path fill="rgb(166,219,160)" stroke="rgb(85,85,85)" paint-order="fill stroke markers" d="" fill-opacity="0.5" stroke-opacity="1" stroke-miterlimit="10" stroke-width="1.25"/><text fill="rgb(0,0,0)" stroke="none" font-family="Helvetica" font-size="11px" font-style="normal" font-weight="normal" text-decoration="normal" x="388" y="489.5" text-anchor="middle" dominant-baseline="text-after-edge" fill-opacity="1">CaM</text><path fill="rgb(255,255,255)" stroke="rgb(85,85,85)" paint-order="fill stroke markers" d=" M 364.85 581 L 364.85 588.5 L 357.5 588.5 L 357.5 603.5 L 364.85 603.5 L 364.85 611 L 365.15 611 L 365.15 603.5 L 372.5 603.5 L 372.5 588.5 L 365.15 588.5 L 365.15 581 Z" fill-opacity="0.5" stroke-opacity="1" stroke-miterlimit="10" stroke-width="1.25"/><path fill="rgb(166,219,160)" stroke="rgb(85,85,85)" paint-order="fill stroke markers" d=" M 676.915011642421 409.5 L 703.915011642421 409.5 L 703.915011642421 409.5 A 8 8 0 0 1 711.915011642421 417.5 L 711.915011642421 436.5 L 711.915011642421 436.5 A 8 8 0 0 1 703.915011642421 444.5 L 649.915011642421 444.5 L 649.915011642421 444.5 A 8 8 0 0 1 641.915011642421 436.5 L 641.915011642421 417.5 L 641.915011642421 417.5 A 8 8 0 0 1 649.915011642421 409.5 L 676.915011642421 409.5 Z" fill-opacity="0.5" stroke-opacity="1" stroke-miterlimit="10" stroke-width="1.25"/><path fill="rgb(166,219,160)" stroke="rgb(85,85,85)" paint-order="fill stroke markers" d="" fill-opacity="0.5" stroke-opacity="1" stroke-miterlimit="10" stroke-width="1.25"/><text fill="rgb(0,0,0)" stroke="none" font-family="Helvetica" font-size="11px" font-style="normal" font-weight="normal" text-decoration="normal" x="676.915011642421" y="432.5" text-anchor="middle" dominant-baseline="text-after-edge" fill-opacity="1">γCaMKII</text><path fill="rgb(166,219,160)" stroke="rgb(85,85,85)" paint-order="fill stroke markers" d=" M 733 466.5 L 760 466.5 L 760 466.5 A 8 8 0 0 1 768 474.5 L 768 493.5 L 768 493.5 A 8 8 0 0 1 760 501.5 L 706 501.5 L 706 501.5 A 8 8 0 0 1 698 493.5 L 698 474.5 L 698 474.5 A 8 8 0 0 1 706 466.5 L 733 466.5 Z" fill-opacity="0.5" stroke-opacity="1" stroke-miterlimit="10" stroke-width="1.25"/><path fill="rgb(166,219,160)" stroke="rgb(85,85,85)" paint-order="fill stroke markers" d="" fill-opacity="0.5" stroke-opacity="1" stroke-miterlimit="10" stroke-width="1.25"/><text fill="rgb(0,0,0)" stroke="none" font-family="Helvetica" font-size="11px" font-style="normal" font-weight="normal" text-decoration="normal" x="733" y="489.5" text-anchor="middle" dominant-baseline="text-after-edge" fill-opacity="1">CaM</text><path fill="rgb(231,212,232)" stroke="rgb(85,85,85)" paint-order="fill stroke markers" d=" M 671 464 L 671 464 L 671 464 A 20 20 0 0 1 691 484 L 691 484 L 691 484 A 20 20 0 0 1 671 504 L 671 504 L 671 504 A 20 20 0 0 1 651 484 L 651 484 L 651 484 A 20 20 0 0 1 671 464 L 671 464 Z" fill-opacity="0.5" stroke-opacity="1" stroke-miterlimit="10" stroke-width="1.25"/><path fill="rgb(231,212,232)" stroke="rgb(85,85,85)" paint-order="fill stroke markers" d="" fill-opacity="0.5" stroke-opacity="1" stroke-miterlimit="10" stroke-width="1.25"/><text fill="rgb(0,0,0)" stroke="none" font-family="Helvetica" font-size="11px" font-style="normal" font-weight="normal" text-decoration="normal" x="671" y="489.5" text-anchor="middle" dominant-baseline="text-after-edge" fill-opacity="1">Ca++</text><path fill="rgb(231,212,232)" stroke="rgb(85,85,85)" paint-order="fill stroke markers" d=" M 408 263 L 408 263 L 408 263 A 20 20 0 0 1 428 283 L 428 283 L 428 283 A 20 20 0 0 1 408 303 L 408 303 L 408 303 A 20 20 0 0 1 388 283 L 388 283 L 388 283 A 20 20 0 0 1 408 263 L 408 263 Z" fill-opacity="0.5" stroke-opacity="1" stroke-miterlimit="10" stroke-width="1.25"/><path fill="rgb(231,212,232)" stroke="rgb(85,85,85)" paint-order="fill stroke markers" d="" fill-opacity="0.5" stroke-opacity="1" stroke-miterlimit="10" stroke-width="1.25"/><text fill="rgb(0,0,0)" stroke="none" font-family="Helvetica" font-size="11px" font-style="normal" font-weight="normal" text-decoration="normal" x="408" y="288.5" text-anchor="middle" dominant-baseline="text-after-edge" fill-opacity="1">Ca++</text><path fill="rgb(166,219,160)" stroke="rgb(85,85,85)" paint-order="fill stroke markers" d=" M 470 265.5 L 497 265.5 L 497 265.5 A 8 8 0 0 1 505 273.5 L 505 292.5 L 505 292.5 A 8 8 0 0 1 497 300.5 L 443 300.5 L 443 300.5 A 8 8 0 0 1 435 292.5 L 435 273.5 L 435 273.5 A 8 8 0 0 1 443 265.5 L 470 265.5 Z" fill-opacity="0.5" stroke-opacity="1" stroke-miterlimit="10" stroke-width="1.25"/><path fill="rgb(166,219,160)" stroke="rgb(85,85,85)" paint-order="fill stroke markers" d="" fill-opacity="0.5" stroke-opacity="1" stroke-miterlimit="10" stroke-width="1.25"/><text fill="rgb(0,0,0)" stroke="none" font-family="Helvetica" font-size="11px" font-style="normal" font-weight="normal" text-decoration="normal" x="470" y="288.5" text-anchor="middle" dominant-baseline="text-after-edge" fill-opacity="1">CaM</text><path fill="rgb(166,219,160)" stroke="rgb(85,85,85)" paint-order="fill stroke markers" d=" M 413 205.5 L 440 205.5 L 440 205.5 A 8 8 0 0 1 448 213.5 L 448 232.5 L 448 232.5 A 8 8 0 0 1 440 240.5 L 386 240.5 L 386 240.5 A 8 8 0 0 1 378 232.5 L 378 213.5 L 378 213.5 A 8 8 0 0 1 386 205.5 L 413 205.5 Z" fill-opacity="0.5" stroke-opacity="1" stroke-miterlimit="10" stroke-width="1.25"/><path fill="rgb(166,219,160)" stroke="rgb(85,85,85)" paint-order="fill stroke markers" d="" fill-opacity="0.5" stroke-opacity="1" stroke-miterlimit="10" stroke-width="1.25"/><text fill="rgb(0,0,0)" stroke="none" font-family="Helvetica" font-size="11px" font-style="normal" font-weight="normal" text-decoration="normal" x="413" y="228.5" text-anchor="middle" dominant-baseline="text-after-edge" fill-opacity="1">γCaMKII</text><path fill="rgb(166,219,160)" stroke="rgb(85,85,85)" paint-order="fill stroke markers" d=" M 727.7948200047408 235.29577535689245 L 754.7948200047408 235.29577535689245 L 754.7948200047408 235.29577535689245 A 8 8 0 0 1 762.7948200047408 243.29577535689245 L 762.7948200047408 262.2957753568925 L 762.7948200047408 262.2957753568925 A 8 8 0 0 1 754.7948200047408 270.2957753568925 L 700.7948200047408 270.2957753568925 L 700.7948200047408 270.2957753568925 A 8 8 0 0 1 692.7948200047408 262.2957753568925 L 692.7948200047408 243.29577535689245 L 692.7948200047408 243.29577535689245 A 8 8 0 0 1 700.7948200047408 235.29577535689245 L 727.7948200047408 235.29577535689245 Z" fill-opacity="0.5" stroke-opacity="1" stroke-miterlimit="10" stroke-width="1.25"/><path fill="rgb(166,219,160)" stroke="rgb(85,85,85)" paint-order="fill stroke markers" d="" fill-opacity="0.5" stroke-opacity="1" stroke-miterlimit="10" stroke-width="1.25"/><text fill="rgb(0,0,0)" stroke="none" font-family="Helvetica" font-size="11px" font-style="normal" font-weight="normal" text-decoration="normal" x="727.7948200047408" y="258.2957753568925" text-anchor="middle" dominant-baseline="text-after-edge" fill-opacity="1">α/βCaMKII</text><path fill="rgb(255,255,255)" stroke="rgb(85,85,85)" paint-order="fill stroke markers" d=" M 639.85 305 L 639.85 312.5 L 632.5 312.5 L 632.5 327.5 L 639.85 327.5 L 639.85 335 L 640.15 335 L 640.15 327.5 L 647.5 327.5 L 647.5 312.5 L 640.15 312.5 L 640.15 305 Z" fill-opacity="0.5" stroke-opacity="1" stroke-miterlimit="10" stroke-width="1.25"/><path fill="rgb(166,219,160)" stroke="rgb(85,85,85)" paint-order="fill stroke markers" d=" M 577 152.5 L 604 152.5 L 604 152.5 A 8 8 0 0 1 612 160.5 L 612 179.5 L 612 179.5 A 8 8 0 0 1 604 187.5 L 550 187.5 L 550 187.5 A 8 8 0 0 1 542 179.5 L 542 160.5 L 542 160.5 A 8 8 0 0 1 550 152.5 L 577 152.5 Z" fill-opacity="1" stroke-opacity="1" stroke-miterlimit="10" stroke-width="1.25"/><path fill="#ffffff" stroke="rgb(85,85,85)" paint-order="fill stroke markers" d=" M 552 144.5 L 552 160.5 L 591 160.5 L 591 144.5 Z" stroke-opacity="1" stroke-miterlimit="10" stroke-width="1.25"/><text fill="#0f0f0f" stroke="none" font-family="Arial" font-size="9px" font-style="normal" font-weight="normal" text-decoration="normal" x="571.5" y="152.5" text-anchor="middle" dominant-baseline="central">close</text><path fill="rgb(166,219,160)" stroke="rgb(85,85,85)" paint-order="fill stroke markers" d="" fill-opacity="1" stroke-opacity="1" stroke-miterlimit="10" stroke-width="1.25"/><text fill="rgb(0,0,0)" stroke="none" font-family="Helvetica" font-size="11px" font-style="normal" font-weight="normal" text-decoration="normal" x="577" y="175.5" text-anchor="middle" dominant-baseline="text-after-edge" fill-opacity="1">Cav1</text><path fill="rgb(247,247,247)" stroke="rgb(85,85,85)" paint-order="fill stroke markers" d=" M 642 60.5 L 659.5 78 L 642 95.5 L 712 95.5 L 694.5 78 L 712 60.5 Z" fill-opacity="0.5" stroke-opacity="1" stroke-miterlimit="10" stroke-width="1.25"/><text fill="rgb(0,0,0)" stroke="none" font-family="Helvetica" font-size="11px" font-style="normal" font-weight="normal" text-decoration="normal" x="677" y="83.5" text-anchor="middle" dominant-baseline="text-after-edge" fill-opacity="1">depolarization</text><path fill="rgb(255,255,255)" stroke="rgb(85,85,85)" paint-order="fill stroke markers" d=" M 662 153.85 L 669.5 153.85 L 669.5 146.5 L 684.5 146.5 L 684.5 153.85 L 692 153.85 L 692 154.15 L 684.5 154.15 L 684.5 161.5 L 669.5 161.5 L 669.5 154.15 L 662 154.15 Z" fill-opacity="0.5" stroke-opacity="1" stroke-miterlimit="10" stroke-width="1.25"/><path fill="rgb(231,212,232)" stroke="rgb(85,85,85)" paint-order="fill stroke markers" d=" M 927 60.5 L 927 60.5 L 927 60.5 A 20 20 0 0 1 947 80.5 L 947 80.5 L 947 80.5 A 20 20 0 0 1 927 100.5 L 927 100.5 L 927 100.5 A 20 20 0 0 1 907 80.5 L 907 80.5 L 907 80.5 A 20 20 0 0 1 927 60.5 L 927 60.5 Z" fill-opacity="0.5" stroke-opacity="1" stroke-miterlimit="10" stroke-width="1.25"/><path fill="rgb(231,212,232)" stroke="rgb(85,85,85)" paint-order="fill stroke markers" d="" fill-opacity="0.5" stroke-opacity="1" stroke-miterlimit="10" stroke-width="1.25"/><text fill="rgb(0,0,0)" stroke="none" font-family="Helvetica" font-size="11px" font-style="normal" font-weight="normal" text-decoration="normal" x="927" y="86" text-anchor="middle" dominant-baseline="text-after-edge" fill-opacity="1">Ca++</text><path fill="rgb(166,219,160)" stroke="rgb(85,85,85)" paint-order="fill stroke markers" d=" M 787 152.5 L 814 152.5 L 814 152.5 A 8 8 0 0 1 822 160.5 L 822 179.5 L 822 179.5 A 8 8 0 0 1 814 187.5 L 760 187.5 L 760 187.5 A 8 8 0 0 1 752 179.5 L 752 160.5 L 752 160.5 A 8 8 0 0 1 760 152.5 L 787 152.5 Z" fill-opacity="1" stroke-opacity="1" stroke-miterlimit="10" stroke-width="1.25"/><path fill="#ffffff" stroke="rgb(85,85,85)" paint-order="fill stroke markers" d=" M 762 144.5 L 762 160.5 L 801 160.5 L 801 144.5 Z" stroke-opacity="1" stroke-miterlimit="10" stroke-width="1.25"/><text fill="#0f0f0f" stroke="none" font-family="Arial" font-size="9px" font-style="normal" font-weight="normal" text-decoration="normal" x="781.5" y="152.5" text-anchor="middle" dominant-baseline="central">open</text><path fill="rgb(166,219,160)" stroke="rgb(85,85,85)" paint-order="fill stroke markers" d="" fill-opacity="1" stroke-opacity="1" stroke-miterlimit="10" stroke-width="1.25"/><text fill="rgb(0,0,0)" stroke="none" font-family="Helvetica" font-size="11px" font-style="normal" font-weight="normal" text-decoration="normal" x="787" y="175.5" text-anchor="middle" dominant-baseline="text-after-edge" fill-opacity="1">Cav1</text><path fill="rgb(255,255,255)" stroke="rgb(85,85,85)" paint-order="fill stroke markers" d=" M 926.85 139 L 926.85 146.5 L 919.5 146.5 L 919.5 161.5 L 926.85 161.5 L 926.85 169 L 927.15 169 L 927.15 161.5 L 934.5 161.5 L 934.5 146.5 L 927.15 146.5 L 927.15 139 Z" fill-opacity="0.5" stroke-opacity="1" stroke-miterlimit="10" stroke-width="1.25"/><g transform="scale(1,1) translate(234.375,58.875)"/></g></svg>