<svg version="1.1" xmlns="http://www.w3.org/2000/svg" xmlns:xlink="http://www.w3.org/1999/xlink" width="1243" height="1107"><defs/><g transform="translate(-355.375,-102.875) scale(1,1)"><path fill="rgb(239,243,255)" stroke="rgb(85,85,85)" paint-order="fill stroke markers" d=" M 358.875 226.875 L 358.875 1190.6250000000002 Q 363.875 1205.6250000000002 458.875 1205.6250000000002 L 1494.125 1205.6250000000002 Q 1589.125 1205.6250000000002 1594.125 1190.6250000000002 L 1594.125 226.875 Q 1589.125 211.875 1494.125 211.875 L 458.875 211.875 Q 363.875 211.875 358.875 226.875 Z" fill-opacity="0.5" stroke-opacity="1" stroke-miterlimit="10" stroke-width="5"/><path fill="rgb(239,243,255)" stroke="rgb(85,85,85)" paint-order="fill stroke markers" d="" fill-opacity="0.5" stroke-opacity="1" stroke-miterlimit="10" stroke-width="5"/><text fill="rgb(0,0,0)" stroke="none" font-family="Helvetica" font-size="14px" font-style="normal" font-weight="normal" text-decoration="normal" x="976.5" y="1205.6250000000002" text-anchor="middle" dominant-baseline="text-after-edge" fill-opacity="1">cytosol</text><path fill="rgb(239,243,255)" stroke="rgb(85,85,85)" paint-order="fill stroke markers" d=" M 381.375 1110.6875000000002 L 381.375 1179.3125000000002 Q 386.375 1183.1250000000002 481.375 1183.1250000000002 L 1471.625 1183.1250000000002 Q 1566.625 1183.1250000000002 1571.625 1179.3125000000002 L 1571.625 1110.6875000000002 Q 1566.625 1106.8750000000002 1471.625 1106.8750000000002 L 481.375 1106.8750000000002 Q 386.375 1106.8750000000002 381.375 1110.6875000000002 Z" fill-opacity="0.5" stroke-opacity="1" stroke-miterlimit="10" stroke-width="5"/><path fill="rgb(239,243,255)" stroke="rgb(85,85,85)" paint-order="fill stroke markers" d="" fill-opacity="0.5" stroke-opacity="1" stroke-miterlimit="10" stroke-width="5"/><text fill="rgb(0,0,0)" stroke="none" font-family="Helvetica" font-size="14px" font-style="normal" font-weight="normal" text-decoration="normal" x="976.5" y="1183.1250000000002" text-anchor="middle" dominant-baseline="text-after-edge" fill-opacity="1">nucleus</text><path fill="none" stroke="rgb(85,85,85)" paint-order="fill stroke markers" d=" M 1029.587934569874 234.1901444779761 L 881.1013279324036 322.07496524476494" stroke-opacity="1" stroke-linejoin="round" stroke-miterlimit="10" stroke-width="1.25"/><path fill="rgb(255,255,255)" stroke="rgb(255,255,255)" paint-order="fill stroke markers" d=" M 885.0011500639431 313.4482454978186 L 878.4120654301258 323.6666600000001 L 890.5402478121614 322.8068790057451 Z" fill-opacity="1" stroke-opacity="1" stroke-miterlimit="10"/><path fill="none" stroke="rgb(85,85,85)" paint-order="fill stroke markers" d=" M 885.0011500639431 313.4482454978186 L 878.4120654301258 323.6666600000001 L 890.5402478121614 322.8068790057451 Z" stroke-opacity="1" stroke-miterlimit="10"/><path fill="none" stroke="rgb(85,85,85)" paint-order="fill stroke markers" d=" M 1063.2755583151177 418.0000000000001 Q 1080 326.0950722389881 1063.4545935385045 235.17398714262671" stroke-opacity="1" stroke-linejoin="round" stroke-miterlimit="10" stroke-width="1.25"/><path fill="rgb(85,85,85)" stroke="none" paint-order="stroke fill markers" d=" M 1068.8207629157266 234.2961303975008 L 1069.4060007458106 237.87357664898224 L 1058.6736619913663 239.6292901392341 L 1058.0884241612823 236.05184388775263 Z" fill-opacity="1"/><path fill="none" stroke="rgb(85,85,85)" paint-order="fill stroke markers" d=" M 786.3694516434672 268 L 773.1456418807976 358.48629542845254 L 651.31283320584 417.4558198428718" stroke-opacity="1" stroke-linejoin="round" stroke-miterlimit="10" stroke-width="1.25"/><path fill="rgb(255,255,255)" stroke="rgb(255,255,255)" paint-order="fill stroke markers" d=" M 655.9197057212726 409.1850501159025 L 648.5 418.8172875641652 L 660.6576133913737 418.9737096722257 Z" fill-opacity="1" stroke-opacity="1" stroke-miterlimit="10"/><path fill="none" stroke="rgb(85,85,85)" paint-order="fill stroke markers" d=" M 655.9197057212726 409.1850501159025 L 648.5 418.8172875641652 L 660.6576133913737 418.9737096722257 Z" stroke-opacity="1" stroke-miterlimit="10"/><path fill="none" stroke="rgb(85,85,85)" paint-order="fill stroke markers" d=" M 823.3960763751803 902.0000000000002 L 915.6029145194617 953.2322253897585" stroke-opacity="1" stroke-linejoin="round" stroke-miterlimit="10" stroke-width="1.25"/><path fill="rgb(255,255,255)" stroke="rgb(255,255,255)" paint-order="fill stroke markers" d=" M 906.1874613287313 954.2212387684167 L 918.3345779746672 954.7500000000002 L 911.4693169723724 944.7150499443014 Z" fill-opacity="1" stroke-opacity="1" stroke-miterlimit="10"/><path fill="none" stroke="rgb(85,85,85)" paint-order="fill stroke markers" d=" M 906.1874613287313 954.2212387684167 L 918.3345779746672 954.7500000000002 L 911.4693169723724 944.7150499443014 Z" stroke-opacity="1" stroke-miterlimit="10"/><path fill="none" stroke="rgb(85,85,85)" paint-order="fill stroke markers" d=" M 1065.6627544431608 234.1901444779761 L 1131.5281141868513 443.55406574394476 L 1063.4241226199035 862.9154110453559" stroke-opacity="1" stroke-linejoin="round" stroke-miterlimit="10" stroke-width="1.25"/><path fill="rgb(255,255,255)" stroke="rgb(255,255,255)" paint-order="fill stroke markers" d=" M 1059.299256902848 854.394003352594 L 1062.9231875134415 866.0000000000002 L 1070.0336264650102 856.1372575230818 Z" fill-opacity="1" stroke-opacity="1" stroke-miterlimit="10"/><path fill="none" stroke="rgb(85,85,85)" paint-order="fill stroke markers" d=" M 1059.299256902848 854.394003352594 L 1062.9231875134415 866.0000000000002 L 1070.0336264650102 856.1372575230818 Z" stroke-opacity="1" stroke-miterlimit="10"/><path fill="none" stroke="rgb(85,85,85)" paint-order="fill stroke markers" d=" M 790.7152236419247 268 L 799.3376810413168 358.48629542845197 L 1049.6831334670385 863.2004660552179" stroke-opacity="1" stroke-linejoin="round" stroke-miterlimit="10" stroke-width="1.25"/><path fill="rgb(255,255,255)" stroke="rgb(255,255,255)" paint-order="fill stroke markers" d=" M 1041.3681943178542 858.6738013674635 L 1051.0717423723866 866.0000000000002 L 1051.1105724456966 853.8414423768523 Z" fill-opacity="1" stroke-opacity="1" stroke-miterlimit="10"/><path fill="none" stroke="rgb(85,85,85)" paint-order="fill stroke markers" d=" M 1041.3681943178542 858.6738013674635 L 1051.0717423723866 866.0000000000002 L 1051.1105724456966 853.8414423768523 Z" stroke-opacity="1" stroke-miterlimit="10"/><path fill="none" stroke="rgb(85,85,85)" paint-order="fill stroke markers" d=" M 1060 902.0000000000002 L 1060 951.6250000000002" stroke-opacity="1" stroke-linejoin="round" stroke-miterlimit="10" stroke-width="1.25"/><path fill="rgb(255,255,255)" stroke="rgb(255,255,255)" paint-order="fill stroke markers" d=" M 1054.5625 943.8750000000002 L 1060 954.7500000000002 L 1065.4375 943.8750000000002 Z" fill-opacity="1" stroke-opacity="1" stroke-miterlimit="10"/><path fill="none" stroke="rgb(85,85,85)" paint-order="fill stroke markers" d=" M 1054.5625 943.8750000000002 L 1060 954.7500000000002 L 1065.4375 943.8750000000002 Z" stroke-opacity="1" stroke-miterlimit="10"/><path fill="none" stroke="rgb(85,85,85)" paint-order="fill stroke markers" d=" M 764.430985915493 902.0000000000002 L 689.1561860353635 952.9972403768055" stroke-opacity="1" stroke-linejoin="round" stroke-miterlimit="10" stroke-width="1.25"/><path fill="rgb(255,255,255)" stroke="rgb(255,255,255)" paint-order="fill stroke markers" d=" M 692.5225707291286 944.1487173167924 L 686.569014084507 954.7500000000002 L 698.6221742178462 953.1520757057729 Z" fill-opacity="1" stroke-opacity="1" stroke-miterlimit="10"/><path fill="none" stroke="rgb(85,85,85)" paint-order="fill stroke markers" d=" M 692.5225707291286 944.1487173167924 L 686.569014084507 954.7500000000002 L 698.6221742178462 953.1520757057729 Z" stroke-opacity="1" stroke-miterlimit="10"/><path fill="none" stroke="rgb(85,85,85)" paint-order="fill stroke markers" d=" M 1060 454.0000000000001 L 1060 864.4375000000002" stroke-opacity="1" stroke-linejoin="round" stroke-miterlimit="10" stroke-width="1.25"/><path fill="rgb(255,255,255)" stroke="rgb(255,255,255)" paint-order="fill stroke markers" d=" M 1054.5625 860.5625000000002 L 1060 855.1250000000002 L 1065.4375 860.5625000000002 L 1060 866.0000000000002 Z" fill-opacity="1" stroke-opacity="1" stroke-miterlimit="10"/><path fill="none" stroke="rgb(85,85,85)" paint-order="fill stroke markers" d=" M 1054.5625 860.5625000000002 L 1060 855.1250000000002 L 1065.4375 860.5625000000002 L 1060 866.0000000000002 Z" stroke-opacity="1" stroke-miterlimit="10"/><path fill="none" stroke="rgb(85,85,85)" paint-order="fill stroke markers" d=" M 549.1045959275714 990.7500000000002 L 537.1069190505154 1046.1892252438065" stroke-opacity="1" stroke-linejoin="round" stroke-miterlimit="10" stroke-width="1.25"/><path fill="rgb(85,85,85)" stroke="none" paint-order="stroke fill markers" d=" M 531.7924438137118 1045.0391125504584 L 532.5591856092772 1041.496129059256 L 543.1881360828845 1043.7963544459521 L 542.4213942873191 1047.3393379371546 Z" fill-opacity="1"/><path fill="none" stroke="rgb(85,85,85)" paint-order="fill stroke markers" d=" M 1146.7529318325928 990.7500000000002 L 1151.944172643939 1044.0563139517624" stroke-opacity="1" stroke-linejoin="round" stroke-miterlimit="10" stroke-width="1.25"/><path fill="rgb(255,255,255)" stroke="rgb(255,255,255)" paint-order="fill stroke markers" d=" M 1145.7810940218044 1036.869842762967 L 1152.2470681674072 1047.1666000000002 L 1156.6048894696721 1035.815766341298 Z" fill-opacity="1" stroke-opacity="1" stroke-miterlimit="10"/><path fill="none" stroke="rgb(85,85,85)" paint-order="fill stroke markers" d=" M 1145.7810940218044 1036.869842762967 L 1152.2470681674072 1047.1666000000002 L 1156.6048894696721 1035.815766341298 Z" stroke-opacity="1" stroke-miterlimit="10"/><path fill="none" stroke="rgb(85,85,85)" paint-order="fill stroke markers" d=" M 1078.3083991404142 990.7500000000002 L 1133.4632035541508 1044.9757393359848" stroke-opacity="1" stroke-linejoin="round" stroke-miterlimit="10" stroke-width="1.25"/><path fill="rgb(255,255,255)" stroke="rgb(255,255,255)" paint-order="fill stroke markers" d=" M 1124.1246806812853 1043.419816200683 L 1135.6916008595858 1047.1666000000002 L 1131.7488757920594 1035.6649935777696 Z" fill-opacity="1" stroke-opacity="1" stroke-miterlimit="10"/><path fill="none" stroke="rgb(85,85,85)" paint-order="fill stroke markers" d=" M 1124.1246806812853 1043.419816200683 L 1135.6916008595858 1047.1666000000002 L 1131.7488757920594 1035.6649935777696 Z" stroke-opacity="1" stroke-miterlimit="10"/><path fill="none" stroke="rgb(85,85,85)" paint-order="fill stroke markers" d=" M 1276.9490903235703 268 L 1253.3268262288811 320.8140012487331" stroke-opacity="1" stroke-linejoin="round" stroke-miterlimit="10" stroke-width="1.25"/><path fill="rgb(255,255,255)" stroke="rgb(255,255,255)" paint-order="fill stroke markers" d=" M 1251.5274730517565 311.51931274432525 L 1252.0509096764297 323.6666600000001 L 1261.4547255061657 315.9595023468566 Z" fill-opacity="1" stroke-opacity="1" stroke-miterlimit="10"/><path fill="none" stroke="rgb(85,85,85)" paint-order="fill stroke markers" d=" M 1251.5274730517565 311.51931274432525 L 1252.0509096764297 323.6666600000001 L 1261.4547255061657 315.9595023468566 Z" stroke-opacity="1" stroke-miterlimit="10"/><path fill="none" stroke="rgb(85,85,85)" paint-order="fill stroke markers" d=" M 1294.2290915802976 268 L 1321.3451241096998 320.8858752004606" stroke-opacity="1" stroke-linejoin="round" stroke-miterlimit="10" stroke-width="1.25"/><path fill="rgb(255,255,255)" stroke="rgb(255,255,255)" paint-order="fill stroke markers" d=" M 1312.9706134696942 316.4703935970074 L 1322.7709084197024 323.6666600000001 L 1322.6477445720916 311.50866419819783 Z" fill-opacity="1" stroke-opacity="1" stroke-miterlimit="10"/><path fill="none" stroke="rgb(85,85,85)" paint-order="fill stroke markers" d=" M 1312.9706134696942 316.4703935970074 L 1322.7709084197024 323.6666600000001 L 1322.6477445720916 311.50866419819783 Z" stroke-opacity="1" stroke-miterlimit="10"/><path fill="none" stroke="rgb(85,85,85)" paint-order="fill stroke markers" d=" M 1419 268 L 1419 320.5416600000001" stroke-opacity="1" stroke-linejoin="round" stroke-miterlimit="10" stroke-width="1.25"/><path fill="rgb(255,255,255)" stroke="rgb(255,255,255)" paint-order="fill stroke markers" d=" M 1413.5625 312.7916600000001 L 1419 323.6666600000001 L 1424.4375 312.7916600000001 Z" fill-opacity="1" stroke-opacity="1" stroke-miterlimit="10"/><path fill="none" stroke="rgb(85,85,85)" paint-order="fill stroke markers" d=" M 1413.5625 312.7916600000001 L 1419 323.6666600000001 L 1424.4375 312.7916600000001 Z" stroke-opacity="1" stroke-miterlimit="10"/><path fill="none" stroke="rgb(85,85,85)" paint-order="fill stroke markers" d=" M 1260.7915182479492 359.6666600000001 L 1313.0768127481929 415.71491526240476" stroke-opacity="1" stroke-linejoin="round" stroke-miterlimit="10" stroke-width="1.25"/><path fill="rgb(255,255,255)" stroke="rgb(255,255,255)" paint-order="fill stroke markers" d=" M 1303.8142261752093 413.7570091798811 L 1315.2084817520508 418.0000000000001 L 1311.766321062041 406.33880104645544 Z" fill-opacity="1" stroke-opacity="1" stroke-miterlimit="10"/><path fill="none" stroke="rgb(85,85,85)" paint-order="fill stroke markers" d=" M 1303.8142261752093 413.7570091798811 L 1315.2084817520508 418.0000000000001 L 1311.766321062041 406.33880104645544 Z" stroke-opacity="1" stroke-miterlimit="10"/><path fill="none" stroke="rgb(85,85,85)" paint-order="fill stroke markers" d=" M 1332 359.6666600000001 L 1332 414.8750000000001" stroke-opacity="1" stroke-linejoin="round" stroke-miterlimit="10" stroke-width="1.25"/><path fill="rgb(255,255,255)" stroke="rgb(255,255,255)" paint-order="fill stroke markers" d=" M 1326.5625 407.1250000000001 L 1332 418.0000000000001 L 1337.4375 407.1250000000001 Z" fill-opacity="1" stroke-opacity="1" stroke-miterlimit="10"/><path fill="none" stroke="rgb(85,85,85)" paint-order="fill stroke markers" d=" M 1326.5625 407.1250000000001 L 1332 418.0000000000001 L 1337.4375 407.1250000000001 Z" stroke-opacity="1" stroke-miterlimit="10"/><path fill="none" stroke="rgb(85,85,85)" paint-order="fill stroke markers" d=" M 1402.3992944594138 359.6666600000001 L 1350.7193191551057 415.70280576520577" stroke-opacity="1" stroke-linejoin="round" stroke-miterlimit="10" stroke-width="1.25"/><path fill="rgb(255,255,255)" stroke="rgb(255,255,255)" paint-order="fill stroke markers" d=" M 1351.9763629505724 406.31937637365183 L 1348.6007055405862 418.0000000000001 L 1359.9705988876565 413.69215175218 Z" fill-opacity="1" stroke-opacity="1" stroke-miterlimit="10"/><path fill="none" stroke="rgb(85,85,85)" paint-order="fill stroke markers" d=" M 1351.9763629505724 406.31937637365183 L 1348.6007055405862 418.0000000000001 L 1359.9705988876565 413.69215175218 Z" stroke-opacity="1" stroke-miterlimit="10"/><path fill="none" stroke="rgb(85,85,85)" paint-order="fill stroke markers" d=" M 759.5960379412356 990.7500000000002 L 782.1889623184222 1044.2874680768386" stroke-opacity="1" stroke-linejoin="round" stroke-miterlimit="10" stroke-width="1.25"/><path fill="rgb(255,255,255)" stroke="rgb(255,255,255)" paint-order="fill stroke markers" d=" M 774.1660734160724 1039.261320455593 L 783.4039620587644 1047.1666000000002 L 784.185452508675 1035.0331213592024 Z" fill-opacity="1" stroke-opacity="1" stroke-miterlimit="10"/><path fill="none" stroke="rgb(85,85,85)" paint-order="fill stroke markers" d=" M 774.1660734160724 1039.261320455593 L 783.4039620587644 1047.1666000000002 L 784.185452508675 1035.0331213592024 Z" stroke-opacity="1" stroke-miterlimit="10"/><path fill="none" stroke="rgb(85,85,85)" paint-order="fill stroke markers" d=" M 574.424722398357 990.7500000000002 L 639.18262773511 1045.1564130394963" stroke-opacity="1" stroke-linejoin="round" stroke-miterlimit="10" stroke-width="1.25"/><path fill="rgb(255,255,255)" stroke="rgb(255,255,255)" paint-order="fill stroke markers" d=" M 629.7511307548315 1044.334360145214 L 641.5752776016429 1047.1666000000002 L 636.746581377385 1036.0079386096793 Z" fill-opacity="1" stroke-opacity="1" stroke-miterlimit="10"/><path fill="none" stroke="rgb(85,85,85)" paint-order="fill stroke markers" d=" M 629.7511307548315 1044.334360145214 L 641.5752776016429 1047.1666000000002 L 636.746581377385 1036.0079386096793 Z" stroke-opacity="1" stroke-miterlimit="10"/><path fill="none" stroke="rgb(85,85,85)" paint-order="fill stroke markers" d=" M 774.8618171535867 268 L 733.0684805834031 321.2091051895082" stroke-opacity="1" stroke-linejoin="round" stroke-miterlimit="10" stroke-width="1.25"/><path fill="rgb(255,255,255)" stroke="rgb(255,255,255)" paint-order="fill stroke markers" d=" M 733.579473600882 311.7556511971259 L 731.1381828464133 323.6666600000001 L 742.1317643413938 318.4730873218506 Z" fill-opacity="1" stroke-opacity="1" stroke-miterlimit="10"/><path fill="none" stroke="rgb(85,85,85)" paint-order="fill stroke markers" d=" M 733.579473600882 311.7556511971259 L 731.1381828464133 323.6666600000001 L 742.1317643413938 318.4730873218506 Z" stroke-opacity="1" stroke-miterlimit="10"/><path fill="none" stroke="rgb(85,85,85)" paint-order="fill stroke markers" d=" M 756.5999976436362 268 L 659.1317438911002 322.1490259244088" stroke-opacity="1" stroke-linejoin="round" stroke-miterlimit="10" stroke-width="1.25"/><path fill="rgb(255,255,255)" stroke="rgb(255,255,255)" paint-order="fill stroke markers" d=" M 663.2657796057177 313.632063146501 L 656.4000023563638 323.6666600000001 L 668.5471461887754 323.1385236873838 Z" fill-opacity="1" stroke-opacity="1" stroke-miterlimit="10"/><path fill="none" stroke="rgb(85,85,85)" paint-order="fill stroke markers" d=" M 663.2657796057177 313.632063146501 L 656.4000023563638 323.6666600000001 L 668.5471461887754 323.1385236873838 Z" stroke-opacity="1" stroke-miterlimit="10"/><path fill="none" stroke="rgb(85,85,85)" paint-order="fill stroke markers" d=" M 800.5854553880331 268 L 834.7232284668154 321.0389091181337" stroke-opacity="1" stroke-linejoin="round" stroke-miterlimit="10" stroke-width="1.25"/><path fill="rgb(255,255,255)" stroke="rgb(255,255,255)" paint-order="fill stroke markers" d=" M 825.956477892392 317.4649770236687 L 836.4145446119669 323.6666600000001 L 835.101050961287 311.5791968385413 Z" fill-opacity="1" stroke-opacity="1" stroke-miterlimit="10"/><path fill="none" stroke="rgb(85,85,85)" paint-order="fill stroke markers" d=" M 825.956477892392 317.4649770236687 L 836.4145446119669 323.6666600000001 L 835.101050961287 311.5791968385413 Z" stroke-opacity="1" stroke-miterlimit="10"/><path fill="none" stroke="rgb(85,85,85)" paint-order="fill stroke markers" d=" M 822.1854569589423 268 L 922.0676069328872 322.176704625625" stroke-opacity="1" stroke-linejoin="round" stroke-miterlimit="10" stroke-width="1.25"/><path fill="rgb(255,255,255)" stroke="rgb(255,255,255)" paint-order="fill stroke markers" d=" M 912.6626830332118 323.26128412539146 L 924.8145430410577 323.6666600000001 L 917.8477277360371 313.70194646895817 Z" fill-opacity="1" stroke-opacity="1" stroke-miterlimit="10"/><path fill="none" stroke="rgb(85,85,85)" paint-order="fill stroke markers" d=" M 912.6626830332118 323.26128412539146 L 924.8145430410577 323.6666600000001 L 917.8477277360371 313.70194646895817 Z" stroke-opacity="1" stroke-miterlimit="10"/><path fill="none" stroke="rgb(85,85,85)" paint-order="fill stroke markers" d=" M 804.7915492957746 902.0000000000002 L 843.3078356867073 952.2694178999308" stroke-opacity="1" stroke-linejoin="round" stroke-miterlimit="10" stroke-width="1.25"/><path fill="rgb(255,255,255)" stroke="rgb(255,255,255)" paint-order="fill stroke markers" d=" M 834.2780975891418 949.4246444222398 L 845.2084507042254 954.7500000000002 L 842.9105232973836 942.8105041612772 Z" fill-opacity="1" stroke-opacity="1" stroke-miterlimit="10"/><path fill="none" stroke="rgb(85,85,85)" paint-order="fill stroke markers" d=" M 834.2780975891418 949.4246444222398 L 845.2084507042254 954.7500000000002 L 842.9105232973836 942.8105041612772 Z" stroke-opacity="1" stroke-miterlimit="10"/><path fill="none" stroke="rgb(85,85,85)" paint-order="fill stroke markers" d=" M 783.0901408450704 902.0000000000002 L 761.1670668116983 951.8890466785072" stroke-opacity="1" stroke-linejoin="round" stroke-miterlimit="10" stroke-width="1.25"/><path fill="rgb(255,255,255)" stroke="rgb(255,255,255)" paint-order="fill stroke markers" d=" M 759.3068830210871 942.6063411184268 L 759.9098591549296 954.7500000000002 L 769.2630005798827 946.9814237639822 Z" fill-opacity="1" stroke-opacity="1" stroke-miterlimit="10"/><path fill="none" stroke="rgb(85,85,85)" paint-order="fill stroke markers" d=" M 759.3068830210871 942.6063411184268 L 759.9098591549296 954.7500000000002 L 769.2630005798827 946.9814237639822 Z" stroke-opacity="1" stroke-miterlimit="10"/><path fill="none" stroke="rgb(85,85,85)" paint-order="fill stroke markers" d=" M 650.4338028169014 902.0000000000002 L 657.1474722189771 951.6531799528516" stroke-opacity="1" stroke-linejoin="round" stroke-miterlimit="10" stroke-width="1.25"/><path fill="rgb(255,255,255)" stroke="rgb(255,255,255)" paint-order="fill stroke markers" d=" M 650.7205674259172 944.7016476734944 L 657.5661971830986 954.7500000000002 L 661.4975011899943 943.2444847983517 Z" fill-opacity="1" stroke-opacity="1" stroke-miterlimit="10"/><path fill="none" stroke="rgb(85,85,85)" paint-order="fill stroke markers" d=" M 650.7205674259172 944.7016476734944 L 657.5661971830986 954.7500000000002 L 661.4975011899943 943.2444847983517 Z" stroke-opacity="1" stroke-miterlimit="10"/><path fill="none" stroke="rgb(85,85,85)" paint-order="fill stroke markers" d=" M 697.1554784342418 359.6666600000001 L 635.1591826181683 415.90048357652165" stroke-opacity="1" stroke-linejoin="round" stroke-miterlimit="10" stroke-width="1.25"/><path fill="rgb(255,255,255)" stroke="rgb(255,255,255)" paint-order="fill stroke markers" d=" M 637.2463834512928 406.6661726151015 L 632.8445215657582 418.0000000000001 L 644.5527006049979 414.72119307748864 Z" fill-opacity="1" stroke-opacity="1" stroke-miterlimit="10"/><path fill="none" stroke="rgb(85,85,85)" paint-order="fill stroke markers" d=" M 637.2463834512928 406.6661726151015 L 632.8445215657582 418.0000000000001 L 644.5527006049979 414.72119307748864 Z" stroke-opacity="1" stroke-miterlimit="10"/><path fill="none" stroke="rgb(85,85,85)" paint-order="fill stroke markers" d=" M 1077.2394366197184 902.0000000000002 L 1125.5990496170643 952.4931253354646" stroke-opacity="1" stroke-linejoin="round" stroke-miterlimit="10" stroke-width="1.25"/><path fill="rgb(255,255,255)" stroke="rgb(255,255,255)" paint-order="fill stroke markers" d=" M 1116.3115335679938 950.6571101154142 L 1127.7605633802816 954.7500000000002 L 1124.1654574005777 943.1350422194184 Z" fill-opacity="1" stroke-opacity="1" stroke-miterlimit="10"/><path fill="none" stroke="rgb(85,85,85)" paint-order="fill stroke markers" d=" M 1116.3115335679938 950.6571101154142 L 1127.7605633802816 954.7500000000002 L 1124.1654574005777 943.1350422194184 Z" stroke-opacity="1" stroke-miterlimit="10"/><path fill="none" stroke="rgb(85,85,85)" paint-order="fill stroke markers" d=" M 648.5 436.0000000000001 L 1021.375 436.0000000000001" stroke-opacity="1" stroke-linejoin="round" stroke-miterlimit="10" stroke-width="1.25"/><path fill="rgb(255,255,255)" stroke="rgb(255,255,255)" paint-order="fill stroke markers" d=" M 1013.625 441.4375000000001 L 1024.5 436.0000000000001 L 1013.625 430.5625000000001 Z" fill-opacity="1" stroke-opacity="1" stroke-miterlimit="10"/><path fill="none" stroke="rgb(85,85,85)" paint-order="fill stroke markers" d=" M 1013.625 441.4375000000001 L 1024.5 436.0000000000001 L 1013.625 430.5625000000001 Z" stroke-opacity="1" stroke-miterlimit="10"/><path fill="none" stroke="rgb(85,85,85)" paint-order="fill stroke markers" d=" M 613 454.0000000000001 L 613 512.5417000000001" stroke-opacity="1" stroke-linejoin="round" stroke-miterlimit="10" stroke-width="1.25"/><path fill="rgb(255,255,255)" stroke="rgb(255,255,255)" paint-order="fill stroke markers" d=" M 607.5625 504.7917000000001 L 613 515.6667000000001 L 618.4375 504.7917000000001 Z" fill-opacity="1" stroke-opacity="1" stroke-miterlimit="10"/><path fill="none" stroke="rgb(85,85,85)" paint-order="fill stroke markers" d=" M 607.5625 504.7917000000001 L 613 515.6667000000001 L 618.4375 504.7917000000001 Z" stroke-opacity="1" stroke-miterlimit="10"/><path fill="none" stroke="rgb(85,85,85)" paint-order="fill stroke markers" d=" M 631.2457275611852 454.0000000000001 L 691.5296341720573 513.4720224423443" stroke-opacity="1" stroke-linejoin="round" stroke-miterlimit="10" stroke-width="1.25"/><path fill="rgb(255,255,255)" stroke="rgb(255,255,255)" paint-order="fill stroke markers" d=" M 682.1937923201775 511.90009268351594 L 693.7542724388148 515.6667000000001 L 689.8312702208198 504.1583515151998 Z" fill-opacity="1" stroke-opacity="1" stroke-miterlimit="10"/><path fill="none" stroke="rgb(85,85,85)" paint-order="fill stroke markers" d=" M 682.1937923201775 511.90009268351594 L 693.7542724388148 515.6667000000001 L 689.8312702208198 504.1583515151998 Z" stroke-opacity="1" stroke-miterlimit="10"/><path fill="none" stroke="rgb(85,85,85)" paint-order="fill stroke markers" d=" M 1164.499066933696 1047.1666000000002 L 1202.286426319337 982.3825126866245 L 1202.3434256055364 437.8122837370239 L 1072.101450415471 235.0315438457715" stroke-opacity="1" stroke-linejoin="round" stroke-miterlimit="10" stroke-width="1.25"/><path fill="rgb(85,85,85)" stroke="none" paint-order="stroke fill markers" d=" M 1076.6765594778585 232.09304366417206 L 1078.6355595989246 235.14311637243037 L 1069.4853414741497 241.02011673562924 L 1067.5263413530834 237.97004402737093 Z" fill-opacity="1"/><path fill="none" stroke="rgb(85,85,85)" paint-order="fill stroke markers" d=" M 1024.5 229.1767809241331 L 755.4347900793076 327.60641646072315" stroke-opacity="1" stroke-linejoin="round" stroke-miterlimit="10" stroke-width="1.25"/><path fill="rgb(255,255,255)" stroke="rgb(255,255,255)" paint-order="fill stroke markers" d=" M 760.844993133962 319.83733613179044 L 752.5 328.68002355384306 L 764.5811458180193 330.0504056077811 Z" fill-opacity="1" stroke-opacity="1" stroke-miterlimit="10"/><path fill="none" stroke="rgb(85,85,85)" paint-order="fill stroke markers" d=" M 760.844993133962 319.83733613179044 L 752.5 328.68002355384306 L 764.5811458180193 330.0504056077811 Z" stroke-opacity="1" stroke-miterlimit="10"/><path fill="none" stroke="rgb(85,85,85)" paint-order="fill stroke markers" d=" M 790.6155198521243 866.0000000000002 L 783.4976572902751 532.7668621613292 L 748.4999208112852 533.2073281674218" stroke-opacity="1" stroke-linejoin="round" stroke-miterlimit="10" stroke-width="1.25"/><path fill="rgb(85,85,85)" stroke="none" paint-order="stroke fill markers" d=" M 748.4314922644874 527.7702587560584 L 752.0562052053962 527.7246397248599 L 752.1930622989919 538.5987785475866 L 748.568349358083 538.6443975787852 Z" fill-opacity="1"/><path fill="none" stroke="rgb(85,85,85)" paint-order="fill stroke markers" d=" M 712 551.6667000000001 L 712 600.875" stroke-opacity="1" stroke-linejoin="round" stroke-miterlimit="10" stroke-width="1.25"/><path fill="rgb(255,255,255)" stroke="rgb(255,255,255)" paint-order="fill stroke markers" d=" M 706.5625 593.125 L 712 604 L 717.4375 593.125 Z" fill-opacity="1" stroke-opacity="1" stroke-miterlimit="10"/><path fill="none" stroke="rgb(85,85,85)" paint-order="fill stroke markers" d=" M 706.5625 593.125 L 712 604 L 717.4375 593.125 Z" stroke-opacity="1" stroke-miterlimit="10"/><path fill="none" stroke="rgb(85,85,85)" paint-order="fill stroke markers" d=" M 712 640 L 712 682.8750000000002" stroke-opacity="1" stroke-linejoin="round" stroke-miterlimit="10" stroke-width="1.25"/><path fill="rgb(255,255,255)" stroke="rgb(255,255,255)" paint-order="fill stroke markers" d=" M 706.5625 675.1250000000002 L 712 686.0000000000002 L 717.4375 675.1250000000002 Z" fill-opacity="1" stroke-opacity="1" stroke-miterlimit="10"/><path fill="none" stroke="rgb(85,85,85)" paint-order="fill stroke markers" d=" M 706.5625 675.1250000000002 L 712 686.0000000000002 L 717.4375 675.1250000000002 Z" stroke-opacity="1" stroke-miterlimit="10"/><path fill="none" stroke="rgb(85,85,85)" paint-order="fill stroke markers" d=" M 712 722.0000000000002 L 712 768.8750000000002" stroke-opacity="1" stroke-linejoin="round" stroke-miterlimit="10" stroke-width="1.25"/><path fill="rgb(255,255,255)" stroke="rgb(255,255,255)" paint-order="fill stroke markers" d=" M 706.5625 761.1250000000002 L 712 772.0000000000002 L 717.4375 761.1250000000002 Z" fill-opacity="1" stroke-opacity="1" stroke-miterlimit="10"/><path fill="none" stroke="rgb(85,85,85)" paint-order="fill stroke markers" d=" M 706.5625 761.1250000000002 L 712 772.0000000000002 L 717.4375 761.1250000000002 Z" stroke-opacity="1" stroke-miterlimit="10"/><path fill="none" stroke="rgb(85,85,85)" paint-order="fill stroke markers" d=" M 727.1276595744681 808.0000000000002 L 773.8617683540261 863.6076737377022" stroke-opacity="1" stroke-linejoin="round" stroke-miterlimit="10" stroke-width="1.25"/><path fill="rgb(255,255,255)" stroke="rgb(255,255,255)" paint-order="fill stroke markers" d=" M 764.7129019202931 861.1731000116231 L 775.8723404255319 866.0000000000002 L 773.0381973130903 854.1763092027829 Z" fill-opacity="1" stroke-opacity="1" stroke-miterlimit="10"/><path fill="none" stroke="rgb(85,85,85)" paint-order="fill stroke markers" d=" M 764.7129019202931 861.1731000116231 L 775.8723404255319 866.0000000000002 L 773.0381973130903 854.1763092027829 Z" stroke-opacity="1" stroke-miterlimit="10"/><path fill="none" stroke="rgb(85,85,85)" paint-order="fill stroke markers" d=" M 465.89728728512966 268 L 464.24233123673116 558.0245496267032 L 515.5920519166601 601.9681551642739" stroke-opacity="1" stroke-linejoin="round" stroke-miterlimit="10" stroke-width="1.25"/><path fill="rgb(255,255,255)" stroke="rgb(255,255,255)" paint-order="fill stroke markers" d=" M 506.16841390008767 601.0604367152988 L 517.9663374015025 604 L 513.2392339284146 592.7979232280475 Z" fill-opacity="1" stroke-opacity="1" stroke-miterlimit="10"/><path fill="none" stroke="rgb(85,85,85)" paint-order="fill stroke markers" d=" M 506.16841390008767 601.0604367152988 L 517.9663374015025 604 L 513.2392339284146 592.7979232280475 Z" stroke-opacity="1" stroke-miterlimit="10"/><path fill="none" stroke="rgb(85,85,85)" paint-order="fill stroke markers" d=" M 597.9207490266976 551.6667000000001 L 556.0860449378816 601.6045036039002" stroke-opacity="1" stroke-linejoin="round" stroke-miterlimit="10" stroke-width="1.25"/><path fill="rgb(255,255,255)" stroke="rgb(255,255,255)" paint-order="fill stroke markers" d=" M 556.894730240825 592.1718510432042 L 554.0792509733021 604 L 565.2310576992525 599.1554940399408 Z" fill-opacity="1" stroke-opacity="1" stroke-miterlimit="10"/><path fill="none" stroke="rgb(85,85,85)" paint-order="fill stroke markers" d=" M 556.894730240825 592.1718510432042 L 554.0792509733021 604 L 565.2310576992525 599.1554940399408 Z" stroke-opacity="1" stroke-miterlimit="10"/><path fill="none" stroke="rgb(85,85,85)" paint-order="fill stroke markers" d=" M 538.9999999999999 640 L 538.9999999999999 682.8750000000002" stroke-opacity="1" stroke-linejoin="round" stroke-miterlimit="10" stroke-width="1.25"/><path fill="rgb(255,255,255)" stroke="rgb(255,255,255)" paint-order="fill stroke markers" d=" M 533.5624999999999 675.1250000000002 L 538.9999999999999 686.0000000000002 L 544.4374999999999 675.1250000000002 Z" fill-opacity="1" stroke-opacity="1" stroke-miterlimit="10"/><path fill="none" stroke="rgb(85,85,85)" paint-order="fill stroke markers" d=" M 533.5624999999999 675.1250000000002 L 538.9999999999999 686.0000000000002 L 544.4374999999999 675.1250000000002 Z" stroke-opacity="1" stroke-miterlimit="10"/><path fill="none" stroke="rgb(85,85,85)" paint-order="fill stroke markers" d=" M 1056.7244416848823 234.1901444779761 Q 1040 326.0950722389881 1056.1649566117983 414.925491672967" stroke-opacity="1" stroke-linejoin="round" stroke-miterlimit="10" stroke-width="1.25"/><path fill="rgb(255,255,255)" stroke="rgb(255,255,255)" paint-order="fill stroke markers" d=" M 1049.5799522207367 408.1618954291638 L 1056.7244416848823 418.0000000000001 L 1060.308231663064 406.38154568618177 Z" fill-opacity="1" stroke-opacity="1" stroke-miterlimit="10"/><path fill="none" stroke="rgb(85,85,85)" paint-order="fill stroke markers" d=" M 1049.5799522207367 408.1618954291638 L 1056.7244416848823 418.0000000000001 L 1060.308231663064 406.38154568618177 Z" stroke-opacity="1" stroke-miterlimit="10"/><path fill="none" stroke="rgb(85,85,85)" paint-order="fill stroke markers" d=" M 1055.583663359379 234.1901444779761 L 1028.4865745834475 344.63181540507725 L 950.1884133961452 400.2647194065813 L 651.6075967882759 431.9083608764288" stroke-opacity="1" stroke-linejoin="round" stroke-miterlimit="10" stroke-width="1.25"/><path fill="rgb(255,255,255)" stroke="rgb(255,255,255)" paint-order="fill stroke markers" d=" M 658.7413789733703 425.6843703570247 L 648.5 432.2377044682852 L 659.8874946730306 436.49880718022507 Z" fill-opacity="1" stroke-opacity="1" stroke-miterlimit="10"/><path fill="none" stroke="rgb(85,85,85)" paint-order="fill stroke markers" d=" M 658.7413789733703 425.6843703570247 L 648.5 432.2377044682852 L 659.8874946730306 436.49880718022507 Z" stroke-opacity="1" stroke-miterlimit="10"/><path fill="none" stroke="rgb(85,85,85)" paint-order="fill stroke markers" d=" M 550.6183562454931 515.6667000000001 Q 580.4131111469685 498.70199119758405 603.1840587922115 454.88732189140853" stroke-opacity="1" stroke-linejoin="round" stroke-miterlimit="10" stroke-width="1.25"/><path fill="rgb(85,85,85)" stroke="none" paint-order="stroke fill markers" d=" M 607.9597179080716 457.48722309320493 L 606.2264504402074 460.67099583711166 L 596.6751322084872 455.47119343351886 L 598.4083996763515 452.28742068961213 Z" fill-opacity="1"/><path fill="none" stroke="rgb(85,85,85)" paint-order="fill stroke markers" d=" M 436.9999999999999 902.0000000000002 L 436.9999999999999 951.6250000000002" stroke-opacity="1" stroke-linejoin="round" stroke-miterlimit="10" stroke-width="1.25"/><path fill="rgb(255,255,255)" stroke="rgb(255,255,255)" paint-order="fill stroke markers" d=" M 431.5624999999999 943.8750000000002 L 436.9999999999999 954.7500000000002 L 442.4374999999999 943.8750000000002 Z" fill-opacity="1" stroke-opacity="1" stroke-miterlimit="10"/><path fill="none" stroke="rgb(85,85,85)" paint-order="fill stroke markers" d=" M 431.5624999999999 943.8750000000002 L 436.9999999999999 954.7500000000002 L 442.4374999999999 943.8750000000002 Z" stroke-opacity="1" stroke-miterlimit="10"/><path fill="none" stroke="rgb(85,85,85)" paint-order="fill stroke markers" d=" M 581.3869853309726 454.0000000000001 Q 551.5922304294972 470.96470880241617 529.8012277750325 512.8938190893488" stroke-opacity="1" stroke-linejoin="round" stroke-miterlimit="10" stroke-width="1.25"/><path fill="rgb(255,255,255)" stroke="rgb(255,255,255)" paint-order="fill stroke markers" d=" M 528.7329176770827 503.5137965510977 L 528.3601322003585 515.6667000000001 L 538.306126245515 508.673186312038 Z" fill-opacity="1" stroke-opacity="1" stroke-miterlimit="10"/><path fill="none" stroke="rgb(85,85,85)" paint-order="fill stroke markers" d=" M 528.7329176770827 503.5137965510977 L 528.3601322003585 515.6667000000001 L 538.306126245515 508.673186312038 Z" stroke-opacity="1" stroke-miterlimit="10"/><path fill="none" stroke="rgb(85,85,85)" paint-order="fill stroke markers" d=" M 628.7323943661971 902.0000000000002 L 574.5511539189588 952.6166851546571" stroke-opacity="1" stroke-linejoin="round" stroke-miterlimit="10" stroke-width="1.25"/><path fill="rgb(255,255,255)" stroke="rgb(255,255,255)" paint-order="fill stroke markers" d=" M 576.5023858352486 943.3526903220348 L 572.2676056338028 954.7500000000002 L 583.9263214970425 951.2994383543777 Z" fill-opacity="1" stroke-opacity="1" stroke-miterlimit="10"/><path fill="none" stroke="rgb(85,85,85)" paint-order="fill stroke markers" d=" M 576.5023858352486 943.3526903220348 L 572.2676056338028 954.7500000000002 L 583.9263214970425 951.2994383543777 Z" stroke-opacity="1" stroke-miterlimit="10"/><path fill="none" stroke="rgb(85,85,85)" paint-order="fill stroke markers" d=" M 1060 140 L 1060 195.0651444779761" stroke-opacity="1" stroke-linejoin="round" stroke-miterlimit="10" stroke-width="1.25"/><path fill="rgb(255,255,255)" stroke="rgb(255,255,255)" paint-order="fill stroke markers" d=" M 1054.5625 187.3151444779761 L 1060 198.1901444779761 L 1065.4375 187.3151444779761 Z" fill-opacity="1" stroke-opacity="1" stroke-miterlimit="10"/><path fill="none" stroke="rgb(85,85,85)" paint-order="fill stroke markers" d=" M 1054.5625 187.3151444779761 L 1060 198.1901444779761 L 1065.4375 187.3151444779761 Z" stroke-opacity="1" stroke-miterlimit="10"/><path fill="none" stroke="rgb(85,85,85)" paint-order="fill stroke markers" d=" M 531.9655172413792 902.0000000000002 L 445.1719691797115 1124.0893729813265" stroke-opacity="1" stroke-linejoin="round" stroke-miterlimit="10" stroke-width="1.25"/><path fill="rgb(255,255,255)" stroke="rgb(255,255,255)" paint-order="fill stroke markers" d=" M 442.92844449152454 1114.8917916023172 L 444.0344827586206 1127.0000000000002 L 453.0574265165093 1118.8502443477137 Z" fill-opacity="1" stroke-opacity="1" stroke-miterlimit="10"/><path fill="none" stroke="rgb(85,85,85)" paint-order="fill stroke markers" d=" M 442.92844449152454 1114.8917916023172 L 444.0344827586206 1127.0000000000002 L 453.0574265165093 1118.8502443477137 Z" stroke-opacity="1" stroke-miterlimit="10"/><path fill="none" stroke="rgb(85,85,85)" paint-order="fill stroke markers" d=" M 863.3889695210449 990.7500000000002 L 895.8707452977314 1123.9639494651012" stroke-opacity="1" stroke-linejoin="round" stroke-miterlimit="10" stroke-width="1.25"/><path fill="rgb(255,255,255)" stroke="rgb(255,255,255)" paint-order="fill stroke markers" d=" M 888.7521101175727 1117.7226403538805 L 896.6110304789551 1127.0000000000002 L 899.3175659790214 1115.1464479232225 Z" fill-opacity="1" stroke-opacity="1" stroke-miterlimit="10"/><path fill="none" stroke="rgb(85,85,85)" paint-order="fill stroke markers" d=" M 888.7521101175727 1117.7226403538805 L 896.6110304789551 1127.0000000000002 L 899.3175659790214 1115.1464479232225 Z" stroke-opacity="1" stroke-miterlimit="10"/><path fill="none" stroke="rgb(85,85,85)" paint-order="fill stroke markers" d=" M 945.5338370592974 990.7500000000002 L 907.0636387149294 1123.9976266690774" stroke-opacity="1" stroke-linejoin="round" stroke-miterlimit="10" stroke-width="1.25"/><path fill="rgb(255,255,255)" stroke="rgb(255,255,255)" paint-order="fill stroke markers" d=" M 903.9892262515841 1115.0434715299687 L 906.1968172905501 1127.0000000000002 L 914.4374854431958 1118.0600100868085 Z" fill-opacity="1" stroke-opacity="1" stroke-miterlimit="10"/><path fill="none" stroke="rgb(85,85,85)" paint-order="fill stroke markers" d=" M 903.9892262515841 1115.0434715299687 L 906.1968172905501 1127.0000000000002 L 914.4374854431958 1118.0600100868085 Z" stroke-opacity="1" stroke-miterlimit="10"/><path fill="none" stroke="rgb(85,85,85)" paint-order="fill stroke markers" d=" M 1516 268 L 1516 1123.8750000000002" stroke-opacity="1" stroke-linejoin="round" stroke-miterlimit="10" stroke-width="1.25"/><path fill="rgb(255,255,255)" stroke="rgb(255,255,255)" paint-order="fill stroke markers" d=" M 1510.5625 1116.1250000000002 L 1516 1127.0000000000002 L 1521.4375 1116.1250000000002 Z" fill-opacity="1" stroke-opacity="1" stroke-miterlimit="10"/><path fill="none" stroke="rgb(85,85,85)" paint-order="fill stroke markers" d=" M 1510.5625 1116.1250000000002 L 1516 1127.0000000000002 L 1521.4375 1116.1250000000002 Z" stroke-opacity="1" stroke-miterlimit="10"/><path fill="none" stroke="rgb(85,85,85)" paint-order="fill stroke markers" d=" M 1095.5 216.7057378710477 L 1436.2191666310744 221.65426044028266 L 1477.5553370863786 236.34079945779197" stroke-opacity="1" stroke-linejoin="round" stroke-miterlimit="10" stroke-width="1.25"/><path fill="rgb(255,255,255)" stroke="rgb(255,255,255)" paint-order="fill stroke markers" d=" M 1468.4321427459736 238.86987661699447 L 1480.5 237.38702377654147 L 1472.0730033752218 228.62244967759207 Z" fill-opacity="1" stroke-opacity="1" stroke-miterlimit="10"/><path fill="none" stroke="rgb(85,85,85)" paint-order="fill stroke markers" d=" M 1468.4321427459736 238.86987661699447 L 1480.5 237.38702377654147 L 1472.0730033752218 228.62244967759207 Z" stroke-opacity="1" stroke-miterlimit="10"/><path fill="none" stroke="rgb(85,85,85)" paint-order="fill stroke markers" d=" M 1095.5 217.5574536386204 L 1326.2085828419047 226.44336796985968 L 1380.4710803264443 240.2187981273912" stroke-opacity="1" stroke-linejoin="round" stroke-miterlimit="10" stroke-width="1.25"/><path fill="rgb(255,255,255)" stroke="rgb(255,255,255)" paint-order="fill stroke markers" d=" M 1371.6214018004048 243.5821441155044 L 1383.5 240.98773935475967 L 1374.2973172716472 233.04150365153038 Z" fill-opacity="1" stroke-opacity="1" stroke-miterlimit="10"/><path fill="none" stroke="rgb(85,85,85)" paint-order="fill stroke markers" d=" M 1371.6214018004048 243.5821441155044 L 1383.5 240.98773935475967 L 1374.2973172716472 233.04150365153038 Z" stroke-opacity="1" stroke-miterlimit="10"/><path fill="none" stroke="rgb(85,85,85)" paint-order="fill stroke markers" d=" M 1095.5 221.52458834922876 L 1246.4096946029106 244.201188222105" stroke-opacity="1" stroke-linejoin="round" stroke-miterlimit="10" stroke-width="1.25"/><path fill="rgb(255,255,255)" stroke="rgb(255,255,255)" paint-order="fill stroke markers" d=" M 1237.9377370605707 248.42668720456774 L 1249.5 244.66555612874734 L 1239.553737375686 237.67242442269622 Z" fill-opacity="1" stroke-opacity="1" stroke-miterlimit="10"/><path fill="none" stroke="rgb(85,85,85)" paint-order="fill stroke markers" d=" M 1237.9377370605707 248.42668720456774 L 1249.5 244.66555612874734 L 1239.553737375686 237.67242442269622 Z" stroke-opacity="1" stroke-miterlimit="10"/><path fill="none" stroke="rgb(85,85,85)" paint-order="fill stroke markers" d=" M 1024.5 216.89145611209452 L 668.5472680765512 223.9233939175634 L 504.59941937247805 245.03058291753177" stroke-opacity="1" stroke-linejoin="round" stroke-miterlimit="10" stroke-width="1.25"/><path fill="rgb(255,255,255)" stroke="rgb(255,255,255)" paint-order="fill stroke markers" d=" M 511.59166806085216 238.64800001325779 L 501.4999999999999 245.42961243211323 L 512.9802907715956 249.43397942948175 Z" fill-opacity="1" stroke-opacity="1" stroke-miterlimit="10"/><path fill="none" stroke="rgb(85,85,85)" paint-order="fill stroke markers" d=" M 511.59166806085216 238.64800001325779 L 501.4999999999999 245.42961243211323 L 512.9802907715956 249.43397942948175 Z" stroke-opacity="1" stroke-miterlimit="10"/><path fill="none" stroke="rgb(85,85,85)" paint-order="fill stroke markers" d=" M 1024.5 220.61911079174678 L 827.6009600225959 245.18415910931589" stroke-opacity="1" stroke-linejoin="round" stroke-miterlimit="10" stroke-width="1.25"/><path fill="rgb(255,255,255)" stroke="rgb(255,255,255)" paint-order="fill stroke markers" d=" M 834.6181791148044 238.8290397192537 L 824.5 245.57103368622933 L 835.9645026424631 249.62038059788748 Z" fill-opacity="1" stroke-opacity="1" stroke-miterlimit="10"/><path fill="none" stroke="rgb(85,85,85)" paint-order="fill stroke markers" d=" M 834.6181791148044 238.8290397192537 L 824.5 245.57103368622933 L 835.9645026424631 249.62038059788748 Z" stroke-opacity="1" stroke-miterlimit="10"/><path fill="none" stroke="rgb(85,85,85)" paint-order="fill stroke markers" d=" M 1045.3677798402225 234.1901444779761 L 974.6034079450667 321.2417798555132" stroke-opacity="1" stroke-linejoin="round" stroke-miterlimit="10" stroke-width="1.25"/><path fill="rgb(255,255,255)" stroke="rgb(255,255,255)" paint-order="fill stroke markers" d=" M 975.2726622011767 311.79821035078254 L 972.6322201597775 323.6666600000001 L 983.711245103991 318.65794384358895 Z" fill-opacity="1" stroke-opacity="1" stroke-miterlimit="10"/><path fill="none" stroke="rgb(85,85,85)" paint-order="fill stroke markers" d=" M 975.2726622011767 311.79821035078254 L 972.6322201597775 323.6666600000001 L 983.711245103991 318.65794384358895 Z" stroke-opacity="1" stroke-miterlimit="10"/><path fill="none" stroke="rgb(85,85,85)" paint-order="fill stroke markers" d=" M 538.9999999999999 722.0000000000002 L 538.9999999999999 768.8750000000002" stroke-opacity="1" stroke-linejoin="round" stroke-miterlimit="10" stroke-width="1.25"/><path fill="rgb(255,255,255)" stroke="rgb(255,255,255)" paint-order="fill stroke markers" d=" M 533.5624999999999 761.1250000000002 L 538.9999999999999 772.0000000000002 L 544.4374999999999 761.1250000000002 Z" fill-opacity="1" stroke-opacity="1" stroke-miterlimit="10"/><path fill="none" stroke="rgb(85,85,85)" paint-order="fill stroke markers" d=" M 533.5624999999999 761.1250000000002 L 538.9999999999999 772.0000000000002 L 544.4374999999999 761.1250000000002 Z" stroke-opacity="1" stroke-miterlimit="10"/><path fill="none" stroke="rgb(85,85,85)" paint-order="fill stroke markers" d=" M 519.4680851063829 808.0000000000002 L 458.8299023808944 863.8822468254504" stroke-opacity="1" stroke-linejoin="round" stroke-miterlimit="10" stroke-width="1.25"/><path fill="rgb(255,255,255)" stroke="rgb(255,255,255)" paint-order="fill stroke markers" d=" M 460.8440208256259 854.6317207247039 L 456.5319148936169 866.0000000000002 L 468.21380187305937 862.6287171804296 Z" fill-opacity="1" stroke-opacity="1" stroke-miterlimit="10"/><path fill="none" stroke="rgb(85,85,85)" paint-order="fill stroke markers" d=" M 460.8440208256259 854.6317207247039 L 456.5319148936169 866.0000000000002 L 468.21380187305937 862.6287171804296 Z" stroke-opacity="1" stroke-miterlimit="10"/><path fill="none" stroke="rgb(85,85,85)" paint-order="fill stroke markers" d=" M 538.9999999999999 808.0000000000002 L 538.9999999999999 862.8750000000002" stroke-opacity="1" stroke-linejoin="round" stroke-miterlimit="10" stroke-width="1.25"/><path fill="rgb(255,255,255)" stroke="rgb(255,255,255)" paint-order="fill stroke markers" d=" M 533.5624999999999 855.1250000000002 L 538.9999999999999 866.0000000000002 L 544.4374999999999 855.1250000000002 Z" fill-opacity="1" stroke-opacity="1" stroke-miterlimit="10"/><path fill="none" stroke="rgb(85,85,85)" paint-order="fill stroke markers" d=" M 533.5624999999999 855.1250000000002 L 538.9999999999999 866.0000000000002 L 544.4374999999999 855.1250000000002 Z" stroke-opacity="1" stroke-miterlimit="10"/><path fill="none" stroke="rgb(85,85,85)" paint-order="fill stroke markers" d=" M 559.8723404255318 808.0000000000002 L 624.7611237313523 863.959134227038" stroke-opacity="1" stroke-linejoin="round" stroke-miterlimit="10" stroke-width="1.25"/><path fill="rgb(255,255,255)" stroke="rgb(255,255,255)" paint-order="fill stroke markers" d=" M 615.341008395471 863.0155594771132 L 627.127659574468 866.0000000000002 L 622.4432212853794 854.7800147430704 Z" fill-opacity="1" stroke-opacity="1" stroke-miterlimit="10"/><path fill="none" stroke="rgb(85,85,85)" paint-order="fill stroke markers" d=" M 615.341008395471 863.0155594771132 L 627.127659574468 866.0000000000002 L 622.4432212853794 854.7800147430704 Z" stroke-opacity="1" stroke-miterlimit="10"/><path fill="none" stroke="rgb(85,85,85)" paint-order="fill stroke markers" d=" M 574.4999999999999 796.4049904030712 L 1021.4246537839094 877.0401486673467" stroke-opacity="1" stroke-linejoin="round" stroke-miterlimit="10" stroke-width="1.25"/><path fill="rgb(255,255,255)" stroke="rgb(255,255,255)" paint-order="fill stroke markers" d=" M 1012.8323371505311 881.0151959779796 L 1024.5 877.5950095969292 L 1014.7632531854783 870.3129911459843 Z" fill-opacity="1" stroke-opacity="1" stroke-miterlimit="10"/><path fill="none" stroke="rgb(85,85,85)" paint-order="fill stroke markers" d=" M 1012.8323371505311 881.0151959779796 L 1024.5 877.5950095969292 L 1014.7632531854783 870.3129911459843 Z" stroke-opacity="1" stroke-miterlimit="10"/><path fill="none" stroke="rgb(85,85,85)" paint-order="fill stroke markers" d=" M 549.4146845724965 808.0000000000002 L 595.293961249666 887.2944783339788 L 563.294783154769 951.949251171199" stroke-opacity="1" stroke-linejoin="round" stroke-miterlimit="10" stroke-width="1.25"/><path fill="rgb(255,255,255)" stroke="rgb(255,255,255)" paint-order="fill stroke markers" d=" M 561.8591493462973 942.591481040555 L 561.9086262379776 954.7500000000002 L 571.6057552705256 947.4153071109888 Z" fill-opacity="1" stroke-opacity="1" stroke-miterlimit="10"/><path fill="none" stroke="rgb(85,85,85)" paint-order="fill stroke markers" d=" M 561.8591493462973 942.591481040555 L 561.9086262379776 954.7500000000002 L 571.6057552705256 947.4153071109888 Z" stroke-opacity="1" stroke-miterlimit="10"/><path fill="rgb(158,202,225)" stroke="rgb(85,85,85)" paint-order="fill stroke markers" d=" M 1250 232.5 L 1250 267.5 L 1320 267.5 L 1320 232.5 Z" fill-opacity="1" stroke-opacity="1" stroke-miterlimit="10" stroke-width="1.25"/><path fill="rgb(158,202,225)" stroke="rgb(85,85,85)" paint-order="fill stroke markers" d="" fill-opacity="1" stroke-opacity="1" stroke-miterlimit="10" stroke-width="1.25"/><text fill="rgb(0,0,0)" stroke="none" font-family="Helvetica" font-size="11px" font-style="normal" font-weight="normal" text-decoration="normal" x="1285" y="255.5" text-anchor="middle" dominant-baseline="text-after-edge" fill-opacity="1">Vav</text><path fill="rgb(158,202,225)" stroke="rgb(85,85,85)" paint-order="fill stroke markers" d=" M 1384 232.5 L 1384 267.5 L 1454 267.5 L 1454 232.5 Z" fill-opacity="1" stroke-opacity="1" stroke-miterlimit="10" stroke-width="1.25"/><path fill="rgb(158,202,225)" stroke="rgb(85,85,85)" paint-order="fill stroke markers" d="" fill-opacity="1" stroke-opacity="1" stroke-miterlimit="10" stroke-width="1.25"/><text fill="rgb(0,0,0)" stroke="none" font-family="Helvetica" font-size="11px" font-style="normal" font-weight="normal" text-decoration="normal" x="1419" y="255.5" text-anchor="middle" dominant-baseline="text-after-edge" fill-opacity="1">Nck</text><path fill="rgb(158,202,225)" stroke="rgb(85,85,85)" paint-order="fill stroke markers" d=" M 1209 324.1666600000001 L 1209 359.1666600000001 L 1279 359.1666600000001 L 1279 324.1666600000001 Z" fill-opacity="1" stroke-opacity="1" stroke-miterlimit="10" stroke-width="1.25"/><path fill="rgb(158,202,225)" stroke="rgb(85,85,85)" paint-order="fill stroke markers" d="" fill-opacity="1" stroke-opacity="1" stroke-miterlimit="10" stroke-width="1.25"/><text fill="rgb(0,0,0)" stroke="none" font-family="Helvetica" font-size="11px" font-style="normal" font-weight="normal" text-decoration="normal" x="1244" y="347.1666600000001" text-anchor="middle" dominant-baseline="text-after-edge" fill-opacity="1">Rac</text><path fill="rgb(158,202,225)" stroke="rgb(85,85,85)" paint-order="fill stroke markers" d=" M 1297 324.1666600000001 L 1297 359.1666600000001 L 1367 359.1666600000001 L 1367 324.1666600000001 Z" fill-opacity="1" stroke-opacity="1" stroke-miterlimit="10" stroke-width="1.25"/><path fill="rgb(158,202,225)" stroke="rgb(85,85,85)" paint-order="fill stroke markers" d="" fill-opacity="1" stroke-opacity="1" stroke-miterlimit="10" stroke-width="1.25"/><text fill="rgb(0,0,0)" stroke="none" font-family="Helvetica" font-size="11px" font-style="normal" font-weight="normal" text-decoration="normal" x="1332" y="347.1666600000001" text-anchor="middle" dominant-baseline="text-after-edge" fill-opacity="1">Rho</text><path fill="rgb(158,202,225)" stroke="rgb(85,85,85)" paint-order="fill stroke markers" d=" M 1384 324.1666600000001 L 1384 359.1666600000001 L 1454 359.1666600000001 L 1454 324.1666600000001 Z" fill-opacity="1" stroke-opacity="1" stroke-miterlimit="10" stroke-width="1.25"/><path fill="rgb(158,202,225)" stroke="rgb(85,85,85)" paint-order="fill stroke markers" d="" fill-opacity="1" stroke-opacity="1" stroke-miterlimit="10" stroke-width="1.25"/><text fill="rgb(0,0,0)" stroke="none" font-family="Helvetica" font-size="11px" font-style="normal" font-weight="normal" text-decoration="normal" x="1419" y="347.1666600000001" text-anchor="middle" dominant-baseline="text-after-edge" fill-opacity="1">N-WASP</text><path fill="rgb(158,202,225)" stroke="rgb(85,85,85)" paint-order="fill stroke markers" d=" M 1297 418.5000000000001 L 1297 453.5000000000001 L 1367 453.5000000000001 L 1367 418.5000000000001 Z" fill-opacity="1" stroke-opacity="1" stroke-miterlimit="10" stroke-width="1.25"/><path fill="rgb(158,202,225)" stroke="rgb(85,85,85)" paint-order="fill stroke markers" d="" fill-opacity="1" stroke-opacity="1" stroke-miterlimit="10" stroke-width="1.25"/><text fill="rgb(0,0,0)" stroke="none" font-family="Helvetica" font-size="11px" font-style="normal" font-weight="normal" text-decoration="normal" x="1332" y="441.5000000000001" text-anchor="middle" dominant-baseline="text-after-edge" fill-opacity="1">Actin</text><path fill="rgb(158,202,225)" stroke="rgb(85,85,85)" paint-order="fill stroke markers" d=" M 589 324.1666600000001 L 589 359.1666600000001 L 659 359.1666600000001 L 659 324.1666600000001 Z" fill-opacity="1" stroke-opacity="1" stroke-miterlimit="10" stroke-width="1.25"/><path fill="rgb(158,202,225)" stroke="rgb(85,85,85)" paint-order="fill stroke markers" d="" fill-opacity="1" stroke-opacity="1" stroke-miterlimit="10" stroke-width="1.25"/><text fill="rgb(0,0,0)" stroke="none" font-family="Helvetica" font-size="11px" font-style="normal" font-weight="normal" text-decoration="normal" x="624" y="347.1666600000001" text-anchor="middle" dominant-baseline="text-after-edge" fill-opacity="1">Grb7</text><path fill="rgb(158,202,225)" stroke="rgb(85,85,85)" paint-order="fill stroke markers" d=" M 923 324.1666600000001 L 923 359.1666600000001 L 993 359.1666600000001 L 993 324.1666600000001 Z" fill-opacity="1" stroke-opacity="1" stroke-miterlimit="10" stroke-width="1.25"/><path fill="rgb(158,202,225)" stroke="rgb(85,85,85)" paint-order="fill stroke markers" d="" fill-opacity="1" stroke-opacity="1" stroke-miterlimit="10" stroke-width="1.25"/><text fill="rgb(0,0,0)" stroke="none" font-family="Helvetica" font-size="11px" font-style="normal" font-weight="normal" text-decoration="normal" x="958" y="347.1666600000001" text-anchor="middle" dominant-baseline="text-after-edge" fill-opacity="1">RasGAP1</text><path fill="rgb(158,202,225)" stroke="rgb(85,85,85)" paint-order="fill stroke markers" d=" M 813 324.1666600000001 L 813 359.1666600000001 L 883 359.1666600000001 L 883 324.1666600000001 Z" fill-opacity="1" stroke-opacity="1" stroke-miterlimit="10" stroke-width="1.25"/><path fill="rgb(158,202,225)" stroke="rgb(85,85,85)" paint-order="fill stroke markers" d="" fill-opacity="1" stroke-opacity="1" stroke-miterlimit="10" stroke-width="1.25"/><text fill="rgb(0,0,0)" stroke="none" font-family="Helvetica" font-size="11px" font-style="normal" font-weight="normal" text-decoration="normal" x="848" y="347.1666600000001" text-anchor="middle" dominant-baseline="text-after-edge" fill-opacity="1">C-Src</text><path fill="rgb(158,202,225)" stroke="rgb(85,85,85)" paint-order="fill stroke markers" d=" M 682 324.1666600000001 L 682 359.1666600000001 L 752 359.1666600000001 L 752 324.1666600000001 Z" fill-opacity="1" stroke-opacity="1" stroke-miterlimit="10" stroke-width="1.25"/><path fill="rgb(158,202,225)" stroke="rgb(85,85,85)" paint-order="fill stroke markers" d="" fill-opacity="1" stroke-opacity="1" stroke-miterlimit="10" stroke-width="1.25"/><text fill="rgb(0,0,0)" stroke="none" font-family="Helvetica" font-size="11px" font-style="normal" font-weight="normal" text-decoration="normal" x="717" y="347.1666600000001" text-anchor="middle" dominant-baseline="text-after-edge" fill-opacity="1">Shc</text><path fill="rgb(158,202,225)" stroke="rgb(85,85,85)" paint-order="fill stroke markers" d=" M 677 516.1667000000001 L 677 551.1667000000001 L 747 551.1667000000001 L 747 516.1667000000001 Z" fill-opacity="1" stroke-opacity="1" stroke-miterlimit="10" stroke-width="1.25"/><path fill="rgb(158,202,225)" stroke="rgb(85,85,85)" paint-order="fill stroke markers" d="" fill-opacity="1" stroke-opacity="1" stroke-miterlimit="10" stroke-width="1.25"/><text fill="rgb(0,0,0)" stroke="none" font-family="Helvetica" font-size="11px" font-style="normal" font-weight="normal" text-decoration="normal" x="712" y="539.1667000000001" text-anchor="middle" dominant-baseline="text-after-edge" fill-opacity="1">SOS</text><path fill="rgb(158,202,225)" stroke="rgb(85,85,85)" paint-order="fill stroke markers" d=" M 677 604.5 L 677 639.5 L 747 639.5 L 747 604.5 Z" fill-opacity="1" stroke-opacity="1" stroke-miterlimit="10" stroke-width="1.25"/><path fill="rgb(158,202,225)" stroke="rgb(85,85,85)" paint-order="fill stroke markers" d="" fill-opacity="1" stroke-opacity="1" stroke-miterlimit="10" stroke-width="1.25"/><text fill="rgb(0,0,0)" stroke="none" font-family="Helvetica" font-size="11px" font-style="normal" font-weight="normal" text-decoration="normal" x="712" y="627.5" text-anchor="middle" dominant-baseline="text-after-edge" fill-opacity="1">Ras</text><path fill="rgb(158,202,225)" stroke="rgb(85,85,85)" paint-order="fill stroke markers" d=" M 677 686.5000000000002 L 677 721.5000000000002 L 747 721.5000000000002 L 747 686.5000000000002 Z" fill-opacity="1" stroke-opacity="1" stroke-miterlimit="10" stroke-width="1.25"/><path fill="rgb(158,202,225)" stroke="rgb(85,85,85)" paint-order="fill stroke markers" d="" fill-opacity="1" stroke-opacity="1" stroke-miterlimit="10" stroke-width="1.25"/><text fill="rgb(0,0,0)" stroke="none" font-family="Helvetica" font-size="11px" font-style="normal" font-weight="normal" text-decoration="normal" x="712" y="709.5000000000002" text-anchor="middle" dominant-baseline="text-after-edge" fill-opacity="1">Raf-1</text><path fill="rgb(158,202,225)" stroke="rgb(85,85,85)" paint-order="fill stroke markers" d=" M 677 772.5000000000002 L 677 807.5000000000002 L 747 807.5000000000002 L 747 772.5000000000002 Z" fill-opacity="1" stroke-opacity="1" stroke-miterlimit="10" stroke-width="1.25"/><path fill="rgb(158,202,225)" stroke="rgb(85,85,85)" paint-order="fill stroke markers" d="" fill-opacity="1" stroke-opacity="1" stroke-miterlimit="10" stroke-width="1.25"/><text fill="rgb(0,0,0)" stroke="none" font-family="Helvetica" font-size="11px" font-style="normal" font-weight="normal" text-decoration="normal" x="712" y="795.5000000000002" text-anchor="middle" dominant-baseline="text-after-edge" fill-opacity="1">MAPKK</text><path fill="rgb(158,202,225)" stroke="rgb(85,85,85)" paint-order="fill stroke markers" d=" M 430.9999999999999 232.5 L 430.9999999999999 267.5 L 500.9999999999999 267.5 L 500.9999999999999 232.5 Z" fill-opacity="1" stroke-opacity="1" stroke-miterlimit="10" stroke-width="1.25"/><path fill="rgb(158,202,225)" stroke="rgb(85,85,85)" paint-order="fill stroke markers" d="" fill-opacity="1" stroke-opacity="1" stroke-miterlimit="10" stroke-width="1.25"/><text fill="rgb(0,0,0)" stroke="none" font-family="Helvetica" font-size="11px" font-style="normal" font-weight="normal" text-decoration="normal" x="465.9999999999999" y="255.5" text-anchor="middle" dominant-baseline="text-after-edge" fill-opacity="1">ErbB3</text><path fill="rgb(158,202,225)" stroke="rgb(85,85,85)" paint-order="fill stroke markers" d=" M 578 516.1667000000001 L 578 551.1667000000001 L 648 551.1667000000001 L 648 516.1667000000001 Z" fill-opacity="1" stroke-opacity="1" stroke-miterlimit="10" stroke-width="1.25"/><path fill="rgb(158,202,225)" stroke="rgb(85,85,85)" paint-order="fill stroke markers" d="" fill-opacity="1" stroke-opacity="1" stroke-miterlimit="10" stroke-width="1.25"/><text fill="rgb(0,0,0)" stroke="none" font-family="Helvetica" font-size="11px" font-style="normal" font-weight="normal" text-decoration="normal" x="613" y="539.1667000000001" text-anchor="middle" dominant-baseline="text-after-edge" fill-opacity="1">GAB1</text><path fill="rgb(158,202,225)" stroke="rgb(85,85,85)" paint-order="fill stroke markers" d=" M 503.9999999999999 604.5 L 503.9999999999999 639.5 L 573.9999999999999 639.5 L 573.9999999999999 604.5 Z" fill-opacity="1" stroke-opacity="1" stroke-miterlimit="10" stroke-width="1.25"/><path fill="rgb(158,202,225)" stroke="rgb(85,85,85)" paint-order="fill stroke markers" d="" fill-opacity="1" stroke-opacity="1" stroke-miterlimit="10" stroke-width="1.25"/><text fill="rgb(0,0,0)" stroke="none" font-family="Helvetica" font-size="11px" font-style="normal" font-weight="normal" text-decoration="normal" x="538.9999999999999" y="627.5" text-anchor="middle" dominant-baseline="text-after-edge" fill-opacity="1">p85 PI3K</text><path fill="rgb(158,202,225)" stroke="rgb(85,85,85)" paint-order="fill stroke markers" d=" M 503.9999999999999 686.5000000000002 L 503.9999999999999 721.5000000000002 L 573.9999999999999 721.5000000000002 L 573.9999999999999 686.5000000000002 Z" fill-opacity="1" stroke-opacity="1" stroke-miterlimit="10" stroke-width="1.25"/><path fill="rgb(158,202,225)" stroke="rgb(85,85,85)" paint-order="fill stroke markers" d="" fill-opacity="1" stroke-opacity="1" stroke-miterlimit="10" stroke-width="1.25"/><text fill="rgb(0,0,0)" stroke="none" font-family="Helvetica" font-size="11px" font-style="normal" font-weight="normal" text-decoration="normal" x="538.9999999999999" y="709.5000000000002" text-anchor="middle" dominant-baseline="text-after-edge" fill-opacity="1">PI3K 1a</text><path fill="rgb(158,202,225)" stroke="rgb(85,85,85)" paint-order="fill stroke markers" d=" M 401.9999999999999 866.5000000000002 L 401.9999999999999 901.5000000000002 L 471.9999999999999 901.5000000000002 L 471.9999999999999 866.5000000000002 Z" fill-opacity="1" stroke-opacity="1" stroke-miterlimit="10" stroke-width="1.25"/><path fill="rgb(158,202,225)" stroke="rgb(85,85,85)" paint-order="fill stroke markers" d="" fill-opacity="1" stroke-opacity="1" stroke-miterlimit="10" stroke-width="1.25"/><text fill="rgb(0,0,0)" stroke="none" font-family="Helvetica" font-size="11px" font-style="normal" font-weight="normal" text-decoration="normal" x="436.9999999999999" y="889.5000000000002" text-anchor="middle" dominant-baseline="text-after-edge" fill-opacity="1">GRP1</text><path fill="rgb(158,202,225)" stroke="rgb(85,85,85)" paint-order="fill stroke markers" d=" M 401.9999999999999 955.2500000000002 L 401.9999999999999 990.2500000000002 L 471.9999999999999 990.2500000000002 L 471.9999999999999 955.2500000000002 Z" fill-opacity="1" stroke-opacity="1" stroke-miterlimit="10" stroke-width="1.25"/><path fill="rgb(158,202,225)" stroke="rgb(85,85,85)" paint-order="fill stroke markers" d="" fill-opacity="1" stroke-opacity="1" stroke-miterlimit="10" stroke-width="1.25"/><text fill="rgb(0,0,0)" stroke="none" font-family="Helvetica" font-size="11px" font-style="normal" font-weight="normal" text-decoration="normal" x="436.9999999999999" y="978.2500000000002" text-anchor="middle" dominant-baseline="text-after-edge" fill-opacity="1">ARF</text><path fill="rgb(158,202,225)" stroke="rgb(85,85,85)" paint-order="fill stroke markers" d=" M 613 866.5000000000002 L 613 901.5000000000002 L 683 901.5000000000002 L 683 866.5000000000002 Z" fill-opacity="1" stroke-opacity="1" stroke-miterlimit="10" stroke-width="1.25"/><path fill="rgb(158,202,225)" stroke="rgb(85,85,85)" paint-order="fill stroke markers" d="" fill-opacity="1" stroke-opacity="1" stroke-miterlimit="10" stroke-width="1.25"/><text fill="rgb(0,0,0)" stroke="none" font-family="Helvetica" font-size="11px" font-style="normal" font-weight="normal" text-decoration="normal" x="648" y="889.5000000000002" text-anchor="middle" dominant-baseline="text-after-edge" fill-opacity="1">PDK1</text><path fill="rgb(158,202,225)" stroke="rgb(85,85,85)" paint-order="fill stroke markers" d=" M 625 955.2500000000002 L 625 990.2500000000002 L 695 990.2500000000002 L 695 955.2500000000002 Z" fill-opacity="1" stroke-opacity="1" stroke-miterlimit="10" stroke-width="1.25"/><path fill="rgb(158,202,225)" stroke="rgb(85,85,85)" paint-order="fill stroke markers" d="" fill-opacity="1" stroke-opacity="1" stroke-miterlimit="10" stroke-width="1.25"/><text fill="rgb(0,0,0)" stroke="none" font-family="Helvetica" font-size="11px" font-style="normal" font-weight="normal" text-decoration="normal" x="660" y="978.2500000000002" text-anchor="middle" dominant-baseline="text-after-edge" fill-opacity="1">p7056K</text><path fill="rgb(158,202,225)" stroke="rgb(85,85,85)" paint-order="fill stroke markers" d=" M 756 866.5000000000002 L 756 901.5000000000002 L 826 901.5000000000002 L 826 866.5000000000002 Z" fill-opacity="1" stroke-opacity="1" stroke-miterlimit="10" stroke-width="1.25"/><path fill="rgb(158,202,225)" stroke="rgb(85,85,85)" paint-order="fill stroke markers" d="" fill-opacity="1" stroke-opacity="1" stroke-miterlimit="10" stroke-width="1.25"/><text fill="rgb(0,0,0)" stroke="none" font-family="Helvetica" font-size="11px" font-style="normal" font-weight="normal" text-decoration="normal" x="791" y="889.5000000000002" text-anchor="middle" dominant-baseline="text-after-edge" fill-opacity="1">MAPK</text><path fill="rgb(158,202,225)" stroke="rgb(85,85,85)" paint-order="fill stroke markers" d=" M 1025 418.5000000000001 L 1025 453.5000000000001 L 1095 453.5000000000001 L 1095 418.5000000000001 Z" fill-opacity="1" stroke-opacity="1" stroke-miterlimit="10" stroke-width="1.25"/><path fill="rgb(158,202,225)" stroke="rgb(85,85,85)" paint-order="fill stroke markers" d="" fill-opacity="1" stroke-opacity="1" stroke-miterlimit="10" stroke-width="1.25"/><text fill="rgb(0,0,0)" stroke="none" font-family="Helvetica" font-size="11px" font-style="normal" font-weight="normal" text-decoration="normal" x="1060" y="441.5000000000001" text-anchor="middle" dominant-baseline="text-after-edge" fill-opacity="1">Cbl</text><path fill="rgb(158,202,225)" stroke="rgb(85,85,85)" paint-order="fill stroke markers" d=" M 497.9999999999999 1047.6666000000002 L 497.9999999999999 1082.6666000000002 L 567.9999999999999 1082.6666000000002 L 567.9999999999999 1047.6666000000002 Z" fill-opacity="1" stroke-opacity="1" stroke-miterlimit="10" stroke-width="1.25"/><path fill="rgb(158,202,225)" stroke="rgb(85,85,85)" paint-order="fill stroke markers" d="" fill-opacity="1" stroke-opacity="1" stroke-miterlimit="10" stroke-width="1.25"/><text fill="rgb(0,0,0)" stroke="none" font-family="Helvetica" font-size="11px" font-style="normal" font-weight="normal" text-decoration="normal" x="532.9999999999999" y="1070.6666000000002" text-anchor="middle" dominant-baseline="text-after-edge" fill-opacity="1">FKHR/DAF16</text><path fill="rgb(158,202,225)" stroke="rgb(85,85,85)" paint-order="fill stroke markers" d=" M 1110 955.2500000000002 L 1110 990.2500000000002 L 1180 990.2500000000002 L 1180 955.2500000000002 Z" fill-opacity="1" stroke-opacity="1" stroke-miterlimit="10" stroke-width="1.25"/><path fill="#ffffff" stroke="rgb(85,85,85)" paint-order="fill stroke markers" d=" M 1134.25 955.2500000000002 L 1134.2353573352323 955.6226807047075 L 1134.191519617827 955.9930637089413 L 1134.118757121889 956.3588654783158 L 1134.0175184524019 956.7178307232813 L 1133.8884277794286 957.0677463037345 L 1133.7322809898947 957.4064548737631 L 1133.550040780682 957.731868182401 L 1133.342830723281 958.0419799483894 L 1133.1119283366002 958.3348782295686 L 1132.8587572106362 958.6087572106363 L 1132.5848782295684 958.8619283366004 L 1132.2919799483893 959.0928307232813 L 1131.9818681824008 959.3000407806821 L 1131.6564548737629 959.482280989895 L 1131.317746303734 959.6384277794289 L 1130.967830723281 959.7675184524022 L 1130.6088654783155 959.8687571218892 L 1130.243063708941 959.9415196178271 L 1129.8726807047074 959.9853573352326 L 1129.5 960.0000000000002 L 1129.1273192952926 959.9853573352326 L 1128.756936291059 959.9415196178271 L 1128.3911345216845 959.8687571218892 L 1128.032169276719 959.7675184524022 L 1127.682253696266 959.6384277794289 L 1127.3435451262371 959.482280989895 L 1127.0181318175992 959.3000407806821 L 1126.7080200516107 959.0928307232813 L 1126.4151217704316 958.8619283366004 L 1126.1412427893638 958.6087572106363 L 1125.8880716633998 958.3348782295686 L 1125.657169276719 958.0419799483894 L 1125.449959219318 957.731868182401 L 1125.2677190101053 957.4064548737631 L 1125.1115722205714 957.0677463037345 L 1124.9824815475981 956.7178307232813 L 1124.881242878111 956.3588654783158 L 1124.808480382173 955.9930637089413 L 1124.7646426647677 955.6226807047075 L 1124.75 955.2500000000002 L 1124.7646426647677 954.877319295293 L 1124.808480382173 954.5069362910591 L 1124.881242878111 954.1411345216846 L 1124.9824815475981 953.7821692767192 L 1125.1115722205714 953.432253696266 L 1125.2677190101053 953.0935451262374 L 1125.449959219318 952.7681318175995 L 1125.657169276719 952.458020051611 L 1125.8880716633998 952.1651217704318 L 1126.1412427893638 951.8912427893641 L 1126.4151217704316 951.6380716634001 L 1126.7080200516107 951.4071692767192 L 1127.0181318175992 951.1999592193183 L 1127.3435451262371 951.0177190101055 L 1127.682253696266 950.8615722205716 L 1128.032169276719 950.7324815475982 L 1128.3911345216845 950.6312428781113 L 1128.756936291059 950.5584803821733 L 1129.1273192952929 950.5146426647678 L 1129.5 950.5000000000002 L 1129.8726807047074 950.5146426647678 L 1130.243063708941 950.5584803821733 L 1130.6088654783155 950.6312428781113 L 1130.967830723281 950.7324815475982 L 1131.317746303734 950.8615722205716 L 1131.6564548737629 951.0177190101055 L 1131.9818681824008 951.1999592193183 L 1132.2919799483893 951.4071692767193 L 1132.5848782295684 951.6380716634001 L 1132.8587572106362 951.8912427893641 L 1133.1119283366002 952.1651217704319 L 1133.342830723281 952.458020051611 L 1133.550040780682 952.7681318175995 L 1133.7322809898947 953.0935451262375 L 1133.8884277794286 953.4322536962661 L 1134.017518452402 953.7821692767193 L 1134.118757121889 954.1411345216848 L 1134.191519617827 954.5069362910592 L 1134.2353573352323 954.877319295293 Z" stroke-opacity="1" stroke-miterlimit="10" stroke-width="1.25"/><path fill="rgb(158,202,225)" stroke="rgb(85,85,85)" paint-order="fill stroke markers" d="" fill-opacity="1" stroke-opacity="1" stroke-miterlimit="10" stroke-width="1.25"/><text fill="rgb(0,0,0)" stroke="none" font-family="Helvetica" font-size="14px" font-style="normal" font-weight="normal" text-decoration="normal" x="1145" y="979.7500000000002" text-anchor="middle" dominant-baseline="text-after-edge" fill-opacity="1">DAG</text><path fill="rgb(158,202,225)" stroke="rgb(85,85,85)" paint-order="fill stroke markers" d=" M 1025 955.2500000000002 L 1025 990.2500000000002 L 1095 990.2500000000002 L 1095 955.2500000000002 Z" fill-opacity="1" stroke-opacity="1" stroke-miterlimit="10" stroke-width="1.25"/><path fill="#ffffff" stroke="rgb(85,85,85)" paint-order="fill stroke markers" d=" M 1049.25 955.2500000000002 L 1049.2353573352323 955.6226807047075 L 1049.191519617827 955.9930637089413 L 1049.118757121889 956.3588654783158 L 1049.0175184524019 956.7178307232813 L 1048.8884277794286 957.0677463037345 L 1048.7322809898947 957.4064548737631 L 1048.550040780682 957.731868182401 L 1048.342830723281 958.0419799483894 L 1048.1119283366002 958.3348782295686 L 1047.8587572106362 958.6087572106363 L 1047.5848782295684 958.8619283366004 L 1047.2919799483893 959.0928307232813 L 1046.9818681824008 959.3000407806821 L 1046.6564548737629 959.482280989895 L 1046.317746303734 959.6384277794289 L 1045.967830723281 959.7675184524022 L 1045.6088654783155 959.8687571218892 L 1045.243063708941 959.9415196178271 L 1044.8726807047074 959.9853573352326 L 1044.5 960.0000000000002 L 1044.1273192952926 959.9853573352326 L 1043.756936291059 959.9415196178271 L 1043.3911345216845 959.8687571218892 L 1043.032169276719 959.7675184524022 L 1042.682253696266 959.6384277794289 L 1042.3435451262371 959.482280989895 L 1042.0181318175992 959.3000407806821 L 1041.7080200516107 959.0928307232813 L 1041.4151217704316 958.8619283366004 L 1041.1412427893638 958.6087572106363 L 1040.8880716633998 958.3348782295686 L 1040.657169276719 958.0419799483894 L 1040.449959219318 957.731868182401 L 1040.2677190101053 957.4064548737631 L 1040.1115722205714 957.0677463037345 L 1039.9824815475981 956.7178307232813 L 1039.881242878111 956.3588654783158 L 1039.808480382173 955.9930637089413 L 1039.7646426647677 955.6226807047075 L 1039.75 955.2500000000002 L 1039.7646426647677 954.877319295293 L 1039.808480382173 954.5069362910591 L 1039.881242878111 954.1411345216846 L 1039.9824815475981 953.7821692767192 L 1040.1115722205714 953.432253696266 L 1040.2677190101053 953.0935451262374 L 1040.449959219318 952.7681318175995 L 1040.657169276719 952.458020051611 L 1040.8880716633998 952.1651217704318 L 1041.1412427893638 951.8912427893641 L 1041.4151217704316 951.6380716634001 L 1041.7080200516107 951.4071692767192 L 1042.0181318175992 951.1999592193183 L 1042.3435451262371 951.0177190101055 L 1042.682253696266 950.8615722205716 L 1043.032169276719 950.7324815475982 L 1043.3911345216845 950.6312428781113 L 1043.756936291059 950.5584803821733 L 1044.1273192952929 950.5146426647678 L 1044.5 950.5000000000002 L 1044.8726807047074 950.5146426647678 L 1045.243063708941 950.5584803821733 L 1045.6088654783155 950.6312428781113 L 1045.967830723281 950.7324815475982 L 1046.317746303734 950.8615722205716 L 1046.6564548737629 951.0177190101055 L 1046.9818681824008 951.1999592193183 L 1047.2919799483893 951.4071692767193 L 1047.5848782295684 951.6380716634001 L 1047.8587572106362 951.8912427893641 L 1048.1119283366002 952.1651217704319 L 1048.342830723281 952.458020051611 L 1048.550040780682 952.7681318175995 L 1048.7322809898947 953.0935451262375 L 1048.8884277794286 953.4322536962661 L 1049.017518452402 953.7821692767193 L 1049.118757121889 954.1411345216848 L 1049.191519617827 954.5069362910592 L 1049.2353573352323 954.877319295293 Z" stroke-opacity="1" stroke-miterlimit="10" stroke-width="1.25"/><path fill="rgb(158,202,225)" stroke="rgb(85,85,85)" paint-order="fill stroke markers" d="" fill-opacity="1" stroke-opacity="1" stroke-miterlimit="10" stroke-width="1.25"/><text fill="rgb(0,0,0)" stroke="none" font-family="Helvetica" font-size="14px" font-style="normal" font-weight="normal" text-decoration="normal" x="1060" y="979.7500000000002" text-anchor="middle" dominant-baseline="text-after-edge" fill-opacity="1">Ca++</text><path fill="rgb(158,202,225)" stroke="rgb(85,85,85)" paint-order="fill stroke markers" d=" M 717 955.2500000000002 L 717 990.2500000000002 L 787 990.2500000000002 L 787 955.2500000000002 Z" fill-opacity="1" stroke-opacity="1" stroke-miterlimit="10" stroke-width="1.25"/><path fill="rgb(158,202,225)" stroke="rgb(85,85,85)" paint-order="fill stroke markers" d="" fill-opacity="1" stroke-opacity="1" stroke-miterlimit="10" stroke-width="1.25"/><text fill="rgb(0,0,0)" stroke="none" font-family="Helvetica" font-size="11px" font-style="normal" font-weight="normal" text-decoration="normal" x="752" y="978.2500000000002" text-anchor="middle" dominant-baseline="text-after-edge" fill-opacity="1">p90RSK</text><path fill="rgb(158,202,225)" stroke="rgb(85,85,85)" paint-order="fill stroke markers" d=" M 756 1047.6666000000002 L 756 1082.6666000000002 L 826 1082.6666000000002 L 826 1047.6666000000002 Z" fill-opacity="1" stroke-opacity="1" stroke-miterlimit="10" stroke-width="1.25"/><path fill="rgb(158,202,225)" stroke="rgb(85,85,85)" paint-order="fill stroke markers" d="" fill-opacity="1" stroke-opacity="1" stroke-miterlimit="10" stroke-width="1.25"/><text fill="rgb(0,0,0)" stroke="none" font-family="Helvetica" font-size="11px" font-style="normal" font-weight="normal" text-decoration="normal" x="791" y="1070.6666000000002" text-anchor="middle" dominant-baseline="text-after-edge" fill-opacity="1">eEF2K</text><path fill="rgb(158,202,225)" stroke="rgb(85,85,85)" paint-order="fill stroke markers" d=" M 517.9999999999999 955.2500000000002 L 517.9999999999999 990.2500000000002 L 587.9999999999999 990.2500000000002 L 587.9999999999999 955.2500000000002 Z" fill-opacity="1" stroke-opacity="1" stroke-miterlimit="10" stroke-width="1.25"/><path fill="rgb(158,202,225)" stroke="rgb(85,85,85)" paint-order="fill stroke markers" d="" fill-opacity="1" stroke-opacity="1" stroke-miterlimit="10" stroke-width="1.25"/><text fill="rgb(0,0,0)" stroke="none" font-family="Helvetica" font-size="11px" font-style="normal" font-weight="normal" text-decoration="normal" x="552.9999999999999" y="978.2500000000002" text-anchor="middle" dominant-baseline="text-after-edge" fill-opacity="1">Akt</text><path fill="rgb(158,202,225)" stroke="rgb(85,85,85)" paint-order="fill stroke markers" d=" M 628 1047.6666000000002 L 628 1082.6666000000002 L 698 1082.6666000000002 L 698 1047.6666000000002 Z" fill-opacity="1" stroke-opacity="1" stroke-miterlimit="10" stroke-width="1.25"/><path fill="rgb(158,202,225)" stroke="rgb(85,85,85)" paint-order="fill stroke markers" d="" fill-opacity="1" stroke-opacity="1" stroke-miterlimit="10" stroke-width="1.25"/><text fill="rgb(0,0,0)" stroke="none" font-family="Helvetica" font-size="11px" font-style="normal" font-weight="normal" text-decoration="normal" x="663" y="1070.6666000000002" text-anchor="middle" dominant-baseline="text-after-edge" fill-opacity="1">BAD</text><path fill="rgb(158,202,225)" stroke="rgb(85,85,85)" paint-order="fill stroke markers" d=" M 503.9999999999999 866.5000000000002 L 503.9999999999999 901.5000000000002 L 573.9999999999999 901.5000000000002 L 573.9999999999999 866.5000000000002 Z" fill-opacity="1" stroke-opacity="1" stroke-miterlimit="10" stroke-width="1.25"/><path fill="rgb(158,202,225)" stroke="rgb(85,85,85)" paint-order="fill stroke markers" d="" fill-opacity="1" stroke-opacity="1" stroke-miterlimit="10" stroke-width="1.25"/><text fill="rgb(0,0,0)" stroke="none" font-family="Helvetica" font-size="11px" font-style="normal" font-weight="normal" text-decoration="normal" x="538.9999999999999" y="889.5000000000002" text-anchor="middle" dominant-baseline="text-after-edge" fill-opacity="1">JNK</text><path fill="rgb(158,202,225)" stroke="rgb(85,85,85)" paint-order="fill stroke markers" d=" M 824 955.2500000000002 L 824 990.2500000000002 L 894 990.2500000000002 L 894 955.2500000000002 Z" fill-opacity="1" stroke-opacity="1" stroke-miterlimit="10" stroke-width="1.25"/><path fill="rgb(158,202,225)" stroke="rgb(85,85,85)" paint-order="fill stroke markers" d="" fill-opacity="1" stroke-opacity="1" stroke-miterlimit="10" stroke-width="1.25"/><text fill="rgb(0,0,0)" stroke="none" font-family="Helvetica" font-size="11px" font-style="normal" font-weight="normal" text-decoration="normal" x="859" y="978.2500000000002" text-anchor="middle" dominant-baseline="text-after-edge" fill-opacity="1">MSK1</text><path fill="rgb(158,202,225)" stroke="rgb(85,85,85)" paint-order="fill stroke markers" d=" M 915.7306543498476 955.2500000000002 L 915.7306543498476 990.2500000000002 L 985.7306543498476 990.2500000000002 L 985.7306543498476 955.2500000000002 Z" fill-opacity="1" stroke-opacity="1" stroke-miterlimit="10" stroke-width="1.25"/><path fill="rgb(158,202,225)" stroke="rgb(85,85,85)" paint-order="fill stroke markers" d="" fill-opacity="1" stroke-opacity="1" stroke-miterlimit="10" stroke-width="1.25"/><text fill="rgb(0,0,0)" stroke="none" font-family="Helvetica" font-size="11px" font-style="normal" font-weight="normal" text-decoration="normal" x="950.7306543498476" y="978.2500000000002" text-anchor="middle" dominant-baseline="text-after-edge" fill-opacity="1">MSK2</text><path fill="rgb(158,202,225)" stroke="rgb(85,85,85)" paint-order="fill stroke markers" d=" M 1481 232.5 L 1481 267.5 L 1551 267.5 L 1551 232.5 Z" fill-opacity="1" stroke-opacity="1" stroke-miterlimit="10" stroke-width="1.25"/><path fill="rgb(158,202,225)" stroke="rgb(85,85,85)" paint-order="fill stroke markers" d="" fill-opacity="1" stroke-opacity="1" stroke-miterlimit="10" stroke-width="1.25"/><text fill="rgb(0,0,0)" stroke="none" font-family="Helvetica" font-size="11px" font-style="normal" font-weight="normal" text-decoration="normal" x="1516" y="255.5" text-anchor="middle" dominant-baseline="text-after-edge" fill-opacity="1">STAT</text><path fill="rgb(158,202,225)" stroke="rgb(85,85,85)" paint-order="fill stroke markers" d=" M 1119 1047.6666000000002 L 1119 1082.6666000000002 L 1189 1082.6666000000002 L 1189 1047.6666000000002 Z" fill-opacity="1" stroke-opacity="1" stroke-miterlimit="10" stroke-width="1.25"/><path fill="rgb(158,202,225)" stroke="rgb(85,85,85)" paint-order="fill stroke markers" d="" fill-opacity="1" stroke-opacity="1" stroke-miterlimit="10" stroke-width="1.25"/><text fill="rgb(0,0,0)" stroke="none" font-family="Helvetica" font-size="11px" font-style="normal" font-weight="normal" text-decoration="normal" x="1154" y="1070.6666000000002" text-anchor="middle" dominant-baseline="text-after-edge" fill-opacity="1">PKC</text><path fill="rgb(158,202,225)" stroke="rgb(85,85,85)" paint-order="fill stroke markers" d=" M 1025 866.5000000000002 L 1025 901.5000000000002 L 1095 901.5000000000002 L 1095 866.5000000000002 Z" fill-opacity="1" stroke-opacity="1" stroke-miterlimit="10" stroke-width="1.25"/><path fill="rgb(158,202,225)" stroke="rgb(85,85,85)" paint-order="fill stroke markers" d="" fill-opacity="1" stroke-opacity="1" stroke-miterlimit="10" stroke-width="1.25"/><text fill="rgb(0,0,0)" stroke="none" font-family="Helvetica" font-size="11px" font-style="normal" font-weight="normal" text-decoration="normal" x="1060" y="889.5000000000002" text-anchor="middle" dominant-baseline="text-after-edge" fill-opacity="1">PLC gamma</text><path fill="rgb(158,202,225)" stroke="rgb(85,85,85)" paint-order="fill stroke markers" d=" M 754 232.5 L 754 267.5 L 824 267.5 L 824 232.5 Z" fill-opacity="1" stroke-opacity="1" stroke-miterlimit="10" stroke-width="1.25"/><path fill="rgb(158,202,225)" stroke="rgb(85,85,85)" paint-order="fill stroke markers" d="" fill-opacity="1" stroke-opacity="1" stroke-miterlimit="10" stroke-width="1.25"/><text fill="rgb(0,0,0)" stroke="none" font-family="Helvetica" font-size="11px" font-style="normal" font-weight="normal" text-decoration="normal" x="789" y="255.5" text-anchor="middle" dominant-baseline="text-after-edge" fill-opacity="1">ErbB2</text><path fill="rgb(158,202,225)" stroke="rgb(85,85,85)" paint-order="fill stroke markers" d=" M 578 418.5000000000001 L 578 453.5000000000001 L 648 453.5000000000001 L 648 418.5000000000001 Z" fill-opacity="1" stroke-opacity="1" stroke-miterlimit="10" stroke-width="1.25"/><path fill="rgb(158,202,225)" stroke="rgb(85,85,85)" paint-order="fill stroke markers" d="" fill-opacity="1" stroke-opacity="1" stroke-miterlimit="10" stroke-width="1.25"/><text fill="rgb(0,0,0)" stroke="none" font-family="Helvetica" font-size="11px" font-style="normal" font-weight="normal" text-decoration="normal" x="613" y="441.5000000000001" text-anchor="middle" dominant-baseline="text-after-edge" fill-opacity="1">Grb2</text><path fill="rgb(158,202,225)" stroke="rgb(85,85,85)" paint-order="fill stroke markers" d=" M 401.9999999999999 1127.5000000000002 L 401.9999999999999 1162.5000000000002 L 471.9999999999999 1162.5000000000002 L 471.9999999999999 1127.5000000000002 Z" fill-opacity="1" stroke-opacity="1" stroke-miterlimit="10" stroke-width="1.25"/><path fill="rgb(158,202,225)" stroke="rgb(85,85,85)" paint-order="fill stroke markers" d="" fill-opacity="1" stroke-opacity="1" stroke-miterlimit="10" stroke-width="1.25"/><text fill="rgb(0,0,0)" stroke="none" font-family="Helvetica" font-size="11px" font-style="normal" font-weight="normal" text-decoration="normal" x="436.9999999999999" y="1150.5000000000002" text-anchor="middle" dominant-baseline="text-after-edge" fill-opacity="1">c-Jun</text><path fill="rgb(158,202,225)" stroke="rgb(85,85,85)" paint-order="fill stroke markers" d=" M 866 1127.5000000000002 L 866 1162.5000000000002 L 936 1162.5000000000002 L 936 1127.5000000000002 Z" fill-opacity="1" stroke-opacity="1" stroke-miterlimit="10" stroke-width="1.25"/><path fill="rgb(158,202,225)" stroke="rgb(85,85,85)" paint-order="fill stroke markers" d="" fill-opacity="1" stroke-opacity="1" stroke-miterlimit="10" stroke-width="1.25"/><text fill="rgb(0,0,0)" stroke="none" font-family="Helvetica" font-size="11px" font-style="normal" font-weight="normal" text-decoration="normal" x="901" y="1150.5000000000002" text-anchor="middle" dominant-baseline="text-after-edge" fill-opacity="1">CREB</text><path fill="rgb(158,202,225)" stroke="rgb(85,85,85)" paint-order="fill stroke markers" d=" M 1481 1127.5000000000002 L 1481 1162.5000000000002 L 1551 1162.5000000000002 L 1551 1127.5000000000002 Z" fill-opacity="1" stroke-opacity="1" stroke-miterlimit="10" stroke-width="1.25"/><path fill="rgb(158,202,225)" stroke="rgb(85,85,85)" paint-order="fill stroke markers" d="" fill-opacity="1" stroke-opacity="1" stroke-miterlimit="10" stroke-width="1.25"/><text fill="rgb(0,0,0)" stroke="none" font-family="Helvetica" font-size="11px" font-style="normal" font-weight="normal" text-decoration="normal" x="1516" y="1150.5000000000002" text-anchor="middle" dominant-baseline="text-after-edge" fill-opacity="1">p21</text><path fill="rgb(158,202,225)" stroke="rgb(85,85,85)" paint-order="fill stroke markers" d=" M 484.00534157646575 516.1667000000001 L 484.00534157646575 551.1667000000001 L 554.0053415764658 551.1667000000001 L 554.0053415764658 516.1667000000001 Z" fill-opacity="0.5" stroke-opacity="1" stroke-miterlimit="10" stroke-width="1.25"/><path fill="#ffffff" stroke="rgb(85,85,85)" paint-order="fill stroke markers" d=" M 524.0053415764658 516.1667000000001 L 523.9591015824627 516.6374545743672 L 523.8206666853928 517.1053067902415 L 523.5908903824309 517.5673721831355 L 523.2711893208931 518.0208019662498 L 522.8635345641351 518.4628005941906 L 522.3704394392913 518.8906429984374 L 521.7949440417772 519.3016913882958 L 521.1405964920899 519.693411513755 L 520.4114310604663 520.0633882899812 L 519.6119432942639 520.4093406871194 L 518.7470623014185 520.7291357936003 L 517.8221203608529 521.0208019662498 L 516.842820047205 521.2825409861247 L 515.8151990725589 521.5127391451304 L 514.7455930619421 521.7099771950678 L 513.6405964920899 521.873039097771 L 512.5070220343043 522.0009195223862 L 511.3518585520692 522.092830043571 L 510.1822280123834 522.1482040023989 L 509.00534157646575 522.1667000000001 L 507.8284551405481 522.1482040023989 L 506.6588246008623 522.092830043571 L 505.5036611186272 522.0009195223862 L 504.37008666084154 521.873039097771 L 503.2650900909894 521.7099771950678 L 502.1954840803726 521.5127391451304 L 501.1678631057265 521.2825409861247 L 500.18856279207864 521.0208019662498 L 499.263620851513 520.7291357936003 L 498.39873985866757 520.4093406871194 L 497.5992520924653 520.0633882899812 L 496.87008666084154 519.693411513755 L 496.2157391111544 519.3016913882958 L 495.64024371364025 518.8906429984374 L 495.1471485887964 518.4628005941906 L 494.7394938320385 518.0208019662498 L 494.4197927705006 517.5673721831355 L 494.19001646753867 517.1053067902415 L 494.05158157046884 516.6374545743672 L 494.00534157646575 516.1667000000001 L 494.05158157046884 515.695945425633 L 494.19001646753867 515.2280932097588 L 494.4197927705006 514.7660278168647 L 494.7394938320384 514.3125980337504 L 495.1471485887964 513.8705994058096 L 495.64024371364025 513.4427570015629 L 496.2157391111544 513.0317086117044 L 496.87008666084154 512.6399884862452 L 497.5992520924653 512.270011710019 L 498.3987398586675 511.92405931288084 L 499.263620851513 511.60426420639993 L 500.18856279207864 511.3125980337504 L 501.1678631057265 511.05085901387554 L 502.1954840803726 510.8206608548699 L 503.2650900909894 510.6234228049324 L 504.37008666084154 510.4603609022292 L 505.5036611186272 510.33248047761407 L 506.6588246008623 510.2405699564293 L 507.8284551405481 510.18519599760134 L 509.0053415764658 510.1667000000001 L 510.18222801238346 510.18519599760134 L 511.3518585520693 510.2405699564293 L 512.5070220343044 510.33248047761407 L 513.64059649209 510.4603609022292 L 514.7455930619421 510.6234228049324 L 515.815199072559 510.8206608548699 L 516.8428200472051 511.0508590138756 L 517.822120360853 511.3125980337504 L 518.7470623014186 511.60426420639993 L 519.611943294264 511.92405931288084 L 520.4114310604663 512.270011710019 L 521.14059649209 512.6399884862453 L 521.7949440417772 513.0317086117044 L 522.3704394392913 513.4427570015629 L 522.8635345641351 513.8705994058096 L 523.2711893208931 514.3125980337505 L 523.590890382431 514.7660278168647 L 523.8206666853929 515.2280932097588 L 523.9591015824627 515.6959454256331 Z" stroke-opacity="1" stroke-miterlimit="10" stroke-width="1.25"/><path fill="rgb(158,202,225)" stroke="rgb(85,85,85)" paint-order="fill stroke markers" d="" fill-opacity="0.5" stroke-opacity="1" stroke-miterlimit="10" stroke-width="1.25"/><text fill="rgb(0,0,0)" stroke="none" font-family="Helvetica" font-size="11px" font-style="normal" font-weight="normal" text-decoration="normal" x="519.0053415764658" y="539.1667000000001" text-anchor="middle" dominant-baseline="text-after-edge" fill-opacity="1">Spry</text><path fill="rgb(158,202,225)" stroke="rgb(85,85,85)" paint-order="fill stroke markers" d=" M 503.9999999999999 772.5000000000002 L 503.9999999999999 807.5000000000002 L 573.9999999999999 807.5000000000002 L 573.9999999999999 772.5000000000002 Z" fill-opacity="0.5" stroke-opacity="1" stroke-miterlimit="10" stroke-width="1.25"/><path fill="#ffffff" stroke="rgb(85,85,85)" paint-order="fill stroke markers" d=" M 536.4999999999999 772.5000000000002 L 536.4768800029983 773.088443217959 L 536.4076625544634 773.673258487802 L 536.2927744029824 774.2508402289195 L 536.1329238722135 774.8176274578124 L 535.9290964938345 775.3701257427384 L 535.6825489314126 775.9049287480468 L 535.3948012326556 776.4187392353698 L 535.067627457812 776.9083893921937 L 534.7030447420001 777.3708603624766 L 534.303300858899 777.8033008588993 L 533.8708603624763 778.2030447420004 L 533.4083893921934 778.5676274578124 L 532.9187392353695 778.8948012326559 L 532.4049287480465 779.182548931413 L 531.8701257427381 779.4290964938349 L 531.317627457812 779.6329238722138 L 530.7508402289192 779.7927744029828 L 530.1732584878016 779.9076625544637 L 529.5884432179587 779.9768800029987 L 528.9999999999999 780.0000000000002 L 528.4115567820411 779.9768800029987 L 527.8267415121982 779.9076625544637 L 527.2491597710806 779.7927744029828 L 526.6823725421877 779.6329238722138 L 526.1298742572617 779.4290964938349 L 525.5950712519533 779.182548931413 L 525.0812607646303 778.8948012326559 L 524.5916106078064 778.5676274578124 L 524.1291396375235 778.2030447420004 L 523.6966991411008 777.8033008588993 L 523.2969552579997 777.3708603624766 L 522.9323725421877 776.9083893921937 L 522.6051987673442 776.4187392353698 L 522.3174510685872 775.9049287480468 L 522.0709035061652 775.3701257427384 L 521.8670761277863 774.8176274578124 L 521.7072255970173 774.2508402289195 L 521.5923374455364 773.673258487802 L 521.5231199970015 773.088443217959 L 521.4999999999999 772.5000000000002 L 521.5231199970015 771.9115567820414 L 521.5923374455364 771.3267415121985 L 521.7072255970173 770.7491597710809 L 521.8670761277863 770.1823725421881 L 522.0709035061652 769.629874257262 L 522.3174510685872 769.0950712519536 L 522.6051987673442 768.5812607646307 L 522.9323725421877 768.0916106078067 L 523.2969552579997 767.6291396375238 L 523.6966991411008 767.1966991411011 L 524.1291396375235 766.796955258 L 524.5916106078064 766.4323725421881 L 525.0812607646303 766.1051987673445 L 525.5950712519533 765.8174510685875 L 526.1298742572617 765.5709035061656 L 526.6823725421877 765.3670761277866 L 527.2491597710806 765.2072255970177 L 527.8267415121982 765.0923374455367 L 528.4115567820411 765.0231199970018 L 528.9999999999999 765.0000000000002 L 529.5884432179588 765.0231199970018 L 530.1732584878016 765.0923374455367 L 530.7508402289192 765.2072255970177 L 531.317627457812 765.3670761277866 L 531.8701257427381 765.5709035061656 L 532.4049287480465 765.8174510685875 L 532.9187392353696 766.1051987673445 L 533.4083893921935 766.4323725421882 L 533.8708603624763 766.796955258 L 534.303300858899 767.1966991411011 L 534.7030447420002 767.6291396375238 L 535.067627457812 768.0916106078067 L 535.3948012326556 768.5812607646307 L 535.6825489314127 769.0950712519536 L 535.9290964938345 769.6298742572621 L 536.1329238722136 770.1823725421882 L 536.2927744029824 770.749159771081 L 536.4076625544634 771.3267415121986 L 536.4768800029983 771.9115567820414 Z" stroke-opacity="1" stroke-miterlimit="10" stroke-width="1.25"/><path fill="rgb(158,202,225)" stroke="rgb(85,85,85)" paint-order="fill stroke markers" d="" fill-opacity="0.5" stroke-opacity="1" stroke-miterlimit="10" stroke-width="1.25"/><text fill="rgb(0,0,0)" stroke="none" font-family="Helvetica" font-size="11px" font-style="normal" font-weight="normal" text-decoration="normal" x="538.9999999999999" y="795.5000000000002" text-anchor="middle" dominant-baseline="text-after-edge" fill-opacity="1">PI3,4,5P3</text><path fill="rgb(158,202,225)" stroke="rgb(85,85,85)" paint-order="fill stroke markers" d=" M 1025 104.5 L 1025 139.5 L 1095 139.5 L 1095 104.5 Z" fill-opacity="1" stroke-opacity="1" stroke-miterlimit="10" stroke-width="1.25"/><path fill="rgb(158,202,225)" stroke="rgb(85,85,85)" paint-order="fill stroke markers" d="" fill-opacity="1" stroke-opacity="1" stroke-miterlimit="10" stroke-width="1.25"/><text fill="rgb(0,0,0)" stroke="none" font-family="Helvetica" font-size="11px" font-style="normal" font-weight="normal" text-decoration="normal" x="1060" y="127.5" text-anchor="middle" dominant-baseline="text-after-edge" fill-opacity="1">EGF</text><path fill="rgb(158,202,225)" stroke="rgb(85,85,85)" paint-order="fill stroke markers" d=" M 1025 198.6901444779761 L 1025 233.6901444779761 L 1095 233.6901444779761 L 1095 198.6901444779761 Z" fill-opacity="1" stroke-opacity="1" stroke-miterlimit="10" stroke-width="1.25"/><path fill="rgb(158,202,225)" stroke="rgb(85,85,85)" paint-order="fill stroke markers" d="" fill-opacity="1" stroke-opacity="1" stroke-miterlimit="10" stroke-width="1.25"/><text fill="rgb(0,0,0)" stroke="none" font-family="Helvetica" font-size="11px" font-style="normal" font-weight="normal" text-decoration="normal" x="1060" y="221.6901444779761" text-anchor="middle" dominant-baseline="text-after-edge" fill-opacity="1">EFGR</text><g transform="scale(1,1) translate(355.375,102.875)"/></g></svg>