<svg version="1.1" xmlns="http://www.w3.org/2000/svg" xmlns:xlink="http://www.w3.org/1999/xlink" width="914" height="409"><defs/><g transform="translate(65.57245709793577,-34.358230779999516) scale(1,1)"><path fill="none" stroke="rgb(85,85,85)" paint-order="fill stroke markers" d=" M 88.32469771707692 71.48323077999953 L 88.32469771707692 117.56943169957628" stroke-opacity="1" stroke-linejoin="round" stroke-miterlimit="10" stroke-width="1.25"/><path fill="rgb(255,255,255)" stroke="rgb(255,255,255)" paint-order="fill stroke markers" d=" M 93.76219771707692 115.25693169957628 A 5.4375 5.4375 0 1 1 93.76219499832715 115.25149420048253 Z" fill-opacity="1" stroke-opacity="1" stroke-miterlimit="10"/><path fill="none" stroke="rgb(85,85,85)" paint-order="fill stroke markers" d=" M 93.76219771707692 115.25693169957628 A 5.4375 5.4375 0 1 1 93.76219499832715 115.25149420048253 Z" stroke-opacity="1" stroke-miterlimit="10"/><path fill="none" stroke="rgb(85,85,85)" paint-order="fill stroke markers" d=" M 30.364157995883986 128.283717413862 L 77.69969771707692 128.283717413862" stroke-opacity="1" stroke-linejoin="round" stroke-miterlimit="10" stroke-width="1.25"/><path fill="none" stroke="rgb(85,85,85)" paint-order="fill stroke markers" d=" M 98.94969771707692 128.283717413862 L 143.16023743826983 128.283717413862" stroke-opacity="1" stroke-linejoin="round" stroke-miterlimit="10" stroke-width="1.25"/><path fill="rgb(85,85,85)" stroke="none" paint-order="stroke fill markers" d=" M 135.41023743826983 133.721217413862 L 146.28523743826983 128.283717413862 L 135.41023743826983 122.84621741386201 Z" fill-opacity="1"/><path fill="none" stroke="rgb(85,85,85)" paint-order="fill stroke markers" d=" M 20.742241299753502 173.47990836201072 L 77.69969771707692 128.283717413862" stroke-opacity="1" stroke-linejoin="round" stroke-miterlimit="10" stroke-width="1.25"/><path fill="none" stroke="rgb(85,85,85)" paint-order="fill stroke markers" d=" M 98.94969771707692 128.283717413862 L 152.82598636853953 171.690628829439" stroke-opacity="1" stroke-linejoin="round" stroke-miterlimit="10" stroke-width="1.25"/><path fill="rgb(85,85,85)" stroke="none" paint-order="stroke fill markers" d=" M 143.5248141479802 170.9114206799223 L 155.41858617790513 173.43534978950035 L 150.3014662476126 162.40597469981358 Z" fill-opacity="1"/><path fill="none" stroke="rgb(85,85,85)" paint-order="fill stroke markers" d=" M 431.66013079960703 128.283717413862 L 488.16105991623 171.9686512500855" stroke-opacity="1" stroke-linejoin="round" stroke-miterlimit="10" stroke-width="1.25"/><path fill="rgb(85,85,85)" stroke="none" paint-order="stroke fill markers" d=" M 478.8393337337031 171.38265770986183 L 490.7802494275753 173.6731955597644 L 485.44813029117404 162.74614029472508 Z" fill-opacity="1"/><path fill="none" stroke="rgb(85,85,85)" paint-order="fill stroke markers" d=" M 351.27085401599305 173.67487946307577 L 410.41013079960703 128.283717413862" stroke-opacity="1" stroke-linejoin="round" stroke-miterlimit="10" stroke-width="1.25"/><path fill="none" stroke="rgb(85,85,85)" paint-order="fill stroke markers" d=" M 196.28523743826983 128.283717413862 L 242.26076831157434 128.283717413862" stroke-opacity="1" stroke-linejoin="round" stroke-miterlimit="10" stroke-width="1.25"/><path fill="none" stroke="rgb(85,85,85)" paint-order="fill stroke markers" d=" M 263.51076831157434 128.283717413862 L 309.08131688065566 128.283717413862" stroke-opacity="1" stroke-linejoin="round" stroke-miterlimit="10" stroke-width="1.25"/><path fill="rgb(85,85,85)" stroke="none" paint-order="stroke fill markers" d=" M 301.33131688065566 133.721217413862 L 312.20631688065566 128.283717413862 L 301.33131688065566 122.84621741386201 Z" fill-opacity="1"/><path fill="none" stroke="rgb(85,85,85)" paint-order="fill stroke markers" d=" M 362.20631688065566 128.283717413862 L 410.41013079960703 128.283717413862" stroke-opacity="1" stroke-linejoin="round" stroke-miterlimit="10" stroke-width="1.25"/><path fill="none" stroke="rgb(85,85,85)" paint-order="fill stroke markers" d=" M 431.66013079960703 128.283717413862 L 478.1608513347395 128.283717413862" stroke-opacity="1" stroke-linejoin="round" stroke-miterlimit="10" stroke-width="1.25"/><path fill="rgb(85,85,85)" stroke="none" paint-order="stroke fill markers" d=" M 470.4108513347395 133.721217413862 L 481.2858513347395 128.283717413862 L 470.4108513347395 122.84621741386201 Z" fill-opacity="1"/><path fill="none" stroke="rgb(85,85,85)" paint-order="fill stroke markers" d=" M 704.8671557881256 128.283717413862 L 705.2726236849584 173.49403950310491" stroke-opacity="1" stroke-linejoin="round" stroke-miterlimit="10" stroke-width="1.25"/><path fill="rgb(85,85,85)" stroke="none" paint-order="stroke fill markers" d=" M 699.2837360607842 165.59940988750589 L 704.5836188917689 176.54213684324384 L 710.1578707577684 165.73659440501334 Z" fill-opacity="1"/><path fill="none" stroke="rgb(85,85,85)" paint-order="fill stroke markers" d=" M 774.2899455213721 127.96126528909781 L 729.2421087966899 128.20831149157934" stroke-opacity="1" stroke-linejoin="round" stroke-miterlimit="10" stroke-width="1.25"/><path fill="rgb(255,255,255)" stroke="rgb(255,255,255)" paint-order="fill stroke markers" d=" M 736.9920740230274 128.19562973382858 A 5.4375 5.4375 0 1 1 736.9920713042776 128.19019223473484 Z" fill-opacity="1" stroke-opacity="1" stroke-miterlimit="10"/><path fill="none" stroke="rgb(85,85,85)" paint-order="fill stroke markers" d=" M 736.9920740230274 128.19562973382858 A 5.4375 5.4375 0 1 1 736.9920713042776 128.19019223473484 Z" stroke-opacity="1" stroke-miterlimit="10"/><path fill="none" stroke="rgb(85,85,85)" paint-order="fill stroke markers" d=" M 531.2858513347395 128.283717413862 L 580.9132207947347 128.283717413862" stroke-opacity="1" stroke-linejoin="round" stroke-miterlimit="10" stroke-width="1.25"/><path fill="none" stroke="rgb(85,85,85)" paint-order="fill stroke markers" d=" M 602.1632207947347 128.283717413862 L 682.6761026666984 65.72175059052856" stroke-opacity="1" stroke-linejoin="round" stroke-miterlimit="10" stroke-width="1.25"/><path fill="rgb(85,85,85)" stroke="none" paint-order="stroke fill markers" d=" M 679.9731548593895 74.90583284890174 L 685.2524910842401 63.9531783635735 L 673.3227657610672 66.30130207489 Z" fill-opacity="1"/><path fill="none" stroke="rgb(85,85,85)" paint-order="fill stroke markers" d=" M 602.1632207947347 128.283717413862 L 682.0308393010595 183.34602315877993" stroke-opacity="1" stroke-linejoin="round" stroke-miterlimit="10" stroke-width="1.25"/><path fill="rgb(85,85,85)" stroke="none" paint-order="stroke fill markers" d=" M 672.65630661929 183.30607176506587 L 684.7004738697051 184.9704234388502 L 678.8054548584835 174.33647863424753 Z" fill-opacity="1"/><path fill="none" stroke="rgb(85,85,85)" paint-order="fill stroke markers" d=" M 253.25899499181736 71.48323077999953 L 252.95616968218533 117.5694991597125" stroke-opacity="1" stroke-linejoin="round" stroke-miterlimit="10" stroke-width="1.25"/><path fill="rgb(255,255,255)" stroke="rgb(255,255,255)" paint-order="fill stroke markers" d=" M 258.40886441232846 115.2570490802133 A 5.4375 5.4375 0 1 1 258.4088616935787 115.25161158111955 Z" fill-opacity="1" stroke-opacity="1" stroke-miterlimit="10"/><path fill="none" stroke="rgb(85,85,85)" paint-order="fill stroke markers" d=" M 258.40886441232846 115.2570490802133 A 5.4375 5.4375 0 1 1 258.4088616935787 115.25161158111955 Z" stroke-opacity="1" stroke-miterlimit="10"/><path fill="none" stroke="rgb(85,85,85)" paint-order="fill stroke markers" d=" M 418.8450700815047 71.48323077999953 L 420.6221087278667 117.57175200054542" stroke-opacity="1" stroke-linejoin="round" stroke-miterlimit="10" stroke-width="1.25"/><path fill="rgb(255,255,255)" stroke="rgb(255,255,255)" paint-order="fill stroke markers" d=" M 425.9705116914411 115.26096902326256 A 5.4375 5.4375 0 1 1 425.97050897269133 115.2555315241688 Z" fill-opacity="1" stroke-opacity="1" stroke-miterlimit="10"/><path fill="none" stroke="rgb(85,85,85)" paint-order="fill stroke markers" d=" M 425.9705116914411 115.26096902326256 A 5.4375 5.4375 0 1 1 425.97050897269133 115.2555315241688 Z" stroke-opacity="1" stroke-miterlimit="10"/><path fill="none" stroke="rgb(85,85,85)" paint-order="fill stroke markers" d=" M 591.5382207947348 71.4832307799995 L 591.5382207947347 117.5694316995763" stroke-opacity="1" stroke-linejoin="round" stroke-miterlimit="10" stroke-width="1.25"/><path fill="rgb(255,255,255)" stroke="rgb(255,255,255)" paint-order="fill stroke markers" d=" M 596.9757207947347 115.2569316995763 A 5.4375 5.4375 0 1 1 596.9757180759849 115.25149420048254 Z" fill-opacity="1" stroke-opacity="1" stroke-miterlimit="10"/><path fill="none" stroke="rgb(85,85,85)" paint-order="fill stroke markers" d=" M 596.9757207947347 115.2569316995763 A 5.4375 5.4375 0 1 1 596.9757180759849 115.25149420048254 Z" stroke-opacity="1" stroke-miterlimit="10"/><path fill="none" stroke="rgb(85,85,85)" paint-order="fill stroke markers" d=" M 775.4300198297399 268.13747473904266 L 711.2189962303728 268.13747473904266" stroke-opacity="1" stroke-linejoin="round" stroke-miterlimit="10" stroke-width="1.25"/><path fill="rgb(255,255,255)" stroke="rgb(255,255,255)" paint-order="fill stroke markers" d=" M 718.9689962303728 268.13747473904266 A 5.4375 5.4375 0 1 1 718.968993511623 268.1320372399489 Z" fill-opacity="1" stroke-opacity="1" stroke-miterlimit="10"/><path fill="none" stroke="rgb(85,85,85)" paint-order="fill stroke markers" d=" M 718.9689962303728 268.13747473904266 A 5.4375 5.4375 0 1 1 718.968993511623 268.1320372399489 Z" stroke-opacity="1" stroke-miterlimit="10"/><path fill="none" stroke="rgb(85,85,85)" paint-order="fill stroke markers" d=" M 700.5047105160871 213.0868730968662 L 700.5047105160871 257.51247473904266" stroke-opacity="1" stroke-linejoin="round" stroke-miterlimit="10" stroke-width="1.25"/><path fill="none" stroke="rgb(85,85,85)" paint-order="fill stroke markers" d=" M 700.5047105160871 278.76247473904266 L 700.5047105160871 327.9999043390634" stroke-opacity="1" stroke-linejoin="round" stroke-miterlimit="10" stroke-width="1.25"/><path fill="rgb(85,85,85)" stroke="none" paint-order="stroke fill markers" d=" M 695.0672105160871 320.2499043390634 L 700.5047105160871 331.1249043390634 L 705.9422105160871 320.2499043390634 Z" fill-opacity="1"/><path fill="none" stroke="rgb(85,85,85)" paint-order="fill stroke markers" d=" M 651.8707642606824 225.51154364515853 L 700.5047105160871 257.51247473904266" stroke-opacity="1" stroke-linejoin="round" stroke-miterlimit="10" stroke-width="1.25"/><path fill="none" stroke="rgb(85,85,85)" paint-order="fill stroke markers" d=" M 744.560899454655 226.09042652760039 L 700.5047105160871 257.51247473904266" stroke-opacity="1" stroke-linejoin="round" stroke-miterlimit="10" stroke-width="1.25"/><path fill="none" stroke="rgb(85,85,85)" paint-order="fill stroke markers" d=" M 700.5047105160871 278.76247473904266 L 771.0099332393493 312.2418824466607" stroke-opacity="1" stroke-linejoin="round" stroke-miterlimit="10" stroke-width="1.25"/><path fill="rgb(85,85,85)" stroke="none" paint-order="stroke fill markers" d=" M 761.5018099773916 314.06672264371133 L 773.659275109375 313.89917320441225 L 766.2307564787458 304.273730762405 Z" fill-opacity="1"/><path fill="none" stroke="rgb(85,85,85)" paint-order="fill stroke markers" d=" M 700.5047105160871 278.76247473904266 L 756.8896400898324 348.41954087920493" stroke-opacity="1" stroke-linejoin="round" stroke-miterlimit="10" stroke-width="1.25"/><path fill="rgb(85,85,85)" stroke="none" paint-order="stroke fill markers" d=" M 747.6342036213803 345.9076988130709 L 758.6857158133815 350.97683182770436 L 756.1101149098876 339.0941422653233 Z" fill-opacity="1"/><path fill="none" stroke="rgb(85,85,85)" paint-order="fill stroke markers" d=" M 590.2723651417102 405.945133940345 L 590.2723651417102 360.3391900533491" stroke-opacity="1" stroke-linejoin="round" stroke-miterlimit="10" stroke-width="1.25"/><path fill="rgb(255,255,255)" stroke="rgb(255,255,255)" paint-order="fill stroke markers" d=" M 595.7098651417102 362.6516900533491 A 5.4375 5.4375 0 1 1 595.7098624229604 362.64625255425534 Z" fill-opacity="1" stroke-opacity="1" stroke-miterlimit="10"/><path fill="none" stroke="rgb(85,85,85)" paint-order="fill stroke markers" d=" M 595.7098651417102 362.6516900533491 A 5.4375 5.4375 0 1 1 595.7098624229604 362.64625255425534 Z" stroke-opacity="1" stroke-miterlimit="10"/><path fill="none" stroke="rgb(85,85,85)" paint-order="fill stroke markers" d=" M 404.15863622787424 405.945133940345 L 404.15863622787424 360.3391900533491" stroke-opacity="1" stroke-linejoin="round" stroke-miterlimit="10" stroke-width="1.25"/><path fill="rgb(255,255,255)" stroke="rgb(255,255,255)" paint-order="fill stroke markers" d=" M 409.59613622787424 362.6516900533491 A 5.4375 5.4375 0 1 1 409.59613350912446 362.64625255425534 Z" fill-opacity="1" stroke-opacity="1" stroke-miterlimit="10"/><path fill="none" stroke="rgb(85,85,85)" paint-order="fill stroke markers" d=" M 409.59613622787424 362.6516900533491 A 5.4375 5.4375 0 1 1 409.59613350912446 362.64625255425534 Z" stroke-opacity="1" stroke-miterlimit="10"/><path fill="none" stroke="rgb(85,85,85)" paint-order="fill stroke markers" d=" M 252.88576831157434 405.945133940345 L 252.88576831157434 360.3391900533491" stroke-opacity="1" stroke-linejoin="round" stroke-miterlimit="10" stroke-width="1.25"/><path fill="rgb(255,255,255)" stroke="rgb(255,255,255)" paint-order="fill stroke markers" d=" M 258.32326831157434 362.6516900533491 A 5.4375 5.4375 0 1 1 258.32326559282455 362.64625255425534 Z" fill-opacity="1" stroke-opacity="1" stroke-miterlimit="10"/><path fill="none" stroke="rgb(85,85,85)" paint-order="fill stroke markers" d=" M 258.32326831157434 362.6516900533491 A 5.4375 5.4375 0 1 1 258.32326559282455 362.64625255425534 Z" stroke-opacity="1" stroke-miterlimit="10"/><path fill="none" stroke="rgb(85,85,85)" paint-order="fill stroke markers" d=" M 50.94894667060328 405.945133940345 L 50.254734848427255 360.33882807817764" stroke-opacity="1" stroke-linejoin="round" stroke-miterlimit="10" stroke-width="1.25"/><path fill="rgb(255,255,255)" stroke="rgb(255,255,255)" paint-order="fill stroke markers" d=" M 55.727431272599944 362.6510602165507 A 5.4375 5.4375 0 1 1 55.72742855385017 362.64562271745694 Z" fill-opacity="1" stroke-opacity="1" stroke-miterlimit="10"/><path fill="none" stroke="rgb(85,85,85)" paint-order="fill stroke markers" d=" M 55.727431272599944 362.6510602165507 A 5.4375 5.4375 0 1 1 55.72742855385017 362.64562271745694 Z" stroke-opacity="1" stroke-miterlimit="10"/><path fill="none" stroke="rgb(85,85,85)" paint-order="fill stroke markers" d=" M 675.5047105160871 349.6249043390634 L 600.8973651417102 349.6249043390634" stroke-opacity="1" stroke-linejoin="round" stroke-miterlimit="10" stroke-width="1.25"/><path fill="none" stroke="rgb(85,85,85)" paint-order="fill stroke markers" d=" M 630.5119405796297 307.42939992891945 L 600.8973651417102 349.6249043390634" stroke-opacity="1" stroke-linejoin="round" stroke-miterlimit="10" stroke-width="1.25"/><path fill="none" stroke="rgb(85,85,85)" paint-order="fill stroke markers" d=" M 579.6473651417102 349.6249043390634 L 524.6491446756188 306.0110471027614" stroke-opacity="1" stroke-linejoin="round" stroke-miterlimit="10" stroke-width="1.25"/><path fill="rgb(85,85,85)" stroke="none" paint-order="stroke fill markers" d=" M 533.9589758871202 306.7155351264388 L 522.0465198135057 304.28131624881007 L 527.2466183555714 315.27181243427896 Z" fill-opacity="1"/><path fill="none" stroke="rgb(85,85,85)" paint-order="fill stroke markers" d=" M 579.6473651417102 349.6249043390634 L 494.1038658291559 349.6249043390634" stroke-opacity="1" stroke-linejoin="round" stroke-miterlimit="10" stroke-width="1.25"/><path fill="rgb(85,85,85)" stroke="none" paint-order="stroke fill markers" d=" M 501.8538658291559 344.1874043390634 L 490.9788658291559 349.6249043390634 L 501.8538658291559 355.0624043390634 Z" fill-opacity="1"/><path fill="none" stroke="rgb(85,85,85)" paint-order="fill stroke markers" d=" M 453.9788658291559 349.6249043390634 L 414.78363622787424 349.6249043390634" stroke-opacity="1" stroke-linejoin="round" stroke-miterlimit="10" stroke-width="1.25"/><path fill="none" stroke="rgb(85,85,85)" paint-order="fill stroke markers" d=" M 393.53363622787424 349.6249043390634 L 357.38915637028003 349.6249043390634" stroke-opacity="1" stroke-linejoin="round" stroke-miterlimit="10" stroke-width="1.25"/><path fill="rgb(85,85,85)" stroke="none" paint-order="stroke fill markers" d=" M 365.13915637028003 344.1874043390634 L 354.26415637028003 349.6249043390634 L 365.13915637028003 355.0624043390634 Z" fill-opacity="1"/><path fill="none" stroke="rgb(85,85,85)" paint-order="fill stroke markers" d=" M 317.26415637028003 349.6249043390634 L 263.51076831157434 349.6249043390634" stroke-opacity="1" stroke-linejoin="round" stroke-miterlimit="10" stroke-width="1.25"/><path fill="none" stroke="rgb(85,85,85)" paint-order="fill stroke markers" d=" M 242.26076831157434 349.6249043390634 L 188.67511465279387 306.1628635070493" stroke-opacity="1" stroke-linejoin="round" stroke-miterlimit="10" stroke-width="1.25"/><path fill="rgb(85,85,85)" stroke="none" paint-order="stroke fill markers" d=" M 197.9728034644947 306.97333569525256 L 186.08720459449265 304.41119386635114 L 191.16885045337273 315.45695805969365 Z" fill-opacity="1"/><path fill="none" stroke="rgb(85,85,85)" paint-order="fill stroke markers" d=" M 242.26076831157434 349.6249043390634 L 155.02776341382432 349.6249043390634" stroke-opacity="1" stroke-linejoin="round" stroke-miterlimit="10" stroke-width="1.25"/><path fill="rgb(85,85,85)" stroke="none" paint-order="stroke fill markers" d=" M 162.77776341382432 344.1874043390634 L 151.90276341382432 349.6249043390634 L 162.77776341382432 355.0624043390634 Z" fill-opacity="1"/><path fill="none" stroke="rgb(85,85,85)" paint-order="fill stroke markers" d=" M 114.90276341382432 349.6249043390634 L 60.71664923162541 349.6249043390634" stroke-opacity="1" stroke-linejoin="round" stroke-miterlimit="10" stroke-width="1.25"/><path fill="none" stroke="rgb(85,85,85)" paint-order="fill stroke markers" d=" M 90.72505928529361 307.37533050995296 L 60.716649231625404 349.6249043390634" stroke-opacity="1" stroke-linejoin="round" stroke-miterlimit="10" stroke-width="1.25"/><path fill="none" stroke="rgb(85,85,85)" paint-order="fill stroke markers" d=" M 39.466649231625404 349.6249043390634 L 4.039767510003706 308.4542103584478" stroke-opacity="1" stroke-linejoin="round" stroke-miterlimit="10" stroke-width="1.25"/><path fill="rgb(85,85,85)" stroke="none" paint-order="stroke fill markers" d=" M 12.972996048446241 310.95158812622503 L 1.7100433957093344 306.3714212305534 L 4.803681470814142 318.1298834901459 Z" fill-opacity="1"/><path fill="none" stroke="rgb(85,85,85)" paint-order="fill stroke markers" d=" M 39.46664923162541 349.6249043390634 L -11.822457097935775 349.6249043390634" stroke-opacity="1" stroke-linejoin="round" stroke-miterlimit="10" stroke-width="1.25"/><path fill="rgb(85,85,85)" stroke="none" paint-order="stroke fill markers" d=" M -4.072457097935775 344.1874043390634 L -14.947457097935775 349.6249043390634 L -4.072457097935775 355.0624043390634 Z" fill-opacity="1"/><path fill="none" stroke="rgb(85,85,85)" paint-order="fill stroke markers" d=" M 704.8671557881256 128.283717413862 L 704.7531757868935 74.68679575956726" stroke-opacity="1" stroke-linejoin="round" stroke-miterlimit="10" stroke-width="1.25"/><path fill="rgb(85,85,85)" stroke="none" paint-order="stroke fill markers" d=" M 709.7692436243065 82.39929374318855 L 704.1392357188579 71.6226967740806 L 698.8959628868407 82.59266127990422 Z" fill-opacity="1"/><path fill="rgb(255,255,255)" stroke="rgb(85,85,85)" paint-order="fill stroke markers" d=" M 88.32469771707692 35.98323077999954 L 115.32469771707692 35.98323077999954 L 115.32469771707692 35.98323077999954 A 8 8 0 0 1 123.32469771707692 43.98323077999954 L 123.32469771707692 62.98323077999953 L 123.32469771707692 62.98323077999953 A 8 8 0 0 1 115.32469771707692 70.98323077999953 L 61.324697717076916 70.98323077999953 L 61.324697717076916 70.98323077999953 A 8 8 0 0 1 53.324697717076916 62.98323077999953 L 53.324697717076916 43.98323077999954 L 53.324697717076916 43.98323077999954 A 8 8 0 0 1 61.324697717076916 35.98323077999954 L 88.32469771707692 35.98323077999954 Z" fill-opacity="0.5" stroke-opacity="1" stroke-miterlimit="10" stroke-width="1.25"/><path fill="rgb(255,255,255)" stroke="rgb(85,85,85)" paint-order="fill stroke markers" d="" fill-opacity="0.5" stroke-opacity="1" stroke-miterlimit="10" stroke-width="1.25"/><text fill="rgb(0,0,0)" stroke="none" font-family="Helvetica" font-size="11px" font-style="normal" font-weight="normal" text-decoration="normal" x="88.32469771707692" y="58.98323077999954" text-anchor="middle" dominant-baseline="text-after-edge" fill-opacity="1">hexokinase</text><path fill="rgb(255,255,255)" stroke="rgb(85,85,85)" paint-order="fill stroke markers" d=" M 5.364157995883986 110.78371741386201 L 11.864157995883986 110.78371741386201 L 11.864157995883987 110.78371741386201 A 17.5 17.5 0 0 1 29.364157995883986 128.283717413862 L 29.364157995883986 128.283717413862 L 29.364157995883986 128.283717413862 A 17.5 17.5 0 0 1 11.864157995883987 145.783717413862 L -1.1358420041160144 145.783717413862 L -1.1358420041160133 145.783717413862 A 17.5 17.5 0 0 1 -18.635842004116014 128.283717413862 L -18.635842004116014 128.283717413862 L -18.635842004116014 128.283717413862 A 17.5 17.5 0 0 1 -1.1358420041160133 110.78371741386201 L 5.364157995883986 110.78371741386201 Z" fill-opacity="0.5" stroke-opacity="1" stroke-miterlimit="10" stroke-width="1.25"/><path fill="rgb(255,255,255)" stroke="rgb(85,85,85)" paint-order="fill stroke markers" d="" fill-opacity="0.5" stroke-opacity="1" stroke-miterlimit="10" stroke-width="1.25"/><text fill="rgb(0,0,0)" stroke="none" font-family="Helvetica" font-size="11px" font-style="normal" font-weight="normal" text-decoration="normal" x="5.364157995883986" y="133.783717413862" text-anchor="middle" dominant-baseline="text-after-edge" fill-opacity="1">glucose</text><path fill="rgb(255,255,255)" stroke="rgb(85,85,85)" paint-order="fill stroke markers" d=" M 5.364157995883986 166.26409787306358 L 5.364157995883986 166.26409787306358 L 5.3641579958839865 166.26409787306358 A 17.5 17.5 0 0 1 22.864157995883986 183.76409787306358 L 22.864157995883986 183.76409787306358 L 22.864157995883986 183.76409787306358 A 17.5 17.5 0 0 1 5.3641579958839865 201.26409787306358 L 5.364157995883986 201.26409787306358 L 5.3641579958839865 201.26409787306358 A 17.5 17.5 0 0 1 -12.135842004116014 183.76409787306358 L -12.135842004116014 183.76409787306358 L -12.135842004116014 183.76409787306358 A 17.5 17.5 0 0 1 5.3641579958839865 166.26409787306358 L 5.364157995883986 166.26409787306358 Z" fill-opacity="0.5" stroke-opacity="1" stroke-miterlimit="10" stroke-width="1.25"/><path fill="#a9a9a9" stroke="none" paint-order="stroke fill markers" d=" M -9.358273868451471 192.26409787306358 L 5.364157995883986 192.26409787306358 L 5.3641579958839865 200.76409787306358 A 17 17 0 0 1 -9.358273868451473 192.26409787306358 Z" fill-opacity="0.5"/><path fill="#a9a9a9" stroke="none" paint-order="stroke fill markers" d=" M 5.364157995883986 192.26409787306358 L 20.08658986021944 192.26409787306358 L 20.086589860219444 192.26409787306358 A 17 17 0 0 1 5.3641579958839865 200.76409787306358 Z" fill-opacity="0.5"/><path fill="#a9a9a9" stroke="none" paint-order="stroke fill markers" d=" M 5.364157995883986 192.26409787306358 L 5.364157995883986 200.76409787306358 L 5.364157995883986 200.76409787306358 L 5.364157995883986 192.26409787306358 Z" fill-opacity="0.5"/><path fill="rgb(255,255,255)" stroke="rgb(85,85,85)" paint-order="fill stroke markers" d="" fill-opacity="0.5" stroke-opacity="1" stroke-miterlimit="10" stroke-width="1.25"/><text fill="rgb(0,0,0)" stroke="none" font-family="Helvetica" font-size="11px" font-style="normal" font-weight="normal" text-decoration="normal" x="5.364157995883986" y="189.26409787306358" text-anchor="middle" dominant-baseline="text-after-edge" fill-opacity="1">ATP</text><path fill="rgb(255,255,255)" stroke="rgb(85,85,85)" paint-order="fill stroke markers" d=" M 78.32469771707692 128.183717413862 L 81.18184057421978 128.183717413862 L 81.18184057421978 121.14086027100487 L 95.46755485993405 121.14086027100487 L 95.46755485993405 128.183717413862 L 98.32469771707692 128.183717413862 L 98.32469771707692 128.383717413862 L 95.46755485993405 128.383717413862 L 95.46755485993405 135.42657455671915 L 81.18184057421978 135.42657455671915 L 81.18184057421978 128.383717413862 L 78.32469771707692 128.383717413862 Z" fill-opacity="0.5" stroke-opacity="1" stroke-miterlimit="10" stroke-width="1.25"/><path fill="rgb(255,255,255)" stroke="rgb(85,85,85)" paint-order="fill stroke markers" d=" M 170.7667770493495 166.26409787306358 L 170.7667770493495 166.26409787306358 L 170.7667770493495 166.26409787306358 A 17.5 17.5 0 0 1 188.2667770493495 183.76409787306358 L 188.2667770493495 183.76409787306358 L 188.2667770493495 183.76409787306358 A 17.5 17.5 0 0 1 170.7667770493495 201.26409787306358 L 170.7667770493495 201.26409787306358 L 170.7667770493495 201.26409787306358 A 17.5 17.5 0 0 1 153.2667770493495 183.76409787306358 L 153.2667770493495 183.76409787306358 L 153.2667770493495 183.76409787306358 A 17.5 17.5 0 0 1 170.7667770493495 166.26409787306358 L 170.7667770493495 166.26409787306358 Z" fill-opacity="0.5" stroke-opacity="1" stroke-miterlimit="10" stroke-width="1.25"/><path fill="#a9a9a9" stroke="none" paint-order="stroke fill markers" d=" M 156.04434518501407 192.26409787306358 L 170.7667770493495 192.26409787306358 L 170.7667770493495 200.76409787306358 A 17 17 0 0 1 156.04434518501407 192.26409787306358 Z" fill-opacity="0.5"/><path fill="#a9a9a9" stroke="none" paint-order="stroke fill markers" d=" M 170.7667770493495 192.26409787306358 L 185.48920891368496 192.26409787306358 L 185.48920891368496 192.26409787306358 A 17 17 0 0 1 170.7667770493495 200.76409787306358 Z" fill-opacity="0.5"/><path fill="#a9a9a9" stroke="none" paint-order="stroke fill markers" d=" M 170.7667770493495 192.26409787306358 L 170.7667770493495 200.76409787306358 L 170.7667770493495 200.76409787306358 L 170.7667770493495 192.26409787306358 Z" fill-opacity="0.5"/><path fill="rgb(255,255,255)" stroke="rgb(85,85,85)" paint-order="fill stroke markers" d="" fill-opacity="0.5" stroke-opacity="1" stroke-miterlimit="10" stroke-width="1.25"/><text fill="rgb(0,0,0)" stroke="none" font-family="Helvetica" font-size="11px" font-style="normal" font-weight="normal" text-decoration="normal" x="170.7667770493495" y="189.26409787306358" text-anchor="middle" dominant-baseline="text-after-edge" fill-opacity="1">ADP</text><path fill="rgb(255,255,255)" stroke="rgb(85,85,85)" paint-order="fill stroke markers" d=" M 506.2858513347395 166.26409787306358 L 506.2858513347395 166.26409787306358 L 506.2858513347395 166.26409787306358 A 17.5 17.5 0 0 1 523.7858513347395 183.76409787306358 L 523.7858513347395 183.76409787306358 L 523.7858513347395 183.76409787306358 A 17.5 17.5 0 0 1 506.2858513347395 201.26409787306358 L 506.2858513347395 201.26409787306358 L 506.2858513347395 201.26409787306358 A 17.5 17.5 0 0 1 488.7858513347395 183.76409787306358 L 488.7858513347395 183.76409787306358 L 488.7858513347395 183.76409787306358 A 17.5 17.5 0 0 1 506.2858513347395 166.26409787306358 L 506.2858513347395 166.26409787306358 Z" fill-opacity="0.5" stroke-opacity="1" stroke-miterlimit="10" stroke-width="1.25"/><path fill="#a9a9a9" stroke="none" paint-order="stroke fill markers" d=" M 491.563419470404 192.26409787306358 L 506.2858513347395 192.26409787306358 L 506.2858513347395 200.76409787306358 A 17 17 0 0 1 491.563419470404 192.26409787306358 Z" fill-opacity="0.5"/><path fill="#a9a9a9" stroke="none" paint-order="stroke fill markers" d=" M 506.2858513347395 192.26409787306358 L 521.008283199075 192.26409787306358 L 521.008283199075 192.26409787306358 A 17 17 0 0 1 506.2858513347395 200.76409787306358 Z" fill-opacity="0.5"/><path fill="#a9a9a9" stroke="none" paint-order="stroke fill markers" d=" M 506.2858513347395 192.26409787306358 L 506.2858513347395 200.76409787306358 L 506.2858513347395 200.76409787306358 L 506.2858513347395 192.26409787306358 Z" fill-opacity="0.5"/><path fill="rgb(255,255,255)" stroke="rgb(85,85,85)" paint-order="fill stroke markers" d="" fill-opacity="0.5" stroke-opacity="1" stroke-miterlimit="10" stroke-width="1.25"/><text fill="rgb(0,0,0)" stroke="none" font-family="Helvetica" font-size="11px" font-style="normal" font-weight="normal" text-decoration="normal" x="506.2858513347395" y="189.26409787306358" text-anchor="middle" dominant-baseline="text-after-edge" fill-opacity="1">ADP</text><path fill="rgb(255,255,255)" stroke="rgb(85,85,85)" paint-order="fill stroke markers" d=" M 335.76415637028 166.26409787306358 L 335.76415637028 166.26409787306358 L 335.76415637028 166.26409787306358 A 17.5 17.5 0 0 1 353.26415637028 183.76409787306358 L 353.26415637028 183.76409787306358 L 353.26415637028 183.76409787306358 A 17.5 17.5 0 0 1 335.76415637028 201.26409787306358 L 335.76415637028 201.26409787306358 L 335.76415637028 201.26409787306358 A 17.5 17.5 0 0 1 318.26415637028 183.76409787306358 L 318.26415637028 183.76409787306358 L 318.26415637028 183.76409787306358 A 17.5 17.5 0 0 1 335.76415637028 166.26409787306358 L 335.76415637028 166.26409787306358 Z" fill-opacity="0.5" stroke-opacity="1" stroke-miterlimit="10" stroke-width="1.25"/><path fill="#a9a9a9" stroke="none" paint-order="stroke fill markers" d=" M 321.0417245059445 192.26409787306358 L 335.76415637028 192.26409787306358 L 335.76415637028 200.76409787306358 A 17 17 0 0 1 321.0417245059445 192.26409787306358 Z" fill-opacity="0.5"/><path fill="#a9a9a9" stroke="none" paint-order="stroke fill markers" d=" M 335.76415637028 192.26409787306358 L 350.48658823461545 192.26409787306358 L 350.48658823461545 192.26409787306358 A 17 17 0 0 1 335.76415637028 200.76409787306358 Z" fill-opacity="0.5"/><path fill="#a9a9a9" stroke="none" paint-order="stroke fill markers" d=" M 335.76415637028 192.26409787306358 L 335.76415637028 200.76409787306358 L 335.76415637028 200.76409787306358 L 335.76415637028 192.26409787306358 Z" fill-opacity="0.5"/><path fill="rgb(255,255,255)" stroke="rgb(85,85,85)" paint-order="fill stroke markers" d="" fill-opacity="0.5" stroke-opacity="1" stroke-miterlimit="10" stroke-width="1.25"/><text fill="rgb(0,0,0)" stroke="none" font-family="Helvetica" font-size="11px" font-style="normal" font-weight="normal" text-decoration="normal" x="335.76415637028" y="189.26409787306358" text-anchor="middle" dominant-baseline="text-after-edge" fill-opacity="1">ATP</text><path fill="rgb(255,255,255)" stroke="rgb(85,85,85)" paint-order="fill stroke markers" d=" M 171.28523743826983 110.78371741386201 L 177.78523743826983 110.78371741386201 L 177.78523743826983 110.78371741386201 A 17.5 17.5 0 0 1 195.28523743826983 128.283717413862 L 195.28523743826983 128.283717413862 L 195.28523743826983 128.283717413862 A 17.5 17.5 0 0 1 177.78523743826983 145.783717413862 L 164.78523743826983 145.783717413862 L 164.78523743826983 145.783717413862 A 17.5 17.5 0 0 1 147.28523743826983 128.283717413862 L 147.28523743826983 128.283717413862 L 147.28523743826983 128.283717413862 A 17.5 17.5 0 0 1 164.78523743826983 110.78371741386201 L 171.28523743826983 110.78371741386201 Z" fill-opacity="0.5" stroke-opacity="1" stroke-miterlimit="10" stroke-width="1.25"/><path fill="rgb(255,255,255)" stroke="rgb(85,85,85)" paint-order="fill stroke markers" d="" fill-opacity="0.5" stroke-opacity="1" stroke-miterlimit="10" stroke-width="1.25"/><text fill="rgb(0,0,0)" stroke="none" font-family="Helvetica" font-size="11px" font-style="normal" font-weight="normal" text-decoration="normal" x="171.28523743826983" y="128.283717413862" text-anchor="middle" dominant-baseline="text-after-edge" fill-opacity="1">glucose</text><text fill="rgb(0,0,0)" stroke="none" font-family="Helvetica" font-size="11px" font-style="normal" font-weight="normal" text-decoration="normal" x="171.28523743826983" y="139.283717413862" text-anchor="middle" dominant-baseline="text-after-edge" fill-opacity="1">6P</text><path fill="rgb(255,255,255)" stroke="rgb(85,85,85)" paint-order="fill stroke markers" d=" M 337.20631688065566 110.78371741386201 L 343.70631688065566 110.78371741386201 L 343.70631688065566 110.78371741386201 A 17.5 17.5 0 0 1 361.20631688065566 128.283717413862 L 361.20631688065566 128.283717413862 L 361.20631688065566 128.283717413862 A 17.5 17.5 0 0 1 343.70631688065566 145.783717413862 L 330.70631688065566 145.783717413862 L 330.70631688065566 145.783717413862 A 17.5 17.5 0 0 1 313.20631688065566 128.283717413862 L 313.20631688065566 128.283717413862 L 313.20631688065566 128.283717413862 A 17.5 17.5 0 0 1 330.70631688065566 110.78371741386201 L 337.20631688065566 110.78371741386201 Z" fill-opacity="0.5" stroke-opacity="1" stroke-miterlimit="10" stroke-width="1.25"/><path fill="rgb(255,255,255)" stroke="rgb(85,85,85)" paint-order="fill stroke markers" d="" fill-opacity="0.5" stroke-opacity="1" stroke-miterlimit="10" stroke-width="1.25"/><text fill="rgb(0,0,0)" stroke="none" font-family="Helvetica" font-size="11px" font-style="normal" font-weight="normal" text-decoration="normal" x="337.20631688065566" y="128.283717413862" text-anchor="middle" dominant-baseline="text-after-edge" fill-opacity="1">fructose</text><text fill="rgb(0,0,0)" stroke="none" font-family="Helvetica" font-size="11px" font-style="normal" font-weight="normal" text-decoration="normal" x="337.20631688065566" y="139.283717413862" text-anchor="middle" dominant-baseline="text-after-edge" fill-opacity="1">6P</text><path fill="rgb(255,255,255)" stroke="rgb(85,85,85)" paint-order="fill stroke markers" d=" M 809.7899455213721 110.26658024258396 L 836.7899455213721 110.26658024258396 L 836.7899455213721 110.26658024258396 A 8 8 0 0 1 844.7899455213721 118.26658024258396 L 844.7899455213721 137.26658024258396 L 844.7899455213721 137.26658024258396 A 8 8 0 0 1 836.7899455213721 145.26658024258396 L 782.7899455213721 145.26658024258396 L 782.7899455213721 145.26658024258396 A 8 8 0 0 1 774.7899455213721 137.26658024258396 L 774.7899455213721 118.26658024258396 L 774.7899455213721 118.26658024258396 A 8 8 0 0 1 782.7899455213721 110.26658024258396 L 809.7899455213721 110.26658024258396 Z" fill-opacity="0.5" stroke-opacity="1" stroke-miterlimit="10" stroke-width="1.25"/><path fill="rgb(255,255,255)" stroke="rgb(85,85,85)" paint-order="fill stroke markers" d="" fill-opacity="0.5" stroke-opacity="1" stroke-miterlimit="10" stroke-width="1.25"/><text fill="rgb(0,0,0)" stroke="none" font-family="Helvetica" font-size="11px" font-style="normal" font-weight="normal" text-decoration="normal" x="809.7899455213721" y="127.76658024258396" text-anchor="middle" dominant-baseline="text-after-edge" fill-opacity="1">triose-P</text><text fill="rgb(0,0,0)" stroke="none" font-family="Helvetica" font-size="11px" font-style="normal" font-weight="normal" text-decoration="normal" x="809.7899455213721" y="138.76658024258396" text-anchor="middle" dominant-baseline="text-after-edge" fill-opacity="1">isomerase</text><path fill="rgb(255,255,255)" stroke="rgb(85,85,85)" paint-order="fill stroke markers" d=" M 506.2858513347395 110.78371741386201 L 512.7858513347395 110.78371741386201 L 512.7858513347395 110.78371741386201 A 17.5 17.5 0 0 1 530.2858513347395 128.283717413862 L 530.2858513347395 128.283717413862 L 530.2858513347395 128.283717413862 A 17.5 17.5 0 0 1 512.7858513347395 145.783717413862 L 499.7858513347395 145.783717413862 L 499.7858513347395 145.783717413862 A 17.5 17.5 0 0 1 482.2858513347395 128.283717413862 L 482.2858513347395 128.283717413862 L 482.2858513347395 128.283717413862 A 17.5 17.5 0 0 1 499.7858513347395 110.78371741386201 L 506.2858513347395 110.78371741386201 Z" fill-opacity="0.5" stroke-opacity="1" stroke-miterlimit="10" stroke-width="1.25"/><path fill="rgb(255,255,255)" stroke="rgb(85,85,85)" paint-order="fill stroke markers" d="" fill-opacity="0.5" stroke-opacity="1" stroke-miterlimit="10" stroke-width="1.25"/><text fill="rgb(0,0,0)" stroke="none" font-family="Helvetica" font-size="11px" font-style="normal" font-weight="normal" text-decoration="normal" x="506.2858513347395" y="128.283717413862" text-anchor="middle" dominant-baseline="text-after-edge" fill-opacity="1">fructose</text><text fill="rgb(0,0,0)" stroke="none" font-family="Helvetica" font-size="11px" font-style="normal" font-weight="normal" text-decoration="normal" x="506.2858513347395" y="139.283717413862" text-anchor="middle" dominant-baseline="text-after-edge" fill-opacity="1">1,6P</text><path fill="rgb(255,255,255)" stroke="rgb(85,85,85)" paint-order="fill stroke markers" d=" M 253.3772700391366 35.98323077999954 L 280.3772700391366 35.98323077999954 L 280.3772700391366 35.98323077999954 A 8 8 0 0 1 288.3772700391366 43.98323077999954 L 288.3772700391366 62.98323077999953 L 288.3772700391366 62.98323077999953 A 8 8 0 0 1 280.3772700391366 70.98323077999953 L 226.3772700391366 70.98323077999953 L 226.3772700391366 70.98323077999953 A 8 8 0 0 1 218.3772700391366 62.98323077999953 L 218.3772700391366 43.98323077999954 L 218.3772700391366 43.98323077999954 A 8 8 0 0 1 226.3772700391366 35.98323077999954 L 253.3772700391366 35.98323077999954 Z" fill-opacity="0.5" stroke-opacity="1" stroke-miterlimit="10" stroke-width="1.25"/><path fill="rgb(255,255,255)" stroke="rgb(85,85,85)" paint-order="fill stroke markers" d="" fill-opacity="0.5" stroke-opacity="1" stroke-miterlimit="10" stroke-width="1.25"/><text fill="rgb(0,0,0)" stroke="none" font-family="Helvetica" font-size="11px" font-style="normal" font-weight="normal" text-decoration="normal" x="253.3772700391366" y="53.48323077999953" text-anchor="middle" dominant-baseline="text-after-edge" fill-opacity="1">glucose-6P</text><text fill="rgb(0,0,0)" stroke="none" font-family="Helvetica" font-size="11px" font-style="normal" font-weight="normal" text-decoration="normal" x="253.3772700391366" y="64.48323077999953" text-anchor="middle" dominant-baseline="text-after-edge" fill-opacity="1">isomerase</text><path fill="rgb(255,255,255)" stroke="rgb(85,85,85)" paint-order="fill stroke markers" d=" M 242.88576831157434 128.183717413862 L 245.7429111687172 128.183717413862 L 245.7429111687172 121.14086027100487 L 260.0286254544315 121.14086027100487 L 260.0286254544315 128.183717413862 L 262.88576831157434 128.183717413862 L 262.88576831157434 128.383717413862 L 260.0286254544315 128.383717413862 L 260.0286254544315 135.42657455671915 L 245.7429111687172 135.42657455671915 L 245.7429111687172 128.383717413862 L 242.88576831157434 128.383717413862 Z" fill-opacity="0.5" stroke-opacity="1" stroke-miterlimit="10" stroke-width="1.25"/><path fill="rgb(255,255,255)" stroke="rgb(85,85,85)" paint-order="fill stroke markers" d=" M 418.15104270142336 35.98323077999954 L 445.15104270142336 35.98323077999954 L 445.15104270142336 35.98323077999954 A 8 8 0 0 1 453.15104270142336 43.98323077999954 L 453.15104270142336 62.98323077999953 L 453.15104270142336 62.98323077999953 A 8 8 0 0 1 445.15104270142336 70.98323077999953 L 391.15104270142336 70.98323077999953 L 391.15104270142336 70.98323077999953 A 8 8 0 0 1 383.15104270142336 62.98323077999953 L 383.15104270142336 43.98323077999954 L 383.15104270142336 43.98323077999954 A 8 8 0 0 1 391.15104270142336 35.98323077999954 L 418.15104270142336 35.98323077999954 Z" fill-opacity="0.5" stroke-opacity="1" stroke-miterlimit="10" stroke-width="1.25"/><path fill="rgb(255,255,255)" stroke="rgb(85,85,85)" paint-order="fill stroke markers" d="" fill-opacity="0.5" stroke-opacity="1" stroke-miterlimit="10" stroke-width="1.25"/><text fill="rgb(0,0,0)" stroke="none" font-family="Helvetica" font-size="11px" font-style="normal" font-weight="normal" text-decoration="normal" x="418.15104270142336" y="53.48323077999953" text-anchor="middle" dominant-baseline="text-after-edge" fill-opacity="1">phospho</text><text fill="rgb(0,0,0)" stroke="none" font-family="Helvetica" font-size="11px" font-style="normal" font-weight="normal" text-decoration="normal" x="418.15104270142336" y="64.48323077999953" text-anchor="middle" dominant-baseline="text-after-edge" fill-opacity="1">fructokinase</text><path fill="rgb(255,255,255)" stroke="rgb(85,85,85)" paint-order="fill stroke markers" d=" M 411.03513079960703 128.183717413862 L 413.89227365674986 128.183717413862 L 413.89227365674986 121.14086027100487 L 428.1779879424642 121.14086027100487 L 428.1779879424642 128.183717413862 L 431.03513079960703 128.183717413862 L 431.03513079960703 128.383717413862 L 428.1779879424642 128.383717413862 L 428.1779879424642 135.42657455671915 L 413.89227365674986 135.42657455671915 L 413.89227365674986 128.383717413862 L 411.03513079960703 128.383717413862 Z" fill-opacity="0.5" stroke-opacity="1" stroke-miterlimit="10" stroke-width="1.25"/><path fill="rgb(255,255,255)" stroke="rgb(85,85,85)" paint-order="fill stroke markers" d=" M 591.5382207947348 35.983230779999516 L 618.5382207947348 35.983230779999516 L 618.5382207947348 35.983230779999516 A 8 8 0 0 1 626.5382207947348 43.983230779999516 L 626.5382207947348 62.983230779999516 L 626.5382207947348 62.983230779999516 A 8 8 0 0 1 618.5382207947348 70.98323077999952 L 564.5382207947348 70.98323077999952 L 564.5382207947348 70.98323077999952 A 8 8 0 0 1 556.5382207947348 62.983230779999516 L 556.5382207947348 43.983230779999516 L 556.5382207947348 43.983230779999516 A 8 8 0 0 1 564.5382207947348 35.983230779999516 L 591.5382207947348 35.983230779999516 Z" fill-opacity="0.5" stroke-opacity="1" stroke-miterlimit="10" stroke-width="1.25"/><path fill="rgb(255,255,255)" stroke="rgb(85,85,85)" paint-order="fill stroke markers" d="" fill-opacity="0.5" stroke-opacity="1" stroke-miterlimit="10" stroke-width="1.25"/><text fill="rgb(0,0,0)" stroke="none" font-family="Helvetica" font-size="11px" font-style="normal" font-weight="normal" text-decoration="normal" x="591.5382207947348" y="58.983230779999516" text-anchor="middle" dominant-baseline="text-after-edge" fill-opacity="1">adolase</text><path fill="rgb(255,255,255)" stroke="rgb(85,85,85)" paint-order="fill stroke markers" d=" M 581.5382207947347 128.183717413862 L 584.3953636518776 128.183717413862 L 584.3953636518776 121.14086027100487 L 598.6810779375918 121.14086027100487 L 598.6810779375918 128.183717413862 L 601.5382207947347 128.183717413862 L 601.5382207947347 128.383717413862 L 598.6810779375918 128.383717413862 L 598.6810779375918 135.42657455671915 L 584.3953636518776 135.42657455671915 L 584.3953636518776 128.383717413862 L 581.5382207947347 128.383717413862 Z" fill-opacity="0.5" stroke-opacity="1" stroke-miterlimit="10" stroke-width="1.25"/><path fill="rgb(255,255,255)" stroke="rgb(85,85,85)" paint-order="fill stroke markers" d=" M 810.9300198297399 250.63747473904266 L 837.9300198297399 250.63747473904266 L 837.9300198297399 250.63747473904266 A 8 8 0 0 1 845.9300198297399 258.63747473904266 L 845.9300198297399 277.63747473904266 L 845.9300198297399 277.63747473904266 A 8 8 0 0 1 837.9300198297399 285.63747473904266 L 783.9300198297399 285.63747473904266 L 783.9300198297399 285.63747473904266 A 8 8 0 0 1 775.9300198297399 277.63747473904266 L 775.9300198297399 258.63747473904266 L 775.9300198297399 258.63747473904266 A 8 8 0 0 1 783.9300198297399 250.63747473904266 L 810.9300198297399 250.63747473904266 Z" fill-opacity="0.5" stroke-opacity="1" stroke-miterlimit="10" stroke-width="1.25"/><path fill="rgb(255,255,255)" stroke="rgb(85,85,85)" paint-order="fill stroke markers" d="" fill-opacity="0.5" stroke-opacity="1" stroke-miterlimit="10" stroke-width="1.25"/><text fill="rgb(0,0,0)" stroke="none" font-family="Helvetica" font-size="11px" font-style="normal" font-weight="normal" text-decoration="normal" x="810.9300198297399" y="273.63747473904266" text-anchor="middle" dominant-baseline="text-after-edge" fill-opacity="1">GAPDH</text><path fill="rgb(255,255,255)" stroke="rgb(85,85,85)" paint-order="fill stroke markers" d=" M 700.5047105160871 177.0868730968662 L 700.5047105160871 177.0868730968662 L 700.5047105160871 177.0868730968662 A 17.5 17.5 0 0 1 718.0047105160871 194.5868730968662 L 718.0047105160871 194.5868730968662 L 718.0047105160871 194.5868730968662 A 17.5 17.5 0 0 1 700.5047105160871 212.0868730968662 L 700.5047105160871 212.0868730968662 L 700.5047105160871 212.0868730968662 A 17.5 17.5 0 0 1 683.0047105160871 194.5868730968662 L 683.0047105160871 194.5868730968662 L 683.0047105160871 194.5868730968662 A 17.5 17.5 0 0 1 700.5047105160871 177.0868730968662 L 700.5047105160871 177.0868730968662 Z" fill-opacity="0.5" stroke-opacity="1" stroke-miterlimit="10" stroke-width="1.25"/><path fill="rgb(255,255,255)" stroke="rgb(85,85,85)" paint-order="fill stroke markers" d="" fill-opacity="0.5" stroke-opacity="1" stroke-miterlimit="10" stroke-width="1.25"/><text fill="rgb(0,0,0)" stroke="none" font-family="Helvetica" font-size="11px" font-style="normal" font-weight="normal" text-decoration="normal" x="700.5047105160871" y="200.0868730968662" text-anchor="middle" dominant-baseline="text-after-edge" fill-opacity="1">GA-3P</text><path fill="rgb(255,255,255)" stroke="rgb(85,85,85)" paint-order="fill stroke markers" d=" M 637.9581980388436 195.8176721876209 L 637.9581980388436 195.8176721876209 L 637.9581980388436 195.8176721876209 A 17.5 17.5 0 0 1 655.4581980388436 213.3176721876209 L 655.4581980388436 213.3176721876209 L 655.4581980388436 213.3176721876209 A 17.5 17.5 0 0 1 637.9581980388436 230.8176721876209 L 637.9581980388436 230.8176721876209 L 637.9581980388436 230.8176721876209 A 17.5 17.5 0 0 1 620.4581980388436 213.3176721876209 L 620.4581980388436 213.3176721876209 L 620.4581980388436 213.3176721876209 A 17.5 17.5 0 0 1 637.9581980388436 195.8176721876209 L 637.9581980388436 195.8176721876209 Z" fill-opacity="0.5" stroke-opacity="1" stroke-miterlimit="10" stroke-width="1.25"/><path fill="rgb(255,255,255)" stroke="rgb(85,85,85)" paint-order="fill stroke markers" d="" fill-opacity="0.5" stroke-opacity="1" stroke-miterlimit="10" stroke-width="1.25"/><text fill="rgb(0,0,0)" stroke="none" font-family="Helvetica" font-size="11px" font-style="normal" font-weight="normal" text-decoration="normal" x="637.9581980388436" y="218.8176721876209" text-anchor="middle" dominant-baseline="text-after-edge" fill-opacity="1">Pi</text><path fill="rgb(255,255,255)" stroke="rgb(85,85,85)" paint-order="fill stroke markers" d=" M 757.943976326979 195.8176721876209 L 757.943976326979 195.8176721876209 L 757.943976326979 195.8176721876209 A 17.5 17.5 0 0 1 775.443976326979 213.3176721876209 L 775.443976326979 213.3176721876209 L 775.443976326979 213.3176721876209 A 17.5 17.5 0 0 1 757.943976326979 230.8176721876209 L 757.943976326979 230.8176721876209 L 757.943976326979 230.8176721876209 A 17.5 17.5 0 0 1 740.443976326979 213.3176721876209 L 740.443976326979 213.3176721876209 L 740.443976326979 213.3176721876209 A 17.5 17.5 0 0 1 757.943976326979 195.8176721876209 L 757.943976326979 195.8176721876209 Z" fill-opacity="0.5" stroke-opacity="1" stroke-miterlimit="10" stroke-width="1.25"/><path fill="rgb(255,255,255)" stroke="rgb(85,85,85)" paint-order="fill stroke markers" d="" fill-opacity="0.5" stroke-opacity="1" stroke-miterlimit="10" stroke-width="1.25"/><text fill="rgb(0,0,0)" stroke="none" font-family="Helvetica" font-size="11px" font-style="normal" font-weight="normal" text-decoration="normal" x="757.943976326979" y="218.8176721876209" text-anchor="middle" dominant-baseline="text-after-edge" fill-opacity="1">NAD</text><path fill="rgb(255,255,255)" stroke="rgb(85,85,85)" paint-order="fill stroke markers" d=" M 789.3433789799271 306.2103344903014 L 789.3433789799271 306.2103344903014 L 789.3433789799271 306.2103344903014 A 17.5 17.5 0 0 1 806.8433789799271 323.7103344903014 L 806.8433789799271 323.7103344903014 L 806.8433789799271 323.7103344903014 A 17.5 17.5 0 0 1 789.3433789799271 341.2103344903014 L 789.3433789799271 341.2103344903014 L 789.3433789799271 341.2103344903014 A 17.5 17.5 0 0 1 771.8433789799271 323.7103344903014 L 771.8433789799271 323.7103344903014 L 771.8433789799271 323.7103344903014 A 17.5 17.5 0 0 1 789.3433789799271 306.2103344903014 L 789.3433789799271 306.2103344903014 Z" fill-opacity="0.5" stroke-opacity="1" stroke-miterlimit="10" stroke-width="1.25"/><path fill="rgb(255,255,255)" stroke="rgb(85,85,85)" paint-order="fill stroke markers" d="" fill-opacity="0.5" stroke-opacity="1" stroke-miterlimit="10" stroke-width="1.25"/><text fill="rgb(0,0,0)" stroke="none" font-family="Helvetica" font-size="11px" font-style="normal" font-weight="normal" text-decoration="normal" x="789.3433789799271" y="329.2103344903014" text-anchor="middle" dominant-baseline="text-after-edge" fill-opacity="1">H+</text><path fill="rgb(255,255,255)" stroke="rgb(85,85,85)" paint-order="fill stroke markers" d=" M 700.4047105160871 258.13747473904266 L 700.4047105160871 260.9946175961855 L 693.36185337323 260.9946175961855 L 693.36185337323 275.2803318818998 L 700.4047105160871 275.2803318818998 L 700.4047105160871 278.13747473904266 L 700.6047105160872 278.13747473904266 L 700.6047105160872 275.2803318818998 L 707.6475676589442 275.2803318818998 L 707.6475676589442 260.9946175961855 L 700.6047105160872 260.9946175961855 L 700.6047105160872 258.13747473904266 Z" fill-opacity="0.5" stroke-opacity="1" stroke-miterlimit="10" stroke-width="1.25"/><path fill="rgb(255,255,255)" stroke="rgb(85,85,85)" paint-order="fill stroke markers" d=" M 769.3184840967929 348.61599424282105 L 769.3184840967929 348.61599424282105 L 769.3184840967929 348.61599424282105 A 17.5 17.5 0 0 1 786.8184840967929 366.11599424282105 L 786.8184840967929 366.11599424282105 L 786.8184840967929 366.11599424282105 A 17.5 17.5 0 0 1 769.3184840967929 383.61599424282105 L 769.3184840967929 383.61599424282105 L 769.3184840967929 383.61599424282105 A 17.5 17.5 0 0 1 751.8184840967929 366.11599424282105 L 751.8184840967929 366.11599424282105 L 751.8184840967929 366.11599424282105 A 17.5 17.5 0 0 1 769.3184840967929 348.61599424282105 L 769.3184840967929 348.61599424282105 Z" fill-opacity="0.5" stroke-opacity="1" stroke-miterlimit="10" stroke-width="1.25"/><path fill="rgb(255,255,255)" stroke="rgb(85,85,85)" paint-order="fill stroke markers" d="" fill-opacity="0.5" stroke-opacity="1" stroke-miterlimit="10" stroke-width="1.25"/><text fill="rgb(0,0,0)" stroke="none" font-family="Helvetica" font-size="11px" font-style="normal" font-weight="normal" text-decoration="normal" x="769.3184840967929" y="371.61599424282105" text-anchor="middle" dominant-baseline="text-after-edge" fill-opacity="1">NADH</text><path fill="rgb(255,255,255)" stroke="rgb(85,85,85)" paint-order="fill stroke markers" d=" M 590.2723651417102 406.445133940345 L 617.2723651417102 406.445133940345 L 617.2723651417102 406.445133940345 A 8 8 0 0 1 625.2723651417102 414.445133940345 L 625.2723651417102 433.445133940345 L 625.2723651417102 433.445133940345 A 8 8 0 0 1 617.2723651417102 441.445133940345 L 563.2723651417102 441.445133940345 L 563.2723651417102 441.445133940345 A 8 8 0 0 1 555.2723651417102 433.445133940345 L 555.2723651417102 414.445133940345 L 555.2723651417102 414.445133940345 A 8 8 0 0 1 563.2723651417102 406.445133940345 L 590.2723651417102 406.445133940345 Z" fill-opacity="0.5" stroke-opacity="1" stroke-miterlimit="10" stroke-width="1.25"/><path fill="rgb(255,255,255)" stroke="rgb(85,85,85)" paint-order="fill stroke markers" d="" fill-opacity="0.5" stroke-opacity="1" stroke-miterlimit="10" stroke-width="1.25"/><text fill="rgb(0,0,0)" stroke="none" font-family="Helvetica" font-size="11px" font-style="normal" font-weight="normal" text-decoration="normal" x="590.2723651417102" y="429.445133940345" text-anchor="middle" dominant-baseline="text-after-edge" fill-opacity="1">PGK1</text><path fill="rgb(255,255,255)" stroke="rgb(85,85,85)" paint-order="fill stroke markers" d=" M 404.15863622787424 406.445133940345 L 431.15863622787424 406.445133940345 L 431.15863622787424 406.445133940345 A 8 8 0 0 1 439.15863622787424 414.445133940345 L 439.15863622787424 433.445133940345 L 439.15863622787424 433.445133940345 A 8 8 0 0 1 431.15863622787424 441.445133940345 L 377.15863622787424 441.445133940345 L 377.15863622787424 441.445133940345 A 8 8 0 0 1 369.15863622787424 433.445133940345 L 369.15863622787424 414.445133940345 L 369.15863622787424 414.445133940345 A 8 8 0 0 1 377.15863622787424 406.445133940345 L 404.15863622787424 406.445133940345 Z" fill-opacity="0.5" stroke-opacity="1" stroke-miterlimit="10" stroke-width="1.25"/><path fill="rgb(255,255,255)" stroke="rgb(85,85,85)" paint-order="fill stroke markers" d="" fill-opacity="0.5" stroke-opacity="1" stroke-miterlimit="10" stroke-width="1.25"/><text fill="rgb(0,0,0)" stroke="none" font-family="Helvetica" font-size="11px" font-style="normal" font-weight="normal" text-decoration="normal" x="404.15863622787424" y="429.445133940345" text-anchor="middle" dominant-baseline="text-after-edge" fill-opacity="1">PG mutase</text><path fill="rgb(255,255,255)" stroke="rgb(85,85,85)" paint-order="fill stroke markers" d=" M 252.88576831157434 406.445133940345 L 279.88576831157434 406.445133940345 L 279.88576831157434 406.445133940345 A 8 8 0 0 1 287.88576831157434 414.445133940345 L 287.88576831157434 433.445133940345 L 287.88576831157434 433.445133940345 A 8 8 0 0 1 279.88576831157434 441.445133940345 L 225.88576831157434 441.445133940345 L 225.88576831157434 441.445133940345 A 8 8 0 0 1 217.88576831157434 433.445133940345 L 217.88576831157434 414.445133940345 L 217.88576831157434 414.445133940345 A 8 8 0 0 1 225.88576831157434 406.445133940345 L 252.88576831157434 406.445133940345 Z" fill-opacity="0.5" stroke-opacity="1" stroke-miterlimit="10" stroke-width="1.25"/><path fill="rgb(255,255,255)" stroke="rgb(85,85,85)" paint-order="fill stroke markers" d="" fill-opacity="0.5" stroke-opacity="1" stroke-miterlimit="10" stroke-width="1.25"/><text fill="rgb(0,0,0)" stroke="none" font-family="Helvetica" font-size="11px" font-style="normal" font-weight="normal" text-decoration="normal" x="252.88576831157434" y="429.445133940345" text-anchor="middle" dominant-baseline="text-after-edge" fill-opacity="1">enolase</text><path fill="rgb(255,255,255)" stroke="rgb(85,85,85)" paint-order="fill stroke markers" d=" M 51.222939763508755 406.445133940345 L 78.22293976350875 406.445133940345 L 78.22293976350875 406.445133940345 A 8 8 0 0 1 86.22293976350875 414.445133940345 L 86.22293976350875 433.445133940345 L 86.22293976350875 433.445133940345 A 8 8 0 0 1 78.22293976350875 441.445133940345 L 24.222939763508755 441.445133940345 L 24.222939763508755 441.445133940345 A 8 8 0 0 1 16.222939763508755 433.445133940345 L 16.222939763508755 414.445133940345 L 16.222939763508755 414.445133940345 A 8 8 0 0 1 24.222939763508755 406.445133940345 L 51.222939763508755 406.445133940345 Z" fill-opacity="0.5" stroke-opacity="1" stroke-miterlimit="10" stroke-width="1.25"/><path fill="rgb(255,255,255)" stroke="rgb(85,85,85)" paint-order="fill stroke markers" d="" fill-opacity="0.5" stroke-opacity="1" stroke-miterlimit="10" stroke-width="1.25"/><text fill="rgb(0,0,0)" stroke="none" font-family="Helvetica" font-size="11px" font-style="normal" font-weight="normal" text-decoration="normal" x="51.222939763508755" y="423.945133940345" text-anchor="middle" dominant-baseline="text-after-edge" fill-opacity="1">pyruvate</text><text fill="rgb(0,0,0)" stroke="none" font-family="Helvetica" font-size="11px" font-style="normal" font-weight="normal" text-decoration="normal" x="51.222939763508755" y="434.945133940345" text-anchor="middle" dominant-baseline="text-after-edge" fill-opacity="1">kinase</text><path fill="rgb(255,255,255)" stroke="rgb(85,85,85)" paint-order="fill stroke markers" d=" M 700.5047105160871 332.1249043390634 L 707.0047105160871 332.1249043390634 L 707.0047105160871 332.1249043390634 A 17.5 17.5 0 0 1 724.5047105160871 349.6249043390634 L 724.5047105160871 349.6249043390634 L 724.5047105160871 349.6249043390634 A 17.5 17.5 0 0 1 707.0047105160871 367.1249043390634 L 694.0047105160871 367.1249043390634 L 694.0047105160871 367.1249043390634 A 17.5 17.5 0 0 1 676.5047105160871 349.6249043390634 L 676.5047105160871 349.6249043390634 L 676.5047105160871 349.6249043390634 A 17.5 17.5 0 0 1 694.0047105160871 332.1249043390634 L 700.5047105160871 332.1249043390634 Z" fill-opacity="0.5" stroke-opacity="1" stroke-miterlimit="10" stroke-width="1.25"/><path fill="rgb(255,255,255)" stroke="rgb(85,85,85)" paint-order="fill stroke markers" d="" fill-opacity="0.5" stroke-opacity="1" stroke-miterlimit="10" stroke-width="1.25"/><text fill="rgb(0,0,0)" stroke="none" font-family="Helvetica" font-size="11px" font-style="normal" font-weight="normal" text-decoration="normal" x="700.5047105160871" y="355.1249043390634" text-anchor="middle" dominant-baseline="text-after-edge" fill-opacity="1">1,3 BPG</text><path fill="rgb(255,255,255)" stroke="rgb(85,85,85)" paint-order="fill stroke markers" d=" M 643.2794398323597 276.5413095934183 L 643.2794398323597 276.5413095934183 L 643.2794398323597 276.5413095934183 A 17.5 17.5 0 0 1 660.7794398323597 294.0413095934183 L 660.7794398323597 294.0413095934183 L 660.7794398323597 294.0413095934183 A 17.5 17.5 0 0 1 643.2794398323597 311.5413095934183 L 643.2794398323597 311.5413095934183 L 643.2794398323597 311.5413095934183 A 17.5 17.5 0 0 1 625.7794398323597 294.0413095934183 L 625.7794398323597 294.0413095934183 L 625.7794398323597 294.0413095934183 A 17.5 17.5 0 0 1 643.2794398323597 276.5413095934183 L 643.2794398323597 276.5413095934183 Z" fill-opacity="0.5" stroke-opacity="1" stroke-miterlimit="10" stroke-width="1.25"/><path fill="#a9a9a9" stroke="none" paint-order="stroke fill markers" d=" M 628.5570079680242 302.5413095934183 L 643.2794398323597 302.5413095934183 L 643.2794398323597 311.0413095934183 A 17 17 0 0 1 628.5570079680242 302.5413095934183 Z" fill-opacity="0.5"/><path fill="#a9a9a9" stroke="none" paint-order="stroke fill markers" d=" M 643.2794398323597 302.5413095934183 L 658.0018716966952 302.5413095934183 L 658.0018716966952 302.5413095934183 A 17 17 0 0 1 643.2794398323597 311.0413095934183 Z" fill-opacity="0.5"/><path fill="#a9a9a9" stroke="none" paint-order="stroke fill markers" d=" M 643.2794398323597 302.5413095934183 L 643.2794398323597 311.0413095934183 L 643.2794398323597 311.0413095934183 L 643.2794398323597 302.5413095934183 Z" fill-opacity="0.5"/><path fill="rgb(255,255,255)" stroke="rgb(85,85,85)" paint-order="fill stroke markers" d="" fill-opacity="0.5" stroke-opacity="1" stroke-miterlimit="10" stroke-width="1.25"/><text fill="rgb(0,0,0)" stroke="none" font-family="Helvetica" font-size="11px" font-style="normal" font-weight="normal" text-decoration="normal" x="643.2794398323597" y="299.5413095934183" text-anchor="middle" dominant-baseline="text-after-edge" fill-opacity="1">ADP</text><path fill="rgb(255,255,255)" stroke="rgb(85,85,85)" paint-order="fill stroke markers" d=" M 506.6389806297966 276.5413095934183 L 506.6389806297966 276.5413095934183 L 506.6389806297966 276.5413095934183 A 17.5 17.5 0 0 1 524.1389806297966 294.0413095934183 L 524.1389806297966 294.0413095934183 L 524.1389806297966 294.0413095934183 A 17.5 17.5 0 0 1 506.6389806297966 311.5413095934183 L 506.6389806297966 311.5413095934183 L 506.6389806297966 311.5413095934183 A 17.5 17.5 0 0 1 489.1389806297966 294.0413095934183 L 489.1389806297966 294.0413095934183 L 489.1389806297966 294.0413095934183 A 17.5 17.5 0 0 1 506.6389806297966 276.5413095934183 L 506.6389806297966 276.5413095934183 Z" fill-opacity="0.5" stroke-opacity="1" stroke-miterlimit="10" stroke-width="1.25"/><path fill="#a9a9a9" stroke="none" paint-order="stroke fill markers" d=" M 491.91654876546113 302.5413095934183 L 506.6389806297966 302.5413095934183 L 506.6389806297966 311.0413095934183 A 17 17 0 0 1 491.91654876546113 302.5413095934183 Z" fill-opacity="0.5"/><path fill="#a9a9a9" stroke="none" paint-order="stroke fill markers" d=" M 506.6389806297966 302.5413095934183 L 521.3614124941321 302.5413095934183 L 521.3614124941321 302.5413095934183 A 17 17 0 0 1 506.6389806297966 311.0413095934183 Z" fill-opacity="0.5"/><path fill="#a9a9a9" stroke="none" paint-order="stroke fill markers" d=" M 506.6389806297966 302.5413095934183 L 506.6389806297966 311.0413095934183 L 506.6389806297966 311.0413095934183 L 506.6389806297966 302.5413095934183 Z" fill-opacity="0.5"/><path fill="rgb(255,255,255)" stroke="rgb(85,85,85)" paint-order="fill stroke markers" d="" fill-opacity="0.5" stroke-opacity="1" stroke-miterlimit="10" stroke-width="1.25"/><text fill="rgb(0,0,0)" stroke="none" font-family="Helvetica" font-size="11px" font-style="normal" font-weight="normal" text-decoration="normal" x="506.6389806297966" y="299.5413095934183" text-anchor="middle" dominant-baseline="text-after-edge" fill-opacity="1">ATP</text><path fill="rgb(255,255,255)" stroke="rgb(85,85,85)" paint-order="fill stroke markers" d=" M 580.2723651417102 349.52490433906337 L 583.1295079988531 349.52490433906337 L 583.1295079988531 342.4820471962062 L 597.4152222845673 342.4820471962062 L 597.4152222845673 349.52490433906337 L 600.2723651417102 349.52490433906337 L 600.2723651417102 349.7249043390634 L 597.4152222845673 349.7249043390634 L 597.4152222845673 356.76776148192056 L 583.1295079988531 356.76776148192056 L 583.1295079988531 349.7249043390634 L 580.2723651417102 349.7249043390634 Z" fill-opacity="0.5" stroke-opacity="1" stroke-miterlimit="10" stroke-width="1.25"/><path fill="rgb(255,255,255)" stroke="rgb(85,85,85)" paint-order="fill stroke markers" d=" M 472.4788658291559 332.1249043390634 L 472.4788658291559 332.1249043390634 L 472.4788658291559 332.1249043390634 A 17.5 17.5 0 0 1 489.9788658291559 349.6249043390634 L 489.9788658291559 349.6249043390634 L 489.9788658291559 349.6249043390634 A 17.5 17.5 0 0 1 472.4788658291559 367.1249043390634 L 472.4788658291559 367.1249043390634 L 472.4788658291559 367.1249043390634 A 17.5 17.5 0 0 1 454.9788658291559 349.6249043390634 L 454.9788658291559 349.6249043390634 L 454.9788658291559 349.6249043390634 A 17.5 17.5 0 0 1 472.4788658291559 332.1249043390634 L 472.4788658291559 332.1249043390634 Z" fill-opacity="0.5" stroke-opacity="1" stroke-miterlimit="10" stroke-width="1.25"/><path fill="rgb(255,255,255)" stroke="rgb(85,85,85)" paint-order="fill stroke markers" d="" fill-opacity="0.5" stroke-opacity="1" stroke-miterlimit="10" stroke-width="1.25"/><text fill="rgb(0,0,0)" stroke="none" font-family="Helvetica" font-size="11px" font-style="normal" font-weight="normal" text-decoration="normal" x="472.4788658291559" y="355.1249043390634" text-anchor="middle" dominant-baseline="text-after-edge" fill-opacity="1">3 PG</text><path fill="rgb(255,255,255)" stroke="rgb(85,85,85)" paint-order="fill stroke markers" d=" M 394.15863622787424 349.52490433906337 L 397.0157790850171 349.52490433906337 L 397.0157790850171 342.4820471962062 L 411.3014933707314 342.4820471962062 L 411.3014933707314 349.52490433906337 L 414.15863622787424 349.52490433906337 L 414.15863622787424 349.7249043390634 L 411.3014933707314 349.7249043390634 L 411.3014933707314 356.76776148192056 L 397.0157790850171 356.76776148192056 L 397.0157790850171 349.7249043390634 L 394.15863622787424 349.7249043390634 Z" fill-opacity="0.5" stroke-opacity="1" stroke-miterlimit="10" stroke-width="1.25"/><path fill="rgb(255,255,255)" stroke="rgb(85,85,85)" paint-order="fill stroke markers" d=" M 335.76415637028003 332.1249043390634 L 335.76415637028003 332.1249043390634 L 335.76415637028003 332.1249043390634 A 17.5 17.5 0 0 1 353.26415637028003 349.6249043390634 L 353.26415637028003 349.6249043390634 L 353.26415637028003 349.6249043390634 A 17.5 17.5 0 0 1 335.76415637028003 367.1249043390634 L 335.76415637028003 367.1249043390634 L 335.76415637028003 367.1249043390634 A 17.5 17.5 0 0 1 318.26415637028003 349.6249043390634 L 318.26415637028003 349.6249043390634 L 318.26415637028003 349.6249043390634 A 17.5 17.5 0 0 1 335.76415637028003 332.1249043390634 L 335.76415637028003 332.1249043390634 Z" fill-opacity="0.5" stroke-opacity="1" stroke-miterlimit="10" stroke-width="1.25"/><path fill="rgb(255,255,255)" stroke="rgb(85,85,85)" paint-order="fill stroke markers" d="" fill-opacity="0.5" stroke-opacity="1" stroke-miterlimit="10" stroke-width="1.25"/><text fill="rgb(0,0,0)" stroke="none" font-family="Helvetica" font-size="11px" font-style="normal" font-weight="normal" text-decoration="normal" x="335.76415637028003" y="355.1249043390634" text-anchor="middle" dominant-baseline="text-after-edge" fill-opacity="1">2 PG</text><path fill="rgb(255,255,255)" stroke="rgb(85,85,85)" paint-order="fill stroke markers" d=" M 170.7667770493495 276.5413095934183 L 170.7667770493495 276.5413095934183 L 170.7667770493495 276.5413095934183 A 17.5 17.5 0 0 1 188.2667770493495 294.0413095934183 L 188.2667770493495 294.0413095934183 L 188.2667770493495 294.0413095934183 A 17.5 17.5 0 0 1 170.7667770493495 311.5413095934183 L 170.7667770493495 311.5413095934183 L 170.7667770493495 311.5413095934183 A 17.5 17.5 0 0 1 153.2667770493495 294.0413095934183 L 153.2667770493495 294.0413095934183 L 153.2667770493495 294.0413095934183 A 17.5 17.5 0 0 1 170.7667770493495 276.5413095934183 L 170.7667770493495 276.5413095934183 Z" fill-opacity="0.5" stroke-opacity="1" stroke-miterlimit="10" stroke-width="1.25"/><path fill="rgb(255,255,255)" stroke="rgb(85,85,85)" paint-order="fill stroke markers" d="" fill-opacity="0.5" stroke-opacity="1" stroke-miterlimit="10" stroke-width="1.25"/><text fill="rgb(0,0,0)" stroke="none" font-family="Helvetica" font-size="11px" font-style="normal" font-weight="normal" text-decoration="normal" x="170.7667770493495" y="299.5413095934183" text-anchor="middle" dominant-baseline="text-after-edge" fill-opacity="1">H2O</text><path fill="rgb(255,255,255)" stroke="rgb(85,85,85)" paint-order="fill stroke markers" d=" M 242.88576831157434 349.52490433906337 L 245.7429111687172 349.52490433906337 L 245.7429111687172 342.4820471962062 L 260.0286254544315 342.4820471962062 L 260.0286254544315 349.52490433906337 L 262.88576831157434 349.52490433906337 L 262.88576831157434 349.7249043390634 L 260.0286254544315 349.7249043390634 L 260.0286254544315 356.76776148192056 L 245.7429111687172 356.76776148192056 L 245.7429111687172 349.7249043390634 L 242.88576831157434 349.7249043390634 Z" fill-opacity="0.5" stroke-opacity="1" stroke-miterlimit="10" stroke-width="1.25"/><path fill="rgb(255,255,255)" stroke="rgb(85,85,85)" paint-order="fill stroke markers" d=" M 133.40276341382432 332.1249043390634 L 133.40276341382432 332.1249043390634 L 133.40276341382432 332.1249043390634 A 17.5 17.5 0 0 1 150.90276341382432 349.6249043390634 L 150.90276341382432 349.6249043390634 L 150.90276341382432 349.6249043390634 A 17.5 17.5 0 0 1 133.40276341382432 367.1249043390634 L 133.40276341382432 367.1249043390634 L 133.40276341382432 367.1249043390634 A 17.5 17.5 0 0 1 115.90276341382432 349.6249043390634 L 115.90276341382432 349.6249043390634 L 115.90276341382432 349.6249043390634 A 17.5 17.5 0 0 1 133.40276341382432 332.1249043390634 L 133.40276341382432 332.1249043390634 Z" fill-opacity="0.5" stroke-opacity="1" stroke-miterlimit="10" stroke-width="1.25"/><path fill="rgb(255,255,255)" stroke="rgb(85,85,85)" paint-order="fill stroke markers" d="" fill-opacity="0.5" stroke-opacity="1" stroke-miterlimit="10" stroke-width="1.25"/><text fill="rgb(0,0,0)" stroke="none" font-family="Helvetica" font-size="11px" font-style="normal" font-weight="normal" text-decoration="normal" x="133.40276341382432" y="355.1249043390634" text-anchor="middle" dominant-baseline="text-after-edge" fill-opacity="1">PEP</text><path fill="rgb(255,255,255)" stroke="rgb(85,85,85)" paint-order="fill stroke markers" d=" M 103.54901679447991 276.5413095934183 L 103.54901679447991 276.5413095934183 L 103.54901679447991 276.5413095934183 A 17.5 17.5 0 0 1 121.04901679447991 294.0413095934183 L 121.04901679447991 294.0413095934183 L 121.04901679447991 294.0413095934183 A 17.5 17.5 0 0 1 103.54901679447991 311.5413095934183 L 103.54901679447991 311.5413095934183 L 103.54901679447991 311.5413095934183 A 17.5 17.5 0 0 1 86.04901679447991 294.0413095934183 L 86.04901679447991 294.0413095934183 L 86.04901679447991 294.0413095934183 A 17.5 17.5 0 0 1 103.54901679447991 276.5413095934183 L 103.54901679447991 276.5413095934183 Z" fill-opacity="0.5" stroke-opacity="1" stroke-miterlimit="10" stroke-width="1.25"/><path fill="#a9a9a9" stroke="none" paint-order="stroke fill markers" d=" M 88.82658493014445 302.5413095934183 L 103.54901679447991 302.5413095934183 L 103.54901679447991 311.0413095934183 A 17 17 0 0 1 88.82658493014445 302.5413095934183 Z" fill-opacity="0.5"/><path fill="#a9a9a9" stroke="none" paint-order="stroke fill markers" d=" M 103.54901679447991 302.5413095934183 L 118.27144865881537 302.5413095934183 L 118.27144865881537 302.5413095934183 A 17 17 0 0 1 103.54901679447991 311.0413095934183 Z" fill-opacity="0.5"/><path fill="#a9a9a9" stroke="none" paint-order="stroke fill markers" d=" M 103.54901679447991 302.5413095934183 L 103.54901679447991 311.0413095934183 L 103.54901679447991 311.0413095934183 L 103.54901679447991 302.5413095934183 Z" fill-opacity="0.5"/><path fill="rgb(255,255,255)" stroke="rgb(85,85,85)" paint-order="fill stroke markers" d="" fill-opacity="0.5" stroke-opacity="1" stroke-miterlimit="10" stroke-width="1.25"/><text fill="rgb(0,0,0)" stroke="none" font-family="Helvetica" font-size="11px" font-style="normal" font-weight="normal" text-decoration="normal" x="103.54901679447991" y="299.5413095934183" text-anchor="middle" dominant-baseline="text-after-edge" fill-opacity="1">ADP</text><path fill="rgb(255,255,255)" stroke="rgb(85,85,85)" paint-order="fill stroke markers" d=" M -12.081923360913365 276.5413095934183 L -12.081923360913365 276.5413095934183 L -12.081923360913363 276.5413095934183 A 17.5 17.5 0 0 1 5.418076639086635 294.0413095934183 L 5.418076639086635 294.0413095934183 L 5.418076639086635 294.0413095934183 A 17.5 17.5 0 0 1 -12.081923360913363 311.5413095934183 L -12.081923360913365 311.5413095934183 L -12.081923360913363 311.5413095934183 A 17.5 17.5 0 0 1 -29.581923360913365 294.0413095934183 L -29.581923360913365 294.0413095934183 L -29.581923360913365 294.0413095934183 A 17.5 17.5 0 0 1 -12.081923360913363 276.5413095934183 L -12.081923360913365 276.5413095934183 Z" fill-opacity="0.5" stroke-opacity="1" stroke-miterlimit="10" stroke-width="1.25"/><path fill="#a9a9a9" stroke="none" paint-order="stroke fill markers" d=" M -26.80435522524882 302.5413095934183 L -12.081923360913365 302.5413095934183 L -12.081923360913363 311.0413095934183 A 17 17 0 0 1 -26.804355225248823 302.5413095934183 Z" fill-opacity="0.5"/><path fill="#a9a9a9" stroke="none" paint-order="stroke fill markers" d=" M -12.081923360913365 302.5413095934183 L 2.640508503422092 302.5413095934183 L 2.640508503422094 302.5413095934183 A 17 17 0 0 1 -12.081923360913363 311.0413095934183 Z" fill-opacity="0.5"/><path fill="#a9a9a9" stroke="none" paint-order="stroke fill markers" d=" M -12.081923360913365 302.5413095934183 L -12.081923360913365 311.0413095934183 L -12.081923360913365 311.0413095934183 L -12.081923360913365 302.5413095934183 Z" fill-opacity="0.5"/><path fill="rgb(255,255,255)" stroke="rgb(85,85,85)" paint-order="fill stroke markers" d="" fill-opacity="0.5" stroke-opacity="1" stroke-miterlimit="10" stroke-width="1.25"/><text fill="rgb(0,0,0)" stroke="none" font-family="Helvetica" font-size="11px" font-style="normal" font-weight="normal" text-decoration="normal" x="-12.081923360913365" y="299.5413095934183" text-anchor="middle" dominant-baseline="text-after-edge" fill-opacity="1">ATP</text><path fill="rgb(255,255,255)" stroke="rgb(85,85,85)" paint-order="fill stroke markers" d=" M 40.091649231625404 349.52490433906337 L 42.94879208876826 349.52490433906337 L 42.94879208876826 342.4820471962062 L 57.23450637448255 342.4820471962062 L 57.23450637448255 349.52490433906337 L 60.091649231625404 349.52490433906337 L 60.091649231625404 349.7249043390634 L 57.23450637448255 349.7249043390634 L 57.23450637448255 356.76776148192056 L 42.94879208876826 356.76776148192056 L 42.94879208876826 349.7249043390634 L 40.091649231625404 349.7249043390634 Z" fill-opacity="0.5" stroke-opacity="1" stroke-miterlimit="10" stroke-width="1.25"/><path fill="rgb(255,255,255)" stroke="rgb(85,85,85)" paint-order="fill stroke markers" d=" M -39.94745709793577 332.1249043390634 L -33.44745709793577 332.1249043390634 L -33.44745709793577 332.1249043390634 A 17.5 17.5 0 0 1 -15.947457097935768 349.6249043390634 L -15.947457097935768 349.6249043390634 L -15.947457097935768 349.6249043390634 A 17.5 17.5 0 0 1 -33.44745709793577 367.1249043390634 L -46.44745709793577 367.1249043390634 L -46.44745709793577 367.1249043390634 A 17.5 17.5 0 0 1 -63.94745709793577 349.6249043390634 L -63.94745709793577 349.6249043390634 L -63.94745709793577 349.6249043390634 A 17.5 17.5 0 0 1 -46.44745709793577 332.1249043390634 L -39.94745709793577 332.1249043390634 Z" fill-opacity="0.5" stroke-opacity="1" stroke-miterlimit="10" stroke-width="1.25"/><path fill="rgb(255,255,255)" stroke="rgb(85,85,85)" paint-order="fill stroke markers" d="" fill-opacity="0.5" stroke-opacity="1" stroke-miterlimit="10" stroke-width="1.25"/><text fill="rgb(0,0,0)" stroke="none" font-family="Helvetica" font-size="11px" font-style="normal" font-weight="normal" text-decoration="normal" x="-39.94745709793577" y="355.1249043390634" text-anchor="middle" dominant-baseline="text-after-edge" fill-opacity="1">pyruvate</text><path fill="rgb(255,255,255)" stroke="rgb(85,85,85)" paint-order="fill stroke markers" d=" M 705.4921557881256 128.183717413862 L 708.3492986452685 128.183717413862 L 708.3492986452685 121.14086027100487 L 722.6350129309827 121.14086027100487 L 722.6350129309827 128.183717413862 L 725.4921557881256 128.183717413862 L 725.4921557881256 128.383717413862 L 722.6350129309827 128.383717413862 L 722.6350129309827 135.42657455671915 L 708.3492986452685 135.42657455671915 L 708.3492986452685 128.383717413862 L 705.4921557881256 128.383717413862 Z" fill-opacity="0.5" stroke-opacity="1" stroke-miterlimit="10" stroke-width="1.25"/><path fill="rgb(255,255,255)" stroke="rgb(85,85,85)" paint-order="fill stroke markers" d=" M 700.5047105160871 35.983230779999516 L 700.5047105160871 35.983230779999516 L 700.5047105160871 35.983230779999516 A 17.5 17.5 0 0 1 718.0047105160871 53.483230779999516 L 718.0047105160871 53.483230779999516 L 718.0047105160871 53.483230779999516 A 17.5 17.5 0 0 1 700.5047105160871 70.98323077999952 L 700.5047105160871 70.98323077999952 L 700.5047105160871 70.98323077999952 A 17.5 17.5 0 0 1 683.0047105160871 53.483230779999516 L 683.0047105160871 53.483230779999516 L 683.0047105160871 53.483230779999516 A 17.5 17.5 0 0 1 700.5047105160871 35.983230779999516 L 700.5047105160871 35.983230779999516 Z" fill-opacity="0.5" stroke-opacity="1" stroke-miterlimit="10" stroke-width="1.25"/><path fill="rgb(255,255,255)" stroke="rgb(85,85,85)" paint-order="fill stroke markers" d="" fill-opacity="0.5" stroke-opacity="1" stroke-miterlimit="10" stroke-width="1.25"/><text fill="rgb(0,0,0)" stroke="none" font-family="Helvetica" font-size="11px" font-style="normal" font-weight="normal" text-decoration="normal" x="700.5047105160871" y="58.983230779999516" text-anchor="middle" dominant-baseline="text-after-edge" fill-opacity="1">DHA-P</text><g transform="scale(1,1) translate(-65.57245709793577,34.358230779999516)"/></g></svg>