<svg version="1.1" xmlns="http://www.w3.org/2000/svg" xmlns:xlink="http://www.w3.org/1999/xlink" width="900" height="735"><defs/><g transform="translate(-140.4344968812975,-69.25) scale(1,1)"><path fill="rgb(239,243,255)" stroke="rgb(85,85,85)" paint-order="fill stroke markers" d=" M 145.25 169.33314255887922 L 145.25 786.5204994780389 Q 150.25 801.5204994780389 245.25 801.5204994780389 L 937.2864203691795 801.5204994780389 Q 1032.2864203691795 801.5204994780389 1037.2864203691795 786.5204994780389 L 1037.2864203691795 169.33314255887922 Q 1032.2864203691795 154.33314255887922 937.2864203691795 154.33314255887922 L 245.25 154.33314255887922 Q 150.25 154.33314255887922 145.25 169.33314255887922 Z" fill-opacity="0.5" stroke-opacity="1" stroke-miterlimit="10" stroke-width="3.25"/><path fill="rgb(239,243,255)" stroke="rgb(85,85,85)" paint-order="fill stroke markers" d="" fill-opacity="0.5" stroke-opacity="1" stroke-miterlimit="10" stroke-width="3.25"/><text fill="rgb(0,0,0)" stroke="none" font-family="Helvetica" font-size="14px" font-style="normal" font-weight="normal" text-decoration="normal" x="591.2682101845897" y="801.3954994780389" text-anchor="middle" dominant-baseline="text-after-edge" fill-opacity="1">cytosol</text><path fill="rgb(239,243,255)" stroke="rgb(85,85,85)" paint-order="fill stroke markers" d=" M 142.9344968812975 75.575 L 142.9344968812975 144.425 Q 147.9344968812975 148.25 242.9344968812975 148.25 L 935.6853231868054 148.25 Q 1030.6853231868054 148.25 1035.6853231868054 144.425 L 1035.6853231868054 75.575 Q 1030.6853231868054 71.75 935.6853231868054 71.75 L 242.9344968812975 71.75 Q 147.9344968812975 71.75 142.9344968812975 75.575 Z" fill-opacity="0.5" stroke-opacity="1" stroke-miterlimit="10" stroke-width="3.25"/><path fill="rgb(239,243,255)" stroke="rgb(85,85,85)" paint-order="fill stroke markers" d="" fill-opacity="0.5" stroke-opacity="1" stroke-miterlimit="10" stroke-width="3.25"/><text fill="rgb(0,0,0)" stroke="none" font-family="Helvetica" font-size="14px" font-style="normal" font-weight="normal" text-decoration="normal" x="589.3099100340514" y="148.125" text-anchor="middle" dominant-baseline="text-after-edge" fill-opacity="1">extracellular</text><path fill="rgb(198,219,239)" stroke="rgb(85,85,85)" paint-order="fill stroke markers" d=" M 345.375 93.575430295361 L 333.375 105.575430295361 L 333.375 197.42456970463905 L 345.375 209.42456970463905 L 414.625 209.42456970463905 L 426.625 197.42456970463905 L 426.625 105.575430295361 L 414.625 93.575430295361 Z" fill-opacity="0.5" stroke-opacity="1" stroke-miterlimit="10" stroke-width="1.25"/><path fill="rgb(198,219,239)" stroke="rgb(85,85,85)" paint-order="fill stroke markers" d="" fill-opacity="0.5" stroke-opacity="1" stroke-miterlimit="10" stroke-width="1.25"/><text fill="rgb(0,0,0)" stroke="none" font-family="Helvetica" font-size="11px" font-style="normal" font-weight="normal" text-decoration="normal" x="380" y="210.42456970463905" text-anchor="middle" dominant-baseline="text-after-edge" fill-opacity="1">IGF</text><path fill="rgb(198,219,239)" stroke="rgb(85,85,85)" paint-order="fill stroke markers" d=" M 236.1666541344378 497.532960330186 L 224.1666541344378 509.532960330186 L 224.1666541344378 552.306669444103 L 236.1666541344378 564.306669444103 L 392.40804822721833 564.306669444103 L 404.40804822721833 552.306669444103 L 404.40804822721833 509.532960330186 L 392.40804822721833 497.532960330186 Z" fill-opacity="0.5" stroke-opacity="1" stroke-miterlimit="10" stroke-width="1.25"/><path fill="rgb(198,219,239)" stroke="rgb(85,85,85)" paint-order="fill stroke markers" d="" fill-opacity="0.5" stroke-opacity="1" stroke-miterlimit="10" stroke-width="1.25"/><text fill="rgb(0,0,0)" stroke="none" font-family="Helvetica" font-size="11px" font-style="normal" font-weight="normal" text-decoration="normal" x="314.28735118082807" y="565.306669444103" text-anchor="middle" dominant-baseline="text-after-edge" fill-opacity="1">SOS</text><path fill="none" stroke="rgb(85,85,85)" paint-order="fill stroke markers" d=" M 221.40490701458214 218.94018094175615 L 254.49446187725965 182.58314255887925" stroke-opacity="1" stroke-linejoin="round" stroke-miterlimit="10" stroke-width="1.25"/><path fill="none" stroke="rgb(85,85,85)" paint-order="fill stroke markers" d=" M 270.74446187725965 182.58314255887925 L 329.85412144949294 164.7789601807396" stroke-opacity="1" stroke-linejoin="round" stroke-miterlimit="10" stroke-width="1.25"/><path fill="rgb(85,85,85)" stroke="none" paint-order="stroke fill markers" d=" M 324.0105026027837 172.30083331231168 L 332.875 163.97901156796118 L 320.8988441661898 161.88050669679842 Z" fill-opacity="1"/><path fill="none" stroke="rgb(85,85,85)" paint-order="fill stroke markers" d=" M 216.28110074444538 128 L 254.49446187725965 182.58314255887925" stroke-opacity="1" stroke-linejoin="round" stroke-miterlimit="10" stroke-width="1.25"/><path fill="none" stroke="rgb(85,85,85)" paint-order="fill stroke markers" d=" M 311.24408272289725 269 L 371.87499999999994 269" stroke-opacity="1" stroke-linejoin="round" stroke-miterlimit="10" stroke-width="1.25"/><path fill="none" stroke="rgb(85,85,85)" paint-order="fill stroke markers" d=" M 388.12499999999994 269 L 445.30547364657326 269" stroke-opacity="1" stroke-linejoin="round" stroke-miterlimit="10" stroke-width="1.25"/><path fill="rgb(85,85,85)" stroke="none" paint-order="stroke fill markers" d=" M 437.55547364657326 274.4375 L 448.43047364657326 269 L 437.55547364657326 263.5625 Z" fill-opacity="1"/><path fill="none" stroke="rgb(85,85,85)" paint-order="fill stroke markers" d=" M 549.7289311704909 396.97527762533247 L 497.9584143311141 396.9752776253324" stroke-opacity="1" stroke-linejoin="round" stroke-miterlimit="10" stroke-width="1.25"/><path fill="none" stroke="rgb(85,85,85)" paint-order="fill stroke markers" d=" M 250.71984067236775 629 L 304.875 629" stroke-opacity="1" stroke-linejoin="round" stroke-miterlimit="10" stroke-width="1.25"/><path fill="none" stroke="rgb(85,85,85)" paint-order="fill stroke markers" d=" M 314.2873511808281 458.5448141513982 L 314.28735118082807 493.907960330186" stroke-opacity="1" stroke-linejoin="round" stroke-miterlimit="10" stroke-width="1.25"/><path fill="rgb(85,85,85)" stroke="none" paint-order="stroke fill markers" d=" M 308.84985118082807 486.157960330186 L 314.28735118082807 497.032960330186 L 319.72485118082807 486.157960330186 Z" fill-opacity="1"/><path fill="none" stroke="rgb(85,85,85)" paint-order="fill stroke markers" d=" M 313.842569371146 564.806669444103 L 313.11718840525276 620.0716977220789" stroke-opacity="1" stroke-linejoin="round" stroke-miterlimit="10" stroke-width="1.25"/><path fill="rgb(255,255,255)" stroke="rgb(255,255,255)" paint-order="fill stroke markers" d=" M 307.7818705683731 612.2510014724171 L 313.0761747596927 623.1964285714286 L 318.6559339241101 612.393728958966 Z" fill-opacity="1" stroke-opacity="1" stroke-miterlimit="10"/><path fill="none" stroke="rgb(85,85,85)" paint-order="fill stroke markers" d=" M 307.7818705683731 612.2510014724171 L 313.0761747596927 623.1964285714286 L 318.6559339241101 612.393728958966 Z" stroke-opacity="1" stroke-miterlimit="10"/><path fill="none" stroke="rgb(85,85,85)" paint-order="fill stroke markers" d=" M 243.0503466729695 679.0006091394025 L 304.875 629" stroke-opacity="1" stroke-linejoin="round" stroke-miterlimit="10" stroke-width="1.25"/><path fill="none" stroke="rgb(85,85,85)" paint-order="fill stroke markers" d=" M 321.125 629 L 377.8734687982842 677.1553568270281" stroke-opacity="1" stroke-linejoin="round" stroke-miterlimit="10" stroke-width="1.25"/><path fill="rgb(85,85,85)" stroke="none" paint-order="stroke fill markers" d=" M 368.56158533693764 676.1731622172834 L 380.3827164361595 679.0179628755035 L 375.56587830320245 667.8541776011939 Z" fill-opacity="1"/><path fill="none" stroke="rgb(85,85,85)" paint-order="fill stroke markers" d=" M 321.125 629 L 375.44723445937456 629" stroke-opacity="1" stroke-linejoin="round" stroke-miterlimit="10" stroke-width="1.25"/><path fill="rgb(85,85,85)" stroke="none" paint-order="stroke fill markers" d=" M 367.69723445937456 634.4375 L 378.57223445937456 629 L 367.69723445937456 623.5625 Z" fill-opacity="1"/><path fill="none" stroke="rgb(85,85,85)" paint-order="fill stroke markers" d=" M 776.2047086187061 560.7517169700867 L 807.1668447138634 522.2248413838163" stroke-opacity="1" stroke-linejoin="round" stroke-miterlimit="10" stroke-width="1.25"/><path fill="rgb(85,85,85)" stroke="none" paint-order="stroke fill markers" d=" M 806.6997370356701 531.8878412887598 L 809.3924463100178 520.0311407353241 L 798.2914603026607 524.9909936479073 Z" fill-opacity="1"/><path fill="none" stroke="rgb(85,85,85)" paint-order="fill stroke markers" d=" M 724.211002993113 519.6871281056508 L 759.9547086187061 560.7517169700867" stroke-opacity="1" stroke-linejoin="round" stroke-miterlimit="10" stroke-width="1.25"/><path fill="none" stroke="rgb(85,85,85)" paint-order="fill stroke markers" d=" M 877.4546883066769 677.8573766260579 L 932.6443525974161 631.0187269476119" stroke-opacity="1" stroke-linejoin="round" stroke-miterlimit="10" stroke-width="1.25"/><path fill="rgb(85,85,85)" stroke="none" paint-order="stroke fill markers" d=" M 930.3382161734338 640.3233128593625 L 935.1566279585732 629.1602067002852 L 923.3350959602277 632.0033409676201 Z" fill-opacity="1"/><path fill="none" stroke="rgb(85,85,85)" paint-order="fill stroke markers" d=" M 812.6306564982983 630.0789330281403 L 861.2046883066769 677.8573766260579" stroke-opacity="1" stroke-linejoin="round" stroke-miterlimit="10" stroke-width="1.25"/><path fill="none" stroke="rgb(85,85,85)" paint-order="fill stroke markers" d=" M 776.2047086187061 560.7517169700867 L 830.235723685416 560.7517169700867" stroke-opacity="1" stroke-linejoin="round" stroke-miterlimit="10" stroke-width="1.25"/><path fill="rgb(85,85,85)" stroke="none" paint-order="stroke fill markers" d=" M 822.485723685416 566.1892169700867 L 833.360723685416 560.7517169700867 L 822.485723685416 555.3142169700867 Z" fill-opacity="1"/><path fill="none" stroke="rgb(85,85,85)" paint-order="fill stroke markers" d=" M 868.932806992128 578.7517169700867 L 869.293932798535 668.9288302550704" stroke-opacity="1" stroke-linejoin="round" stroke-miterlimit="10" stroke-width="1.25"/><path fill="rgb(255,255,255)" stroke="rgb(255,255,255)" paint-order="fill stroke markers" d=" M 874.7221721701928 666.6163487976826 A 5.4375 5.4375 0 1 1 874.722169451443 666.6109112985888 Z" fill-opacity="1" stroke-opacity="1" stroke-miterlimit="10"/><path fill="none" stroke="rgb(85,85,85)" paint-order="fill stroke markers" d=" M 874.7221721701928 666.6163487976826 A 5.4375 5.4375 0 1 1 874.722169451443 666.6109112985888 Z" stroke-opacity="1" stroke-miterlimit="10"/><path fill="none" stroke="rgb(85,85,85)" paint-order="fill stroke markers" d=" M 981.5364203691795 695.8573766260579 L 981.5364203691795 742.0204994780389" stroke-opacity="1" stroke-linejoin="round" stroke-miterlimit="10" stroke-width="1.25"/><path fill="rgb(255,255,255)" stroke="rgb(255,255,255)" paint-order="fill stroke markers" d=" M 976.0989203691795 734.2704994780389 L 981.5364203691795 745.1454994780389 L 986.9739203691795 734.2704994780389 Z" fill-opacity="1" stroke-opacity="1" stroke-miterlimit="10"/><path fill="none" stroke="rgb(85,85,85)" paint-order="fill stroke markers" d=" M 976.0989203691795 734.2704994780389 L 981.5364203691795 745.1454994780389 L 986.9739203691795 734.2704994780389 Z" stroke-opacity="1" stroke-miterlimit="10"/><path fill="none" stroke="rgb(85,85,85)" paint-order="fill stroke markers" d=" M 877.4546883066769 677.8573766260579 L 942.9114203691795 677.8573766260579" stroke-opacity="1" stroke-linejoin="round" stroke-miterlimit="10" stroke-width="1.25"/><path fill="rgb(85,85,85)" stroke="none" paint-order="stroke fill markers" d=" M 935.1614203691795 683.2948766260579 L 946.0364203691795 677.8573766260579 L 935.1614203691795 672.4198766260579 Z" fill-opacity="1"/><path fill="none" stroke="rgb(85,85,85)" paint-order="fill stroke markers" d=" M 489.0939457427128 345.8857199034844 L 489.7041872172446 388.0470334824158" stroke-opacity="1" stroke-linejoin="round" stroke-miterlimit="10" stroke-width="1.25"/><path fill="rgb(255,255,255)" stroke="rgb(255,255,255)" paint-order="fill stroke markers" d=" M 484.1550951956858 380.37653910550165 L 489.7494136279697 391.17170619676097 L 495.0289562416068 380.21915119617825 Z" fill-opacity="1" stroke-opacity="1" stroke-miterlimit="10"/><path fill="none" stroke="rgb(85,85,85)" paint-order="fill stroke markers" d=" M 484.1550951956858 380.37653910550165 L 489.7494136279697 391.17170619676097 L 495.0289562416068 380.21915119617825 Z" stroke-opacity="1" stroke-miterlimit="10"/><path fill="none" stroke="rgb(85,85,85)" paint-order="fill stroke markers" d=" M 388.12499999999994 269 L 454.87709856113463 309.51321811555107" stroke-opacity="1" stroke-linejoin="round" stroke-miterlimit="10" stroke-width="1.25"/><path fill="rgb(85,85,85)" stroke="none" paint-order="stroke fill markers" d=" M 445.5049212197212 310.04029563443294 L 457.62558064826203 311.00031973169564 L 451.1212042689477 300.7277777305054 Z" fill-opacity="1"/><path fill="none" stroke="rgb(85,85,85)" paint-order="fill stroke markers" d=" M 732.2098600697776 612.1791701606948 L 762.2440678736467 569.1184136079155" stroke-opacity="1" stroke-linejoin="round" stroke-miterlimit="10" stroke-width="1.25"/><path fill="rgb(255,255,255)" stroke="rgb(255,255,255)" paint-order="fill stroke markers" d=" M 766.3586403038493 571.015126262766 A 5.4375 5.4375 0 1 1 766.3586375850995 571.0096887636722 Z" fill-opacity="1" stroke-opacity="1" stroke-miterlimit="10"/><path fill="none" stroke="rgb(85,85,85)" paint-order="fill stroke markers" d=" M 766.3586403038493 571.015126262766 A 5.4375 5.4375 0 1 1 766.3586375850995 571.0096887636722 Z" stroke-opacity="1" stroke-miterlimit="10"/><path fill="none" stroke="rgb(85,85,85)" paint-order="fill stroke markers" d=" M 811.7260665817881 677.8573766260579 L 861.2046883066769 677.8573766260579" stroke-opacity="1" stroke-linejoin="round" stroke-miterlimit="10" stroke-width="1.25"/><path fill="none" stroke="rgb(85,85,85)" paint-order="fill stroke markers" d=" M 310.2169786434224 310.31696698847406 L 371.87499999999994 269" stroke-opacity="1" stroke-linejoin="round" stroke-miterlimit="10" stroke-width="1.25"/><path fill="none" stroke="rgb(85,85,85)" paint-order="fill stroke markers" d=" M 380 209.92456970463905 L 379.99999999999994 260.07142857142856" stroke-opacity="1" stroke-linejoin="round" stroke-miterlimit="10" stroke-width="1.25"/><path fill="rgb(255,255,255)" stroke="rgb(255,255,255)" paint-order="fill stroke markers" d=" M 385.43749999999994 257.75892857142856 A 5.4375 5.4375 0 1 1 385.43749728125016 257.7534910723348 Z" fill-opacity="1" stroke-opacity="1" stroke-miterlimit="10"/><path fill="none" stroke="rgb(85,85,85)" paint-order="fill stroke markers" d=" M 385.43749999999994 257.75892857142856 A 5.4375 5.4375 0 1 1 385.43749728125016 257.7534910723348 Z" stroke-opacity="1" stroke-miterlimit="10"/><path fill="none" stroke="rgb(85,85,85)" paint-order="fill stroke markers" d=" M 683.418215855997 560.7517169700867 L 759.9547086187061 560.7517169700867" stroke-opacity="1" stroke-linejoin="round" stroke-miterlimit="10" stroke-width="1.25"/><path fill="none" stroke="rgb(85,85,85)" paint-order="fill stroke markers" d=" M 265.7762177096534 414.9752776253324 L 314.2873511808281 442.2948141513982" stroke-opacity="1" stroke-linejoin="round" stroke-miterlimit="10" stroke-width="1.25"/><path fill="none" stroke="rgb(85,85,85)" paint-order="fill stroke markers" d=" M 362.38338342842746 414.9752776253324 L 314.2873511808281 442.2948141513982" stroke-opacity="1" stroke-linejoin="round" stroke-miterlimit="10" stroke-width="1.25"/><path fill="none" stroke="rgb(85,85,85)" paint-order="fill stroke markers" d=" M 481.7084143311141 396.9752776253324 L 425.43326425089595 396.9752776253324" stroke-opacity="1" stroke-linejoin="round" stroke-miterlimit="10" stroke-width="1.25"/><path fill="rgb(85,85,85)" stroke="none" paint-order="stroke fill markers" d=" M 433.18326425089595 391.5377776253324 L 422.30826425089595 396.9752776253324 L 433.18326425089595 402.4127776253324 Z" fill-opacity="1"/><path fill="none" stroke="rgb(85,85,85)" paint-order="fill stroke markers" d=" M 449.57223445937456 629.2699038604648 L 511.91658920149246 629.7439033540727" stroke-opacity="1" stroke-linejoin="round" stroke-miterlimit="10" stroke-width="1.25"/><path fill="rgb(255,255,255)" stroke="rgb(255,255,255)" paint-order="fill stroke markers" d=" M 515.0416560350232 629.7263220966446 A 5.4375 5.4375 0 1 1 515.0416533162734 629.7208845975508 Z" fill-opacity="1" stroke-opacity="1" stroke-miterlimit="10"/><path fill="none" stroke="rgb(85,85,85)" paint-order="fill stroke markers" d=" M 515.0416560350232 629.7263220966446 A 5.4375 5.4375 0 1 1 515.0416533162734 629.7208845975508 Z" stroke-opacity="1" stroke-miterlimit="10"/><path fill="none" stroke="rgb(85,85,85)" paint-order="fill stroke markers" d=" M 623.2914988859104 630.1791701606948 L 681.0301400938986 630.1791701606948" stroke-opacity="1" stroke-linejoin="round" stroke-miterlimit="10" stroke-width="1.25"/><path fill="rgb(85,85,85)" stroke="none" paint-order="stroke fill markers" d=" M 673.2801400938986 635.6166701606948 L 684.1551400938986 630.1791701606948 L 673.2801400938986 624.7416701606948 Z" fill-opacity="1"/><path fill="rgb(158,202,225)" stroke="rgb(85,85,85)" paint-order="fill stroke markers" d=" M 201.00000000000003 219.44018094175615 L 228.00000000000003 219.44018094175615 L 228.00000000000003 219.44018094175615 A 8 8 0 0 1 236.00000000000003 227.44018094175615 L 236.00000000000003 246.44018094175615 L 236.00000000000003 246.44018094175615 A 8 8 0 0 1 228.00000000000003 254.44018094175615 L 174.00000000000003 254.44018094175615 L 174.00000000000003 254.44018094175615 A 8 8 0 0 1 166.00000000000003 246.44018094175615 L 166.00000000000003 227.44018094175615 L 166.00000000000003 227.44018094175615 A 8 8 0 0 1 174.00000000000003 219.44018094175615 L 201.00000000000003 219.44018094175615 Z" fill-opacity="0.5" stroke-opacity="1" stroke-miterlimit="10" stroke-width="1.25"/><path fill="rgb(158,202,225)" stroke="rgb(85,85,85)" paint-order="fill stroke markers" d="" fill-opacity="0.5" stroke-opacity="1" stroke-miterlimit="10" stroke-width="1.25"/><text fill="rgb(0,0,0)" stroke="none" font-family="Helvetica" font-size="11px" font-style="normal" font-weight="normal" text-decoration="normal" x="201.00000000000003" y="242.44018094175615" text-anchor="middle" dominant-baseline="text-after-edge" fill-opacity="1">IGFR</text><path fill="rgb(112,112,112)" stroke="rgb(85,85,85)" paint-order="fill stroke markers" d=" M 255.11946187725965 182.50814255887926 L 257.2623190201168 182.50814255887926 L 257.2623190201168 182.58314255887925 L 257.2916660092153 182.02316864851682 L 257.37938544475713 181.4693299294984 L 257.5245162542499 180.92769437472774 L 257.72546835417427 180.40419625668747 L 257.98004007127156 179.90457113030783 L 258.2854422645367 179.4342929930267 L 258.6383288836308 178.9985143105282 L 259.03483362890864 178.60200956525034 L 259.47061231140714 178.24912294615632 L 259.9408904486882 177.94372075289118 L 260.4405155750679 177.6891490357939 L 260.96401369310814 177.4881969358695 L 261.5056492478788 177.34306612637673 L 262.0594879668972 177.25534669083493 L 262.61946187725965 177.22599970173638 L 263.1794357876221 177.25534669083493 L 263.7332745066405 177.34306612637673 L 264.27491006141116 177.4881969358695 L 264.7984081794514 177.6891490357939 L 265.2980333058311 177.94372075289118 L 265.76831144311217 178.24912294615632 L 266.20409012561066 178.60200956525034 L 266.60059487088853 178.9985143105282 L 266.9534814899826 179.4342929930267 L 267.25888368324775 179.90457113030783 L 267.51345540034504 180.40419625668747 L 267.71440750026943 180.92769437472774 L 267.8595383097622 181.4693299294984 L 267.947257745304 182.02316864851682 L 267.9766047344025 182.50814255887926 L 270.11946187725965 182.50814255887926 L 270.11946187725965 182.65814255887923 L 267.9766047344025 182.65814255887923 L 267.9766047344025 182.58314255887925 L 267.947257745304 183.14311646924168 L 267.8595383097622 183.6969551882601 L 267.71440750026943 184.23859074303076 L 267.51345540034504 184.76208886107102 L 267.2588836832477 185.2617139874507 L 266.9534814899826 185.7319921247318 L 266.60059487088853 186.16777080723028 L 266.20409012561066 186.56427555250815 L 265.76831144311217 186.91716217160217 L 265.2980333058311 187.2225643648673 L 264.7984081794514 187.4771360819646 L 264.27491006141116 187.678088181889 L 263.7332745066405 187.82321899138176 L 263.1794357876221 187.91093842692356 L 262.61946187725965 187.9402854160221 L 262.0594879668972 187.91093842692356 L 261.5056492478788 187.82321899138176 L 260.96401369310814 187.678088181889 L 260.4405155750679 187.4771360819646 L 259.9408904486882 187.2225643648673 L 259.47061231140714 186.91716217160217 L 259.03483362890864 186.56427555250815 L 258.6383288836308 186.16777080723028 L 258.2854422645367 185.7319921247318 L 257.98004007127156 185.26171398745066 L 257.72546835417427 184.76208886107102 L 257.5245162542499 184.23859074303076 L 257.37938544475713 183.6969551882601 L 257.2916660092153 183.14311646924168 L 257.2623190201168 182.65814255887923 L 255.11946187725965 182.65814255887923 Z" fill-opacity="0.5" stroke-opacity="1" stroke-miterlimit="10" stroke-width="1.25"/><path fill="rgb(158,202,225)" stroke="rgb(85,85,85)" paint-order="fill stroke markers" d=" M 292.74408272289725 251.5 L 292.74408272289725 251.5 L 292.74408272289725 251.5 A 17.5 17.5 0 0 1 310.24408272289725 269 L 310.24408272289725 269 L 310.24408272289725 269 A 17.5 17.5 0 0 1 292.74408272289725 286.5 L 292.74408272289725 286.5 L 292.74408272289725 286.5 A 17.5 17.5 0 0 1 275.24408272289725 269 L 275.24408272289725 269 L 275.24408272289725 269 A 17.5 17.5 0 0 1 292.74408272289725 251.5 L 292.74408272289725 251.5 Z" fill-opacity="0.5" stroke-opacity="1" stroke-miterlimit="10" stroke-width="1.25"/><path fill="#a9a9a9" stroke="none" paint-order="stroke fill markers" d=" M 278.02165085856177 277.5 L 292.74408272289725 277.5 L 292.74408272289725 286 A 17 17 0 0 1 278.02165085856177 277.5 Z" fill-opacity="0.5"/><path fill="#a9a9a9" stroke="none" paint-order="stroke fill markers" d=" M 292.74408272289725 277.5 L 307.4665145872327 277.5 L 307.4665145872327 277.5 A 17 17 0 0 1 292.74408272289725 286 Z" fill-opacity="0.5"/><path fill="#a9a9a9" stroke="none" paint-order="stroke fill markers" d=" M 292.74408272289725 277.5 L 292.74408272289725 286 L 292.74408272289725 286 L 292.74408272289725 277.5 Z" fill-opacity="0.5"/><path fill="rgb(158,202,225)" stroke="rgb(85,85,85)" paint-order="fill stroke markers" d="" fill-opacity="0.5" stroke-opacity="1" stroke-miterlimit="10" stroke-width="1.25"/><text fill="rgb(0,0,0)" stroke="none" font-family="Helvetica" font-size="11px" font-style="normal" font-weight="normal" text-decoration="normal" x="292.74408272289725" y="274.5" text-anchor="middle" dominant-baseline="text-after-edge" fill-opacity="1">ATP</text><path fill="rgb(158,202,225)" stroke="rgb(85,85,85)" paint-order="fill stroke markers" d=" M 466.93047364657326 251.5 L 466.93047364657326 251.5 L 466.93047364657326 251.5 A 17.5 17.5 0 0 1 484.43047364657326 269 L 484.43047364657326 269 L 484.43047364657326 269 A 17.5 17.5 0 0 1 466.93047364657326 286.5 L 466.93047364657326 286.5 L 466.93047364657326 286.5 A 17.5 17.5 0 0 1 449.43047364657326 269 L 449.43047364657326 269 L 449.43047364657326 269 A 17.5 17.5 0 0 1 466.93047364657326 251.5 L 466.93047364657326 251.5 Z" fill-opacity="0.5" stroke-opacity="1" stroke-miterlimit="10" stroke-width="1.25"/><path fill="#a9a9a9" stroke="none" paint-order="stroke fill markers" d=" M 452.2080417822378 277.5 L 466.93047364657326 277.5 L 466.93047364657326 286 A 17 17 0 0 1 452.2080417822378 277.5 Z" fill-opacity="0.5"/><path fill="#a9a9a9" stroke="none" paint-order="stroke fill markers" d=" M 466.93047364657326 277.5 L 481.65290551090874 277.5 L 481.65290551090874 277.5 A 17 17 0 0 1 466.93047364657326 286 Z" fill-opacity="0.5"/><path fill="#a9a9a9" stroke="none" paint-order="stroke fill markers" d=" M 466.93047364657326 277.5 L 466.93047364657326 286 L 466.93047364657326 286 L 466.93047364657326 277.5 Z" fill-opacity="0.5"/><path fill="rgb(158,202,225)" stroke="rgb(85,85,85)" paint-order="fill stroke markers" d="" fill-opacity="0.5" stroke-opacity="1" stroke-miterlimit="10" stroke-width="1.25"/><text fill="rgb(0,0,0)" stroke="none" font-family="Helvetica" font-size="11px" font-style="normal" font-weight="normal" text-decoration="normal" x="466.93047364657326" y="274.5" text-anchor="middle" dominant-baseline="text-after-edge" fill-opacity="1">ADP</text><path fill="rgb(158,202,225)" stroke="rgb(85,85,85)" paint-order="fill stroke markers" d=" M 585.2289311704909 379.47527762533247 L 612.2289311704909 379.47527762533247 L 612.2289311704909 379.47527762533247 A 8 8 0 0 1 620.2289311704909 387.47527762533247 L 620.2289311704909 406.47527762533247 L 620.2289311704909 406.47527762533247 A 8 8 0 0 1 612.2289311704909 414.47527762533247 L 558.2289311704909 414.47527762533247 L 558.2289311704909 414.47527762533247 A 8 8 0 0 1 550.2289311704909 406.47527762533247 L 550.2289311704909 387.47527762533247 L 550.2289311704909 387.47527762533247 A 8 8 0 0 1 558.2289311704909 379.47527762533247 L 585.2289311704909 379.47527762533247 Z" fill-opacity="0.5" stroke-opacity="1" stroke-miterlimit="10" stroke-width="1.25"/><path fill="rgb(158,202,225)" stroke="rgb(85,85,85)" paint-order="fill stroke markers" d="" fill-opacity="0.5" stroke-opacity="1" stroke-miterlimit="10" stroke-width="1.25"/><text fill="rgb(0,0,0)" stroke="none" font-family="Helvetica" font-size="11px" font-style="normal" font-weight="normal" text-decoration="normal" x="585.2289311704909" y="402.47527762533247" text-anchor="middle" dominant-baseline="text-after-edge" fill-opacity="1">Grb2</text><path fill="rgb(158,202,225)" stroke="rgb(85,85,85)" paint-order="fill stroke markers" d=" M 215.21984067236775 611.5 L 242.21984067236775 611.5 L 242.21984067236775 611.5 A 8 8 0 0 1 250.21984067236775 619.5 L 250.21984067236775 638.5 L 250.21984067236775 638.5 A 8 8 0 0 1 242.21984067236775 646.5 L 188.21984067236775 646.5 L 188.21984067236775 646.5 A 8 8 0 0 1 180.21984067236775 638.5 L 180.21984067236775 619.5 L 180.21984067236775 619.5 A 8 8 0 0 1 188.21984067236775 611.5 L 215.21984067236775 611.5 Z" fill-opacity="0.5" stroke-opacity="1" stroke-miterlimit="10" stroke-width="1.25"/><path fill="rgb(158,202,225)" stroke="rgb(85,85,85)" paint-order="fill stroke markers" d="" fill-opacity="0.5" stroke-opacity="1" stroke-miterlimit="10" stroke-width="1.25"/><text fill="rgb(0,0,0)" stroke="none" font-family="Helvetica" font-size="11px" font-style="normal" font-weight="normal" text-decoration="normal" x="215.21984067236775" y="634.5" text-anchor="middle" dominant-baseline="text-after-edge" fill-opacity="1">RAS</text><path fill="rgb(158,202,225)" stroke="rgb(85,85,85)" paint-order="fill stroke markers" d=" M 271.37278184735214 517.3357972129285 L 298.37278184735214 517.3357972129285 L 298.37278184735214 517.3357972129285 A 8 8 0 0 1 306.37278184735214 525.3357972129285 L 306.37278184735214 544.3357972129285 L 306.37278184735214 544.3357972129285 A 8 8 0 0 1 298.37278184735214 552.3357972129285 L 244.37278184735214 552.3357972129285 L 244.37278184735214 552.3357972129285 A 8 8 0 0 1 236.37278184735214 544.3357972129285 L 236.37278184735214 525.3357972129285 L 236.37278184735214 525.3357972129285 A 8 8 0 0 1 244.37278184735214 517.3357972129285 L 271.37278184735214 517.3357972129285 Z" fill-opacity="0.5" stroke-opacity="1" stroke-miterlimit="10" stroke-width="1.25"/><path fill="rgb(158,202,225)" stroke="rgb(85,85,85)" paint-order="fill stroke markers" d="" fill-opacity="0.5" stroke-opacity="1" stroke-miterlimit="10" stroke-width="1.25"/><text fill="rgb(0,0,0)" stroke="none" font-family="Helvetica" font-size="11px" font-style="normal" font-weight="normal" text-decoration="normal" x="271.37278184735214" y="540.3357972129285" text-anchor="middle" dominant-baseline="text-after-edge" fill-opacity="1">SOS</text><path fill="rgb(158,202,225)" stroke="rgb(85,85,85)" paint-order="fill stroke markers" d=" M 357.20192051430405 517.3357972129285 L 384.20192051430405 517.3357972129285 L 384.20192051430405 517.3357972129285 A 8 8 0 0 1 392.20192051430405 525.3357972129285 L 392.20192051430405 544.3357972129285 L 392.20192051430405 544.3357972129285 A 8 8 0 0 1 384.20192051430405 552.3357972129285 L 330.20192051430405 552.3357972129285 L 330.20192051430405 552.3357972129285 A 8 8 0 0 1 322.20192051430405 544.3357972129285 L 322.20192051430405 525.3357972129285 L 322.20192051430405 525.3357972129285 A 8 8 0 0 1 330.20192051430405 517.3357972129285 L 357.20192051430405 517.3357972129285 Z" fill-opacity="0.5" stroke-opacity="1" stroke-miterlimit="10" stroke-width="1.25"/><path fill="#ffffff" stroke="rgb(85,85,85)" paint-order="fill stroke markers" d=" M 347.20192051430405 511.33579721292847 L 356.20192051430405 511.33579721292847 L 356.20192051430405 511.33579721292847 A 6 6 0 0 1 362.20192051430405 517.3357972129285 L 362.20192051430405 517.3357972129285 L 362.20192051430405 517.3357972129285 A 6 6 0 0 1 356.20192051430405 523.3357972129285 L 338.20192051430405 523.3357972129285 L 338.20192051430405 523.3357972129285 A 6 6 0 0 1 332.20192051430405 517.3357972129285 L 332.20192051430405 517.3357972129285 L 332.20192051430405 517.3357972129285 A 6 6 0 0 1 338.20192051430405 511.33579721292847 L 347.20192051430405 511.33579721292847 Z" stroke-opacity="1" stroke-miterlimit="10" stroke-width="1.25"/><text fill="#0f0f0f" stroke="none" font-family="Arial" font-size="9px" font-style="normal" font-weight="normal" text-decoration="normal" x="347.20192051430405" y="517.3357972129285" text-anchor="middle" dominant-baseline="central">active</text><path fill="rgb(158,202,225)" stroke="rgb(85,85,85)" paint-order="fill stroke markers" d="" fill-opacity="0.5" stroke-opacity="1" stroke-miterlimit="10" stroke-width="1.25"/><text fill="rgb(0,0,0)" stroke="none" font-family="Helvetica" font-size="11px" font-style="normal" font-weight="normal" text-decoration="normal" x="357.20192051430405" y="540.3357972129285" text-anchor="middle" dominant-baseline="text-after-edge" fill-opacity="1">Grb2</text><path fill="rgb(158,202,225)" stroke="rgb(85,85,85)" paint-order="fill stroke markers" d=" M 227.99999999999997 672.2587253789417 L 227.99999999999997 672.2587253789417 L 227.99999999999997 672.2587253789417 A 17.5 17.5 0 0 1 245.49999999999997 689.7587253789417 L 245.49999999999997 689.7587253789417 L 245.49999999999997 689.7587253789417 A 17.5 17.5 0 0 1 227.99999999999997 707.2587253789417 L 227.99999999999997 707.2587253789417 L 227.99999999999997 707.2587253789417 A 17.5 17.5 0 0 1 210.49999999999997 689.7587253789417 L 210.49999999999997 689.7587253789417 L 210.49999999999997 689.7587253789417 A 17.5 17.5 0 0 1 227.99999999999997 672.2587253789417 L 227.99999999999997 672.2587253789417 Z" fill-opacity="0.5" stroke-opacity="1" stroke-miterlimit="10" stroke-width="1.25"/><path fill="rgb(158,202,225)" stroke="rgb(85,85,85)" paint-order="fill stroke markers" d="" fill-opacity="0.5" stroke-opacity="1" stroke-miterlimit="10" stroke-width="1.25"/><text fill="rgb(0,0,0)" stroke="none" font-family="Helvetica" font-size="11px" font-style="normal" font-weight="normal" text-decoration="normal" x="227.99999999999997" y="695.2587253789417" text-anchor="middle" dominant-baseline="text-after-edge" fill-opacity="1">GTP</text><path fill="rgb(255,255,255)" stroke="rgb(85,85,85)" paint-order="fill stroke markers" d=" M 305.5 628.925 L 307.64285714285717 628.925 L 307.64285714285717 623.6428571428571 L 318.35714285714283 623.6428571428571 L 318.35714285714283 628.925 L 320.5 628.925 L 320.5 629.075 L 318.35714285714283 629.075 L 318.35714285714283 634.3571428571429 L 307.64285714285717 634.3571428571429 L 307.64285714285717 629.075 L 305.5 629.075 Z" fill-opacity="0.5" stroke-opacity="1" stroke-miterlimit="10" stroke-width="1.25"/><path fill="rgb(158,202,225)" stroke="rgb(85,85,85)" paint-order="fill stroke markers" d=" M 395.2374624523814 672.5445906824777 L 395.2374624523814 672.5445906824777 L 395.2374624523814 672.5445906824777 A 17.5 17.5 0 0 1 412.7374624523814 690.0445906824777 L 412.7374624523814 690.0445906824777 L 412.7374624523814 690.0445906824777 A 17.5 17.5 0 0 1 395.2374624523814 707.5445906824777 L 395.2374624523814 707.5445906824777 L 395.2374624523814 707.5445906824777 A 17.5 17.5 0 0 1 377.7374624523814 690.0445906824777 L 377.7374624523814 690.0445906824777 L 377.7374624523814 690.0445906824777 A 17.5 17.5 0 0 1 395.2374624523814 672.5445906824777 L 395.2374624523814 672.5445906824777 Z" fill-opacity="0.5" stroke-opacity="1" stroke-miterlimit="10" stroke-width="1.25"/><path fill="rgb(158,202,225)" stroke="rgb(85,85,85)" paint-order="fill stroke markers" d="" fill-opacity="0.5" stroke-opacity="1" stroke-miterlimit="10" stroke-width="1.25"/><text fill="rgb(0,0,0)" stroke="none" font-family="Helvetica" font-size="11px" font-style="normal" font-weight="normal" text-decoration="normal" x="395.2374624523814" y="695.5445906824777" text-anchor="middle" dominant-baseline="text-after-edge" fill-opacity="1">GDP</text><path fill="rgb(158,202,225)" stroke="rgb(85,85,85)" paint-order="fill stroke markers" d=" M 822.568007759252 489.5444328962507 L 822.568007759252 489.5444328962507 L 822.568007759252 489.5444328962507 A 17.5 17.5 0 0 1 840.068007759252 507.0444328962507 L 840.068007759252 507.0444328962508 L 840.068007759252 507.0444328962508 A 17.5 17.5 0 0 1 822.568007759252 524.5444328962508 L 822.568007759252 524.5444328962508 L 822.568007759252 524.5444328962508 A 17.5 17.5 0 0 1 805.068007759252 507.0444328962508 L 805.068007759252 507.0444328962507 L 805.068007759252 507.0444328962507 A 17.5 17.5 0 0 1 822.568007759252 489.5444328962507 L 822.568007759252 489.5444328962507 Z" fill-opacity="0.5" stroke-opacity="1" stroke-miterlimit="10" stroke-width="1.25"/><path fill="#a9a9a9" stroke="none" paint-order="stroke fill markers" d=" M 807.8455758949166 515.5444328962508 L 822.568007759252 515.5444328962508 L 822.568007759252 524.0444328962508 A 17 17 0 0 1 807.8455758949166 515.5444328962507 Z" fill-opacity="0.5"/><path fill="#a9a9a9" stroke="none" paint-order="stroke fill markers" d=" M 822.568007759252 515.5444328962508 L 837.2904396235875 515.5444328962508 L 837.2904396235875 515.5444328962507 A 17 17 0 0 1 822.568007759252 524.0444328962508 Z" fill-opacity="0.5"/><path fill="#a9a9a9" stroke="none" paint-order="stroke fill markers" d=" M 822.568007759252 515.5444328962508 L 822.568007759252 524.0444328962508 L 822.568007759252 524.0444328962508 L 822.568007759252 515.5444328962508 Z" fill-opacity="0.5"/><path fill="rgb(158,202,225)" stroke="rgb(85,85,85)" paint-order="fill stroke markers" d="" fill-opacity="0.5" stroke-opacity="1" stroke-miterlimit="10" stroke-width="1.25"/><text fill="rgb(0,0,0)" stroke="none" font-family="Helvetica" font-size="11px" font-style="normal" font-weight="normal" text-decoration="normal" x="822.568007759252" y="512.5444328962508" text-anchor="middle" dominant-baseline="text-after-edge" fill-opacity="1">ADP</text><path fill="rgb(158,202,225)" stroke="rgb(85,85,85)" paint-order="fill stroke markers" d=" M 710.7049947803873 489.5444328962507 L 710.7049947803873 489.5444328962507 L 710.7049947803873 489.5444328962507 A 17.5 17.5 0 0 1 728.2049947803873 507.0444328962507 L 728.2049947803873 507.0444328962508 L 728.2049947803873 507.0444328962508 A 17.5 17.5 0 0 1 710.7049947803873 524.5444328962508 L 710.7049947803873 524.5444328962508 L 710.7049947803873 524.5444328962508 A 17.5 17.5 0 0 1 693.2049947803873 507.0444328962508 L 693.2049947803873 507.0444328962507 L 693.2049947803873 507.0444328962507 A 17.5 17.5 0 0 1 710.7049947803873 489.5444328962507 L 710.7049947803873 489.5444328962507 Z" fill-opacity="0.5" stroke-opacity="1" stroke-miterlimit="10" stroke-width="1.25"/><path fill="#a9a9a9" stroke="none" paint-order="stroke fill markers" d=" M 695.9825629160518 515.5444328962508 L 710.7049947803873 515.5444328962508 L 710.7049947803873 524.0444328962508 A 17 17 0 0 1 695.9825629160518 515.5444328962507 Z" fill-opacity="0.5"/><path fill="#a9a9a9" stroke="none" paint-order="stroke fill markers" d=" M 710.7049947803873 515.5444328962508 L 725.4274266447228 515.5444328962508 L 725.4274266447228 515.5444328962507 A 17 17 0 0 1 710.7049947803873 524.0444328962508 Z" fill-opacity="0.5"/><path fill="#a9a9a9" stroke="none" paint-order="stroke fill markers" d=" M 710.7049947803873 515.5444328962508 L 710.7049947803873 524.0444328962508 L 710.7049947803873 524.0444328962508 L 710.7049947803873 515.5444328962508 Z" fill-opacity="0.5"/><path fill="rgb(158,202,225)" stroke="rgb(85,85,85)" paint-order="fill stroke markers" d="" fill-opacity="0.5" stroke-opacity="1" stroke-miterlimit="10" stroke-width="1.25"/><text fill="rgb(0,0,0)" stroke="none" font-family="Helvetica" font-size="11px" font-style="normal" font-weight="normal" text-decoration="normal" x="710.7049947803873" y="512.5444328962508" text-anchor="middle" dominant-baseline="text-after-edge" fill-opacity="1">ATP</text><path fill="rgb(158,202,225)" stroke="rgb(85,85,85)" paint-order="fill stroke markers" d=" M 950.029298096623 600.6577668361115 L 950.029298096623 600.6577668361115 L 950.029298096623 600.6577668361115 A 17.5 17.5 0 0 1 967.529298096623 618.1577668361115 L 967.529298096623 618.1577668361115 L 967.529298096623 618.1577668361115 A 17.5 17.5 0 0 1 950.029298096623 635.6577668361115 L 950.029298096623 635.6577668361115 L 950.029298096623 635.6577668361115 A 17.5 17.5 0 0 1 932.529298096623 618.1577668361115 L 932.529298096623 618.1577668361115 L 932.529298096623 618.1577668361115 A 17.5 17.5 0 0 1 950.029298096623 600.6577668361115 L 950.029298096623 600.6577668361115 Z" fill-opacity="0.5" stroke-opacity="1" stroke-miterlimit="10" stroke-width="1.25"/><path fill="#a9a9a9" stroke="none" paint-order="stroke fill markers" d=" M 935.3068662322876 626.6577668361115 L 950.029298096623 626.6577668361115 L 950.029298096623 635.1577668361115 A 17 17 0 0 1 935.3068662322876 626.6577668361115 Z" fill-opacity="0.5"/><path fill="#a9a9a9" stroke="none" paint-order="stroke fill markers" d=" M 950.029298096623 626.6577668361115 L 964.7517299609585 626.6577668361115 L 964.7517299609585 626.6577668361115 A 17 17 0 0 1 950.029298096623 635.1577668361115 Z" fill-opacity="0.5"/><path fill="#a9a9a9" stroke="none" paint-order="stroke fill markers" d=" M 950.029298096623 626.6577668361115 L 950.029298096623 635.1577668361115 L 950.029298096623 635.1577668361115 L 950.029298096623 626.6577668361115 Z" fill-opacity="0.5"/><path fill="rgb(158,202,225)" stroke="rgb(85,85,85)" paint-order="fill stroke markers" d="" fill-opacity="0.5" stroke-opacity="1" stroke-miterlimit="10" stroke-width="1.25"/><text fill="rgb(0,0,0)" stroke="none" font-family="Helvetica" font-size="11px" font-style="normal" font-weight="normal" text-decoration="normal" x="950.029298096623" y="623.6577668361115" text-anchor="middle" dominant-baseline="text-after-edge" fill-opacity="1">ADP</text><path fill="rgb(158,202,225)" stroke="rgb(85,85,85)" paint-order="fill stroke markers" d=" M 798.4837205536484 600.6577668361115 L 798.4837205536484 600.6577668361115 L 798.4837205536484 600.6577668361115 A 17.5 17.5 0 0 1 815.9837205536484 618.1577668361115 L 815.9837205536484 618.1577668361115 L 815.9837205536484 618.1577668361115 A 17.5 17.5 0 0 1 798.4837205536484 635.6577668361115 L 798.4837205536484 635.6577668361115 L 798.4837205536484 635.6577668361115 A 17.5 17.5 0 0 1 780.9837205536484 618.1577668361115 L 780.9837205536484 618.1577668361115 L 780.9837205536484 618.1577668361115 A 17.5 17.5 0 0 1 798.4837205536484 600.6577668361115 L 798.4837205536484 600.6577668361115 Z" fill-opacity="0.5" stroke-opacity="1" stroke-miterlimit="10" stroke-width="1.25"/><path fill="#a9a9a9" stroke="none" paint-order="stroke fill markers" d=" M 783.7612886893129 626.6577668361115 L 798.4837205536484 626.6577668361115 L 798.4837205536484 635.1577668361115 A 17 17 0 0 1 783.7612886893129 626.6577668361115 Z" fill-opacity="0.5"/><path fill="#a9a9a9" stroke="none" paint-order="stroke fill markers" d=" M 798.4837205536484 626.6577668361115 L 813.2061524179838 626.6577668361115 L 813.2061524179838 626.6577668361115 A 17 17 0 0 1 798.4837205536484 635.1577668361115 Z" fill-opacity="0.5"/><path fill="#a9a9a9" stroke="none" paint-order="stroke fill markers" d=" M 798.4837205536484 626.6577668361115 L 798.4837205536484 635.1577668361115 L 798.4837205536484 635.1577668361115 L 798.4837205536484 626.6577668361115 Z" fill-opacity="0.5"/><path fill="rgb(158,202,225)" stroke="rgb(85,85,85)" paint-order="fill stroke markers" d="" fill-opacity="0.5" stroke-opacity="1" stroke-miterlimit="10" stroke-width="1.25"/><text fill="rgb(0,0,0)" stroke="none" font-family="Helvetica" font-size="11px" font-style="normal" font-weight="normal" text-decoration="normal" x="798.4837205536484" y="623.6577668361115" text-anchor="middle" dominant-baseline="text-after-edge" fill-opacity="1">ATP</text><path fill="rgb(158,202,225)" stroke="rgb(85,85,85)" paint-order="fill stroke markers" d=" M 868.860723685416 543.2517169700867 L 895.860723685416 543.2517169700867 L 895.860723685416 543.2517169700867 A 8 8 0 0 1 903.860723685416 551.2517169700867 L 903.860723685416 570.2517169700867 L 903.860723685416 570.2517169700867 A 8 8 0 0 1 895.860723685416 578.2517169700867 L 841.860723685416 578.2517169700867 L 841.860723685416 578.2517169700867 A 8 8 0 0 1 833.860723685416 570.2517169700867 L 833.860723685416 551.2517169700867 L 833.860723685416 551.2517169700867 A 8 8 0 0 1 841.860723685416 543.2517169700867 L 868.860723685416 543.2517169700867 Z" fill-opacity="0.5" stroke-opacity="1" stroke-miterlimit="10" stroke-width="1.25"/><path fill="rgb(158,202,225)" stroke="rgb(85,85,85)" paint-order="fill stroke markers" d="" fill-opacity="0.5" stroke-opacity="1" stroke-miterlimit="10" stroke-width="1.25"/><text fill="rgb(0,0,0)" stroke="none" font-family="Helvetica" font-size="11px" font-style="normal" font-weight="normal" text-decoration="normal" x="868.860723685416" y="566.2517169700867" text-anchor="middle" dominant-baseline="text-after-edge" fill-opacity="1">RSK</text><path fill="rgb(158,202,225)" stroke="rgb(85,85,85)" paint-order="fill stroke markers" d=" M 981.5364203691795 660.3573766260579 L 1008.5364203691795 660.3573766260579 L 1008.5364203691795 660.3573766260579 A 8 8 0 0 1 1016.5364203691795 668.3573766260579 L 1016.5364203691795 687.3573766260579 L 1016.5364203691795 687.3573766260579 A 8 8 0 0 1 1008.5364203691795 695.3573766260579 L 954.5364203691795 695.3573766260579 L 954.5364203691795 695.3573766260579 A 8 8 0 0 1 946.5364203691795 687.3573766260579 L 946.5364203691795 668.3573766260579 L 946.5364203691795 668.3573766260579 A 8 8 0 0 1 954.5364203691795 660.3573766260579 L 981.5364203691795 660.3573766260579 Z" fill-opacity="0.5" stroke-opacity="1" stroke-miterlimit="10" stroke-width="1.25"/><path fill="rgb(158,202,225)" stroke="rgb(85,85,85)" paint-order="fill stroke markers" d="" fill-opacity="0.5" stroke-opacity="1" stroke-miterlimit="10" stroke-width="1.25"/><text fill="rgb(0,0,0)" stroke="none" font-family="Helvetica" font-size="11px" font-style="normal" font-weight="normal" text-decoration="normal" x="981.5364203691795" y="683.3573766260579" text-anchor="middle" dominant-baseline="text-after-edge" fill-opacity="1">c-Fos</text><path fill="rgb(158,202,225)" stroke="rgb(85,85,85)" paint-order="fill stroke markers" d=" M 964.0364203691795 745.7704994780389 L 946.5364203691795 763.2704994780389 L 964.0364203691795 780.7704994780389 L 999.0364203691795 780.7704994780389 L 1016.5364203691795 763.2704994780389 L 999.0364203691795 745.7704994780389 Z" fill-opacity="0.5" stroke-opacity="1" stroke-miterlimit="10" stroke-width="1.25"/><text fill="rgb(0,0,0)" stroke="none" font-family="Helvetica" font-size="11px" font-style="normal" font-weight="normal" text-decoration="normal" x="981.5364203691795" y="763.2704994780389" text-anchor="middle" dominant-baseline="text-after-edge" fill-opacity="1">gene</text><text fill="rgb(0,0,0)" stroke="none" font-family="Helvetica" font-size="11px" font-style="normal" font-weight="normal" text-decoration="normal" x="981.5364203691795" y="774.2704994780389" text-anchor="middle" dominant-baseline="text-after-edge" fill-opacity="1">transcription</text><path fill="rgb(158,202,225)" stroke="rgb(85,85,85)" paint-order="fill stroke markers" d=" M 488.8334143311141 310.3857199034844 L 515.8334143311141 310.3857199034844 L 515.8334143311141 310.3857199034844 A 8 8 0 0 1 523.8334143311141 318.3857199034844 L 523.8334143311141 337.3857199034844 L 523.8334143311141 337.3857199034844 A 8 8 0 0 1 515.8334143311141 345.3857199034844 L 461.8334143311141 345.3857199034844 L 461.8334143311141 345.3857199034844 A 8 8 0 0 1 453.8334143311141 337.3857199034844 L 453.8334143311141 318.3857199034844 L 453.8334143311141 318.3857199034844 A 8 8 0 0 1 461.8334143311141 310.3857199034844 L 488.8334143311141 310.3857199034844 Z" fill-opacity="0.5" stroke-opacity="1" stroke-miterlimit="10" stroke-width="1.25"/><path fill="rgb(158,202,225)" stroke="rgb(85,85,85)" paint-order="fill stroke markers" d="" fill-opacity="0.5" stroke-opacity="1" stroke-miterlimit="10" stroke-width="1.25"/><text fill="rgb(0,0,0)" stroke="none" font-family="Helvetica" font-size="11px" font-style="normal" font-weight="normal" text-decoration="normal" x="488.8334143311141" y="333.3857199034844" text-anchor="middle" dominant-baseline="text-after-edge" fill-opacity="1">IRS1-4</text><path fill="rgb(158,202,225)" stroke="rgb(85,85,85)" paint-order="fill stroke markers" d=" M 719.6551400938986 612.6791701606948 L 746.6551400938986 612.6791701606948 L 746.6551400938986 612.6791701606948 A 8 8 0 0 1 754.6551400938986 620.6791701606948 L 754.6551400938986 639.6791701606948 L 754.6551400938986 639.6791701606948 A 8 8 0 0 1 746.6551400938986 647.6791701606948 L 692.6551400938986 647.6791701606948 L 692.6551400938986 647.6791701606948 A 8 8 0 0 1 684.6551400938986 639.6791701606948 L 684.6551400938986 620.6791701606948 L 684.6551400938986 620.6791701606948 A 8 8 0 0 1 692.6551400938986 612.6791701606948 L 719.6551400938986 612.6791701606948 Z" fill-opacity="0.5" stroke-opacity="1" stroke-miterlimit="10" stroke-width="1.25"/><path fill="#ffffff" stroke="rgb(85,85,85)" paint-order="fill stroke markers" d=" M 709.6551400938986 606.6791701606948 L 718.6551400938986 606.6791701606948 L 718.6551400938986 606.6791701606948 A 6 6 0 0 1 724.6551400938986 612.6791701606948 L 724.6551400938986 612.6791701606948 L 724.6551400938986 612.6791701606948 A 6 6 0 0 1 718.6551400938986 618.6791701606948 L 700.6551400938986 618.6791701606948 L 700.6551400938986 618.6791701606948 A 6 6 0 0 1 694.6551400938986 612.6791701606948 L 694.6551400938986 612.6791701606948 L 694.6551400938986 612.6791701606948 A 6 6 0 0 1 700.6551400938986 606.6791701606948 L 709.6551400938986 606.6791701606948 Z" stroke-opacity="1" stroke-miterlimit="10" stroke-width="1.25"/><text fill="#0f0f0f" stroke="none" font-family="Arial" font-size="9px" font-style="normal" font-weight="normal" text-decoration="normal" x="709.6551400938986" y="612.6791701606948" text-anchor="middle" dominant-baseline="central">2P</text><path fill="rgb(158,202,225)" stroke="rgb(85,85,85)" paint-order="fill stroke markers" d="" fill-opacity="0.5" stroke-opacity="1" stroke-miterlimit="10" stroke-width="1.25"/><text fill="rgb(0,0,0)" stroke="none" font-family="Helvetica" font-size="11px" font-style="normal" font-weight="normal" text-decoration="normal" x="719.6551400938986" y="635.6791701606948" text-anchor="middle" dominant-baseline="text-after-edge" fill-opacity="1">ERK</text><path fill="rgb(239,243,255)" stroke="rgb(85,85,85)" paint-order="fill stroke markers" d=" M 516.1664988859104 610.1791701606948 L 516.1664988859104 650.1791701606948 L 622.1664988859104 650.1791701606948 L 622.1664988859104 610.1791701606948 Z" fill-opacity="0.5" stroke-opacity="1" stroke-miterlimit="10" stroke-width="2.25"/><text fill="rgb(0,0,0)" stroke="none" font-family="Helvetica" font-size="14px" font-style="normal" font-weight="normal" text-decoration="normal" x="569.1664988859104" y="650.1791701606948" text-anchor="middle" dominant-baseline="text-after-edge" fill-opacity="1">MAPK cascade</text><path fill="rgb(158,202,225)" stroke="rgb(85,85,85)" paint-order="fill stroke markers" d=" M 776.2260665817881 660.3573766260579 L 803.2260665817881 660.3573766260579 L 803.2260665817881 660.3573766260579 A 8 8 0 0 1 811.2260665817881 668.3573766260579 L 811.2260665817881 687.3573766260579 L 811.2260665817881 687.3573766260579 A 8 8 0 0 1 803.2260665817881 695.3573766260579 L 749.2260665817881 695.3573766260579 L 749.2260665817881 695.3573766260579 A 8 8 0 0 1 741.2260665817881 687.3573766260579 L 741.2260665817881 668.3573766260579 L 741.2260665817881 668.3573766260579 A 8 8 0 0 1 749.2260665817881 660.3573766260579 L 776.2260665817881 660.3573766260579 Z" fill-opacity="0.5" stroke-opacity="1" stroke-miterlimit="10" stroke-width="1.25"/><path fill="rgb(158,202,225)" stroke="rgb(85,85,85)" paint-order="fill stroke markers" d="" fill-opacity="0.5" stroke-opacity="1" stroke-miterlimit="10" stroke-width="1.25"/><text fill="rgb(0,0,0)" stroke="none" font-family="Helvetica" font-size="11px" font-style="normal" font-weight="normal" text-decoration="normal" x="776.2260665817881" y="683.3573766260579" text-anchor="middle" dominant-baseline="text-after-edge" fill-opacity="1">c-Fos</text><path fill="rgb(255,255,255)" stroke="rgb(85,85,85)" paint-order="fill stroke markers" d=" M 861.8296883066769 677.7823766260578 L 863.972545449534 677.7823766260578 L 863.972545449534 672.500233768915 L 874.6868311638198 672.500233768915 L 874.6868311638198 677.7823766260578 L 876.8296883066769 677.7823766260578 L 876.8296883066769 677.9323766260579 L 874.6868311638198 677.9323766260579 L 874.6868311638198 683.2145194832008 L 863.972545449534 683.2145194832008 L 863.972545449534 677.9323766260579 L 861.8296883066769 677.9323766260579 Z" fill-opacity="0.5" stroke-opacity="1" stroke-miterlimit="10" stroke-width="1.25"/><path fill="rgb(158,202,225)" stroke="rgb(85,85,85)" paint-order="fill stroke markers" d=" M 280.54392301427583 310.3857199034844 L 307.54392301427583 310.3857199034844 L 307.54392301427583 310.3857199034844 A 8 8 0 0 1 315.54392301427583 318.3857199034844 L 315.54392301427583 337.3857199034844 L 315.54392301427583 337.3857199034844 A 8 8 0 0 1 307.54392301427583 345.3857199034844 L 253.54392301427583 345.3857199034844 L 253.54392301427583 345.3857199034844 A 8 8 0 0 1 245.54392301427583 337.3857199034844 L 245.54392301427583 318.3857199034844 L 245.54392301427583 318.3857199034844 A 8 8 0 0 1 253.54392301427583 310.3857199034844 L 280.54392301427583 310.3857199034844 Z" fill-opacity="0.5" stroke-opacity="1" stroke-miterlimit="10" stroke-width="1.25"/><path fill="rgb(158,202,225)" stroke="rgb(85,85,85)" paint-order="fill stroke markers" d="" fill-opacity="0.5" stroke-opacity="1" stroke-miterlimit="10" stroke-width="1.25"/><text fill="rgb(0,0,0)" stroke="none" font-family="Helvetica" font-size="11px" font-style="normal" font-weight="normal" text-decoration="normal" x="280.54392301427583" y="333.3857199034844" text-anchor="middle" dominant-baseline="text-after-edge" fill-opacity="1">IRS1-4</text><path fill="rgb(255,255,255)" stroke="rgb(85,85,85)" paint-order="fill stroke markers" d=" M 372.49999999999994 268.925 L 374.6428571428571 268.925 L 374.6428571428571 263.64285714285717 L 385.3571428571428 263.64285714285717 L 385.3571428571428 268.925 L 387.49999999999994 268.925 L 387.49999999999994 269.075 L 385.3571428571428 269.075 L 385.3571428571428 274.35714285714283 L 374.6428571428571 274.35714285714283 L 374.6428571428571 269.075 L 372.49999999999994 269.075 Z" fill-opacity="0.5" stroke-opacity="1" stroke-miterlimit="10" stroke-width="1.25"/><path fill="rgb(158,202,225)" stroke="rgb(85,85,85)" paint-order="fill stroke markers" d=" M 647.918215855997 543.2517169700867 L 674.918215855997 543.2517169700867 L 674.918215855997 543.2517169700867 A 8 8 0 0 1 682.918215855997 551.2517169700867 L 682.918215855997 570.2517169700867 L 682.918215855997 570.2517169700867 A 8 8 0 0 1 674.918215855997 578.2517169700867 L 620.918215855997 578.2517169700867 L 620.918215855997 578.2517169700867 A 8 8 0 0 1 612.918215855997 570.2517169700867 L 612.918215855997 551.2517169700867 L 612.918215855997 551.2517169700867 A 8 8 0 0 1 620.918215855997 543.2517169700867 L 647.918215855997 543.2517169700867 Z" fill-opacity="0.5" stroke-opacity="1" stroke-miterlimit="10" stroke-width="1.25"/><path fill="rgb(158,202,225)" stroke="rgb(85,85,85)" paint-order="fill stroke markers" d="" fill-opacity="0.5" stroke-opacity="1" stroke-miterlimit="10" stroke-width="1.25"/><text fill="rgb(0,0,0)" stroke="none" font-family="Helvetica" font-size="11px" font-style="normal" font-weight="normal" text-decoration="normal" x="647.918215855997" y="566.2517169700867" text-anchor="middle" dominant-baseline="text-after-edge" fill-opacity="1">RSK</text><path fill="rgb(158,202,225)" stroke="rgb(85,85,85)" paint-order="fill stroke markers" d=" M 241.14053367866046 379.4752776253324 L 268.14053367866046 379.4752776253324 L 268.14053367866046 379.4752776253324 A 8 8 0 0 1 276.14053367866046 387.4752776253324 L 276.14053367866046 406.4752776253324 L 276.14053367866046 406.4752776253324 A 8 8 0 0 1 268.14053367866046 414.4752776253324 L 214.14053367866046 414.4752776253324 L 214.14053367866046 414.4752776253324 A 8 8 0 0 1 206.14053367866046 406.4752776253324 L 206.14053367866046 387.4752776253324 L 206.14053367866046 387.4752776253324 A 8 8 0 0 1 214.14053367866046 379.4752776253324 L 241.14053367866046 379.4752776253324 Z" fill-opacity="0.5" stroke-opacity="1" stroke-miterlimit="10" stroke-width="1.25"/><path fill="rgb(158,202,225)" stroke="rgb(85,85,85)" paint-order="fill stroke markers" d="" fill-opacity="0.5" stroke-opacity="1" stroke-miterlimit="10" stroke-width="1.25"/><text fill="rgb(0,0,0)" stroke="none" font-family="Helvetica" font-size="11px" font-style="normal" font-weight="normal" text-decoration="normal" x="241.14053367866046" y="402.4752776253324" text-anchor="middle" dominant-baseline="text-after-edge" fill-opacity="1">SOS</text><path fill="rgb(158,202,225)" stroke="rgb(85,85,85)" paint-order="fill stroke markers" d=" M 386.80826425089595 379.4752776253324 L 413.80826425089595 379.4752776253324 L 413.80826425089595 379.4752776253324 A 8 8 0 0 1 421.80826425089595 387.4752776253324 L 421.80826425089595 406.4752776253324 L 421.80826425089595 406.4752776253324 A 8 8 0 0 1 413.80826425089595 414.4752776253324 L 359.80826425089595 414.4752776253324 L 359.80826425089595 414.4752776253324 A 8 8 0 0 1 351.80826425089595 406.4752776253324 L 351.80826425089595 387.4752776253324 L 351.80826425089595 387.4752776253324 A 8 8 0 0 1 359.80826425089595 379.4752776253324 L 386.80826425089595 379.4752776253324 Z" fill-opacity="0.5" stroke-opacity="1" stroke-miterlimit="10" stroke-width="1.25"/><path fill="#ffffff" stroke="rgb(85,85,85)" paint-order="fill stroke markers" d=" M 376.80826425089595 373.4752776253324 L 385.80826425089595 373.4752776253324 L 385.80826425089595 373.4752776253324 A 6 6 0 0 1 391.80826425089595 379.4752776253324 L 391.80826425089595 379.4752776253324 L 391.80826425089595 379.4752776253324 A 6 6 0 0 1 385.80826425089595 385.4752776253324 L 367.80826425089595 385.4752776253324 L 367.80826425089595 385.4752776253324 A 6 6 0 0 1 361.80826425089595 379.4752776253324 L 361.80826425089595 379.4752776253324 L 361.80826425089595 379.4752776253324 A 6 6 0 0 1 367.80826425089595 373.4752776253324 L 376.80826425089595 373.4752776253324 Z" stroke-opacity="1" stroke-miterlimit="10" stroke-width="1.25"/><text fill="#0f0f0f" stroke="none" font-family="Arial" font-size="9px" font-style="normal" font-weight="normal" text-decoration="normal" x="376.80826425089595" y="379.4752776253324" text-anchor="middle" dominant-baseline="central">active</text><path fill="rgb(158,202,225)" stroke="rgb(85,85,85)" paint-order="fill stroke markers" d="" fill-opacity="0.5" stroke-opacity="1" stroke-miterlimit="10" stroke-width="1.25"/><text fill="rgb(0,0,0)" stroke="none" font-family="Helvetica" font-size="11px" font-style="normal" font-weight="normal" text-decoration="normal" x="386.80826425089595" y="402.4752776253324" text-anchor="middle" dominant-baseline="text-after-edge" fill-opacity="1">Grb2</text><path fill="rgb(112,112,112)" stroke="rgb(85,85,85)" paint-order="fill stroke markers" d=" M 314.21235118082814 442.9198141513982 L 314.21235118082814 445.0626712942554 L 314.2873511808281 445.0626712942554 L 313.7273772704657 445.09201828335387 L 313.1735385514473 445.1797377188957 L 312.6319029966766 445.32486852838844 L 312.10840487863635 445.52582062831283 L 311.6087797522567 445.7803923454101 L 311.1385016149756 446.08579453867526 L 310.7027229324771 446.43868115776934 L 310.30621818719925 446.8351859030472 L 309.95333156810517 447.2709645855457 L 309.64792937484003 447.74124272282677 L 309.39335765774274 448.24086784920644 L 309.19240555781835 448.7643659672467 L 309.0472747483256 449.30600152201737 L 308.9595553127838 449.8598402410358 L 308.9302083236853 450.4198141513982 L 308.9595553127838 450.97978806176064 L 309.0472747483256 451.53362678077906 L 309.19240555781835 452.0752623355497 L 309.39335765774274 452.59876045359 L 309.64792937484003 453.09838557996966 L 309.95333156810517 453.56866371725073 L 310.30621818719925 454.0044423997492 L 310.7027229324771 454.4009471450271 L 311.1385016149756 454.75383376412117 L 311.6087797522567 455.05923595738625 L 312.10840487863635 455.3138076744836 L 312.6319029966766 455.514759774408 L 313.1735385514473 455.65989058390073 L 313.7273772704657 455.74761001944256 L 314.21235118082814 455.77695700854105 L 314.21235118082814 457.9198141513982 L 314.3623511808281 457.9198141513982 L 314.3623511808281 455.77695700854105 L 314.2873511808281 455.77695700854105 L 314.84732509119056 455.74761001944256 L 315.40116381020897 455.65989058390073 L 315.94279936497963 455.514759774408 L 316.4662974830199 455.3138076744836 L 316.96592260939957 455.05923595738625 L 317.43620074668064 454.75383376412117 L 317.87197942917913 454.4009471450271 L 318.268484174457 454.0044423997492 L 318.6213707935511 453.56866371725073 L 318.9267729868162 453.09838557996966 L 319.1813447039135 452.59876045359 L 319.3822968038379 452.0752623355497 L 319.52742761333064 451.53362678077906 L 319.6151470488725 450.97978806176064 L 319.64449403797096 450.4198141513982 L 319.6151470488725 449.8598402410358 L 319.52742761333064 449.30600152201737 L 319.3822968038379 448.7643659672467 L 319.1813447039135 448.24086784920644 L 318.9267729868162 447.74124272282677 L 318.6213707935511 447.2709645855457 L 318.268484174457 446.8351859030472 L 317.87197942917913 446.43868115776934 L 317.43620074668064 446.08579453867526 L 316.96592260939957 445.7803923454102 L 316.4662974830199 445.52582062831283 L 315.94279936497963 445.32486852838844 L 315.40116381020897 445.1797377188957 L 314.84732509119056 445.09201828335387 L 314.3623511808281 445.0626712942554 L 314.3623511808281 442.9198141513982 Z" fill-opacity="0.5" stroke-opacity="1" stroke-miterlimit="10" stroke-width="1.25"/><path fill="rgb(255,255,255)" stroke="rgb(85,85,85)" paint-order="fill stroke markers" d=" M 482.3334143311141 396.9002776253324 L 484.4762714739713 396.9002776253324 L 484.4762714739713 391.6181347681896 L 495.19055718825695 391.6181347681896 L 495.19055718825695 396.9002776253324 L 497.3334143311141 396.9002776253324 L 497.3334143311141 397.0502776253324 L 495.19055718825695 397.0502776253324 L 495.19055718825695 402.33242048247524 L 484.4762714739713 402.33242048247524 L 484.4762714739713 397.0502776253324 L 482.3334143311141 397.0502776253324 Z" fill-opacity="0.5" stroke-opacity="1" stroke-miterlimit="10" stroke-width="1.25"/><path fill="rgb(255,255,255)" stroke="rgb(85,85,85)" paint-order="fill stroke markers" d=" M 760.5797086187061 560.6767169700867 L 762.7225657615633 560.6767169700867 L 762.7225657615633 555.3945741129438 L 773.436851475849 555.3945741129438 L 773.436851475849 560.6767169700867 L 775.5797086187061 560.6767169700867 L 775.5797086187061 560.8267169700867 L 773.436851475849 560.8267169700867 L 773.436851475849 566.1088598272296 L 762.7225657615633 566.1088598272296 L 762.7225657615633 560.8267169700867 L 760.5797086187061 560.8267169700867 Z" fill-opacity="0.5" stroke-opacity="1" stroke-miterlimit="10" stroke-width="1.25"/><path fill="rgb(158,202,225)" stroke="rgb(85,85,85)" paint-order="fill stroke markers" d=" M 414.07223445937456 611.5 L 441.07223445937456 611.5 L 441.07223445937456 611.5 A 8 8 0 0 1 449.07223445937456 619.5 L 449.07223445937456 638.5 L 449.07223445937456 638.5 A 8 8 0 0 1 441.07223445937456 646.5 L 387.07223445937456 646.5 L 387.07223445937456 646.5 A 8 8 0 0 1 379.07223445937456 638.5 L 379.07223445937456 619.5 L 379.07223445937456 619.5 A 8 8 0 0 1 387.07223445937456 611.5 L 414.07223445937456 611.5 Z" fill-opacity="0.5" stroke-opacity="1" stroke-miterlimit="10" stroke-width="1.25"/><path fill="#ffffff" stroke="rgb(85,85,85)" paint-order="fill stroke markers" d=" M 404.07223445937456 605.5 L 413.07223445937456 605.5 L 413.07223445937456 605.5 A 6 6 0 0 1 419.07223445937456 611.5 L 419.07223445937456 611.5 L 419.07223445937456 611.5 A 6 6 0 0 1 413.07223445937456 617.5 L 395.07223445937456 617.5 L 395.07223445937456 617.5 A 6 6 0 0 1 389.07223445937456 611.5 L 389.07223445937456 611.5 L 389.07223445937456 611.5 A 6 6 0 0 1 395.07223445937456 605.5 L 404.07223445937456 605.5 Z" stroke-opacity="1" stroke-miterlimit="10" stroke-width="1.25"/><text fill="#0f0f0f" stroke="none" font-family="Arial" font-size="9px" font-style="normal" font-weight="normal" text-decoration="normal" x="404.07223445937456" y="611.5" text-anchor="middle" dominant-baseline="central">active</text><path fill="rgb(158,202,225)" stroke="rgb(85,85,85)" paint-order="fill stroke markers" d="" fill-opacity="0.5" stroke-opacity="1" stroke-miterlimit="10" stroke-width="1.25"/><text fill="rgb(0,0,0)" stroke="none" font-family="Helvetica" font-size="11px" font-style="normal" font-weight="normal" text-decoration="normal" x="414.07223445937456" y="634.5" text-anchor="middle" dominant-baseline="text-after-edge" fill-opacity="1">RAS</text><path fill="rgb(158,202,225)" stroke="rgb(85,85,85)" paint-order="fill stroke markers" d=" M 201.00000000000003 92.50000000000001 L 228.00000000000003 92.50000000000001 L 228.00000000000003 92.50000000000001 A 8 8 0 0 1 236.00000000000003 100.50000000000001 L 236.00000000000003 119.50000000000001 L 236.00000000000003 119.50000000000001 A 8 8 0 0 1 228.00000000000003 127.50000000000001 L 174.00000000000003 127.50000000000001 L 174.00000000000003 127.50000000000001 A 8 8 0 0 1 166.00000000000003 119.50000000000001 L 166.00000000000003 100.50000000000001 L 166.00000000000003 100.50000000000001 A 8 8 0 0 1 174.00000000000003 92.50000000000001 L 201.00000000000003 92.50000000000001 Z" fill-opacity="0.5" stroke-opacity="1" stroke-miterlimit="10" stroke-width="1.25"/><path fill="rgb(158,202,225)" stroke="rgb(85,85,85)" paint-order="fill stroke markers" d="" fill-opacity="0.5" stroke-opacity="1" stroke-miterlimit="10" stroke-width="1.25"/><text fill="rgb(0,0,0)" stroke="none" font-family="Helvetica" font-size="11px" font-style="normal" font-weight="normal" text-decoration="normal" x="201.00000000000003" y="115.50000000000001" text-anchor="middle" dominant-baseline="text-after-edge" fill-opacity="1">IGF</text><path fill="rgb(158,202,225)" stroke="rgb(85,85,85)" paint-order="fill stroke markers" d=" M 380 106.5 L 407 106.5 L 407 106.5 A 8 8 0 0 1 415 114.5 L 415 133.5 L 415 133.5 A 8 8 0 0 1 407 141.5 L 353 141.5 L 353 141.5 A 8 8 0 0 1 345 133.5 L 345 114.5 L 345 114.5 A 8 8 0 0 1 353 106.5 L 380 106.5 Z" fill-opacity="0.5" stroke-opacity="1" stroke-miterlimit="10" stroke-width="1.25"/><path fill="rgb(158,202,225)" stroke="rgb(85,85,85)" paint-order="fill stroke markers" d="" fill-opacity="0.5" stroke-opacity="1" stroke-miterlimit="10" stroke-width="1.25"/><text fill="rgb(0,0,0)" stroke="none" font-family="Helvetica" font-size="11px" font-style="normal" font-weight="normal" text-decoration="normal" x="380" y="129.5" text-anchor="middle" dominant-baseline="text-after-edge" fill-opacity="1">IGF</text><path fill="rgb(158,202,225)" stroke="rgb(85,85,85)" paint-order="fill stroke markers" d=" M 380 161.5 L 407 161.5 L 407 161.5 A 8 8 0 0 1 415 169.5 L 415 188.5 L 415 188.5 A 8 8 0 0 1 407 196.5 L 353 196.5 L 353 196.5 A 8 8 0 0 1 345 188.5 L 345 169.5 L 345 169.5 A 8 8 0 0 1 353 161.5 L 380 161.5 Z" fill-opacity="0.5" stroke-opacity="1" stroke-miterlimit="10" stroke-width="1.25"/><path fill="rgb(158,202,225)" stroke="rgb(85,85,85)" paint-order="fill stroke markers" d="" fill-opacity="0.5" stroke-opacity="1" stroke-miterlimit="10" stroke-width="1.25"/><text fill="rgb(0,0,0)" stroke="none" font-family="Helvetica" font-size="11px" font-style="normal" font-weight="normal" text-decoration="normal" x="380" y="184.5" text-anchor="middle" dominant-baseline="text-after-edge" fill-opacity="1">IGFR</text><g transform="scale(1,1) translate(140.4344968812975,69.25)"/></g></svg>