<svg version="1.1" xmlns="http://www.w3.org/2000/svg" xmlns:xlink="http://www.w3.org/1999/xlink" width="742" height="489"><defs/><g transform="translate(-85.11351429303409,-40.875) scale(1,1)"><path fill="none" stroke="rgb(85,85,85)" paint-order="fill stroke markers" d=" M 395.625 152 L 464.64629399053865 152" stroke-opacity="1" stroke-linejoin="round" stroke-miterlimit="10" stroke-width="1.25"/><path fill="rgb(85,85,85)" stroke="none" paint-order="stroke fill markers" d=" M 456.89629399053865 157.4375 L 467.77129399053865 152 L 456.89629399053865 146.5625 Z" fill-opacity="1"/><path fill="none" stroke="rgb(85,85,85)" paint-order="fill stroke markers" d=" M 316.12414743680415 187.93016706679765 L 364.375 152" stroke-opacity="1" stroke-linejoin="round" stroke-miterlimit="10" stroke-width="1.25"/><path fill="none" stroke="rgb(85,85,85)" paint-order="fill stroke markers" d=" M 395.625 152 L 441.1521790096816 186.3981006929459" stroke-opacity="1" stroke-linejoin="round" stroke-miterlimit="10" stroke-width="1.25"/><path fill="rgb(85,85,85)" stroke="none" paint-order="stroke fill markers" d=" M 431.89914357755947 185.83482148112995 L 443.87585256319585 187.93016706679765 L 438.3661036403482 177.09159252688792 Z" fill-opacity="1"/><path fill="none" stroke="rgb(85,85,85)" paint-order="fill stroke markers" d=" M 380 78 L 380 141.0625" stroke-opacity="1" stroke-linejoin="round" stroke-miterlimit="10" stroke-width="1.25"/><path fill="rgb(255,255,255)" stroke="rgb(255,255,255)" paint-order="fill stroke markers" d=" M 385.4375 138.75 A 5.4375 5.4375 0 1 1 385.4374972812502 138.74456250090626 Z" fill-opacity="1" stroke-opacity="1" stroke-miterlimit="10"/><path fill="none" stroke="rgb(85,85,85)" paint-order="fill stroke markers" d=" M 385.4375 138.75 A 5.4375 5.4375 0 1 1 385.4374972812502 138.74456250090626 Z" stroke-opacity="1" stroke-miterlimit="10"/><path fill="none" stroke="rgb(85,85,85)" paint-order="fill stroke markers" d=" M 202.6938658249118 333.35885086301573 L 256.6223144467498 280.15371426741484" stroke-opacity="1" stroke-linejoin="round" stroke-miterlimit="10" stroke-width="1.25"/><path fill="none" stroke="rgb(85,85,85)" paint-order="fill stroke markers" d=" M 287.8723144467498 280.15371426741484 L 341.64070307173387 331.7034125481812" stroke-opacity="1" stroke-linejoin="round" stroke-miterlimit="10" stroke-width="1.25"/><path fill="rgb(85,85,85)" stroke="none" paint-order="stroke fill markers" d=" M 332.5098086483531 330.05197536795833 L 344.14927199200355 333.56693259697516 L 339.97755976902675 322.1463875846447 Z" fill-opacity="1"/><path fill="none" stroke="rgb(85,85,85)" paint-order="fill stroke markers" d=" M 441.19492954815496 333.32881351581557 L 494.7901999743807 280.15371426741484" stroke-opacity="1" stroke-linejoin="round" stroke-miterlimit="10" stroke-width="1.25"/><path fill="none" stroke="rgb(85,85,85)" paint-order="fill stroke markers" d=" M 526.0401999743807 280.15371426741484 L 604.2513427766252 280.15371426741484" stroke-opacity="1" stroke-linejoin="round" stroke-miterlimit="10" stroke-width="1.25"/><path fill="rgb(85,85,85)" stroke="none" paint-order="stroke fill markers" d=" M 596.5013427766252 285.59121426741484 L 607.3763427766252 280.15371426741484 L 596.5013427766252 274.71621426741484 Z" fill-opacity="1"/><path fill="none" stroke="rgb(85,85,85)" paint-order="fill stroke markers" d=" M 526.0401999743807 280.15371426741484 L 591.6152937924335 332.8299155308004" stroke-opacity="1" stroke-linejoin="round" stroke-miterlimit="10" stroke-width="1.25"/><path fill="rgb(85,85,85)" stroke="none" paint-order="stroke fill markers" d=" M 582.3398119056372 332.02268521216854 L 594.2369612817868 334.530646131239 L 589.1050403913534 323.5081500788771 Z" fill-opacity="1"/><path fill="none" stroke="rgb(85,85,85)" paint-order="fill stroke markers" d=" M 504.2747007856069 170 L 509.8057610210828 269.221058426055" stroke-opacity="1" stroke-linejoin="round" stroke-miterlimit="10" stroke-width="1.25"/><path fill="rgb(255,255,255)" stroke="rgb(255,255,255)" paint-order="fill stroke markers" d=" M 515.1145509475305 266.91214310344867 A 5.4375 5.4375 0 1 1 515.1145482287808 266.9067056043549 Z" fill-opacity="1" stroke-opacity="1" stroke-miterlimit="10"/><path fill="none" stroke="rgb(85,85,85)" paint-order="fill stroke markers" d=" M 515.1145509475305 266.91214310344867 A 5.4375 5.4375 0 1 1 515.1145482287808 266.9067056043549 Z" stroke-opacity="1" stroke-miterlimit="10"/><path fill="none" stroke="rgb(85,85,85)" paint-order="fill stroke markers" d=" M 498.6194444232425 178.66789943401045 L 488.3133267358834 237.75031516253898 L 272.289148243138 237.75031516253898 L 272.2581050223648 269.2162157882177" stroke-opacity="1" stroke-linejoin="round" stroke-miterlimit="10" stroke-width="1.25"/><path fill="rgb(255,255,255)" stroke="rgb(255,255,255)" paint-order="fill stroke markers" d=" M 277.6978864575589 266.90371691361185 A 5.4375 5.4375 0 1 1 277.69788373880914 266.8982794145181 Z" fill-opacity="1" stroke-opacity="1" stroke-miterlimit="10"/><path fill="none" stroke="rgb(85,85,85)" paint-order="fill stroke markers" d=" M 277.6978864575589 266.90371691361185 A 5.4375 5.4375 0 1 1 277.69788373880914 266.8982794145181 Z" stroke-opacity="1" stroke-miterlimit="10"/><path fill="none" stroke="rgb(85,85,85)" paint-order="fill stroke markers" d=" M 522.625 438 L 605.886632895616 438" stroke-opacity="1" stroke-linejoin="round" stroke-miterlimit="10" stroke-width="1.25"/><path fill="rgb(85,85,85)" stroke="none" paint-order="stroke fill markers" d=" M 598.136632895616 443.4375 L 609.011632895616 438 L 598.136632895616 432.5625 Z" fill-opacity="1"/><path fill="none" stroke="rgb(85,85,85)" paint-order="fill stroke markers" d=" M 522.625 438 L 590.3912414036042 497.44722159464857" stroke-opacity="1" stroke-linejoin="round" stroke-miterlimit="10" stroke-width="1.25"/><path fill="rgb(85,85,85)" stroke="none" paint-order="stroke fill markers" d=" M 581.1596715524079 496.2357443020337 L 592.935859697881 499.26120691334097 L 588.290516899643 488.0249788301781 Z" fill-opacity="1"/><path fill="none" stroke="rgb(85,85,85)" paint-order="fill stroke markers" d=" M 272.625 438 L 329.1876814511337 496.3990231964228" stroke-opacity="1" stroke-linejoin="round" stroke-miterlimit="10" stroke-width="1.25"/><path fill="rgb(85,85,85)" stroke="none" paint-order="stroke fill markers" d=" M 320.1191008608618 494.41156175109825 L 331.617207252993 498.3644822720842 L 327.8806798345031 486.79424484578766 Z" fill-opacity="1"/><path fill="none" stroke="rgb(85,85,85)" paint-order="fill stroke markers" d=" M 171.06414030211894 499.26120691334097 L 241.375 438" stroke-opacity="1" stroke-linejoin="round" stroke-miterlimit="10" stroke-width="1.25"/><path fill="none" stroke="rgb(85,85,85)" paint-order="fill stroke markers" d=" M 432.382792747007 498.3644822720842 L 491.375 438" stroke-opacity="1" stroke-linejoin="round" stroke-miterlimit="10" stroke-width="1.25"/><path fill="none" stroke="rgb(85,85,85)" paint-order="fill stroke markers" d=" M 646.6464421652826 304.9361158565859 L 661.1184645490318 400.06662398074064 L 506.7585547281833 400.0666239807405 L 506.93038340758926 427.0625632996412" stroke-opacity="1" stroke-linejoin="round" stroke-miterlimit="10" stroke-width="1.25"/><path fill="rgb(255,255,255)" stroke="rgb(255,255,255)" paint-order="fill stroke markers" d=" M 512.3531646838701 424.7501101413757 A 5.4375 5.4375 0 1 1 512.3531619651204 424.74467264228196 Z" fill-opacity="1" stroke-opacity="1" stroke-miterlimit="10"/><path fill="none" stroke="rgb(85,85,85)" paint-order="fill stroke markers" d=" M 512.3531646838701 424.7501101413757 A 5.4375 5.4375 0 1 1 512.3531619651204 424.74467264228196 Z" stroke-opacity="1" stroke-miterlimit="10"/><path fill="none" stroke="rgb(85,85,85)" paint-order="fill stroke markers" d=" M 640.0532397148758 308.31748601928274 L 632.0298309160219 388.3604207404915 L 257.1147499561934 389.5853955361153 L 257.0259235132156 427.0625087774927" stroke-opacity="1" stroke-linejoin="round" stroke-miterlimit="10" stroke-width="1.25"/><path fill="rgb(255,255,255)" stroke="rgb(255,255,255)" paint-order="fill stroke markers" d=" M 262.4689044735848 424.7500152728373 A 5.4375 5.4375 0 1 1 262.46890175483503 424.7445777737435 Z" fill-opacity="1" stroke-opacity="1" stroke-miterlimit="10"/><path fill="none" stroke="rgb(85,85,85)" paint-order="fill stroke markers" d=" M 262.4689044735848 424.7500152728373 A 5.4375 5.4375 0 1 1 262.46890175483503 424.7445777737435 Z" stroke-opacity="1" stroke-miterlimit="10"/><path fill="none" stroke="rgb(85,85,85)" paint-order="fill stroke markers" d=" M 680.011632895616 438 L 754.6527022450305 438" stroke-opacity="1" stroke-linejoin="round" stroke-miterlimit="10" stroke-width="1.25"/><path fill="none" stroke="rgb(85,85,85)" paint-order="fill stroke markers" d=" M 344.5 60 L 293.625 60" stroke-opacity="1" stroke-linejoin="round" stroke-miterlimit="10" stroke-width="1.25"/><path fill="none" stroke="rgb(85,85,85)" paint-order="fill stroke markers" d=" M 287.8723144467498 280.15371426741484 L 354.1049750958073 280.15371426741484" stroke-opacity="1" stroke-linejoin="round" stroke-miterlimit="10" stroke-width="1.25"/><path fill="rgb(85,85,85)" stroke="none" paint-order="stroke fill markers" d=" M 346.3549750958073 285.59121426741484 L 357.2299750958073 280.15371426741484 L 346.3549750958073 274.71621426741484 Z" fill-opacity="1"/><path fill="none" stroke="rgb(85,85,85)" paint-order="fill stroke markers" d=" M 428.2299750958073 280.15371426741484 L 494.7901999743807 280.15371426741484" stroke-opacity="1" stroke-linejoin="round" stroke-miterlimit="10" stroke-width="1.25"/><path fill="none" stroke="rgb(85,85,85)" paint-order="fill stroke markers" d=" M 293.5 152 L 364.375 152" stroke-opacity="1" stroke-linejoin="round" stroke-miterlimit="10" stroke-width="1.25"/><path fill="none" stroke="rgb(85,85,85)" paint-order="fill stroke markers" d=" M 197.45577169574398 280.15371426741484 L 256.6223144467498 280.15371426741484" stroke-opacity="1" stroke-linejoin="round" stroke-miterlimit="10" stroke-width="1.25"/><path fill="none" stroke="rgb(85,85,85)" paint-order="fill stroke markers" d=" M 157.2385142930341 438 L 241.375 438" stroke-opacity="1" stroke-linejoin="round" stroke-miterlimit="10" stroke-width="1.25"/><path fill="none" stroke="rgb(85,85,85)" paint-order="fill stroke markers" d=" M 419.5 438 L 491.375 438" stroke-opacity="1" stroke-linejoin="round" stroke-miterlimit="10" stroke-width="1.25"/><path fill="none" stroke="rgb(85,85,85)" paint-order="fill stroke markers" d=" M 272.625 438 L 345.375 438" stroke-opacity="1" stroke-linejoin="round" stroke-miterlimit="10" stroke-width="1.25"/><path fill="rgb(85,85,85)" stroke="none" paint-order="stroke fill markers" d=" M 337.625 443.4375 L 348.5 438 L 337.625 432.5625 Z" fill-opacity="1"/><path fill="rgb(255,255,255)" stroke="rgb(85,85,85)" paint-order="fill stroke markers" d=" M 300 179.5 L 300 179.5 L 300 179.5 A 17.5 17.5 0 0 1 317.5 197 L 317.5 197 L 317.5 197 A 17.5 17.5 0 0 1 300 214.5 L 300 214.5 L 300 214.5 A 17.5 17.5 0 0 1 282.5 197 L 282.5 197 L 282.5 197 A 17.5 17.5 0 0 1 300 179.5 L 300 179.5 Z" fill-opacity="0.5" stroke-opacity="1" stroke-miterlimit="10" stroke-width="1.25"/><path fill="#a9a9a9" stroke="none" paint-order="stroke fill markers" d=" M 285.2775681356645 205.5 L 300 205.5 L 300 214 A 17 17 0 0 1 285.2775681356645 205.5 Z" fill-opacity="0.5"/><path fill="#a9a9a9" stroke="none" paint-order="stroke fill markers" d=" M 300 205.5 L 314.7224318643355 205.5 L 314.7224318643355 205.5 A 17 17 0 0 1 300 214 Z" fill-opacity="0.5"/><path fill="#a9a9a9" stroke="none" paint-order="stroke fill markers" d=" M 300 205.5 L 300 214 L 300 214 L 300 205.5 Z" fill-opacity="0.5"/><path fill="rgb(255,255,255)" stroke="rgb(85,85,85)" paint-order="fill stroke markers" d="" fill-opacity="0.5" stroke-opacity="1" stroke-miterlimit="10" stroke-width="1.25"/><text fill="rgb(0,0,0)" stroke="none" font-family="Helvetica" font-size="14px" font-style="normal" font-weight="normal" text-decoration="normal" x="300" y="204" text-anchor="middle" dominant-baseline="text-after-edge" fill-opacity="1">ATP</text><path fill="rgb(255,255,255)" stroke="rgb(85,85,85)" paint-order="fill stroke markers" d=" M 460 179.5 L 460 179.5 L 460 179.5 A 17.5 17.5 0 0 1 477.5 197 L 477.5 197 L 477.5 197 A 17.5 17.5 0 0 1 460 214.5 L 460 214.5 L 460 214.5 A 17.5 17.5 0 0 1 442.5 197 L 442.5 197 L 442.5 197 A 17.5 17.5 0 0 1 460 179.5 L 460 179.5 Z" fill-opacity="0.5" stroke-opacity="1" stroke-miterlimit="10" stroke-width="1.25"/><path fill="#a9a9a9" stroke="none" paint-order="stroke fill markers" d=" M 445.2775681356645 205.5 L 460 205.5 L 460 214 A 17 17 0 0 1 445.2775681356645 205.5 Z" fill-opacity="0.5"/><path fill="#a9a9a9" stroke="none" paint-order="stroke fill markers" d=" M 460 205.5 L 474.7224318643355 205.5 L 474.7224318643355 205.5 A 17 17 0 0 1 460 214 Z" fill-opacity="0.5"/><path fill="#a9a9a9" stroke="none" paint-order="stroke fill markers" d=" M 460 205.5 L 460 214 L 460 214 L 460 205.5 Z" fill-opacity="0.5"/><path fill="rgb(255,255,255)" stroke="rgb(85,85,85)" paint-order="fill stroke markers" d="" fill-opacity="0.5" stroke-opacity="1" stroke-miterlimit="10" stroke-width="1.25"/><text fill="rgb(0,0,0)" stroke="none" font-family="Helvetica" font-size="14px" font-style="normal" font-weight="normal" text-decoration="normal" x="460" y="204" text-anchor="middle" dominant-baseline="text-after-edge" fill-opacity="1">ADP</text><path fill="rgb(255,255,255)" stroke="rgb(85,85,85)" paint-order="fill stroke markers" d=" M 188 327.09897128583543 L 188 327.09897128583543 L 188 327.09897128583543 A 17.5 17.5 0 0 1 205.5 344.59897128583543 L 205.5 344.59897128583543 L 205.5 344.59897128583543 A 17.5 17.5 0 0 1 188 362.09897128583543 L 188 362.09897128583543 L 188 362.09897128583543 A 17.5 17.5 0 0 1 170.5 344.59897128583543 L 170.5 344.59897128583543 L 170.5 344.59897128583543 A 17.5 17.5 0 0 1 188 327.09897128583543 L 188 327.09897128583543 Z" fill-opacity="0.5" stroke-opacity="1" stroke-miterlimit="10" stroke-width="1.25"/><path fill="#a9a9a9" stroke="none" paint-order="stroke fill markers" d=" M 173.27756813566455 353.09897128583543 L 188 353.09897128583543 L 188 361.59897128583543 A 17 17 0 0 1 173.27756813566455 353.09897128583543 Z" fill-opacity="0.5"/><path fill="#a9a9a9" stroke="none" paint-order="stroke fill markers" d=" M 188 353.09897128583543 L 202.72243186433545 353.09897128583543 L 202.72243186433545 353.09897128583543 A 17 17 0 0 1 188 361.59897128583543 Z" fill-opacity="0.5"/><path fill="#a9a9a9" stroke="none" paint-order="stroke fill markers" d=" M 188 353.09897128583543 L 188 361.59897128583543 L 188 361.59897128583543 L 188 353.09897128583543 Z" fill-opacity="0.5"/><path fill="rgb(255,255,255)" stroke="rgb(85,85,85)" paint-order="fill stroke markers" d="" fill-opacity="0.5" stroke-opacity="1" stroke-miterlimit="10" stroke-width="1.25"/><text fill="rgb(0,0,0)" stroke="none" font-family="Helvetica" font-size="14px" font-style="normal" font-weight="normal" text-decoration="normal" x="188" y="351.59897128583543" text-anchor="middle" dominant-baseline="text-after-edge" fill-opacity="1">ATP</text><path fill="rgb(255,255,255)" stroke="rgb(85,85,85)" paint-order="fill stroke markers" d=" M 359 327.09897128583543 L 359 327.09897128583543 L 359 327.09897128583543 A 17.5 17.5 0 0 1 376.5 344.59897128583543 L 376.5 344.59897128583543 L 376.5 344.59897128583543 A 17.5 17.5 0 0 1 359 362.09897128583543 L 359 362.09897128583543 L 359 362.09897128583543 A 17.5 17.5 0 0 1 341.5 344.59897128583543 L 341.5 344.59897128583543 L 341.5 344.59897128583543 A 17.5 17.5 0 0 1 359 327.09897128583543 L 359 327.09897128583543 Z" fill-opacity="0.5" stroke-opacity="1" stroke-miterlimit="10" stroke-width="1.25"/><path fill="#a9a9a9" stroke="none" paint-order="stroke fill markers" d=" M 344.2775681356645 353.09897128583543 L 359 353.09897128583543 L 359 361.59897128583543 A 17 17 0 0 1 344.2775681356645 353.09897128583543 Z" fill-opacity="0.5"/><path fill="#a9a9a9" stroke="none" paint-order="stroke fill markers" d=" M 359 353.09897128583543 L 373.7224318643355 353.09897128583543 L 373.7224318643355 353.09897128583543 A 17 17 0 0 1 359 361.59897128583543 Z" fill-opacity="0.5"/><path fill="#a9a9a9" stroke="none" paint-order="stroke fill markers" d=" M 359 353.09897128583543 L 359 361.59897128583543 L 359 361.59897128583543 L 359 353.09897128583543 Z" fill-opacity="0.5"/><path fill="rgb(255,255,255)" stroke="rgb(85,85,85)" paint-order="fill stroke markers" d="" fill-opacity="0.5" stroke-opacity="1" stroke-miterlimit="10" stroke-width="1.25"/><text fill="rgb(0,0,0)" stroke="none" font-family="Helvetica" font-size="14px" font-style="normal" font-weight="normal" text-decoration="normal" x="359" y="351.59897128583543" text-anchor="middle" dominant-baseline="text-after-edge" fill-opacity="1">ADP</text><path fill="rgb(255,255,255)" stroke="rgb(85,85,85)" paint-order="fill stroke markers" d=" M 426.52408963222445 327.09897128583543 L 426.52408963222445 327.09897128583543 L 426.52408963222445 327.09897128583543 A 17.5 17.5 0 0 1 444.02408963222445 344.59897128583543 L 444.02408963222445 344.59897128583543 L 444.02408963222445 344.59897128583543 A 17.5 17.5 0 0 1 426.52408963222445 362.09897128583543 L 426.52408963222445 362.09897128583543 L 426.52408963222445 362.09897128583543 A 17.5 17.5 0 0 1 409.02408963222445 344.59897128583543 L 409.02408963222445 344.59897128583543 L 409.02408963222445 344.59897128583543 A 17.5 17.5 0 0 1 426.52408963222445 327.09897128583543 L 426.52408963222445 327.09897128583543 Z" fill-opacity="0.5" stroke-opacity="1" stroke-miterlimit="10" stroke-width="1.25"/><path fill="#a9a9a9" stroke="none" paint-order="stroke fill markers" d=" M 411.80165776788897 353.09897128583543 L 426.52408963222445 353.09897128583543 L 426.52408963222445 361.59897128583543 A 17 17 0 0 1 411.80165776788897 353.09897128583543 Z" fill-opacity="0.5"/><path fill="#a9a9a9" stroke="none" paint-order="stroke fill markers" d=" M 426.52408963222445 353.09897128583543 L 441.2465214965599 353.09897128583543 L 441.2465214965599 353.09897128583543 A 17 17 0 0 1 426.52408963222445 361.59897128583543 Z" fill-opacity="0.5"/><path fill="#a9a9a9" stroke="none" paint-order="stroke fill markers" d=" M 426.52408963222445 353.09897128583543 L 426.52408963222445 361.59897128583543 L 426.52408963222445 361.59897128583543 L 426.52408963222445 353.09897128583543 Z" fill-opacity="0.5"/><path fill="rgb(255,255,255)" stroke="rgb(85,85,85)" paint-order="fill stroke markers" d="" fill-opacity="0.5" stroke-opacity="1" stroke-miterlimit="10" stroke-width="1.25"/><text fill="rgb(0,0,0)" stroke="none" font-family="Helvetica" font-size="14px" font-style="normal" font-weight="normal" text-decoration="normal" x="426.52408963222445" y="351.59897128583543" text-anchor="middle" dominant-baseline="text-after-edge" fill-opacity="1">ATP</text><path fill="rgb(255,255,255)" stroke="rgb(85,85,85)" paint-order="fill stroke markers" d=" M 609.7572328187581 327.09897128583543 L 609.7572328187581 327.09897128583543 L 609.7572328187581 327.09897128583543 A 17.5 17.5 0 0 1 627.2572328187581 344.59897128583543 L 627.2572328187581 344.59897128583543 L 627.2572328187581 344.59897128583543 A 17.5 17.5 0 0 1 609.7572328187581 362.09897128583543 L 609.7572328187581 362.09897128583543 L 609.7572328187581 362.09897128583543 A 17.5 17.5 0 0 1 592.2572328187581 344.59897128583543 L 592.2572328187581 344.59897128583543 L 592.2572328187581 344.59897128583543 A 17.5 17.5 0 0 1 609.7572328187581 327.09897128583543 L 609.7572328187581 327.09897128583543 Z" fill-opacity="0.5" stroke-opacity="1" stroke-miterlimit="10" stroke-width="1.25"/><path fill="#a9a9a9" stroke="none" paint-order="stroke fill markers" d=" M 595.0348009544226 353.09897128583543 L 609.7572328187581 353.09897128583543 L 609.7572328187581 361.59897128583543 A 17 17 0 0 1 595.0348009544226 353.09897128583543 Z" fill-opacity="0.5"/><path fill="#a9a9a9" stroke="none" paint-order="stroke fill markers" d=" M 609.7572328187581 353.09897128583543 L 624.4796646830936 353.09897128583543 L 624.4796646830936 353.09897128583543 A 17 17 0 0 1 609.7572328187581 361.59897128583543 Z" fill-opacity="0.5"/><path fill="#a9a9a9" stroke="none" paint-order="stroke fill markers" d=" M 609.7572328187581 353.09897128583543 L 609.7572328187581 361.59897128583543 L 609.7572328187581 361.59897128583543 L 609.7572328187581 353.09897128583543 Z" fill-opacity="0.5"/><path fill="rgb(255,255,255)" stroke="rgb(85,85,85)" paint-order="fill stroke markers" d="" fill-opacity="0.5" stroke-opacity="1" stroke-miterlimit="10" stroke-width="1.25"/><text fill="rgb(0,0,0)" stroke="none" font-family="Helvetica" font-size="14px" font-style="normal" font-weight="normal" text-decoration="normal" x="609.7572328187581" y="351.59897128583543" text-anchor="middle" dominant-baseline="text-after-edge" fill-opacity="1">ADP</text><path fill="rgb(255,255,255)" stroke="rgb(85,85,85)" paint-order="fill stroke markers" d=" M 503.27129399053865 134.5 L 530.2712939905387 134.5 L 530.2712939905387 134.5 A 8 8 0 0 1 538.2712939905387 142.5 L 538.2712939905387 161.5 L 538.2712939905387 161.5 A 8 8 0 0 1 530.2712939905387 169.5 L 476.27129399053865 169.5 L 476.27129399053865 169.5 A 8 8 0 0 1 468.27129399053865 161.5 L 468.27129399053865 142.5 L 468.27129399053865 142.5 A 8 8 0 0 1 476.27129399053865 134.5 L 503.27129399053865 134.5 Z" fill-opacity="0.5" stroke-opacity="1" stroke-miterlimit="10" stroke-width="1.25"/><path fill="#ffffff" stroke="rgb(85,85,85)" paint-order="fill stroke markers" d=" M 490.77129399053865 158.5 L 492.27129399053865 158.5 L 492.27129399053865 158.5 A 11 11 0 0 1 503.27129399053865 169.5 L 503.27129399053865 169.5 L 503.27129399053865 169.5 A 11 11 0 0 1 492.27129399053865 180.5 L 489.27129399053865 180.5 L 489.27129399053865 180.5 A 11 11 0 0 1 478.27129399053865 169.5 L 478.27129399053865 169.5 L 478.27129399053865 169.5 A 11 11 0 0 1 489.27129399053865 158.5 L 490.77129399053865 158.5 Z" stroke-opacity="1" stroke-miterlimit="10" stroke-width="1.25"/><text fill="#0f0f0f" stroke="none" font-family="Arial" font-size="9px" font-style="normal" font-weight="normal" text-decoration="normal" x="490.77129399053865" y="169.5" text-anchor="middle" dominant-baseline="central">P</text><path fill="rgb(255,255,255)" stroke="rgb(85,85,85)" paint-order="fill stroke markers" d="" fill-opacity="0.5" stroke-opacity="1" stroke-miterlimit="10" stroke-width="1.25"/><text fill="rgb(0,0,0)" stroke="none" font-family="Helvetica" font-size="14px" font-style="normal" font-weight="normal" text-decoration="normal" x="503.27129399053865" y="159" text-anchor="middle" dominant-baseline="text-after-edge" fill-opacity="1">RAF</text><path fill="rgb(255,255,255)" stroke="rgb(85,85,85)" paint-order="fill stroke markers" d=" M 608 492.5 L 608 492.5 L 608 492.5 A 17.5 17.5 0 0 1 625.5 510 L 625.5 510 L 625.5 510 A 17.5 17.5 0 0 1 608 527.5 L 608 527.5 L 608 527.5 A 17.5 17.5 0 0 1 590.5 510 L 590.5 510 L 590.5 510 A 17.5 17.5 0 0 1 608 492.5 L 608 492.5 Z" fill-opacity="0.5" stroke-opacity="1" stroke-miterlimit="10" stroke-width="1.25"/><path fill="#a9a9a9" stroke="none" paint-order="stroke fill markers" d=" M 593.2775681356645 518.5 L 608 518.5 L 608 527 A 17 17 0 0 1 593.2775681356645 518.5 Z" fill-opacity="0.5"/><path fill="#a9a9a9" stroke="none" paint-order="stroke fill markers" d=" M 608 518.5 L 622.7224318643355 518.5 L 622.7224318643355 518.5 A 17 17 0 0 1 608 527 Z" fill-opacity="0.5"/><path fill="#a9a9a9" stroke="none" paint-order="stroke fill markers" d=" M 608 518.5 L 608 527 L 608 527 L 608 518.5 Z" fill-opacity="0.5"/><path fill="rgb(255,255,255)" stroke="rgb(85,85,85)" paint-order="fill stroke markers" d="" fill-opacity="0.5" stroke-opacity="1" stroke-miterlimit="10" stroke-width="1.25"/><text fill="rgb(0,0,0)" stroke="none" font-family="Helvetica" font-size="14px" font-style="normal" font-weight="normal" text-decoration="normal" x="608" y="517" text-anchor="middle" dominant-baseline="text-after-edge" fill-opacity="1">ADP</text><path fill="rgb(255,255,255)" stroke="rgb(85,85,85)" paint-order="fill stroke markers" d=" M 346 492.5 L 346 492.5 L 346 492.5 A 17.5 17.5 0 0 1 363.5 510 L 363.5 510 L 363.5 510 A 17.5 17.5 0 0 1 346 527.5 L 346 527.5 L 346 527.5 A 17.5 17.5 0 0 1 328.5 510 L 328.5 510 L 328.5 510 A 17.5 17.5 0 0 1 346 492.5 L 346 492.5 Z" fill-opacity="0.5" stroke-opacity="1" stroke-miterlimit="10" stroke-width="1.25"/><path fill="#a9a9a9" stroke="none" paint-order="stroke fill markers" d=" M 331.2775681356645 518.5 L 346 518.5 L 346 527 A 17 17 0 0 1 331.2775681356645 518.5 Z" fill-opacity="0.5"/><path fill="#a9a9a9" stroke="none" paint-order="stroke fill markers" d=" M 346 518.5 L 360.7224318643355 518.5 L 360.7224318643355 518.5 A 17 17 0 0 1 346 527 Z" fill-opacity="0.5"/><path fill="#a9a9a9" stroke="none" paint-order="stroke fill markers" d=" M 346 518.5 L 346 527 L 346 527 L 346 518.5 Z" fill-opacity="0.5"/><path fill="rgb(255,255,255)" stroke="rgb(85,85,85)" paint-order="fill stroke markers" d="" fill-opacity="0.5" stroke-opacity="1" stroke-miterlimit="10" stroke-width="1.25"/><text fill="rgb(0,0,0)" stroke="none" font-family="Helvetica" font-size="14px" font-style="normal" font-weight="normal" text-decoration="normal" x="346" y="517" text-anchor="middle" dominant-baseline="text-after-edge" fill-opacity="1">ADP</text><path fill="rgb(255,255,255)" stroke="rgb(85,85,85)" paint-order="fill stroke markers" d=" M 156 492.5 L 156 492.5 L 156 492.5 A 17.5 17.5 0 0 1 173.5 510 L 173.5 510 L 173.5 510 A 17.5 17.5 0 0 1 156 527.5 L 156 527.5 L 156 527.5 A 17.5 17.5 0 0 1 138.5 510 L 138.5 510 L 138.5 510 A 17.5 17.5 0 0 1 156 492.5 L 156 492.5 Z" fill-opacity="0.5" stroke-opacity="1" stroke-miterlimit="10" stroke-width="1.25"/><path fill="#a9a9a9" stroke="none" paint-order="stroke fill markers" d=" M 141.27756813566455 518.5 L 156 518.5 L 156 527 A 17 17 0 0 1 141.27756813566455 518.5 Z" fill-opacity="0.5"/><path fill="#a9a9a9" stroke="none" paint-order="stroke fill markers" d=" M 156 518.5 L 170.72243186433545 518.5 L 170.72243186433545 518.5 A 17 17 0 0 1 156 527 Z" fill-opacity="0.5"/><path fill="#a9a9a9" stroke="none" paint-order="stroke fill markers" d=" M 156 518.5 L 156 527 L 156 527 L 156 518.5 Z" fill-opacity="0.5"/><path fill="rgb(255,255,255)" stroke="rgb(85,85,85)" paint-order="fill stroke markers" d="" fill-opacity="0.5" stroke-opacity="1" stroke-miterlimit="10" stroke-width="1.25"/><text fill="rgb(0,0,0)" stroke="none" font-family="Helvetica" font-size="14px" font-style="normal" font-weight="normal" text-decoration="normal" x="156" y="517" text-anchor="middle" dominant-baseline="text-after-edge" fill-opacity="1">ATP</text><path fill="rgb(255,255,255)" stroke="rgb(85,85,85)" paint-order="fill stroke markers" d=" M 418 492.5 L 418 492.5 L 418 492.5 A 17.5 17.5 0 0 1 435.5 510 L 435.5 510 L 435.5 510 A 17.5 17.5 0 0 1 418 527.5 L 418 527.5 L 418 527.5 A 17.5 17.5 0 0 1 400.5 510 L 400.5 510 L 400.5 510 A 17.5 17.5 0 0 1 418 492.5 L 418 492.5 Z" fill-opacity="0.5" stroke-opacity="1" stroke-miterlimit="10" stroke-width="1.25"/><path fill="#a9a9a9" stroke="none" paint-order="stroke fill markers" d=" M 403.2775681356645 518.5 L 418 518.5 L 418 527 A 17 17 0 0 1 403.2775681356645 518.5 Z" fill-opacity="0.5"/><path fill="#a9a9a9" stroke="none" paint-order="stroke fill markers" d=" M 418 518.5 L 432.7224318643355 518.5 L 432.7224318643355 518.5 A 17 17 0 0 1 418 527 Z" fill-opacity="0.5"/><path fill="#a9a9a9" stroke="none" paint-order="stroke fill markers" d=" M 418 518.5 L 418 527 L 418 527 L 418 518.5 Z" fill-opacity="0.5"/><path fill="rgb(255,255,255)" stroke="rgb(85,85,85)" paint-order="fill stroke markers" d="" fill-opacity="0.5" stroke-opacity="1" stroke-miterlimit="10" stroke-width="1.25"/><text fill="rgb(0,0,0)" stroke="none" font-family="Helvetica" font-size="14px" font-style="normal" font-weight="normal" text-decoration="normal" x="418" y="517" text-anchor="middle" dominant-baseline="text-after-edge" fill-opacity="1">ATP</text><path fill="rgb(255,255,255)" stroke="rgb(85,85,85)" paint-order="fill stroke markers" d=" M 642.8763427766252 262.65371426741484 L 669.8763427766252 262.65371426741484 L 669.8763427766252 262.65371426741484 A 8 8 0 0 1 677.8763427766252 270.65371426741484 L 677.8763427766252 289.65371426741484 L 677.8763427766252 289.65371426741484 A 8 8 0 0 1 669.8763427766252 297.65371426741484 L 615.8763427766252 297.65371426741484 L 615.8763427766252 297.65371426741484 A 8 8 0 0 1 607.8763427766252 289.65371426741484 L 607.8763427766252 270.65371426741484 L 607.8763427766252 270.65371426741484 A 8 8 0 0 1 615.8763427766252 262.65371426741484 L 642.8763427766252 262.65371426741484 Z" fill-opacity="0.5" stroke-opacity="1" stroke-miterlimit="10" stroke-width="1.25"/><path fill="#ffffff" stroke="rgb(85,85,85)" paint-order="fill stroke markers" d=" M 633.8763427766252 286.65371426741484 L 638.8763427766252 286.65371426741484 L 638.8763427766252 286.65371426741484 A 11 11 0 0 1 649.8763427766252 297.65371426741484 L 649.8763427766252 297.65371426741484 L 649.8763427766252 297.65371426741484 A 11 11 0 0 1 638.8763427766252 308.65371426741484 L 628.8763427766252 308.65371426741484 L 628.8763427766252 308.65371426741484 A 11 11 0 0 1 617.8763427766252 297.65371426741484 L 617.8763427766252 297.65371426741484 L 617.8763427766252 297.65371426741484 A 11 11 0 0 1 628.8763427766252 286.65371426741484 L 633.8763427766252 286.65371426741484 Z" stroke-opacity="1" stroke-miterlimit="10" stroke-width="1.25"/><text fill="#0f0f0f" stroke="none" font-family="Arial" font-size="9px" font-style="normal" font-weight="normal" text-decoration="normal" x="633.8763427766252" y="297.65371426741484" text-anchor="middle" dominant-baseline="central">2P</text><path fill="rgb(255,255,255)" stroke="rgb(85,85,85)" paint-order="fill stroke markers" d="" fill-opacity="0.5" stroke-opacity="1" stroke-miterlimit="10" stroke-width="1.25"/><text fill="rgb(0,0,0)" stroke="none" font-family="Helvetica" font-size="14px" font-style="normal" font-weight="normal" text-decoration="normal" x="642.8763427766252" y="287.15371426741484" text-anchor="middle" dominant-baseline="text-after-edge" fill-opacity="1">MEK</text><path fill="rgb(255,255,255)" stroke="rgb(85,85,85)" paint-order="fill stroke markers" d=" M 644.511632895616 420.5 L 671.511632895616 420.5 L 671.511632895616 420.5 A 8 8 0 0 1 679.511632895616 428.5 L 679.511632895616 447.5 L 679.511632895616 447.5 A 8 8 0 0 1 671.511632895616 455.5 L 617.511632895616 455.5 L 617.511632895616 455.5 A 8 8 0 0 1 609.511632895616 447.5 L 609.511632895616 428.5 L 609.511632895616 428.5 A 8 8 0 0 1 617.511632895616 420.5 L 644.511632895616 420.5 Z" fill-opacity="0.5" stroke-opacity="1" stroke-miterlimit="10" stroke-width="1.25"/><path fill="#ffffff" stroke="rgb(85,85,85)" paint-order="fill stroke markers" d=" M 635.511632895616 444.5 L 640.511632895616 444.5 L 640.511632895616 444.5 A 11 11 0 0 1 651.511632895616 455.5 L 651.511632895616 455.5 L 651.511632895616 455.5 A 11 11 0 0 1 640.511632895616 466.5 L 630.511632895616 466.5 L 630.511632895616 466.5 A 11 11 0 0 1 619.511632895616 455.5 L 619.511632895616 455.5 L 619.511632895616 455.5 A 11 11 0 0 1 630.511632895616 444.5 L 635.511632895616 444.5 Z" stroke-opacity="1" stroke-miterlimit="10" stroke-width="1.25"/><text fill="#0f0f0f" stroke="none" font-family="Arial" font-size="9px" font-style="normal" font-weight="normal" text-decoration="normal" x="635.511632895616" y="455.5" text-anchor="middle" dominant-baseline="central">2P</text><path fill="rgb(255,255,255)" stroke="rgb(85,85,85)" paint-order="fill stroke markers" d="" fill-opacity="0.5" stroke-opacity="1" stroke-miterlimit="10" stroke-width="1.25"/><text fill="rgb(0,0,0)" stroke="none" font-family="Helvetica" font-size="14px" font-style="normal" font-weight="normal" text-decoration="normal" x="644.511632895616" y="445" text-anchor="middle" dominant-baseline="text-after-edge" fill-opacity="1">ERK</text><path fill="rgb(255,255,255)" stroke="rgb(85,85,85)" paint-order="fill stroke markers" d=" M 755.2777022450305 420.5 L 799.0277022450305 420.5 L 825.2777022450305 438 L 799.0277022450305 455.5 L 755.2777022450305 455.5 Z" fill-opacity="0.5" stroke-opacity="1" stroke-miterlimit="10" stroke-width="1.25"/><text fill="rgb(0,0,0)" stroke="none" font-family="Helvetica" font-size="14px" font-style="normal" font-weight="normal" text-decoration="normal" x="790.2777022450305" y="445" text-anchor="middle" dominant-baseline="text-after-edge" fill-opacity="1">ERK</text><path fill="rgb(255,255,255)" stroke="rgb(85,85,85)" paint-order="fill stroke markers" d=" M 380 42.5 L 407 42.5 L 407 42.5 A 8 8 0 0 1 415 50.5 L 415 69.5 L 415 69.5 A 8 8 0 0 1 407 77.5 L 353 77.5 L 353 77.5 A 8 8 0 0 1 345 69.5 L 345 50.5 L 345 50.5 A 8 8 0 0 1 353 42.5 L 380 42.5 Z" fill-opacity="0.5" stroke-opacity="1" stroke-miterlimit="10" stroke-width="1.25"/><path fill="#ffffff" stroke="rgb(85,85,85)" paint-order="fill stroke markers" d=" M 380 64.5 L 392 64.5 L 392 64.5 A 13 13 0 0 1 405 77.5 L 405 77.5 L 405 77.5 A 13 13 0 0 1 392 90.5 L 368 90.5 L 368 90.5 A 13 13 0 0 1 355 77.5 L 355 77.5 L 355 77.5 A 13 13 0 0 1 368 64.5 L 380 64.5 Z" stroke-opacity="1" stroke-miterlimit="10" stroke-width="1.25"/><text fill="#0f0f0f" stroke="none" font-family="Arial" font-size="9px" font-style="normal" font-weight="normal" text-decoration="normal" x="380" y="77.5" text-anchor="middle" dominant-baseline="central">active</text><path fill="rgb(255,255,255)" stroke="rgb(85,85,85)" paint-order="fill stroke markers" d="" fill-opacity="0.5" stroke-opacity="1" stroke-miterlimit="10" stroke-width="1.25"/><text fill="rgb(0,0,0)" stroke="none" font-family="Helvetica" font-size="14px" font-style="normal" font-weight="normal" text-decoration="normal" x="380" y="67" text-anchor="middle" dominant-baseline="text-after-edge" fill-opacity="1">RAS</text><path fill="rgb(255,255,255)" stroke="rgb(85,85,85)" paint-order="fill stroke markers" d=" M 223 42.5 L 266.75 42.5 L 293 60 L 266.75 77.5 L 223 77.5 Z" fill-opacity="0.5" stroke-opacity="1" stroke-miterlimit="10" stroke-width="1.25"/><text fill="rgb(0,0,0)" stroke="none" font-family="Helvetica" font-size="14px" font-style="normal" font-weight="normal" text-decoration="normal" x="258" y="67" text-anchor="middle" dominant-baseline="text-after-edge" fill-opacity="1">RAS</text><path fill="rgb(255,255,255)" stroke="rgb(85,85,85)" paint-order="fill stroke markers" d=" M 392.7299750958073 262.65371426741484 L 419.7299750958073 262.65371426741484 L 419.7299750958073 262.65371426741484 A 8 8 0 0 1 427.7299750958073 270.65371426741484 L 427.7299750958073 289.65371426741484 L 427.7299750958073 289.65371426741484 A 8 8 0 0 1 419.7299750958073 297.65371426741484 L 365.7299750958073 297.65371426741484 L 365.7299750958073 297.65371426741484 A 8 8 0 0 1 357.7299750958073 289.65371426741484 L 357.7299750958073 270.65371426741484 L 357.7299750958073 270.65371426741484 A 8 8 0 0 1 365.7299750958073 262.65371426741484 L 392.7299750958073 262.65371426741484 Z" fill-opacity="0.5" stroke-opacity="1" stroke-miterlimit="10" stroke-width="1.25"/><path fill="#ffffff" stroke="rgb(85,85,85)" paint-order="fill stroke markers" d=" M 380.2299750958073 286.65371426741484 L 381.7299750958073 286.65371426741484 L 381.7299750958073 286.65371426741484 A 11 11 0 0 1 392.7299750958073 297.65371426741484 L 392.7299750958073 297.65371426741484 L 392.7299750958073 297.65371426741484 A 11 11 0 0 1 381.7299750958073 308.65371426741484 L 378.7299750958073 308.65371426741484 L 378.7299750958073 308.65371426741484 A 11 11 0 0 1 367.7299750958073 297.65371426741484 L 367.7299750958073 297.65371426741484 L 367.7299750958073 297.65371426741484 A 11 11 0 0 1 378.7299750958073 286.65371426741484 L 380.2299750958073 286.65371426741484 Z" stroke-opacity="1" stroke-miterlimit="10" stroke-width="1.25"/><text fill="#0f0f0f" stroke="none" font-family="Arial" font-size="9px" font-style="normal" font-weight="normal" text-decoration="normal" x="380.2299750958073" y="297.65371426741484" text-anchor="middle" dominant-baseline="central">P</text><path fill="rgb(255,255,255)" stroke="rgb(85,85,85)" paint-order="fill stroke markers" d="" fill-opacity="0.5" stroke-opacity="1" stroke-miterlimit="10" stroke-width="1.25"/><text fill="rgb(0,0,0)" stroke="none" font-family="Helvetica" font-size="14px" font-style="normal" font-weight="normal" text-decoration="normal" x="392.7299750958073" y="287.15371426741484" text-anchor="middle" dominant-baseline="text-after-edge" fill-opacity="1">MEK</text><path fill="rgb(255,255,255)" stroke="rgb(85,85,85)" paint-order="fill stroke markers" d=" M 495.4151999743807 280.00371426741486 L 502.9151999743807 280.00371426741486 L 502.9151999743807 272.65371426741484 L 517.9151999743807 272.65371426741484 L 517.9151999743807 280.00371426741486 L 525.4151999743807 280.00371426741486 L 525.4151999743807 280.3037142674148 L 517.9151999743807 280.3037142674148 L 517.9151999743807 287.65371426741484 L 502.9151999743807 287.65371426741484 L 502.9151999743807 280.3037142674148 L 495.4151999743807 280.3037142674148 Z" fill-opacity="0.5" stroke-opacity="1" stroke-miterlimit="10" stroke-width="1.25"/><path fill="rgb(255,255,255)" stroke="rgb(85,85,85)" paint-order="fill stroke markers" d=" M 258 134.5 L 285 134.5 L 285 134.5 A 8 8 0 0 1 293 142.5 L 293 161.5 L 293 161.5 A 8 8 0 0 1 285 169.5 L 231 169.5 L 231 169.5 A 8 8 0 0 1 223 161.5 L 223 142.5 L 223 142.5 A 8 8 0 0 1 231 134.5 L 258 134.5 Z" fill-opacity="0.5" stroke-opacity="1" stroke-miterlimit="10" stroke-width="1.25"/><path fill="#ffffff" stroke="rgb(85,85,85)" paint-order="fill stroke markers" d=" M 243 158.5 L 243 158.5 L 243 158.5 A 10 10 0 0 1 253 168.5 L 253 170.5 L 253 170.5 A 10 10 0 0 1 243 180.5 L 243 180.5 L 243 180.5 A 10 10 0 0 1 233 170.5 L 233 168.5 L 233 168.5 A 10 10 0 0 1 243 158.5 L 243 158.5 Z" stroke-opacity="1" stroke-miterlimit="10" stroke-width="1.25"/><path fill="rgb(255,255,255)" stroke="rgb(85,85,85)" paint-order="fill stroke markers" d="" fill-opacity="0.5" stroke-opacity="1" stroke-miterlimit="10" stroke-width="1.25"/><text fill="rgb(0,0,0)" stroke="none" font-family="Helvetica" font-size="14px" font-style="normal" font-weight="normal" text-decoration="normal" x="258" y="159" text-anchor="middle" dominant-baseline="text-after-edge" fill-opacity="1">RAF</text><path fill="rgb(255,255,255)" stroke="rgb(85,85,85)" paint-order="fill stroke markers" d=" M 365 151.85 L 372.5 151.85 L 372.5 144.5 L 387.5 144.5 L 387.5 151.85 L 395 151.85 L 395 152.15 L 387.5 152.15 L 387.5 159.5 L 372.5 159.5 L 372.5 152.15 L 365 152.15 Z" fill-opacity="0.5" stroke-opacity="1" stroke-miterlimit="10" stroke-width="1.25"/><path fill="rgb(255,255,255)" stroke="rgb(85,85,85)" paint-order="fill stroke markers" d=" M 161.95577169574398 262.65371426741484 L 188.95577169574398 262.65371426741484 L 188.95577169574398 262.65371426741484 A 8 8 0 0 1 196.95577169574398 270.65371426741484 L 196.95577169574398 289.65371426741484 L 196.95577169574398 289.65371426741484 A 8 8 0 0 1 188.95577169574398 297.65371426741484 L 134.95577169574398 297.65371426741484 L 134.95577169574398 297.65371426741484 A 8 8 0 0 1 126.95577169574398 289.65371426741484 L 126.95577169574398 270.65371426741484 L 126.95577169574398 270.65371426741484 A 8 8 0 0 1 134.95577169574398 262.65371426741484 L 161.95577169574398 262.65371426741484 Z" fill-opacity="0.5" stroke-opacity="1" stroke-miterlimit="10" stroke-width="1.25"/><path fill="#ffffff" stroke="rgb(85,85,85)" paint-order="fill stroke markers" d=" M 146.95577169574398 286.65371426741484 L 146.95577169574398 286.65371426741484 L 146.95577169574398 286.65371426741484 A 10 10 0 0 1 156.95577169574398 296.65371426741484 L 156.95577169574398 298.65371426741484 L 156.95577169574398 298.65371426741484 A 10 10 0 0 1 146.95577169574398 308.65371426741484 L 146.95577169574398 308.65371426741484 L 146.95577169574398 308.65371426741484 A 10 10 0 0 1 136.95577169574398 298.65371426741484 L 136.95577169574398 296.65371426741484 L 136.95577169574398 296.65371426741484 A 10 10 0 0 1 146.95577169574398 286.65371426741484 L 146.95577169574398 286.65371426741484 Z" stroke-opacity="1" stroke-miterlimit="10" stroke-width="1.25"/><path fill="rgb(255,255,255)" stroke="rgb(85,85,85)" paint-order="fill stroke markers" d="" fill-opacity="0.5" stroke-opacity="1" stroke-miterlimit="10" stroke-width="1.25"/><text fill="rgb(0,0,0)" stroke="none" font-family="Helvetica" font-size="14px" font-style="normal" font-weight="normal" text-decoration="normal" x="161.95577169574398" y="287.15371426741484" text-anchor="middle" dominant-baseline="text-after-edge" fill-opacity="1">MEK</text><path fill="rgb(255,255,255)" stroke="rgb(85,85,85)" paint-order="fill stroke markers" d=" M 257.2473144467498 280.00371426741486 L 264.7473144467498 280.00371426741486 L 264.7473144467498 272.65371426741484 L 279.7473144467498 272.65371426741484 L 279.7473144467498 280.00371426741486 L 287.2473144467498 280.00371426741486 L 287.2473144467498 280.3037142674148 L 279.7473144467498 280.3037142674148 L 279.7473144467498 287.65371426741484 L 264.7473144467498 287.65371426741484 L 264.7473144467498 280.3037142674148 L 257.2473144467498 280.3037142674148 Z" fill-opacity="0.5" stroke-opacity="1" stroke-miterlimit="10" stroke-width="1.25"/><path fill="rgb(255,255,255)" stroke="rgb(85,85,85)" paint-order="fill stroke markers" d=" M 121.73851429303409 420.5 L 148.7385142930341 420.5 L 148.7385142930341 420.5 A 8 8 0 0 1 156.7385142930341 428.5 L 156.7385142930341 447.5 L 156.7385142930341 447.5 A 8 8 0 0 1 148.7385142930341 455.5 L 94.73851429303409 455.5 L 94.73851429303409 455.5 A 8 8 0 0 1 86.73851429303409 447.5 L 86.73851429303409 428.5 L 86.73851429303409 428.5 A 8 8 0 0 1 94.73851429303409 420.5 L 121.73851429303409 420.5 Z" fill-opacity="0.5" stroke-opacity="1" stroke-miterlimit="10" stroke-width="1.25"/><path fill="#ffffff" stroke="rgb(85,85,85)" paint-order="fill stroke markers" d=" M 106.73851429303409 444.5 L 106.73851429303409 444.5 L 106.73851429303409 444.5 A 10 10 0 0 1 116.73851429303409 454.5 L 116.73851429303409 456.5 L 116.73851429303409 456.5 A 10 10 0 0 1 106.73851429303409 466.5 L 106.73851429303409 466.5 L 106.73851429303409 466.5 A 10 10 0 0 1 96.73851429303409 456.5 L 96.73851429303409 454.5 L 96.73851429303409 454.5 A 10 10 0 0 1 106.73851429303409 444.5 L 106.73851429303409 444.5 Z" stroke-opacity="1" stroke-miterlimit="10" stroke-width="1.25"/><path fill="rgb(255,255,255)" stroke="rgb(85,85,85)" paint-order="fill stroke markers" d="" fill-opacity="0.5" stroke-opacity="1" stroke-miterlimit="10" stroke-width="1.25"/><text fill="rgb(0,0,0)" stroke="none" font-family="Helvetica" font-size="14px" font-style="normal" font-weight="normal" text-decoration="normal" x="121.73851429303409" y="445" text-anchor="middle" dominant-baseline="text-after-edge" fill-opacity="1">ERK</text><path fill="rgb(255,255,255)" stroke="rgb(85,85,85)" paint-order="fill stroke markers" d=" M 492 437.85 L 499.5 437.85 L 499.5 430.5 L 514.5 430.5 L 514.5 437.85 L 522 437.85 L 522 438.15 L 514.5 438.15 L 514.5 445.5 L 499.5 445.5 L 499.5 438.15 L 492 438.15 Z" fill-opacity="0.5" stroke-opacity="1" stroke-miterlimit="10" stroke-width="1.25"/><path fill="rgb(255,255,255)" stroke="rgb(85,85,85)" paint-order="fill stroke markers" d=" M 242 437.85 L 249.5 437.85 L 249.5 430.5 L 264.5 430.5 L 264.5 437.85 L 272 437.85 L 272 438.15 L 264.5 438.15 L 264.5 445.5 L 249.5 445.5 L 249.5 438.15 L 242 438.15 Z" fill-opacity="0.5" stroke-opacity="1" stroke-miterlimit="10" stroke-width="1.25"/><path fill="rgb(255,255,255)" stroke="rgb(85,85,85)" paint-order="fill stroke markers" d=" M 384 420.5 L 411 420.5 L 411 420.5 A 8 8 0 0 1 419 428.5 L 419 447.5 L 419 447.5 A 8 8 0 0 1 411 455.5 L 357 455.5 L 357 455.5 A 8 8 0 0 1 349 447.5 L 349 428.5 L 349 428.5 A 8 8 0 0 1 357 420.5 L 384 420.5 Z" fill-opacity="0.5" stroke-opacity="1" stroke-miterlimit="10" stroke-width="1.25"/><path fill="#ffffff" stroke="rgb(85,85,85)" paint-order="fill stroke markers" d=" M 371.5 444.5 L 373 444.5 L 373 444.5 A 11 11 0 0 1 384 455.5 L 384 455.5 L 384 455.5 A 11 11 0 0 1 373 466.5 L 370 466.5 L 370 466.5 A 11 11 0 0 1 359 455.5 L 359 455.5 L 359 455.5 A 11 11 0 0 1 370 444.5 L 371.5 444.5 Z" stroke-opacity="1" stroke-miterlimit="10" stroke-width="1.25"/><text fill="#0f0f0f" stroke="none" font-family="Arial" font-size="9px" font-style="normal" font-weight="normal" text-decoration="normal" x="371.5" y="455.5" text-anchor="middle" dominant-baseline="central">P</text><path fill="rgb(255,255,255)" stroke="rgb(85,85,85)" paint-order="fill stroke markers" d="" fill-opacity="0.5" stroke-opacity="1" stroke-miterlimit="10" stroke-width="1.25"/><text fill="rgb(0,0,0)" stroke="none" font-family="Helvetica" font-size="14px" font-style="normal" font-weight="normal" text-decoration="normal" x="384" y="445" text-anchor="middle" dominant-baseline="text-after-edge" fill-opacity="1">ERK</text><g transform="scale(1,1) translate(85.11351429303409,40.875)"/></g></svg>