<svg version="1.1" xmlns="http://www.w3.org/2000/svg" xmlns:xlink="http://www.w3.org/1999/xlink" width="1488" height="522"><defs/><g transform="translate(-11.857391830754807,-9.402218333072199) scale(1,1)"><path fill="rgb(245,245,245)" stroke="rgb(85,85,85)" paint-order="fill stroke markers" d=" M 14.357391830754807 121.58192509912851 L 14.357391830754807 440.90003886393265 Q 18.8992183663434 455.90003886393265 105.19392254252669 455.90003886393265 L 286.86698396607045 455.90003886393265 Q 373.16168814225375 455.90003886393265 377.70351467784235 440.90003886393265 L 377.70351467784235 121.58192509912851 Q 373.16168814225375 106.58192509912851 286.86698396607045 106.58192509912851 L 105.19392254252669 106.58192509912851 Q 18.8992183663434 106.58192509912851 14.357391830754807 121.58192509912851 Z" fill-opacity="0.5" stroke-opacity="1" stroke-miterlimit="10" stroke-width="3.25"/><path fill="rgb(245,245,245)" stroke="rgb(85,85,85)" paint-order="fill stroke markers" d="" fill-opacity="0.5" stroke-opacity="1" stroke-miterlimit="10" stroke-width="3.25"/><text fill="rgb(0,0,0)" stroke="none" font-family="Helvetica" font-size="14px" font-style="normal" font-weight="normal" text-decoration="normal" x="196.03045325429858" y="455.77503886393265" text-anchor="middle" dominant-baseline="text-after-edge" fill-opacity="1">synaptic button</text><path fill="rgb(245,245,245)" stroke="rgb(85,85,85)" paint-order="fill stroke markers" d=" M 416.0897030087459 194.6532870451174 L 416.0897030087459 387.42142927888597 Q 419.34253361460185 398.13077051409533 481.14631512586493 398.13077051409533 L 611.259539360103 398.13077051409533 Q 673.063320871366 398.13077051409533 676.316151477222 387.42142927888597 L 676.316151477222 194.6532870451174 Q 673.063320871366 183.94394580990803 611.259539360103 183.94394580990803 L 481.14631512586493 183.94394580990803 Q 419.34253361460185 183.94394580990803 416.0897030087459 194.6532870451174 Z" fill-opacity="0.5" stroke-opacity="1" stroke-miterlimit="10" stroke-width="3.25"/><path fill="rgb(245,245,245)" stroke="rgb(85,85,85)" paint-order="fill stroke markers" d="" fill-opacity="0.5" stroke-opacity="1" stroke-miterlimit="10" stroke-width="3.25"/><text fill="rgb(0,0,0)" stroke="none" font-family="Helvetica" font-size="14px" font-style="normal" font-weight="normal" text-decoration="normal" x="546.202927242984" y="398.00577051409533" text-anchor="middle" dominant-baseline="text-after-edge" fill-opacity="1">synaptic cleft</text><path fill="rgb(245,245,245)" stroke="rgb(85,85,85)" paint-order="fill stroke markers" d=" M 731.2176119787597 26.9022183330722 L 731.2176119787597 513.2741384127721 Q 736.2176119787597 528.2741384127721 831.2176119787597 528.2741384127721 L 1396.8850581570264 528.2741384127721 Q 1491.8850581570264 528.2741384127721 1496.8850581570264 513.2741384127721 L 1496.8850581570264 26.9022183330722 Q 1491.8850581570264 11.902218333072199 1396.8850581570264 11.902218333072199 L 831.2176119787597 11.902218333072199 Q 736.2176119787597 11.902218333072199 731.2176119787597 26.9022183330722 Z" fill-opacity="0.5" stroke-opacity="1" stroke-miterlimit="10" stroke-width="3.25"/><path fill="rgb(245,245,245)" stroke="rgb(85,85,85)" paint-order="fill stroke markers" d="" fill-opacity="0.5" stroke-opacity="1" stroke-miterlimit="10" stroke-width="3.25"/><text fill="rgb(0,0,0)" stroke="none" font-family="Helvetica" font-size="14px" font-style="normal" font-weight="normal" text-decoration="normal" x="1114.051335067893" y="528.1491384127722" text-anchor="middle" dominant-baseline="text-after-edge" fill-opacity="1">muscle cytosol</text><path fill="rgb(245,245,245)" stroke="rgb(85,85,85)" paint-order="fill stroke markers" d=" M 197.34075355748027 166.25203500388287 L 197.34075355748027 235.1020350038829 Q 198.29700355748028 238.92703500388288 216.46575355748027 238.92703500388288 L 254.7157535574803 238.92703500388288 Q 272.8845035574803 238.92703500388288 273.8407535574803 235.1020350038829 L 273.8407535574803 166.25203500388287 Q 272.8845035574803 162.42703500388288 254.7157535574803 162.42703500388288 L 216.46575355748027 162.42703500388288 Q 198.29700355748028 162.42703500388288 197.34075355748027 166.25203500388287 Z" fill-opacity="0.5" stroke-opacity="1" stroke-miterlimit="10" stroke-width="3.25"/><path fill="rgb(245,245,245)" stroke="rgb(85,85,85)" paint-order="fill stroke markers" d="" fill-opacity="0.5" stroke-opacity="1" stroke-miterlimit="10" stroke-width="3.25"/><text fill="rgb(0,0,0)" stroke="none" font-family="Helvetica" font-size="14px" font-style="normal" font-weight="normal" text-decoration="normal" x="235.59075355748027" y="238.80203500388288" text-anchor="middle" dominant-baseline="text-after-edge" fill-opacity="1">synaptic vesicle</text><path fill="rgb(199,234,229)" stroke="rgb(85,85,85)" paint-order="fill stroke markers" d=" M 1120.57625752384 78.99061813606164 L 1108.57625752384 90.99061813606164 L 1108.57625752384 168.69061813606163 L 1120.57625752384 180.69061813606163 L 1189.82625752384 180.69061813606163 L 1201.82625752384 168.69061813606163 L 1201.82625752384 90.99061813606164 L 1189.82625752384 78.99061813606164 Z" fill-opacity="0.5" stroke-opacity="1" stroke-miterlimit="10" stroke-width="1.25"/><path fill="rgb(199,234,229)" stroke="rgb(85,85,85)" paint-order="fill stroke markers" d="" fill-opacity="0.5" stroke-opacity="1" stroke-miterlimit="10" stroke-width="1.25"/><text fill="rgb(0,0,0)" stroke="none" font-family="Helvetica" font-size="11px" font-style="normal" font-weight="normal" text-decoration="normal" x="1155.20125752384" y="181.69061813606163" text-anchor="middle" dominant-baseline="text-after-edge" fill-opacity="1">myosin</text><path fill="rgb(199,234,229)" stroke="rgb(85,85,85)" paint-order="fill stroke markers" d=" M 1291.8591484129734 286.2376706040342 L 1279.8591484129734 298.2376706040342 L 1279.8591484129734 375.9376706040342 L 1291.8591484129734 387.9376706040342 L 1361.1091484129734 387.9376706040342 L 1373.1091484129734 375.9376706040342 L 1373.1091484129734 298.2376706040342 L 1361.1091484129734 286.2376706040342 Z" fill-opacity="0.5" stroke-opacity="1" stroke-miterlimit="10" stroke-width="1.25"/><path fill="#ffffff" stroke="rgb(85,85,85)" paint-order="fill stroke markers" d=" M 1289.8591484129734 280.2376706040342 L 1289.8591484129734 292.2376706040342 L 1319.8591484129734 292.2376706040342 L 1319.8591484129734 280.2376706040342 Z" stroke-opacity="1" stroke-miterlimit="10" stroke-width="1.25"/><text fill="#0f0f0f" stroke="none" font-family="Arial" font-size="9px" font-style="normal" font-weight="normal" text-decoration="normal" x="1304.8591484129734" y="286.2376706040342" text-anchor="middle" dominant-baseline="central">tense</text><path fill="rgb(199,234,229)" stroke="rgb(85,85,85)" paint-order="fill stroke markers" d="" fill-opacity="0.5" stroke-opacity="1" stroke-miterlimit="10" stroke-width="1.25"/><text fill="rgb(0,0,0)" stroke="none" font-family="Helvetica" font-size="11px" font-style="normal" font-weight="normal" text-decoration="normal" x="1326.4841484129734" y="388.9376706040342" text-anchor="middle" dominant-baseline="text-after-edge" fill-opacity="1">tense</text><path fill="rgb(199,234,229)" stroke="rgb(85,85,85)" paint-order="fill stroke markers" d=" M 1063.7260022768842 292.67729044595205 L 1051.7260022768842 304.67729044595205 L 1051.7260022768842 382.3772904459521 L 1063.7260022768842 394.3772904459521 L 1176.426002276884 394.3772904459521 L 1188.426002276884 382.3772904459521 L 1188.426002276884 304.67729044595205 L 1176.426002276884 292.67729044595205 Z" fill-opacity="0.5" stroke-opacity="1" stroke-miterlimit="10" stroke-width="1.25"/><path fill="#ffffff" stroke="rgb(85,85,85)" paint-order="fill stroke markers" d=" M 1061.7260022768842 286.67729044595205 L 1061.7260022768842 298.67729044595205 L 1091.7260022768842 298.67729044595205 L 1091.7260022768842 286.67729044595205 Z" stroke-opacity="1" stroke-miterlimit="10" stroke-width="1.25"/><text fill="#0f0f0f" stroke="none" font-family="Arial" font-size="9px" font-style="normal" font-weight="normal" text-decoration="normal" x="1076.7260022768842" y="292.67729044595205" text-anchor="middle" dominant-baseline="central">relaxed</text><path fill="rgb(199,234,229)" stroke="rgb(85,85,85)" paint-order="fill stroke markers" d="" fill-opacity="0.5" stroke-opacity="1" stroke-miterlimit="10" stroke-width="1.25"/><text fill="rgb(0,0,0)" stroke="none" font-family="Helvetica" font-size="11px" font-style="normal" font-weight="normal" text-decoration="normal" x="1120.076002276884" y="395.3772904459521" text-anchor="middle" dominant-baseline="text-after-edge" fill-opacity="1">relaxed</text><path fill="rgb(245,245,245)" stroke="rgb(85,85,85)" paint-order="fill stroke markers" d=" M 773.9845549522662 37.35221833307219 L 773.9845549522662 106.20221833307218 Q 774.9408049522661 110.02721833307218 793.1095549522662 110.02721833307218 L 831.3595549522662 110.02721833307218 Q 849.5283049522662 110.02721833307218 850.4845549522662 106.20221833307218 L 850.4845549522662 37.35221833307219 Q 849.5283049522662 33.527218333072184 831.3595549522662 33.527218333072184 L 793.1095549522662 33.527218333072184 Q 774.9408049522661 33.527218333072184 773.9845549522662 37.35221833307219 Z" fill-opacity="0.5" stroke-opacity="1" stroke-miterlimit="10" stroke-width="3.25"/><path fill="rgb(245,245,245)" stroke="rgb(85,85,85)" paint-order="fill stroke markers" d="" fill-opacity="0.5" stroke-opacity="1" stroke-miterlimit="10" stroke-width="3.25"/><text fill="rgb(0,0,0)" stroke="none" font-family="Helvetica" font-size="14px" font-style="normal" font-weight="normal" text-decoration="normal" x="812.2345549522662" y="109.90221833307218" text-anchor="middle" dominant-baseline="text-after-edge" fill-opacity="1">ER</text><path fill="none" stroke="rgb(85,85,85)" paint-order="fill stroke markers" d=" M 1182.916192107691 388.5942073963319 L 1238.0387747283826 433.9532930539891" stroke-opacity="1" stroke-linejoin="round" stroke-miterlimit="10" stroke-width="1.25"/><path fill="none" stroke="rgb(85,85,85)" paint-order="fill stroke markers" d=" M 1254.2887747283826 433.9532930539891 L 1280.934342695876 470.6737647389843" stroke-opacity="1" stroke-linejoin="round" stroke-miterlimit="10" stroke-width="1.25"/><path fill="rgb(85,85,85)" stroke="none" paint-order="stroke fill markers" d=" M 1272.2275853355247 467.4663696075324 L 1283.0829829733739 472.9428989258305 L 1280.9509678453028 460.9726632245723 Z" fill-opacity="1"/><path fill="none" stroke="rgb(85,85,85)" paint-order="fill stroke markers" d=" M 182.91564064436383 200.92088100044748 L 213.9659274750144 200.76376390970168" stroke-opacity="1" stroke-linejoin="round" stroke-miterlimit="10" stroke-width="1.25"/><path fill="rgb(85,85,85)" stroke="none" paint-order="stroke fill markers" d=" M 206.24279950284 206.24219577624658 L 217.09090234242277 200.75123083082613 L 206.18926868233675 195.36732752641217 Z" fill-opacity="1"/><path fill="none" stroke="rgb(85,85,85)" paint-order="fill stroke markers" d=" M 154.07040449165527 243.04684894931017 L 166.66564064436383 200.92088100044748" stroke-opacity="1" stroke-linejoin="round" stroke-miterlimit="10" stroke-width="1.25"/><path fill="none" stroke="rgb(85,85,85)" paint-order="fill stroke markers" d=" M 142.84365856962114 162.83192509912854 L 167.91469966013392 192.7230045213587" stroke-opacity="1" stroke-linejoin="round" stroke-miterlimit="10" stroke-width="1.25"/><path fill="none" stroke="none"/><path fill="rgb(255,255,255)" stroke="rgb(255,255,255)" paint-order="fill stroke markers" d=" M 158.7682351542792 190.27942245947906 L 169.92291486898654 195.11730957187606 L 167.10041673007973 183.29083353267202 L 158.7682351542792 190.27942245947906 M 165.8684777315655 179.22058713236024 L 165.8684777315655 179.22058713236024 L 154.97454490755192 188.3578361962066 Z Z" fill-opacity="1" stroke-opacity="1" stroke-miterlimit="10" stroke-width="1.25"/><path fill="none" stroke="none"/><path fill="none" stroke="rgb(85,85,85)" paint-order="fill stroke markers" d=" M 158.7682351542792 190.27942245947906 L 169.92291486898654 195.11730957187606 L 167.10041673007973 183.29083353267202 L 158.7682351542792 190.27942245947906 M 165.8684777315655 179.22058713236024 L 165.8684777315655 179.22058713236024 L 154.97454490755192 188.3578361962066 Z Z" stroke-opacity="1" stroke-miterlimit="10" stroke-width="1.25"/><path fill="none" stroke="rgb(85,85,85)" paint-order="fill stroke markers" d=" M 105.60739183075482 316.9982111259024 L 143.33586005942186 322.6163468204634" stroke-opacity="1" stroke-linejoin="round" stroke-miterlimit="10" stroke-width="1.25"/><path fill="rgb(255,255,255)" stroke="rgb(255,255,255)" paint-order="fill stroke markers" d=" M 146.48608020935634 322.2757486151183 A 5.4375 5.4375 0 1 1 146.48607749060656 322.2703111160245 Z" fill-opacity="1" stroke-opacity="1" stroke-miterlimit="10"/><path fill="none" stroke="rgb(85,85,85)" paint-order="fill stroke markers" d=" M 146.48608020935634 322.2757486151183 A 5.4375 5.4375 0 1 1 146.48607749060656 322.2703111160245 Z" stroke-opacity="1" stroke-miterlimit="10"/><path fill="none" stroke="rgb(85,85,85)" paint-order="fill stroke markers" d=" M 133.7205009601456 366.0380179393145 L 152.23035020429802 332.0658228703519" stroke-opacity="1" stroke-linejoin="round" stroke-miterlimit="10" stroke-width="1.25"/><path fill="none" stroke="rgb(85,85,85)" paint-order="fill stroke markers" d=" M 200.37074156544253 345.6428896873912 L 152.23035020429802 332.0658228703519" stroke-opacity="1" stroke-linejoin="round" stroke-miterlimit="10" stroke-width="1.25"/><path fill="none" stroke="rgb(85,85,85)" paint-order="fill stroke markers" d=" M 152.23035020429802 315.8158228703519 L 148.02242323062688 281.1685298213306" stroke-opacity="1" stroke-linejoin="round" stroke-miterlimit="10" stroke-width="1.25"/><path fill="rgb(85,85,85)" stroke="none" paint-order="stroke fill markers" d=" M 154.3980482461583 288.2167156760291 L 147.71646361099093 278.05854369416664 L 143.5988768066014 289.49871459141804 Z" fill-opacity="1"/><path fill="none" stroke="rgb(85,85,85)" paint-order="fill stroke markers" d=" M 277.77354173224677 361.9770450764835 L 238.6884454401312 355.9738263991424" stroke-opacity="1" stroke-linejoin="round" stroke-miterlimit="10" stroke-width="1.25"/><path fill="rgb(85,85,85)" stroke="none" paint-order="stroke fill markers" d=" M 247.15257092468357 351.8243413176013 L 235.58840807640135 355.57962677524745 L 245.53113415148763 362.57778577928553 Z" fill-opacity="1"/><path fill="none" stroke="rgb(85,85,85)" paint-order="fill stroke markers" d=" M 254.06266204794917 201.69615065960718 L 436.21470300874586 212.19394580990803" stroke-opacity="1" stroke-linejoin="round" stroke-miterlimit="10" stroke-width="1.25"/><path fill="none" stroke="rgb(85,85,85)" paint-order="fill stroke markers" d=" M 310.29634539575807 399.65003886393265 L 291.3557522685532 370.4036010676094" stroke-opacity="1" stroke-linejoin="round" stroke-miterlimit="10" stroke-width="1.25"/><path fill="none" stroke="none"/><path fill="rgb(255,255,255)" stroke="rgb(255,255,255)" paint-order="fill stroke markers" d=" M 300.1325179725966 373.9528671926453 L 289.6570536535537 367.7806165050549 L 291.0045316949072 379.8643383728434 L 300.1325179725966 373.9528671926453 M 291.7268464786947 384.05514268805945 L 291.7268464786947 384.05514268805945 L 303.661256263579 376.32617406893957 Z Z" fill-opacity="1" stroke-opacity="1" stroke-miterlimit="10" stroke-width="1.25"/><path fill="none" stroke="none"/><path fill="none" stroke="rgb(85,85,85)" paint-order="fill stroke markers" d=" M 300.1325179725966 373.9528671926453 L 289.6570536535537 367.7806165050549 L 291.0045316949072 379.8643383728434 L 300.1325179725966 373.9528671926453 M 291.7268464786947 384.05514268805945 L 291.7268464786947 384.05514268805945 L 303.661256263579 376.32617406893957 Z Z" stroke-opacity="1" stroke-miterlimit="10" stroke-width="1.25"/><path fill="none" stroke="rgb(85,85,85)" paint-order="fill stroke markers" d=" M 454.03659148672284 324.21104946499145 L 294.02354173224677 361.9770450764835" stroke-opacity="1" stroke-linejoin="round" stroke-miterlimit="10" stroke-width="1.25"/><path fill="none" stroke="rgb(85,85,85)" paint-order="fill stroke markers" d=" M 295.8816343599718 273.30592846375197 L 435.6463904822182 215.7725021602704" stroke-opacity="1" stroke-linejoin="round" stroke-miterlimit="10" stroke-width="1.25"/><path fill="none" stroke="none"/><path fill="rgb(255,255,255)" stroke="rgb(255,255,255)" paint-order="fill stroke markers" d=" M 430.54964384310557 223.7507275235134 L 438.5361315801744 214.58295544543202 L 426.410021275468 213.69442850262578 L 430.54964384310557 223.7507275235134 M 422.1578129202334 213.63695190752475 L 422.1578129202334 213.63695190752475 L 427.57017338769975 226.7850866421207 Z Z" fill-opacity="1" stroke-opacity="1" stroke-miterlimit="10" stroke-width="1.25"/><path fill="none" stroke="none"/><path fill="none" stroke="rgb(85,85,85)" paint-order="fill stroke markers" d=" M 430.54964384310557 223.7507275235134 L 438.5361315801744 214.58295544543202 L 426.410021275468 213.69442850262578 L 430.54964384310557 223.7507275235134 M 422.1578129202334 213.63695190752475 L 422.1578129202334 213.63695190752475 L 427.57017338769975 226.7850866421207 Z Z" stroke-opacity="1" stroke-miterlimit="10" stroke-width="1.25"/><path fill="none" stroke="rgb(85,85,85)" paint-order="fill stroke markers" d=" M 452.46470300874586 212.19394580990803 L 499.8860785026871 226.49462727304302" stroke-opacity="1" stroke-linejoin="round" stroke-miterlimit="10" stroke-width="1.25"/><path fill="rgb(85,85,85)" stroke="none" paint-order="stroke fill markers" d=" M 490.93797739050837 229.38218908891827 L 502.9123910849172 227.27376599922454 L 494.0410043965169 218.9592888975137 Z" fill-opacity="1"/><path fill="none" stroke="rgb(85,85,85)" paint-order="fill stroke markers" d=" M 525.3888181255357 249.81530548669457 L 537.6438005222205 289.867589894483" stroke-opacity="1" stroke-linejoin="round" stroke-miterlimit="10" stroke-width="1.25"/><path fill="none" stroke="rgb(85,85,85)" paint-order="fill stroke markers" d=" M 585.066151477222 298.4397025396845 L 546.5722330646809 298.0767699279729" stroke-opacity="1" stroke-linejoin="round" stroke-miterlimit="10" stroke-width="1.25"/><path fill="rgb(255,255,255)" stroke="rgb(255,255,255)" paint-order="fill stroke markers" d=" M 554.3221302889585 298.0985719267959 A 5.4375 5.4375 0 1 1 554.3221275702087 298.0931344277021 Z" fill-opacity="1" stroke-opacity="1" stroke-miterlimit="10"/><path fill="none" stroke="rgb(85,85,85)" paint-order="fill stroke markers" d=" M 554.3221302889585 298.0985719267959 A 5.4375 5.4375 0 1 1 554.3221275702087 298.0931344277021 Z" stroke-opacity="1" stroke-miterlimit="10"/><path fill="none" stroke="rgb(85,85,85)" paint-order="fill stroke markers" d=" M 537.6438005222205 306.117589894483 L 492.57272325535206 313.2306627972318" stroke-opacity="1" stroke-linejoin="round" stroke-miterlimit="10" stroke-width="1.25"/><path fill="rgb(85,85,85)" stroke="none" paint-order="stroke fill markers" d=" M 499.3943308632192 307.0104116150689 L 489.61233935352976 314.23153849072787 L 501.25843575987057 317.724455573084 Z" fill-opacity="1"/><path fill="none" stroke="rgb(85,85,85)" paint-order="fill stroke markers" d=" M 537.6438005222205 306.117589894483 L 549.1643922672292 339.0595514918018" stroke-opacity="1" stroke-linejoin="round" stroke-miterlimit="10" stroke-width="1.25"/><path fill="rgb(85,85,85)" stroke="none" paint-order="stroke fill markers" d=" M 541.3490913624013 333.5333411355452 L 550.008469668377 342.068398171324 L 551.6408883134146 330.0198613050762 Z" fill-opacity="1"/><path fill="none" stroke="rgb(85,85,85)" paint-order="fill stroke markers" d=" M 789.3563514175501 288.25603374766155 L 789.2010714471003 208.18313939881182" stroke-opacity="1" stroke-linejoin="round" stroke-miterlimit="10" stroke-width="1.25"/><path fill="none" stroke="rgb(85,85,85)" paint-order="fill stroke markers" d=" M 805.4510714471003 208.18313939881182 L 854.0572955433033 231.22051529613526" stroke-opacity="1" stroke-linejoin="round" stroke-miterlimit="10" stroke-width="1.25"/><path fill="rgb(85,85,85)" stroke="none" paint-order="stroke fill markers" d=" M 844.7980417200765 232.70755547365198 L 856.9526759058083 232.39626933351764 L 849.4108664822618 222.8593336690128 Z" fill-opacity="1"/><path fill="none" stroke="rgb(85,85,85)" paint-order="fill stroke markers" d=" M 926.7167741830004 244.93054696385474 L 970.0452392789382 243.24663988223347" stroke-opacity="1" stroke-linejoin="round" stroke-miterlimit="10" stroke-width="1.25"/><path fill="none" stroke="none"/><path fill="rgb(255,255,255)" stroke="rgb(255,255,255)" paint-order="fill stroke markers" d=" M 962.5122477136628 248.98100508925413 L 973.1678819616685 243.12528224551176 L 962.0899231378711 238.11420855335254 L 962.5122477136628 248.98100508925413 M 958.1177391222362 236.59554677361157 L 958.1177391222362 236.59554677361157 L 958.6699085050982 250.803368626433 Z Z" fill-opacity="1" stroke-opacity="1" stroke-miterlimit="10" stroke-width="1.25"/><path fill="none" stroke="none"/><path fill="none" stroke="rgb(85,85,85)" paint-order="fill stroke markers" d=" M 962.5122477136628 248.98100508925413 L 973.1678819616685 243.12528224551176 L 962.0899231378711 238.11420855335254 L 962.5122477136628 248.98100508925413 M 958.1177391222362 236.59554677361157 L 958.1177391222362 236.59554677361157 L 958.6699085050982 250.803368626433 Z Z" stroke-opacity="1" stroke-miterlimit="10" stroke-width="1.25"/><path fill="none" stroke="rgb(85,85,85)" paint-order="fill stroke markers" d=" M 987.09645339024 242.8997336366324 L 1026.8954083684982 240.5314615726646" stroke-opacity="1" stroke-linejoin="round" stroke-miterlimit="10" stroke-width="1.25"/><path fill="rgb(85,85,85)" stroke="none" paint-order="stroke fill markers" d=" M 1019.4773730516324 246.43995403150072 L 1030.0165996106389 240.37722075450975 L 1018.8428770536423 235.58347947349918 Z" fill-opacity="1"/><path fill="none" stroke="rgb(85,85,85)" paint-order="fill stroke markers" d=" M 1066.938580978235 240.8956674395642 L 1110.5423439843871 244.2799266819403" stroke-opacity="1" stroke-linejoin="round" stroke-miterlimit="10" stroke-width="1.25"/><path fill="rgb(255,255,255)" stroke="rgb(255,255,255)" paint-order="fill stroke markers" d=" M 1102.3948214332602 249.10141841467998 L 1113.6579739192055 244.52174295365165 L 1103.2363420588156 238.25902624151243 Z" fill-opacity="1" stroke-opacity="1" stroke-miterlimit="10"/><path fill="none" stroke="rgb(85,85,85)" paint-order="fill stroke markers" d=" M 1102.3948214332602 249.10141841467998 L 1113.6579739192055 244.52174295365165 L 1103.2363420588156 238.25902624151243 Z" stroke-opacity="1" stroke-miterlimit="10"/><path fill="none" stroke="rgb(85,85,85)" paint-order="fill stroke markers" d=" M 539.2605558191137 230.30612729333512 L 788.4089199091717 208.94757332578254" stroke-opacity="1" stroke-linejoin="round" stroke-miterlimit="10" stroke-width="1.25"/><path fill="none" stroke="none"/><path fill="rgb(255,255,255)" stroke="rgb(255,255,255)" paint-order="fill stroke markers" d=" M 781.1516742681853 215.02715324189379 L 791.5225000185288 208.68065779117376 L 780.2228082077467 204.1918944613309 L 781.1516742681853 215.02715324189379 M 776.1840951373915 202.86021274611002 L 776.1840951373915 202.86021274611002 L 777.3985435231915 217.0268004773567 Z Z" fill-opacity="1" stroke-opacity="1" stroke-miterlimit="10" stroke-width="1.25"/><path fill="none" stroke="none"/><path fill="none" stroke="rgb(85,85,85)" paint-order="fill stroke markers" d=" M 781.1516742681853 215.02715324189379 L 791.5225000185288 208.68065779117376 L 780.2228082077467 204.1918944613309 L 781.1516742681853 215.02715324189379 M 776.1840951373915 202.86021274611002 L 776.1840951373915 202.86021274611002 L 777.3985435231915 217.0268004773567 Z Z" stroke-opacity="1" stroke-miterlimit="10" stroke-width="1.25"/><path fill="none" stroke="rgb(85,85,85)" paint-order="fill stroke markers" d=" M 1139.250196289902 181.19061813606163 L 1119.4380345263558 236.84535615083092" stroke-opacity="1" stroke-linejoin="round" stroke-miterlimit="10" stroke-width="1.25"/><path fill="none" stroke="rgb(85,85,85)" paint-order="fill stroke markers" d=" M 1254.2887747283826 433.9532930539891 L 1220.5126165992897 472.0816529039945" stroke-opacity="1" stroke-linejoin="round" stroke-miterlimit="10" stroke-width="1.25"/><path fill="rgb(85,85,85)" stroke="none" paint-order="stroke fill markers" d=" M 1221.7779533336536 462.8942694884751 L 1218.7682596337538 474.67449763069646 L 1229.9982583674707 470.0141157052835 Z" fill-opacity="1"/><path fill="none" stroke="rgb(85,85,85)" paint-order="fill stroke markers" d=" M 1168.4700181354335 247.60882158108285 L 1119.4380345263558 236.84535615083092" stroke-opacity="1" stroke-linejoin="round" stroke-miterlimit="10" stroke-width="1.25"/><path fill="none" stroke="rgb(85,85,85)" paint-order="fill stroke markers" d=" M 1286.0706712949013 237.64932978498464 L 1242.5917724692886 247.75749524163473" stroke-opacity="1" stroke-linejoin="round" stroke-miterlimit="10" stroke-width="1.25"/><path fill="rgb(85,85,85)" stroke="none" paint-order="stroke fill markers" d=" M 1248.964090498099 240.30418757880707 L 1239.4700181354335 247.89988512560763 L 1251.2430195904733 250.93772448765966 Z" fill-opacity="1"/><path fill="none" stroke="rgb(85,85,85)" paint-order="fill stroke markers" d=" M 1119.4380345263558 253.09535615083115 L 1119.7233812087466 289.0523559140099" stroke-opacity="1" stroke-linejoin="round" stroke-miterlimit="10" stroke-width="1.25"/><path fill="rgb(85,85,85)" stroke="none" paint-order="stroke fill markers" d=" M 1114.2218086590685 281.3448507305623 L 1119.7436091862921 292.17729044595205 L 1125.0964806422699 281.2603861949393 Z" fill-opacity="1"/><path fill="none" stroke="rgb(85,85,85)" paint-order="fill stroke markers" d=" M 1286.0706712949013 237.64932978498464 L 1301.0776416124588 205.48785860712684" stroke-opacity="1" stroke-linejoin="round" stroke-miterlimit="10" stroke-width="1.25"/><path fill="rgb(85,85,85)" stroke="none" paint-order="stroke fill markers" d=" M 1302.6108655072203 214.71000583713445 L 1302.168497837934 202.55943621694092 L 1292.713462743351 210.20367212448622 Z" fill-opacity="1"/><path fill="none" stroke="rgb(85,85,85)" paint-order="fill stroke markers" d=" M 1301.102173644201 279.7376706040342 L 1286.0706712949013 253.89932978498464" stroke-opacity="1" stroke-linejoin="round" stroke-miterlimit="10" stroke-width="1.25"/><path fill="none" stroke="rgb(85,85,85)" paint-order="fill stroke markers" d=" M 825.1451373999823 85.02738289283238 L 970.84645339024 242.8997336366324" stroke-opacity="1" stroke-linejoin="round" stroke-miterlimit="10" stroke-width="1.25"/><path fill="none" stroke="rgb(85,85,85)" paint-order="fill stroke markers" d=" M 1254.2887747283826 433.9532930539891 L 1285.4221518693855 386.60805592808316" stroke-opacity="1" stroke-linejoin="round" stroke-miterlimit="10" stroke-width="1.25"/><path fill="rgb(85,85,85)" stroke="none" paint-order="stroke fill markers" d=" M 1285.883165300225 396.2639773512472 L 1287.416845281783 384.2024742540305 L 1276.8474348150748 390.21243212711425 Z" fill-opacity="1"/><path fill="none" stroke="rgb(85,85,85)" paint-order="fill stroke markers" d=" M 1373.3597866019911 376.394139196203 L 1419.2099849608628 414.84074923424885" stroke-opacity="1" stroke-linejoin="round" stroke-miterlimit="10" stroke-width="1.25"/><path fill="rgb(255,255,255)" stroke="rgb(255,255,255)" paint-order="fill stroke markers" d=" M 1409.7777088708579 414.0276846538365 L 1421.6045493902914 416.8486551566755 L 1416.7652214809025 405.69460043942536 Z" fill-opacity="1" stroke-opacity="1" stroke-miterlimit="10"/><path fill="none" stroke="rgb(85,85,85)" paint-order="fill stroke markers" d=" M 1409.7777088708579 414.0276846538365 L 1421.6045493902914 416.8486551566755 L 1416.7652214809025 405.69460043942536 Z" stroke-opacity="1" stroke-miterlimit="10"/><path fill="none" stroke="rgb(85,85,85)" paint-order="fill stroke markers" d=" M 1258.7780636784685 128.6802223582201 L 1205.4510889163878 129.3186060559307" stroke-opacity="1" stroke-linejoin="round" stroke-miterlimit="10" stroke-width="1.25"/><path fill="rgb(85,85,85)" stroke="none" paint-order="stroke fill markers" d=" M 1213.1361018223097 123.78516293881962 L 1202.32625752384 129.35106785112637 L 1213.2648880327672 134.65940034251815 Z" fill-opacity="1"/><path fill="none" stroke="rgb(85,85,85)" paint-order="fill stroke markers" d=" M 1301.7659681047041 89.26196127738575 L 1275.0280636784685 128.6802223582201" stroke-opacity="1" stroke-linejoin="round" stroke-miterlimit="10" stroke-width="1.25"/><path fill="none" stroke="rgb(85,85,85)" paint-order="fill stroke markers" d=" M 1295.3539193458807 166.55943621694092 L 1275.0280636784685 128.6802223582201" stroke-opacity="1" stroke-linejoin="round" stroke-miterlimit="10" stroke-width="1.25"/><path fill="rgb(128,205,193)" stroke="rgb(85,85,85)" paint-order="fill stroke markers" d=" M 321.95351467784235 400.15003886393265 L 348.95351467784235 400.15003886393265 L 348.95351467784235 400.15003886393265 A 8 8 0 0 1 356.95351467784235 408.15003886393265 L 356.95351467784235 427.15003886393265 L 356.95351467784235 427.15003886393265 A 8 8 0 0 1 348.95351467784235 435.15003886393265 L 294.95351467784235 435.15003886393265 L 294.95351467784235 435.15003886393265 A 8 8 0 0 1 286.95351467784235 427.15003886393265 L 286.95351467784235 408.15003886393265 L 286.95351467784235 408.15003886393265 A 8 8 0 0 1 294.95351467784235 400.15003886393265 L 321.95351467784235 400.15003886393265 Z" fill-opacity="0.5" stroke-opacity="1" stroke-miterlimit="10" stroke-width="1.25"/><path fill="rgb(128,205,193)" stroke="rgb(85,85,85)" paint-order="fill stroke markers" d="" fill-opacity="0.5" stroke-opacity="1" stroke-miterlimit="10" stroke-width="1.25"/><text fill="rgb(0,0,0)" stroke="none" font-family="Helvetica" font-size="11px" font-style="normal" font-weight="normal" text-decoration="normal" x="321.95351467784235" y="423.15003886393265" text-anchor="middle" dominant-baseline="text-after-edge" fill-opacity="1">CHT1</text><path fill="rgb(128,205,193)" stroke="rgb(85,85,85)" paint-order="fill stroke markers" d=" M 261.7119851557275 269.8716847305802 L 288.7119851557275 269.8716847305802 L 288.7119851557275 269.8716847305802 A 8 8 0 0 1 296.7119851557275 277.8716847305802 L 296.7119851557275 296.8716847305802 L 296.7119851557275 296.8716847305802 A 8 8 0 0 1 288.7119851557275 304.8716847305802 L 234.71198515572752 304.8716847305802 L 234.71198515572752 304.8716847305802 A 8 8 0 0 1 226.71198515572752 296.8716847305802 L 226.71198515572752 277.8716847305802 L 226.71198515572752 277.8716847305802 A 8 8 0 0 1 234.71198515572752 269.8716847305802 L 261.7119851557275 269.8716847305802 Z" fill-opacity="0.5" stroke-opacity="1" stroke-miterlimit="10" stroke-width="1.25"/><path fill="rgb(128,205,193)" stroke="rgb(85,85,85)" paint-order="fill stroke markers" d="" fill-opacity="0.5" stroke-opacity="1" stroke-miterlimit="10" stroke-width="1.25"/><text fill="rgb(0,0,0)" stroke="none" font-family="Helvetica" font-size="11px" font-style="normal" font-weight="normal" text-decoration="normal" x="261.7119851557275" y="292.8716847305802" text-anchor="middle" dominant-baseline="text-after-edge" fill-opacity="1">SNARE</text><path fill="rgb(255,255,255)" stroke="rgb(85,85,85)" paint-order="fill stroke markers" d=" M 278.39854173224677 361.9020450764835 L 280.54139887510394 361.9020450764835 L 280.54139887510394 356.61990221934064 L 291.2556845893896 356.61990221934064 L 291.2556845893896 361.9020450764835 L 293.39854173224677 361.9020450764835 L 293.39854173224677 362.05204507648347 L 291.2556845893896 362.05204507648347 L 291.2556845893896 367.3341879336263 L 280.54139887510394 367.3341879336263 L 280.54139887510394 362.05204507648347 L 278.39854173224677 362.05204507648347 Z" fill-opacity="0.5" stroke-opacity="1" stroke-miterlimit="10" stroke-width="1.25"/><path fill="rgb(246,232,195)" stroke="rgb(85,85,85)" paint-order="fill stroke markers" d=" M 235.59075355748027 183.17703500388288 L 235.59075355748027 183.17703500388288 L 235.59075355748027 183.17703500388288 A 17.5 17.5 0 0 1 253.09075355748027 200.67703500388288 L 253.09075355748027 200.67703500388288 L 253.09075355748027 200.67703500388288 A 17.5 17.5 0 0 1 235.59075355748027 218.17703500388288 L 235.59075355748027 218.17703500388288 L 235.59075355748027 218.17703500388288 A 17.5 17.5 0 0 1 218.09075355748027 200.67703500388288 L 218.09075355748027 200.67703500388288 L 218.09075355748027 200.67703500388288 A 17.5 17.5 0 0 1 235.59075355748027 183.17703500388288 L 235.59075355748027 183.17703500388288 Z" fill-opacity="0.5" stroke-opacity="1" stroke-miterlimit="10" stroke-width="1.25"/><path fill="rgb(246,232,195)" stroke="rgb(85,85,85)" paint-order="fill stroke markers" d="" fill-opacity="0.5" stroke-opacity="1" stroke-miterlimit="10" stroke-width="1.25"/><text fill="rgb(0,0,0)" stroke="none" font-family="Helvetica" font-size="11px" font-style="normal" font-weight="normal" text-decoration="normal" x="235.59075355748027" y="206.17703500388288" text-anchor="middle" dominant-baseline="text-after-edge" fill-opacity="1">ACh</text><path fill="rgb(246,232,195)" stroke="rgb(85,85,85)" paint-order="fill stroke markers" d=" M 145.90518266274609 242.14742582135608 L 145.90518266274609 242.14742582135608 L 145.90518266274609 242.14742582135608 A 17.5 17.5 0 0 1 163.40518266274609 259.6474258213561 L 163.40518266274609 259.6474258213561 L 163.40518266274609 259.6474258213561 A 17.5 17.5 0 0 1 145.90518266274609 277.1474258213561 L 145.90518266274609 277.1474258213561 L 145.90518266274609 277.1474258213561 A 17.5 17.5 0 0 1 128.40518266274609 259.6474258213561 L 128.40518266274609 259.6474258213561 L 128.40518266274609 259.6474258213561 A 17.5 17.5 0 0 1 145.90518266274609 242.14742582135608 L 145.90518266274609 242.14742582135608 Z" fill-opacity="0.5" stroke-opacity="1" stroke-miterlimit="10" stroke-width="1.25"/><path fill="rgb(246,232,195)" stroke="rgb(85,85,85)" paint-order="fill stroke markers" d="" fill-opacity="0.5" stroke-opacity="1" stroke-miterlimit="10" stroke-width="1.25"/><text fill="rgb(0,0,0)" stroke="none" font-family="Helvetica" font-size="11px" font-style="normal" font-weight="normal" text-decoration="normal" x="145.90518266274609" y="265.1474258213561" text-anchor="middle" dominant-baseline="text-after-edge" fill-opacity="1">ACh</text><path fill="rgb(246,232,195)" stroke="rgb(85,85,85)" paint-order="fill stroke markers" d=" M 217.2361868831207 335.7459650017891 L 217.2361868831207 335.7459650017891 L 217.2361868831207 335.7459650017891 A 17.5 17.5 0 0 1 234.7361868831207 353.2459650017891 L 234.7361868831207 353.2459650017891 L 234.7361868831207 353.2459650017891 A 17.5 17.5 0 0 1 217.2361868831207 370.7459650017891 L 217.2361868831207 370.7459650017891 L 217.2361868831207 370.7459650017891 A 17.5 17.5 0 0 1 199.7361868831207 353.2459650017891 L 199.7361868831207 353.2459650017891 L 199.7361868831207 353.2459650017891 A 17.5 17.5 0 0 1 217.2361868831207 335.7459650017891 L 217.2361868831207 335.7459650017891 Z" fill-opacity="0.5" stroke-opacity="1" stroke-miterlimit="10" stroke-width="1.25"/><path fill="rgb(246,232,195)" stroke="rgb(85,85,85)" paint-order="fill stroke markers" d="" fill-opacity="0.5" stroke-opacity="1" stroke-miterlimit="10" stroke-width="1.25"/><text fill="rgb(0,0,0)" stroke="none" font-family="Helvetica" font-size="11px" font-style="normal" font-weight="normal" text-decoration="normal" x="217.2361868831207" y="358.7459650017891" text-anchor="middle" dominant-baseline="text-after-edge" fill-opacity="1">choline</text><path fill="rgb(246,232,195)" stroke="rgb(85,85,85)" paint-order="fill stroke markers" d=" M 126.27419022878632 365.47326096951764 L 126.27419022878632 365.47326096951764 L 126.27419022878632 365.47326096951764 A 17.5 17.5 0 0 1 143.77419022878632 382.97326096951764 L 143.77419022878632 382.97326096951764 L 143.77419022878632 382.97326096951764 A 17.5 17.5 0 0 1 126.27419022878632 400.47326096951764 L 126.27419022878632 400.47326096951764 L 126.27419022878632 400.47326096951764 A 17.5 17.5 0 0 1 108.77419022878632 382.97326096951764 L 108.77419022878632 382.97326096951764 L 108.77419022878632 382.97326096951764 A 17.5 17.5 0 0 1 126.27419022878632 365.47326096951764 L 126.27419022878632 365.47326096951764 Z" fill-opacity="0.5" stroke-opacity="1" stroke-miterlimit="10" stroke-width="1.25"/><path fill="rgb(246,232,195)" stroke="rgb(85,85,85)" paint-order="fill stroke markers" d="" fill-opacity="0.5" stroke-opacity="1" stroke-miterlimit="10" stroke-width="1.25"/><text fill="rgb(0,0,0)" stroke="none" font-family="Helvetica" font-size="11px" font-style="normal" font-weight="normal" text-decoration="normal" x="126.27419022878632" y="382.97326096951764" text-anchor="middle" dominant-baseline="text-after-edge" fill-opacity="1">acetyl</text><text fill="rgb(0,0,0)" stroke="none" font-family="Helvetica" font-size="11px" font-style="normal" font-weight="normal" text-decoration="normal" x="126.27419022878632" y="393.97326096951764" text-anchor="middle" dominant-baseline="text-after-edge" fill-opacity="1">CoA</text><path fill="rgb(255,255,255)" stroke="rgb(85,85,85)" paint-order="fill stroke markers" d=" M 152.15535020429803 316.4408228703519 L 152.15535020429803 318.58368001320906 L 146.87320734715516 318.58368001320906 L 146.87320734715516 329.2979657274947 L 152.15535020429803 329.2979657274947 L 152.15535020429803 331.4408228703519 L 152.305350204298 331.4408228703519 L 152.305350204298 329.2979657274947 L 157.58749306144088 329.2979657274947 L 157.58749306144088 318.58368001320906 L 152.305350204298 318.58368001320906 L 152.305350204298 316.4408228703519 Z" fill-opacity="0.5" stroke-opacity="1" stroke-miterlimit="10" stroke-width="1.25"/><path fill="rgb(128,205,193)" stroke="rgb(85,85,85)" paint-order="fill stroke markers" d=" M 70.10739183075482 294.21191601452625 L 97.10739183075482 294.21191601452625 L 97.10739183075482 294.21191601452625 A 8 8 0 0 1 105.10739183075482 302.21191601452625 L 105.10739183075482 321.21191601452625 L 105.10739183075482 321.21191601452625 A 8 8 0 0 1 97.10739183075482 329.21191601452625 L 43.10739183075482 329.21191601452625 L 43.10739183075482 329.21191601452625 A 8 8 0 0 1 35.10739183075482 321.21191601452625 L 35.10739183075482 302.21191601452625 L 35.10739183075482 302.21191601452625 A 8 8 0 0 1 43.10739183075482 294.21191601452625 L 70.10739183075482 294.21191601452625 Z" fill-opacity="0.5" stroke-opacity="1" stroke-miterlimit="10" stroke-width="1.25"/><path fill="rgb(128,205,193)" stroke="rgb(85,85,85)" paint-order="fill stroke markers" d="" fill-opacity="0.5" stroke-opacity="1" stroke-miterlimit="10" stroke-width="1.25"/><text fill="rgb(0,0,0)" stroke="none" font-family="Helvetica" font-size="11px" font-style="normal" font-weight="normal" text-decoration="normal" x="70.10739183075482" y="317.21191601452625" text-anchor="middle" dominant-baseline="text-after-edge" fill-opacity="1">ChAT</text><path fill="rgb(128,205,193)" stroke="rgb(85,85,85)" paint-order="fill stroke markers" d=" M 127.74621985706628 127.33192509912854 L 154.74621985706628 127.33192509912854 L 154.74621985706628 127.33192509912854 A 8 8 0 0 1 162.74621985706628 135.33192509912854 L 162.74621985706628 154.33192509912854 L 162.74621985706628 154.33192509912854 A 8 8 0 0 1 154.74621985706628 162.33192509912854 L 100.74621985706628 162.33192509912854 L 100.74621985706628 162.33192509912854 A 8 8 0 0 1 92.74621985706628 154.33192509912854 L 92.74621985706628 135.33192509912854 L 92.74621985706628 135.33192509912854 A 8 8 0 0 1 100.74621985706628 127.33192509912854 L 127.74621985706628 127.33192509912854 Z" fill-opacity="0.5" stroke-opacity="1" stroke-miterlimit="10" stroke-width="1.25"/><path fill="rgb(128,205,193)" stroke="rgb(85,85,85)" paint-order="fill stroke markers" d="" fill-opacity="0.5" stroke-opacity="1" stroke-miterlimit="10" stroke-width="1.25"/><text fill="rgb(0,0,0)" stroke="none" font-family="Helvetica" font-size="11px" font-style="normal" font-weight="normal" text-decoration="normal" x="127.74621985706628" y="150.33192509912854" text-anchor="middle" dominant-baseline="text-after-edge" fill-opacity="1">vAChT</text><path fill="rgb(255,255,255)" stroke="rgb(85,85,85)" paint-order="fill stroke markers" d=" M 167.29064064436383 200.8458810004475 L 169.43349778722097 200.8458810004475 L 169.43349778722097 195.56373814330462 L 180.1477835015067 195.56373814330462 L 180.1477835015067 200.8458810004475 L 182.29064064436383 200.8458810004475 L 182.29064064436383 200.99588100044747 L 180.1477835015067 200.99588100044747 L 180.1477835015067 206.27802385759034 L 169.43349778722097 206.27802385759034 L 169.43349778722097 200.99588100044747 L 167.29064064436383 200.99588100044747 Z" fill-opacity="0.5" stroke-opacity="1" stroke-miterlimit="10" stroke-width="1.25"/><path fill="rgb(128,205,193)" stroke="rgb(85,85,85)" paint-order="fill stroke markers" d=" M 620.566151477222 281.27440755925886 L 647.566151477222 281.27440755925886 L 647.566151477222 281.27440755925886 A 8 8 0 0 1 655.566151477222 289.27440755925886 L 655.566151477222 308.27440755925886 L 655.566151477222 308.27440755925886 A 8 8 0 0 1 647.566151477222 316.27440755925886 L 593.566151477222 316.27440755925886 L 593.566151477222 316.27440755925886 A 8 8 0 0 1 585.566151477222 308.27440755925886 L 585.566151477222 289.27440755925886 L 585.566151477222 289.27440755925886 A 8 8 0 0 1 593.566151477222 281.27440755925886 L 620.566151477222 281.27440755925886 Z" fill-opacity="0.5" stroke-opacity="1" stroke-miterlimit="10" stroke-width="1.25"/><path fill="rgb(128,205,193)" stroke="rgb(85,85,85)" paint-order="fill stroke markers" d="" fill-opacity="0.5" stroke-opacity="1" stroke-miterlimit="10" stroke-width="1.25"/><text fill="rgb(0,0,0)" stroke="none" font-family="Helvetica" font-size="11px" font-style="normal" font-weight="normal" text-decoration="normal" x="620.566151477222" y="304.27440755925886" text-anchor="middle" dominant-baseline="text-after-edge" fill-opacity="1">AChE</text><path fill="rgb(246,232,195)" stroke="rgb(85,85,85)" paint-order="fill stroke markers" d=" M 472.08686665474164 302.65672259622465 L 472.08686665474164 302.65672259622465 L 472.08686665474164 302.65672259622465 A 17.5 17.5 0 0 1 489.58686665474164 320.15672259622465 L 489.58686665474164 320.15672259622465 L 489.58686665474164 320.15672259622465 A 17.5 17.5 0 0 1 472.08686665474164 337.65672259622465 L 472.08686665474164 337.65672259622465 L 472.08686665474164 337.65672259622465 A 17.5 17.5 0 0 1 454.58686665474164 320.15672259622465 L 454.58686665474164 320.15672259622465 L 454.58686665474164 320.15672259622465 A 17.5 17.5 0 0 1 472.08686665474164 302.65672259622465 L 472.08686665474164 302.65672259622465 Z" fill-opacity="0.5" stroke-opacity="1" stroke-miterlimit="10" stroke-width="1.25"/><path fill="rgb(246,232,195)" stroke="rgb(85,85,85)" paint-order="fill stroke markers" d="" fill-opacity="0.5" stroke-opacity="1" stroke-miterlimit="10" stroke-width="1.25"/><text fill="rgb(0,0,0)" stroke="none" font-family="Helvetica" font-size="11px" font-style="normal" font-weight="normal" text-decoration="normal" x="472.08686665474164" y="325.65672259622465" text-anchor="middle" dominant-baseline="text-after-edge" fill-opacity="1">choline</text><path fill="rgb(246,232,195)" stroke="rgb(85,85,85)" paint-order="fill stroke markers" d=" M 555.0054078831718 342.38077051409533 L 555.0054078831718 342.38077051409533 L 555.0054078831718 342.38077051409533 A 17.5 17.5 0 0 1 572.5054078831718 359.88077051409533 L 572.5054078831718 359.88077051409533 L 572.5054078831718 359.88077051409533 A 17.5 17.5 0 0 1 555.0054078831718 377.38077051409533 L 555.0054078831718 377.38077051409533 L 555.0054078831718 377.38077051409533 A 17.5 17.5 0 0 1 537.5054078831718 359.88077051409533 L 537.5054078831718 359.88077051409533 L 537.5054078831718 359.88077051409533 A 17.5 17.5 0 0 1 555.0054078831718 342.38077051409533 L 555.0054078831718 342.38077051409533 Z" fill-opacity="0.5" stroke-opacity="1" stroke-miterlimit="10" stroke-width="1.25"/><path fill="rgb(246,232,195)" stroke="rgb(85,85,85)" paint-order="fill stroke markers" d="" fill-opacity="0.5" stroke-opacity="1" stroke-miterlimit="10" stroke-width="1.25"/><text fill="rgb(0,0,0)" stroke="none" font-family="Helvetica" font-size="11px" font-style="normal" font-weight="normal" text-decoration="normal" x="555.0054078831718" y="365.38077051409533" text-anchor="middle" dominant-baseline="text-after-edge" fill-opacity="1">acetate</text><path fill="rgb(255,255,255)" stroke="rgb(85,85,85)" paint-order="fill stroke markers" d=" M 537.5688005222205 290.492589894483 L 537.5688005222205 292.63544703734016 L 532.2866576650777 292.63544703734016 L 532.2866576650777 303.3497327516258 L 537.5688005222205 303.3497327516258 L 537.5688005222205 305.492589894483 L 537.7188005222206 305.492589894483 L 537.7188005222206 303.3497327516258 L 543.0009433793634 303.3497327516258 L 543.0009433793634 292.63544703734016 L 537.7188005222206 292.63544703734016 L 537.7188005222206 290.492589894483 Z" fill-opacity="0.5" stroke-opacity="1" stroke-miterlimit="10" stroke-width="1.25"/><path fill="rgb(255,255,255)" stroke="rgb(85,85,85)" paint-order="fill stroke markers" d=" M 436.83970300874586 212.11894580990804 L 438.982560151603 212.11894580990804 L 438.982560151603 206.83680295276517 L 449.6968458658887 206.83680295276517 L 449.6968458658887 212.11894580990804 L 451.83970300874586 212.11894580990804 L 451.83970300874586 212.26894580990802 L 449.6968458658887 212.26894580990802 L 449.6968458658887 217.5510886670509 L 438.982560151603 217.5510886670509 L 438.982560151603 212.26894580990802 L 436.83970300874586 212.26894580990802 Z" fill-opacity="0.5" stroke-opacity="1" stroke-miterlimit="10" stroke-width="1.25"/><path fill="rgb(246,232,195)" stroke="rgb(85,85,85)" paint-order="fill stroke markers" d=" M 520.8281615717194 214.38626725821916 L 520.8281615717194 214.38626725821916 L 520.8281615717194 214.38626725821916 A 17.5 17.5 0 0 1 538.3281615717194 231.88626725821916 L 538.3281615717194 231.88626725821916 L 538.3281615717194 231.88626725821916 A 17.5 17.5 0 0 1 520.8281615717194 249.38626725821916 L 520.8281615717194 249.38626725821916 L 520.8281615717194 249.38626725821916 A 17.5 17.5 0 0 1 503.3281615717194 231.88626725821916 L 503.3281615717194 231.88626725821916 L 503.3281615717194 231.88626725821916 A 17.5 17.5 0 0 1 520.8281615717194 214.38626725821916 L 520.8281615717194 214.38626725821916 Z" fill-opacity="0.5" stroke-opacity="1" stroke-miterlimit="10" stroke-width="1.25"/><path fill="rgb(246,232,195)" stroke="rgb(85,85,85)" paint-order="fill stroke markers" d="" fill-opacity="0.5" stroke-opacity="1" stroke-miterlimit="10" stroke-width="1.25"/><text fill="rgb(0,0,0)" stroke="none" font-family="Helvetica" font-size="11px" font-style="normal" font-weight="normal" text-decoration="normal" x="520.8281615717194" y="237.38626725821916" text-anchor="middle" dominant-baseline="text-after-edge" fill-opacity="1">ACh</text><path fill="rgb(128,205,193)" stroke="rgb(85,85,85)" paint-order="fill stroke markers" d=" M 786.9676119787596 294.75603374766155 L 813.9676119787596 294.75603374766155 L 813.9676119787596 294.75603374766155 A 8 8 0 0 1 821.9676119787596 302.75603374766155 L 821.9676119787596 321.75603374766155 L 821.9676119787596 321.75603374766155 A 8 8 0 0 1 813.9676119787596 329.75603374766155 L 759.9676119787596 329.75603374766155 L 759.9676119787596 329.75603374766155 A 8 8 0 0 1 751.9676119787596 321.75603374766155 L 751.9676119787596 302.75603374766155 L 751.9676119787596 302.75603374766155 A 8 8 0 0 1 759.9676119787596 294.75603374766155 L 786.9676119787596 294.75603374766155 Z" fill-opacity="0.5" stroke-opacity="1" stroke-miterlimit="10" stroke-width="1.25"/><path fill="#ffffff" stroke="rgb(85,85,85)" paint-order="fill stroke markers" d=" M 761.9676119787596 288.75603374766155 L 761.9676119787596 300.75603374766155 L 791.9676119787596 300.75603374766155 L 791.9676119787596 288.75603374766155 Z" stroke-opacity="1" stroke-miterlimit="10" stroke-width="1.25"/><text fill="#0f0f0f" stroke="none" font-family="Arial" font-size="9px" font-style="normal" font-weight="normal" text-decoration="normal" x="776.9676119787596" y="294.75603374766155" text-anchor="middle" dominant-baseline="central">closed</text><path fill="rgb(128,205,193)" stroke="rgb(85,85,85)" paint-order="fill stroke markers" d="" fill-opacity="0.5" stroke-opacity="1" stroke-miterlimit="10" stroke-width="1.25"/><text fill="rgb(0,0,0)" stroke="none" font-family="Helvetica" font-size="11px" font-style="normal" font-weight="normal" text-decoration="normal" x="786.9676119787596" y="317.75603374766155" text-anchor="middle" dominant-baseline="text-after-edge" fill-opacity="1">nAChR</text><path fill="rgb(128,205,193)" stroke="rgb(85,85,85)" paint-order="fill stroke markers" d=" M 891.2167741830004 228.81021045447676 L 918.2167741830004 228.81021045447676 L 918.2167741830004 228.81021045447676 A 8 8 0 0 1 926.2167741830004 236.81021045447676 L 926.2167741830004 255.81021045447676 L 926.2167741830004 255.81021045447676 A 8 8 0 0 1 918.2167741830004 263.81021045447676 L 864.2167741830004 263.81021045447676 L 864.2167741830004 263.81021045447676 A 8 8 0 0 1 856.2167741830004 255.81021045447676 L 856.2167741830004 236.81021045447676 L 856.2167741830004 236.81021045447676 A 8 8 0 0 1 864.2167741830004 228.81021045447676 L 891.2167741830004 228.81021045447676 Z" fill-opacity="0.5" stroke-opacity="1" stroke-miterlimit="10" stroke-width="1.25"/><path fill="#ffffff" stroke="rgb(85,85,85)" paint-order="fill stroke markers" d=" M 866.2167741830004 222.81021045447676 L 866.2167741830004 234.81021045447676 L 896.2167741830004 234.81021045447676 L 896.2167741830004 222.81021045447676 Z" stroke-opacity="1" stroke-miterlimit="10" stroke-width="1.25"/><text fill="#0f0f0f" stroke="none" font-family="Arial" font-size="9px" font-style="normal" font-weight="normal" text-decoration="normal" x="881.2167741830004" y="228.81021045447676" text-anchor="middle" dominant-baseline="central">open</text><path fill="rgb(128,205,193)" stroke="rgb(85,85,85)" paint-order="fill stroke markers" d="" fill-opacity="0.5" stroke-opacity="1" stroke-miterlimit="10" stroke-width="1.25"/><text fill="rgb(0,0,0)" stroke="none" font-family="Helvetica" font-size="11px" font-style="normal" font-weight="normal" text-decoration="normal" x="891.2167741830004" y="251.81021045447676" text-anchor="middle" dominant-baseline="text-after-edge" fill-opacity="1">nAChR</text><path fill="rgb(246,232,195)" stroke="rgb(85,85,85)" paint-order="fill stroke markers" d=" M 1048.494051764111 221.96411511103307 L 1048.494051764111 221.96411511103307 L 1048.494051764111 221.96411511103307 A 17.5 17.5 0 0 1 1065.994051764111 239.46411511103307 L 1065.994051764111 239.46411511103304 L 1065.994051764111 239.46411511103304 A 17.5 17.5 0 0 1 1048.494051764111 256.96411511103304 L 1048.494051764111 256.96411511103304 L 1048.494051764111 256.96411511103304 A 17.5 17.5 0 0 1 1030.994051764111 239.46411511103304 L 1030.994051764111 239.46411511103307 L 1030.994051764111 239.46411511103307 A 17.5 17.5 0 0 1 1048.494051764111 221.96411511103307 L 1048.494051764111 221.96411511103307 Z" fill-opacity="0.5" stroke-opacity="1" stroke-miterlimit="10" stroke-width="1.25"/><path fill="rgb(246,232,195)" stroke="rgb(85,85,85)" paint-order="fill stroke markers" d="" fill-opacity="0.5" stroke-opacity="1" stroke-miterlimit="10" stroke-width="1.25"/><text fill="rgb(0,0,0)" stroke="none" font-family="Helvetica" font-size="11px" font-style="normal" font-weight="normal" text-decoration="normal" x="1048.494051764111" y="244.96411511103307" text-anchor="middle" dominant-baseline="text-after-edge" fill-opacity="1">Ca2+</text><path fill="rgb(255,255,255)" stroke="rgb(85,85,85)" paint-order="fill stroke markers" d=" M 789.8260714471003 208.10813939881183 L 791.9689285899574 208.10813939881183 L 791.9689285899574 202.82599654166896 L 802.6832143042432 202.82599654166896 L 802.6832143042432 208.10813939881183 L 804.8260714471003 208.10813939881183 L 804.8260714471003 208.2581393988118 L 802.6832143042432 208.2581393988118 L 802.6832143042432 213.54028225595468 L 791.9689285899574 213.54028225595468 L 791.9689285899574 208.2581393988118 L 789.8260714471003 208.2581393988118 Z" fill-opacity="0.5" stroke-opacity="1" stroke-miterlimit="10" stroke-width="1.25"/><path fill="rgb(255,255,255)" stroke="rgb(85,85,85)" paint-order="fill stroke markers" d=" M 971.47145339024 242.8247336366324 L 973.6143105330971 242.8247336366324 L 973.6143105330971 237.54259077948953 L 984.3285962473828 237.54259077948953 L 984.3285962473828 242.8247336366324 L 986.47145339024 242.8247336366324 L 986.47145339024 242.97473363663238 L 984.3285962473828 242.97473363663238 L 984.3285962473828 248.25687649377525 L 973.6143105330971 248.25687649377525 L 973.6143105330971 242.97473363663238 L 971.47145339024 242.97473363663238 Z" fill-opacity="0.5" stroke-opacity="1" stroke-miterlimit="10" stroke-width="1.25"/><path fill="rgb(128,205,193)" stroke="rgb(85,85,85)" paint-order="fill stroke markers" d=" M 1155.20125752384 90.61561813606164 L 1182.20125752384 90.61561813606164 L 1182.20125752384 90.61561813606164 A 8 8 0 0 1 1190.20125752384 98.61561813606164 L 1190.20125752384 117.61561813606164 L 1190.20125752384 117.61561813606164 A 8 8 0 0 1 1182.20125752384 125.61561813606164 L 1128.20125752384 125.61561813606164 L 1128.20125752384 125.61561813606164 A 8 8 0 0 1 1120.20125752384 117.61561813606164 L 1120.20125752384 98.61561813606164 L 1120.20125752384 98.61561813606164 A 8 8 0 0 1 1128.20125752384 90.61561813606164 L 1155.20125752384 90.61561813606164 Z" fill-opacity="0.5" stroke-opacity="1" stroke-miterlimit="10" stroke-width="1.25"/><path fill="rgb(128,205,193)" stroke="rgb(85,85,85)" paint-order="fill stroke markers" d="" fill-opacity="0.5" stroke-opacity="1" stroke-miterlimit="10" stroke-width="1.25"/><text fill="rgb(0,0,0)" stroke="none" font-family="Helvetica" font-size="11px" font-style="normal" font-weight="normal" text-decoration="normal" x="1155.20125752384" y="113.61561813606164" text-anchor="middle" dominant-baseline="text-after-edge" fill-opacity="1">myosin</text><path fill="rgb(246,232,195)" stroke="rgb(85,85,85)" paint-order="fill stroke markers" d=" M 1137.70125752384 134.06561813606163 L 1137.70125752384 134.06561813606163 L 1137.70125752384 134.06561813606163 A 17.5 17.5 0 0 1 1155.20125752384 151.56561813606163 L 1155.20125752384 151.56561813606163 L 1155.20125752384 151.56561813606163 A 17.5 17.5 0 0 1 1137.70125752384 169.06561813606163 L 1137.70125752384 169.06561813606163 L 1137.70125752384 169.06561813606163 A 17.5 17.5 0 0 1 1120.20125752384 151.56561813606163 L 1120.20125752384 151.56561813606163 L 1120.20125752384 151.56561813606163 A 17.5 17.5 0 0 1 1137.70125752384 134.06561813606163 L 1137.70125752384 134.06561813606163 Z" fill-opacity="0.5" stroke-opacity="1" stroke-miterlimit="10" stroke-width="1.25"/><path fill="rgb(246,232,195)" stroke="rgb(85,85,85)" paint-order="fill stroke markers" d="" fill-opacity="0.5" stroke-opacity="1" stroke-miterlimit="10" stroke-width="1.25"/><text fill="rgb(0,0,0)" stroke="none" font-family="Helvetica" font-size="11px" font-style="normal" font-weight="normal" text-decoration="normal" x="1137.70125752384" y="157.06561813606163" text-anchor="middle" dominant-baseline="text-after-edge" fill-opacity="1">ATP</text><path fill="rgb(128,205,193)" stroke="rgb(85,85,85)" paint-order="fill stroke markers" d=" M 1203.9700181354335 232.01911596200603 L 1230.9700181354335 232.01911596200603 L 1230.9700181354335 232.01911596200603 A 8 8 0 0 1 1238.9700181354335 240.01911596200603 L 1238.9700181354335 259.019115962006 L 1238.9700181354335 259.019115962006 A 8 8 0 0 1 1230.9700181354335 267.019115962006 L 1176.9700181354335 267.019115962006 L 1176.9700181354335 267.019115962006 A 8 8 0 0 1 1168.9700181354335 259.019115962006 L 1168.9700181354335 240.01911596200603 L 1168.9700181354335 240.01911596200603 A 8 8 0 0 1 1176.9700181354335 232.01911596200603 L 1203.9700181354335 232.01911596200603 Z" fill-opacity="0.5" stroke-opacity="1" stroke-miterlimit="10" stroke-width="1.25"/><path fill="rgb(128,205,193)" stroke="rgb(85,85,85)" paint-order="fill stroke markers" d="" fill-opacity="0.5" stroke-opacity="1" stroke-miterlimit="10" stroke-width="1.25"/><text fill="rgb(0,0,0)" stroke="none" font-family="Helvetica" font-size="11px" font-style="normal" font-weight="normal" text-decoration="normal" x="1203.9700181354335" y="255.01911596200603" text-anchor="middle" dominant-baseline="text-after-edge" fill-opacity="1">actin</text><path fill="rgb(112,112,112)" stroke="rgb(85,85,85)" paint-order="fill stroke markers" d=" M 1119.3630345263557 237.47035615083092 L 1119.3630345263557 239.61321329368818 L 1119.4380345263558 239.61321329368818 L 1118.8780606159933 239.64256028278672 L 1118.324221896975 239.73027971832852 L 1117.7825863422042 239.8754105278213 L 1117.2590882241639 240.07636262774568 L 1116.7594630977844 240.33093434484297 L 1116.2891849605032 240.6363365381081 L 1115.8534062780047 240.98922315720213 L 1115.4569015327268 241.38572790248 L 1115.104014913633 241.8215065849785 L 1114.7986127203676 242.29178472225962 L 1114.5440410032704 242.79140984863926 L 1114.343088903346 243.31490796667953 L 1114.1979580938532 243.8565435214502 L 1114.1102386583113 244.4103822404686 L 1114.0808916692129 244.97035615083104 L 1114.1102386583113 245.53033006119347 L 1114.1979580938532 246.08416878021188 L 1114.343088903346 246.62580433498255 L 1114.5440410032704 247.1493024530228 L 1114.7986127203676 247.64892757940245 L 1115.104014913633 248.11920571668358 L 1115.4569015327268 248.55498439918208 L 1115.8534062780047 248.95148914445994 L 1116.2891849605032 249.30437576355396 L 1116.7594630977844 249.6097779568191 L 1117.2590882241639 249.8643496739164 L 1117.7825863422042 250.0653017738408 L 1118.324221896975 250.21043258333356 L 1118.8780606159933 250.29815201887536 L 1119.3630345263557 250.3274990079739 L 1119.3630345263557 252.47035615083115 L 1119.5130345263558 252.47035615083115 L 1119.5130345263558 250.3274990079739 L 1119.4380345263558 250.3274990079739 L 1119.9980084367182 250.29815201887536 L 1120.5518471557366 250.21043258333356 L 1121.0934827105073 250.0653017738408 L 1121.6169808285476 249.8643496739164 L 1122.116605954927 249.6097779568191 L 1122.5868840922083 249.30437576355396 L 1123.0226627747068 248.95148914445994 L 1123.4191675199847 248.55498439918208 L 1123.7720541390786 248.11920571668358 L 1124.077456332344 247.64892757940245 L 1124.332028049441 247.1493024530228 L 1124.5329801493656 246.62580433498255 L 1124.6781109588583 246.08416878021188 L 1124.7658303944002 245.53033006119347 L 1124.7951773834986 244.97035615083104 L 1124.7658303944002 244.4103822404686 L 1124.6781109588583 243.8565435214502 L 1124.5329801493656 243.31490796667953 L 1124.332028049441 242.79140984863926 L 1124.077456332344 242.29178472225962 L 1123.7720541390786 241.8215065849785 L 1123.4191675199847 241.38572790248 L 1123.0226627747068 240.98922315720213 L 1122.5868840922083 240.6363365381081 L 1122.116605954927 240.33093434484297 L 1121.6169808285476 240.07636262774568 L 1121.0934827105073 239.8754105278213 L 1120.5518471557366 239.73027971832852 L 1119.9980084367182 239.64256028278672 L 1119.5130345263558 239.61321329368818 L 1119.5130345263558 237.47035615083092 Z" fill-opacity="0.5" stroke-opacity="1" stroke-miterlimit="10" stroke-width="1.25"/><path fill="rgb(255,255,255)" stroke="rgb(85,85,85)" paint-order="fill stroke markers" d=" M 1285.9956712949013 238.27432978498464 L 1285.9956712949013 240.41718692784178 L 1286.0706712949013 240.41718692784178 L 1285.5106973845388 240.44653391694033 L 1284.9568586655205 240.53425335248212 L 1284.4152231107498 240.6793841619749 L 1283.8917249927094 240.8803362618993 L 1283.39209986633 241.13490797899658 L 1282.9218217290488 241.44031017226172 L 1282.4860430465503 241.79319679135574 L 1282.0895383012723 242.1897015366336 L 1281.7366516821785 242.6254802191321 L 1281.4312494889132 243.09575835641323 L 1281.176677771816 243.59538348279287 L 1280.9757256718915 244.11888160083313 L 1280.8305948623988 244.6605171556038 L 1280.742875426857 245.2143558746222 L 1280.7135284377584 245.77432978498464 L 1280.742875426857 246.33430369534707 L 1280.8305948623988 246.8881424143655 L 1280.9757256718915 247.42977796913615 L 1281.176677771816 247.95327608717642 L 1281.4312494889132 248.45290121355606 L 1281.7366516821785 248.9231793508372 L 1282.0895383012723 249.35895803333568 L 1282.4860430465503 249.75546277861355 L 1282.9218217290488 250.10834939770757 L 1283.39209986633 250.4137515909727 L 1283.8917249927094 250.66832330807 L 1284.4152231107498 250.8692754079944 L 1284.9568586655205 251.01440621748716 L 1285.5106973845388 251.10212565302896 L 1285.9956712949013 251.1314726421275 L 1285.9956712949013 253.27432978498464 L 1286.1456712949014 253.27432978498464 L 1286.1456712949014 251.1314726421275 L 1286.0706712949013 251.1314726421275 L 1286.6306452052638 251.10212565302896 L 1287.1844839242822 251.01440621748716 L 1287.7261194790528 250.8692754079944 L 1288.2496175970932 250.66832330807 L 1288.7492427234727 250.4137515909727 L 1289.2195208607538 250.10834939770757 L 1289.6552995432523 249.75546277861355 L 1290.0518042885303 249.35895803333568 L 1290.4046909076242 248.9231793508372 L 1290.7100931008895 248.45290121355606 L 1290.9646648179867 247.95327608717642 L 1291.1656169179112 247.42977796913615 L 1291.3107477274039 246.8881424143655 L 1291.3984671629457 246.33430369534707 L 1291.4278141520442 245.77432978498464 L 1291.3984671629457 245.2143558746222 L 1291.3107477274039 244.6605171556038 L 1291.1656169179112 244.11888160083313 L 1290.9646648179867 243.59538348279287 L 1290.7100931008895 243.09575835641323 L 1290.4046909076242 242.6254802191321 L 1290.0518042885303 242.1897015366336 L 1289.6552995432523 241.79319679135574 L 1289.2195208607538 241.44031017226172 L 1288.7492427234727 241.13490797899658 L 1288.2496175970932 240.8803362618993 L 1287.7261194790528 240.6793841619749 L 1287.1844839242822 240.53425335248212 L 1286.6306452052638 240.44653391694033 L 1286.1456712949014 240.41718692784178 L 1286.1456712949014 238.27432978498464 Z" fill-opacity="0.5" stroke-opacity="1" stroke-miterlimit="10" stroke-width="1.25"/><text fill="rgb(0,0,0)" stroke="none" font-family="Helvetica Neue, Helvetica, sans-serif" font-size="8.571428571428571px" font-style="normal" font-weight="normal" text-decoration="normal" x="1286.0706712949013" y="249.77432978498464" text-anchor="middle" dominant-baseline="text-after-edge" fill-opacity="1">o</text><path fill="rgb(128,205,193)" stroke="rgb(85,85,85)" paint-order="fill stroke markers" d=" M 1308.8736139183043 167.05943621694092 L 1335.8736139183043 167.05943621694092 L 1335.8736139183043 167.05943621694092 A 8 8 0 0 1 1343.8736139183043 175.05943621694092 L 1343.8736139183043 194.05943621694092 L 1343.8736139183043 194.05943621694092 A 8 8 0 0 1 1335.8736139183043 202.05943621694092 L 1281.8736139183043 202.05943621694092 L 1281.8736139183043 202.05943621694092 A 8 8 0 0 1 1273.8736139183043 194.05943621694092 L 1273.8736139183043 175.05943621694092 L 1273.8736139183043 175.05943621694092 A 8 8 0 0 1 1281.8736139183043 167.05943621694092 L 1308.8736139183043 167.05943621694092 Z" fill-opacity="0.5" stroke-opacity="1" stroke-miterlimit="10" stroke-width="1.25"/><path fill="rgb(128,205,193)" stroke="rgb(85,85,85)" paint-order="fill stroke markers" d="" fill-opacity="0.5" stroke-opacity="1" stroke-miterlimit="10" stroke-width="1.25"/><text fill="rgb(0,0,0)" stroke="none" font-family="Helvetica" font-size="11px" font-style="normal" font-weight="normal" text-decoration="normal" x="1308.8736139183043" y="190.05943621694092" text-anchor="middle" dominant-baseline="text-after-edge" fill-opacity="1">myosin</text><path fill="rgb(246,232,195)" stroke="rgb(85,85,85)" paint-order="fill stroke markers" d=" M 1314.0221854319304 57.904286983775066 L 1314.0221854319304 57.904286983775066 L 1314.0221854319304 57.904286983775066 A 17.5 17.5 0 0 1 1331.5221854319304 75.40428698377507 L 1331.5221854319304 75.40428698377507 L 1331.5221854319304 75.40428698377507 A 17.5 17.5 0 0 1 1314.0221854319304 92.90428698377507 L 1314.0221854319304 92.90428698377507 L 1314.0221854319304 92.90428698377507 A 17.5 17.5 0 0 1 1296.5221854319304 75.40428698377507 L 1296.5221854319304 75.40428698377507 L 1296.5221854319304 75.40428698377507 A 17.5 17.5 0 0 1 1314.0221854319304 57.904286983775066 L 1314.0221854319304 57.904286983775066 Z" fill-opacity="0.5" stroke-opacity="1" stroke-miterlimit="10" stroke-width="1.25"/><path fill="rgb(246,232,195)" stroke="rgb(85,85,85)" paint-order="fill stroke markers" d="" fill-opacity="0.5" stroke-opacity="1" stroke-miterlimit="10" stroke-width="1.25"/><text fill="rgb(0,0,0)" stroke="none" font-family="Helvetica" font-size="11px" font-style="normal" font-weight="normal" text-decoration="normal" x="1314.0221854319304" y="80.90428698377507" text-anchor="middle" dominant-baseline="text-after-edge" fill-opacity="1">ATP</text><path fill="rgb(128,205,193)" stroke="rgb(85,85,85)" paint-order="fill stroke markers" d=" M 1326.4841484129734 297.8626706040342 L 1353.4841484129734 297.8626706040342 L 1353.4841484129734 297.8626706040342 A 8 8 0 0 1 1361.4841484129734 305.8626706040342 L 1361.4841484129734 324.8626706040342 L 1361.4841484129734 324.8626706040342 A 8 8 0 0 1 1353.4841484129734 332.8626706040342 L 1299.4841484129734 332.8626706040342 L 1299.4841484129734 332.8626706040342 A 8 8 0 0 1 1291.4841484129734 324.8626706040342 L 1291.4841484129734 305.8626706040342 L 1291.4841484129734 305.8626706040342 A 8 8 0 0 1 1299.4841484129734 297.8626706040342 L 1326.4841484129734 297.8626706040342 Z" fill-opacity="0.5" stroke-opacity="1" stroke-miterlimit="10" stroke-width="1.25"/><path fill="rgb(128,205,193)" stroke="rgb(85,85,85)" paint-order="fill stroke markers" d="" fill-opacity="0.5" stroke-opacity="1" stroke-miterlimit="10" stroke-width="1.25"/><text fill="rgb(0,0,0)" stroke="none" font-family="Helvetica" font-size="11px" font-style="normal" font-weight="normal" text-decoration="normal" x="1326.4841484129734" y="320.8626706040342" text-anchor="middle" dominant-baseline="text-after-edge" fill-opacity="1">myosin</text><path fill="rgb(128,205,193)" stroke="rgb(85,85,85)" paint-order="fill stroke markers" d=" M 1326.4841484129734 341.31267060403417 L 1353.4841484129734 341.31267060403417 L 1353.4841484129734 341.31267060403417 A 8 8 0 0 1 1361.4841484129734 349.31267060403417 L 1361.4841484129734 368.31267060403417 L 1361.4841484129734 368.31267060403417 A 8 8 0 0 1 1353.4841484129734 376.31267060403417 L 1299.4841484129734 376.31267060403417 L 1299.4841484129734 376.31267060403417 A 8 8 0 0 1 1291.4841484129734 368.31267060403417 L 1291.4841484129734 349.31267060403417 L 1291.4841484129734 349.31267060403417 A 8 8 0 0 1 1299.4841484129734 341.31267060403417 L 1326.4841484129734 341.31267060403417 Z" fill-opacity="0.5" stroke-opacity="1" stroke-miterlimit="10" stroke-width="1.25"/><path fill="rgb(128,205,193)" stroke="rgb(85,85,85)" paint-order="fill stroke markers" d="" fill-opacity="0.5" stroke-opacity="1" stroke-miterlimit="10" stroke-width="1.25"/><text fill="rgb(0,0,0)" stroke="none" font-family="Helvetica" font-size="11px" font-style="normal" font-weight="normal" text-decoration="normal" x="1326.4841484129734" y="364.31267060403417" text-anchor="middle" dominant-baseline="text-after-edge" fill-opacity="1">actin</text><path fill="rgb(245,245,245)" stroke="rgb(85,85,85)" paint-order="fill stroke markers" d=" M 1423.6350581570262 415.7255058852612 L 1406.1350581570262 433.2255058852612 L 1423.6350581570262 450.7255058852612 L 1458.6350581570262 450.7255058852612 L 1476.1350581570262 433.2255058852612 L 1458.6350581570262 415.7255058852612 Z" fill-opacity="0.5" stroke-opacity="1" stroke-miterlimit="10" stroke-width="1.25"/><text fill="rgb(0,0,0)" stroke="none" font-family="Helvetica" font-size="11px" font-style="normal" font-weight="normal" text-decoration="normal" x="1441.1350581570262" y="433.2255058852612" text-anchor="middle" dominant-baseline="text-after-edge" fill-opacity="1">muscle</text><text fill="rgb(0,0,0)" stroke="none" font-family="Helvetica" font-size="11px" font-style="normal" font-weight="normal" text-decoration="normal" x="1441.1350581570262" y="444.2255058852612" text-anchor="middle" dominant-baseline="text-after-edge" fill-opacity="1">contraction</text><path fill="rgb(128,205,193)" stroke="rgb(85,85,85)" paint-order="fill stroke markers" d=" M 1098.351002276884 304.30229044595205 L 1125.351002276884 304.30229044595205 L 1125.351002276884 304.30229044595205 A 8 8 0 0 1 1133.351002276884 312.30229044595205 L 1133.351002276884 331.30229044595205 L 1133.351002276884 331.30229044595205 A 8 8 0 0 1 1125.351002276884 339.30229044595205 L 1071.351002276884 339.30229044595205 L 1071.351002276884 339.30229044595205 A 8 8 0 0 1 1063.351002276884 331.30229044595205 L 1063.351002276884 312.30229044595205 L 1063.351002276884 312.30229044595205 A 8 8 0 0 1 1071.351002276884 304.30229044595205 L 1098.351002276884 304.30229044595205 Z" fill-opacity="0.5" stroke-opacity="1" stroke-miterlimit="10" stroke-width="1.25"/><path fill="rgb(128,205,193)" stroke="rgb(85,85,85)" paint-order="fill stroke markers" d="" fill-opacity="0.5" stroke-opacity="1" stroke-miterlimit="10" stroke-width="1.25"/><text fill="rgb(0,0,0)" stroke="none" font-family="Helvetica" font-size="11px" font-style="normal" font-weight="normal" text-decoration="normal" x="1098.351002276884" y="327.30229044595205" text-anchor="middle" dominant-baseline="text-after-edge" fill-opacity="1">myosin</text><path fill="rgb(128,205,193)" stroke="rgb(85,85,85)" paint-order="fill stroke markers" d=" M 1098.351002276884 347.75229044595204 L 1125.351002276884 347.75229044595204 L 1125.351002276884 347.75229044595204 A 8 8 0 0 1 1133.351002276884 355.75229044595204 L 1133.351002276884 374.75229044595204 L 1133.351002276884 374.75229044595204 A 8 8 0 0 1 1125.351002276884 382.75229044595204 L 1071.351002276884 382.75229044595204 L 1071.351002276884 382.75229044595204 A 8 8 0 0 1 1063.351002276884 374.75229044595204 L 1063.351002276884 355.75229044595204 L 1063.351002276884 355.75229044595204 A 8 8 0 0 1 1071.351002276884 347.75229044595204 L 1098.351002276884 347.75229044595204 Z" fill-opacity="0.5" stroke-opacity="1" stroke-miterlimit="10" stroke-width="1.25"/><path fill="rgb(128,205,193)" stroke="rgb(85,85,85)" paint-order="fill stroke markers" d="" fill-opacity="0.5" stroke-opacity="1" stroke-miterlimit="10" stroke-width="1.25"/><text fill="rgb(0,0,0)" stroke="none" font-family="Helvetica" font-size="11px" font-style="normal" font-weight="normal" text-decoration="normal" x="1098.351002276884" y="370.75229044595204" text-anchor="middle" dominant-baseline="text-after-edge" fill-opacity="1">actin</text><path fill="rgb(246,232,195)" stroke="rgb(85,85,85)" paint-order="fill stroke markers" d=" M 1159.301002276884 304.30229044595205 L 1159.301002276884 304.30229044595205 L 1159.301002276884 304.30229044595205 A 17.5 17.5 0 0 1 1176.801002276884 321.80229044595205 L 1176.801002276884 321.80229044595205 L 1176.801002276884 321.80229044595205 A 17.5 17.5 0 0 1 1159.301002276884 339.30229044595205 L 1159.301002276884 339.30229044595205 L 1159.301002276884 339.30229044595205 A 17.5 17.5 0 0 1 1141.801002276884 321.80229044595205 L 1141.801002276884 321.80229044595205 L 1141.801002276884 321.80229044595205 A 17.5 17.5 0 0 1 1159.301002276884 304.30229044595205 L 1159.301002276884 304.30229044595205 Z" fill-opacity="0.5" stroke-opacity="1" stroke-miterlimit="10" stroke-width="1.25"/><path fill="rgb(246,232,195)" stroke="rgb(85,85,85)" paint-order="fill stroke markers" d="" fill-opacity="0.5" stroke-opacity="1" stroke-miterlimit="10" stroke-width="1.25"/><text fill="rgb(0,0,0)" stroke="none" font-family="Helvetica" font-size="11px" font-style="normal" font-weight="normal" text-decoration="normal" x="1159.301002276884" y="327.30229044595205" text-anchor="middle" dominant-baseline="text-after-edge" fill-opacity="1">ATP</text><path fill="rgb(255,255,255)" stroke="rgb(85,85,85)" paint-order="fill stroke markers" d=" M 1238.6637747283826 433.8782930539891 L 1240.8066318712397 433.8782930539891 L 1240.8066318712397 428.5961501968463 L 1251.5209175855255 428.5961501968463 L 1251.5209175855255 433.8782930539891 L 1253.6637747283826 433.8782930539891 L 1253.6637747283826 434.0282930539891 L 1251.5209175855255 434.0282930539891 L 1251.5209175855255 439.31043591113195 L 1240.8066318712397 439.31043591113195 L 1240.8066318712397 434.0282930539891 L 1238.6637747283826 434.0282930539891 Z" fill-opacity="0.5" stroke-opacity="1" stroke-miterlimit="10" stroke-width="1.25"/><path fill="rgb(246,232,195)" stroke="rgb(85,85,85)" paint-order="fill stroke markers" d=" M 1208.441666397781 472.52413841277223 L 1208.441666397781 472.52413841277223 L 1208.441666397781 472.52413841277223 A 17.5 17.5 0 0 1 1225.941666397781 490.02413841277223 L 1225.941666397781 490.02413841277223 L 1225.941666397781 490.02413841277223 A 17.5 17.5 0 0 1 1208.441666397781 507.52413841277223 L 1208.441666397781 507.52413841277223 L 1208.441666397781 507.52413841277223 A 17.5 17.5 0 0 1 1190.941666397781 490.02413841277223 L 1190.941666397781 490.02413841277223 L 1190.941666397781 490.02413841277223 A 17.5 17.5 0 0 1 1208.441666397781 472.52413841277223 L 1208.441666397781 472.52413841277223 Z" fill-opacity="0.5" stroke-opacity="1" stroke-miterlimit="10" stroke-width="1.25"/><path fill="rgb(246,232,195)" stroke="rgb(85,85,85)" paint-order="fill stroke markers" d="" fill-opacity="0.5" stroke-opacity="1" stroke-miterlimit="10" stroke-width="1.25"/><text fill="rgb(0,0,0)" stroke="none" font-family="Helvetica" font-size="11px" font-style="normal" font-weight="normal" text-decoration="normal" x="1208.441666397781" y="495.52413841277223" text-anchor="middle" dominant-baseline="text-after-edge" fill-opacity="1">Pi</text><path fill="rgb(246,232,195)" stroke="rgb(85,85,85)" paint-order="fill stroke markers" d=" M 1295.8029334161608 468.87617331196 L 1295.8029334161608 468.87617331196 L 1295.8029334161608 468.87617331196 A 17.5 17.5 0 0 1 1313.3029334161608 486.37617331196 L 1313.3029334161608 486.37617331196 L 1313.3029334161608 486.37617331196 A 17.5 17.5 0 0 1 1295.8029334161608 503.87617331196 L 1295.8029334161608 503.87617331196 L 1295.8029334161608 503.87617331196 A 17.5 17.5 0 0 1 1278.3029334161608 486.37617331196 L 1278.3029334161608 486.37617331196 L 1278.3029334161608 486.37617331196 A 17.5 17.5 0 0 1 1295.8029334161608 468.87617331196 L 1295.8029334161608 468.87617331196 Z" fill-opacity="0.5" stroke-opacity="1" stroke-miterlimit="10" stroke-width="1.25"/><path fill="rgb(246,232,195)" stroke="rgb(85,85,85)" paint-order="fill stroke markers" d="" fill-opacity="0.5" stroke-opacity="1" stroke-miterlimit="10" stroke-width="1.25"/><text fill="rgb(0,0,0)" stroke="none" font-family="Helvetica" font-size="11px" font-style="normal" font-weight="normal" text-decoration="normal" x="1295.8029334161608" y="491.87617331196" text-anchor="middle" dominant-baseline="text-after-edge" fill-opacity="1">ADP</text><path fill="rgb(246,232,195)" stroke="rgb(85,85,85)" paint-order="fill stroke markers" d=" M 812.2345549522662 54.277218333072184 L 812.2345549522662 54.277218333072184 L 812.2345549522662 54.277218333072184 A 17.5 17.5 0 0 1 829.7345549522662 71.77721833307218 L 829.7345549522662 71.77721833307218 L 829.7345549522662 71.77721833307218 A 17.5 17.5 0 0 1 812.2345549522662 89.27721833307218 L 812.2345549522662 89.27721833307218 L 812.2345549522662 89.27721833307218 A 17.5 17.5 0 0 1 794.7345549522662 71.77721833307218 L 794.7345549522662 71.77721833307218 L 794.7345549522662 71.77721833307218 A 17.5 17.5 0 0 1 812.2345549522662 54.277218333072184 L 812.2345549522662 54.277218333072184 Z" fill-opacity="0.5" stroke-opacity="1" stroke-miterlimit="10" stroke-width="1.25"/><path fill="rgb(246,232,195)" stroke="rgb(85,85,85)" paint-order="fill stroke markers" d="" fill-opacity="0.5" stroke-opacity="1" stroke-miterlimit="10" stroke-width="1.25"/><text fill="rgb(0,0,0)" stroke="none" font-family="Helvetica" font-size="11px" font-style="normal" font-weight="normal" text-decoration="normal" x="812.2345549522662" y="77.27721833307218" text-anchor="middle" dominant-baseline="text-after-edge" fill-opacity="1">Ca2+</text><path fill="rgb(112,112,112)" stroke="rgb(85,85,85)" paint-order="fill stroke markers" d=" M 1259.4030636784685 128.60522235822012 L 1261.5459208213256 128.60522235822012 L 1261.5459208213256 128.6802223582201 L 1261.575267810424 128.12024844785768 L 1261.662987245966 127.56640972883925 L 1261.8081180554586 127.0247741740686 L 1262.0090701553831 126.50127605602832 L 1262.2636418724803 126.00165092964868 L 1262.5690440657456 125.53137279236758 L 1262.9219306848395 125.09559410986908 L 1263.3184354301175 124.6990893645912 L 1263.754214112616 124.34620274549718 L 1264.2244922498971 124.04080055223204 L 1264.7241173762766 123.78622883513475 L 1265.247615494317 123.58527673521036 L 1265.7892510490876 123.44014592571757 L 1266.343089768106 123.35242649017579 L 1266.9030636784685 123.32307950107725 L 1267.463037588831 123.35242649017579 L 1268.0168763078493 123.44014592571757 L 1268.55851186262 123.58527673521036 L 1269.0820099806604 123.78622883513475 L 1269.5816351070398 124.04080055223204 L 1270.051913244321 124.34620274549718 L 1270.4876919268195 124.6990893645912 L 1270.8841966720975 125.09559410986908 L 1271.2370832911913 125.53137279236758 L 1271.5424854844566 126.00165092964868 L 1271.7970572015538 126.50127605602832 L 1271.9980093014783 127.0247741740686 L 1272.143140110971 127.56640972883925 L 1272.2308595465129 128.12024844785768 L 1272.2602065356114 128.60522235822012 L 1274.4030636784685 128.60522235822012 L 1274.4030636784685 128.7552223582201 L 1272.2602065356114 128.7552223582201 L 1272.2602065356114 128.6802223582201 L 1272.2308595465129 129.24019626858254 L 1272.143140110971 129.79403498760095 L 1271.9980093014783 130.33567054237162 L 1271.7970572015538 130.85916866041188 L 1271.5424854844566 131.35879378679155 L 1271.2370832911913 131.82907192407265 L 1270.8841966720975 132.26485060657114 L 1270.4876919268195 132.661355351849 L 1270.051913244321 133.01424197094303 L 1269.5816351070398 133.31964416420817 L 1269.0820099806604 133.57421588130546 L 1268.55851186262 133.77516798122986 L 1268.0168763078493 133.92029879072263 L 1267.463037588831 134.00801822626443 L 1266.9030636784685 134.03736521536297 L 1266.343089768106 134.00801822626443 L 1265.7892510490876 133.92029879072263 L 1265.247615494317 133.77516798122986 L 1264.7241173762766 133.57421588130546 L 1264.2244922498971 133.31964416420817 L 1263.754214112616 133.01424197094303 L 1263.3184354301175 132.661355351849 L 1262.9219306848395 132.26485060657114 L 1262.5690440657456 131.82907192407265 L 1262.2636418724803 131.35879378679152 L 1262.0090701553831 130.85916866041188 L 1261.8081180554586 130.33567054237162 L 1261.662987245966 129.79403498760095 L 1261.575267810424 129.24019626858254 L 1261.5459208213256 128.7552223582201 L 1259.4030636784685 128.7552223582201 Z" fill-opacity="0.5" stroke-opacity="1" stroke-miterlimit="10" stroke-width="1.25"/><g transform="scale(1,1) translate(11.857391830754807,9.402218333072199)"/></g></svg>