<svg version="1.1" xmlns="http://www.w3.org/2000/svg" xmlns:xlink="http://www.w3.org/1999/xlink" width="592" height="448"><defs/><g transform="translate(-491.8392616116605,49.60690348317606) scale(1,1)"><path fill="none" stroke="#e1e1ff" paint-order="fill stroke markers" d=" M 837.1637372051678 -40.76940348317606 L 837.1637372051678 71.05559651682393 Q 840.2060481021 77.26809651682393 898.0099551438133 77.26809651682393 L 1019.7023910211043 77.26809651682393 Q 1077.5062980628175 77.26809651682393 1080.5486089597498 71.05559651682393 L 1080.5486089597498 -40.76940348317606 Q 1077.5062980628175 -46.98190348317606 1019.7023910211043 -46.98190348317606 L 898.0099551438133 -46.98190348317606 Q 840.2060481021 -46.98190348317606 837.1637372051678 -40.76940348317606 Z" stroke-miterlimit="10" stroke-width="3.25"/><path fill="rgb(223,223,255)" stroke="rgb(225,225,255)" paint-order="fill stroke markers" d="" fill-opacity="0.5" stroke-opacity="1" stroke-miterlimit="10" stroke-width="3.25"/><text fill="rgb(0,0,0)" stroke="none" font-family="Helvetica" font-size="14px" font-style="normal" font-weight="bold" text-decoration="normal" x="958.8561730824588" y="77.26809651682393" text-anchor="middle" dominant-baseline="text-after-edge" fill-opacity="1">Newt</text><path fill="none" stroke="#ffdbed" paint-order="fill stroke markers" d=" M 494.4642616116605 189.05076209632836 L 494.4642616116605 384.5490688904053 Q 498.0263732565245 395.4100859345207 565.7064945089398 395.4100859345207 L 708.1909603034983 395.4100859345207 Q 775.8710815559136 395.4100859345207 779.4331932007776 384.5490688904053 L 779.4331932007776 189.05076209632836 Q 775.8710815559136 178.18974505221297 708.1909603034983 178.18974505221297 L 565.7064945089398 178.18974505221297 Q 498.0263732565245 178.18974505221297 494.4642616116605 189.05076209632836 Z" stroke-miterlimit="10" stroke-width="3.25"/><path fill="rgb(255,219,237)" stroke="rgb(255,219,237)" paint-order="fill stroke markers" d="" fill-opacity="0.5" stroke-opacity="1" stroke-miterlimit="10" stroke-width="3.25"/><text fill="rgb(0,0,0)" stroke="none" font-family="Helvetica" font-size="14px" font-style="normal" font-weight="normal" text-decoration="normal" x="636.9487274062191" y="395.4100859345207" text-anchor="middle" dominant-baseline="text-after-edge" fill-opacity="1">Cytoscape.js extensions</text><path fill="none" stroke="rgb(64,0,0)" paint-order="fill stroke markers" d=" M 991.340865131883 78.89309651682393 L 1010.6956269095605 116.87609667731982" stroke-opacity="1" stroke-linejoin="round" stroke-miterlimit="10" stroke-width="2"/><path fill="rgb(64,0,0)" stroke="none" paint-order="stroke fill markers" d=" M 1002.2820453791575 113.77833202659775 L 1013.2381256074942 121.86565581325607 L 1013.1343364998189 108.24839735859172 Z" fill-opacity="1"/><path fill="none" stroke="rgb(0,0,0)" paint-order="fill stroke markers" d=" M 991.340865131883 78.89309651682393 L 1010.6956269095605 116.87609667731982" stroke-opacity="0" stroke-linecap="round" stroke-linejoin="round" stroke-miterlimit="10" stroke-width="20"/><path fill="none" stroke="rgb(64,0,0)" paint-order="fill stroke markers" d=" M 944.2227536107596 78.8930965168239 L 901.5262735245219 264.8988766942973" stroke-opacity="1" stroke-linejoin="round" stroke-miterlimit="10" stroke-width="2"/><path fill="rgb(64,0,0)" stroke="none" paint-order="stroke fill markers" d=" M 897.0627547092167 257.123177382633 L 900.2734112436265 270.35692910382124 L 908.9340186999312 259.8481528435805 Z" fill-opacity="1"/><path fill="none" stroke="rgb(0,0,0)" paint-order="fill stroke markers" d=" M 944.2227536107596 78.8930965168239 L 901.5262735245219 264.8988766942973" stroke-opacity="0" stroke-linecap="round" stroke-linejoin="round" stroke-miterlimit="10" stroke-width="20"/><path fill="none" stroke="rgb(64,0,0)" paint-order="fill stroke markers" d=" M 1007.0502088053069 158.11565581325607 L 915.1659124642708 266.0921028157056" stroke-opacity="1" stroke-linejoin="round" stroke-miterlimit="10" stroke-width="2"/><path fill="rgb(64,0,0)" stroke="none" paint-order="stroke fill markers" d=" M 914.792250439338 257.1341523419017 L 911.5366898571278 270.35692910382124 L 924.0682476159895 265.0277115124376 Z" fill-opacity="1"/><path fill="none" stroke="rgb(0,0,0)" paint-order="fill stroke markers" d=" M 1007.0502088053069 158.11565581325607 L 915.1659124642708 266.0921028157056" stroke-opacity="0" stroke-linecap="round" stroke-linejoin="round" stroke-miterlimit="10" stroke-width="20"/><path fill="none" stroke="rgb(64,0,0)" paint-order="fill stroke markers" d=" M 989.4263688154304 244.29370582645507 L 934.2217319767876 270.4356509695303" stroke-opacity="1" stroke-linejoin="round" stroke-miterlimit="10" stroke-width="2"/><path fill="rgb(64,0,0)" stroke="none" paint-order="stroke fill markers" d=" M 937.5622191378135 262.1154559281252 L 929.1605298470045 272.8323639272033 L 942.7750698207524 273.1235705604037 Z" fill-opacity="1"/><path fill="none" stroke="rgb(0,0,0)" paint-order="fill stroke markers" d=" M 989.4263688154304 244.29370582645507 L 934.2217319767876 270.4356509695303" stroke-opacity="0" stroke-linecap="round" stroke-linejoin="round" stroke-miterlimit="10" stroke-width="20"/><path fill="none" stroke="rgb(64,0,0)" paint-order="fill stroke markers" d=" M 1022.4739694254678 158.11565581325607 L 1022.4739694254679 204.9191406498371" stroke-opacity="1" stroke-linejoin="round" stroke-miterlimit="10" stroke-width="2"/><path fill="rgb(255,255,255)" stroke="rgb(255,255,255)" paint-order="fill stroke markers" d=" M 1016.3839694254679 198.33914064983708 L 1022.4739694254679 210.51914064983708 L 1028.5639694254678 198.33914064983708 Z" fill-opacity="1" stroke-opacity="1" stroke-miterlimit="10"/><path fill="none" stroke="rgb(64,0,0)" paint-order="fill stroke markers" d=" M 1016.3839694254679 198.33914064983708 L 1022.4739694254679 210.51914064983708 L 1028.5639694254678 198.33914064983708 Z" stroke-opacity="1" stroke-miterlimit="10"/><path fill="none" stroke="rgb(0,0,0)" paint-order="fill stroke markers" d=" M 1022.4739694254678 158.11565581325607 L 1022.4739694254679 204.9191406498371" stroke-opacity="0" stroke-linecap="round" stroke-miterlimit="10" stroke-width="20"/><path fill="none" stroke="rgb(85,85,85)" paint-order="fill stroke markers" d=" M 575.5491312329541 48.89295159669726 L 620.610704176616 48.89295159669726" stroke-opacity="1" stroke-linejoin="round" stroke-miterlimit="10" stroke-width="1.25"/><path fill="rgb(255,255,255)" stroke="rgb(255,255,255)" paint-order="fill stroke markers" d=" M 624.110704176616 48.89295159669726 A 6.089999999999999 6.089999999999999 0 1 1 624.1107011316162 48.886861597712254 Z" fill-opacity="1" stroke-opacity="1" stroke-miterlimit="10"/><path fill="none" stroke="rgb(85,85,85)" paint-order="fill stroke markers" d=" M 624.110704176616 48.89295159669726 A 6.089999999999999 6.089999999999999 0 1 1 624.1107011316162 48.886861597712254 Z" stroke-opacity="1" stroke-miterlimit="10"/><path fill="none" stroke="rgb(0,0,0)" paint-order="fill stroke markers" d=" M 575.5491312329541 48.89295159669726 L 620.610704176616 48.89295159669726" stroke-opacity="0" stroke-linecap="round" stroke-miterlimit="10" stroke-width="20"/><path fill="none" stroke="rgb(64,0,0)" paint-order="fill stroke markers" d=" M 781.0581932007776 287.7352070234064 L 854.8880471748417 288.2143735840849" stroke-opacity="1" stroke-linejoin="round" stroke-miterlimit="10" stroke-width="2"/><path fill="rgb(255,255,255)" stroke="rgb(255,255,255)" paint-order="fill stroke markers" d=" M 860.4880574944058 288.2111934793264 A 6.089999999999999 6.089999999999999 0 1 1 860.488054449406 288.20510348034145 Z" fill-opacity="1" stroke-opacity="1" stroke-miterlimit="10"/><path fill="none" stroke="rgb(64,0,0)" paint-order="fill stroke markers" d=" M 860.4880574944058 288.2111934793264 A 6.089999999999999 6.089999999999999 0 1 1 860.488054449406 288.20510348034145 Z" stroke-opacity="1" stroke-miterlimit="10"/><path fill="none" stroke="rgb(0,0,0)" paint-order="fill stroke markers" d=" M 781.0581932007776 287.7352070234064 L 854.8880471748417 288.2143735840849" stroke-opacity="0" stroke-linecap="round" stroke-miterlimit="10" stroke-width="20"/><path fill="none" stroke="rgb(85,85,85)" paint-order="fill stroke markers" d=" M 575.5490812329541 24.942250414153474 L 620.6108899143553 24.47799501985271" stroke-opacity="1" stroke-linejoin="round" stroke-miterlimit="10" stroke-width="1.25"/><path fill="rgb(255,255,255)" stroke="rgb(255,255,255)" paint-order="fill stroke markers" d=" M 611.9940902651067 30.65709396749133 L 624.110704176616 24.44193770884256 L 611.8686108227914 18.47774033482444 Z" fill-opacity="1" stroke-opacity="1" stroke-miterlimit="10"/><path fill="none" stroke="rgb(85,85,85)" paint-order="fill stroke markers" d=" M 611.9940902651067 30.65709396749133 L 624.110704176616 24.44193770884256 L 611.8686108227914 18.47774033482444 Z" stroke-opacity="1" stroke-miterlimit="10"/><path fill="none" stroke="rgb(0,0,0)" paint-order="fill stroke markers" d=" M 575.5490812329541 24.942250414153474 L 620.6108899143553 24.47799501985271" stroke-opacity="0" stroke-linecap="round" stroke-miterlimit="10" stroke-width="20"/><path fill="none" stroke="rgb(85,85,85)" paint-order="fill stroke markers" d=" M 575.5490812329541 0.6423717651325873 L 620.610704176616 0.6423717651325873" stroke-opacity="1" stroke-linejoin="round" stroke-miterlimit="10" stroke-width="1.25"/><path fill="rgb(85,85,85)" stroke="none" paint-order="stroke fill markers" d=" M 611.930704176616 6.732371765132585 L 624.110704176616 0.6423717651325873 L 611.930704176616 -5.4476282348674125 Z" fill-opacity="1"/><path fill="none" stroke="rgb(0,0,0)" paint-order="fill stroke markers" d=" M 575.5490812329541 0.6423717651325873 L 620.610704176616 0.6423717651325873" stroke-opacity="0" stroke-linecap="round" stroke-linejoin="round" stroke-miterlimit="10" stroke-width="20"/><path fill="rgb(168,168,255)" stroke="#a8a8ff" paint-order="fill stroke markers" d=" M 884.7887372051676 -26.356903483176062 L 903.7887372051676 -26.356903483176062 L 903.7887372051676 -26.356903483176062 A 8 8 0 0 1 911.7887372051676 -18.356903483176062 L 911.7887372051676 0.6430965168239382 L 911.7887372051676 0.6430965168239382 A 8 8 0 0 1 903.7887372051676 8.643096516823938 L 865.7887372051676 8.643096516823938 L 865.7887372051676 8.643096516823938 A 8 8 0 0 1 857.7887372051676 0.6430965168239392 L 857.7887372051676 -18.356903483176062 L 857.7887372051676 -18.356903483176062 A 8 8 0 0 1 865.7887372051676 -26.356903483176062 L 884.7887372051676 -26.356903483176062 Z" fill-opacity="1" stroke-miterlimit="10" stroke-width="1.25"/><path fill="rgb(168,168,255)" stroke="rgb(168,168,255)" paint-order="fill stroke markers" d="" fill-opacity="1" stroke-opacity="1" stroke-miterlimit="10" stroke-width="1.25"/><text fill="rgb(0,0,0)" stroke="none" font-family="Helvetica" font-size="11px" font-style="normal" font-weight="normal" text-decoration="normal" x="884.7887372051676" y="-3.356903483176062" text-anchor="middle" dominant-baseline="text-after-edge" fill-opacity="1">jQuery</text><path fill="rgb(168,168,255)" stroke="#a8a8ff" paint-order="fill stroke markers" d=" M 955.9532680774423 -26.356903483176062 L 982.9532680774423 -26.356903483176062 L 982.9532680774423 -26.356903483176062 A 8 8 0 0 1 990.9532680774423 -18.356903483176062 L 990.9532680774423 0.6430965168239382 L 990.9532680774423 0.6430965168239382 A 8 8 0 0 1 982.9532680774423 8.643096516823938 L 928.9532680774423 8.643096516823938 L 928.9532680774423 8.643096516823938 A 8 8 0 0 1 920.9532680774423 0.6430965168239392 L 920.9532680774423 -18.356903483176062 L 920.9532680774423 -18.356903483176062 A 8 8 0 0 1 928.9532680774423 -26.356903483176062 L 955.9532680774423 -26.356903483176062 Z" fill-opacity="1" stroke-miterlimit="10" stroke-width="1.25"/><path fill="rgb(168,168,255)" stroke="rgb(168,168,255)" paint-order="fill stroke markers" d="" fill-opacity="1" stroke-opacity="1" stroke-miterlimit="10" stroke-width="1.25"/><text fill="rgb(0,0,0)" stroke="none" font-family="Helvetica" font-size="11px" font-style="normal" font-weight="normal" text-decoration="normal" x="955.9532680774423" y="-3.356903483176062" text-anchor="middle" dominant-baseline="text-after-edge" fill-opacity="1">Backbone.js</text><path fill="rgb(168,168,255)" stroke="#a8a8ff" paint-order="fill stroke markers" d=" M 897.3241946385073 21.643096516823938 L 928.3241946385073 21.643096516823938 L 928.3241946385073 21.643096516823938 A 8 8 0 0 1 936.3241946385073 29.643096516823938 L 936.3241946385073 48.64309651682394 L 936.3241946385073 48.64309651682394 A 8 8 0 0 1 928.3241946385073 56.64309651682394 L 866.3241946385073 56.64309651682394 L 866.3241946385073 56.64309651682394 A 8 8 0 0 1 858.3241946385073 48.64309651682394 L 858.3241946385073 29.643096516823938 L 858.3241946385073 29.643096516823938 A 8 8 0 0 1 866.3241946385073 21.643096516823938 L 897.3241946385073 21.643096516823938 Z" fill-opacity="1" stroke-miterlimit="10" stroke-width="1.25"/><path fill="rgb(168,168,255)" stroke="rgb(168,168,255)" paint-order="fill stroke markers" d="" fill-opacity="1" stroke-opacity="1" stroke-miterlimit="10" stroke-width="1.25"/><text fill="rgb(0,0,0)" stroke="none" font-family="Helvetica" font-size="11px" font-style="normal" font-weight="normal" text-decoration="normal" x="897.3241946385073" y="44.64309651682394" text-anchor="middle" dominant-baseline="text-after-edge" fill-opacity="1">Underscore.js</text><path fill="rgb(168,168,255)" stroke="#a8a8ff" paint-order="fill stroke markers" d=" M 1029.9236089597498 -26.356903483176062 L 1051.9236089597498 -26.356903483176062 L 1051.9236089597498 -26.356903483176062 A 8 8 0 0 1 1059.9236089597498 -18.356903483176062 L 1059.9236089597498 0.6430965168239382 L 1059.9236089597498 0.6430965168239382 A 8 8 0 0 1 1051.9236089597498 8.643096516823938 L 1007.9236089597498 8.643096516823938 L 1007.9236089597498 8.643096516823938 A 8 8 0 0 1 999.9236089597498 0.6430965168239392 L 999.9236089597498 -18.356903483176062 L 999.9236089597498 -18.356903483176062 A 8 8 0 0 1 1007.9236089597498 -26.356903483176062 L 1029.9236089597498 -26.356903483176062 Z" fill-opacity="1" stroke-miterlimit="10" stroke-width="1.25"/><path fill="rgb(168,168,255)" stroke="rgb(168,168,255)" paint-order="fill stroke markers" d="" fill-opacity="1" stroke-opacity="1" stroke-miterlimit="10" stroke-width="1.25"/><text fill="rgb(0,0,0)" stroke="none" font-family="Helvetica" font-size="11px" font-style="normal" font-weight="normal" text-decoration="normal" x="1029.9236089597498" y="-3.356903483176062" text-anchor="middle" dominant-baseline="text-after-edge" fill-opacity="1">Bootstrap</text><path fill="rgb(168,168,255)" stroke="#a8a8ff" paint-order="fill stroke markers" d=" M 1022.4739694254678 122.49065581325607 L 1049.4739694254677 122.49065581325607 L 1049.4739694254677 122.49065581325607 A 8 8 0 0 1 1057.4739694254677 130.49065581325607 L 1057.4739694254677 149.49065581325607 L 1057.4739694254677 149.49065581325607 A 8 8 0 0 1 1049.4739694254677 157.49065581325607 L 995.4739694254678 157.49065581325607 L 995.4739694254678 157.49065581325607 A 8 8 0 0 1 987.4739694254678 149.49065581325607 L 987.4739694254678 130.49065581325607 L 987.4739694254678 130.49065581325607 A 8 8 0 0 1 995.4739694254678 122.49065581325607 L 1022.4739694254678 122.49065581325607 Z" fill-opacity="1" stroke-miterlimit="10" stroke-width="1.25"/><path fill="rgb(168,168,255)" stroke="rgb(168,168,255)" paint-order="fill stroke markers" d="" fill-opacity="1" stroke-opacity="1" stroke-miterlimit="10" stroke-width="1.25"/><text fill="rgb(0,0,0)" stroke="none" font-family="Helvetica" font-size="11px" font-style="normal" font-weight="normal" text-decoration="normal" x="1022.4739694254678" y="145.49065581325607" text-anchor="middle" dominant-baseline="text-after-edge" fill-opacity="1">ChiSE.js</text><path fill="rgb(255,130,192)" stroke="#ff86c2" paint-order="fill stroke markers" d=" M 896.1129292369669 270.98192910382124 L 923.1129292369669 270.98192910382124 L 923.1129292369669 270.98192910382124 A 8 8 0 0 1 931.1129292369669 278.98192910382124 L 931.1129292369669 297.98192910382124 L 931.1129292369669 297.98192910382124 A 8 8 0 0 1 923.1129292369669 305.98192910382124 L 869.1129292369669 305.98192910382124 L 869.1129292369669 305.98192910382124 A 8 8 0 0 1 861.1129292369669 297.98192910382124 L 861.1129292369669 278.98192910382124 L 861.1129292369669 278.98192910382124 A 8 8 0 0 1 869.1129292369669 270.98192910382124 L 896.1129292369669 270.98192910382124 Z" fill-opacity="1" stroke-miterlimit="10" stroke-width="1.25"/><path fill="rgb(255,130,192)" stroke="rgb(255,134,194)" paint-order="fill stroke markers" d="" fill-opacity="1" stroke-opacity="1" stroke-miterlimit="10" stroke-width="1.25"/><text fill="rgb(0,0,0)" stroke="none" font-family="Helvetica" font-size="11px" font-style="normal" font-weight="normal" text-decoration="normal" x="896.1129292369669" y="293.98192910382124" text-anchor="middle" dominant-baseline="text-after-edge" fill-opacity="1">Cytoscape.js</text><path fill="rgb(124,190,190)" stroke="#5fafaf" paint-order="fill stroke markers" d=" M 1022.4739694254679 211.1441406498371 L 1049.4739694254679 211.1441406498371 L 1049.4739694254679 211.1441406498371 A 8 8 0 0 1 1057.4739694254679 219.1441406498371 L 1057.4739694254679 238.1441406498371 L 1057.4739694254679 238.1441406498371 A 8 8 0 0 1 1049.4739694254679 246.1441406498371 L 995.4739694254679 246.1441406498371 L 995.4739694254679 246.1441406498371 A 8 8 0 0 1 987.4739694254679 238.1441406498371 L 987.4739694254679 219.1441406498371 L 987.4739694254679 219.1441406498371 A 8 8 0 0 1 995.4739694254679 211.1441406498371 L 1022.4739694254679 211.1441406498371 Z" fill-opacity="1" stroke-miterlimit="10" stroke-width="1.25"/><path fill="rgb(124,190,190)" stroke="rgb(95,175,175)" paint-order="fill stroke markers" d="" fill-opacity="1" stroke-opacity="1" stroke-miterlimit="10" stroke-width="1.25"/><text fill="rgb(0,0,0)" stroke="none" font-family="Helvetica" font-size="11px" font-style="normal" font-weight="normal" text-decoration="normal" x="1022.4739694254679" y="234.1441406498371" text-anchor="middle" dominant-baseline="text-after-edge" fill-opacity="1">SBGNViz.js</text><path fill="rgb(255,130,192)" stroke="#ff82c0" paint-order="fill stroke markers" d=" M 543.0892616116608 198.81474505221297 L 563.0892616116608 198.81474505221297 L 563.0892616116608 198.81474505221297 A 8 8 0 0 1 571.0892616116608 206.81474505221297 L 571.0892616116608 225.81474505221297 L 571.0892616116608 225.81474505221297 A 8 8 0 0 1 563.0892616116608 233.81474505221297 L 523.0892616116608 233.81474505221297 L 523.0892616116608 233.81474505221297 A 8 8 0 0 1 515.0892616116608 225.81474505221297 L 515.0892616116608 206.81474505221297 L 515.0892616116608 206.81474505221297 A 8 8 0 0 1 523.0892616116608 198.81474505221297 L 543.0892616116608 198.81474505221297 Z" fill-opacity="1" stroke-miterlimit="10" stroke-width="1.25"/><path fill="rgb(255,130,192)" stroke="rgb(255,130,192)" paint-order="fill stroke markers" d="" fill-opacity="1" stroke-opacity="1" stroke-miterlimit="10" stroke-width="1.25"/><text fill="rgb(0,0,0)" stroke="none" font-family="Helvetica" font-size="11px" font-style="normal" font-weight="normal" text-decoration="normal" x="543.0892616116608" y="221.81474505221297" text-anchor="middle" dominant-baseline="text-after-edge" fill-opacity="1">undo-redo</text><path fill="rgb(255,130,192)" stroke="#ff82c0" paint-order="fill stroke markers" d=" M 601.694275292434 198.81474505221297 L 613.4690675655286 198.81474505221297 L 613.4690675655286 198.81474505221297 A 8 8 0 0 1 621.4690675655286 206.81474505221297 L 621.4690675655286 225.81474505221297 L 621.4690675655286 225.81474505221297 A 8 8 0 0 1 613.4690675655286 233.81474505221297 L 589.9194830193394 233.81474505221297 L 589.9194830193394 233.81474505221297 A 8 8 0 0 1 581.9194830193394 225.81474505221297 L 581.9194830193394 206.81474505221297 L 581.9194830193394 206.81474505221297 A 8 8 0 0 1 589.9194830193394 198.81474505221297 L 601.694275292434 198.81474505221297 Z" fill-opacity="1" stroke-miterlimit="10" stroke-width="1.25"/><path fill="rgb(255,130,192)" stroke="rgb(255,130,192)" paint-order="fill stroke markers" d="" fill-opacity="1" stroke-opacity="1" stroke-miterlimit="10" stroke-width="1.25"/><text fill="rgb(0,0,0)" stroke="none" font-family="Helvetica" font-size="11px" font-style="normal" font-weight="normal" text-decoration="normal" x="601.694275292434" y="221.81474505221297" text-anchor="middle" dominant-baseline="text-after-edge" fill-opacity="1">fcose</text><path fill="rgb(255,130,192)" stroke="#ff82c0" paint-order="fill stroke markers" d=" M 738.8081932007776 198.81474505221294 L 750.8081932007776 198.81474505221294 L 750.8081932007776 198.81474505221294 A 8 8 0 0 1 758.8081932007776 206.81474505221294 L 758.8081932007776 225.81474505221294 L 758.8081932007776 225.81474505221294 A 8 8 0 0 1 750.8081932007776 233.81474505221294 L 726.8081932007776 233.81474505221294 L 726.8081932007776 233.81474505221294 A 8 8 0 0 1 718.8081932007776 225.81474505221294 L 718.8081932007776 206.81474505221294 L 718.8081932007776 206.81474505221294 A 8 8 0 0 1 726.8081932007776 198.81474505221294 L 738.8081932007776 198.81474505221294 Z" fill-opacity="1" stroke-miterlimit="10" stroke-width="1.25"/><path fill="rgb(255,130,192)" stroke="rgb(255,130,192)" paint-order="fill stroke markers" d="" fill-opacity="1" stroke-opacity="1" stroke-miterlimit="10" stroke-width="1.25"/><text fill="rgb(0,0,0)" stroke="none" font-family="Helvetica" font-size="11px" font-style="normal" font-weight="normal" text-decoration="normal" x="738.8081932007776" y="221.81474505221294" text-anchor="middle" dominant-baseline="text-after-edge" fill-opacity="1">popper</text><path fill="rgb(255,130,192)" stroke="#ff82c0" paint-order="fill stroke markers" d=" M 550.0892616116605 244.44613781740668 L 577.0892616116605 244.44613781740668 L 577.0892616116605 244.44613781740668 A 8 8 0 0 1 585.0892616116605 252.44613781740668 L 585.0892616116605 271.4461378174067 L 585.0892616116605 271.4461378174067 A 8 8 0 0 1 577.0892616116605 279.4461378174067 L 523.0892616116605 279.4461378174067 L 523.0892616116605 279.4461378174067 A 8 8 0 0 1 515.0892616116605 271.4461378174067 L 515.0892616116605 252.44613781740668 L 515.0892616116605 252.44613781740668 A 8 8 0 0 1 523.0892616116605 244.44613781740668 L 550.0892616116605 244.44613781740668 Z" fill-opacity="1" stroke-miterlimit="10" stroke-width="1.25"/><path fill="rgb(255,130,192)" stroke="rgb(255,130,192)" paint-order="fill stroke markers" d="" fill-opacity="1" stroke-opacity="1" stroke-miterlimit="10" stroke-width="1.25"/><text fill="rgb(0,0,0)" stroke="none" font-family="Helvetica" font-size="11px" font-style="normal" font-weight="normal" text-decoration="normal" x="550.0892616116605" y="267.4461378174067" text-anchor="middle" dominant-baseline="text-after-edge" fill-opacity="1">view-utilities</text><path fill="rgb(255,130,192)" stroke="#ff82c0" paint-order="fill stroke markers" d=" M 637.9194830193396 244.44613781740668 L 671.9194830193396 244.44613781740668 L 671.9194830193396 244.44613781740668 A 8 8 0 0 1 679.9194830193396 252.44613781740668 L 679.9194830193396 271.4461378174067 L 679.9194830193396 271.4461378174067 A 8 8 0 0 1 671.9194830193396 279.4461378174067 L 603.9194830193396 279.4461378174067 L 603.9194830193396 279.4461378174067 A 8 8 0 0 1 595.9194830193396 271.4461378174067 L 595.9194830193396 252.44613781740668 L 595.9194830193396 252.44613781740668 A 8 8 0 0 1 603.9194830193396 244.44613781740668 L 637.9194830193396 244.44613781740668 Z" fill-opacity="1" stroke-miterlimit="10" stroke-width="1.25"/><path fill="rgb(255,130,192)" stroke="rgb(255,130,192)" paint-order="fill stroke markers" d="" fill-opacity="1" stroke-opacity="1" stroke-miterlimit="10" stroke-width="1.25"/><text fill="rgb(0,0,0)" stroke="none" font-family="Helvetica" font-size="11px" font-style="normal" font-weight="normal" text-decoration="normal" x="637.9194830193396" y="267.4461378174067" text-anchor="middle" dominant-baseline="text-after-edge" fill-opacity="1">expand-collapse</text><path fill="rgb(255,130,192)" stroke="#ff82c0" paint-order="fill stroke markers" d=" M 670.9283563630173 198.81474505221297 L 699.4680484875176 198.81474505221297 L 699.4680484875176 198.81474505221297 A 8 8 0 0 1 707.4680484875176 206.81474505221297 L 707.4680484875176 225.81474505221297 L 707.4680484875176 225.81474505221297 A 8 8 0 0 1 699.4680484875176 233.81474505221297 L 642.388664238517 233.81474505221297 L 642.388664238517 233.81474505221297 A 8 8 0 0 1 634.388664238517 225.81474505221297 L 634.388664238517 206.81474505221297 L 634.388664238517 206.81474505221297 A 8 8 0 0 1 642.388664238517 198.81474505221297 L 670.9283563630173 198.81474505221297 Z" fill-opacity="1" stroke-miterlimit="10" stroke-width="1.25"/><path fill="rgb(255,130,192)" stroke="rgb(255,130,192)" paint-order="fill stroke markers" d="" fill-opacity="1" stroke-opacity="1" stroke-miterlimit="10" stroke-width="1.25"/><text fill="rgb(0,0,0)" stroke="none" font-family="Helvetica" font-size="11px" font-style="normal" font-weight="normal" text-decoration="normal" x="670.9283563630173" y="221.81474505221297" text-anchor="middle" dominant-baseline="text-after-edge" fill-opacity="1">edge-editing</text><path fill="rgb(255,130,192)" stroke="#ff82c0" paint-order="fill stroke markers" d=" M 553.0892616116606 293.92520540914927 L 583.0892616116606 293.92520540914927 L 583.0892616116606 293.92520540914927 A 8 8 0 0 1 591.0892616116606 301.92520540914927 L 591.0892616116606 320.92520540914927 L 591.0892616116606 320.92520540914927 A 8 8 0 0 1 583.0892616116606 328.92520540914927 L 523.0892616116606 328.92520540914927 L 523.0892616116606 328.92520540914927 A 8 8 0 0 1 515.0892616116606 320.92520540914927 L 515.0892616116606 301.92520540914927 L 515.0892616116606 301.92520540914927 A 8 8 0 0 1 523.0892616116606 293.92520540914927 L 553.0892616116606 293.92520540914927 Z" fill-opacity="1" stroke-miterlimit="10" stroke-width="1.25"/><path fill="rgb(255,130,192)" stroke="rgb(255,130,192)" paint-order="fill stroke markers" d="" fill-opacity="1" stroke-opacity="1" stroke-miterlimit="10" stroke-width="1.25"/><text fill="rgb(0,0,0)" stroke="none" font-family="Helvetica" font-size="11px" font-style="normal" font-weight="normal" text-decoration="normal" x="553.0892616116606" y="316.92520540914927" text-anchor="middle" dominant-baseline="text-after-edge" fill-opacity="1">context-menus</text><path fill="rgb(255,130,192)" stroke="#ff82c0" paint-order="fill stroke markers" d=" M 632.9194830193395 293.92520540914927 L 654.9194830193395 293.92520540914927 L 654.9194830193395 293.92520540914927 A 8 8 0 0 1 662.9194830193395 301.92520540914927 L 662.9194830193395 320.92520540914927 L 662.9194830193395 320.92520540914927 A 8 8 0 0 1 654.9194830193395 328.92520540914927 L 610.9194830193395 328.92520540914927 L 610.9194830193395 328.92520540914927 A 8 8 0 0 1 602.9194830193395 320.92520540914927 L 602.9194830193395 301.92520540914927 L 602.9194830193395 301.92520540914927 A 8 8 0 0 1 610.9194830193395 293.92520540914927 L 632.9194830193395 293.92520540914927 Z" fill-opacity="1" stroke-miterlimit="10" stroke-width="1.25"/><path fill="rgb(255,130,192)" stroke="rgb(255,130,192)" paint-order="fill stroke markers" d="" fill-opacity="1" stroke-opacity="1" stroke-miterlimit="10" stroke-width="1.25"/><text fill="rgb(0,0,0)" stroke="none" font-family="Helvetica" font-size="11px" font-style="normal" font-weight="normal" text-decoration="normal" x="632.9194830193395" y="316.92520540914927" text-anchor="middle" dominant-baseline="text-after-edge" fill-opacity="1">panzoom</text><path fill="rgb(255,130,192)" stroke="#ff82c0" paint-order="fill stroke markers" d=" M 708.3886642385172 293.92520540914927 L 735.3886642385172 293.92520540914927 L 735.3886642385172 293.92520540914927 A 8 8 0 0 1 743.3886642385172 301.92520540914927 L 743.3886642385172 320.92520540914927 L 743.3886642385172 320.92520540914927 A 8 8 0 0 1 735.3886642385172 328.92520540914927 L 681.3886642385172 328.92520540914927 L 681.3886642385172 328.92520540914927 A 8 8 0 0 1 673.3886642385172 320.92520540914927 L 673.3886642385172 301.92520540914927 L 673.3886642385172 301.92520540914927 A 8 8 0 0 1 681.3886642385172 293.92520540914927 L 708.3886642385172 293.92520540914927 Z" fill-opacity="1" stroke-miterlimit="10" stroke-width="1.25"/><path fill="rgb(255,130,192)" stroke="rgb(255,130,192)" paint-order="fill stroke markers" d="" fill-opacity="1" stroke-opacity="1" stroke-miterlimit="10" stroke-width="1.25"/><text fill="rgb(0,0,0)" stroke="none" font-family="Helvetica" font-size="11px" font-style="normal" font-weight="normal" text-decoration="normal" x="708.3886642385172" y="316.92520540914927" text-anchor="middle" dominant-baseline="text-after-edge" fill-opacity="1">edgehandles</text><path fill="rgb(255,130,192)" stroke="#ff82c0" paint-order="fill stroke markers" d=" M 550.0892616116605 339.7850859345207 L 577.0892616116605 339.7850859345207 L 577.0892616116605 339.7850859345207 A 8 8 0 0 1 585.0892616116605 347.7850859345207 L 585.0892616116605 366.7850859345207 L 585.0892616116605 366.7850859345207 A 8 8 0 0 1 577.0892616116605 374.7850859345207 L 523.0892616116605 374.7850859345207 L 523.0892616116605 374.7850859345207 A 8 8 0 0 1 515.0892616116605 366.7850859345207 L 515.0892616116605 347.7850859345207 L 515.0892616116605 347.7850859345207 A 8 8 0 0 1 523.0892616116605 339.7850859345207 L 550.0892616116605 339.7850859345207 Z" fill-opacity="1" stroke-miterlimit="10" stroke-width="1.25"/><path fill="rgb(255,130,192)" stroke="rgb(255,130,192)" paint-order="fill stroke markers" d="" fill-opacity="1" stroke-opacity="1" stroke-miterlimit="10" stroke-width="1.25"/><text fill="rgb(0,0,0)" stroke="none" font-family="Helvetica" font-size="11px" font-style="normal" font-weight="normal" text-decoration="normal" x="550.0892616116605" y="362.7850859345207" text-anchor="middle" dominant-baseline="text-after-edge" fill-opacity="1">node-resize</text><path fill="rgb(255,130,192)" stroke="#ff82c0" paint-order="fill stroke markers" d=" M 627.9194830193394 339.7850859345207 L 650.9194830193394 339.7850859345207 L 650.9194830193394 339.7850859345207 A 8 8 0 0 1 658.9194830193394 347.7850859345207 L 658.9194830193394 366.7850859345207 L 658.9194830193394 366.7850859345207 A 8 8 0 0 1 650.9194830193394 374.7850859345207 L 604.9194830193394 374.7850859345207 L 604.9194830193394 374.7850859345207 A 8 8 0 0 1 596.9194830193394 366.7850859345207 L 596.9194830193394 347.7850859345207 L 596.9194830193394 347.7850859345207 A 8 8 0 0 1 604.9194830193394 339.7850859345207 L 627.9194830193394 339.7850859345207 Z" fill-opacity="1" stroke-miterlimit="10" stroke-width="1.25"/><path fill="rgb(255,130,192)" stroke="rgb(255,130,192)" paint-order="fill stroke markers" d="" fill-opacity="1" stroke-opacity="1" stroke-miterlimit="10" stroke-width="1.25"/><text fill="rgb(0,0,0)" stroke="none" font-family="Helvetica" font-size="11px" font-style="normal" font-weight="normal" text-decoration="normal" x="627.9194830193394" y="362.7850859345207" text-anchor="middle" dominant-baseline="text-after-edge" fill-opacity="1">grid-guide</text><path fill="rgb(255,130,192)" stroke="#ff82c0" paint-order="fill stroke markers" d=" M 711.3886642385175 339.7850859345207 L 745.3886642385175 339.7850859345207 L 745.3886642385175 339.7850859345207 A 8 8 0 0 1 753.3886642385175 347.7850859345207 L 753.3886642385175 366.7850859345207 L 753.3886642385175 366.7850859345207 A 8 8 0 0 1 745.3886642385175 374.7850859345207 L 677.3886642385175 374.7850859345207 L 677.3886642385175 374.7850859345207 A 8 8 0 0 1 669.3886642385175 366.7850859345207 L 669.3886642385175 347.7850859345207 L 669.3886642385175 347.7850859345207 A 8 8 0 0 1 677.3886642385175 339.7850859345207 L 711.3886642385175 339.7850859345207 Z" fill-opacity="1" stroke-miterlimit="10" stroke-width="1.25"/><path fill="rgb(255,130,192)" stroke="rgb(255,130,192)" paint-order="fill stroke markers" d="" fill-opacity="1" stroke-opacity="1" stroke-miterlimit="10" stroke-width="1.25"/><text fill="rgb(0,0,0)" stroke="none" font-family="Helvetica" font-size="11px" font-style="normal" font-weight="normal" text-decoration="normal" x="711.3886642385175" y="362.7850859345207" text-anchor="middle" dominant-baseline="text-after-edge" fill-opacity="1">autopan-on-drag</text><path fill="rgb(255,130,192)" stroke="#ff82c0" paint-order="fill stroke markers" d=" M 719.2893578321895 244.44613781740668 L 739.2893578321895 244.44613781740668 L 739.2893578321895 244.44613781740668 A 8 8 0 0 1 747.2893578321895 252.44613781740668 L 747.2893578321895 271.4461378174067 L 747.2893578321895 271.4461378174067 A 8 8 0 0 1 739.2893578321895 279.4461378174067 L 699.2893578321895 279.4461378174067 L 699.2893578321895 279.4461378174067 A 8 8 0 0 1 691.2893578321895 271.4461378174067 L 691.2893578321895 252.44613781740668 L 691.2893578321895 252.44613781740668 A 8 8 0 0 1 699.2893578321895 244.44613781740668 L 719.2893578321895 244.44613781740668 Z" fill-opacity="1" stroke-miterlimit="10" stroke-width="1.25"/><path fill="rgb(255,130,192)" stroke="rgb(255,130,192)" paint-order="fill stroke markers" d="" fill-opacity="1" stroke-opacity="1" stroke-miterlimit="10" stroke-width="1.25"/><text fill="rgb(0,0,0)" stroke="none" font-family="Helvetica" font-size="11px" font-style="normal" font-weight="normal" text-decoration="normal" x="719.2893578321895" y="267.4461378174067" text-anchor="middle" dominant-baseline="text-after-edge" fill-opacity="1">clipboard</text><path fill="rgb(255,255,255)" stroke="#ffffff" paint-order="fill stroke markers" d=" M 664.735704176616 18.751880897788645 L 702.0999480567048 18.751880897788645 L 702.0999480567048 18.751880897788645 A 2.6357561199112562 2.6357561199112562 0 0 1 704.735704176616 21.3876370176999 L 704.735704176616 26.659149257522415 L 704.735704176616 26.659149257522415 A 2.6357561199112562 2.6357561199112562 0 0 1 702.0999480567048 29.294905377433672 L 627.3714602965272 29.294905377433672 L 627.3714602965272 29.294905377433672 A 2.6357561199112562 2.6357561199112562 0 0 1 624.735704176616 26.659149257522415 L 624.735704176616 21.3876370176999 L 624.735704176616 21.3876370176999 A 2.6357561199112562 2.6357561199112562 0 0 1 627.3714602965272 18.751880897788645 L 664.735704176616 18.751880897788645 Z" fill-opacity="1" stroke-miterlimit="10" stroke-width="1.25"/><path fill="rgb(255,255,255)" stroke="rgb(255,255,255)" paint-order="fill stroke markers" d="" fill-opacity="1" stroke-opacity="1" stroke-miterlimit="10" stroke-width="1.25"/><text fill="rgb(0,0,0)" stroke="none" font-family="Helvetica" font-size="11px" font-style="normal" font-weight="normal" text-decoration="normal" x="664.735704176616" y="29.52339313761116" text-anchor="middle" dominant-baseline="text-after-edge" fill-opacity="1">extends</text><path fill="rgb(255,255,255)" stroke="#ffffff" paint-order="fill stroke markers" d=" M 664.735704176616 -4.629140474689925 L 702.0999480567048 -4.629140474689925 L 702.0999480567048 -4.629140474689925 A 2.6357561199112562 2.6357561199112562 0 0 1 704.735704176616 -1.993384354778669 L 704.735704176616 3.2781278850438436 L 704.735704176616 3.2781278850438436 A 2.6357561199112562 2.6357561199112562 0 0 1 702.0999480567048 5.9138840049551 L 627.3714602965272 5.9138840049551 L 627.3714602965272 5.9138840049551 A 2.6357561199112562 2.6357561199112562 0 0 1 624.735704176616 3.278127885043844 L 624.735704176616 -1.993384354778669 L 624.735704176616 -1.9933843547786687 A 2.6357561199112562 2.6357561199112562 0 0 1 627.3714602965272 -4.629140474689925 L 664.735704176616 -4.629140474689925 Z" fill-opacity="1" stroke-miterlimit="10" stroke-width="1.25"/><path fill="rgb(255,255,255)" stroke="rgb(255,255,255)" paint-order="fill stroke markers" d="" fill-opacity="1" stroke-opacity="1" stroke-miterlimit="10" stroke-width="1.25"/><text fill="rgb(0,0,0)" stroke="none" font-family="Helvetica" font-size="11px" font-style="normal" font-weight="normal" text-decoration="normal" x="664.735704176616" y="6.142371765132587" text-anchor="middle" dominant-baseline="text-after-edge" fill-opacity="1">accesses API</text><path fill="rgb(241,241,241)" stroke="none" paint-order="stroke fill markers" d=" M 565.5490812329541 -9.357628234867413 L 570.5490812329541 -9.357628234867413 L 570.5490812329541 -9.357628234867413 A 5 5 0 0 1 575.5490812329541 -4.357628234867413 L 575.5490812329541 5.642371765132587 L 575.5490812329541 5.642371765132587 A 5 5 0 0 1 570.5490812329541 10.642371765132587 L 560.5490812329541 10.642371765132587 L 560.5490812329541 10.642371765132587 A 5 5 0 0 1 555.5490812329541 5.642371765132588 L 555.5490812329541 -4.357628234867413 L 555.5490812329541 -4.357628234867412 A 5 5 0 0 1 560.5490812329541 -9.357628234867413 L 565.5490812329541 -9.357628234867413 Z" fill-opacity="0"/><path fill="rgb(241,241,241)" stroke="none" paint-order="stroke fill markers" d="" fill-opacity="0"/><path fill="rgb(241,241,241)" stroke="none" paint-order="stroke fill markers" d=" M 565.5490812329541 15.045276770148895 L 570.5490812329541 15.045276770148895 L 570.5490812329541 15.045276770148895 A 5 5 0 0 1 575.5490812329541 20.045276770148895 L 575.5490812329541 30.045276770148895 L 575.5490812329541 30.045276770148895 A 5 5 0 0 1 570.5490812329541 35.045276770148895 L 560.5490812329541 35.045276770148895 L 560.5490812329541 35.045276770148895 A 5 5 0 0 1 555.5490812329541 30.045276770148895 L 555.5490812329541 20.045276770148895 L 555.5490812329541 20.045276770148895 A 5 5 0 0 1 560.5490812329541 15.045276770148895 L 565.5490812329541 15.045276770148895 Z" fill-opacity="0"/><path fill="rgb(241,241,241)" stroke="none" paint-order="stroke fill markers" d="" fill-opacity="0"/><path fill="rgb(255,255,255)" stroke="#ffffff" paint-order="fill stroke markers" d=" M 664.735704176616 43.621439356874745 L 702.0999480567048 43.621439356874745 L 702.0999480567048 43.621439356874745 A 2.6357561199112562 2.6357561199112562 0 0 1 704.735704176616 46.257195476786 L 704.735704176616 51.528707716608515 L 704.735704176616 51.528707716608515 A 2.6357561199112562 2.6357561199112562 0 0 1 702.0999480567048 54.16446383651977 L 627.3714602965272 54.16446383651977 L 627.3714602965272 54.16446383651977 A 2.6357561199112562 2.6357561199112562 0 0 1 624.735704176616 51.528707716608515 L 624.735704176616 46.257195476786 L 624.735704176616 46.257195476786 A 2.6357561199112562 2.6357561199112562 0 0 1 627.3714602965272 43.621439356874745 L 664.735704176616 43.621439356874745 Z" fill-opacity="1" stroke-miterlimit="10" stroke-width="1.25"/><path fill="rgb(255,255,255)" stroke="rgb(255,255,255)" paint-order="fill stroke markers" d="" fill-opacity="1" stroke-opacity="1" stroke-miterlimit="10" stroke-width="1.25"/><text fill="rgb(0,0,0)" stroke="none" font-family="Helvetica" font-size="11px" font-style="normal" font-weight="normal" text-decoration="normal" x="664.735704176616" y="54.39295159669726" text-anchor="middle" dominant-baseline="text-after-edge" fill-opacity="1">registers</text><path fill="rgb(255,255,255)" stroke="#ffffff" paint-order="fill stroke markers" d=" M 565.5490812329541 38.89295159669726 L 570.5490812329541 38.89295159669726 L 570.5490812329541 38.89295159669726 A 5 5 0 0 1 575.5490812329541 43.89295159669726 L 575.5490812329541 53.89295159669726 L 575.5490812329541 53.89295159669726 A 5 5 0 0 1 570.5490812329541 58.89295159669726 L 560.5490812329541 58.89295159669726 L 560.5490812329541 58.89295159669726 A 5 5 0 0 1 555.5490812329541 53.89295159669726 L 555.5490812329541 43.89295159669726 L 555.5490812329541 43.89295159669726 A 5 5 0 0 1 560.5490812329541 38.89295159669726 L 565.5490812329541 38.89295159669726 Z" fill-opacity="1" stroke-miterlimit="10" stroke-width="0.0001"/><path fill="rgb(255,255,255)" stroke="rgb(255,255,255)" paint-order="fill stroke markers" d="" fill-opacity="1" stroke-opacity="1" stroke-miterlimit="10" stroke-width="0.0001"/><path fill="rgb(168,168,255)" stroke="#a8a8ff" paint-order="fill stroke markers" d=" M 978.7662491781925 20.819947652956444 L 1000.7662491781925 20.819947652956444 L 1000.7662491781925 20.819947652956444 A 8 8 0 0 1 1008.7662491781925 28.819947652956444 L 1008.7662491781925 47.819947652956444 L 1008.7662491781925 47.819947652956444 A 8 8 0 0 1 1000.7662491781925 55.819947652956444 L 956.7662491781925 55.819947652956444 L 956.7662491781925 55.819947652956444 A 8 8 0 0 1 948.7662491781925 47.819947652956444 L 948.7662491781925 28.819947652956444 L 948.7662491781925 28.819947652956444 A 8 8 0 0 1 956.7662491781925 20.819947652956444 L 978.7662491781925 20.819947652956444 Z" fill-opacity="1" stroke-miterlimit="10" stroke-width="1.25"/><path fill="rgb(168,168,255)" stroke="rgb(168,168,255)" paint-order="fill stroke markers" d="" fill-opacity="1" stroke-opacity="1" stroke-miterlimit="10" stroke-width="1.25"/><text fill="rgb(0,0,0)" stroke="none" font-family="Helvetica" font-size="11px" font-style="normal" font-weight="normal" text-decoration="normal" x="978.7662491781925" y="43.819947652956444" text-anchor="middle" dominant-baseline="text-after-edge" fill-opacity="1">html5/css</text><path fill="rgb(168,168,255)" stroke="none" paint-order="stroke fill markers" d=" M 1037.815509399426 20.819947652956436 L 1046.333120708237 20.819947652956436 L 1046.333120708237 20.819947652956436 A 8 8 0 0 1 1054.333120708237 28.819947652956436 L 1054.333120708237 47.81994765295644 L 1054.333120708237 47.81994765295644 A 8 8 0 0 1 1046.333120708237 55.81994765295644 L 1029.297898090615 55.81994765295644 L 1029.297898090615 55.81994765295644 A 8 8 0 0 1 1021.297898090615 47.81994765295644 L 1021.297898090615 28.819947652956436 L 1021.297898090615 28.819947652956436 A 8 8 0 0 1 1029.297898090615 20.819947652956436 L 1037.815509399426 20.819947652956436 Z" fill-opacity="0"/><path fill="rgb(168,168,255)" stroke="none" paint-order="stroke fill markers" d="" fill-opacity="0"/><text fill="rgb(0,0,0)" stroke="none" font-family="Helvetica" font-size="11px" font-style="normal" font-weight="normal" text-decoration="normal" x="1037.815509399426" y="43.81994765295644" text-anchor="middle" dominant-baseline="text-after-edge" fill-opacity="1">...</text><g transform="scale(1,1) translate(491.8392616116605,-49.60690348317606)"/></g></svg>