<svg version="1.1" xmlns="http://www.w3.org/2000/svg" xmlns:xlink="http://www.w3.org/1999/xlink" width="1196" height="788"><defs/><g transform="translate(-935.0980624659082,-8.786193033647862) scale(2,2)"><path fill="rgb(223,223,255)" stroke="rgb(225,225,255)" paint-order="fill stroke markers" d=" M 732.0387372051678 10.71809651682393 L 732.0387372051678 79.56809651682393 Q 736.1716731021 83.39309651682393 814.6974551438133 83.39309651682393 L 980.0148910211043 83.39309651682393 Q 1058.5406730628176 83.39309651682393 1062.6736089597498 79.56809651682393 L 1062.6736089597498 10.71809651682393 Q 1058.5406730628176 6.893096516823931 980.0148910211043 6.893096516823931 L 814.6974551438133 6.893096516823931 Q 736.1716731021 6.893096516823931 732.0387372051678 10.71809651682393 Z" fill-opacity="0.5" stroke-opacity="1" stroke-miterlimit="10" stroke-width="3.25"/><path fill="rgb(223,223,255)" stroke="rgb(225,225,255)" paint-order="fill stroke markers" d="" fill-opacity="0.5" stroke-opacity="1" stroke-miterlimit="10" stroke-width="3.25"/><text fill="rgb(0,0,0)" stroke="none" font-family="Helvetica" font-size="14px" font-style="normal" font-weight="bold" text-decoration="normal" x="897.3561730824588" y="83.26809651682393" text-anchor="middle" dominant-baseline="text-after-edge" fill-opacity="1">Newt</text><path fill="rgb(255,219,237)" stroke="rgb(255,219,237)" paint-order="fill stroke markers" d=" M 476.33926161166056 188.93826209632834 L 476.33926161166056 384.6615688904053 Q 480.3654446350493 395.5350859345207 556.8629220794355 395.5350859345207 L 717.9102430149856 395.5350859345207 Q 794.4077204593718 395.5350859345207 798.4339034827606 384.6615688904053 L 798.4339034827606 188.93826209632834 Q 794.4077204593718 178.06474505221297 717.9102430149856 178.06474505221297 L 556.8629220794355 178.06474505221297 Q 480.3654446350493 178.06474505221297 476.33926161166056 188.93826209632834 Z" fill-opacity="0.5" stroke-opacity="1" stroke-miterlimit="10" stroke-width="3.25"/><path fill="rgb(255,219,237)" stroke="rgb(255,219,237)" paint-order="fill stroke markers" d="" fill-opacity="0.5" stroke-opacity="1" stroke-miterlimit="10" stroke-width="3.25"/><text fill="rgb(0,0,0)" stroke="none" font-family="Helvetica" font-size="14px" font-style="normal" font-weight="normal" text-decoration="normal" x="637.3865825472105" y="395.4100859345207" text-anchor="middle" dominant-baseline="text-after-edge" fill-opacity="1">Cytoscape.js extensions</text><path fill="none" stroke="rgb(64,0,0)" paint-order="fill stroke markers" d=" M 949.7922340789349 84.89309651682393 L 994.7448178869191 118.97012618706269" stroke-opacity="1" stroke-linejoin="round" stroke-miterlimit="10" stroke-width="2"/><path fill="rgb(64,0,0)" stroke="none" paint-order="stroke fill markers" d=" M 985.3440418755494 119.4857911791411 L 998.7293380308371 121.99065581325607 L 992.7020520449564 109.77950010855692 Z" fill-opacity="1"/><path fill="none" stroke="rgb(64,0,0)" paint-order="fill stroke markers" d=" M 897.1530861261645 84.8930965168239 L 896.2304383373971 265.48199435994934" stroke-opacity="1" stroke-linejoin="round" stroke-miterlimit="10" stroke-width="2"/><path fill="rgb(64,0,0)" stroke="none" paint-order="stroke fill markers" d=" M 890.1772007203765 258.2709740193951 L 896.2048931417039 270.48192910382124 L 902.3570417564483 258.3332021161037 Z" fill-opacity="1"/><path fill="none" stroke="rgb(64,0,0)" paint-order="fill stroke markers" d=" M 1007.1565795682045 157.99065581325607 L 914.6706964220364 266.67404848943227" stroke-opacity="1" stroke-linejoin="round" stroke-miterlimit="10" stroke-width="2"/><path fill="rgb(64,0,0)" stroke="none" paint-order="stroke fill markers" d=" M 914.6858796764403 257.2591523419017 L 911.4303190942302 270.48192910382124 L 923.9618768530919 265.1527115124376 Z" fill-opacity="1"/><path fill="none" stroke="rgb(64,0,0)" paint-order="fill stroke markers" d=" M 989.5468184737882 244.23666735031222 L 933.5590106616673 270.7494801197095" stroke-opacity="1" stroke-linejoin="round" stroke-miterlimit="10" stroke-width="2"/><path fill="rgb(64,0,0)" stroke="none" paint-order="stroke fill markers" d=" M 937.4417694794557 262.1724944042681 L 929.0400801886466 272.88940240334614 L 942.6546201623945 273.18060903654657 Z" fill-opacity="1"/><path fill="none" stroke="rgb(64,0,0)" paint-order="fill stroke markers" d=" M 1022.4739694254678 157.99065581325607 L 1022.4739694254679 205.64414064983708" stroke-opacity="1" stroke-linejoin="round" stroke-miterlimit="10" stroke-width="2"/><path fill="rgb(255,255,255)" stroke="rgb(255,255,255)" paint-order="fill stroke markers" d=" M 1016.3839694254679 198.46414064983708 L 1022.4739694254679 210.64414064983708 L 1028.5639694254678 198.46414064983708 Z" fill-opacity="1" stroke-opacity="1" stroke-miterlimit="10"/><path fill="none" stroke="rgb(64,0,0)" paint-order="fill stroke markers" d=" M 1016.3839694254679 198.46414064983708 L 1022.4739694254679 210.64414064983708 L 1028.5639694254678 198.46414064983708 Z" stroke-opacity="1" stroke-miterlimit="10"/><path fill="none" stroke="rgb(85,85,85)" paint-order="fill stroke markers" d=" M 488.5490812329541 75.89295159669726 L 534.110704176616 75.89295159669726" stroke-opacity="1" stroke-linejoin="round" stroke-miterlimit="10" stroke-width="1.25"/><path fill="rgb(255,255,255)" stroke="rgb(255,255,255)" paint-order="fill stroke markers" d=" M 537.888204176616 75.89295159669726 A 6.089999999999999 6.089999999999999 0 1 1 537.8882011316163 75.88686159771225 Z" fill-opacity="1" stroke-opacity="1" stroke-miterlimit="10"/><path fill="none" stroke="rgb(85,85,85)" paint-order="fill stroke markers" d=" M 537.888204176616 75.89295159669726 A 6.089999999999999 6.089999999999999 0 1 1 537.8882011316163 75.88686159771225 Z" stroke-opacity="1" stroke-miterlimit="10"/><path fill="none" stroke="rgb(64,0,0)" paint-order="fill stroke markers" d=" M 799.9339034827606 287.8566567555327 L 855.6130348953454 288.21863402631504" stroke-opacity="1" stroke-linejoin="round" stroke-miterlimit="10" stroke-width="2"/><path fill="rgb(255,255,255)" stroke="rgb(255,255,255)" paint-order="fill stroke markers" d=" M 861.2655441404536 288.2157898420501 A 6.089999999999999 6.089999999999999 0 1 1 861.2655410954538 288.20969984306515 Z" fill-opacity="1" stroke-opacity="1" stroke-miterlimit="10"/><path fill="none" stroke="rgb(64,0,0)" paint-order="fill stroke markers" d=" M 861.2655441404536 288.2157898420501 A 6.089999999999999 6.089999999999999 0 1 1 861.2655410954538 288.20969984306515 Z" stroke-opacity="1" stroke-miterlimit="10"/><path fill="none" stroke="rgb(85,85,85)" paint-order="fill stroke markers" d=" M 488.5490812329541 51.94225041415347 L 534.1108700138833 51.472843907080254" stroke-opacity="1" stroke-linejoin="round" stroke-miterlimit="10" stroke-width="1.25"/><path fill="rgb(255,255,255)" stroke="rgb(255,255,255)" paint-order="fill stroke markers" d=" M 525.1190902651067 57.655806138041385 L 537.235704176616 51.440649879392616 L 524.9936108227914 45.476452505374496 Z" fill-opacity="1" stroke-opacity="1" stroke-miterlimit="10"/><path fill="none" stroke="rgb(85,85,85)" paint-order="fill stroke markers" d=" M 525.1190902651067 57.655806138041385 L 537.235704176616 51.440649879392616 L 524.9936108227914 45.476452505374496 Z" stroke-opacity="1" stroke-miterlimit="10"/><path fill="none" stroke="rgb(85,85,85)" paint-order="fill stroke markers" d=" M 488.5490812329541 27.642371765132587 L 534.110704176616 27.642371765132587" stroke-opacity="1" stroke-linejoin="round" stroke-miterlimit="10" stroke-width="1.25"/><path fill="rgb(85,85,85)" stroke="none" paint-order="stroke fill markers" d=" M 525.055704176616 33.732371765132584 L 537.235704176616 27.642371765132587 L 525.055704176616 21.552371765132587 Z" fill-opacity="1"/><path fill="rgb(168,168,255)" stroke="rgb(168,168,255)" paint-order="fill stroke markers" d=" M 779.7887372051676 27.643096516823938 L 798.7887372051676 27.643096516823938 L 798.7887372051676 27.643096516823938 A 8 8 0 0 1 806.7887372051676 35.64309651682394 L 806.7887372051676 54.64309651682394 L 806.7887372051676 54.64309651682394 A 8 8 0 0 1 798.7887372051676 62.64309651682394 L 760.7887372051676 62.64309651682394 L 760.7887372051676 62.64309651682394 A 8 8 0 0 1 752.7887372051676 54.64309651682394 L 752.7887372051676 35.64309651682394 L 752.7887372051676 35.64309651682394 A 8 8 0 0 1 760.7887372051676 27.643096516823938 L 779.7887372051676 27.643096516823938 Z" fill-opacity="0.5" stroke-opacity="1" stroke-miterlimit="10" stroke-width="1.25"/><path fill="rgb(168,168,255)" stroke="rgb(168,168,255)" paint-order="fill stroke markers" d="" fill-opacity="0.5" stroke-opacity="1" stroke-miterlimit="10" stroke-width="1.25"/><text fill="rgb(0,0,0)" stroke="none" font-family="Helvetica" font-size="11px" font-style="normal" font-weight="normal" text-decoration="normal" x="779.7887372051676" y="50.64309651682394" text-anchor="middle" dominant-baseline="text-after-edge" fill-opacity="1">jQuery</text><path fill="rgb(168,168,255)" stroke="rgb(168,168,255)" paint-order="fill stroke markers" d=" M 850.9532680774423 27.643096516823938 L 877.9532680774423 27.643096516823938 L 877.9532680774423 27.643096516823938 A 8 8 0 0 1 885.9532680774423 35.64309651682394 L 885.9532680774423 54.64309651682394 L 885.9532680774423 54.64309651682394 A 8 8 0 0 1 877.9532680774423 62.64309651682394 L 823.9532680774423 62.64309651682394 L 823.9532680774423 62.64309651682394 A 8 8 0 0 1 815.9532680774423 54.64309651682394 L 815.9532680774423 35.64309651682394 L 815.9532680774423 35.64309651682394 A 8 8 0 0 1 823.9532680774423 27.643096516823938 L 850.9532680774423 27.643096516823938 Z" fill-opacity="0.5" stroke-opacity="1" stroke-miterlimit="10" stroke-width="1.25"/><path fill="rgb(168,168,255)" stroke="rgb(168,168,255)" paint-order="fill stroke markers" d="" fill-opacity="0.5" stroke-opacity="1" stroke-miterlimit="10" stroke-width="1.25"/><text fill="rgb(0,0,0)" stroke="none" font-family="Helvetica" font-size="11px" font-style="normal" font-weight="normal" text-decoration="normal" x="850.9532680774423" y="50.64309651682394" text-anchor="middle" dominant-baseline="text-after-edge" fill-opacity="1">Backbone.js</text><path fill="rgb(168,168,255)" stroke="rgb(168,168,255)" paint-order="fill stroke markers" d=" M 933.3241946385073 27.643096516823938 L 964.3241946385073 27.643096516823938 L 964.3241946385073 27.643096516823938 A 8 8 0 0 1 972.3241946385073 35.64309651682394 L 972.3241946385073 54.64309651682394 L 972.3241946385073 54.64309651682394 A 8 8 0 0 1 964.3241946385073 62.64309651682394 L 902.3241946385073 62.64309651682394 L 902.3241946385073 62.64309651682394 A 8 8 0 0 1 894.3241946385073 54.64309651682394 L 894.3241946385073 35.64309651682394 L 894.3241946385073 35.64309651682394 A 8 8 0 0 1 902.3241946385073 27.643096516823938 L 933.3241946385073 27.643096516823938 Z" fill-opacity="0.5" stroke-opacity="1" stroke-miterlimit="10" stroke-width="1.25"/><path fill="rgb(168,168,255)" stroke="rgb(168,168,255)" paint-order="fill stroke markers" d="" fill-opacity="0.5" stroke-opacity="1" stroke-miterlimit="10" stroke-width="1.25"/><text fill="rgb(0,0,0)" stroke="none" font-family="Helvetica" font-size="11px" font-style="normal" font-weight="normal" text-decoration="normal" x="933.3241946385073" y="50.64309651682394" text-anchor="middle" dominant-baseline="text-after-edge" fill-opacity="1">Underscore.js</text><path fill="rgb(168,168,255)" stroke="rgb(168,168,255)" paint-order="fill stroke markers" d=" M 1011.9236089597497 27.643096516823938 L 1033.9236089597498 27.643096516823938 L 1033.9236089597498 27.643096516823938 A 8 8 0 0 1 1041.9236089597498 35.64309651682394 L 1041.9236089597498 54.64309651682394 L 1041.9236089597498 54.64309651682394 A 8 8 0 0 1 1033.9236089597498 62.64309651682394 L 989.9236089597497 62.64309651682394 L 989.9236089597497 62.64309651682394 A 8 8 0 0 1 981.9236089597497 54.64309651682394 L 981.9236089597497 35.64309651682394 L 981.9236089597497 35.64309651682394 A 8 8 0 0 1 989.9236089597497 27.643096516823938 L 1011.9236089597497 27.643096516823938 Z" fill-opacity="0.5" stroke-opacity="1" stroke-miterlimit="10" stroke-width="1.25"/><path fill="rgb(168,168,255)" stroke="rgb(168,168,255)" paint-order="fill stroke markers" d="" fill-opacity="0.5" stroke-opacity="1" stroke-miterlimit="10" stroke-width="1.25"/><text fill="rgb(0,0,0)" stroke="none" font-family="Helvetica" font-size="11px" font-style="normal" font-weight="normal" text-decoration="normal" x="1011.9236089597497" y="50.64309651682394" text-anchor="middle" dominant-baseline="text-after-edge" fill-opacity="1">html5/css</text><path fill="rgb(168,168,255)" stroke="rgb(168,168,255)" paint-order="fill stroke markers" d=" M 1022.4739694254678 122.49065581325607 L 1049.4739694254677 122.49065581325607 L 1049.4739694254677 122.49065581325607 A 8 8 0 0 1 1057.4739694254677 130.49065581325607 L 1057.4739694254677 149.49065581325607 L 1057.4739694254677 149.49065581325607 A 8 8 0 0 1 1049.4739694254677 157.49065581325607 L 995.4739694254678 157.49065581325607 L 995.4739694254678 157.49065581325607 A 8 8 0 0 1 987.4739694254678 149.49065581325607 L 987.4739694254678 130.49065581325607 L 987.4739694254678 130.49065581325607 A 8 8 0 0 1 995.4739694254678 122.49065581325607 L 1022.4739694254678 122.49065581325607 Z" fill-opacity="0.5" stroke-opacity="1" stroke-miterlimit="10" stroke-width="1.25"/><path fill="rgb(168,168,255)" stroke="rgb(168,168,255)" paint-order="fill stroke markers" d="" fill-opacity="0.5" stroke-opacity="1" stroke-miterlimit="10" stroke-width="1.25"/><text fill="rgb(0,0,0)" stroke="none" font-family="Helvetica" font-size="11px" font-style="normal" font-weight="normal" text-decoration="normal" x="1022.4739694254678" y="145.49065581325607" text-anchor="middle" dominant-baseline="text-after-edge" fill-opacity="1">ChiSE.js</text><path fill="rgb(255,130,192)" stroke="rgb(255,134,194)" paint-order="fill stroke markers" d=" M 896.1129292369669 270.98192910382124 L 923.1129292369669 270.98192910382124 L 923.1129292369669 270.98192910382124 A 8 8 0 0 1 931.1129292369669 278.98192910382124 L 931.1129292369669 297.98192910382124 L 931.1129292369669 297.98192910382124 A 8 8 0 0 1 923.1129292369669 305.98192910382124 L 869.1129292369669 305.98192910382124 L 869.1129292369669 305.98192910382124 A 8 8 0 0 1 861.1129292369669 297.98192910382124 L 861.1129292369669 278.98192910382124 L 861.1129292369669 278.98192910382124 A 8 8 0 0 1 869.1129292369669 270.98192910382124 L 896.1129292369669 270.98192910382124 Z" fill-opacity="0.5" stroke-opacity="1" stroke-miterlimit="10" stroke-width="1.25"/><path fill="rgb(255,130,192)" stroke="rgb(255,134,194)" paint-order="fill stroke markers" d="" fill-opacity="0.5" stroke-opacity="1" stroke-miterlimit="10" stroke-width="1.25"/><text fill="rgb(0,0,0)" stroke="none" font-family="Helvetica" font-size="11px" font-style="normal" font-weight="normal" text-decoration="normal" x="896.1129292369669" y="293.98192910382124" text-anchor="middle" dominant-baseline="text-after-edge" fill-opacity="1">Cytoscape.js</text><path fill="rgb(124,190,190)" stroke="rgb(95,175,175)" paint-order="fill stroke markers" d=" M 1022.4739694254679 211.1441406498371 L 1049.4739694254679 211.1441406498371 L 1049.4739694254679 211.1441406498371 A 8 8 0 0 1 1057.4739694254679 219.1441406498371 L 1057.4739694254679 238.1441406498371 L 1057.4739694254679 238.1441406498371 A 8 8 0 0 1 1049.4739694254679 246.1441406498371 L 995.4739694254679 246.1441406498371 L 995.4739694254679 246.1441406498371 A 8 8 0 0 1 987.4739694254679 238.1441406498371 L 987.4739694254679 219.1441406498371 L 987.4739694254679 219.1441406498371 A 8 8 0 0 1 995.4739694254679 211.1441406498371 L 1022.4739694254679 211.1441406498371 Z" fill-opacity="0.5" stroke-opacity="1" stroke-miterlimit="10" stroke-width="1.25"/><path fill="rgb(124,190,190)" stroke="rgb(95,175,175)" paint-order="fill stroke markers" d="" fill-opacity="0.5" stroke-opacity="1" stroke-miterlimit="10" stroke-width="1.25"/><text fill="rgb(0,0,0)" stroke="none" font-family="Helvetica" font-size="11px" font-style="normal" font-weight="normal" text-decoration="normal" x="1022.4739694254679" y="234.1441406498371" text-anchor="middle" dominant-baseline="text-after-edge" fill-opacity="1">SBGNViz.js</text><path fill="rgb(255,130,192)" stroke="rgb(255,130,192)" paint-order="fill stroke markers" d=" M 525.0892616116608 198.81474505221297 L 545.0892616116608 198.81474505221297 L 545.0892616116608 198.81474505221297 A 8 8 0 0 1 553.0892616116608 206.81474505221297 L 553.0892616116608 225.81474505221297 L 553.0892616116608 225.81474505221297 A 8 8 0 0 1 545.0892616116608 233.81474505221297 L 505.08926161166085 233.81474505221297 L 505.08926161166085 233.81474505221297 A 8 8 0 0 1 497.08926161166085 225.81474505221297 L 497.08926161166085 206.81474505221297 L 497.08926161166085 206.81474505221297 A 8 8 0 0 1 505.08926161166085 198.81474505221297 L 525.0892616116608 198.81474505221297 Z" fill-opacity="0.5" stroke-opacity="1" stroke-miterlimit="10" stroke-width="1.25"/><path fill="rgb(255,130,192)" stroke="rgb(255,130,192)" paint-order="fill stroke markers" d="" fill-opacity="0.5" stroke-opacity="1" stroke-miterlimit="10" stroke-width="1.25"/><text fill="rgb(0,0,0)" stroke="none" font-family="Helvetica" font-size="11px" font-style="normal" font-weight="normal" text-decoration="normal" x="525.0892616116608" y="221.81474505221297" text-anchor="middle" dominant-baseline="text-after-edge" fill-opacity="1">undo-redo</text><path fill="rgb(255,130,192)" stroke="rgb(255,130,192)" paint-order="fill stroke markers" d=" M 595.9194830193396 198.81474505221297 L 619.9194830193396 198.81474505221297 L 619.9194830193396 198.81474505221297 A 8 8 0 0 1 627.9194830193396 206.81474505221297 L 627.9194830193396 225.81474505221297 L 627.9194830193396 225.81474505221297 A 8 8 0 0 1 619.9194830193396 233.81474505221297 L 571.9194830193396 233.81474505221297 L 571.9194830193396 233.81474505221297 A 8 8 0 0 1 563.9194830193396 225.81474505221297 L 563.9194830193396 206.81474505221297 L 563.9194830193396 206.81474505221297 A 8 8 0 0 1 571.9194830193396 198.81474505221297 L 595.9194830193396 198.81474505221297 Z" fill-opacity="0.5" stroke-opacity="1" stroke-miterlimit="10" stroke-width="1.25"/><path fill="rgb(255,130,192)" stroke="rgb(255,130,192)" paint-order="fill stroke markers" d="" fill-opacity="0.5" stroke-opacity="1" stroke-miterlimit="10" stroke-width="1.25"/><text fill="rgb(0,0,0)" stroke="none" font-family="Helvetica" font-size="11px" font-style="normal" font-weight="normal" text-decoration="normal" x="595.9194830193396" y="221.81474505221297" text-anchor="middle" dominant-baseline="text-after-edge" fill-opacity="1">cose-bilkent</text><path fill="rgb(255,130,192)" stroke="rgb(255,130,192)" paint-order="fill stroke markers" d=" M 692.3886642385173 244.44613781740668 L 704.3886642385173 244.44613781740668 L 704.3886642385173 244.44613781740668 A 8 8 0 0 1 712.3886642385173 252.44613781740668 L 712.3886642385173 271.4461378174067 L 712.3886642385173 271.4461378174067 A 8 8 0 0 1 704.3886642385173 279.4461378174067 L 680.3886642385173 279.4461378174067 L 680.3886642385173 279.4461378174067 A 8 8 0 0 1 672.3886642385173 271.4461378174067 L 672.3886642385173 252.44613781740668 L 672.3886642385173 252.44613781740668 A 8 8 0 0 1 680.3886642385173 244.44613781740668 L 692.3886642385173 244.44613781740668 Z" fill-opacity="0.5" stroke-opacity="1" stroke-miterlimit="10" stroke-width="1.25"/><path fill="rgb(255,130,192)" stroke="rgb(255,130,192)" paint-order="fill stroke markers" d="" fill-opacity="0.5" stroke-opacity="1" stroke-miterlimit="10" stroke-width="1.25"/><text fill="rgb(0,0,0)" stroke="none" font-family="Helvetica" font-size="11px" font-style="normal" font-weight="normal" text-decoration="normal" x="692.3886642385173" y="267.4461378174067" text-anchor="middle" dominant-baseline="text-after-edge" fill-opacity="1">qtip</text><path fill="rgb(255,130,192)" stroke="rgb(255,130,192)" paint-order="fill stroke markers" d=" M 532.0892616116605 244.44613781740668 L 559.0892616116605 244.44613781740668 L 559.0892616116605 244.44613781740668 A 8 8 0 0 1 567.0892616116605 252.44613781740668 L 567.0892616116605 271.4461378174067 L 567.0892616116605 271.4461378174067 A 8 8 0 0 1 559.0892616116605 279.4461378174067 L 505.0892616116605 279.4461378174067 L 505.0892616116605 279.4461378174067 A 8 8 0 0 1 497.0892616116605 271.4461378174067 L 497.0892616116605 252.44613781740668 L 497.0892616116605 252.44613781740668 A 8 8 0 0 1 505.0892616116605 244.44613781740668 L 532.0892616116605 244.44613781740668 Z" fill-opacity="0.5" stroke-opacity="1" stroke-miterlimit="10" stroke-width="1.25"/><path fill="rgb(255,130,192)" stroke="rgb(255,130,192)" paint-order="fill stroke markers" d="" fill-opacity="0.5" stroke-opacity="1" stroke-miterlimit="10" stroke-width="1.25"/><text fill="rgb(0,0,0)" stroke="none" font-family="Helvetica" font-size="11px" font-style="normal" font-weight="normal" text-decoration="normal" x="532.0892616116605" y="267.4461378174067" text-anchor="middle" dominant-baseline="text-after-edge" fill-opacity="1">view-utilities</text><path fill="rgb(255,130,192)" stroke="rgb(255,130,192)" paint-order="fill stroke markers" d=" M 619.9194830193396 244.44613781740668 L 653.9194830193396 244.44613781740668 L 653.9194830193396 244.44613781740668 A 8 8 0 0 1 661.9194830193396 252.44613781740668 L 661.9194830193396 271.4461378174067 L 661.9194830193396 271.4461378174067 A 8 8 0 0 1 653.9194830193396 279.4461378174067 L 585.9194830193396 279.4461378174067 L 585.9194830193396 279.4461378174067 A 8 8 0 0 1 577.9194830193396 271.4461378174067 L 577.9194830193396 252.44613781740668 L 577.9194830193396 252.44613781740668 A 8 8 0 0 1 585.9194830193396 244.44613781740668 L 619.9194830193396 244.44613781740668 Z" fill-opacity="0.5" stroke-opacity="1" stroke-miterlimit="10" stroke-width="1.25"/><path fill="rgb(255,130,192)" stroke="rgb(255,130,192)" paint-order="fill stroke markers" d="" fill-opacity="0.5" stroke-opacity="1" stroke-miterlimit="10" stroke-width="1.25"/><text fill="rgb(0,0,0)" stroke="none" font-family="Helvetica" font-size="11px" font-style="normal" font-weight="normal" text-decoration="normal" x="619.9194830193396" y="267.4461378174067" text-anchor="middle" dominant-baseline="text-after-edge" fill-opacity="1">expand-collapse</text><path fill="rgb(255,130,192)" stroke="rgb(255,130,192)" paint-order="fill stroke markers" d=" M 689.3886642385175 198.81474505221297 L 730.3886642385175 198.81474505221297 L 730.3886642385175 198.81474505221297 A 8 8 0 0 1 738.3886642385175 206.81474505221297 L 738.3886642385175 225.81474505221297 L 738.3886642385175 225.81474505221297 A 8 8 0 0 1 730.3886642385175 233.81474505221297 L 648.3886642385175 233.81474505221297 L 648.3886642385175 233.81474505221297 A 8 8 0 0 1 640.3886642385175 225.81474505221297 L 640.3886642385175 206.81474505221297 L 640.3886642385175 206.81474505221297 A 8 8 0 0 1 648.3886642385175 198.81474505221297 L 689.3886642385175 198.81474505221297 Z" fill-opacity="0.5" stroke-opacity="1" stroke-miterlimit="10" stroke-width="1.25"/><path fill="rgb(255,130,192)" stroke="rgb(255,130,192)" paint-order="fill stroke markers" d="" fill-opacity="0.5" stroke-opacity="1" stroke-miterlimit="10" stroke-width="1.25"/><text fill="rgb(0,0,0)" stroke="none" font-family="Helvetica" font-size="11px" font-style="normal" font-weight="normal" text-decoration="normal" x="689.3886642385175" y="221.81474505221297" text-anchor="middle" dominant-baseline="text-after-edge" fill-opacity="1">edge-bende-editing</text><path fill="rgb(255,130,192)" stroke="rgb(255,130,192)" paint-order="fill stroke markers" d=" M 535.0892616116606 293.92520540914927 L 565.0892616116606 293.92520540914927 L 565.0892616116606 293.92520540914927 A 8 8 0 0 1 573.0892616116606 301.92520540914927 L 573.0892616116606 320.92520540914927 L 573.0892616116606 320.92520540914927 A 8 8 0 0 1 565.0892616116606 328.92520540914927 L 505.0892616116606 328.92520540914927 L 505.0892616116606 328.92520540914927 A 8 8 0 0 1 497.0892616116606 320.92520540914927 L 497.0892616116606 301.92520540914927 L 497.0892616116606 301.92520540914927 A 8 8 0 0 1 505.0892616116606 293.92520540914927 L 535.0892616116606 293.92520540914927 Z" fill-opacity="0.5" stroke-opacity="1" stroke-miterlimit="10" stroke-width="1.25"/><path fill="rgb(255,130,192)" stroke="rgb(255,130,192)" paint-order="fill stroke markers" d="" fill-opacity="0.5" stroke-opacity="1" stroke-miterlimit="10" stroke-width="1.25"/><text fill="rgb(0,0,0)" stroke="none" font-family="Helvetica" font-size="11px" font-style="normal" font-weight="normal" text-decoration="normal" x="535.0892616116606" y="316.92520540914927" text-anchor="middle" dominant-baseline="text-after-edge" fill-opacity="1">context-menus</text><path fill="rgb(255,130,192)" stroke="rgb(255,130,192)" paint-order="fill stroke markers" d=" M 614.9194830193395 293.92520540914927 L 636.9194830193395 293.92520540914927 L 636.9194830193395 293.92520540914927 A 8 8 0 0 1 644.9194830193395 301.92520540914927 L 644.9194830193395 320.92520540914927 L 644.9194830193395 320.92520540914927 A 8 8 0 0 1 636.9194830193395 328.92520540914927 L 592.9194830193395 328.92520540914927 L 592.9194830193395 328.92520540914927 A 8 8 0 0 1 584.9194830193395 320.92520540914927 L 584.9194830193395 301.92520540914927 L 584.9194830193395 301.92520540914927 A 8 8 0 0 1 592.9194830193395 293.92520540914927 L 614.9194830193395 293.92520540914927 Z" fill-opacity="0.5" stroke-opacity="1" stroke-miterlimit="10" stroke-width="1.25"/><path fill="rgb(255,130,192)" stroke="rgb(255,130,192)" paint-order="fill stroke markers" d="" fill-opacity="0.5" stroke-opacity="1" stroke-miterlimit="10" stroke-width="1.25"/><text fill="rgb(0,0,0)" stroke="none" font-family="Helvetica" font-size="11px" font-style="normal" font-weight="normal" text-decoration="normal" x="614.9194830193395" y="316.92520540914927" text-anchor="middle" dominant-baseline="text-after-edge" fill-opacity="1">panzoom</text><path fill="rgb(255,130,192)" stroke="rgb(255,130,192)" paint-order="fill stroke markers" d=" M 690.3886642385172 293.92520540914927 L 717.3886642385172 293.92520540914927 L 717.3886642385172 293.92520540914927 A 8 8 0 0 1 725.3886642385172 301.92520540914927 L 725.3886642385172 320.92520540914927 L 725.3886642385172 320.92520540914927 A 8 8 0 0 1 717.3886642385172 328.92520540914927 L 663.3886642385172 328.92520540914927 L 663.3886642385172 328.92520540914927 A 8 8 0 0 1 655.3886642385172 320.92520540914927 L 655.3886642385172 301.92520540914927 L 655.3886642385172 301.92520540914927 A 8 8 0 0 1 663.3886642385172 293.92520540914927 L 690.3886642385172 293.92520540914927 Z" fill-opacity="0.5" stroke-opacity="1" stroke-miterlimit="10" stroke-width="1.25"/><path fill="rgb(255,130,192)" stroke="rgb(255,130,192)" paint-order="fill stroke markers" d="" fill-opacity="0.5" stroke-opacity="1" stroke-miterlimit="10" stroke-width="1.25"/><text fill="rgb(0,0,0)" stroke="none" font-family="Helvetica" font-size="11px" font-style="normal" font-weight="normal" text-decoration="normal" x="690.3886642385172" y="316.92520540914927" text-anchor="middle" dominant-baseline="text-after-edge" fill-opacity="1">edgehandles</text><path fill="rgb(255,130,192)" stroke="rgb(255,130,192)" paint-order="fill stroke markers" d=" M 532.0892616116605 339.7850859345207 L 559.0892616116605 339.7850859345207 L 559.0892616116605 339.7850859345207 A 8 8 0 0 1 567.0892616116605 347.7850859345207 L 567.0892616116605 366.7850859345207 L 567.0892616116605 366.7850859345207 A 8 8 0 0 1 559.0892616116605 374.7850859345207 L 505.0892616116605 374.7850859345207 L 505.0892616116605 374.7850859345207 A 8 8 0 0 1 497.0892616116605 366.7850859345207 L 497.0892616116605 347.7850859345207 L 497.0892616116605 347.7850859345207 A 8 8 0 0 1 505.0892616116605 339.7850859345207 L 532.0892616116605 339.7850859345207 Z" fill-opacity="0.5" stroke-opacity="1" stroke-miterlimit="10" stroke-width="1.25"/><path fill="rgb(255,130,192)" stroke="rgb(255,130,192)" paint-order="fill stroke markers" d="" fill-opacity="0.5" stroke-opacity="1" stroke-miterlimit="10" stroke-width="1.25"/><text fill="rgb(0,0,0)" stroke="none" font-family="Helvetica" font-size="11px" font-style="normal" font-weight="normal" text-decoration="normal" x="532.0892616116605" y="362.7850859345207" text-anchor="middle" dominant-baseline="text-after-edge" fill-opacity="1">node-resize</text><path fill="rgb(255,130,192)" stroke="rgb(255,130,192)" paint-order="fill stroke markers" d=" M 609.9194830193394 339.7850859345207 L 632.9194830193394 339.7850859345207 L 632.9194830193394 339.7850859345207 A 8 8 0 0 1 640.9194830193394 347.7850859345207 L 640.9194830193394 366.7850859345207 L 640.9194830193394 366.7850859345207 A 8 8 0 0 1 632.9194830193394 374.7850859345207 L 586.9194830193394 374.7850859345207 L 586.9194830193394 374.7850859345207 A 8 8 0 0 1 578.9194830193394 366.7850859345207 L 578.9194830193394 347.7850859345207 L 578.9194830193394 347.7850859345207 A 8 8 0 0 1 586.9194830193394 339.7850859345207 L 609.9194830193394 339.7850859345207 Z" fill-opacity="0.5" stroke-opacity="1" stroke-miterlimit="10" stroke-width="1.25"/><path fill="rgb(255,130,192)" stroke="rgb(255,130,192)" paint-order="fill stroke markers" d="" fill-opacity="0.5" stroke-opacity="1" stroke-miterlimit="10" stroke-width="1.25"/><text fill="rgb(0,0,0)" stroke="none" font-family="Helvetica" font-size="11px" font-style="normal" font-weight="normal" text-decoration="normal" x="609.9194830193394" y="362.7850859345207" text-anchor="middle" dominant-baseline="text-after-edge" fill-opacity="1">grid-guide</text><path fill="rgb(255,130,192)" stroke="rgb(255,130,192)" paint-order="fill stroke markers" d=" M 693.3886642385175 339.7850859345207 L 727.3886642385175 339.7850859345207 L 727.3886642385175 339.7850859345207 A 8 8 0 0 1 735.3886642385175 347.7850859345207 L 735.3886642385175 366.7850859345207 L 735.3886642385175 366.7850859345207 A 8 8 0 0 1 727.3886642385175 374.7850859345207 L 659.3886642385175 374.7850859345207 L 659.3886642385175 374.7850859345207 A 8 8 0 0 1 651.3886642385175 366.7850859345207 L 651.3886642385175 347.7850859345207 L 651.3886642385175 347.7850859345207 A 8 8 0 0 1 659.3886642385175 339.7850859345207 L 693.3886642385175 339.7850859345207 Z" fill-opacity="0.5" stroke-opacity="1" stroke-miterlimit="10" stroke-width="1.25"/><path fill="rgb(255,130,192)" stroke="rgb(255,130,192)" paint-order="fill stroke markers" d="" fill-opacity="0.5" stroke-opacity="1" stroke-miterlimit="10" stroke-width="1.25"/><text fill="rgb(0,0,0)" stroke="none" font-family="Helvetica" font-size="11px" font-style="normal" font-weight="normal" text-decoration="normal" x="693.3886642385175" y="362.7850859345207" text-anchor="middle" dominant-baseline="text-after-edge" fill-opacity="1">autopan-on-drag</text><path fill="rgb(255,130,192)" stroke="rgb(255,130,192)" paint-order="fill stroke markers" d=" M 749.6839034827605 244.44613781740668 L 769.6839034827605 244.44613781740668 L 769.6839034827605 244.44613781740668 A 8 8 0 0 1 777.6839034827605 252.44613781740668 L 777.6839034827605 271.4461378174067 L 777.6839034827605 271.4461378174067 A 8 8 0 0 1 769.6839034827605 279.4461378174067 L 729.6839034827605 279.4461378174067 L 729.6839034827605 279.4461378174067 A 8 8 0 0 1 721.6839034827605 271.4461378174067 L 721.6839034827605 252.44613781740668 L 721.6839034827605 252.44613781740668 A 8 8 0 0 1 729.6839034827605 244.44613781740668 L 749.6839034827605 244.44613781740668 Z" fill-opacity="0.5" stroke-opacity="1" stroke-miterlimit="10" stroke-width="1.25"/><path fill="rgb(255,130,192)" stroke="rgb(255,130,192)" paint-order="fill stroke markers" d="" fill-opacity="0.5" stroke-opacity="1" stroke-miterlimit="10" stroke-width="1.25"/><text fill="rgb(0,0,0)" stroke="none" font-family="Helvetica" font-size="11px" font-style="normal" font-weight="normal" text-decoration="normal" x="749.6839034827605" y="267.4461378174067" text-anchor="middle" dominant-baseline="text-after-edge" fill-opacity="1">clipboard</text><path fill="rgb(255,255,255)" stroke="rgb(255,255,255)" paint-order="fill stroke markers" d=" M 577.735704176616 45.751880897788645 L 615.0999480567048 45.751880897788645 L 615.0999480567048 45.751880897788645 A 2.6357561199112562 2.6357561199112562 0 0 1 617.735704176616 48.3876370176999 L 617.735704176616 53.659149257522415 L 617.735704176616 53.659149257522415 A 2.6357561199112562 2.6357561199112562 0 0 1 615.0999480567048 56.29490537743367 L 540.3714602965272 56.29490537743367 L 540.3714602965272 56.29490537743367 A 2.6357561199112562 2.6357561199112562 0 0 1 537.735704176616 53.659149257522415 L 537.735704176616 48.3876370176999 L 537.735704176616 48.3876370176999 A 2.6357561199112562 2.6357561199112562 0 0 1 540.3714602965272 45.751880897788645 L 577.735704176616 45.751880897788645 Z" fill-opacity="0.5" stroke-opacity="1" stroke-miterlimit="10" stroke-width="1.25"/><path fill="rgb(255,255,255)" stroke="rgb(255,255,255)" paint-order="fill stroke markers" d="" fill-opacity="0.5" stroke-opacity="1" stroke-miterlimit="10" stroke-width="1.25"/><text fill="rgb(0,0,0)" stroke="none" font-family="Helvetica" font-size="11px" font-style="normal" font-weight="normal" text-decoration="normal" x="577.735704176616" y="56.52339313761116" text-anchor="middle" dominant-baseline="text-after-edge" fill-opacity="1">extends</text><path fill="rgb(255,255,255)" stroke="rgb(255,255,255)" paint-order="fill stroke markers" d=" M 577.735704176616 22.370859525310074 L 615.0999480567048 22.370859525310074 L 615.0999480567048 22.370859525310074 A 2.6357561199112562 2.6357561199112562 0 0 1 617.735704176616 25.00661564522133 L 617.735704176616 30.278127885043844 L 617.735704176616 30.278127885043844 A 2.6357561199112562 2.6357561199112562 0 0 1 615.0999480567048 32.9138840049551 L 540.3714602965272 32.9138840049551 L 540.3714602965272 32.9138840049551 A 2.6357561199112562 2.6357561199112562 0 0 1 537.735704176616 30.278127885043844 L 537.735704176616 25.00661564522133 L 537.735704176616 25.00661564522133 A 2.6357561199112562 2.6357561199112562 0 0 1 540.3714602965272 22.370859525310074 L 577.735704176616 22.370859525310074 Z" fill-opacity="0.5" stroke-opacity="1" stroke-miterlimit="10" stroke-width="1.25"/><path fill="rgb(255,255,255)" stroke="rgb(255,255,255)" paint-order="fill stroke markers" d="" fill-opacity="0.5" stroke-opacity="1" stroke-miterlimit="10" stroke-width="1.25"/><text fill="rgb(0,0,0)" stroke="none" font-family="Helvetica" font-size="11px" font-style="normal" font-weight="normal" text-decoration="normal" x="577.735704176616" y="33.14237176513259" text-anchor="middle" dominant-baseline="text-after-edge" fill-opacity="1">accesses API</text><path fill="rgb(241,241,241)" stroke="rgb(241,241,241)" paint-order="fill stroke markers" d=" M 478.5490812329541 17.642371765132587 L 483.5490812329541 17.642371765132587 L 483.5490812329541 17.642371765132587 A 5 5 0 0 1 488.5490812329541 22.642371765132587 L 488.5490812329541 32.64237176513259 L 488.5490812329541 32.64237176513259 A 5 5 0 0 1 483.5490812329541 37.64237176513259 L 473.5490812329541 37.64237176513259 L 473.5490812329541 37.64237176513259 A 5 5 0 0 1 468.5490812329541 32.64237176513259 L 468.5490812329541 22.642371765132587 L 468.5490812329541 22.642371765132587 A 5 5 0 0 1 473.5490812329541 17.642371765132587 L 478.5490812329541 17.642371765132587 Z" fill-opacity="0.06" stroke-opacity="1" stroke-miterlimit="10" stroke-width="0.0001"/><path fill="rgb(241,241,241)" stroke="rgb(241,241,241)" paint-order="fill stroke markers" d="" fill-opacity="0.06" stroke-opacity="1" stroke-miterlimit="10" stroke-width="0.0001"/><path fill="rgb(241,241,241)" stroke="rgb(241,241,241)" paint-order="fill stroke markers" d=" M 478.5490812329541 42.045276770148895 L 483.5490812329541 42.045276770148895 L 483.5490812329541 42.045276770148895 A 5 5 0 0 1 488.5490812329541 47.045276770148895 L 488.5490812329541 57.045276770148895 L 488.5490812329541 57.045276770148895 A 5 5 0 0 1 483.5490812329541 62.045276770148895 L 473.5490812329541 62.045276770148895 L 473.5490812329541 62.045276770148895 A 5 5 0 0 1 468.5490812329541 57.045276770148895 L 468.5490812329541 47.045276770148895 L 468.5490812329541 47.045276770148895 A 5 5 0 0 1 473.5490812329541 42.045276770148895 L 478.5490812329541 42.045276770148895 Z" fill-opacity="0.06" stroke-opacity="1" stroke-miterlimit="10" stroke-width="0.0001"/><path fill="rgb(241,241,241)" stroke="rgb(241,241,241)" paint-order="fill stroke markers" d="" fill-opacity="0.06" stroke-opacity="1" stroke-miterlimit="10" stroke-width="0.0001"/><path fill="rgb(255,255,255)" stroke="rgb(255,255,255)" paint-order="fill stroke markers" d=" M 577.735704176616 70.62143935687475 L 615.0999480567048 70.62143935687475 L 615.0999480567048 70.62143935687475 A 2.6357561199112562 2.6357561199112562 0 0 1 617.735704176616 73.257195476786 L 617.735704176616 78.52870771660852 L 617.735704176616 78.52870771660852 A 2.6357561199112562 2.6357561199112562 0 0 1 615.0999480567048 81.16446383651977 L 540.3714602965272 81.16446383651977 L 540.3714602965272 81.16446383651977 A 2.6357561199112562 2.6357561199112562 0 0 1 537.735704176616 78.52870771660852 L 537.735704176616 73.257195476786 L 537.735704176616 73.257195476786 A 2.6357561199112562 2.6357561199112562 0 0 1 540.3714602965272 70.62143935687475 L 577.735704176616 70.62143935687475 Z" fill-opacity="0.5" stroke-opacity="1" stroke-miterlimit="10" stroke-width="1.25"/><path fill="rgb(255,255,255)" stroke="rgb(255,255,255)" paint-order="fill stroke markers" d="" fill-opacity="0.5" stroke-opacity="1" stroke-miterlimit="10" stroke-width="1.25"/><text fill="rgb(0,0,0)" stroke="none" font-family="Helvetica" font-size="11px" font-style="normal" font-weight="normal" text-decoration="normal" x="577.735704176616" y="81.39295159669726" text-anchor="middle" dominant-baseline="text-after-edge" fill-opacity="1">registers</text><path fill="rgb(255,255,255)" stroke="rgb(255,255,255)" paint-order="fill stroke markers" d=" M 478.5490812329541 65.89295159669726 L 483.5490812329541 65.89295159669726 L 483.5490812329541 65.89295159669726 A 5 5 0 0 1 488.5490812329541 70.89295159669726 L 488.5490812329541 80.89295159669726 L 488.5490812329541 80.89295159669726 A 5 5 0 0 1 483.5490812329541 85.89295159669726 L 473.5490812329541 85.89295159669726 L 473.5490812329541 85.89295159669726 A 5 5 0 0 1 468.5490812329541 80.89295159669726 L 468.5490812329541 70.89295159669726 L 468.5490812329541 70.89295159669726 A 5 5 0 0 1 473.5490812329541 65.89295159669726 L 478.5490812329541 65.89295159669726 Z" fill-opacity="0.94" stroke-opacity="1" stroke-miterlimit="10" stroke-width="0.0001"/><path fill="rgb(255,255,255)" stroke="rgb(255,255,255)" paint-order="fill stroke markers" d="" fill-opacity="0.94" stroke-opacity="1" stroke-miterlimit="10" stroke-width="0.0001"/><g transform="scale(0.5,0.5) translate(935.0980624659082,8.786193033647862)"/></g></svg>