<svg version="1.1" xmlns="http://www.w3.org/2000/svg" xmlns:xlink="http://www.w3.org/1999/xlink" width="365" height="439"><defs/><g transform="translate(-42.375,-48.375) scale(1,1)"><path fill="none" stroke="rgb(85,85,85)" paint-order="fill stroke markers" d=" M 340 110.5 L 340 231.25000000000003" stroke-opacity="1" stroke-linejoin="round" stroke-miterlimit="10" stroke-width="1.25"/><path fill="rgb(255,255,255)" stroke="rgb(255,255,255)" paint-order="fill stroke markers" d=" M 334.5625 223.50000000000003 L 340 234.37500000000003 L 345.4375 223.50000000000003 Z" fill-opacity="1" stroke-opacity="1" stroke-miterlimit="10"/><path fill="none" stroke="rgb(85,85,85)" paint-order="fill stroke markers" d=" M 334.5625 223.50000000000003 L 340 234.37500000000003 L 345.4375 223.50000000000003 Z" stroke-opacity="1" stroke-miterlimit="10"/><path fill="none" stroke="rgb(85,85,85)" paint-order="fill stroke markers" d=" M 100 232.625 L 100 246.375" stroke-opacity="1" stroke-linejoin="round" stroke-miterlimit="10" stroke-width="1.25"/><path fill="rgb(255,255,255)" stroke="rgb(255,255,255)" paint-order="fill stroke markers" d=" M 94.5625 238.625 L 100 249.5 L 105.4375 238.625 Z" fill-opacity="1" stroke-opacity="1" stroke-miterlimit="10"/><path fill="none" stroke="rgb(85,85,85)" paint-order="fill stroke markers" d=" M 94.5625 238.625 L 100 249.5 L 105.4375 238.625 Z" stroke-opacity="1" stroke-miterlimit="10"/><path fill="none" stroke="rgb(85,85,85)" paint-order="fill stroke markers" d=" M 154.49999999999997 455 L 282.375 455" stroke-opacity="1" stroke-linejoin="round" stroke-miterlimit="10" stroke-width="1.25"/><path fill="none" stroke="none"/><path fill="rgb(255,255,255)" stroke="rgb(255,255,255)" paint-order="fill stroke markers" d=" M 274.625 460.4375 L 285.5 455 L 274.625 449.5625 L 274.625 460.4375 M 270.71478875318024 447.8907262531803 L 270.71478875318024 447.8907262531803 L 270.71478875318024 462.1092737468197 Z Z" fill-opacity="1" stroke-opacity="1" stroke-miterlimit="10" stroke-width="1.25"/><path fill="none" stroke="none"/><path fill="none" stroke="rgb(85,85,85)" paint-order="fill stroke markers" d=" M 274.625 460.4375 L 285.5 455 L 274.625 449.5625 L 274.625 460.4375 M 270.71478875318024 447.8907262531803 L 270.71478875318024 447.8907262531803 L 270.71478875318024 462.1092737468197 Z Z" stroke-opacity="1" stroke-miterlimit="10" stroke-width="1.25"/><path fill="none" stroke="rgb(85,85,85)" paint-order="fill stroke markers" d=" M 83.41666666666667 90.5 L 100 147.375" stroke-opacity="1" stroke-linejoin="round" stroke-miterlimit="10" stroke-width="1.25"/><path fill="none" stroke="rgb(85,85,85)" paint-order="fill stroke markers" d=" M 100 310.5 L 100 423.5" stroke-opacity="1" stroke-linejoin="round" stroke-miterlimit="10" stroke-width="1.25"/><path fill="rgb(85,85,85)" stroke="none" paint-order="stroke fill markers" d=" M 94.5625 423.5 L 94.5625 419.875 L 105.4375 419.875 L 105.4375 423.5 Z" fill-opacity="1"/><path fill="none" stroke="rgb(85,85,85)" paint-order="fill stroke markers" d=" M 340 424.5 L 340 306.625" stroke-opacity="1" stroke-linejoin="round" stroke-miterlimit="10" stroke-width="1.25"/><path fill="rgb(85,85,85)" stroke="none" paint-order="stroke fill markers" d=" M 345.4375 306.625 L 345.4375 310.25 L 334.5625 310.25 L 334.5625 306.625 Z" fill-opacity="1"/><path fill="none" stroke="rgb(85,85,85)" paint-order="fill stroke markers" d=" M 285.5 80.00000000000003 L 200 80.00000000000006 L 100 147.375" stroke-opacity="1" stroke-linejoin="round" stroke-miterlimit="10" stroke-width="1.25"/><path fill="rgb(255,255,255)" stroke="rgb(85,85,85)" paint-order="fill stroke markers" d=" M 44.000000000000014 50 L 44 90 L 115.99999999999999 90 L 116 50.00000000000001 Z" fill-opacity="0.5" stroke-opacity="1" stroke-miterlimit="10" stroke-width="1.25"/><path fill="rgb(255,255,255)" stroke="rgb(85,85,85)" paint-order="fill stroke markers" d="" fill-opacity="0.5" stroke-opacity="1" stroke-miterlimit="10" stroke-width="1.25"/><text fill="rgb(0,0,0)" stroke="none" font-family="Helvetica" font-size="11px" font-style="normal" font-weight="normal" text-decoration="normal" x="80" y="75.5" text-anchor="middle" dominant-baseline="text-after-edge" fill-opacity="1">Ras</text><path fill="rgb(255,255,255)" stroke="rgb(85,85,85)" paint-order="fill stroke markers" d=" M 46.00000000000002 250 L 46 310 L 153.99999999999997 310 L 154 250 Z" fill-opacity="0.5" stroke-opacity="1" stroke-miterlimit="10" stroke-width="1.25"/><path fill="rgb(255,255,255)" stroke="rgb(85,85,85)" paint-order="fill stroke markers" d="" fill-opacity="0.5" stroke-opacity="1" stroke-miterlimit="10" stroke-width="1.25"/><text fill="rgb(0,0,0)" stroke="none" font-family="Helvetica" font-size="11px" font-style="normal" font-weight="normal" text-decoration="normal" x="100" y="280" text-anchor="middle" dominant-baseline="text-after-edge" fill-opacity="1">Mutant p53/</text><text fill="rgb(0,0,0)" stroke="none" font-family="Helvetica" font-size="11px" font-style="normal" font-weight="normal" text-decoration="normal" x="100" y="291" text-anchor="middle" dominant-baseline="text-after-edge" fill-opacity="1">P-Smad</text><path fill="rgb(255,255,255)" stroke="rgb(85,85,85)" paint-order="fill stroke markers" d=" M 46.00000000000002 425 L 46 485 L 153.99999999999997 485 L 154 425 Z" fill-opacity="0.5" stroke-opacity="1" stroke-miterlimit="10" stroke-width="1.25"/><path fill="rgb(255,255,255)" stroke="rgb(85,85,85)" paint-order="fill stroke markers" d="" fill-opacity="0.5" stroke-opacity="1" stroke-miterlimit="10" stroke-width="1.25"/><text fill="rgb(0,0,0)" stroke="none" font-family="Helvetica" font-size="11px" font-style="normal" font-weight="normal" text-decoration="normal" x="100" y="460.5" text-anchor="middle" dominant-baseline="text-after-edge" fill-opacity="1">p63</text><path fill="rgb(255,255,255)" stroke="rgb(85,85,85)" paint-order="fill stroke markers" d=" M 286 425 L 286 485 L 394 485 L 394 425 Z" fill-opacity="0.5" stroke-opacity="1" stroke-miterlimit="10" stroke-width="1.25"/><path fill="rgb(255,255,255)" stroke="rgb(85,85,85)" paint-order="fill stroke markers" d="" fill-opacity="0.5" stroke-opacity="1" stroke-miterlimit="10" stroke-width="1.25"/><text fill="rgb(0,0,0)" stroke="none" font-family="Helvetica" font-size="11px" font-style="normal" font-weight="normal" text-decoration="normal" x="340" y="444" text-anchor="middle" dominant-baseline="text-after-edge" fill-opacity="1">Metastatic</text><text fill="rgb(0,0,0)" stroke="none" font-family="Helvetica" font-size="11px" font-style="normal" font-weight="normal" text-decoration="normal" x="340" y="455" text-anchor="middle" dominant-baseline="text-after-edge" fill-opacity="1">suppressor</text><text fill="rgb(0,0,0)" stroke="none" font-family="Helvetica" font-size="11px" font-style="normal" font-weight="normal" text-decoration="normal" x="340" y="466" text-anchor="middle" dominant-baseline="text-after-edge" fill-opacity="1">genes</text><text fill="rgb(0,0,0)" stroke="none" font-family="Helvetica" font-size="11px" font-style="normal" font-weight="normal" text-decoration="normal" x="340" y="477" text-anchor="middle" dominant-baseline="text-after-edge" fill-opacity="1">activity</text><path fill="rgb(255,255,255)" stroke="rgb(85,85,85)" paint-order="fill stroke markers" d=" M 307.5 235 L 275 270 L 307.5 305 L 372.49999999999994 305 L 405 270 L 372.5000000000001 235.00000000000003 Z" fill-opacity="0.5" stroke-opacity="1" stroke-miterlimit="10" stroke-width="1.25"/><text fill="rgb(0,0,0)" stroke="none" font-family="Helvetica" font-size="11px" font-style="normal" font-weight="normal" text-decoration="normal" x="340" y="253.5" text-anchor="middle" dominant-baseline="text-after-edge" fill-opacity="1">Pro-invasion</text><text fill="rgb(0,0,0)" stroke="none" font-family="Helvetica" font-size="11px" font-style="normal" font-weight="normal" text-decoration="normal" x="340" y="264.5" text-anchor="middle" dominant-baseline="text-after-edge" fill-opacity="1">migration</text><text fill="rgb(0,0,0)" stroke="none" font-family="Helvetica" font-size="11px" font-style="normal" font-weight="normal" text-decoration="normal" x="340" y="275.5" text-anchor="middle" dominant-baseline="text-after-edge" fill-opacity="1">metastasis</text><text fill="rgb(0,0,0)" stroke="none" font-family="Helvetica" font-size="11px" font-style="normal" font-weight="normal" text-decoration="normal" x="340" y="286.5" text-anchor="middle" dominant-baseline="text-after-edge" fill-opacity="1">gene expression</text><text fill="rgb(0,0,0)" stroke="none" font-family="Helvetica" font-size="11px" font-style="normal" font-weight="normal" text-decoration="normal" x="340" y="297.5" text-anchor="middle" dominant-baseline="text-after-edge" fill-opacity="1">platform</text><path fill="rgb(255,255,255)" stroke="rgb(85,85,85)" paint-order="fill stroke markers" d=" M 286 50.00000000000001 L 286 109.99999999999999 L 394 110 L 394 50.000000000000014 Z" fill-opacity="0.5" stroke-opacity="1" stroke-miterlimit="10" stroke-width="1.25"/><path fill="rgb(255,255,255)" stroke="rgb(85,85,85)" paint-order="fill stroke markers" d="" fill-opacity="0.5" stroke-opacity="1" stroke-miterlimit="10" stroke-width="1.25"/><text fill="rgb(0,0,0)" stroke="none" font-family="Helvetica" font-size="11px" font-style="normal" font-weight="normal" text-decoration="normal" x="340" y="85.5" text-anchor="middle" dominant-baseline="text-after-edge" fill-opacity="1">TGF beta</text><path fill="rgb(255,255,255)" stroke="rgb(85,85,85)" paint-order="fill stroke markers" d=" M 99.58 148 L 99.58 169 L 100 169 L 97.80490227137928 169.11504019726627 L 95.63385449282706 169.4589003845901 L 93.51064311812611 170.02781315780177 L 91.4585304954082 170.8155453895054 L 89.5 171.8134665205268 L 87.65650970185807 173.0106431181261 L 85.94825726646397 174.39395866497472 L 84.39395866497472 175.94825726646397 L 83.0106431181261 177.65650970185806 L 81.81346652052679 179.5 L 80.81554538950539 181.45853049540818 L 80.02781315780177 183.5106431181261 L 79.45890038459008 185.63385449282706 L 79.11504019726627 187.80490227137926 L 79 190 L 79.11504019726627 192.19509772862074 L 79.45890038459008 194.36614550717294 L 80.02781315780177 196.4893568818739 L 80.81554538950539 198.54146950459182 L 81.81346652052679 200.5 L 83.0106431181261 202.34349029814194 L 84.39395866497472 204.05174273353603 L 85.94825726646398 205.60604133502528 L 87.65650970185806 206.9893568818739 L 89.49999999999999 208.1865334794732 L 91.4585304954082 209.1844546104946 L 93.5106431181261 209.97218684219823 L 95.63385449282704 210.5410996154099 L 97.80490227137928 210.88495980273373 L 99.58 211 L 99.58 232 L 100.42 232 L 100.42 211 L 100 211 L 102.19509772862072 210.88495980273373 L 104.36614550717294 210.5410996154099 L 106.4893568818739 209.97218684219823 L 108.5414695045918 209.1844546104946 L 110.5 208.1865334794732 L 112.34349029814193 206.9893568818739 L 114.05174273353603 205.60604133502528 L 115.60604133502528 204.05174273353603 L 116.9893568818739 202.34349029814194 L 118.18653347947321 200.5 L 119.18445461049461 198.54146950459182 L 119.97218684219823 196.4893568818739 L 120.54109961540992 194.36614550717294 L 120.88495980273373 192.1950977286207 L 121 190 L 120.88495980273373 187.8049022713793 L 120.54109961540992 185.63385449282706 L 119.97218684219823 183.5106431181261 L 119.18445461049461 181.45853049540818 L 118.18653347947321 179.5 L 116.9893568818739 177.65650970185806 L 115.60604133502528 175.94825726646397 L 114.05174273353603 174.39395866497472 L 112.34349029814193 173.0106431181261 L 110.5 171.8134665205268 L 108.5414695045918 170.8155453895054 L 106.4893568818739 170.02781315780177 L 104.36614550717294 169.4589003845901 L 102.19509772862072 169.11504019726627 L 100.42 169 L 100.42 148 Z" fill-opacity="0.5" stroke-opacity="1" stroke-miterlimit="10" stroke-width="1.25"/><text fill="rgb(0,0,0)" stroke="none" font-family="Helvetica Neue, Helvetica, sans-serif" font-size="17px" font-style="normal" font-weight="normal" text-decoration="normal" x="100" y="198.5" text-anchor="middle" dominant-baseline="text-after-edge" fill-opacity="1">AND</text><g transform="scale(1,1) translate(42.375,48.375)"/></g></svg>