<svg version="1.1" xmlns="http://www.w3.org/2000/svg" xmlns:xlink="http://www.w3.org/1999/xlink" width="678" height="606"><defs/><g transform="translate(-229.75,-33.875) scale(1,1)"><path fill="rgb(240,240,240)" stroke="rgb(85,85,85)" paint-order="fill stroke markers" d=" M 232.25 141.74304068522486 L 232.25 621.9680406852249 Q 237.25 636.9680406852249 332.25 636.9680406852249 L 804.75 636.9680406852249 Q 899.75 636.9680406852249 904.75 621.9680406852249 L 904.75 141.74304068522486 Q 899.75 126.74304068522486 804.75 126.74304068522486 L 332.25 126.74304068522486 Q 237.25 126.74304068522486 232.25 141.74304068522486 Z" fill-opacity="0.5" stroke-opacity="1" stroke-miterlimit="10" stroke-width="3.25"/><path fill="rgb(240,240,240)" stroke="rgb(85,85,85)" paint-order="fill stroke markers" d="" fill-opacity="0.5" stroke-opacity="1" stroke-miterlimit="10" stroke-width="3.25"/><text fill="rgb(0,0,0)" stroke="none" font-family="Helvetica" font-size="14px" font-style="normal" font-weight="normal" text-decoration="normal" x="568.5" y="636.8430406852249" text-anchor="middle" dominant-baseline="text-after-edge" fill-opacity="1">cytosol</text><path fill="rgb(240,240,240)" stroke="rgb(85,85,85)" paint-order="fill stroke markers" d=" M 395.25 356.375 L 395.25 601.625 Q 397.75625 615.25 445.375 615.25 L 545.625 615.25 Q 593.24375 615.25 595.75 601.625 L 595.75 356.375 Q 593.24375 342.75 545.625 342.75 L 445.375 342.75 Q 397.75625 342.75 395.25 356.375 Z" fill-opacity="0.5" stroke-opacity="1" stroke-miterlimit="10" stroke-width="3.25"/><path fill="rgb(240,240,240)" stroke="rgb(85,85,85)" paint-order="fill stroke markers" d="" fill-opacity="0.5" stroke-opacity="1" stroke-miterlimit="10" stroke-width="3.25"/><text fill="rgb(0,0,0)" stroke="none" font-family="Helvetica" font-size="14px" font-style="normal" font-weight="normal" text-decoration="normal" x="495.5" y="615.125" text-anchor="middle" dominant-baseline="text-after-edge" fill-opacity="1">nucleus</text><path fill="none" stroke="rgb(85,85,85)" paint-order="fill stroke markers" d=" M 540 71 L 540 106.15778498382133" stroke-opacity="1" stroke-linejoin="round" stroke-miterlimit="10" stroke-width="1.25"/><path fill="rgb(255,255,255)" stroke="rgb(255,255,255)" paint-order="fill stroke markers" d=" M 534.5625 98.40778498382133 L 540 109.28278498382133 L 545.4375 98.40778498382133 Z" fill-opacity="1" stroke-opacity="1" stroke-miterlimit="10"/><path fill="none" stroke="rgb(85,85,85)" paint-order="fill stroke markers" d=" M 534.5625 98.40778498382133 L 540 109.28278498382133 L 545.4375 98.40778498382133 Z" stroke-opacity="1" stroke-miterlimit="10"/><path fill="none" stroke="rgb(85,85,85)" paint-order="fill stroke markers" d=" M 540 243 L 540 286.875" stroke-opacity="1" stroke-linejoin="round" stroke-miterlimit="10" stroke-width="1.25"/><path fill="rgb(255,255,255)" stroke="rgb(255,255,255)" paint-order="fill stroke markers" d=" M 534.5625 279.125 L 540 290 L 545.4375 279.125 Z" fill-opacity="1" stroke-opacity="1" stroke-miterlimit="10"/><path fill="none" stroke="rgb(85,85,85)" paint-order="fill stroke markers" d=" M 534.5625 279.125 L 540 290 L 545.4375 279.125 Z" stroke-opacity="1" stroke-miterlimit="10"/><path fill="none" stroke="rgb(85,85,85)" paint-order="fill stroke markers" d=" M 640.4999999999999 308 L 576.5 308" stroke-opacity="1" stroke-linejoin="round" stroke-miterlimit="10" stroke-width="1.25"/><path fill="rgb(85,85,85)" stroke="none" paint-order="stroke fill markers" d=" M 576.5 302.5625 L 580.125 302.5625 L 580.125 313.4375 L 576.5 313.4375 Z" fill-opacity="1"/><path fill="none" stroke="rgb(85,85,85)" paint-order="fill stroke markers" d=" M 761.0798087552017 416 L 761.2835206004637 461.9449994609097 L 540 480.375" stroke-opacity="1" stroke-linejoin="round" stroke-miterlimit="10" stroke-width="1.25"/><path fill="none" stroke="rgb(85,85,85)" paint-order="fill stroke markers" d=" M 442.5 225 L 501.375 225" stroke-opacity="1" stroke-linejoin="round" stroke-miterlimit="10" stroke-width="1.25"/><path fill="rgb(255,255,255)" stroke="rgb(255,255,255)" paint-order="fill stroke markers" d=" M 493.625 230.4375 L 504.5 225 L 493.625 219.5625 Z" fill-opacity="1" stroke-opacity="1" stroke-miterlimit="10"/><path fill="none" stroke="rgb(85,85,85)" paint-order="fill stroke markers" d=" M 493.625 230.4375 L 504.5 225 L 493.625 219.5625 Z" stroke-opacity="1" stroke-miterlimit="10"/><path fill="none" stroke="rgb(85,85,85)" paint-order="fill stroke markers" d=" M 287.89011816595865 326 L 287.01842729656596 468.79371823336004 L 540 480.375" stroke-opacity="1" stroke-linejoin="round" stroke-miterlimit="10" stroke-width="1.25"/><path fill="none" stroke="rgb(85,85,85)" paint-order="fill stroke markers" d=" M 540 462.625 L 540 480.375" stroke-opacity="1" stroke-linejoin="round" stroke-miterlimit="10" stroke-width="1.25"/><path fill="none" stroke="rgb(85,85,85)" paint-order="fill stroke markers" d=" M 676.8028732520611 380 L 676.2355630760361 329.1248057287598" stroke-opacity="1" stroke-linejoin="round" stroke-miterlimit="10" stroke-width="1.25"/><path fill="rgb(255,255,255)" stroke="rgb(255,255,255)" paint-order="fill stroke markers" d=" M 681.7591400563701 336.81369404842764 L 676.2007183130152 326 L 670.884816120286 336.93495382374056 Z" fill-opacity="1" stroke-opacity="1" stroke-miterlimit="10"/><path fill="none" stroke="rgb(85,85,85)" paint-order="fill stroke markers" d=" M 681.7591400563701 336.81369404842764 L 676.2007183130152 326 L 670.884816120286 336.93495382374056 Z" stroke-opacity="1" stroke-miterlimit="10"/><path fill="none" stroke="rgb(85,85,85)" paint-order="fill stroke markers" d=" M 799 243 L 799 286.875" stroke-opacity="1" stroke-linejoin="round" stroke-miterlimit="10" stroke-width="1.25"/><path fill="rgb(255,255,255)" stroke="rgb(255,255,255)" paint-order="fill stroke markers" d=" M 793.5625 279.125 L 799 290 L 804.4375 279.125 Z" fill-opacity="1" stroke-opacity="1" stroke-miterlimit="10"/><path fill="none" stroke="rgb(85,85,85)" paint-order="fill stroke markers" d=" M 793.5625 279.125 L 799 290 L 804.4375 279.125 Z" stroke-opacity="1" stroke-miterlimit="10"/><path fill="none" stroke="rgb(85,85,85)" paint-order="fill stroke markers" d=" M 791.4 326 L 769.8155376157512 377.1210951205894" stroke-opacity="1" stroke-linejoin="round" stroke-miterlimit="10" stroke-width="1.25"/><path fill="rgb(255,255,255)" stroke="rgb(255,255,255)" paint-order="fill stroke markers" d=" M 767.8207764126396 367.8663755682442 L 768.6 380 L 777.8393653929884 372.09644647105813 Z" fill-opacity="1" stroke-opacity="1" stroke-miterlimit="10"/><path fill="none" stroke="rgb(85,85,85)" paint-order="fill stroke markers" d=" M 767.8207764126396 367.8663755682442 L 768.6 380 L 777.8393653929884 372.09644647105813 Z" stroke-opacity="1" stroke-miterlimit="10"/><path fill="none" stroke="rgb(85,85,85)" paint-order="fill stroke markers" d=" M 809 326 L 837.4823658400668 377.2682585121202" stroke-opacity="1" stroke-linejoin="round" stroke-miterlimit="10" stroke-width="1.25"/><path fill="rgb(255,255,255)" stroke="rgb(255,255,255)" paint-order="fill stroke markers" d=" M 828.9654029345215 373.1342230604621 L 839 380 L 838.4718633123432 367.85285618389446 Z" fill-opacity="1" stroke-opacity="1" stroke-miterlimit="10"/><path fill="none" stroke="rgb(85,85,85)" paint-order="fill stroke markers" d=" M 828.9654029345215 373.1342230604621 L 839 380 L 838.4718633123432 367.85285618389446 Z" stroke-opacity="1" stroke-miterlimit="10"/><path fill="none" stroke="rgb(85,85,85)" paint-order="fill stroke markers" d=" M 849.073277463384 416 L 849.2997709071766 471.6362324785413 L 540 480.375" stroke-opacity="1" stroke-linejoin="round" stroke-miterlimit="10" stroke-width="1.25"/><path fill="none" stroke="rgb(85,85,85)" paint-order="fill stroke markers" d=" M 643.5 225 L 576.5 225" stroke-opacity="1" stroke-linejoin="round" stroke-miterlimit="10" stroke-width="1.25"/><path fill="rgb(85,85,85)" stroke="none" paint-order="stroke fill markers" d=" M 576.5 219.5625 L 580.125 219.5625 L 580.125 230.4375 L 576.5 230.4375 Z" fill-opacity="1"/><path fill="none" stroke="rgb(85,85,85)" paint-order="fill stroke markers" d=" M 288 243 L 288 286.875" stroke-opacity="1" stroke-linejoin="round" stroke-miterlimit="10" stroke-width="1.25"/><path fill="rgb(255,255,255)" stroke="rgb(255,255,255)" paint-order="fill stroke markers" d=" M 282.5625 279.125 L 288 290 L 293.4375 279.125 Z" fill-opacity="1" stroke-opacity="1" stroke-miterlimit="10"/><path fill="none" stroke="rgb(85,85,85)" paint-order="fill stroke markers" d=" M 282.5625 279.125 L 288 290 L 293.4375 279.125 Z" stroke-opacity="1" stroke-miterlimit="10"/><path fill="none" stroke="rgb(85,85,85)" paint-order="fill stroke markers" d=" M 575.5 140.67645731229368 L 760.576175148484 210.50320789668118" stroke-opacity="1" stroke-linejoin="round" stroke-miterlimit="10" stroke-width="1.25"/><path fill="rgb(255,255,255)" stroke="rgb(255,255,255)" paint-order="fill stroke markers" d=" M 751.4056611084914 212.85492609669978 L 763.5 211.60632767152765 L 755.2445179249571 202.68001561342405 Z" fill-opacity="1" stroke-opacity="1" stroke-miterlimit="10"/><path fill="none" stroke="rgb(85,85,85)" paint-order="fill stroke markers" d=" M 751.4056611084914 212.85492609669978 L 763.5 211.60632767152765 L 755.2445179249571 202.68001561342405 Z" stroke-opacity="1" stroke-miterlimit="10"/><path fill="none" stroke="rgb(85,85,85)" paint-order="fill stroke markers" d=" M 477.2622950819672 399 L 540 421.375" stroke-opacity="1" stroke-linejoin="round" stroke-miterlimit="10" stroke-width="1.25"/><path fill="none" stroke="rgb(85,85,85)" paint-order="fill stroke markers" d=" M 540 521.625 L 540 555.75" stroke-opacity="1" stroke-linejoin="round" stroke-miterlimit="10" stroke-width="1.25"/><path fill="none" stroke="none"/><path fill="rgb(255,255,255)" stroke="rgb(255,255,255)" paint-order="fill stroke markers" d=" M 534.5625 548 L 540 558.875 L 545.4375 548 L 534.5625 548 M 547.1092737468198 544.0897887531803 L 547.1092737468198 544.0897887531803 L 532.8907262531802 544.0897887531803 Z Z" fill-opacity="1" stroke-opacity="1" stroke-miterlimit="10" stroke-width="1.25"/><path fill="none" stroke="none"/><path fill="none" stroke="rgb(85,85,85)" paint-order="fill stroke markers" d=" M 534.5625 548 L 540 558.875 L 545.4375 548 L 534.5625 548 M 547.1092737468198 544.0897887531803 L 547.1092737468198 544.0897887531803 L 532.8907262531802 544.0897887531803 Z Z" stroke-opacity="1" stroke-miterlimit="10" stroke-width="1.25"/><path fill="none" stroke="rgb(85,85,85)" paint-order="fill stroke markers" d=" M 486.5 446.80898876404495 L 540 421.375" stroke-opacity="1" stroke-linejoin="round" stroke-miterlimit="10" stroke-width="1.25"/><path fill="none" stroke="rgb(85,85,85)" paint-order="fill stroke markers" d=" M 705.5 158.33850182550077 L 576.4828458584384 134.12871205668117" stroke-opacity="1" stroke-linejoin="round" stroke-miterlimit="10" stroke-width="1.25"/><path fill="rgb(85,85,85)" stroke="none" paint-order="stroke fill markers" d=" M 577.4856779932742 128.78448770142242 L 581.0484942301133 129.45304245797962 L 579.0428299604417 140.14149116849708 L 575.4800137236026 139.4729364119399 Z" fill-opacity="1"/><path fill="none" stroke="rgb(85,85,85)" paint-order="fill stroke markers" d=" M 377.5 158.23757003497806 L 503.51766410497385 134.2323410810191" stroke-opacity="1" stroke-linejoin="round" stroke-miterlimit="10" stroke-width="1.25"/><path fill="rgb(85,85,85)" stroke="none" paint-order="stroke fill markers" d=" M 504.5351624486799 139.57379251022402 L 500.9741948292099 140.2521247393614 L 498.9391981417978 129.56922188095152 L 502.5001657612678 128.89088965181415 Z" fill-opacity="1"/><path fill="none" stroke="rgb(85,85,85)" paint-order="fill stroke markers" d=" M 540 145.28278498382133 L 540 203.875" stroke-opacity="1" stroke-linejoin="round" stroke-miterlimit="10" stroke-width="1.25"/><path fill="rgb(255,255,255)" stroke="rgb(255,255,255)" paint-order="fill stroke markers" d=" M 534.5625 196.125 L 540 207 L 545.4375 196.125 Z" fill-opacity="1" stroke-opacity="1" stroke-miterlimit="10"/><path fill="none" stroke="rgb(85,85,85)" paint-order="fill stroke markers" d=" M 534.5625 196.125 L 540 207 L 545.4375 196.125 Z" stroke-opacity="1" stroke-miterlimit="10"/><path fill="none" stroke="rgb(85,85,85)" paint-order="fill stroke markers" d=" M 504.5 141.0485037658624 L 326.4136176741049 210.10447723091352" stroke-opacity="1" stroke-linejoin="round" stroke-miterlimit="10" stroke-width="1.25"/><path fill="rgb(255,255,255)" stroke="rgb(255,255,255)" paint-order="fill stroke markers" d=" M 331.6735305684259 202.23286859009843 L 323.5 211.23428121795894 L 335.60524844334395 212.37225809598337 Z" fill-opacity="1" stroke-opacity="1" stroke-miterlimit="10"/><path fill="none" stroke="rgb(85,85,85)" paint-order="fill stroke markers" d=" M 331.6735305684259 202.23286859009843 L 323.5 211.23428121795894 L 335.60524844334395 212.37225809598337 Z" stroke-opacity="1" stroke-miterlimit="10"/><path fill="none" stroke="rgb(85,85,85)" paint-order="fill stroke markers" d=" M 676.966407711991 416 L 676.7072927139892 541.4326697483481 L 635.2272665490602 576.5479042975537 L 578.5845214678286 576.8168182604762" stroke-opacity="1" stroke-linejoin="round" stroke-miterlimit="10" stroke-width="1.25"/><path fill="none" stroke="none"/><path fill="rgb(255,255,255)" stroke="rgb(255,255,255)" paint-order="fill stroke markers" d=" M 586.3086196467144 571.342586481228 L 575.4595566847028 576.8316541703994 L 586.3602486132469 582.2174639265058 L 586.3086196467144 571.342586481228 M 590.2783525254434 583.8706551400508 L 590.2783525254434 583.8706551400508 L 590.2108500966904 569.6522678809066 Z Z" fill-opacity="1" stroke-opacity="1" stroke-miterlimit="10" stroke-width="1.25"/><path fill="none" stroke="none"/><path fill="none" stroke="rgb(85,85,85)" paint-order="fill stroke markers" d=" M 586.3086196467144 571.342586481228 L 575.4595566847028 576.8316541703994 L 586.3602486132469 582.2174639265058 L 586.3086196467144 571.342586481228 M 590.2783525254434 583.8706551400508 L 590.2783525254434 583.8706551400508 L 590.2108500966904 569.6522678809066 Z Z" stroke-opacity="1" stroke-miterlimit="10" stroke-width="1.25"/><path fill="none" stroke="rgb(85,85,85)" paint-order="fill stroke markers" d=" M 540 326 L 540 421.375" stroke-opacity="1" stroke-linejoin="round" stroke-miterlimit="10" stroke-width="1.25"/><path fill="rgb(255,255,255)" stroke="rgb(85,85,85)" paint-order="fill stroke markers" d=" M 764 207.5 L 764 242.5 L 834 242.5 L 834 207.5 Z" fill-opacity="0.5" stroke-opacity="1" stroke-miterlimit="10" stroke-width="1.25"/><path fill="rgb(255,255,255)" stroke="rgb(85,85,85)" paint-order="fill stroke markers" d="" fill-opacity="0.5" stroke-opacity="1" stroke-miterlimit="10" stroke-width="1.25"/><text fill="rgb(0,0,0)" stroke="none" font-family="Helvetica" font-size="11px" font-style="normal" font-weight="normal" text-decoration="normal" x="799" y="230.5" text-anchor="middle" dominant-baseline="text-after-edge" fill-opacity="1">TAK</text><path fill="rgb(255,255,255)" stroke="rgb(85,85,85)" paint-order="fill stroke markers" d=" M 253 207.5 L 253 242.5 L 323 242.5 L 323 207.5 Z" fill-opacity="0.5" stroke-opacity="1" stroke-miterlimit="10" stroke-width="1.25"/><path fill="rgb(255,255,255)" stroke="rgb(85,85,85)" paint-order="fill stroke markers" d="" fill-opacity="0.5" stroke-opacity="1" stroke-miterlimit="10" stroke-width="1.25"/><text fill="rgb(0,0,0)" stroke="none" font-family="Helvetica" font-size="11px" font-style="normal" font-weight="normal" text-decoration="normal" x="288" y="230.5" text-anchor="middle" dominant-baseline="text-after-edge" fill-opacity="1">RAS</text><path fill="rgb(255,255,255)" stroke="rgb(85,85,85)" paint-order="fill stroke markers" d=" M 307 147.5 L 307 182.5 L 377 182.5 L 377 147.5 Z" fill-opacity="0.5" stroke-opacity="1" stroke-miterlimit="10" stroke-width="1.25"/><path fill="rgb(255,255,255)" stroke="rgb(85,85,85)" paint-order="fill stroke markers" d="" fill-opacity="0.5" stroke-opacity="1" stroke-miterlimit="10" stroke-width="1.25"/><text fill="rgb(0,0,0)" stroke="none" font-family="Helvetica" font-size="11px" font-style="normal" font-weight="normal" text-decoration="normal" x="342" y="170.5" text-anchor="middle" dominant-baseline="text-after-edge" fill-opacity="1">BAMBI</text><path fill="rgb(255,255,255)" stroke="rgb(85,85,85)" paint-order="fill stroke markers" d=" M 706 147.5 L 706 182.5 L 776 182.5 L 776 147.5 Z" fill-opacity="0.5" stroke-opacity="1" stroke-miterlimit="10" stroke-width="1.25"/><path fill="rgb(255,255,255)" stroke="rgb(85,85,85)" paint-order="fill stroke markers" d="" fill-opacity="0.5" stroke-opacity="1" stroke-miterlimit="10" stroke-width="1.25"/><text fill="rgb(0,0,0)" stroke="none" font-family="Helvetica" font-size="11px" font-style="normal" font-weight="normal" text-decoration="normal" x="741" y="170.5" text-anchor="middle" dominant-baseline="text-after-edge" fill-opacity="1">FKBP12</text><path fill="rgb(255,255,255)" stroke="rgb(85,85,85)" paint-order="fill stroke markers" d=" M 644 207.5 L 644 242.5 L 714 242.5 L 714 207.5 Z" fill-opacity="0.5" stroke-opacity="1" stroke-miterlimit="10" stroke-width="1.25"/><path fill="rgb(255,255,255)" stroke="rgb(85,85,85)" paint-order="fill stroke markers" d="" fill-opacity="0.5" stroke-opacity="1" stroke-miterlimit="10" stroke-width="1.25"/><text fill="rgb(0,0,0)" stroke="none" font-family="Helvetica" font-size="11px" font-style="normal" font-weight="normal" text-decoration="normal" x="679" y="230.5" text-anchor="middle" dominant-baseline="text-after-edge" fill-opacity="1">Smurf</text><path fill="rgb(255,255,255)" stroke="rgb(85,85,85)" paint-order="fill stroke markers" d=" M 372 207.5 L 372 242.5 L 442 242.5 L 442 207.5 Z" fill-opacity="0.5" stroke-opacity="1" stroke-miterlimit="10" stroke-width="1.25"/><path fill="rgb(255,255,255)" stroke="rgb(85,85,85)" paint-order="fill stroke markers" d="" fill-opacity="0.5" stroke-opacity="1" stroke-miterlimit="10" stroke-width="1.25"/><text fill="rgb(0,0,0)" stroke="none" font-family="Helvetica" font-size="11px" font-style="normal" font-weight="normal" text-decoration="normal" x="407" y="230.5" text-anchor="middle" dominant-baseline="text-after-edge" fill-opacity="1">SARA</text><path fill="rgb(255,255,255)" stroke="rgb(85,85,85)" paint-order="fill stroke markers" d=" M 505 207.5 L 505 242.5 L 575 242.5 L 575 207.5 Z" fill-opacity="0.5" stroke-opacity="1" stroke-miterlimit="10" stroke-width="1.25"/><path fill="rgb(255,255,255)" stroke="rgb(85,85,85)" paint-order="fill stroke markers" d="" fill-opacity="0.5" stroke-opacity="1" stroke-miterlimit="10" stroke-width="1.25"/><text fill="rgb(0,0,0)" stroke="none" font-family="Helvetica" font-size="11px" font-style="normal" font-weight="normal" text-decoration="normal" x="540" y="230.5" text-anchor="middle" dominant-baseline="text-after-edge" fill-opacity="1">RSmad</text><path fill="rgb(255,255,255)" stroke="rgb(85,85,85)" paint-order="fill stroke markers" d=" M 253 290.5 L 253 325.5 L 323 325.5 L 323 290.5 Z" fill-opacity="0.5" stroke-opacity="1" stroke-miterlimit="10" stroke-width="1.25"/><path fill="rgb(255,255,255)" stroke="rgb(85,85,85)" paint-order="fill stroke markers" d="" fill-opacity="0.5" stroke-opacity="1" stroke-miterlimit="10" stroke-width="1.25"/><text fill="rgb(0,0,0)" stroke="none" font-family="Helvetica" font-size="11px" font-style="normal" font-weight="normal" text-decoration="normal" x="288" y="313.5" text-anchor="middle" dominant-baseline="text-after-edge" fill-opacity="1">p42/p44 MAPKs</text><path fill="rgb(255,255,255)" stroke="rgb(85,85,85)" paint-order="fill stroke markers" d=" M 726 380.5 L 726 415.5 L 796 415.5 L 796 380.5 Z" fill-opacity="0.5" stroke-opacity="1" stroke-miterlimit="10" stroke-width="1.25"/><path fill="rgb(255,255,255)" stroke="rgb(85,85,85)" paint-order="fill stroke markers" d="" fill-opacity="0.5" stroke-opacity="1" stroke-miterlimit="10" stroke-width="1.25"/><text fill="rgb(0,0,0)" stroke="none" font-family="Helvetica" font-size="11px" font-style="normal" font-weight="normal" text-decoration="normal" x="761" y="403.5" text-anchor="middle" dominant-baseline="text-after-edge" fill-opacity="1">p38</text><path fill="rgb(255,255,255)" stroke="rgb(85,85,85)" paint-order="fill stroke markers" d=" M 814 380.5 L 814 415.5 L 884 415.5 L 884 380.5 Z" fill-opacity="0.5" stroke-opacity="1" stroke-miterlimit="10" stroke-width="1.25"/><path fill="rgb(255,255,255)" stroke="rgb(85,85,85)" paint-order="fill stroke markers" d="" fill-opacity="0.5" stroke-opacity="1" stroke-miterlimit="10" stroke-width="1.25"/><text fill="rgb(0,0,0)" stroke="none" font-family="Helvetica" font-size="11px" font-style="normal" font-weight="normal" text-decoration="normal" x="849" y="403.5" text-anchor="middle" dominant-baseline="text-after-edge" fill-opacity="1">JNK</text><path fill="rgb(255,255,255)" stroke="rgb(85,85,85)" paint-order="fill stroke markers" d=" M 416 363.5 L 416 398.5 L 486 398.5 L 486 363.5 Z" fill-opacity="0.5" stroke-opacity="1" stroke-miterlimit="10" stroke-width="1.25"/><path fill="rgb(255,255,255)" stroke="rgb(85,85,85)" paint-order="fill stroke markers" d="" fill-opacity="0.5" stroke-opacity="1" stroke-miterlimit="10" stroke-width="1.25"/><text fill="rgb(0,0,0)" stroke="none" font-family="Helvetica" font-size="11px" font-style="normal" font-weight="normal" text-decoration="normal" x="451" y="386.5" text-anchor="middle" dominant-baseline="text-after-edge" fill-opacity="1">co-activator</text><path fill="rgb(255,255,255)" stroke="rgb(85,85,85)" paint-order="fill stroke markers" d=" M 416 432.5 L 416 467.5 L 486 467.5 L 486 432.5 Z" fill-opacity="0.5" stroke-opacity="1" stroke-miterlimit="10" stroke-width="1.25"/><path fill="rgb(255,255,255)" stroke="rgb(85,85,85)" paint-order="fill stroke markers" d="" fill-opacity="0.5" stroke-opacity="1" stroke-miterlimit="10" stroke-width="1.25"/><text fill="rgb(0,0,0)" stroke="none" font-family="Helvetica" font-size="11px" font-style="normal" font-weight="normal" text-decoration="normal" x="451" y="455.5" text-anchor="middle" dominant-baseline="text-after-edge" fill-opacity="1">co-repressor</text><path fill="rgb(255,255,255)" stroke="rgb(85,85,85)" paint-order="fill stroke markers" d=" M 522.5 559.5 L 505 577 L 522.5 594.5 L 557.5 594.5 L 575 577 L 557.5 559.5 Z" fill-opacity="0.5" stroke-opacity="1" stroke-miterlimit="10" stroke-width="1.25"/><text fill="rgb(0,0,0)" stroke="none" font-family="Helvetica" font-size="11px" font-style="normal" font-weight="normal" text-decoration="normal" x="540" y="577" text-anchor="middle" dominant-baseline="text-after-edge" fill-opacity="1">Gene</text><text fill="rgb(0,0,0)" stroke="none" font-family="Helvetica" font-size="11px" font-style="normal" font-weight="normal" text-decoration="normal" x="540" y="588" text-anchor="middle" dominant-baseline="text-after-edge" fill-opacity="1">transcription</text><path fill="rgb(255,255,255)" stroke="rgb(85,85,85)" paint-order="fill stroke markers" d=" M 539.8 422 L 539.8 432 L 540 432 L 538.9547153673235 432.05478104631726 L 537.9208830918224 432.21852399266197 L 536.9098300562505 432.48943483704846 L 535.932633569242 432.864545423574 L 535 433.33974596215563 L 534.1221474770753 433.90983005625054 L 533.3086939364114 434.56855174522605 L 532.568551745226 435.30869393641143 L 531.9098300562505 436.12214747707526 L 531.3397459621556 437 L 530.864545423574 437.932633569242 L 530.4894348370485 438.90983005625054 L 530.218523992662 439.9208830918224 L 530.0547810463173 440.95471536732344 L 530 442 L 530.0547810463173 443.04528463267656 L 530.218523992662 444.0791169081776 L 530.4894348370485 445.09016994374946 L 530.864545423574 446.067366430758 L 531.3397459621556 447 L 531.9098300562505 447.87785252292474 L 532.568551745226 448.69130606358857 L 533.3086939364114 449.43144825477395 L 534.1221474770753 450.09016994374946 L 535 450.66025403784437 L 535.932633569242 451.135454576426 L 536.9098300562505 451.51056516295154 L 537.9208830918224 451.78147600733803 L 538.9547153673235 451.94521895368274 L 539.8 452 L 539.8 462 L 540.2 462 L 540.2 452 L 540 452 L 541.0452846326765 451.94521895368274 L 542.0791169081776 451.78147600733803 L 543.0901699437495 451.51056516295154 L 544.067366430758 451.135454576426 L 545 450.66025403784437 L 545.8778525229247 450.09016994374946 L 546.6913060635886 449.43144825477395 L 547.431448254774 448.69130606358857 L 548.0901699437495 447.87785252292474 L 548.6602540378444 447 L 549.135454576426 446.067366430758 L 549.5105651629515 445.09016994374946 L 549.781476007338 444.0791169081776 L 549.9452189536827 443.04528463267656 L 550 442 L 549.9452189536827 440.95471536732344 L 549.781476007338 439.9208830918224 L 549.5105651629515 438.90983005625054 L 549.135454576426 437.932633569242 L 548.6602540378444 437 L 548.0901699437495 436.12214747707526 L 547.431448254774 435.30869393641143 L 546.6913060635886 434.56855174522605 L 545.8778525229247 433.90983005625054 L 545 433.33974596215563 L 544.067366430758 432.864545423574 L 543.0901699437495 432.48943483704846 L 542.0791169081776 432.21852399266197 L 541.0452846326765 432.05478104631726 L 540.2 432 L 540.2 422 Z" fill-opacity="0.5" stroke-opacity="1" stroke-miterlimit="10" stroke-width="1.25"/><text fill="rgb(0,0,0)" stroke="none" font-family="Helvetica Neue, Helvetica, sans-serif" font-size="8px" font-style="normal" font-weight="normal" text-decoration="normal" x="540" y="446" text-anchor="middle" dominant-baseline="text-after-edge" fill-opacity="1">AND</text><path fill="rgb(255,255,255)" stroke="rgb(85,85,85)" paint-order="fill stroke markers" d=" M 539.8 481 L 539.8 491 L 540 491 L 538.9547153673235 491.05478104631726 L 537.9208830918224 491.21852399266197 L 536.9098300562505 491.48943483704846 L 535.932633569242 491.864545423574 L 535 492.33974596215563 L 534.1221474770753 492.90983005625054 L 533.3086939364114 493.56855174522605 L 532.568551745226 494.30869393641143 L 531.9098300562505 495.12214747707526 L 531.3397459621556 496 L 530.864545423574 496.932633569242 L 530.4894348370485 497.90983005625054 L 530.218523992662 498.9208830918224 L 530.0547810463173 499.95471536732344 L 530 501 L 530.0547810463173 502.04528463267656 L 530.218523992662 503.0791169081776 L 530.4894348370485 504.09016994374946 L 530.864545423574 505.067366430758 L 531.3397459621556 506 L 531.9098300562505 506.87785252292474 L 532.568551745226 507.69130606358857 L 533.3086939364114 508.43144825477395 L 534.1221474770753 509.09016994374946 L 535 509.66025403784437 L 535.932633569242 510.135454576426 L 536.9098300562505 510.51056516295154 L 537.9208830918224 510.78147600733803 L 538.9547153673235 510.94521895368274 L 539.8 511 L 539.8 521 L 540.2 521 L 540.2 511 L 540 511 L 541.0452846326765 510.94521895368274 L 542.0791169081776 510.78147600733803 L 543.0901699437495 510.51056516295154 L 544.067366430758 510.135454576426 L 545 509.66025403784437 L 545.8778525229247 509.09016994374946 L 546.6913060635886 508.43144825477395 L 547.431448254774 507.69130606358857 L 548.0901699437495 506.87785252292474 L 548.6602540378444 506 L 549.135454576426 505.067366430758 L 549.5105651629515 504.09016994374946 L 549.781476007338 503.0791169081776 L 549.9452189536827 502.04528463267656 L 550 501 L 549.9452189536827 499.95471536732344 L 549.781476007338 498.9208830918224 L 549.5105651629515 497.90983005625054 L 549.135454576426 496.932633569242 L 548.6602540378444 496 L 548.0901699437495 495.12214747707526 L 547.431448254774 494.30869393641143 L 546.6913060635886 493.56855174522605 L 545.8778525229247 492.90983005625054 L 545 492.33974596215563 L 544.067366430758 491.864545423574 L 543.0901699437495 491.48943483704846 L 542.0791169081776 491.21852399266197 L 541.0452846326765 491.05478104631726 L 540.2 491 L 540.2 481 Z" fill-opacity="0.5" stroke-opacity="1" stroke-miterlimit="10" stroke-width="1.25"/><text fill="rgb(0,0,0)" stroke="none" font-family="Helvetica Neue, Helvetica, sans-serif" font-size="8px" font-style="normal" font-weight="normal" text-decoration="normal" x="540" y="505" text-anchor="middle" dominant-baseline="text-after-edge" fill-opacity="1">OR</text><path fill="rgb(189,189,189)" stroke="rgb(85,85,85)" paint-order="fill stroke markers" d=" M 505 290.5 L 505 325.5 L 575 325.5 L 575 290.5 Z" fill-opacity="0.5" stroke-opacity="1" stroke-miterlimit="10" stroke-width="1.25"/><path fill="#ffffff" stroke="rgb(85,85,85)" paint-order="fill stroke markers" d=" M 530 284.5 L 542 284.5 L 542 284.5 A 3 3 0 0 1 545 287.5 L 545 293.5 L 545 293.5 A 3 3 0 0 1 542 296.5 L 518 296.5 L 518 296.5 A 3 3 0 0 1 515 293.5 L 515 287.5 L 515 287.5 A 3 3 0 0 1 518 284.5 L 530 284.5 Z" stroke-opacity="1" stroke-miterlimit="10" stroke-width="1.25"/><path fill="rgb(189,189,189)" stroke="rgb(85,85,85)" paint-order="fill stroke markers" d="" fill-opacity="0.5" stroke-opacity="1" stroke-miterlimit="10" stroke-width="1.25"/><text fill="rgb(0,0,0)" stroke="none" font-family="Helvetica" font-size="11px" font-style="normal" font-weight="normal" text-decoration="normal" x="540" y="308" text-anchor="middle" dominant-baseline="text-after-edge" fill-opacity="1">RSmad</text><text fill="rgb(0,0,0)" stroke="none" font-family="Helvetica" font-size="11px" font-style="normal" font-weight="normal" text-decoration="normal" x="540" y="319" text-anchor="middle" dominant-baseline="text-after-edge" fill-opacity="1">Co-Smads</text><path fill="rgb(189,189,189)" stroke="rgb(85,85,85)" paint-order="fill stroke markers" d=" M 640.9999999999999 290.5 L 640.9999999999999 325.5 L 710.9999999999999 325.5 L 710.9999999999999 290.5 Z" fill-opacity="0.5" stroke-opacity="1" stroke-miterlimit="10" stroke-width="1.25"/><path fill="#ffffff" stroke="rgb(85,85,85)" paint-order="fill stroke markers" d=" M 665.9999999999999 284.5 L 677.9999999999999 284.5 L 677.9999999999999 284.5 A 3 3 0 0 1 680.9999999999999 287.5 L 680.9999999999999 293.5 L 680.9999999999999 293.5 A 3 3 0 0 1 677.9999999999999 296.5 L 653.9999999999999 296.5 L 653.9999999999999 296.5 A 3 3 0 0 1 650.9999999999999 293.5 L 650.9999999999999 287.5 L 650.9999999999999 287.5 A 3 3 0 0 1 653.9999999999999 284.5 L 665.9999999999999 284.5 Z" stroke-opacity="1" stroke-miterlimit="10" stroke-width="1.25"/><path fill="rgb(189,189,189)" stroke="rgb(85,85,85)" paint-order="fill stroke markers" d="" fill-opacity="0.5" stroke-opacity="1" stroke-miterlimit="10" stroke-width="1.25"/><text fill="rgb(0,0,0)" stroke="none" font-family="Helvetica" font-size="11px" font-style="normal" font-weight="normal" text-decoration="normal" x="675.9999999999999" y="313.5" text-anchor="middle" dominant-baseline="text-after-edge" fill-opacity="1">I-Smad</text><path fill="rgb(189,189,189)" stroke="rgb(85,85,85)" paint-order="fill stroke markers" d=" M 642.0035915650764 380.5 L 642.0035915650764 415.5 L 712.0035915650764 415.5 L 712.0035915650764 380.5 Z" fill-opacity="0.5" stroke-opacity="1" stroke-miterlimit="10" stroke-width="1.25"/><path fill="#ffffff" stroke="rgb(85,85,85)" paint-order="fill stroke markers" d=" M 652.0035915650764 374.5 L 682.0035915650764 374.5 L 682.0035915650764 380.5 L 682.0035915650764 383.5 L 682.0035915650764 383.5 A 3 3 0 0 1 679.0035915650764 386.5 L 655.0035915650764 386.5 L 655.0035915650764 386.5 A 3 3 0 0 1 652.0035915650764 383.5 L 652.0035915650764 374.5 Z" fill-opacity="1" stroke-opacity="1" stroke-miterlimit="10" stroke-width="1.25"/><path fill="rgb(189,189,189)" stroke="rgb(85,85,85)" paint-order="fill stroke markers" d="" fill-opacity="0.5" stroke-opacity="1" stroke-miterlimit="10" stroke-width="1.25"/><text fill="rgb(0,0,0)" stroke="none" font-family="Helvetica" font-size="11px" font-style="normal" font-weight="normal" text-decoration="normal" x="677.0035915650764" y="403.5" text-anchor="middle" dominant-baseline="text-after-edge" fill-opacity="1">I-Smad</text><path fill="rgb(217,217,217)" stroke="rgb(85,85,85)" paint-order="fill stroke markers" d=" M 764 290.5 L 764 325.5 L 834 325.5 L 834 290.5 Z" fill-opacity="0.5" stroke-opacity="1" stroke-miterlimit="10" stroke-width="1.25"/><path fill="#ffffff" stroke="rgb(85,85,85)" paint-order="fill stroke markers" d=" M 777 284.5 L 774 287.5 L 774 293.5 L 777 296.5 L 801 296.5 L 804 293.5 L 804 287.5 L 801 284.5 Z" stroke-opacity="1" stroke-miterlimit="10" stroke-width="1.25"/><path fill="rgb(217,217,217)" stroke="rgb(85,85,85)" paint-order="fill stroke markers" d="" fill-opacity="0.5" stroke-opacity="1" stroke-miterlimit="10" stroke-width="1.25"/><text fill="rgb(0,0,0)" stroke="none" font-family="Helvetica" font-size="11px" font-style="normal" font-weight="normal" text-decoration="normal" x="799" y="308" text-anchor="middle" dominant-baseline="text-after-edge" fill-opacity="1">TAK</text><text fill="rgb(0,0,0)" stroke="none" font-family="Helvetica" font-size="11px" font-style="normal" font-weight="normal" text-decoration="normal" x="799" y="319" text-anchor="middle" dominant-baseline="text-after-edge" fill-opacity="1">TAB</text><path fill="rgb(255,255,255)" stroke="rgb(85,85,85)" paint-order="fill stroke markers" d=" M 505 35.5 L 505 70.5 L 575 70.5 L 575 35.50000000000001 Z" fill-opacity="0.5" stroke-opacity="1" stroke-miterlimit="10" stroke-width="1.25"/><path fill="rgb(255,255,255)" stroke="rgb(85,85,85)" paint-order="fill stroke markers" d="" fill-opacity="0.5" stroke-opacity="1" stroke-miterlimit="10" stroke-width="1.25"/><text fill="rgb(0,0,0)" stroke="none" font-family="Helvetica" font-size="11px" font-style="normal" font-weight="normal" text-decoration="normal" x="540" y="58.5" text-anchor="middle" dominant-baseline="text-after-edge" fill-opacity="1">TGFβ</text><path fill="rgb(255,255,255)" stroke="rgb(85,85,85)" paint-order="fill stroke markers" d=" M 505 109.78278498382133 L 505 144.78278498382133 L 575 144.78278498382133 L 575 109.78278498382133 Z" fill-opacity="1" stroke-opacity="1" stroke-miterlimit="10" stroke-width="1.25"/><path fill="rgb(255,255,255)" stroke="rgb(85,85,85)" paint-order="fill stroke markers" d="" fill-opacity="1" stroke-opacity="1" stroke-miterlimit="10" stroke-width="1.25"/><text fill="rgb(0,0,0)" stroke="none" font-family="Helvetica" font-size="11px" font-style="normal" font-weight="normal" text-decoration="normal" x="540" y="127.28278498382133" text-anchor="middle" dominant-baseline="text-after-edge" fill-opacity="1">TGFβ</text><text fill="rgb(0,0,0)" stroke="none" font-family="Helvetica" font-size="11px" font-style="normal" font-weight="normal" text-decoration="normal" x="540" y="138.28278498382133" text-anchor="middle" dominant-baseline="text-after-edge" fill-opacity="1">receptor</text><g transform="scale(1,1) translate(229.75,33.875)"/></g></svg>