<svg version="1.1" xmlns="http://www.w3.org/2000/svg" xmlns:xlink="http://www.w3.org/1999/xlink" width="819" height="588"><defs/><g transform="translate(-12.0193005851022,-12.248592594076172) scale(1,1)"><path fill="rgb(255,255,255)" stroke="rgb(85,85,85)" paint-order="fill stroke markers" d=" M 14.5193005851022 29.74859259407617 L 14.5193005851022 582.1906346573867 Q 19.5193005851022 597.1906346573867 114.5193005851022 597.1906346573867 L 727.9393362958162 597.1906346573867 Q 822.9393362958162 597.1906346573867 827.9393362958162 582.1906346573867 L 827.9393362958162 29.74859259407617 Q 822.9393362958162 14.748592594076172 727.9393362958162 14.748592594076172 L 114.5193005851022 14.748592594076172 Q 19.5193005851022 14.748592594076172 14.5193005851022 29.74859259407617 Z" fill-opacity="0.5" stroke-opacity="1" stroke-miterlimit="10" stroke-width="3.25"/><path fill="rgb(255,255,255)" stroke="rgb(85,85,85)" paint-order="fill stroke markers" d="" fill-opacity="0.5" stroke-opacity="1" stroke-miterlimit="10" stroke-width="3.25"/><text fill="rgb(0,0,0)" stroke="none" font-family="Helvetica" font-size="14px" font-style="normal" font-weight="normal" text-decoration="normal" x="421.2293184404592" y="597.0656346573867" text-anchor="middle" dominant-baseline="text-after-edge" fill-opacity="1">cytosol</text><path fill="rgb(255,255,255)" stroke="rgb(85,85,85)" paint-order="fill stroke markers" d=" M 121.51298880429465 276.38684598953387 L 109.51298880429465 288.38684598953387 L 109.51298880429465 371.0868459895339 L 121.51298880429465 383.0868459895339 L 180.76298880429465 383.0868459895339 L 192.76298880429465 371.0868459895339 L 192.76298880429465 288.38684598953387 L 180.76298880429465 276.38684598953387 Z" fill-opacity="0.5" stroke-opacity="1" stroke-miterlimit="10" stroke-width="1.25"/><path fill="rgb(255,255,255)" stroke="rgb(85,85,85)" paint-order="fill stroke markers" d="" fill-opacity="0.5" stroke-opacity="1" stroke-miterlimit="10" stroke-width="1.25"/><text fill="rgb(0,0,0)" stroke="none" font-family="Helvetica" font-size="11px" font-style="normal" font-weight="normal" text-decoration="normal" x="151.13798880429465" y="384.0868459895339" text-anchor="middle" dominant-baseline="text-after-edge" fill-opacity="1">2xPNPO:2xFMN</text><path fill="rgb(255,255,255)" stroke="rgb(85,85,85)" paint-order="fill stroke markers" d=" M 373.5289572794267 466.8192794060593 L 361.5289572794267 478.8192794060593 L 361.5289572794267 561.5192794060594 L 373.5289572794267 573.5192794060594 L 432.7789572794267 573.5192794060594 L 444.7789572794267 561.5192794060594 L 444.7789572794267 478.8192794060593 L 432.7789572794267 466.8192794060593 Z" fill-opacity="0.5" stroke-opacity="1" stroke-miterlimit="10" stroke-width="1.25"/><path fill="rgb(255,255,255)" stroke="rgb(85,85,85)" paint-order="fill stroke markers" d="" fill-opacity="0.5" stroke-opacity="1" stroke-miterlimit="10" stroke-width="1.25"/><text fill="rgb(0,0,0)" stroke="none" font-family="Helvetica" font-size="11px" font-style="normal" font-weight="normal" text-decoration="normal" x="403.1539572794267" y="574.5192794060594" text-anchor="middle" dominant-baseline="text-after-edge" fill-opacity="1">2xPDXK:2xZn2+</text><path fill="rgb(255,255,255)" stroke="rgb(85,85,85)" paint-order="fill stroke markers" d=" M 691.4893362958162 268.7696002722671 L 679.4893362958162 280.7696002722671 L 679.4893362958162 368.46960027226714 L 691.4893362958162 380.46960027226714 L 795.1893362958162 380.46960027226714 L 807.1893362958162 368.46960027226714 L 807.1893362958162 280.7696002722671 L 795.1893362958162 268.7696002722671 Z" fill-opacity="0.5" stroke-opacity="1" stroke-miterlimit="10" stroke-width="1.25"/><path fill="#a9a9a9" stroke="none" paint-order="stroke fill markers" d=" M 679.4893362958162 368.46960027226714 L 807.1893362958162 368.46960027226714 L 795.1893362958162 380.46960027226714 L 691.4893362958162 380.46960027226714 Z" fill-opacity="0.5"/><path fill="rgb(255,255,255)" stroke="rgb(85,85,85)" paint-order="fill stroke markers" d="" fill-opacity="0.5" stroke-opacity="1" stroke-miterlimit="10" stroke-width="1.25"/><text fill="rgb(0,0,0)" stroke="none" font-family="Helvetica" font-size="11px" font-style="normal" font-weight="normal" text-decoration="normal" x="743.3393362958162" y="381.46960027226714" text-anchor="middle" dominant-baseline="text-after-edge" fill-opacity="1">2xAOX1:cofactors</text><path fill="none" stroke="rgb(85,85,85)" paint-order="fill stroke markers" d=" M 415.8662095281167 236.57604715665295 L 384.59966972239306 272.2134106563142" stroke-opacity="1" stroke-linejoin="round" stroke-miterlimit="10" stroke-width="1.25"/><path fill="none" stroke="rgb(85,85,85)" paint-order="fill stroke markers" d=" M 274.11223670997595 384.6355112693474 L 341.7122878260302 371.85859754371324" stroke-opacity="1" stroke-linejoin="round" stroke-miterlimit="10" stroke-width="1.25"/><path fill="rgb(85,85,85)" stroke="none" paint-order="stroke fill markers" d=" M 335.1069642658409 378.6408248264876 L 344.78292172244517 371.27822484088574 L 333.0872672600011 367.95501886696337 Z" fill-opacity="1"/><path fill="none" stroke="rgb(85,85,85)" paint-order="fill stroke markers" d=" M 344.0092373451933 76.42770531803157 L 348.07735340750156 117.9117847980188" stroke-opacity="1" stroke-linejoin="round" stroke-miterlimit="10" stroke-width="1.25"/><path fill="none" stroke="rgb(85,85,85)" paint-order="fill stroke markers" d=" M 254.13819892648328 339.33120848697735 L 263.93186830901675 378.0461968540011" stroke-opacity="1" stroke-linejoin="round" stroke-miterlimit="10" stroke-width="1.25"/><path fill="none" stroke="rgb(85,85,85)" paint-order="fill stroke markers" d=" M 206.70465582058367 431.62319031334704 L 257.86223670997595 392.4006396568745" stroke-opacity="1" stroke-linejoin="round" stroke-miterlimit="10" stroke-width="1.25"/><path fill="none" stroke="rgb(85,85,85)" paint-order="fill stroke markers" d=" M 70.62624022897543 469.17767748599147 L 106.71503588388407 486.9394109149308" stroke-opacity="1" stroke-linejoin="round" stroke-miterlimit="10" stroke-width="1.25"/><path fill="none" stroke="rgb(85,85,85)" paint-order="fill stroke markers" d=" M 361.3337508548341 222.76712102737844 L 375.19371338398275 272.2134106563142" stroke-opacity="1" stroke-linejoin="round" stroke-miterlimit="10" stroke-width="1.25"/><path fill="none" stroke="rgb(85,85,85)" paint-order="fill stroke markers" d=" M 464.09646457487474 408.9265382666143 L 483.56215195639066 378.2062739441744" stroke-opacity="1" stroke-linejoin="round" stroke-miterlimit="10" stroke-width="1.25"/><path fill="rgb(85,85,85)" stroke="none" paint-order="stroke fill markers" d=" M 484.0071107370864 387.66306610290786 L 485.2347735057555 375.5665841607718 L 474.8209902908452 381.8423431111181 Z" fill-opacity="1"/><path fill="none" stroke="rgb(85,85,85)" paint-order="fill stroke markers" d=" M 488.03643504503145 459.5232674554673 L 464.5128176561456 425.1765382666143" stroke-opacity="1" stroke-linejoin="round" stroke-miterlimit="10" stroke-width="1.25"/><path fill="none" stroke="rgb(85,85,85)" paint-order="fill stroke markers" d=" M 645.2495413485726 445.8949710462131 L 668.0071461858231 483.88805197537675" stroke-opacity="1" stroke-linejoin="round" stroke-miterlimit="10" stroke-width="1.25"/><path fill="rgb(85,85,85)" stroke="none" paint-order="stroke fill markers" d=" M 659.3600380106132 480.03364846040625 L 669.6129607596379 486.56890716626714 L 668.6894140749117 474.4454137435308 Z" fill-opacity="1"/><path fill="none" stroke="rgb(85,85,85)" paint-order="fill stroke markers" d=" M 376.690200533895 288.4634106563142 L 371.4840972273225 342.6257504393716" stroke-opacity="1" stroke-linejoin="round" stroke-miterlimit="10" stroke-width="1.25"/><path fill="rgb(85,85,85)" stroke="none" paint-order="stroke fill markers" d=" M 366.813058513302 334.39104925583604 L 371.1850991832409 345.73641357922384 L 377.6381662399878 335.43156244924006 Z" fill-opacity="1"/><path fill="none" stroke="rgb(85,85,85)" paint-order="fill stroke markers" d=" M 432.29070205330083 466.3192794060593 L 453.06477900073224 427.92500947985025" stroke-opacity="1" stroke-linejoin="round" stroke-miterlimit="10" stroke-width="1.25"/><path fill="rgb(255,255,255)" stroke="rgb(255,255,255)" paint-order="fill stroke markers" d=" M 457.4018089329289 429.95887817764486 A 5.4375 5.4375 0 1 1 457.4018062141791 429.9534406785511 Z" fill-opacity="1" stroke-opacity="1" stroke-miterlimit="10"/><path fill="none" stroke="rgb(85,85,85)" paint-order="fill stroke markers" d=" M 457.4018089329289 429.95887817764486 A 5.4375 5.4375 0 1 1 457.4018062141791 429.9534406785511 Z" stroke-opacity="1" stroke-miterlimit="10"/><path fill="none" stroke="rgb(85,85,85)" paint-order="fill stroke markers" d=" M 122.96503588388407 485.93949342563565 L 165.4092185167018 459.826376510344" stroke-opacity="1" stroke-linejoin="round" stroke-miterlimit="10" stroke-width="1.25"/><path fill="rgb(85,85,85)" stroke="none" paint-order="stroke fill markers" d=" M 161.65769852815106 468.51861465857166 L 168.07082931965692 458.1888622558739 L 155.95914892259523 459.2562090642879 Z" fill-opacity="1"/><path fill="none" stroke="rgb(85,85,85)" paint-order="fill stroke markers" d=" M 274.11223670997595 393.15666077432087 L 304.1378375804323 418.9711532748125" stroke-opacity="1" stroke-linejoin="round" stroke-miterlimit="10" stroke-width="1.25"/><path fill="rgb(85,85,85)" stroke="none" paint-order="stroke fill markers" d=" M 294.7163047998854 418.0418383039444 L 306.5074598561401 421.0084346177962 L 301.8060438734687 409.79555278448134 Z" fill-opacity="1"/><path fill="none" stroke="rgb(85,85,85)" paint-order="fill stroke markers" d=" M 294.48870554238067 345.09690224708504 L 271.62517733633297 378.0461968540011" stroke-opacity="1" stroke-linejoin="round" stroke-miterlimit="10" stroke-width="1.25"/><path fill="none" stroke="rgb(85,85,85)" paint-order="fill stroke markers" d=" M 578.2563192606955 426.3818545108287 L 632.2577199489759 436.2806131271175" stroke-opacity="1" stroke-linejoin="round" stroke-miterlimit="10" stroke-width="1.25"/><path fill="none" stroke="rgb(85,85,85)" paint-order="fill stroke markers" d=" M 385.5961784151189 281.692550909145 L 416.939379787248 286.91631590983184" stroke-opacity="1" stroke-linejoin="round" stroke-miterlimit="10" stroke-width="1.25"/><path fill="rgb(85,85,85)" stroke="none" paint-order="stroke fill markers" d=" M 408.40092031926486 291.0057677268372 L 420.0218624242264 287.43005299504836 L 410.1887253758184 280.2787281501524 Z" fill-opacity="1"/><path fill="none" stroke="rgb(85,85,85)" paint-order="fill stroke markers" d=" M 450.8231133655628 412.49165106852587 L 392.6856337562348 379.86391580702445" stroke-opacity="1" stroke-linejoin="round" stroke-miterlimit="10" stroke-width="1.25"/><path fill="rgb(85,85,85)" stroke="none" paint-order="stroke fill markers" d=" M 402.1052187745129 378.9150615856445 L 389.96046735935846 378.3345064081596 L 396.7828740664632 388.3986406467741 Z" fill-opacity="1"/><path fill="none" stroke="rgb(85,85,85)" paint-order="fill stroke markers" d=" M 106.71503588388407 496.8092347655144 L 73.75553195022815 520.6251137949538" stroke-opacity="1" stroke-linejoin="round" stroke-miterlimit="10" stroke-width="1.25"/><path fill="rgb(85,85,85)" stroke="none" paint-order="stroke fill markers" d=" M 76.85258783444463 511.67876531638217 L 71.22258959398808 522.4553673347577 L 83.22187015296245 520.4934047160976 Z" fill-opacity="1"/><path fill="none" stroke="rgb(85,85,85)" paint-order="fill stroke markers" d=" M 193.26298880429465 350.43612851437905 L 255.05754545524917 380.80059110466175" stroke-opacity="1" stroke-linejoin="round" stroke-miterlimit="10" stroke-width="1.25"/><path fill="rgb(255,255,255)" stroke="rgb(255,255,255)" paint-order="fill stroke markers" d=" M 258.4195739267513 379.78075083069973 A 5.4375 5.4375 0 1 1 258.4195712080015 379.77531333160596 Z" fill-opacity="1" stroke-opacity="1" stroke-miterlimit="10"/><path fill="none" stroke="rgb(85,85,85)" paint-order="fill stroke markers" d=" M 258.4195739267513 379.78075083069973 A 5.4375 5.4375 0 1 1 258.4195712080015 379.77531333160596 Z" stroke-opacity="1" stroke-miterlimit="10"/><path fill="none" stroke="rgb(85,85,85)" paint-order="fill stroke markers" d=" M 340.74912757775166 125.00894528581162 L 306.0735535068573 120.62236988414614" stroke-opacity="1" stroke-linejoin="round" stroke-miterlimit="10" stroke-width="1.25"/><path fill="rgb(85,85,85)" stroke="none" paint-order="stroke fill markers" d=" M 314.44469908858315 116.20051191497167 L 302.9732621678898 120.2301727226022 L 313.0798529664102 126.98952577457855 Z" fill-opacity="1"/><path fill="none" stroke="rgb(85,85,85)" paint-order="fill stroke markers" d=" M 264.8882509910529 394.2961968540011 L 260.01104096754193 430.35429183985747" stroke-opacity="1" stroke-linejoin="round" stroke-miterlimit="10" stroke-width="1.25"/><path fill="rgb(85,85,85)" stroke="none" paint-order="stroke fill markers" d=" M 255.66141260750152 421.94538945134497 L 259.5921684655686 433.45109193464737 L 266.4382769373703 423.4030657582123 Z" fill-opacity="1"/><path fill="none" stroke="rgb(85,85,85)" paint-order="fill stroke markers" d=" M 692.0659264831784 380.96960027226714 L 649.8788744157916 427.3336004954646" stroke-opacity="1" stroke-linejoin="round" stroke-miterlimit="10" stroke-width="1.25"/><path fill="rgb(255,255,255)" stroke="rgb(255,255,255)" paint-order="fill stroke markers" d=" M 656.872696840162 425.62318628791076 A 5.4375 5.4375 0 1 1 656.8726941214122 425.617748788817 Z" fill-opacity="1" stroke-opacity="1" stroke-miterlimit="10"/><path fill="none" stroke="rgb(85,85,85)" paint-order="fill stroke markers" d=" M 656.872696840162 425.62318628791076 A 5.4375 5.4375 0 1 1 656.8726941214122 425.617748788817 Z" stroke-opacity="1" stroke-miterlimit="10"/><path fill="none" stroke="rgb(85,85,85)" paint-order="fill stroke markers" d=" M 648.5077199489759 438.31109049895093 L 684.0880755273521 440.6807178883404" stroke-opacity="1" stroke-linejoin="round" stroke-miterlimit="10" stroke-width="1.25"/><path fill="rgb(85,85,85)" stroke="none" paint-order="stroke fill markers" d=" M 675.9938726718892 445.5911950937264 L 687.2061680768095 440.88838072328787 L 676.7165393375064 434.74023302161476 Z" fill-opacity="1"/><path fill="none" stroke="rgb(85,85,85)" paint-order="fill stroke markers" d=" M 125.12055511224014 535.8189037387967 L 116.70117766548947 499.0632720986097" stroke-opacity="1" stroke-linejoin="round" stroke-miterlimit="10" stroke-width="1.25"/><path fill="none" stroke="rgb(85,85,85)" paint-order="fill stroke markers" d=" M 393.2066057928296 105.90301389233379 L 356.99912757775166 122.34678380563004" stroke-opacity="1" stroke-linejoin="round" stroke-miterlimit="10" stroke-width="1.25"/><path fill="none" stroke="rgb(85,85,85)" paint-order="fill stroke markers" d=" M 623.525493743408 482.3911468498939 L 637.3132140371899 445.8949710462131" stroke-opacity="1" stroke-linejoin="round" stroke-miterlimit="10" stroke-width="1.25"/><path fill="none" stroke="rgb(85,85,85)" paint-order="fill stroke markers" d=" M 634.4923829977747 394.79831803237624 L 639.268986025054 429.6449710462131" stroke-opacity="1" stroke-linejoin="round" stroke-miterlimit="10" stroke-width="1.25"/><path fill="none" stroke="rgb(85,85,85)" paint-order="fill stroke markers" d=" M 349.5908821824741 134.1617847980188 L 353.48198341032696 178.270601494838" stroke-opacity="1" stroke-linejoin="round" stroke-miterlimit="10" stroke-width="1.25"/><path fill="rgb(85,85,85)" stroke="none" paint-order="stroke fill markers" d=" M 347.3844893221375 171.0284007178301 L 353.75659182029824 181.38351254740166 L 358.217419785059 170.0727634511301 Z" fill-opacity="1"/><path fill="none" stroke="rgb(85,85,85)" paint-order="fill stroke markers" d=" M 528.8773407443582 420.6282527563517 L 467.0731133655628 417.46711278843327" stroke-opacity="1" stroke-linejoin="round" stroke-miterlimit="10" stroke-width="1.25"/><path fill="rgb(255,255,255)" stroke="rgb(85,85,85)" paint-order="fill stroke markers" d=" M 712.1279604048694 422.5481550772332 L 716.1279604048694 422.5481550772332 L 716.1279604048694 422.5481550772332 A 20 20 0 0 1 736.1279604048694 442.5481550772332 L 736.1279604048694 442.5481550772332 L 736.1279604048694 442.5481550772332 A 20 20 0 0 1 716.1279604048694 462.5481550772332 L 708.1279604048694 462.5481550772332 L 708.1279604048694 462.5481550772332 A 20 20 0 0 1 688.1279604048694 442.5481550772332 L 688.1279604048694 442.5481550772332 L 688.1279604048694 442.5481550772332 A 20 20 0 0 1 708.1279604048694 422.5481550772332 L 712.1279604048694 422.5481550772332 Z" fill-opacity="0.5" stroke-opacity="1" stroke-miterlimit="10" stroke-width="1.25"/><path fill="rgb(255,255,255)" stroke="rgb(85,85,85)" paint-order="fill stroke markers" d="" fill-opacity="0.5" stroke-opacity="1" stroke-miterlimit="10" stroke-width="1.25"/><text fill="rgb(0,0,0)" stroke="none" font-family="Helvetica" font-size="11px" font-style="normal" font-weight="normal" text-decoration="normal" x="712.1279604048694" y="448.0481550772332" text-anchor="middle" dominant-baseline="text-after-edge" fill-opacity="1">PDXate</text><path fill="rgb(255,255,255)" stroke="rgb(85,85,85)" paint-order="fill stroke markers" d=" M 369.17311925689813 346.6682956395915 L 373.17311925689813 346.6682956395915 L 373.17311925689813 346.6682956395915 A 20 20 0 0 1 393.17311925689813 366.6682956395915 L 393.17311925689813 366.6682956395915 L 393.17311925689813 366.6682956395915 A 20 20 0 0 1 373.17311925689813 386.6682956395915 L 365.17311925689813 386.6682956395915 L 365.17311925689813 386.6682956395915 A 20 20 0 0 1 345.17311925689813 366.6682956395915 L 345.17311925689813 366.6682956395915 L 345.17311925689813 366.6682956395915 A 20 20 0 0 1 365.17311925689813 346.6682956395915 L 369.17311925689813 346.6682956395915 Z" fill-opacity="0.5" stroke-opacity="1" stroke-miterlimit="10" stroke-width="1.25"/><path fill="rgb(255,255,255)" stroke="rgb(85,85,85)" paint-order="fill stroke markers" d="" fill-opacity="0.5" stroke-opacity="1" stroke-miterlimit="10" stroke-width="1.25"/><text fill="rgb(0,0,0)" stroke="none" font-family="Helvetica" font-size="11px" font-style="normal" font-weight="normal" text-decoration="normal" x="369.17311925689813" y="372.1682956395915" text-anchor="middle" dominant-baseline="text-after-edge" fill-opacity="1">PXLP</text><path fill="rgb(255,255,255)" stroke="rgb(85,85,85)" paint-order="fill stroke markers" d=" M 341.9568340929225 35.49859259407616 L 345.9568340929225 35.49859259407616 L 345.9568340929225 35.49859259407616 A 20 20 0 0 1 365.9568340929225 55.49859259407616 L 365.9568340929225 55.49859259407616 L 365.9568340929225 55.49859259407616 A 20 20 0 0 1 345.9568340929225 75.49859259407616 L 337.9568340929225 75.49859259407616 L 337.9568340929225 75.49859259407616 A 20 20 0 0 1 317.9568340929225 55.49859259407616 L 317.9568340929225 55.49859259407616 L 317.9568340929225 55.49859259407616 A 20 20 0 0 1 337.9568340929225 35.49859259407616 L 341.9568340929225 35.49859259407616 Z" fill-opacity="0.5" stroke-opacity="1" stroke-miterlimit="10" stroke-width="1.25"/><path fill="rgb(255,255,255)" stroke="rgb(85,85,85)" paint-order="fill stroke markers" d="" fill-opacity="0.5" stroke-opacity="1" stroke-miterlimit="10" stroke-width="1.25"/><text fill="rgb(0,0,0)" stroke="none" font-family="Helvetica" font-size="11px" font-style="normal" font-weight="normal" text-decoration="normal" x="341.9568340929225" y="60.99859259407616" text-anchor="middle" dominant-baseline="text-after-edge" fill-opacity="1">PDX</text><path fill="rgb(255,255,255)" stroke="rgb(85,85,85)" paint-order="fill stroke markers" d=" M 129.84424311490002 536.4406346573867 L 133.84424311490002 536.4406346573867 L 133.84424311490002 536.4406346573867 A 20 20 0 0 1 153.84424311490002 556.4406346573867 L 153.84424311490002 556.4406346573867 L 153.84424311490002 556.4406346573867 A 20 20 0 0 1 133.84424311490002 576.4406346573867 L 125.84424311490002 576.4406346573867 L 125.84424311490002 576.4406346573867 A 20 20 0 0 1 105.84424311490002 556.4406346573867 L 105.84424311490002 556.4406346573867 L 105.84424311490002 556.4406346573867 A 20 20 0 0 1 125.84424311490002 536.4406346573867 L 129.84424311490002 536.4406346573867 Z" fill-opacity="0.5" stroke-opacity="1" stroke-miterlimit="10" stroke-width="1.25"/><path fill="rgb(255,255,255)" stroke="rgb(85,85,85)" paint-order="fill stroke markers" d="" fill-opacity="0.5" stroke-opacity="1" stroke-miterlimit="10" stroke-width="1.25"/><text fill="rgb(0,0,0)" stroke="none" font-family="Helvetica" font-size="11px" font-style="normal" font-weight="normal" text-decoration="normal" x="129.84424311490002" y="561.9406346573867" text-anchor="middle" dominant-baseline="text-after-edge" fill-opacity="1">PXA</text><path fill="rgb(255,255,255)" stroke="rgb(85,85,85)" paint-order="fill stroke markers" d=" M 355.6040614985196 182.32609322515125 L 359.6040614985196 182.32609322515125 L 359.6040614985196 182.32609322515125 A 20 20 0 0 1 379.6040614985196 202.32609322515125 L 379.6040614985196 202.32609322515125 L 379.6040614985196 202.32609322515125 A 20 20 0 0 1 359.6040614985196 222.32609322515125 L 351.6040614985196 222.32609322515125 L 351.6040614985196 222.32609322515125 A 20 20 0 0 1 331.6040614985196 202.32609322515125 L 331.6040614985196 202.32609322515125 L 331.6040614985196 202.32609322515125 A 20 20 0 0 1 351.6040614985196 182.32609322515125 L 355.6040614985196 182.32609322515125 Z" fill-opacity="0.5" stroke-opacity="1" stroke-miterlimit="10" stroke-width="1.25"/><path fill="rgb(255,255,255)" stroke="rgb(85,85,85)" paint-order="fill stroke markers" d="" fill-opacity="0.5" stroke-opacity="1" stroke-miterlimit="10" stroke-width="1.25"/><text fill="rgb(0,0,0)" stroke="none" font-family="Helvetica" font-size="11px" font-style="normal" font-weight="normal" text-decoration="normal" x="355.6040614985196" y="207.82609322515125" text-anchor="middle" dominant-baseline="text-after-edge" fill-opacity="1">PDXP</text><path fill="rgb(255,255,255)" stroke="rgb(85,85,85)" paint-order="fill stroke markers" d=" M 553.8311242569293 401.9045797287593 L 557.8311242569293 401.9045797287593 L 557.8311242569293 401.9045797287593 A 20 20 0 0 1 577.8311242569293 421.9045797287593 L 577.8311242569293 421.9045797287593 L 577.8311242569293 421.9045797287593 A 20 20 0 0 1 557.8311242569293 441.9045797287593 L 549.8311242569293 441.9045797287593 L 549.8311242569293 441.9045797287593 A 20 20 0 0 1 529.8311242569293 421.9045797287593 L 529.8311242569293 421.9045797287593 L 529.8311242569293 421.9045797287593 A 20 20 0 0 1 549.8311242569293 401.9045797287593 L 553.8311242569293 401.9045797287593 Z" fill-opacity="0.5" stroke-opacity="1" stroke-miterlimit="10" stroke-width="1.25"/><path fill="rgb(255,255,255)" stroke="rgb(85,85,85)" paint-order="fill stroke markers" d="" fill-opacity="0.5" stroke-opacity="1" stroke-miterlimit="10" stroke-width="1.25"/><text fill="rgb(0,0,0)" stroke="none" font-family="Helvetica" font-size="11px" font-style="normal" font-weight="normal" text-decoration="normal" x="553.8311242569293" y="427.4045797287593" text-anchor="middle" dominant-baseline="text-after-edge" fill-opacity="1">PXL</text><path fill="rgb(255,255,255)" stroke="rgb(85,85,85)" paint-order="fill stroke markers" d=" M 145.13798880429465 331.4618459895339 L 149.13798880429465 331.4618459895339 L 149.13798880429465 331.4618459895339 A 20 20 0 0 1 169.13798880429465 351.4618459895339 L 169.13798880429465 351.4618459895339 L 169.13798880429465 351.4618459895339 A 20 20 0 0 1 149.13798880429465 371.4618459895339 L 141.13798880429465 371.4618459895339 L 141.13798880429465 371.4618459895339 A 20 20 0 0 1 121.13798880429465 351.4618459895339 L 121.13798880429465 351.4618459895339 L 121.13798880429465 351.4618459895339 A 20 20 0 0 1 141.13798880429465 331.4618459895339 L 145.13798880429465 331.4618459895339 Z" fill-opacity="0.5" stroke-opacity="1" stroke-miterlimit="10" stroke-width="1.25"/><path fill="rgb(255,255,255)" stroke="rgb(85,85,85)" paint-order="fill stroke markers" d="" fill-opacity="0.5" stroke-opacity="1" stroke-miterlimit="10" stroke-width="1.25"/><text fill="rgb(0,0,0)" stroke="none" font-family="Helvetica" font-size="11px" font-style="normal" font-weight="normal" text-decoration="normal" x="145.13798880429465" y="356.9618459895339" text-anchor="middle" dominant-baseline="text-after-edge" fill-opacity="1">FMN</text><path fill="rgb(255,255,255)" stroke="rgb(85,85,85)" paint-order="fill stroke markers" d=" M 151.13798880429465 288.0118459895339 L 173.13798880429465 288.0118459895339 L 173.13798880429465 288.0118459895339 A 8 8 0 0 1 181.13798880429465 296.0118459895339 L 181.13798880429465 315.0118459895339 L 181.13798880429465 315.0118459895339 A 8 8 0 0 1 173.13798880429465 323.0118459895339 L 129.13798880429465 323.0118459895339 L 129.13798880429465 323.0118459895339 A 8 8 0 0 1 121.13798880429465 315.0118459895339 L 121.13798880429465 296.0118459895339 L 121.13798880429465 296.0118459895339 A 8 8 0 0 1 129.13798880429465 288.0118459895339 L 151.13798880429465 288.0118459895339 Z" fill-opacity="0.5" stroke-opacity="1" stroke-miterlimit="10" stroke-width="1.25"/><path fill="rgb(255,255,255)" stroke="rgb(85,85,85)" paint-order="fill stroke markers" d="" fill-opacity="0.5" stroke-opacity="1" stroke-miterlimit="10" stroke-width="1.25"/><text fill="rgb(0,0,0)" stroke="none" font-family="Helvetica" font-size="11px" font-style="normal" font-weight="normal" text-decoration="normal" x="151.13798880429465" y="311.0118459895339" text-anchor="middle" dominant-baseline="text-after-edge" fill-opacity="1">PNPO</text><path fill="rgb(255,255,255)" stroke="rgb(85,85,85)" paint-order="fill stroke markers" d=" M 397.1539572794267 521.8942794060594 L 401.1539572794267 521.8942794060594 L 401.1539572794267 521.8942794060594 A 20 20 0 0 1 421.1539572794267 541.8942794060594 L 421.1539572794267 541.8942794060594 L 421.1539572794267 541.8942794060594 A 20 20 0 0 1 401.1539572794267 561.8942794060594 L 393.1539572794267 561.8942794060594 L 393.1539572794267 561.8942794060594 A 20 20 0 0 1 373.1539572794267 541.8942794060594 L 373.1539572794267 541.8942794060594 L 373.1539572794267 541.8942794060594 A 20 20 0 0 1 393.1539572794267 521.8942794060594 L 397.1539572794267 521.8942794060594 Z" fill-opacity="0.5" stroke-opacity="1" stroke-miterlimit="10" stroke-width="1.25"/><path fill="rgb(255,255,255)" stroke="rgb(85,85,85)" paint-order="fill stroke markers" d="" fill-opacity="0.5" stroke-opacity="1" stroke-miterlimit="10" stroke-width="1.25"/><text fill="rgb(0,0,0)" stroke="none" font-family="Helvetica" font-size="11px" font-style="normal" font-weight="normal" text-decoration="normal" x="397.1539572794267" y="547.3942794060594" text-anchor="middle" dominant-baseline="text-after-edge" fill-opacity="1">Zn2+</text><path fill="rgb(255,255,255)" stroke="rgb(85,85,85)" paint-order="fill stroke markers" d=" M 403.1539572794267 478.4442794060593 L 425.1539572794267 478.4442794060593 L 425.1539572794267 478.4442794060593 A 8 8 0 0 1 433.1539572794267 486.4442794060593 L 433.1539572794267 505.4442794060593 L 433.1539572794267 505.4442794060593 A 8 8 0 0 1 425.1539572794267 513.4442794060593 L 381.1539572794267 513.4442794060593 L 381.1539572794267 513.4442794060593 A 8 8 0 0 1 373.1539572794267 505.4442794060593 L 373.1539572794267 486.4442794060593 L 373.1539572794267 486.4442794060593 A 8 8 0 0 1 381.1539572794267 478.4442794060593 L 403.1539572794267 478.4442794060593 Z" fill-opacity="0.5" stroke-opacity="1" stroke-miterlimit="10" stroke-width="1.25"/><path fill="rgb(255,255,255)" stroke="rgb(85,85,85)" paint-order="fill stroke markers" d="" fill-opacity="0.5" stroke-opacity="1" stroke-miterlimit="10" stroke-width="1.25"/><text fill="rgb(0,0,0)" stroke="none" font-family="Helvetica" font-size="11px" font-style="normal" font-weight="normal" text-decoration="normal" x="403.1539572794267" y="501.4442794060593" text-anchor="middle" dominant-baseline="text-after-edge" fill-opacity="1">PDXK</text><path fill="rgb(255,255,255)" stroke="rgb(85,85,85)" paint-order="fill stroke markers" d=" M 323.9785530931037 416.0291966430703 L 327.9785530931037 416.0291966430703 L 327.9785530931037 416.0291966430703 A 20 20 0 0 1 347.9785530931037 436.0291966430703 L 347.9785530931037 436.0291966430703 L 347.9785530931037 436.0291966430703 A 20 20 0 0 1 327.9785530931037 456.0291966430703 L 319.9785530931037 456.0291966430703 L 319.9785530931037 456.0291966430703 A 20 20 0 0 1 299.9785530931037 436.0291966430703 L 299.9785530931037 436.0291966430703 L 299.9785530931037 436.0291966430703 A 20 20 0 0 1 319.9785530931037 416.0291966430703 L 323.9785530931037 416.0291966430703 Z" fill-opacity="0.5" stroke-opacity="1" stroke-miterlimit="10" stroke-width="1.25"/><path fill="rgb(255,255,255)" stroke="rgb(85,85,85)" paint-order="fill stroke markers" d="" fill-opacity="0.5" stroke-opacity="1" stroke-miterlimit="10" stroke-width="1.25"/><text fill="rgb(0,0,0)" stroke="none" font-family="Helvetica" font-size="11px" font-style="normal" font-weight="normal" text-decoration="normal" x="323.9785530931037" y="441.5291966430703" text-anchor="middle" dominant-baseline="text-after-edge" fill-opacity="1">NH4+</text><path fill="rgb(255,255,255)" stroke="rgb(85,85,85)" paint-order="fill stroke markers" d=" M 721.1143362958162 280.3946002722671 L 743.1143362958162 280.3946002722671 L 743.1143362958162 280.3946002722671 A 8 8 0 0 1 751.1143362958162 288.3946002722671 L 751.1143362958162 307.3946002722671 L 751.1143362958162 307.3946002722671 A 8 8 0 0 1 743.1143362958162 315.3946002722671 L 699.1143362958162 315.3946002722671 L 699.1143362958162 315.3946002722671 A 8 8 0 0 1 691.1143362958162 307.3946002722671 L 691.1143362958162 288.3946002722671 L 691.1143362958162 288.3946002722671 A 8 8 0 0 1 699.1143362958162 280.3946002722671 L 721.1143362958162 280.3946002722671 Z" fill-opacity="0.5" stroke-opacity="1" stroke-miterlimit="10" stroke-width="1.25"/><path fill="rgb(255,255,255)" stroke="rgb(85,85,85)" paint-order="fill stroke markers" d="" fill-opacity="0.5" stroke-opacity="1" stroke-miterlimit="10" stroke-width="1.25"/><text fill="rgb(0,0,0)" stroke="none" font-family="Helvetica" font-size="11px" font-style="normal" font-weight="normal" text-decoration="normal" x="721.1143362958162" y="303.3946002722671" text-anchor="middle" dominant-baseline="text-after-edge" fill-opacity="1">AOX1</text><path fill="rgb(255,255,255)" stroke="rgb(85,85,85)" paint-order="fill stroke markers" d=" M 715.1143362958162 328.8446002722671 L 719.1143362958162 328.8446002722671 L 719.1143362958162 328.8446002722671 A 20 20 0 0 1 739.1143362958162 348.8446002722671 L 739.1143362958162 348.8446002722671 L 739.1143362958162 348.8446002722671 A 20 20 0 0 1 719.1143362958162 368.8446002722671 L 711.1143362958162 368.8446002722671 L 711.1143362958162 368.8446002722671 A 20 20 0 0 1 691.1143362958162 348.8446002722671 L 691.1143362958162 348.8446002722671 L 691.1143362958162 348.8446002722671 A 20 20 0 0 1 711.1143362958162 328.8446002722671 L 715.1143362958162 328.8446002722671 Z" fill-opacity="0.5" stroke-opacity="1" stroke-miterlimit="10" stroke-width="1.25"/><path fill="rgb(255,255,255)" stroke="rgb(85,85,85)" paint-order="fill stroke markers" d="" fill-opacity="0.5" stroke-opacity="1" stroke-miterlimit="10" stroke-width="1.25"/><text fill="rgb(0,0,0)" stroke="none" font-family="Helvetica" font-size="11px" font-style="normal" font-weight="normal" text-decoration="normal" x="715.1143362958162" y="348.8446002722671" text-anchor="middle" dominant-baseline="text-after-edge" fill-opacity="1">(4Fe-4S)</text><text fill="rgb(0,0,0)" stroke="none" font-family="Helvetica" font-size="11px" font-style="normal" font-weight="normal" text-decoration="normal" x="715.1143362958162" y="359.8446002722671" text-anchor="middle" dominant-baseline="text-after-edge" fill-opacity="1">(2+)</text><path fill="rgb(255,255,255)" stroke="rgb(85,85,85)" paint-order="fill stroke markers" d=" M 777.5643362958162 280.3946002722671 L 777.5643362958162 280.3946002722671 L 777.5643362958162 280.3946002722671 A 18 18 0 0 1 795.5643362958162 298.3946002722671 L 795.5643362958162 302.3946002722671 L 795.5643362958162 302.3946002722671 A 18 18 0 0 1 777.5643362958162 320.3946002722671 L 777.5643362958162 320.3946002722671 L 777.5643362958162 320.3946002722671 A 18 18 0 0 1 759.5643362958162 302.3946002722671 L 759.5643362958162 298.3946002722671 L 759.5643362958162 298.3946002722671 A 18 18 0 0 1 777.5643362958162 280.3946002722671 L 777.5643362958162 280.3946002722671 Z" fill-opacity="0.5" stroke-opacity="1" stroke-miterlimit="10" stroke-width="1.25"/><path fill="#a9a9a9" stroke="none" paint-order="stroke fill markers" d=" M 762.4088917295886 309.1446002722671 L 777.5643362958162 309.1446002722671 L 777.5643362958162 317.8946002722671 A 17.5 17.5 0 0 1 762.4088917295886 309.1446002722671 Z" fill-opacity="0.5"/><path fill="#a9a9a9" stroke="none" paint-order="stroke fill markers" d=" M 777.5643362958162 309.1446002722671 L 792.7197808620439 309.1446002722671 L 792.7197808620439 309.1446002722671 A 17.5 17.5 0 0 1 777.5643362958162 317.8946002722671 Z" fill-opacity="0.5"/><path fill="#a9a9a9" stroke="none" paint-order="stroke fill markers" d=" M 777.5643362958162 309.1446002722671 L 777.5643362958162 317.8946002722671 L 777.5643362958162 317.8946002722671 L 777.5643362958162 309.1446002722671 Z" fill-opacity="0.5"/><path fill="rgb(255,255,255)" stroke="rgb(85,85,85)" paint-order="fill stroke markers" d="" fill-opacity="0.5" stroke-opacity="1" stroke-miterlimit="10" stroke-width="1.25"/><text fill="rgb(0,0,0)" stroke="none" font-family="Helvetica" font-size="11px" font-style="normal" font-weight="normal" text-decoration="normal" x="777.5643362958162" y="305.8946002722671" text-anchor="middle" dominant-baseline="text-after-edge" fill-opacity="1">FAD</text><path fill="rgb(255,255,255)" stroke="rgb(85,85,85)" paint-order="fill stroke markers" d=" M 771.5643362958162 328.8446002722671 L 775.5643362958162 328.8446002722671 L 775.5643362958162 328.8446002722671 A 20 20 0 0 1 795.5643362958162 348.8446002722671 L 795.5643362958162 348.8446002722671 L 795.5643362958162 348.8446002722671 A 20 20 0 0 1 775.5643362958162 368.8446002722671 L 767.5643362958162 368.8446002722671 L 767.5643362958162 368.8446002722671 A 20 20 0 0 1 747.5643362958162 348.8446002722671 L 747.5643362958162 348.8446002722671 L 747.5643362958162 348.8446002722671 A 20 20 0 0 1 767.5643362958162 328.8446002722671 L 771.5643362958162 328.8446002722671 Z" fill-opacity="0.5" stroke-opacity="1" stroke-miterlimit="10" stroke-width="1.25"/><path fill="rgb(255,255,255)" stroke="rgb(85,85,85)" paint-order="fill stroke markers" d="" fill-opacity="0.5" stroke-opacity="1" stroke-miterlimit="10" stroke-width="1.25"/><text fill="rgb(0,0,0)" stroke="none" font-family="Helvetica" font-size="11px" font-style="normal" font-weight="normal" text-decoration="normal" x="771.5643362958162" y="354.3446002722671" text-anchor="middle" dominant-baseline="text-after-edge" fill-opacity="1">MPT</text><path fill="rgb(255,255,255)" stroke="rgb(85,85,85)" paint-order="fill stroke markers" d=" M 188.23971805833884 425.7802701470112 L 192.23971805833884 425.7802701470112 L 192.23971805833884 425.7802701470112 A 20 20 0 0 1 212.23971805833884 445.7802701470112 L 212.23971805833884 445.7802701470112 L 212.23971805833884 445.7802701470112 A 20 20 0 0 1 192.23971805833884 465.7802701470112 L 184.23971805833884 465.7802701470112 L 184.23971805833884 465.7802701470112 A 20 20 0 0 1 164.23971805833884 445.7802701470112 L 164.23971805833884 445.7802701470112 L 164.23971805833884 445.7802701470112 A 20 20 0 0 1 184.23971805833884 425.7802701470112 L 188.23971805833884 425.7802701470112 Z" fill-opacity="0.5" stroke-opacity="1" stroke-miterlimit="10" stroke-width="1.25"/><path fill="rgb(255,255,255)" stroke="rgb(85,85,85)" paint-order="fill stroke markers" d="" fill-opacity="0.5" stroke-opacity="1" stroke-miterlimit="10" stroke-width="1.25"/><text fill="rgb(0,0,0)" stroke="none" font-family="Helvetica" font-size="11px" font-style="normal" font-weight="normal" text-decoration="normal" x="188.23971805833884" y="451.2802701470112" text-anchor="middle" dominant-baseline="text-after-edge" fill-opacity="1">PXAP</text><path fill="rgb(255,255,255)" stroke="rgb(85,85,85)" paint-order="fill stroke markers" d=" M 284.0965029793092 97.84219992796307 L 284.0965029793092 97.84219992796307 L 284.0965029793092 97.84219992796307 A 18 18 0 0 1 302.0965029793092 115.84219992796307 L 302.0965029793092 119.84219992796307 L 302.0965029793092 119.84219992796307 A 18 18 0 0 1 284.0965029793092 137.84219992796307 L 284.0965029793092 137.84219992796307 L 284.0965029793092 137.84219992796307 A 18 18 0 0 1 266.0965029793092 119.84219992796307 L 266.0965029793092 115.84219992796307 L 266.0965029793092 115.84219992796307 A 18 18 0 0 1 284.0965029793092 97.84219992796307 L 284.0965029793092 97.84219992796307 Z" fill-opacity="0.5" stroke-opacity="1" stroke-miterlimit="10" stroke-width="1.25"/><path fill="#a9a9a9" stroke="none" paint-order="stroke fill markers" d=" M 268.9410584130815 126.59219992796307 L 284.0965029793092 126.59219992796307 L 284.0965029793092 135.34219992796307 A 17.5 17.5 0 0 1 268.9410584130815 126.59219992796307 Z" fill-opacity="0.5"/><path fill="#a9a9a9" stroke="none" paint-order="stroke fill markers" d=" M 284.0965029793092 126.59219992796307 L 299.2519475455369 126.59219992796307 L 299.2519475455369 126.59219992796307 A 17.5 17.5 0 0 1 284.0965029793092 135.34219992796307 Z" fill-opacity="0.5"/><path fill="#a9a9a9" stroke="none" paint-order="stroke fill markers" d=" M 284.0965029793092 126.59219992796307 L 284.0965029793092 135.34219992796307 L 284.0965029793092 135.34219992796307 L 284.0965029793092 126.59219992796307 Z" fill-opacity="0.5"/><path fill="rgb(255,255,255)" stroke="rgb(85,85,85)" paint-order="fill stroke markers" d="" fill-opacity="0.5" stroke-opacity="1" stroke-miterlimit="10" stroke-width="1.25"/><text fill="rgb(0,0,0)" stroke="none" font-family="Helvetica" font-size="11px" font-style="normal" font-weight="normal" text-decoration="normal" x="284.0965029793092" y="123.34219992796307" text-anchor="middle" dominant-baseline="text-after-edge" fill-opacity="1">ADP</text><path fill="rgb(255,255,255)" stroke="rgb(85,85,85)" paint-order="fill stroke markers" d=" M 499.5039962508847 456.26700259971136 L 499.5039962508847 456.26700259971136 L 499.5039962508847 456.26700259971136 A 18 18 0 0 1 517.5039962508847 474.26700259971136 L 517.5039962508847 478.26700259971136 L 517.5039962508847 478.26700259971136 A 18 18 0 0 1 499.5039962508847 496.26700259971136 L 499.5039962508847 496.26700259971136 L 499.5039962508847 496.26700259971136 A 18 18 0 0 1 481.5039962508847 478.26700259971136 L 481.5039962508847 474.26700259971136 L 481.5039962508847 474.26700259971136 A 18 18 0 0 1 499.5039962508847 456.26700259971136 L 499.5039962508847 456.26700259971136 Z" fill-opacity="0.5" stroke-opacity="1" stroke-miterlimit="10" stroke-width="1.25"/><path fill="#a9a9a9" stroke="none" paint-order="stroke fill markers" d=" M 484.348551684657 485.01700259971136 L 499.5039962508847 485.01700259971136 L 499.5039962508847 493.76700259971136 A 17.5 17.5 0 0 1 484.348551684657 485.01700259971136 Z" fill-opacity="0.5"/><path fill="#a9a9a9" stroke="none" paint-order="stroke fill markers" d=" M 499.5039962508847 485.01700259971136 L 514.6594408171123 485.01700259971136 L 514.6594408171123 485.01700259971136 A 17.5 17.5 0 0 1 499.5039962508847 493.76700259971136 Z" fill-opacity="0.5"/><path fill="#a9a9a9" stroke="none" paint-order="stroke fill markers" d=" M 499.5039962508847 485.01700259971136 L 499.5039962508847 493.76700259971136 L 499.5039962508847 493.76700259971136 L 499.5039962508847 485.01700259971136 Z" fill-opacity="0.5"/><path fill="rgb(255,255,255)" stroke="rgb(85,85,85)" paint-order="fill stroke markers" d="" fill-opacity="0.5" stroke-opacity="1" stroke-miterlimit="10" stroke-width="1.25"/><text fill="rgb(0,0,0)" stroke="none" font-family="Helvetica" font-size="11px" font-style="normal" font-weight="normal" text-decoration="normal" x="499.5039962508847" y="481.76700259971136" text-anchor="middle" dominant-baseline="text-after-edge" fill-opacity="1">ATP</text><path fill="rgb(255,255,255)" stroke="rgb(85,85,85)" paint-order="fill stroke markers" d=" M 410.7808276480597 77.92161129710186 L 410.7808276480597 77.92161129710186 L 410.7808276480597 77.92161129710186 A 18 18 0 0 1 428.7808276480597 95.92161129710186 L 428.7808276480597 99.92161129710186 L 428.7808276480597 99.92161129710186 A 18 18 0 0 1 410.7808276480597 117.92161129710186 L 410.7808276480597 117.92161129710186 L 410.7808276480597 117.92161129710186 A 18 18 0 0 1 392.7808276480597 99.92161129710186 L 392.7808276480597 95.92161129710186 L 392.7808276480597 95.92161129710186 A 18 18 0 0 1 410.7808276480597 77.92161129710186 L 410.7808276480597 77.92161129710186 Z" fill-opacity="0.5" stroke-opacity="1" stroke-miterlimit="10" stroke-width="1.25"/><path fill="#a9a9a9" stroke="none" paint-order="stroke fill markers" d=" M 395.625383081832 106.67161129710186 L 410.7808276480597 106.67161129710186 L 410.7808276480597 115.42161129710186 A 17.5 17.5 0 0 1 395.625383081832 106.67161129710186 Z" fill-opacity="0.5"/><path fill="#a9a9a9" stroke="none" paint-order="stroke fill markers" d=" M 410.7808276480597 106.67161129710186 L 425.9362722142874 106.67161129710186 L 425.9362722142874 106.67161129710186 A 17.5 17.5 0 0 1 410.7808276480597 115.42161129710186 Z" fill-opacity="0.5"/><path fill="#a9a9a9" stroke="none" paint-order="stroke fill markers" d=" M 410.7808276480597 106.67161129710186 L 410.7808276480597 115.42161129710186 L 410.7808276480597 115.42161129710186 L 410.7808276480597 106.67161129710186 Z" fill-opacity="0.5"/><path fill="rgb(255,255,255)" stroke="rgb(85,85,85)" paint-order="fill stroke markers" d="" fill-opacity="0.5" stroke-opacity="1" stroke-miterlimit="10" stroke-width="1.25"/><text fill="rgb(0,0,0)" stroke="none" font-family="Helvetica" font-size="11px" font-style="normal" font-weight="normal" text-decoration="normal" x="410.7808276480597" y="103.42161129710186" text-anchor="middle" dominant-baseline="text-after-edge" fill-opacity="1">ATP</text><path fill="rgb(255,255,255)" stroke="rgb(85,85,85)" paint-order="fill stroke markers" d=" M 438.80946821529494 270.5612595496333 L 438.80946821529494 270.5612595496333 L 438.80946821529494 270.5612595496333 A 18 18 0 0 1 456.80946821529494 288.5612595496333 L 456.80946821529494 292.5612595496333 L 456.80946821529494 292.5612595496333 A 18 18 0 0 1 438.80946821529494 310.5612595496333 L 438.80946821529494 310.5612595496333 L 438.80946821529494 310.5612595496333 A 18 18 0 0 1 420.80946821529494 292.5612595496333 L 420.80946821529494 288.5612595496333 L 420.80946821529494 288.5612595496333 A 18 18 0 0 1 438.80946821529494 270.5612595496333 L 438.80946821529494 270.5612595496333 Z" fill-opacity="0.5" stroke-opacity="1" stroke-miterlimit="10" stroke-width="1.25"/><path fill="#a9a9a9" stroke="none" paint-order="stroke fill markers" d=" M 423.65402364906726 299.3112595496333 L 438.80946821529494 299.3112595496333 L 438.80946821529494 308.0612595496333 A 17.5 17.5 0 0 1 423.65402364906726 299.3112595496333 Z" fill-opacity="0.5"/><path fill="#a9a9a9" stroke="none" paint-order="stroke fill markers" d=" M 438.80946821529494 299.3112595496333 L 453.9649127815226 299.3112595496333 L 453.9649127815226 299.3112595496333 A 17.5 17.5 0 0 1 438.80946821529494 308.0612595496333 Z" fill-opacity="0.5"/><path fill="#a9a9a9" stroke="none" paint-order="stroke fill markers" d=" M 438.80946821529494 299.3112595496333 L 438.80946821529494 308.0612595496333 L 438.80946821529494 308.0612595496333 L 438.80946821529494 299.3112595496333 Z" fill-opacity="0.5"/><path fill="rgb(255,255,255)" stroke="rgb(85,85,85)" paint-order="fill stroke markers" d="" fill-opacity="0.5" stroke-opacity="1" stroke-miterlimit="10" stroke-width="1.25"/><text fill="rgb(0,0,0)" stroke="none" font-family="Helvetica" font-size="11px" font-style="normal" font-weight="normal" text-decoration="normal" x="438.80946821529494" y="296.0612595496333" text-anchor="middle" dominant-baseline="text-after-edge" fill-opacity="1">H2O2</text><path fill="rgb(255,255,255)" stroke="rgb(85,85,85)" paint-order="fill stroke markers" d=" M 256.7829321803197 434.2202834033183 L 256.7829321803197 434.2202834033183 L 256.7829321803197 434.2202834033183 A 18 18 0 0 1 274.7829321803197 452.2202834033183 L 274.7829321803197 456.2202834033183 L 274.7829321803197 456.2202834033183 A 18 18 0 0 1 256.7829321803197 474.2202834033183 L 256.7829321803197 474.2202834033183 L 256.7829321803197 474.2202834033183 A 18 18 0 0 1 238.78293218031968 456.2202834033183 L 238.78293218031968 452.2202834033183 L 238.78293218031968 452.2202834033183 A 18 18 0 0 1 256.7829321803197 434.2202834033183 L 256.7829321803197 434.2202834033183 Z" fill-opacity="0.5" stroke-opacity="1" stroke-miterlimit="10" stroke-width="1.25"/><path fill="#a9a9a9" stroke="none" paint-order="stroke fill markers" d=" M 241.627487614092 462.9702834033183 L 256.7829321803197 462.9702834033183 L 256.7829321803197 471.7202834033183 A 17.5 17.5 0 0 1 241.627487614092 462.9702834033183 Z" fill-opacity="0.5"/><path fill="#a9a9a9" stroke="none" paint-order="stroke fill markers" d=" M 256.7829321803197 462.9702834033183 L 271.93837674654736 462.9702834033183 L 271.93837674654736 462.9702834033183 A 17.5 17.5 0 0 1 256.7829321803197 471.7202834033183 Z" fill-opacity="0.5"/><path fill="#a9a9a9" stroke="none" paint-order="stroke fill markers" d=" M 256.7829321803197 462.9702834033183 L 256.7829321803197 471.7202834033183 L 256.7829321803197 471.7202834033183 L 256.7829321803197 462.9702834033183 Z" fill-opacity="0.5"/><path fill="rgb(255,255,255)" stroke="rgb(85,85,85)" paint-order="fill stroke markers" d="" fill-opacity="0.5" stroke-opacity="1" stroke-miterlimit="10" stroke-width="1.25"/><text fill="rgb(0,0,0)" stroke="none" font-family="Helvetica" font-size="11px" font-style="normal" font-weight="normal" text-decoration="normal" x="256.7829321803197" y="459.7202834033183" text-anchor="middle" dominant-baseline="text-after-edge" fill-opacity="1">H2O2</text><path fill="rgb(255,255,255)" stroke="rgb(85,85,85)" paint-order="fill stroke markers" d=" M 680.1015236121747 484.0792216363901 L 680.1015236121747 484.0792216363901 L 680.1015236121747 484.0792216363901 A 18 18 0 0 1 698.1015236121747 502.0792216363901 L 698.1015236121747 506.0792216363901 L 698.1015236121747 506.0792216363901 A 18 18 0 0 1 680.1015236121747 524.0792216363901 L 680.1015236121747 524.0792216363901 L 680.1015236121747 524.0792216363901 A 18 18 0 0 1 662.1015236121747 506.0792216363901 L 662.1015236121747 502.0792216363901 L 662.1015236121747 502.0792216363901 A 18 18 0 0 1 680.1015236121747 484.0792216363901 L 680.1015236121747 484.0792216363901 Z" fill-opacity="0.5" stroke-opacity="1" stroke-miterlimit="10" stroke-width="1.25"/><path fill="#a9a9a9" stroke="none" paint-order="stroke fill markers" d=" M 664.946079045947 512.8292216363901 L 680.1015236121747 512.8292216363901 L 680.1015236121747 521.5792216363901 A 17.5 17.5 0 0 1 664.946079045947 512.8292216363901 Z" fill-opacity="0.5"/><path fill="#a9a9a9" stroke="none" paint-order="stroke fill markers" d=" M 680.1015236121747 512.8292216363901 L 695.2569681784023 512.8292216363901 L 695.2569681784023 512.8292216363901 A 17.5 17.5 0 0 1 680.1015236121747 521.5792216363901 Z" fill-opacity="0.5"/><path fill="#a9a9a9" stroke="none" paint-order="stroke fill markers" d=" M 680.1015236121747 512.8292216363901 L 680.1015236121747 521.5792216363901 L 680.1015236121747 521.5792216363901 L 680.1015236121747 512.8292216363901 Z" fill-opacity="0.5"/><path fill="rgb(255,255,255)" stroke="rgb(85,85,85)" paint-order="fill stroke markers" d="" fill-opacity="0.5" stroke-opacity="1" stroke-miterlimit="10" stroke-width="1.25"/><text fill="rgb(0,0,0)" stroke="none" font-family="Helvetica" font-size="11px" font-style="normal" font-weight="normal" text-decoration="normal" x="680.1015236121747" y="509.5792216363901" text-anchor="middle" dominant-baseline="text-after-edge" fill-opacity="1">H2O2</text><path fill="rgb(255,255,255)" stroke="rgb(85,85,85)" paint-order="fill stroke markers" d=" M 429.0930417865483 201.5002046722702 L 429.0930417865483 201.5002046722702 L 429.0930417865483 201.5002046722702 A 18 18 0 0 1 447.0930417865483 219.5002046722702 L 447.0930417865483 223.5002046722702 L 447.0930417865483 223.5002046722702 A 18 18 0 0 1 429.0930417865483 241.5002046722702 L 429.0930417865483 241.5002046722702 L 429.0930417865483 241.5002046722702 A 18 18 0 0 1 411.0930417865483 223.5002046722702 L 411.0930417865483 219.5002046722702 L 411.0930417865483 219.5002046722702 A 18 18 0 0 1 429.0930417865483 201.5002046722702 L 429.0930417865483 201.5002046722702 Z" fill-opacity="0.5" stroke-opacity="1" stroke-miterlimit="10" stroke-width="1.25"/><path fill="#a9a9a9" stroke="none" paint-order="stroke fill markers" d=" M 413.93759722032064 230.2502046722702 L 429.0930417865483 230.2502046722702 L 429.0930417865483 239.0002046722702 A 17.5 17.5 0 0 1 413.93759722032064 230.2502046722702 Z" fill-opacity="0.5"/><path fill="#a9a9a9" stroke="none" paint-order="stroke fill markers" d=" M 429.0930417865483 230.2502046722702 L 444.248486352776 230.2502046722702 L 444.248486352776 230.2502046722702 A 17.5 17.5 0 0 1 429.0930417865483 239.0002046722702 Z" fill-opacity="0.5"/><path fill="#a9a9a9" stroke="none" paint-order="stroke fill markers" d=" M 429.0930417865483 230.2502046722702 L 429.0930417865483 239.0002046722702 L 429.0930417865483 239.0002046722702 L 429.0930417865483 230.2502046722702 Z" fill-opacity="0.5"/><path fill="rgb(255,255,255)" stroke="rgb(85,85,85)" paint-order="fill stroke markers" d="" fill-opacity="0.5" stroke-opacity="1" stroke-miterlimit="10" stroke-width="1.25"/><text fill="rgb(0,0,0)" stroke="none" font-family="Helvetica" font-size="11px" font-style="normal" font-weight="normal" text-decoration="normal" x="429.0930417865483" y="227.0002046722702" text-anchor="middle" dominant-baseline="text-after-edge" fill-opacity="1">O2</text><path fill="rgb(255,255,255)" stroke="rgb(85,85,85)" paint-order="fill stroke markers" d=" M 306.0515241227097 308.4333885296874 L 306.0515241227097 308.4333885296874 L 306.0515241227097 308.4333885296874 A 18 18 0 0 1 324.0515241227097 326.4333885296874 L 324.0515241227097 330.4333885296874 L 324.0515241227097 330.4333885296874 A 18 18 0 0 1 306.0515241227097 348.4333885296874 L 306.0515241227097 348.4333885296874 L 306.0515241227097 348.4333885296874 A 18 18 0 0 1 288.0515241227097 330.4333885296874 L 288.0515241227097 326.4333885296874 L 288.0515241227097 326.4333885296874 A 18 18 0 0 1 306.0515241227097 308.4333885296874 L 306.0515241227097 308.4333885296874 Z" fill-opacity="0.5" stroke-opacity="1" stroke-miterlimit="10" stroke-width="1.25"/><path fill="#a9a9a9" stroke="none" paint-order="stroke fill markers" d=" M 290.896079556482 337.1833885296874 L 306.0515241227097 337.1833885296874 L 306.0515241227097 345.9333885296874 A 17.5 17.5 0 0 1 290.896079556482 337.1833885296874 Z" fill-opacity="0.5"/><path fill="#a9a9a9" stroke="none" paint-order="stroke fill markers" d=" M 306.0515241227097 337.1833885296874 L 321.20696868893737 337.1833885296874 L 321.20696868893737 337.1833885296874 A 17.5 17.5 0 0 1 306.0515241227097 345.9333885296874 Z" fill-opacity="0.5"/><path fill="#a9a9a9" stroke="none" paint-order="stroke fill markers" d=" M 306.0515241227097 337.1833885296874 L 306.0515241227097 345.9333885296874 L 306.0515241227097 345.9333885296874 L 306.0515241227097 337.1833885296874 Z" fill-opacity="0.5"/><path fill="rgb(255,255,255)" stroke="rgb(85,85,85)" paint-order="fill stroke markers" d="" fill-opacity="0.5" stroke-opacity="1" stroke-miterlimit="10" stroke-width="1.25"/><text fill="rgb(0,0,0)" stroke="none" font-family="Helvetica" font-size="11px" font-style="normal" font-weight="normal" text-decoration="normal" x="306.0515241227097" y="333.9333885296874" text-anchor="middle" dominant-baseline="text-after-edge" fill-opacity="1">O2</text><path fill="rgb(255,255,255)" stroke="rgb(85,85,85)" paint-order="fill stroke markers" d=" M 249.02207432728295 299.1068475650604 L 249.02207432728295 299.1068475650604 L 249.02207432728295 299.1068475650604 A 18 18 0 0 1 267.02207432728295 317.1068475650604 L 267.02207432728295 321.1068475650604 L 267.02207432728295 321.1068475650604 A 18 18 0 0 1 249.02207432728295 339.1068475650604 L 249.02207432728295 339.1068475650604 L 249.02207432728295 339.1068475650604 A 18 18 0 0 1 231.02207432728295 321.1068475650604 L 231.02207432728295 317.1068475650604 L 231.02207432728295 317.1068475650604 A 18 18 0 0 1 249.02207432728295 299.1068475650604 L 249.02207432728295 299.1068475650604 Z" fill-opacity="0.5" stroke-opacity="1" stroke-miterlimit="10" stroke-width="1.25"/><path fill="#a9a9a9" stroke="none" paint-order="stroke fill markers" d=" M 233.86662976105526 327.8568475650604 L 249.02207432728295 327.8568475650604 L 249.02207432728295 336.6068475650604 A 17.5 17.5 0 0 1 233.86662976105526 327.8568475650604 Z" fill-opacity="0.5"/><path fill="#a9a9a9" stroke="none" paint-order="stroke fill markers" d=" M 249.02207432728295 327.8568475650604 L 264.17751889351064 327.8568475650604 L 264.17751889351064 327.8568475650604 A 17.5 17.5 0 0 1 249.02207432728295 336.6068475650604 Z" fill-opacity="0.5"/><path fill="#a9a9a9" stroke="none" paint-order="stroke fill markers" d=" M 249.02207432728295 327.8568475650604 L 249.02207432728295 336.6068475650604 L 249.02207432728295 336.6068475650604 L 249.02207432728295 327.8568475650604 Z" fill-opacity="0.5"/><path fill="rgb(255,255,255)" stroke="rgb(85,85,85)" paint-order="fill stroke markers" d="" fill-opacity="0.5" stroke-opacity="1" stroke-miterlimit="10" stroke-width="1.25"/><text fill="rgb(0,0,0)" stroke="none" font-family="Helvetica" font-size="11px" font-style="normal" font-weight="normal" text-decoration="normal" x="249.02207432728295" y="324.6068475650604" text-anchor="middle" dominant-baseline="text-after-edge" fill-opacity="1">H2O</text><path fill="rgb(255,255,255)" stroke="rgb(85,85,85)" paint-order="fill stroke markers" d=" M 631.6462876691157 354.0352577998888 L 631.6462876691157 354.0352577998888 L 631.6462876691157 354.0352577998888 A 18 18 0 0 1 649.6462876691157 372.0352577998888 L 649.6462876691157 376.0352577998888 L 649.6462876691157 376.0352577998888 A 18 18 0 0 1 631.6462876691157 394.0352577998888 L 631.6462876691157 394.0352577998888 L 631.6462876691157 394.0352577998888 A 18 18 0 0 1 613.6462876691157 376.0352577998888 L 613.6462876691157 372.0352577998888 L 613.6462876691157 372.0352577998888 A 18 18 0 0 1 631.6462876691157 354.0352577998888 L 631.6462876691157 354.0352577998888 Z" fill-opacity="0.5" stroke-opacity="1" stroke-miterlimit="10" stroke-width="1.25"/><path fill="#a9a9a9" stroke="none" paint-order="stroke fill markers" d=" M 616.4908431028881 382.7852577998888 L 631.6462876691157 382.7852577998888 L 631.6462876691157 391.5352577998888 A 17.5 17.5 0 0 1 616.4908431028881 382.7852577998888 Z" fill-opacity="0.5"/><path fill="#a9a9a9" stroke="none" paint-order="stroke fill markers" d=" M 631.6462876691157 382.7852577998888 L 646.8017322353434 382.7852577998888 L 646.8017322353434 382.7852577998888 A 17.5 17.5 0 0 1 631.6462876691157 391.5352577998888 Z" fill-opacity="0.5"/><path fill="#a9a9a9" stroke="none" paint-order="stroke fill markers" d=" M 631.6462876691157 382.7852577998888 L 631.6462876691157 391.5352577998888 L 631.6462876691157 391.5352577998888 L 631.6462876691157 382.7852577998888 Z" fill-opacity="0.5"/><path fill="rgb(255,255,255)" stroke="rgb(85,85,85)" paint-order="fill stroke markers" d="" fill-opacity="0.5" stroke-opacity="1" stroke-miterlimit="10" stroke-width="1.25"/><text fill="rgb(0,0,0)" stroke="none" font-family="Helvetica" font-size="11px" font-style="normal" font-weight="normal" text-decoration="normal" x="631.6462876691157" y="379.5352577998888" text-anchor="middle" dominant-baseline="text-after-edge" fill-opacity="1">H2O</text><path fill="rgb(255,255,255)" stroke="rgb(85,85,85)" paint-order="fill stroke markers" d=" M 55.319560350933656 513.946578531886 L 55.319560350933656 513.946578531886 L 55.319560350933656 513.946578531886 A 18 18 0 0 1 73.31956035093366 531.946578531886 L 73.31956035093366 535.946578531886 L 73.31956035093366 535.946578531886 A 18 18 0 0 1 55.319560350933656 553.946578531886 L 55.319560350933656 553.946578531886 L 55.319560350933656 553.946578531886 A 18 18 0 0 1 37.319560350933656 535.946578531886 L 37.319560350933656 531.946578531886 L 37.319560350933656 531.946578531886 A 18 18 0 0 1 55.319560350933656 513.946578531886 L 55.319560350933656 513.946578531886 Z" fill-opacity="0.5" stroke-opacity="1" stroke-miterlimit="10" stroke-width="1.25"/><path fill="#a9a9a9" stroke="none" paint-order="stroke fill markers" d=" M 40.164115784705984 542.696578531886 L 55.319560350933656 542.696578531886 L 55.319560350933656 551.446578531886 A 17.5 17.5 0 0 1 40.16411578470598 542.696578531886 Z" fill-opacity="0.5"/><path fill="#a9a9a9" stroke="none" paint-order="stroke fill markers" d=" M 55.319560350933656 542.696578531886 L 70.47500491716133 542.696578531886 L 70.47500491716133 542.696578531886 A 17.5 17.5 0 0 1 55.319560350933656 551.446578531886 Z" fill-opacity="0.5"/><path fill="#a9a9a9" stroke="none" paint-order="stroke fill markers" d=" M 55.319560350933656 542.696578531886 L 55.319560350933656 551.446578531886 L 55.319560350933656 551.446578531886 L 55.319560350933656 542.696578531886 Z" fill-opacity="0.5"/><path fill="rgb(255,255,255)" stroke="rgb(85,85,85)" paint-order="fill stroke markers" d="" fill-opacity="0.5" stroke-opacity="1" stroke-miterlimit="10" stroke-width="1.25"/><text fill="rgb(0,0,0)" stroke="none" font-family="Helvetica" font-size="11px" font-style="normal" font-weight="normal" text-decoration="normal" x="55.319560350933656" y="539.446578531886" text-anchor="middle" dominant-baseline="text-after-edge" fill-opacity="1">ADP</text><path fill="rgb(255,255,255)" stroke="rgb(85,85,85)" paint-order="fill stroke markers" d=" M 496.13413527179193 338.3654821479818 L 496.13413527179193 338.3654821479818 L 496.13413527179193 338.3654821479818 A 18 18 0 0 1 514.1341352717919 356.3654821479818 L 514.1341352717919 360.3654821479818 L 514.1341352717919 360.3654821479818 A 18 18 0 0 1 496.13413527179193 378.3654821479818 L 496.13413527179193 378.3654821479818 L 496.13413527179193 378.3654821479818 A 18 18 0 0 1 478.13413527179193 360.3654821479818 L 478.13413527179193 356.3654821479818 L 478.13413527179193 356.3654821479818 A 18 18 0 0 1 496.13413527179193 338.3654821479818 L 496.13413527179193 338.3654821479818 Z" fill-opacity="0.5" stroke-opacity="1" stroke-miterlimit="10" stroke-width="1.25"/><path fill="#a9a9a9" stroke="none" paint-order="stroke fill markers" d=" M 480.97869070556425 367.1154821479818 L 496.13413527179193 367.1154821479818 L 496.13413527179193 375.8654821479818 A 17.5 17.5 0 0 1 480.97869070556425 367.1154821479818 Z" fill-opacity="0.5"/><path fill="#a9a9a9" stroke="none" paint-order="stroke fill markers" d=" M 496.13413527179193 367.1154821479818 L 511.2895798380196 367.1154821479818 L 511.2895798380196 367.1154821479818 A 17.5 17.5 0 0 1 496.13413527179193 375.8654821479818 Z" fill-opacity="0.5"/><path fill="#a9a9a9" stroke="none" paint-order="stroke fill markers" d=" M 496.13413527179193 367.1154821479818 L 496.13413527179193 375.8654821479818 L 496.13413527179193 375.8654821479818 L 496.13413527179193 367.1154821479818 Z" fill-opacity="0.5"/><path fill="rgb(255,255,255)" stroke="rgb(85,85,85)" paint-order="fill stroke markers" d="" fill-opacity="0.5" stroke-opacity="1" stroke-miterlimit="10" stroke-width="1.25"/><text fill="rgb(0,0,0)" stroke="none" font-family="Helvetica" font-size="11px" font-style="normal" font-weight="normal" text-decoration="normal" x="496.13413527179193" y="363.8654821479818" text-anchor="middle" dominant-baseline="text-after-edge" fill-opacity="1">ADP</text><path fill="rgb(255,255,255)" stroke="rgb(85,85,85)" paint-order="fill stroke markers" d=" M 53.269300585102144 440.6351553679187 L 53.269300585102144 440.6351553679187 L 53.269300585102144 440.6351553679187 A 18 18 0 0 1 71.26930058510214 458.6351553679187 L 71.26930058510214 462.6351553679187 L 71.26930058510214 462.6351553679187 A 18 18 0 0 1 53.269300585102144 480.6351553679187 L 53.269300585102144 480.6351553679187 L 53.269300585102144 480.6351553679187 A 18 18 0 0 1 35.269300585102144 462.6351553679187 L 35.269300585102144 458.6351553679187 L 35.269300585102144 458.6351553679187 A 18 18 0 0 1 53.269300585102144 440.6351553679187 L 53.269300585102144 440.6351553679187 Z" fill-opacity="0.5" stroke-opacity="1" stroke-miterlimit="10" stroke-width="1.25"/><path fill="#a9a9a9" stroke="none" paint-order="stroke fill markers" d=" M 38.11385601887447 469.3851553679187 L 53.269300585102144 469.3851553679187 L 53.269300585102144 478.1351553679187 A 17.5 17.5 0 0 1 38.113856018874465 469.3851553679187 Z" fill-opacity="0.5"/><path fill="#a9a9a9" stroke="none" paint-order="stroke fill markers" d=" M 53.269300585102144 469.3851553679187 L 68.42474515132982 469.3851553679187 L 68.42474515132982 469.3851553679187 A 17.5 17.5 0 0 1 53.269300585102144 478.1351553679187 Z" fill-opacity="0.5"/><path fill="#a9a9a9" stroke="none" paint-order="stroke fill markers" d=" M 53.269300585102144 469.3851553679187 L 53.269300585102144 478.1351553679187 L 53.269300585102144 478.1351553679187 L 53.269300585102144 469.3851553679187 Z" fill-opacity="0.5"/><path fill="rgb(255,255,255)" stroke="rgb(85,85,85)" paint-order="fill stroke markers" d="" fill-opacity="0.5" stroke-opacity="1" stroke-miterlimit="10" stroke-width="1.25"/><text fill="rgb(0,0,0)" stroke="none" font-family="Helvetica" font-size="11px" font-style="normal" font-weight="normal" text-decoration="normal" x="53.269300585102144" y="466.1351553679187" text-anchor="middle" dominant-baseline="text-after-edge" fill-opacity="1">ATP</text><path fill="rgb(255,255,255)" stroke="rgb(85,85,85)" paint-order="fill stroke markers" d=" M 616.2045739380358 481.76966415140976 L 616.2045739380358 481.76966415140976 L 616.2045739380358 481.76966415140976 A 18 18 0 0 1 634.2045739380358 499.76966415140976 L 634.2045739380358 503.76966415140976 L 634.2045739380358 503.76966415140976 A 18 18 0 0 1 616.2045739380358 521.7696641514098 L 616.2045739380358 521.7696641514098 L 616.2045739380358 521.7696641514098 A 18 18 0 0 1 598.2045739380358 503.76966415140976 L 598.2045739380358 499.76966415140976 L 598.2045739380358 499.76966415140976 A 18 18 0 0 1 616.2045739380358 481.76966415140976 L 616.2045739380358 481.76966415140976 Z" fill-opacity="0.5" stroke-opacity="1" stroke-miterlimit="10" stroke-width="1.25"/><path fill="#a9a9a9" stroke="none" paint-order="stroke fill markers" d=" M 601.0491293718081 510.51966415140976 L 616.2045739380358 510.51966415140976 L 616.2045739380358 519.2696641514098 A 17.5 17.5 0 0 1 601.0491293718081 510.51966415140976 Z" fill-opacity="0.5"/><path fill="#a9a9a9" stroke="none" paint-order="stroke fill markers" d=" M 616.2045739380358 510.51966415140976 L 631.3600185042634 510.51966415140976 L 631.3600185042634 510.51966415140976 A 17.5 17.5 0 0 1 616.2045739380358 519.2696641514098 Z" fill-opacity="0.5"/><path fill="#a9a9a9" stroke="none" paint-order="stroke fill markers" d=" M 616.2045739380358 510.51966415140976 L 616.2045739380358 519.2696641514098 L 616.2045739380358 519.2696641514098 L 616.2045739380358 510.51966415140976 Z" fill-opacity="0.5"/><path fill="rgb(255,255,255)" stroke="rgb(85,85,85)" paint-order="fill stroke markers" d="" fill-opacity="0.5" stroke-opacity="1" stroke-miterlimit="10" stroke-width="1.25"/><text fill="rgb(0,0,0)" stroke="none" font-family="Helvetica" font-size="11px" font-style="normal" font-weight="normal" text-decoration="normal" x="616.2045739380358" y="507.26966415140976" text-anchor="middle" dominant-baseline="text-after-edge" fill-opacity="1">O2</text><path fill="rgb(255,255,255)" stroke="rgb(85,85,85)" paint-order="fill stroke markers" d=" M 369.9711784151189 272.8384106563142 L 369.9711784151189 287.8384106563142 L 384.9711784151189 287.8384106563142 L 384.9711784151189 272.8384106563142 Z" fill-opacity="0.5" stroke-opacity="1" stroke-miterlimit="10" stroke-width="1.25"/><path fill="rgb(255,255,255)" stroke="rgb(85,85,85)" paint-order="fill stroke markers" d=" M 258.48723670997595 378.6711968540011 L 258.48723670997595 393.6711968540011 L 273.48723670997595 393.6711968540011 L 273.48723670997595 378.6711968540011 Z" fill-opacity="0.5" stroke-opacity="1" stroke-miterlimit="10" stroke-width="1.25"/><path fill="rgb(255,255,255)" stroke="rgb(85,85,85)" paint-order="fill stroke markers" d=" M 451.4481133655628 409.5515382666143 L 451.4481133655628 424.5515382666143 L 466.4481133655628 424.5515382666143 L 466.4481133655628 409.5515382666143 Z" fill-opacity="0.5" stroke-opacity="1" stroke-miterlimit="10" stroke-width="1.25"/><path fill="rgb(255,255,255)" stroke="rgb(85,85,85)" paint-order="fill stroke markers" d=" M 632.8827199489759 430.2699710462131 L 632.8827199489759 445.2699710462131 L 647.8827199489759 445.2699710462131 L 647.8827199489759 430.2699710462131 Z" fill-opacity="0.5" stroke-opacity="1" stroke-miterlimit="10" stroke-width="1.25"/><path fill="rgb(255,255,255)" stroke="rgb(85,85,85)" paint-order="fill stroke markers" d=" M 107.34003588388407 483.4382720986097 L 107.34003588388407 498.4382720986097 L 122.34003588388407 498.4382720986097 L 122.34003588388407 483.4382720986097 Z" fill-opacity="0.5" stroke-opacity="1" stroke-miterlimit="10" stroke-width="1.25"/><path fill="rgb(255,255,255)" stroke="rgb(85,85,85)" paint-order="fill stroke markers" d=" M 341.37412757775166 118.5367847980188 L 341.37412757775166 133.5367847980188 L 356.37412757775166 133.5367847980188 L 356.37412757775166 118.5367847980188 Z" fill-opacity="0.5" stroke-opacity="1" stroke-miterlimit="10" stroke-width="1.25"/><g transform="scale(1,1) translate(12.0193005851022,12.248592594076172)"/></g></svg>