<?xml version="1.0" encoding="iso-8859-1"?>
<!-- Generator: Adobe Illustrator 17.1.0, SVG Export Plug-In . SVG Version: 6.00 Build 0)  -->
<!DOCTYPE svg PUBLIC "-//W3C//DTD SVG 1.1//EN" "http://www.w3.org/Graphics/SVG/1.1/DTD/svg11.dtd">
<svg version="1.1" id="Capa_1" xmlns="http://www.w3.org/2000/svg" xmlns:xlink="http://www.w3.org/1999/xlink" x="0px" y="0px"
	 viewBox="0 0 369.984 369.984" style="enable-background:new 0 0 369.984 369.984;" xml:space="preserve">
<g>
	<path style="fill:#222220;" d="M336.285,104.028c12.388-17.36,10.807-41.692-4.761-57.261l-33.741-33.741
		C289.382,4.626,278.213,0,266.334,0c-11.88,0-23.049,4.626-31.449,13.025L38.487,209.424c-8.399,8.4-13.025,19.569-13.025,31.448
		c0,11.88,4.626,23.049,13.025,31.448l33.741,33.742c8.4,8.399,19.569,13.025,31.449,13.025c11.879,0,23.048-4.626,31.448-13.025
		l157.453-157.453L186.831,325.771c-4.034,6.76-10.461,11.544-18.094,13.471c-7.637,1.929-15.561,0.767-22.321-3.27l-13.009-7.765
		c-3.554-2.122-8.16-0.962-10.284,2.597c-2.122,3.557-0.96,8.161,2.597,10.284l13.009,7.765c7.125,4.253,14.97,6.275,22.721,6.275
		c15.155,0,29.946-7.738,38.263-21.67l104.93-175.792l-53.854,176.428c-2.299,7.529-7.393,13.714-14.342,17.413
		c-6.95,3.698-14.925,4.469-22.454,2.172c-3.957-1.212-8.153,1.021-9.362,4.983c-1.21,3.961,1.021,8.153,4.983,9.362
		c4.291,1.311,8.677,1.959,13.04,1.959c7.189,0,14.314-1.763,20.841-5.236c10.486-5.581,18.172-14.912,21.64-26.274l70.637-231.408
		c0.242-0.793,0.341-1.595,0.321-2.381C336.167,104.468,336.23,104.248,336.285,104.028z M124.518,295.455
		c-5.566,5.567-12.969,8.633-20.841,8.633c-7.873,0-15.275-3.065-20.842-8.633l-33.742-33.742
		c-5.566-5.566-8.632-12.968-8.632-20.841c0-7.872,3.065-15.274,8.633-20.841L245.493,23.633C251.059,18.065,258.461,15,266.334,15
		c7.872,0,15.274,3.065,20.841,8.633l33.741,33.741c11.492,11.492,11.492,30.19,0,41.683L124.518,295.455z"/>
	<path style="fill:#222220;" d="M250.16,43.124c-2.93-2.928-7.678-2.928-10.607,0L192.327,90.35c-2.929,2.93-2.929,7.678,0,10.607
		l51.266,51.266c1.465,1.464,3.385,2.196,5.304,2.196s3.839-0.732,5.304-2.196l47.226-47.226c2.929-2.93,2.929-7.678,0-10.607
		L250.16,43.124z M248.896,136.313l-40.659-40.659l36.619-36.619l40.659,40.659L248.896,136.313z"/>
	<path style="fill:#222220;" d="M181.245,112.04c-2.929-2.928-7.677-2.928-10.607,0l-47.226,47.225
		c-1.406,1.407-2.196,3.314-2.196,5.304s0.79,3.896,2.196,5.304l51.265,51.266c1.407,1.406,3.314,2.196,5.304,2.196
		s3.896-0.79,5.304-2.196l47.226-47.226c2.929-2.93,2.929-7.678,0-10.607L181.245,112.04z M179.98,205.228l-40.658-40.659
		l36.619-36.618l40.658,40.658L179.98,205.228z"/>
	<path style="fill:#222220;" d="M112.329,180.955c-2.93-2.928-7.678-2.928-10.607,0l-47.226,47.226
		c-2.929,2.93-2.929,7.678,0,10.607l51.266,51.266c1.465,1.464,3.385,2.196,5.304,2.196s3.839-0.732,5.304-2.196l47.226-47.226
		c2.929-2.93,2.929-7.678,0-10.607L112.329,180.955z M111.065,274.144l-40.659-40.659l36.619-36.619l40.659,40.659L111.065,274.144z
		"/>
	<path style="fill:#222220;" d="M289.996,62.056c1.97,0,3.899-0.8,5.3-2.199c1.399-1.391,2.2-3.33,2.2-5.301
		c0-1.97-0.801-3.909-2.2-5.3c-1.4-1.399-3.33-2.2-5.3-2.2c-1.98,0-3.91,0.801-5.311,2.2c-1.39,1.391-2.189,3.33-2.189,5.3
		c0,1.98,0.8,3.91,2.189,5.301C286.085,61.256,288.015,62.056,289.996,62.056z"/>
</g>
<g>
</g>
<g>
</g>
<g>
</g>
<g>
</g>
<g>
</g>
<g>
</g>
<g>
</g>
<g>
</g>
<g>
</g>
<g>
</g>
<g>
</g>
<g>
</g>
<g>
</g>
<g>
</g>
<g>
</g>
</svg>
