<?xml version="1.0" encoding="iso-8859-1"?>
<!-- Generator: Adobe Illustrator 16.0.0, SVG Export Plug-In . SVG Version: 6.00 Build 0)  -->
<!DOCTYPE svg PUBLIC "-//W3C//DTD SVG 1.1//EN" "http://www.w3.org/Graphics/SVG/1.1/DTD/svg11.dtd">
<svg version="1.1" id="Capa_1" xmlns="http://www.w3.org/2000/svg" xmlns:xlink="http://www.w3.org/1999/xlink" x="0px" y="0px"
	 width="403.729px" height="403.729px" viewBox="0 0 403.729 403.729" style="enable-background:new 0 0 403.729 403.729;"
	 xml:space="preserve">
<g>
	<g>
		<g id="Layer_5_95_">
			<g>
				<path d="M211.027,178.319c-45.062-21.617-100.527,0.334-123.887,49.029c-34.3,71.5,42.761,99.834-20.174,163.534
					c-35.124,35.553,145.267-5.856,183.354-85.254C273.68,256.934,256.088,199.936,211.027,178.319z"/>
				<path d="M337.691,44.849L245.578,0.661c-3.521-1.688-7.376-0.029-8.568,3.688c0,0-20.056,60.925-27.049,84.287
					c-1.768,5.902-3.498,9.161,1.848,11.724c16.005,7.675,51.771,24.84,69.734,33.455c4.662,2.236,6.799-1.559,9.933-6.291
					c12.63-19.074,48.701-73.683,48.701-73.683C342.33,50.583,341.211,46.537,337.691,44.849z"/>
				<path d="M271.523,148.204c-15.836-7.594-48.771-23.401-64.605-30.995c-6.381-3.06-7.568,3.75-8.57,6.469
					c-2.311,6.267-8.163,25.437-8.163,25.437c-1.192,3.717,0.991,7.22,4.854,7.785c0,0,14.877,2.175,25.26,7.155
					c12.852,6.165,26.676,20.937,26.676,20.937c2.666,2.85,6.61,2.518,8.765-0.739c0,0,13.022-18.761,16.772-25.377
					C273.887,156.445,277.238,150.943,271.523,148.204z"/>
			</g>
		</g>
	</g>
</g>
<g>
</g>
<g>
</g>
<g>
</g>
<g>
</g>
<g>
</g>
<g>
</g>
<g>
</g>
<g>
</g>
<g>
</g>
<g>
</g>
<g>
</g>
<g>
</g>
<g>
</g>
<g>
</g>
<g>
</g>
</svg>
