<?xml version="1.0" encoding="UTF-8" standalone="no"?>
<svg width="100" height="150" viewBox="0 0 100 150" xmlns="http://www.w3.org/2000/svg">
    <path vector-effect="non-scaling-stroke" stroke="currentColor" fill="none"
          d="m58.46714,27.713327c-22.205345,-29.90079 37.310066,-30.258356 25.567245,-4.823446c-8.807655,18.581238 -17.066429,58.135235 -0.941673,99.22044c13.31469,27.066696 -41.748463,27.760925 -27.755554,-1.469849c11.345825,-29.420242 10.286858,-80.336422 3.129982,-92.927145z"/>
    <path stroke="currentColor" vector-effect="non-scaling-stroke" fill="none"
          d="m31.214371,36.214363c-10.791712,-21.427903 29.897598,-19.848164 18.407501,0.670895c-4.066933,7.422386 -5.782803,61.572803 1.160713,75.028805c8.52943,18.597427 -32.852985,19.355408 -20.500162,-2.250633c6.952761,-17.358604 10.473742,-52.291187 0.931948,-73.449066z"/>
    <path stroke="currentColor" vector-effect="non-scaling-stroke" fill="none"
          d="m29.803959,52.160912c1.584177,11.474716 2.723461,16.737267 -1.482977,38.361366c-3.731956,12.989006 -3.600399,16.340691 -11.732334,19.412781c-6.683298,1.658531 -11.864832,-9.789436 -4.793299,-16.11377c4.855728,-5.623222 6.141087,-10.882362 6.658888,-22.954659c-0.239212,-9.521427 0.814508,-15.823826 -5.36692,-19.958626c-7.624315,-2.195171 -6.088041,-16.534611 4.824059,-13.863804c5.849354,1.027065 10.282408,8.561516 11.892582,15.116711z"/>
</svg>
